<?xml version="1.0" encoding="UTF-8"?>
<svg width="3470px" height="3026px" viewBox="0 0 3470 3026" version="1.1" xmlns="http://www.w3.org/2000/svg" xmlns:xlink="http://www.w3.org/1999/xlink">
    <!-- Generator: Sketch 51.3 (57544) - http://www.bohemiancoding.com/sketch -->
    <title>12 Pepsi</title>
    <desc>Created with Sketch.</desc>
    <defs></defs>
    <g id="Page-1" stroke="none" stroke-width="1" fill="none" fill-rule="evenodd">
        <g id="12-Pepsi" fill-rule="nonzero">
            <g id="cola" transform="translate(0.000000, 210.000000)">
                <path d="M484.984375,996.195312 C482.515625,996.195312 480.011719,995.886719 477.511719,995.242188 C461.601563,991.128906 452.042969,974.894531 456.15625,958.988281 L698.40625,22.3007812 C701.800781,9.171875 713.648438,0 727.210938,0 L1070.35156,0 C1086.78125,0 1100.10547,13.3203125 1100.10547,29.7539062 C1100.10547,46.1875 1086.78516,59.5078125 1070.35156,59.5078125 L750.25,59.5078125 L513.769531,973.886719 C510.296875,987.292969 498.21875,996.195312 484.984375,996.195312 Z" id="Shape" fill="#1E608B"></path>
                <path d="M966.691406,628.894531 L756.460938,628.894531 L546.230469,628.894531 L336,628.894531 L125.769531,628.894531 L275.089844,1909.42188 C281.109375,1961.05859 324.855469,2000 376.84375,2000 L431.929687,2000 L578.207031,2000 L724.484375,2000 L870.761719,2000 L925.847656,2000 C977.835938,2000 1021.58203,1961.05859 1027.60156,1909.42188 L1176.92188,628.894531 L966.691406,628.894531 Z" id="Shape" fill="#EF4A50"></path>
                <path d="M966.691406,628.894531 L817.371094,1909.42188 C817.363281,1909.49219 817.355469,1909.55859 817.347656,1909.62891 C816.007812,1920.92578 806.09375,1929.25781 794.71875,1929.25781 L726.355469,1929.25781 L576.339844,1929.25781 L426.324219,1929.25781 L369.832031,1929.25781 C321.636719,1929.25781 280.355469,1896.62109 268.308594,1851.23438 L275.09375,1909.42188 C281.109375,1961.05859 324.855469,2000 376.84375,2000 L431.929688,2000 L578.207031,2000 L715.617188,2000 L724.484375,2000 L870.761719,2000 L925.847656,2000 C977.835938,2000 1021.58203,1961.05859 1027.60156,1909.42188 L1176.92187,628.894531 L966.691406,628.894531 Z" id="Shape" fill="#DD2A37"></path>
                <g id="Group" transform="translate(335.937500, 628.000000)" fill="#F2EBDA">
                    <polygon id="Shape" points="242.269531 1372 95.9921875 1372 0.05859375 0.89453125 210.289062 0.89453125"></polygon>
                    <polygon id="Shape" points="242.269531 1372 95.9921875 1372 0.05859375 0.89453125 210.289062 0.89453125"></polygon>
                </g>
                <polygon id="Shape" fill="#E5DECF" points="426.976563 1929.25391 431.929688 2000 578.207031 2000 576.554688 1929.25391 576.335938 1929.25391"></polygon>
                <polygon id="Shape" fill="#F2EBDA" points="870.757812 2000 724.480469 2000 756.460938 628.894531 966.691406 628.894531"></polygon>
                <path d="M966.691406,628.894531 L817.371094,1909.42188 C817.363281,1909.49219 817.355469,1909.55859 817.347656,1909.62891 C816.007812,1920.92578 806.09375,1929.25781 794.71875,1929.25781 L726.355469,1929.25781 L726.136719,1929.25781 L724.480469,2000 L870.757812,2000 L966.691406,628.894531 Z" id="Shape" fill="#E5DECF"></path>
                <path d="M1113.48828,598.320312 L189.199219,598.320312 L228.664062,448.980469 C234.402344,427.261719 254.050781,412.128906 276.515625,412.128906 L1026.16797,412.128906 C1048.63281,412.128906 1068.28125,427.257812 1074.01953,448.980469 L1113.48828,598.320312 Z" id="Shape" fill="#F2EBDA"></path>
                <path d="M1074.02344,448.980469 C1068.28516,427.261719 1048.63672,412.128906 1026.17188,412.128906 L812.144531,412.128906 C834.609375,412.128906 854.257812,427.257812 859.996094,448.980469 L868.714844,481.972656 C876.304688,510.691406 854.648438,538.816406 824.941406,538.816406 L204.921875,538.816406 L189.195312,598.320312 L1113.48828,598.320312 L1074.02344,448.980469 Z" id="Shape" fill="#E5DECF"></path>
                <path d="M1273.95703,742.257812 L28.7304688,742.257812 C12.9570313,742.257812 0.171875,729.472656 0.171875,713.699219 L0.171875,607.859375 C0.171875,592.085938 12.9570313,579.300781 28.7304688,579.300781 L1273.95312,579.300781 C1289.72656,579.300781 1302.51172,592.085938 1302.51172,607.859375 L1302.51172,713.699219 C1302.51172,729.472656 1289.72656,742.257812 1273.95703,742.257812 Z" id="Shape" fill="#DDD5C3"></path>
                <path d="M1273.95703,579.304688 L1095.82812,579.304688 L1095.82812,675.023438 C1095.82812,690.796875 1083.04297,703.582031 1067.26953,703.582031 L0.17578125,703.582031 L0.17578125,713.703125 C0.17578125,729.476563 12.9609375,742.261719 28.734375,742.261719 L1273.95703,742.261719 C1289.73047,742.261719 1302.51562,729.476563 1302.51562,713.703125 L1302.51562,607.863281 C1302.51172,592.089844 1289.72656,579.304688 1273.95703,579.304688 Z" id="Shape" fill="#CEC8BA"></path>
                <ellipse id="Oval" fill="#9AD9D4" cx="648.6875" cy="1368.71094" rx="315.351562" ry="217.421875"></ellipse>
            </g>
            <g id="coke-(1)" transform="translate(1374.000000, 1026.000000)">
                <path d="M619.625,254.515625 L198.6875,254.515625 L198.6875,68.140625 C198.6875,30.5078125 229.195313,0 266.824219,0 L551.484375,0 C589.117188,0 619.625,30.5078125 619.625,68.140625 L619.625,254.515625 Z" id="Shape" fill="#ED3124"></path>
                <path d="M619.636719,68.640625 L619.636719,254.503906 L498.332031,254.503906 L498.332031,68.640625 C498.332031,30.7265625 468.027344,0.0078125 430.675781,0.0078125 L551.980469,0.0078125 C589.332031,0.0078125 619.636719,30.7304687 619.636719,68.640625 Z" id="Shape" fill="#D8231E"></path>
                <path d="M743.179688,1053.53125 L793.9375,991.101562 C809.464844,972.003906 817.957031,948.011719 817.957031,923.25 L817.957031,654.398438 C817.957031,628.109375 808.386719,602.746094 791.082031,583.183594 L647.234375,420.554688 C629.929688,400.992188 620.359375,375.628906 620.359375,349.339844 L620.359375,254.515625 L197.953125,254.515625 L197.953125,349.335938 C197.953125,375.625 188.382812,400.988281 171.078125,420.550781 L27.2265625,583.179688 C9.921875,602.742188 0.3515625,628.105469 0.3515625,654.394531 L0.3515625,923.246094 C0.3515625,948.007812 8.84375,972 24.3710938,991.097656 L75.1289063,1053.52734 C90.65625,1072.625 99.148438,1096.61719 99.148438,1121.37891 L99.148438,1355.57812 C99.148438,1380.63672 90.453125,1404.89062 74.5859375,1424.08984 L24.9101562,1484.19922 C9.0429687,1503.39453 0.34765625,1527.65234 0.34765625,1552.71094 L0.34765625,1893.40234 C0.34765625,1952.27344 47.3632812,2000 105.363281,2000 L712.933594,2000 C770.933594,2000 817.949219,1952.27344 817.949219,1893.40234 L817.949219,1552.71094 C817.949219,1527.65234 809.253906,1503.39844 793.386719,1484.19922 L743.707031,1424.08984 C727.84375,1404.89453 719.144531,1380.63672 719.144531,1355.57812 L719.144531,1121.37891 C719.15625,1096.61719 727.652344,1072.62891 743.179688,1053.53125 Z" id="Shape" fill="#9A3F21"></path>
                <path d="M719.144531,1121.36328 L719.144531,1355.57812 C719.144531,1380.63672 727.847656,1404.89453 743.714844,1424.08984 L793.40625,1484.21094 C809.273438,1503.40625 817.976563,1527.66406 817.976563,1552.72266 L817.976563,1893.40234 C817.976563,1952.27734 770.933594,1999.98828 712.933594,1999.98828 L588.304688,1999.98828 C646.304688,1999.98828 693.347656,1952.27734 693.347656,1893.40234 L693.347656,1552.72266 C693.347656,1527.66406 684.644531,1503.40625 668.777344,1484.21094 L619.085938,1424.08984 C603.21875,1404.89453 594.554688,1380.63672 594.554688,1355.57812 L594.554688,1121.36328 C594.554688,1096.625 603.023438,1072.60938 618.570313,1053.53125 L669.332031,991.082031 C684.839844,972.007812 693.347656,947.988281 693.347656,923.25 L693.347656,654.375 C693.347656,628.109375 683.773438,602.730469 666.445313,583.171875 L522.628906,420.5625 C505.300781,401.003906 495.726563,375.625 495.726563,349.316406 L495.726563,254.503906 L620.355469,254.503906 L620.355469,349.324219 C620.355469,375.628906 629.929688,401.011719 647.21875,420.570313 L791.074219,583.179688 C808.402344,602.738281 817.976563,628.121094 817.976563,654.382813 L817.976563,923.257813 C817.976563,947.996094 809.46875,972.011719 793.921875,991.089844 L743.160156,1053.53906 C727.648438,1072.60938 719.144531,1096.625 719.144531,1121.36328 Z" id="Shape" fill="#8C331B"></path>
                <rect id="Rectangle-path" fill="#ED3124" x="0.3359375" y="664.648437" width="817.617188" height="269.097656"></rect>
                <rect id="Rectangle-path" fill="#D8231E" x="693.34375" y="664.648437" width="124.609375" height="269.097656"></rect>
                <g id="Group" transform="translate(230.468750, 664.062500)" fill="#E2EEFD">
                    <path d="M531.089844,0.58203125 L517.816406,0.58203125 C516.765625,0.4609375 515.640625,0.3984375 514.425781,0.3984375 C506,0.4140625 453.53125,-0.26171875 447.152344,0.40234375 C446.761719,0.44140625 446.378906,0.5234375 445.992187,0.578125 L435.199219,0.578125 C435.199219,0.578125 431.152344,8.01953125 427.230469,14.6796875 C426.199219,16.2773437 425.21875,17.921875 424.253906,19.5976562 C423.5,20.9140625 422.746094,22.2382812 421.984375,23.5703125 C406.34375,50.84375 376.65625,64.9921875 348.019531,74.8867187 C318.484375,85.09375 287.910156,90.4257812 258.238281,99.5625 C227.484375,109.03125 196.6875,118.496094 166.785156,130.726562 C110.320312,153.824219 45.265625,175.164062 13.7695312,234.929687 C11.5742187,239.097656 7.90625,246.421875 5.94140625,253.277344 L0.94921875,269.675781 L12.8476562,269.675781 C13.8710937,269.675781 14.8984375,269.675781 15.921875,269.675781 C21.7382812,269.675781 27.5546875,269.675781 33.3710937,269.675781 C46.65625,269.675781 59.9375,269.675781 73.2226562,269.675781 C115.050781,269.675781 156.875,269.675781 198.703125,269.675781 C209.917969,269.675781 221.132812,269.675781 232.347656,269.675781 L253.554687,269.675781 L253.679687,264.132812 C253.875,255.285156 255.550781,246.515625 258.789062,238.265625 C263.894531,225.253906 270.582031,211.191406 281.46875,201.996094 C293.207031,192.085937 307.949219,186.9375 322.421875,182.5 C389.097656,162.058594 474.621094,167.128906 514.964844,88.5585937 C523.664062,71.6171875 528.585937,51.6289062 530.273437,32.5 C530.671875,27.9726562 531.058594,23.5976562 531.078125,19.6015625 L531.089844,19.6015625 L531.089844,0.58203125 Z" id="Shape"></path>
                    <ellipse id="Oval" cx="334.125" cy="724.6875" rx="44.2226563" ry="44.8867188"></ellipse>
                    <ellipse id="Oval" cx="334.125" cy="488.242188" rx="44.2226563" ry="44.8867188"></ellipse>
                    <ellipse id="Oval" cx="201.46875" cy="854.960938" rx="44.2226563" ry="44.8867188"></ellipse>
                    <ellipse id="Oval" cx="389.164062" cy="961.171875" rx="44.2226562" ry="44.8867188"></ellipse>
                </g>
                <g id="Group" transform="translate(68.406250, 730.468750)" fill="#A80505">
                    <path d="M186.445312,0.46484375 L30.1640625,0.46484375 C13.7773438,0.46484375 0.4921875,13.9492187 0.4921875,30.5859375 C0.4921875,47.2226563 13.7773438,60.7070313 30.1640625,60.7070313 L186.445313,60.7070313 C202.832031,60.7070313 216.117188,47.2226563 216.117188,30.5859375 C216.121094,13.9492187 202.835937,0.46484375 186.445312,0.46484375 Z" id="Shape"></path>
                    <path d="M84.5703125,82.7929687 L30.1679688,82.7929687 C13.78125,82.7929687 0.49609375,96.2773437 0.49609375,112.914063 C0.49609375,129.550781 13.78125,143.035156 30.1679688,143.035156 L84.5703125,143.035156 C100.957031,143.035156 114.242188,129.550781 114.242188,112.914063 C114.242188,96.2773437 100.957031,82.7929687 84.5703125,82.7929687 Z" id="Shape"></path>
                </g>
            </g>
            <g id="Group-2" transform="translate(2451.000000, 0.000000)">
                <path d="M298.609791,322.25788 L251.156133,327.253002 C231.175645,329.750563 211.195157,314.765197 203.702474,289.789587 L158.746377,139.935928 C138.765889,77.4969039 153.751255,12.5603185 196.209791,7.56519658 L298.609791,0.0725136471 C341.068328,-2.42504732 366.043938,60.013977 358.551255,122.453002 L338.570767,277.301782 C336.073206,302.277392 318.590279,319.760319 298.609791,322.25788 Z" id="Shape" fill="#D8D8D8"></path>
                <circle id="Oval" fill="#4A90E2" cx="255.439024" cy="110.439024" r="62.4390244"></circle>
                <polygon id="Rectangle-2" fill="#E7E6E6" points="0 1180 510 1180 310 2016 120.046585 2016 0 1896"></polygon>
                <polygon id="Rectangle-3" fill="#131A63" points="510 1180 1019 1180 1019 1894.19165 899 2014 310 2014"></polygon>
                <polygon id="Rectangle-4" fill="#131A63" points="120 347 710 347 510 1180 0 1180 0 518.078493"></polygon>
                <polygon id="Rectangle-5" fill="#E7E6E6" points="710 347 899 347 1019 517.389587 1019 1180 510 1180"></polygon>
                <ellipse id="Oval-2" fill="#D0021B" cx="510" cy="1180.5" rx="399" ry="255.5"></ellipse>
                <rect id="Rectangle-6" fill="#D8D8D8" x="37" y="262" width="946" height="85" rx="27"></rect>
                <polygon id="Rectangle-7" fill-opacity="0.15" fill="#000000" points="510 347 897.812586 347 1019 518.352268 1019 1893.89345 899.162893 2014 510 2014"></polygon>
            </g>
        </g>
    </g>
</svg>