<?xml version="1.0" encoding="UTF-8"?>
<svg width="3358px" height="3358px" viewBox="0 0 3358 3358" version="1.1" xmlns="http://www.w3.org/2000/svg" xmlns:xlink="http://www.w3.org/1999/xlink">
    <!-- Generator: Sketch 51.2 (57519) - http://www.bohemiancoding.com/sketch -->
    <title>beans</title>
    <desc>Created with Sketch.</desc>
    <defs></defs>
    <g id="Page-1" stroke="none" stroke-width="1" fill="none" fill-rule="evenodd">
        <g id="beans" fill-rule="nonzero">
            <g id="Group" transform="translate(0.000000, 22.000000)" fill="#735127">
                <path d="M1079.86424,364.113973 C1046.29333,330.540274 1007.12727,313.753425 962.366061,313.753425 L945.580606,313.753425 C928.795152,313.753425 917.604848,308.157808 906.414545,296.966575 L861.653333,257.79726 C872.843636,252.201644 878.438788,241.010411 889.629091,235.414795 L1046.29333,78.7375342 L967.961212,0.39890411 L811.29697,157.076164 C777.726061,185.054247 732.964848,201.841096 688.203636,201.841096 L649.037576,201.841096 C576.300606,201.841096 503.563636,229.819178 453.207273,285.775342 L391.660606,347.327123 C391.660606,274.58411 363.684848,201.841096 307.733333,151.480548 L274.162424,117.906849 C218.210909,61.9506849 151.069091,33.9726027 72.7369697,33.9726027 L0,33.9726027 L0,145.884932 L72.7369697,145.884932 C117.498182,145.884932 162.259394,162.671781 190.235152,196.245479 L229.401212,235.414795 C262.972121,263.392877 279.757576,308.157808 279.757576,352.92274 L279.757576,392.092055 C279.757576,464.835068 307.733333,537.578082 363.684848,587.93863 L520.349091,744.61589 L598.681212,666.27726 L442.01697,509.6 C430.826667,498.408767 425.231515,492.813151 419.636364,481.621918 L537.134545,364.113973 C565.110303,330.540274 609.871515,313.753425 654.632727,313.753425 L693.798788,313.753425 C716.179394,313.753425 732.964848,313.753425 755.345455,308.157808 L828.082424,380.900822 C856.058182,408.878904 895.224242,425.665753 939.985455,425.665753 L956.770909,425.665753 C973.556364,425.665753 984.746667,431.26137 995.93697,442.452603 L1074.26909,520.791233 L1152.60121,442.452603 L1079.86424,364.113973 Z" id="Shape"></path>
            </g>
            <g id="Group" transform="translate(391.000000, 0.000000)" fill="#708048">
                <path d="M0.923076923,1119.33333 C0.923076923,2356.19667 1002.63462,3358 2239.38462,3358 L2351.30769,3358 C2597.53846,3358 2799,3156.52 2799,2910.26667 C2799,2664.01333 2597.53846,2462.53333 2351.30769,2462.53333 L2239.38462,2462.53333 C1371.98077,2462.53333 672.461538,1762.95 672.461538,895.466667 C672.461538,710.776667 521.365385,559.666667 336.692308,559.666667 L280.730769,559.666667 C124.038462,559.666667 0.923076923,682.793333 0.923076923,839.5 L0.923076923,1119.33333 Z" id="Shape"></path>
                <path d="M2071.5,0 C2194.61538,0 2295.34615,100.74 2295.34615,223.866667 C2295.34615,408.556667 2144.25,559.666667 1959.57692,559.666667 L1623.80769,559.666667 C1439.13462,559.666667 1288.03846,408.556667 1288.03846,223.866667 C1288.03846,100.74 1388.76923,0 1511.88462,0 L1556.65385,0 C1601.42308,0 1646.19231,16.79 1674.17308,50.37 L1679.76923,55.9666667 L1903.61538,55.9666667 L1909.21154,50.37 C1942.78846,16.79 1981.96154,0 2026.73077,0 L2071.5,0 Z" id="Shape"></path>
            </g>
            <path d="M2351,17 C2334.2,22.5957447 2317.4,33.787234 2300.6,50.5744681 L2295,56.1702128 L2071,56.1702128 L2065.4,50.5744681 C2048.6,33.787234 2031.8,22.5957447 2015,17 L2015,112.12766 C2015,207.255319 2087.8,280 2183,280 C2278.2,280 2351,207.255319 2351,112.12766 L2351,17 Z" id="Shape" fill="#5A673A"></path>
            <path d="M3358,1231.22222 C3358,1354.3 3257.2,1455 3134,1455 C2949.2,1455 2798,1303.95 2798,1119.33333 L2798,783.666667 C2798,599.05 2949.2,448 3134,448 C3257.2,448 3358,548.7 3358,671.777778 L3358,716.533333 C3358,761.288889 3341.2,806.044444 3307.6,834.016667 L3302,839.611111 L3302,1063.38889 L3307.6,1068.98333 C3341.2,1102.55 3358,1141.71111 3358,1186.46667 L3358,1231.22222 Z" id="Shape" fill="#708048"></path>
            <path d="M3307.42553,834.4 C3324.21277,817.6 3335.40426,800.8 3341,784 L3245.87234,784 C3150.74468,784 3078,856.8 3078,952 C3078,1047.2 3150.74468,1120 3245.87234,1120 L3341,1120 C3335.40426,1103.2 3324.21277,1086.4 3307.42553,1069.6 L3301.82979,1064 L3301.82979,840 L3307.42553,834.4 Z" id="Shape" fill="#5A673A"></path>
            <circle id="Oval" fill="#7B8D4F" cx="2463" cy="840" r="112"></circle>
            <circle id="Oval" fill="#708048" cx="1791" cy="951" r="112"></circle>
            <circle id="Oval" fill="#7B8D4F" cx="2239" cy="1287" r="112"></circle>
            <path d="M1064,896 C1064,711.2 912.8,560 728,560 L672,560 C515.2,560 392,683.2 392,840 L392,1120 C392,1176 397.6,1232 397.6,1288 L560,1288 C655.2,1288 728,1215.2 728,1120 C728,1024.8 800.8,952 896,952 L1064,952 C1064,935.2 1064,912.8 1064,896 Z" id="Shape" fill="#B3CD73"></path>
            <g id="Group" transform="translate(976.000000, 1527.000000)" fill="#5A673A">
                <rect id="Rectangle-path" transform="translate(179.749010, 154.771366) rotate(143.117498) translate(-179.749010, -154.771366) " x="-2.12472309" y="98.8105725" width="363.747466" height="111.921586"></rect>
                <rect id="Rectangle-path" transform="translate(549.568463, 643.055459) rotate(135.000000) translate(-549.568463, -643.055459) " x="373.306369" y="587.100939" width="352.524187" height="111.909039"></rect>
                <rect id="Rectangle-path" transform="translate(1138.289358, 1013.680423) rotate(116.565051) translate(-1138.289358, -1013.680423) " x="914.47613" y="957.727068" width="447.626456" height="111.90671"></rect>
            </g>
            <path d="M2518.6383,1847.45238 L2238.85106,1847.45238 C1774.40426,1847.45238 1399.48936,1472.4119 1399.48936,1007.80952 C1399.48936,761.514286 1198.04255,560 951.829787,560 L728,560 C912.659574,560 1063.74468,711.135714 1063.74468,895.857143 C1063.74468,1763.4881 1763.21277,2463.19048 2630.55319,2463.19048 L2742.46809,2463.19048 C2988.68085,2463.19048 3190.12766,2664.70476 3190.12766,2911 C3285.25532,2911 3358,2838.23095 3358,2743.07143 L3358,2687.09524 C3358,2222.49286 2983.08511,1847.45238 2518.6383,1847.45238 Z" id="Shape" fill="#5A673A"></path>
        </g>
    </g>
</svg>