<?xml version="1.0" encoding="iso-8859-1"?>
<!-- Generator: Adobe Illustrator 19.0.0, SVG Export Plug-In . SVG Version: 6.00 Build 0)  -->
<svg xmlns="http://www.w3.org/2000/svg" xmlns:xlink="http://www.w3.org/1999/xlink" version="1.1" id="Capa_1" x="0px" y="0px" viewBox="0 0 480.64 480.64" style="enable-background:new 0 0 480.64 480.64;" xml:space="preserve" width="512px" height="512px">
<g>
	<g>
		<path d="M439.944,405.472c-4.998-14.98-7.295-30.729-6.784-46.512l6.336-203.04c0.592-19.858-7.021-39.083-21.048-53.152    l-26.088-26.08V64c4.418,0,8-3.582,8-8V24c0-13.255-10.745-24-24-24h-64c-13.255,0-24,10.745-24,24v32c0,4.418,3.582,8,8,8v12.688    l-26.08,26.08c-6.789,6.807-12.14,14.909-15.736,23.824l-0.48,0.144l0.168,0.56c-3.597,9.102-5.298,18.842-5,28.624l3.248,103.936    c-1.192-1.776-2.312-3.552-3.56-5.336c-9.2-13.152-37.2-50.936-56.56-53.6V88h-16v54.752c-7.661,2.293-14.733,6.22-20.728,11.512    c-13.6,11.284-25.99,23.952-36.968,37.8C107.367,205.652,97.512,220.377,89.256,236c-5.376,10.76-11.464,25.912-2.4,33.288    c2.232,1.808,5.032,2.769,7.904,2.712c9.077-1.447,17.507-5.596,24.192-11.904c13.604-11.277,25.994-23.943,36.968-37.792    c7.368-9.046,14.194-18.522,20.44-28.376v51.568c0,5.928-0.296,11.808-0.8,17.648c-7.364,0.628-14.548,2.61-21.192,5.848    c-16.018,7.473-31.217,16.588-45.352,27.2C94.648,306.458,81.388,318.19,69.448,331.2c-7.928,9.04-17.672,22.16-10.768,31.592    c2.785,3.575,7.168,5.528,11.688,5.208c7.54-0.573,14.9-2.589,21.68-5.936c16.021-7.467,31.22-16.583,45.352-27.2    c9.989-7.281,19.504-15.19,28.488-23.68c-9.142,27.921-24.067,53.602-43.8,75.368c-8.168-4.202-17.571-5.338-26.504-3.2    c-13.225,3.009-25.287,9.806-34.712,19.56c-22.2,22.2-27.2,52-11.32,67.888c6.408,6.187,15.041,9.527,23.944,9.264    c16.763-0.904,32.519-8.284,43.944-20.584c9.745-9.418,16.541-21.468,19.56-34.68c2.187-9.113,0.936-18.712-3.512-26.96    c25.572-27.998,43.64-62.015,52.52-98.88c6.894,22.942,8.135,47.211,3.616,70.736c-8.478,2.053-16.018,6.903-21.4,13.768    c-16.771,21.893-19.992,51.291-8.36,76.296c4.933,11.096,15.191,18.905,27.2,20.704c1.1,0.114,2.206,0.173,3.312,0.176    c10.95-0.425,21.128-5.751,27.72-14.504c8.434-10.621,13.588-23.471,14.832-36.976c1.714-13.457-0.535-27.122-6.472-39.32    c-4.168-8.865-11.63-15.754-20.8-19.2c6.218-34.66,1.142-70.401-14.48-101.96c0.488-4.872,0.8-9.792,0.968-14.728    c5.294,9.678,11.116,19.057,17.44,28.096c9.96,14.601,21.414,28.125,34.176,40.352c3.406,3.195,7.066,6.109,10.944,8.712    l0.856,27.848c0.502,15.784-1.801,31.532-6.8,46.512c-0.268,0.816-0.403,1.669-0.4,2.528v40c0,17.673,14.327,32,32,32h128    c17.673,0,32-14.327,32-32v-40C440.358,407.14,440.217,406.287,439.944,405.472z M143.504,212.24    c-12.343,16.538-27.438,30.832-44.624,42.256c7.657-19.165,18.551-36.871,32.208-52.344    c12.339-16.541,27.431-30.838,44.616-42.264C168.057,179.059,157.164,196.768,143.504,212.24z M121.312,421.6    c-2.382,10.134-7.664,19.354-15.2,26.536c-15.32,15.336-36.056,20.528-45.264,11.328s-4-29.936,11.328-45.264    c7.182-7.536,16.402-12.818,26.536-15.2c2.033-0.412,4.102-0.626,6.176-0.64c4.613-0.229,9.127,1.396,12.536,4.512    C121.668,408.12,123.117,415.096,121.312,421.6z M127.944,321.984c-16.13,12.87-34.356,22.864-53.88,29.544    c12.268-16.591,27.298-30.95,44.432-42.448c16.126-12.87,34.347-22.87,53.864-29.56    C160.104,296.121,145.078,310.486,127.944,321.984z M197.512,384.992c6.598,1.447,12.086,5.999,14.728,12.216v-0.024    c8.67,19.264,6.221,41.715-6.4,58.656c-3.914,5.504-10.271,8.748-17.024,8.688c-6.588-1.437-12.074-5.97-14.728-12.168    c-8.674-19.264-6.224-41.716,6.4-58.656c3.683-5.003,9.32-8.202,15.504-8.8C196.499,384.906,197.007,384.935,197.512,384.992z     M304.36,24c0-4.418,3.582-8,8-8h64c4.418,0,8,3.582,8,8v24h-80V24z M281.616,114.08l28.4-28.424c1.5-1.5,2.344-3.534,2.344-5.656    V64h64v16c0,2.122,0.844,4.156,2.344,5.656l28.424,28.424c1.781,1.813,3.435,3.745,4.952,5.784l-4.328,0.968    c-20.68,4.56-42.104,4.56-62.784,0c-22.706-5.015-46.229-5.056-68.952-0.12C277.707,118.359,279.579,116.141,281.616,114.08z     M267.072,139.52l1.448-0.432c23.702-7.103,48.828-8.018,72.984-2.656c22.962,5.056,46.75,5.056,69.712,0l8.84-1.968    c2.47,6.696,3.641,13.802,3.448,20.936l-0.4,12.6H265.616l-0.4-12.6C265.072,150.045,265.697,144.697,267.072,139.52z     M417.752,376H270.968c0.54-5.829,0.741-11.684,0.6-17.536l-0.712-22.832c1.52-0.316,2.964-0.927,4.248-1.8    c9.6-6.688,4.584-22.248,0-33.368c-1.648-4-3.72-8.288-5.984-12.704h0.24L266.112,184h156.496l-5.448,174.464    C417.016,364.316,417.214,370.171,417.752,376z M222.704,272.856V272.8c-12.515-16.406-22.109-34.847-28.36-54.512    c16.324,12.625,30.353,27.966,41.472,45.352c12.509,16.41,22.102,34.85,28.36,54.512    C247.856,305.544,233.827,290.221,222.704,272.856z M424.36,448c0,8.837-7.163,16-16,16h-128c-8.837,0-16-7.163-16-16v-38.72    c1.79-5.669,3.241-11.439,4.344-17.28h151.312c1.103,5.841,2.554,11.611,4.344,17.28V448z" fill="#27bcbd"/>
	</g>
</g>
<g>
	<g>
		<path d="M344.36,200c-31.808,0-64,10.992-64,32s32.192,32,64,32c31.808,0,64-10.992,64-32S376.168,200,344.36,200z M344.36,248    c-29.776,0-48-10.4-48-16c0-5.6,18.224-16,48-16s48,10.4,48,16C392.36,237.6,374.136,248,344.36,248z" fill="#27bcbd"/>
	</g>
</g>
<g>
	<g>
		<rect x="288.36" y="344" width="112" height="16" fill="#27bcbd"/>
	</g>
</g>
<g>
	<g>
		<rect x="288.36" y="280" width="112" height="16" fill="#27bcbd"/>
	</g>
</g>
<g>
	<g>
		<rect x="304.36" y="312" width="80" height="16" fill="#27bcbd"/>
	</g>
</g>
<g>
</g>
<g>
</g>
<g>
</g>
<g>
</g>
<g>
</g>
<g>
</g>
<g>
</g>
<g>
</g>
<g>
</g>
<g>
</g>
<g>
</g>
<g>
</g>
<g>
</g>
<g>
</g>
<g>
</g>
</svg>
