<?xml version="1.0" encoding="UTF-8"?>
<svg width="165px" height="165px" viewBox="0 0 165 165" version="1.1" xmlns="http://www.w3.org/2000/svg" xmlns:xlink="http://www.w3.org/1999/xlink">
    <!-- Generator: Sketch 51.2 (57519) - http://www.bohemiancoding.com/sketch -->
    <title>Target</title>
    <desc>Created with Sketch.</desc>
    <defs></defs>
    <g id="Target" stroke="none" stroke-width="1" fill="none" fill-rule="evenodd">
        <g id="objective" fill="#27BCBD" fill-rule="nonzero">
            <path d="M132.165398,49.7391807 L158.814072,23.090506 C160.024289,21.8918554 160.033928,19.9390843 158.835277,18.7284819 C158.281253,18.1690602 157.534458,17.842506 156.747566,17.8162892 L156.840096,18.0013494 L142.343711,17.5078554 L141.850217,3.01146988 C141.792771,1.30891566 140.366265,-0.0246746988 138.663711,0.0327710843 C137.876819,0.059373494 137.129639,0.385542169 136.576,0.944963855 L109.958169,27.4394217 C109.357494,28.0439518 109.033639,28.8701687 109.063711,29.7218313 L109.063711,32.8061687 C77.4164819,11.0049157 34.0884819,18.9867952 12.2872289,50.6336386 C-9.5140241,82.2804819 -1.53253012,125.608867 30.1146988,147.41012 C61.7615422,169.211373 105.089928,161.229494 126.891181,129.582651 C143.265542,105.81359 143.265542,74.4030843 126.891181,50.6336386 L129.975518,50.6336386 C130.795181,50.6382651 131.583229,50.3163373 132.165398,49.7391807 Z M133.090699,90.144 C133.136964,125.200578 104.755277,153.65706 69.6986988,153.703325 C34.6421205,153.74959 6.18563855,125.367904 6.13937349,90.3113253 C6.09310843,55.254747 34.4747952,26.7982651 69.5313735,26.752 C84.0466506,26.7327229 98.1297349,31.689253 109.433831,40.7946024 L109.588048,45.9454458 L97.2506988,58.2827952 C79.7004337,42.9008193 53.0035663,44.6588916 37.6215904,62.2091566 C22.2396145,79.7594217 23.9976867,106.456289 41.5479518,121.838265 C59.0982169,137.220241 85.7950843,135.462169 101.17706,117.911904 C114.997205,102.143229 115.164145,78.6255422 101.568771,62.6625542 L113.90612,50.3252048 L118.995277,50.5102651 C128.066313,61.733012 133.038265,75.7139277 133.090699,90.144 Z M67.6410602,92.210506 C68.8439518,93.4064578 70.7870843,93.4064578 71.9899759,92.210506 L78.1586506,86.0418313 C78.7597108,87.282506 79.0758554,88.6419277 79.0839518,90.0206265 C79.0839518,95.130988 74.9413012,99.2736386 69.8309398,99.2736386 C64.7205783,99.2736386 60.5779277,95.130988 60.5779277,90.0206265 C60.5779277,84.9102651 64.7205783,80.7676145 69.8309398,80.7676145 C71.2096386,80.7757108 72.5690602,81.0918554 73.8097349,81.6929157 L67.6410602,87.8615904 C66.4451084,89.0644819 66.4451084,91.0076145 67.6410602,92.210506 Z M78.3128675,77.1589398 C71.2104096,72.4584096 61.6420241,74.4053976 56.941494,81.5078554 C52.2409639,88.6103133 54.1879518,98.1786988 61.2904096,102.879229 C68.3928675,107.579759 77.961253,105.632771 82.6617831,98.5303133 C86.0769157,93.3698313 86.0769157,86.6679518 82.6617831,81.5078554 L97.2815422,66.8880964 C110.09812,82.1062169 108.150747,104.832771 92.9326265,117.649349 C77.714506,130.465928 54.9879518,128.518554 42.1713735,113.300434 C29.3547952,98.0823133 31.3021687,75.355759 46.5202892,62.5391807 C59.9302169,51.2458795 79.5226988,51.2458795 92.9326265,62.5391807 L78.3128675,77.1589398 Z M115.81841,44.0331566 L115.386602,30.8938795 L136.051663,10.2288193 L136.39094,20.4996627 C136.39094,22.202988 137.771952,23.584 139.475277,23.584 L149.74612,23.9232771 L128.957687,44.4649639 L115.81841,44.0331566 Z" id="Shape"></path>
        </g>
    </g>
</svg>