<?xml version="1.0" encoding="UTF-8"?>
<svg width="7320px" height="4498px" viewBox="0 0 7320 4498" version="1.1" xmlns="http://www.w3.org/2000/svg" xmlns:xlink="http://www.w3.org/1999/xlink">
    <!-- Generator: Sketch 51.2 (57519) - http://www.bohemiancoding.com/sketch -->
    <title>Artboard 3</title>
    <desc>Created with Sketch.</desc>
    <defs></defs>
    <g id="Artboard-3" stroke="none" stroke-width="1" fill="none" fill-rule="evenodd">
        <g id="popcorn" transform="translate(4055.000000, 1113.000000)" fill-rule="nonzero">
            <path d="M1315.85156,581.835938 C1313.84375,581.777344 1311.82813,581.75 1309.80078,581.761719 C1305.38281,581.785156 1301.01953,582.023438 1296.69531,582.382812 C1296.69141,582.382812 1296.6875,582.378906 1296.69141,582.375 C1304.98828,564.582031 1309.5625,544.953125 1309.42578,524.328125 C1308.90234,444.640625 1238.78125,380.4375 1152.8125,380.925781 C1148.39453,380.949219 1144.03125,381.1875 1139.70703,381.546875 C1139.70313,381.546875 1139.69922,381.542969 1139.69922,381.539062 C1147.99609,363.746094 1152.57031,344.117187 1152.43359,323.492187 C1151.91016,243.804687 1081.78906,179.601562 995.820312,180.085937 C989.003906,180.125 982.304688,180.613281 975.722656,181.4375 C975.722656,181.023437 975.75,180.613281 975.75,180.199219 C975.257813,105.652344 909.660156,45.5859375 829.234375,46.0429687 C815.285156,46.1210937 801.820313,48.0546875 789.070313,51.5195312 C789.070313,51.5195312 789.066406,51.5195312 789.0625,51.515625 C768.3125,23.2265625 734.609375,3.84375 695.921875,0.5078125 L695.921875,0 C694.402344,0.03125 692.90625,0.140625 691.402344,0.22265625 C689.898438,0.14453125 688.402344,0.03125 686.882812,0 L686.882812,0.5078125 C648.195313,3.84765625 614.492187,23.2265625 593.746094,51.515625 C593.746094,51.5195312 593.746094,51.5234375 593.746094,51.5234375 C580.992188,48.0546875 567.53125,46.125 553.582031,46.0429688 C473.15625,45.5898438 407.558594,105.652344 407.066406,180.199219 C407.0625,180.613281 407.089844,181.023438 407.09375,181.4375 C400.511719,180.613281 393.8125,180.125 386.996094,180.085938 C301.027344,179.597656 230.90625,243.804688 230.382812,323.492188 C230.246094,344.121094 234.820312,363.746094 243.117187,381.539063 C243.117187,381.542969 243.117187,381.546875 243.109375,381.546875 C238.785156,381.1875 234.421875,380.949219 230.003906,380.925781 C144.035156,380.4375 73.9140625,444.644531 73.390625,524.328125 C73.2539062,544.957031 77.828125,564.582031 86.125,582.375 C86.125,582.378906 86.125,582.382813 86.1171875,582.382813 C81.7929687,582.023438 77.4296875,581.785156 73.0117187,581.761719 C70.9882812,581.75 68.96875,581.773438 66.9609375,581.835938 C-15.9765625,584.304688 -20.96875,689.625 47.296875,709.277344 C43.3984375,718.324219 41.2304687,728.1875 41.2304687,738.523438 C41.2304687,782.109375 79.3515625,817.445313 126.375,817.445313 C148.449219,817.445313 412.691406,817.445313 686.886719,817.445313 C689.898437,817.445313 692.910156,817.445313 695.921875,817.445313 C970.117188,817.445313 1234.35938,817.445313 1256.43359,817.445313 C1303.45703,817.445313 1341.57812,782.113281 1341.57812,738.523438 C1341.57812,728.1875 1339.41406,718.324219 1335.51172,709.277344 C1403.78125,689.628906 1398.78906,584.304688 1315.85156,581.835938 Z" id="Shape" fill="#FEC93E"></path>
            <path d="M1315.85156,581.835938 C1313.84375,581.777344 1311.82812,581.75 1309.80078,581.761719 C1305.38281,581.785156 1301.01953,582.023438 1296.69531,582.382812 C1296.69141,582.382812 1296.6875,582.378906 1296.69141,582.375 C1304.98828,564.582031 1309.5625,544.953125 1309.42578,524.328125 C1308.90234,444.640625 1238.78125,380.4375 1152.8125,380.925781 C1148.39453,380.949219 1144.03125,381.1875 1139.70703,381.546875 C1139.70312,381.546875 1139.69922,381.542969 1139.69922,381.539062 C1147.99609,363.746094 1152.57031,344.117187 1152.43359,323.492187 C1151.91016,243.804687 1081.78906,179.601562 995.820312,180.085937 C989.003906,180.125 982.304687,180.613281 975.722656,181.4375 C975.722656,181.023437 975.75,180.613281 975.75,180.199219 C975.257812,105.652344 909.660156,45.5859375 829.234375,46.0390625 C815.285156,46.1171875 801.820312,48.0507812 789.070312,51.515625 C789.070312,51.515625 789.066406,51.515625 789.0625,51.5117187 C768.316406,23.2226562 734.613281,3.84375 695.925781,0.50390625 L695.925781,0 C694.40625,0.03125 692.910156,0.140625 691.40625,0.22265625 C689.902344,0.140625 688.40625,0.03125 686.886719,0 L686.886719,0.5078125 C650.855469,3.6171875 619.164062,20.6484375 598.21875,45.8242188 C598.4375,45.9023438 598.664062,45.9570313 598.882812,46.0390625 C1044.39453,216.222656 1089.57812,665.734375 1105.16797,709.273438 C1109.06641,718.320313 1111.23437,728.183594 1111.23437,738.519531 C1111.23437,782.105469 1073.11328,817.441406 1026.08984,817.441406 C1152.78906,817.441406 1243.86719,817.441406 1256.43359,817.441406 C1303.45703,817.441406 1341.57812,782.105469 1341.57812,738.519531 C1341.57812,728.183594 1339.41406,718.320313 1335.51172,709.273438 C1403.78125,689.628906 1398.78906,584.304688 1315.85156,581.835938 Z" id="Shape" fill="#EFB533"></path>
            <path d="M1209.13672,676.683594 C1143.85938,676.683594 1089.01953,725.761719 1081.80078,790.636719 L1078.64844,818.972656 C1087.09375,743.070312 1027.68359,676.683594 951.316406,676.683594 L949.21875,676.683594 C880.308594,676.683594 823.742187,731.191406 821.1875,800.054688 L820.835938,809.550781 C823.527344,736.980469 765.425781,676.683594 692.804688,676.683594 L690.003906,676.683594 C617.382812,676.683594 559.28125,736.980469 561.972656,809.550781 L561.621094,800.054688 C559.066406,731.191406 502.5,676.683594 433.589844,676.683594 L431.492187,676.683594 C355.125,676.683594 295.714844,743.070312 304.160156,818.972656 L301.007812,790.636719 C293.789062,725.761719 238.949219,676.683594 173.671875,676.683594 C93.5546875,676.683594 33.09375,749.390625 47.6992187,828.164062 L252.050781,1930.12891 C259.558594,1970.625 294.882812,2000 336.066406,2000 L435.566406,2000 L606.125,2000 L776.683594,2000 L947.242188,2000 L1046.74219,2000 C1087.92578,2000 1123.25,1970.625 1130.75781,1930.12891 L1335.10938,828.164062 C1349.71875,749.390625 1289.25391,676.683594 1209.13672,676.683594 Z" id="Shape" fill="#EF4A50"></path>
            <path d="M1215.26562,676.828125 C1167.59375,674.59375 1124.79688,698.601563 1100.91797,736.226562 C1117.54297,762.386719 1124.91406,794.71875 1118.71094,828.167969 L945.488281,1762.27734 C930.800781,1841.47266 861.71875,1898.92188 781.171875,1898.92188 L601.640625,1898.92188 L422.109375,1898.92188 L317.375,1898.92188 C282.71875,1898.92188 252.050781,1879.12891 237.085937,1849.42578 L252.050781,1930.13281 C259.558594,1970.625 294.882813,2000 336.066406,2000 L435.566406,2000 L606.125,2000 L776.683594,2000 L830.339844,2000 L947.242188,2000 L1046.74219,2000 C1087.92578,2000 1123.25,1970.625 1130.75781,1930.12891 L1145.72266,1849.42188 L1334.65234,830.628906 C1349.33594,751.449219 1295.70313,680.601563 1215.26562,676.828125 Z" id="Shape" fill="#DD2A37"></path>
            <path d="M947.238281,2000 L776.679687,2000 L821.183594,800.058594 C823.738281,731.195312 880.304687,676.6875 949.214844,676.6875 L951.3125,676.6875 C1027.67969,676.6875 1087.08984,743.074219 1078.64453,818.976562 L947.238281,2000 Z" id="SVGCleanerId_0" fill="#F2EBDA"></path>
            <path d="M1215.26562,676.828125 C1167.59375,674.59375 1124.79688,698.601563 1100.91797,736.226562 C1117.54297,762.386719 1124.91406,794.71875 1118.71094,828.167969 L945.488281,1762.27734 C930.800781,1841.47266 861.71875,1898.92188 781.171875,1898.92188 L601.640625,1898.92188 L422.109375,1898.92188 L317.375,1898.92188 C282.71875,1898.92188 252.050781,1879.12891 237.085937,1849.42578 L252.050781,1930.13281 C259.558594,1970.625 294.882813,2000 336.066406,2000 L435.566406,2000 L606.125,2000 L776.683594,2000 L830.339844,2000 L947.242188,2000 L1046.74219,2000 C1087.92578,2000 1123.25,1970.625 1130.75781,1930.12891 L1145.72266,1849.42188 L1334.65234,830.628906 C1349.33594,751.449219 1295.70313,680.601563 1215.26562,676.828125 Z" id="Shape" fill="#DD2A37"></path>
            <path d="M947.238281,2000 L776.679687,2000 L821.183594,800.058594 C823.738281,731.195312 880.304687,676.6875 949.214844,676.6875 L951.3125,676.6875 C1027.67969,676.6875 1087.08984,743.074219 1078.64453,818.976562 L947.238281,2000 Z" id="SVGCleanerId_0_1_" fill="#F2EBDA"></path>
            <path d="M945.488281,1762.27344 C930.800781,1841.46875 861.71875,1898.91797 781.171875,1898.91797 L780.433594,1898.91797 L776.683594,2000 L830.339844,2000 L947.242188,2000 L1016.00391,1382.01172 L945.488281,1762.27344 Z" id="Shape" fill="#E5DECF"></path>
            <g id="Group" transform="translate(281.250000, 136.718750)" fill="#FCDC97">
                <path d="M31.3984375,410.804688 C14.71875,410.804688 1.19921875,397.285156 1.19921875,380.605469 C1.19921875,298.773438 67.7773438,232.195313 149.609375,232.195313 C166.289063,232.195313 179.808594,245.714844 179.808594,262.394531 C179.808594,279.074219 166.289062,292.59375 149.609375,292.59375 C101.078125,292.59375 61.5976563,332.078125 61.5976563,380.605469 C61.59375,397.285156 48.0742187,410.804688 31.3984375,410.804688 Z" id="Shape"></path>
                <path d="M782.207031,529.019531 C765.527344,529.019531 752.007812,515.5 752.007812,498.820312 C752.007812,450.289062 712.523438,410.808594 663.996094,410.808594 C647.316406,410.808594 633.796875,397.289062 633.796875,380.609375 C633.796875,363.929688 647.316406,350.410156 663.996094,350.410156 C745.832031,350.410156 812.40625,416.988281 812.40625,498.820312 C812.40625,515.496094 798.886719,529.019531 782.207031,529.019531 Z" id="Shape"></path>
                <path d="M520.210937,156.011719 C506.367187,156.015625 493.886719,146.433594 490.757812,132.355469 C480.230469,84.9804687 433.140625,55 385.753906,65.515625 C369.460937,69.1289062 353.339844,58.859375 349.726562,42.5820312 C346.109375,26.3007812 356.378906,10.1679687 372.660156,6.5546875 C452.539062,-11.1757813 531.96875,39.3710937 549.714844,119.261719 C553.332031,135.542969 543.066406,151.671875 526.78125,155.289062 C524.585937,155.777344 522.378906,156.011719 520.210937,156.011719 Z" id="Shape"></path>
            </g>
            <path d="M606.128906,2000 L435.570313,2000 L304.164063,818.972656 C295.71875,743.074219 355.128906,676.683594 431.496094,676.683594 L433.59375,676.683594 C502.503906,676.683594 559.070312,731.191406 561.625,800.054688 L606.128906,2000 Z" id="Shape" fill="#F2EBDA"></path>
            <polygon id="Shape" fill="#E5DECF" points="601.640625 1898.91797 424.320312 1898.91797 435.566406 2000 435.566406 2000 606.128906 2000 602.375 1898.91797"></polygon>
            <ellipse id="Oval" fill="#9AD9D4" cx="691.402344" cy="1359.0625" rx="398.164063" ry="274.53125"></ellipse>
        </g>
        <g id="bread" transform="translate(1883.000000, 619.000000)" fill-rule="nonzero">
            <path d="M1777.6947,178.649902 L1682.87659,889.953613 L1673.20252,962.448121 L1673.08045,962.448121 C1498.74878,985.260008 1283.27942,985.382078 1049.97254,985.382078 C470.092773,985.382078 0.0152587891,984.771727 0.0152587891,635.10132 C0.0152587891,360.27527 290.32898,126.358031 696.090699,38.8031016 C713.516234,35.0494375 731.109617,31.539918 748.947145,28.3660898 L749.069215,28.3660898 C780.700684,22.644043 812.957766,17.8222656 845.76416,13.9465313 C907.562258,6.56128125 971.313477,2.48718359 1036.5448,2.02941797 C1041.00037,1.953125 1045.48645,1.953125 1049.97254,1.953125 C1123.5199,1.953125 1195.28198,6.51550391 1264.54162,15.1824961 C1328.01819,23.1323242 1389.4043,34.5153828 1448.10486,49.0570078 L1448.13537,49.0570078 C1563.64441,77.5909414 1668.8385,118.240355 1759.39941,168.365477 C1759.44519,168.365477 1759.49097,168.365477 1759.49097,168.395996 C1765.44189,171.707152 1771.28601,174.972535 1777.11487,178.314211 C1777.28271,178.359984 1777.48108,178.527832 1777.6947,178.649902 Z" id="Shape" fill="#C15934"></path>
            <path d="M1682.86133,889.953613 L1673.18726,962.448121 L1673.06519,962.448121 C1498.74878,985.260008 1283.27942,985.39734 1049.97254,985.39734 C470.077516,985.39734 -5.68434189e-14,984.771727 -5.68434189e-14,635.10132 C-5.68434189e-14,360.290527 290.32898,126.358031 696.090699,38.8183594 C476.455687,118.408203 128.326414,630.981445 627.670289,836.578367 C715.072633,872.573852 809.020996,889.953613 903.549195,889.953613 L1682.86133,889.953613 Z" id="Shape" fill="#A32F0C"></path>
            <path d="M1306.18286,629.669188 C1306.18286,790.283203 1375.32043,879.501344 1489.95972,929.077148 C1594.20777,974.151609 1711.9751,974.151609 1816.22314,929.077148 C1930.87769,879.516602 2000,790.283203 2000,629.669188 C2000,472.335816 1933.67004,328.00293 1823.19641,215.255738 C1728.6377,118.743898 1577.54516,118.743898 1482.98645,215.255738 C1372.51282,328.00293 1306.18286,472.335816 1306.18286,629.669188 Z" id="Shape" fill="#A32F0C"></path>
            <path d="M1653.09143,922.073363 C1602.32544,922.073363 1552.90222,911.819457 1506.16455,891.61682 C1396.08765,844.024656 1347.00012,763.244629 1347.00012,629.669188 C1347.00012,489.532469 1405.65491,352.508547 1512.146,243.835449 C1550.14038,205.047609 1600.20447,183.700563 1653.09143,183.700563 C1705.99365,183.700563 1756.05774,205.047609 1794.05213,243.835449 C1900.54321,352.508547 1959.18274,489.532469 1959.18274,629.669188 C1959.18274,763.244629 1910.09521,844.024656 1800.03357,891.61682 C1753.2959,911.819457 1703.85742,922.073363 1653.09143,922.073363 Z" id="Shape" fill="#DBAE86"></path>
            <path d="M1448.10486,49.0570078 C1446.06018,49.2095938 1443.96973,49.2095938 1441.89453,48.9654531 C1350.66223,38.6505117 1249.28284,74.3255625 1170.71533,144.485473 C1097.12219,210.235594 1054.87061,297.012328 1054.87061,382.644652 C1054.87061,399.551391 1041.15295,413.253785 1024.26148,413.253785 C1007.35473,413.253785 993.652344,399.551391 993.652344,382.644652 C993.652344,279.63257 1043.3197,176.162719 1129.92859,98.815918 C1170.47119,62.6525859 1216.46118,34.362793 1264.54163,15.1824961 C1328.01819,23.1323242 1389.4043,34.5153828 1448.10486,49.0570078 Z" id="Shape" fill="#A32F0C"></path>
            <path d="M1036.5448,2.02941797 C1030.9906,9.26208594 1022.26257,13.9160156 1012.37488,13.9160156 C947.769164,13.9160156 872.299195,57.6324453 810.501098,130.844117 C748.825074,203.99475 712.005617,291.70227 712.005617,365.509031 C712.005617,382.400512 698.303223,396.118164 681.396484,396.118164 C664.505004,396.118164 650.787352,382.400512 650.787352,365.509031 C650.787352,277.664184 693.038941,175.216676 763.73291,91.3848867 C789.443969,60.8978281 817.108156,34.8968516 845.76416,13.9465313 C907.562258,6.56128125 971.313477,2.48718359 1036.5448,2.02941797 Z" id="Shape" fill="#A32F0C"></path>
            <g id="Group" transform="translate(1410.156250, 273.437500)" fill="#C98951">
                <path d="M151.245117,518.478395 C124.618531,518.478395 110.64148,484.970094 129.623414,466.186523 C139.114379,456.787109 153.884887,454.605102 165.67993,460.861207 C177.230836,466.995238 183.624266,480.209352 181.411742,493.08777 C178.924563,507.537844 165.92407,518.478395 151.245117,518.478395 Z" id="Shape"></path>
                <path d="M76.965332,581.207273 C50.2777109,581.207273 36.4227305,547.912598 55.2825938,528.96118 C64.6972656,519.515992 79.6356211,517.410277 91.3543711,523.651125 C102.58484,529.617309 109.161375,542.510984 107.223512,555.114746 C104.965211,569.900512 91.9647227,581.207273 76.965332,581.207273 Z" id="Shape"></path>
                <path d="M31.4483633,487.869262 C18.0816641,487.869262 6.10351562,478.897094 2.19726562,466.156008 C-1.52587891,454.040527 2.86865234,440.475465 13.0004883,432.861328 C34.9731445,416.35132 66.8945312,436.218262 61.4471445,463.256836 C58.6090078,477.371215 45.8831797,487.869262 31.4483633,487.869262 Z" id="Shape"></path>
                <path d="M429.122926,153.33557 C401.687621,153.33557 388.275148,118.362426 408.569336,100.021363 C418.685914,90.8813477 433.944703,89.6148672 445.465086,96.8475352 C455.947875,103.42407 461.517336,116.210938 459.182738,128.372191 C456.481934,142.608641 443.664551,153.33557 429.122926,153.33557 Z" id="Shape"></path>
                <path d="M332.672117,165.939332 C320.693969,165.939332 309.524535,158.691406 304.6875,147.735594 C299.194336,135.253906 302.764891,120.19348 313.36975,111.618043 C334.503172,94.5281992 366.928102,112.655641 362.945555,139.770508 C360.778809,154.602051 347.702027,165.939332 332.672117,165.939332 Z" id="Shape"></path>
                <path d="M344.879148,62.8356953 C332.321168,62.8356953 320.846559,54.8858633 316.329957,43.2128906 C311.431883,30.5633555 315.704344,15.6860352 326.629641,7.61413672 C349.121094,-8.95691016 381.530762,12.2528086 374.542234,39.6575937 C371.124266,53.0700703 358.779906,62.8356953 344.879148,62.8356953 Z" id="Shape"></path>
                <path d="M411.239625,431.213379 C383.941648,431.213379 370.239258,396.30127 390.670777,377.944945 C400.192262,369.369508 414.321898,367.630004 425.643922,373.641969 C437.118531,379.745484 443.679809,393.035891 441.375734,405.853273 C438.796996,420.318602 425.994875,431.213379 411.239625,431.213379 Z" id="Shape"></path>
            </g>
        </g>
        <g id="rice" transform="translate(2055.000000, 1905.000000)" fill-rule="nonzero">
            <path d="M1934.06593,937.362637 L1000,1025.27473 L65.9340659,937.362637 C65.9340659,888.483516 92.5274725,845.89011 132.043956,823.076923 C99.7802198,790.857143 85.0989011,742.813187 97.7582418,695.604396 C110.417582,648.395604 147.120879,614.10989 191.164835,602.32967 C168.351648,562.857143 166.637363,512.659341 191.076923,470.32967 C215.516484,428 259.868132,404.395604 305.450549,404.395604 C293.626374,360.395604 304.967033,311.428571 339.516484,276.879121 C374.065934,242.32967 423.032967,230.989011 467.032967,242.813187 C467.032967,197.230769 490.637363,152.879121 532.967033,128.43956 C575.296703,104 625.494505,105.714286 664.967033,128.527473 C676.747253,84.4835165 711.032967,47.7802198 758.241758,35.1208791 C805.450549,22.4615385 853.494505,37.1428571 885.714286,69.4065934 C908.527473,29.8901099 951.120879,3.2967033 1000,3.2967033 C1048.87912,3.2967033 1091.47253,29.8901099 1114.28571,69.4065934 C1146.50549,37.1428571 1194.54945,22.4615385 1241.75824,35.1208791 C1288.96703,47.7802198 1323.25275,84.4835165 1335.03297,128.527473 C1374.50549,105.714286 1424.7033,104 1467.03297,128.43956 C1509.36264,152.879121 1532.96703,197.230769 1532.96703,242.813187 C1576.96703,230.989011 1625.93407,242.32967 1660.48352,276.879121 C1695.03297,311.428571 1706.37363,360.395604 1694.54945,404.395604 C1740.13187,404.395604 1784.48352,428 1808.92308,470.32967 C1833.36264,512.659341 1831.64835,562.857143 1808.83516,602.32967 C1852.87912,614.10989 1889.58242,648.395604 1902.24176,695.604396 C1914.9011,742.813187 1900.21978,790.857143 1867.95604,823.076923 C1907.47253,845.89011 1934.06593,888.483516 1934.06593,937.362637 Z" id="Shape" fill="#FFE3A1"></path>
            <path d="M0,937.362637 C0,1489.62637 447.736264,1937.36264 1000,1937.36264 C1552.26374,1937.36264 2000,1489.62637 2000,937.362637 L0,937.362637 Z" id="Shape" fill="#19ABBF"></path>
            <path d="M1296.7033,1970.32967 L703.296703,1970.32967 C685.09011,1970.32967 670.32967,1955.57363 670.32967,1937.36264 C670.32967,1919.15165 685.09011,1904.3956 703.296703,1904.3956 L1296.7033,1904.3956 C1314.91429,1904.3956 1329.67033,1919.15165 1329.67033,1937.36264 C1329.67033,1955.57363 1314.91429,1970.32967 1296.7033,1970.32967 Z" id="Shape" fill="#19ABBF"></path>
            <circle id="Oval" fill="#0B7786" cx="504.501099" cy="1560.43956" r="32.967033"></circle>
            <circle id="Oval" fill="#0B7786" cx="372.632967" cy="1428.57143" r="32.967033"></circle>
            <circle id="Oval" fill="#FFB914" cx="557.248352" cy="737.362637" r="32.967033"></circle>
            <circle id="Oval" fill="#FFB914" cx="425.38022" cy="605.494505" r="32.967033"></circle>
            <circle id="Oval" fill="#FFB914" cx="1436.36923" cy="605.494505" r="32.967033"></circle>
            <circle id="Oval" fill="#FFB914" cx="557.248352" cy="473.626374" r="32.967033"></circle>
        </g>
    </g>
</svg>