<?xml version="1.0" encoding="UTF-8"?>
<svg width="512px" height="460px" viewBox="0 0 512 460" version="1.1" xmlns="http://www.w3.org/2000/svg" xmlns:xlink="http://www.w3.org/1999/xlink">
    <!-- Generator: Sketch 51.2 (57519) - http://www.bohemiancoding.com/sketch -->
    <title>diet</title>
    <desc>Created with Sketch.</desc>
    <defs></defs>
    <g id="Page-1" stroke="none" stroke-width="1" fill="none" fill-rule="evenodd">
        <g id="diet" fill="#27BCBD" fill-rule="nonzero">
            <path d="M197.965,172.867 C193.652,168.146 187.511,165.381 181.118,165.282 C168.259,165.117 157.621,175.369 157.403,188.218 C157.333,192.36 160.634,195.774 164.775,195.844 C164.819,195.845 164.861,195.845 164.905,195.845 C168.988,195.845 172.332,192.57 172.401,188.471 C172.478,183.882 176.25,180.2 180.883,180.28 C183.196,180.316 185.329,181.276 186.89,182.984 C189.684,186.043 194.429,186.257 197.486,183.463 C200.544,180.67 200.759,175.925 197.965,172.867 Z" id="Shape"></path>
            <path d="M237.867,197.31 C235.568,191.906 231.093,187.641 225.586,185.608 C214.512,181.523 202.167,187.2 198.064,198.261 C196.623,202.145 198.604,206.461 202.487,207.902 C203.347,208.221 204.228,208.372 205.094,208.372 C208.141,208.372 211.005,206.502 212.127,203.478 C213.359,200.156 217.072,198.456 220.392,199.681 C222.061,200.297 223.365,201.54 224.062,203.18 C225.683,206.991 230.089,208.769 233.899,207.147 C237.712,205.526 239.487,201.122 237.867,197.31 Z" id="Shape"></path>
            <path d="M286.206,130.885 C283.274,127.958 278.525,127.964 275.6,130.896 L268.53,137.98 C265.604,140.912 265.609,145.661 268.541,148.586 C270.004,150.047 271.921,150.777 273.838,150.777 C275.76,150.777 277.682,150.043 279.147,148.575 L286.217,141.491 C289.143,138.559 289.138,133.81 286.206,130.885 Z" id="Shape"></path>
            <path d="M239.545,227.709 L229.549,227.709 C225.406,227.709 222.049,231.067 222.049,235.209 C222.049,239.351 225.406,242.709 229.549,242.709 L239.545,242.709 C243.688,242.709 247.045,239.351 247.045,235.209 C247.045,231.067 243.688,227.709 239.545,227.709 Z" id="Shape"></path>
            <path d="M316.189,227.709 L306.192,227.709 C302.049,227.709 298.692,231.067 298.692,235.209 C298.692,239.351 302.05,242.709 306.192,242.709 L316.189,242.709 C320.331,242.709 323.689,239.351 323.689,235.209 C323.689,231.067 320.331,227.709 316.189,227.709 Z" id="Shape"></path>
            <path d="M511.761,362.942 L509.808,352.4 C508.563,345.664 502.681,340.775 495.822,340.775 C494.961,340.775 494.093,340.854 493.239,341.011 L453.479,348.315 L471.485,336.278 C476.204,333.124 478.589,327.482 477.56,321.885 C477.274,320.352 476.738,318.881 475.962,317.504 L470.513,307.855 C468.646,304.54 465.462,302.077 461.787,301.101 C459.987,300.621 458.105,300.514 456.269,300.753 C458.274,289.687 459.308,278.385 459.308,266.88 C459.308,261.775 456.238,257.382 451.853,255.431 C457.583,241.803 457.974,226.201 452.31,211.913 C451.851,210.751 451.169,209.714 450.286,208.83 C449.41,207.954 448.385,207.277 447.222,206.81 C440.435,204.107 433.302,202.737 426.021,202.737 C425.09,202.737 424.163,202.761 423.239,202.805 C422.2,181.872 404.875,165.161 383.725,165.161 C380.94,165.161 378.224,165.457 375.601,166.009 C377.423,155.109 376.35,143.706 372.105,133 C371.649,131.823 370.964,130.767 370.033,129.821 C369.137,128.925 368.086,128.234 366.92,127.771 C359.609,124.859 351.925,123.383 344.081,123.383 C332.265,123.383 320.962,126.705 311.204,132.881 C307.639,122.554 301.76,112.859 293.546,104.626 C291.14,102.216 287.94,100.888 284.535,100.888 C281.13,100.888 277.93,102.216 275.521,104.628 L239.208,141.024 C232.488,135.03 223.645,131.447 214.047,131.447 C211.869,131.447 209.67,131.638 207.511,132.014 C199.688,133.376 192.489,137.205 186.97,142.813 C179.893,139.398 171.786,138.233 163.995,139.589 C162.281,139.887 160.618,140.307 159.004,140.819 L159.004,112.773 C159.004,93.459 143.481,77.718 124.279,77.386 L124.279,61.48 C130.157,60.463 134.645,55.34 134.645,49.176 L134.645,13.137 C134.645,6.245 129.038,0.637 122.145,0.637 L61.154,0.637 C54.261,0.637 48.654,6.245 48.654,13.137 L48.654,49.176 C48.654,55.34 53.142,60.463 59.02,61.48 L59.02,77.384 C39.818,77.715 24.296,93.456 24.296,112.771 L24.296,331.667 C9.322,345.19 0,364.059 0,384.925 C0,425.971 36.025,459.365 80.307,459.365 L380.494,459.277 C390.74,459.273 400.376,454.77 406.93,446.924 C413.314,439.286 416.027,429.365 414.464,419.581 L474.421,430.356 C475.251,430.505 476.101,430.581 476.944,430.581 C479.934,430.581 482.799,429.663 485.225,427.929 C488.344,425.701 490.455,422.252 491.018,418.469 L492.642,407.572 C492.876,406.011 492.85,404.439 492.565,402.898 C491.533,397.326 487.29,392.905 481.755,391.637 L460.622,386.789 L500.343,379.492 C504.089,378.804 507.339,376.701 509.495,373.57 C511.647,370.447 512.451,366.673 511.761,362.942 Z M426.021,217.735 C430.536,217.735 434.975,218.45 439.243,219.859 C443.057,231.473 441.629,244 435.657,254.348 L415.453,254.348 L421.9,247.886 C424.826,244.954 424.82,240.205 421.887,237.279 C418.954,234.353 414.205,234.358 411.281,237.291 L407.87,240.71 C406.271,235.445 403.479,230.731 399.809,226.864 C407.253,220.953 416.391,217.735 426.021,217.735 Z M383.725,180.159 C397.27,180.159 408.289,191.211 408.289,204.796 C408.289,205.048 408.277,205.297 408.27,205.547 C400.364,208.118 393.077,212.413 386.862,218.246 C385.873,217.871 384.87,217.523 383.84,217.238 C381.646,205.386 373.659,195.886 363.108,191.449 C367.487,184.665 375.085,180.159 383.725,180.159 Z M344.08,138.381 C349.174,138.381 354.18,139.205 359.004,140.835 C362.881,152.363 362.089,164.746 357.149,175.472 C353.088,179.171 349.793,183.701 347.541,188.793 C346.202,188.871 344.863,189.019 343.54,189.249 C337.663,190.272 332.183,192.822 327.597,196.52 C326.033,193.66 324.118,191.021 321.924,188.645 L339.123,171.407 C342.049,168.475 342.043,163.726 339.11,160.801 C336.178,157.875 331.429,157.88 328.503,160.813 L309.705,179.654 C306.128,177.963 302.262,176.787 298.199,176.237 C299.954,167.287 304.297,158.854 311.015,152.12 C319.854,143.26 331.597,138.381 344.08,138.381 Z M286.61,254.348 L280.109,254.348 C279.014,251.562 276.307,249.587 273.132,249.587 C269.957,249.587 267.25,251.563 266.155,254.348 L258.507,254.348 C260.283,251.456 259.924,247.624 257.417,245.122 C254.485,242.196 249.736,242.201 246.81,245.133 L239.741,252.217 C239.106,252.853 238.618,253.578 238.259,254.348 L222.994,254.348 C217.277,245.575 213.788,235.22 213.375,224.08 L332.361,224.08 C331.948,235.22 328.459,245.575 322.742,254.348 L306.857,254.348 C306.499,253.578 306.009,252.852 305.375,252.216 L298.307,245.132 C295.38,242.201 290.633,242.193 287.701,245.12 C285.192,247.622 284.833,251.455 286.61,254.348 Z M269.167,209.08 C271.994,198.603 281.551,190.872 292.877,190.872 C304.204,190.872 313.761,198.604 316.588,209.08 L269.167,209.08 Z M284.504,116.859 C291.638,124.569 296.355,133.723 298.668,143.345 C294.839,147.506 291.658,152.104 289.149,156.997 C288.01,156.299 286.675,155.89 285.242,155.89 L275.248,155.89 C271.106,155.89 267.748,159.248 267.748,163.39 C267.748,167.532 271.106,170.89 275.248,170.89 L284.015,170.89 C283.522,172.961 283.139,175.057 282.861,177.169 C279.883,177.951 277.039,179.065 274.377,180.483 C269.378,171.856 261.1,165.427 251.292,162.848 C251.289,162.827 251.285,162.806 251.281,162.785 C250.693,159.391 249.667,156.171 248.268,153.178 L284.504,116.859 Z M148.926,184.535 C148.486,183.305 148.153,182.043 147.934,180.777 C145.783,168.376 154.143,156.528 166.566,154.365 C167.876,154.137 169.207,154.021 170.521,154.021 C175.462,154.021 180.184,155.597 184.175,158.578 C185.826,159.812 187.914,160.311 189.946,159.959 C191.978,159.606 193.775,158.433 194.915,156.714 C198.436,151.403 203.823,147.879 210.083,146.789 C211.396,146.56 212.73,146.445 214.047,146.445 C225.159,146.445 234.603,154.395 236.501,165.35 C236.719,166.605 236.831,167.913 236.833,169.238 C236.84,173.12 239.809,176.356 243.677,176.696 C252.062,177.433 259.2,182.71 262.509,190.144 C258.079,195.461 255.008,201.953 253.842,209.08 L211.07,209.08 C205.752,209.08 201.189,212.363 199.286,217.009 C189.876,210.6 178.786,207.147 167.164,207.147 C159.883,207.147 152.75,208.518 145.958,211.222 C144.806,211.682 143.776,212.361 142.898,213.239 C142.008,214.129 141.325,215.172 140.877,216.316 C139.151,220.669 138,225.144 137.378,229.647 C134.69,226.587 132.796,222.782 132.056,218.512 C130.292,208.336 135.619,198.204 145.006,193.872 C148.534,192.244 150.235,188.192 148.926,184.535 Z M171.284,252.297 L173.33,254.348 L155.317,254.348 C151.273,244.966 150.659,234.287 153.942,224.271 C158.216,222.86 162.653,222.146 167.164,222.146 C178.465,222.146 189.096,226.563 197.097,234.582 C198.161,235.649 199.152,236.767 200.083,237.922 C201.354,243.676 203.307,249.173 205.823,254.347 L194.52,254.347 L181.903,241.701 C178.976,238.77 174.227,238.762 171.297,241.689 C168.364,244.616 168.358,249.365 171.284,252.297 Z M139.344,254.348 L112.607,254.348 C113.799,247.083 118.169,240.89 124.235,237.238 C127.826,242.049 132.513,245.939 137.913,248.574 C138.295,250.52 138.764,252.449 139.344,254.348 Z M63.654,15.637 L119.645,15.637 L119.645,46.676 L63.654,46.676 L63.654,15.637 Z M109.279,61.676 L109.279,77.369 L74.021,77.369 L74.021,61.676 L109.279,61.676 Z M39.297,143.187 L88,143.187 C92.143,143.187 95.5,139.829 95.5,135.687 C95.5,131.545 92.143,128.187 88,128.187 L39.297,128.187 L39.297,112.771 C39.297,101.521 48.421,92.369 59.636,92.369 L123.664,92.369 C134.88,92.369 144.004,101.521 144.004,112.771 L144.004,128.187 L130,128.187 C125.857,128.187 122.5,131.545 122.5,135.687 C122.5,139.829 125.857,143.187 130,143.187 L144.004,143.187 L144.004,149.844 C135.411,158.269 130.948,170.624 133.152,183.333 C133.156,183.358 133.161,183.384 133.165,183.41 C121.133,191.665 114.722,206.341 117.275,221.074 C117.424,221.934 117.611,222.78 117.815,223.617 C114.068,225.683 110.703,228.351 107.819,231.473 L39.297,231.473 L39.297,143.187 Z M39.296,246.472 L99.11,246.472 C98.314,249 97.752,251.631 97.478,254.348 L96.214,254.348 C89.311,254.348 83.694,259.969 83.694,266.878 C83.694,278.787 84.801,290.478 86.946,301.916 C84.791,301.743 82.581,301.65 80.333,301.65 C71.263,301.65 62.621,303.089 56.002,305.703 C45.877,309.701 43.078,315.378 42.467,319.306 C41.394,319.84 40.34,320.404 39.296,320.981 L39.296,246.472 Z M134.267,338.607 C136.968,340.768 138.619,342.605 139.576,343.93 C139.486,343.931 139.392,343.932 139.297,343.932 C135.052,343.932 127.425,342.221 118.752,337.42 C115.523,335.631 112.548,333.61 110.148,331.577 C107.35,329.206 103.247,329.208 100.451,331.578 C98.051,333.613 95.077,335.633 91.851,337.418 C83.176,342.221 75.549,343.932 71.305,343.932 C71.208,343.932 71.115,343.931 71.024,343.93 C71.98,342.605 73.631,340.767 76.333,338.605 C78.694,336.715 79.689,333.591 78.856,330.684 C78.022,327.776 75.524,325.653 72.519,325.301 C65.2,324.443 60.572,322.58 58.405,321.224 C61.12,319.533 67.984,316.65 80.336,316.65 C90.566,316.65 98.043,318.801 101.629,320.815 C103.91,322.095 106.691,322.095 108.972,320.816 C112.56,318.802 120.038,316.651 130.268,316.651 C142.621,316.651 149.484,319.535 152.198,321.225 C150.032,322.582 145.403,324.444 138.082,325.302 C135.077,325.655 132.578,327.777 131.745,330.686 C130.909,333.594 131.904,336.718 134.267,338.607 Z M119.264,429.893 L119.522,431.283 C120.414,436.1 122.295,440.521 124.923,444.365 L80.307,444.365 C44.297,444.365 15,417.701 15,384.925 C15,362.526 28.688,342.99 48.844,332.86 C51.159,334.588 54.045,336.078 57.469,337.28 C56.111,339.599 55.165,342.093 54.942,344.694 C54.646,348.152 55.704,351.436 57.924,353.942 C60.857,357.254 65.359,358.933 71.305,358.933 C79.229,358.933 89.626,355.796 99.116,350.542 C101.301,349.333 103.367,348.056 105.301,346.722 C107.234,348.055 109.3,349.332 111.486,350.543 C120.976,355.796 131.373,358.932 139.297,358.933 L139.298,358.933 C145.242,358.933 149.744,357.254 152.676,353.943 C154.897,351.437 155.956,348.153 155.659,344.694 C155.436,342.093 154.49,339.599 153.132,337.28 C156.556,336.077 159.443,334.587 161.758,332.86 C177.743,340.894 189.654,354.845 193.901,371.448 L140.856,391.599 C125.329,397.499 116.248,413.603 119.264,429.893 Z M395.418,437.307 C391.72,441.735 386.277,444.275 380.487,444.277 L372.615,444.28 L367.697,417.725 C366.942,413.652 363.031,410.959 358.956,411.716 C354.884,412.47 352.193,416.383 352.947,420.456 L357.361,444.285 L331.555,444.295 L328.23,426.338 C327.475,422.265 323.563,419.575 319.489,420.329 C315.417,421.083 312.726,424.996 313.48,429.069 L316.3,444.301 L256.275,444.324 L251.757,419.936 C251.001,415.863 247.091,413.173 243.016,413.928 C238.943,414.682 236.253,418.596 237.007,422.669 L241.02,444.33 L153.376,444.364 C153.374,444.364 153.372,444.364 153.37,444.364 C143.998,444.364 135.966,437.714 134.268,428.548 L134.01,427.158 C132.315,418.002 137.433,408.945 146.18,405.621 L175.657,394.423 L177.853,406.275 C178.522,409.886 181.674,412.41 185.218,412.41 C185.672,412.41 186.132,412.368 186.594,412.283 C190.666,411.528 193.356,407.615 192.601,403.542 L189.908,389.009 L233.663,372.387 C237.535,370.916 239.482,366.584 238.011,362.712 C236.54,358.839 232.203,356.893 228.337,358.364 L207.976,366.099 C202.264,345.876 187.59,328.983 168.131,319.305 C167.52,315.377 164.721,309.7 154.597,305.702 C147.978,303.088 139.336,301.649 130.266,301.649 C124.024,301.649 118.063,302.338 112.801,303.593 L112.801,299.063 C112.801,294.921 109.444,291.563 105.301,291.563 C103.55,291.563 101.944,292.167 100.667,293.173 C99.484,285.35 98.822,277.404 98.712,269.346 L343,269.346 C347.143,269.346 350.5,265.988 350.5,261.846 C350.5,257.704 347.143,254.346 343,254.346 L339.931,254.346 C344.707,244.51 347.405,233.482 347.405,221.827 C347.405,215.21 342.342,209.759 335.89,209.14 C338.699,206.491 342.205,204.705 346.113,204.024 C347.258,203.825 348.42,203.724 349.568,203.724 C359.251,203.724 367.479,210.651 369.132,220.193 C369.323,221.298 369.421,222.438 369.422,223.583 C369.427,227.467 372.397,230.705 376.266,231.045 C385.229,231.832 392.562,238.573 394.099,247.437 C394.507,249.794 394.456,252.12 394.047,254.346 L386,254.346 C381.857,254.346 378.5,257.704 378.5,261.846 C378.5,265.988 381.857,269.346 386,269.346 L444.292,269.346 C444.106,283.104 442.334,296.543 439.029,309.582 L398.383,333.576 C395.897,324.924 390.119,317.585 382.158,313.129 C373.229,308.132 362.618,307.351 353.048,310.986 L269.337,342.788 C265.464,344.259 263.518,348.591 264.989,352.463 C266.46,356.336 270.796,358.28 274.663,356.811 L285.691,352.622 L289.115,371.109 C289.784,374.72 292.936,377.245 296.481,377.245 C296.934,377.245 297.394,377.203 297.856,377.118 C301.928,376.364 304.619,372.451 303.865,368.378 L299.944,347.208 L358.373,325.011 C363.787,322.955 369.785,323.396 374.832,326.221 C379.87,329.04 383.36,333.9 384.408,339.552 L399.581,421.467 C400.627,427.116 399.11,432.889 395.418,437.307 Z M422.178,378.601 C418.679,379.244 416.114,382.256 416.035,385.813 C415.957,389.37 418.389,392.492 421.856,393.287 L477.696,406.095 L476.301,415.454 L411.567,403.821 L401.448,349.187 L457.832,315.903 L462.529,324.22 L414.971,356.011 C412.014,357.988 410.852,361.77 412.19,365.066 C413.527,368.362 416.997,370.266 420.495,369.623 L495.201,355.9 L496.865,364.88 L422.178,378.601 Z" id="Shape"></path>
        </g>
    </g>
</svg>