<?xml version="1.0"?>
<svg xmlns="http://www.w3.org/2000/svg" height="512px" viewBox="0 -67 512 512" width="512px"><path d="m311.632812 189.074219c0 12.40625 10.09375 22.5 22.5 22.5h30c12.40625 0 22.5-10.09375 22.5-22.5v-22.5h22.5c12.40625 0 22.5-10.09375 22.5-22.5v-30c0-12.40625-10.09375-22.5-22.5-22.5h-22.5v-22.5c0-12.40625-10.09375-22.5-22.5-22.5h-30c-12.40625 0-22.5 10.09375-22.5 22.5v22.5h-22.5c-12.40625 0-22.5 10.09375-22.5 22.5v30c0 12.40625 10.09375 22.5 22.5 22.5h22.5zm-22.5-37.5c-4.136718 0-7.5-3.363281-7.5-7.5v-30c0-4.136719 3.363282-7.5 7.5-7.5h30c4.144532 0 7.5-3.355469 7.5-7.5v-30c0-4.136719 3.363282-7.5 7.5-7.5h30c4.136719 0 7.5 3.363281 7.5 7.5v30c0 4.144531 3.355469 7.5 7.5 7.5h30c4.136719 0 7.5 3.363281 7.5 7.5v30c0 4.136719-3.363281 7.5-7.5 7.5h-30c-4.144531 0-7.5 3.355469-7.5 7.5v30c0 4.136719-3.363281 7.5-7.5 7.5h-30c-4.136718 0-7.5-3.363281-7.5-7.5v-30c0-4.144531-3.355468-7.5-7.5-7.5zm0 0" fill="#27bcbd"/><path d="m115.46875 308.289062c-1.039062 1.710938-1.359375 3.722657-.890625 5.671876 2.285156 9.359374-4.855469 18.515624-14.578125 18.539062-8.25-.019531-14.980469-6.75-15-15 .019531-8.25 6.75-14.980469 15-15 4.140625 0 7.5-3.359375 7.5-7.5 0-4.128906-3.359375-7.5-7.5-7.5-16.554688 0-30 13.394531-30 30 0 16.550781 13.390625 30 30 30 16.597656 0 30-13.4375 30-30 0-2.390625-.28125-4.769531-.839844-7.070312-1.601562-6.601563-10.289062-7.734376-13.691406-2.140626zm0 0" fill="#27bcbd"/><path d="m387.109375 304.910156c-4.089844.984375-6.488281 5.082032-5.53125 9.050782.28125 1.148437.421875 2.339843.421875 3.539062-.011719 8.25-6.738281 14.980469-15 15-8.261719-.019531-14.980469-6.75-15-15 .019531-8.25 6.738281-14.980469 15-15 4.140625 0 7.5-3.359375 7.5-7.5 0-4.128906-3.359375-7.5-7.5-7.5-16.582031 0-30 13.421875-30 30 0 16.550781 13.390625 30 30 30 16.597656 0 30-13.4375 30-30 0-2.390625-.28125-4.769531-.839844-7.070312-1.007812-4.148438-5.191406-6.519532-9.050781-5.519532zm0 0" fill="#27bcbd"/><path d="m236 280h-27.460938c0-6.039062.003907-144.277344.003907-150.925781 0-4.144531-3.359375-7.5-7.5-7.5h-71.824219c-3.507812 0-6.546875 2.429687-7.316406 5.851562l-14.261719 63.417969c-1.050781 4.683594 2.511719 9.144531 7.316406 9.144531h78.582031v80.011719h-11.75c-11.382812-24.652344-32.789062-42.234375-57.539062-49.179688v-8.332031c0-4.140625-3.371094-7.5-7.5-7.5-4.140625 0-7.5 3.359375-7.5 7.5v14.222657c0 3.539062 2.511719 6.628906 5.980469 7.347656 24.519531 5.0625 45.449219 22.75 54.621093 46.179687 1.109376 2.851563 3.917969 4.761719 6.976563 4.761719h59.171875c4.140625 0 7.5-3.355469 7.5-7.5 0-4.140625-3.359375-7.5-7.5-7.5zm-100.78125-143.425781h58.324219v48.414062h-69.210938zm0 0" fill="#27bcbd"/><path d="m367 227.5c-23.527344 0-45.796875 9.070312-62.710938 25.539062-2.96875 2.890626-3.027343 7.640626-.140624 10.605469 2.886718 2.96875 7.636718 3.035157 10.605468.140625 14.097656-13.726562 32.648438-21.285156 52.246094-21.285156 19.601562 0 38.160156 7.5625 52.265625 21.289062 2.96875 2.890626 7.714844 2.824219 10.605469-.144531s2.824218-7.714843-.144532-10.605469c-16.917968-16.46875-39.195312-25.539062-62.726562-25.539062zm0 0" fill="#27bcbd"/><path d="m489.5 0h-273.457031c-12.40625 0-22.5 10.09375-22.5 22.5v40.136719c-14.660157 2.859375-26.371094 14.351562-29.523438 28.9375h-33.011719c-17.664062 0-32.710937 12.035156-36.585937 29.269531l-14.425781 64.144531h-43.996094c-15.164062 0-27.5 12.339844-27.5 27.5v69.015625c-5.019531 2.425782-8.5 7.554688-8.5 13.496094v15c0 8.269531 6.730469 15 15 15h25.484375c3.707031 29.554688 28.972656 52.5 59.515625 52.5s55.8125-22.945312 59.515625-52.5h147.972656c3.703125 29.554688 28.972657 52.5 59.515625 52.5 30.542969 0 55.808594-22.945312 59.511719-52.5h62.984375c12.40625 0 22.5-10.09375 22.5-22.5v-280c0-12.40625-10.09375-22.5-22.5-22.5zm-295.957031 78.117188v13.457031h-13.929688c2.375-6.3125 7.523438-11.296875 13.929688-13.457031zm-170.042969 151.875h6.753906c4.136719 0 7.5 3.363281 7.5 7.5 0 4.136718-3.363281 7.5-7.5 7.5h-6.753906zm-8.5 65.007812h29.386719c-1.953125 4.800781-3.265625 9.835938-3.910157 15h-25.476562zm85 67.5c-24.8125 0-45-20.1875-45-45 0-9.234375 2.800781-18.121094 8.101562-25.703125 8.445313-12.082031 22.238282-19.296875 36.898438-19.296875 24.8125 0 45 20.1875 45 45s-20.1875 45-45 45zm267 0c-24.8125 0-45-20.1875-45-45s20.1875-45 45-45h.003906c24.8125 0 44.996094 20.1875 44.996094 45s-20.1875 45-45 45zm130-60c0 4.136719-3.363281 7.5-7.5 7.5h-62.984375c-3.703125-29.554688-28.96875-52.5-59.511719-52.5h-.003906c-30.542969 0-55.808594 22.945312-59.515625 52.5h-147.96875c-3.707031-29.554688-28.972656-52.5-59.515625-52.5-18.214844 0-35.414062 8.347656-46.78125 22.5h-29.71875v-20.007812h6.753906c12.40625 0 22.5-10.09375 22.5-22.5s-10.09375-22.5-22.5-22.5h-6.753906v-2.503907c0-6.890625 5.605469-12.5 12.5-12.5h49.996094c3.511718 0 6.550781-2.429687 7.320312-5.851562l15.738282-70c2.328124-10.339844 11.355468-17.5625 21.953124-17.5625h69.996094.039063c4.140625 0 7.5-3.355469 7.5-7.5v-76.574219c0-4.136719 3.363281-7.5 7.5-7.5h273.457031c4.136719 0 7.5 3.363281 7.5 7.5zm0 0" fill="#27bcbd"/></svg>
