<?xml version="1.0" encoding="UTF-8"?>
<svg width="131px" height="150px" viewBox="0 0 131 150" version="1.1" xmlns="http://www.w3.org/2000/svg" xmlns:xlink="http://www.w3.org/1999/xlink">
    <!-- Generator: Sketch 51.2 (57519) - http://www.bohemiancoding.com/sketch -->
    <title>Group 20</title>
    <desc>Created with Sketch.</desc>
    <defs>
        <polygon id="path-1" points="0.0910656811 0.0889326099 66.7879488 0.0889326099 66.7879488 66.4670659 0.0910656811 66.4670659"></polygon>
        <polygon id="path-3" points="0 0.138692008 66.5377882 0.138692008 66.5377882 65.8911377 0 65.8911377"></polygon>
        <polygon id="path-5" points="0.352226441 0.0516467066 35.8441161 0.0516467066 35.8441161 53.3422904 0.352226441 53.3422904"></polygon>
    </defs>
    <g id="Educationa-Content" stroke="none" stroke-width="1" fill="none" fill-rule="evenodd">
        <g id="Group-20">
            <g id="Group-3" transform="translate(32.335329, 83.481287)">
                <mask id="mask-2" fill="white">
                    <use xlink:href="#path-1"></use>
                </mask>
                <g id="Clip-2"></g>
                <path d="M66.242515,31.7513174 C67.2718563,48.7655389 55.2341317,62.2111976 40.7941617,65.6355988 C22.9338323,69.8706287 3.95209581,57.448024 1.04775449,39.3483234 C0.640419162,36.81 0.708682635,34.2918862 0.639071856,31.7594012 C-0.0606287425,30.9236228 0.0601796407,29.9526647 0.193113772,28.9861976 C2.47814371,12.3797605 16.5920659,0.115239521 33.4199102,0.103562874 C49.1649701,-0.393592814 64.2386228,11.8323054 66.6494012,28.754012 C66.7971557,29.7923353 66.9938623,30.8355988 66.242515,31.7513174" id="Fill-1" fill="#5168BB" mask="url(#mask-2)"></path>
            </g>
            <g id="Group-6" transform="translate(0.000000, 49.349551)">
                <mask id="mask-4" fill="white">
                    <use xlink:href="#path-3"></use>
                </mask>
                <g id="Clip-5"></g>
                <path d="M65.7813323,34.8308084 C49.3590269,34.6224251 35.5204042,46.7899401 33.0359731,63.4318563 C32.9160629,64.2366467 32.9906138,65.0706287 32.9744461,65.8911377 C16.9127695,65.3284132 4.63791916,55.5514671 0.900943114,40.343982 C-3.49441617,22.4576048 8.67489521,3.86164671 26.8576796,0.678862275 C44.1979491,-2.35616766 60.0539371,7.63814371 64.8472006,24.6285629 C64.9922605,25.1427844 64.7268413,25.9534132 65.7431587,25.7836527 C67.0451048,28.793982 66.5192066,31.8119461 65.7813323,34.8308084" id="Fill-4" fill="#4657A5" mask="url(#mask-4)"></path>
            </g>
            <path d="M65.7813323,84.1803593 C65.7687575,81.1646407 65.7557335,78.1489222 65.7431587,75.1336527 C67.1448054,67.4288623 71.2199551,61.2968263 77.2590269,56.5484731 C97.0302844,41.0041617 125.583728,51.9945808 130.055883,76.7912874 C133.286722,94.7041617 120.719057,112.19488 102.800793,114.795629 C101.39241,114.99997 99.9916617,115.147275 98.5778892,115.232605 C98.3883683,100.831707 86.4719012,87.1637425 71.996003,84.6173353 C69.9171108,84.2517665 67.8593263,84.2270659 65.7813323,84.1803593" id="Fill-7" fill="#414E9E"></path>
            <path d="M66.7983234,53.7397455 C65.7694311,54.474476 64.7382934,53.8623503 63.7799102,53.6310629 C50.3391916,50.3854042 39.4808084,43.6259731 33.5998204,30.5786677 C29.4186826,21.3015719 29.3549102,11.6198353 31.5941317,1.81953593 C31.8833533,0.553068862 32.3450299,0.274176647 33.5715269,0.570134731 C48.0339521,4.05696108 59.3441317,11.4375 65.0531138,25.8339072 C65.2516168,26.3351048 65.0908383,27.3590569 66.2046108,27.1187874 C68.5583533,34.8029192 68.8296108,42.5764222 67.2065569,50.4316617 C66.9806587,51.522979 66.7718263,52.616991 66.7983234,53.7397455" id="Fill-9" fill="#9BD345"></path>
            <g id="Group-13" transform="translate(65.568862, 0.397455)">
                <mask id="mask-6" fill="white">
                    <use xlink:href="#path-5"></use>
                </mask>
                <g id="Clip-12"></g>
                <path d="M1.22946108,53.3422904 C-0.24494012,53.1002246 0.556706587,52.1099551 0.682005988,51.4592066 C1.46568862,47.384506 2.13305389,43.3129491 2.02347305,39.1318114 C1.9341018,35.7060629 1.44682635,32.353518 0.57242515,29.0589072 C0.351017964,28.2235778 0.210898204,27.491991 0.635748503,26.7213323 C3.46913174,17.5592066 9.41254491,10.9089072 17.4851497,6.03345808 C22.1153892,3.2369012 27.1183832,1.32687126 32.4128443,0.179865269 C33.3959281,-0.033008982 34.0781138,-0.138098802 34.3632934,1.17238024 C37.6543114,16.2842066 35.9221257,30.2337575 24.4493713,41.6238772 C18.0474251,47.9795659 10.167485,51.809506 1.22946108,53.3422904" id="Fill-11" fill="#7BC63C" mask="url(#mask-6)"></path>
            </g>
            <path d="M49.8857784,110.261497 C46.9562874,110.104311 45.5505988,107.527365 46.8449102,105.202365 C48.551497,102.136796 50.9748503,99.7430838 54.0318862,98.0243713 C55.5817365,97.1526647 57.7935629,97.5851497 58.6535928,98.9108982 C59.7583832,100.613892 59.4758982,102.242784 57.9278443,103.458952 C55.804491,105.127814 53.8850299,106.959251 52.2763473,109.131557 C51.613024,110.027515 50.6964072,110.505808 49.8857784,110.261497" id="Fill-14" fill="#3E50A3"></path>
            <path d="M25.355479,63.7708832 C25.2220958,61.9304641 26.4023353,60.9334581 27.892006,60.5629491 C31.3114671,59.7123503 34.7771856,59.499476 38.1970958,60.7219311 C40.0720958,61.3924401 41.0264371,63.0496257 40.5548802,64.8981287 C40.1300299,66.5647455 38.2303293,67.7162425 36.3917066,67.2577096 C34.0424551,66.6725299 31.7470958,66.7470808 29.3695509,67.1526198 C26.740509,67.6008234 25.3518862,66.297979 25.355479,63.7708832" id="Fill-16" fill="#3A3E9A"></path>
            <path d="M104.395599,66.5116617 C104.406826,63.4546257 106.756078,62.0453443 109.449341,63.4290269 C112.553982,65.0237874 114.98991,67.4857635 116.601737,70.5791766 C117.431228,72.1712425 117.343653,73.973488 115.65009,75.1676497 C114.207575,76.1844162 112.100838,75.8183982 110.900389,74.2573204 C109.301138,72.1761826 107.546497,70.2922006 105.395749,68.7755838 C104.527635,68.1634581 104.197096,67.2706437 104.395599,66.5116617" id="Fill-18" fill="#323D85"></path>
        </g>
    </g>
</svg>