<?xml version="1.0" encoding="UTF-8"?>
<svg width="1193px" height="730px" viewBox="0 0 1193 730" version="1.1" xmlns="http://www.w3.org/2000/svg" xmlns:xlink="http://www.w3.org/1999/xlink">
    <!-- Generator: Sketch 51.3 (57544) - http://www.bohemiancoding.com/sketch -->
    <title>Artboard</title>
    <desc>Created with Sketch.</desc>
    <defs></defs>
    <g id="Artboard" stroke="none" stroke-width="1" fill="none" fill-rule="evenodd">
        <g id="Group" transform="translate(90.000000, 55.000000)">
            <path d="M929.56,506.77 C901.5,551 854.901,584.6 802.954,592.97 C768.939,598.42 736.277,593.57 702.28,591.5 C665.351,589.22 628.171,589.2 591.61,582.78 C557.07,576.68 523.436,565.57 492.675,548.63 C476.831,539.93 461.813,529.81 447.786,518.42 C433.368,506.66 419.579,497.5 402.224,490.53 C366.748,476.28 330.156,467.41 293.579,456.679 C257.756,446.204 221.635,432.99 188.119,416.577 C159.96,402.76 135.259,384.151 111.003,364.456 C90,347.356 69.673,329.241 51.61,308.995 C33.744,288.934 17.761,266.424 8.38,241.08 C-1.713,213.778 -1.848,184.58 5.819,156.583 C15.088,122.849 35.498,96.996 60.353,73.184 C84.781,49.77 111.525,27.115 143.432,14.825 C202.343,-7.864 266.778,-0.186 327.193,11.369 C358.205,17.297 389.061,24.564 420.384,28.937 C455.87,33.838 491.713,35.345 527.476,36.373 C598.084,38.337 670.542,36.519 737.627,61.71 C753.586,67.687 768.887,75.113 784.585,81.653 C800.869,88.423 817.704,93.76 834.332,99.651 C850.228,105.256 865.97,111.406 880.66,119.756 C887.69,123.683 894.55,130.345 902.17,133.518 L902.2,133.54 C909.78,138.277 917.13,143.134 923.95,149.065 C938.67,161.837 950.86,177.525 959.34,195.121 C975.63,228.841 976.52,268.354 967.17,304.233 C962.88,320.646 956.22,335.6 959.89,352.857 C963.75,370.767 962.16,386.753 959.67,404.775 C954.84,439.703 948.74,476.54 929.56,506.77" id="Fill-1" fill="#802D1E"></path>
            <path d="M514.589,121.011 C500.455,117.826 484.508,114.432 468.773,111.26 C455.673,108.601 442.584,105.969 429.55,103.081 C417.072,100.313 404.793,96.278 392.365,93.382 C366.756,87.414 339.957,88.453 313.306,102.345 C323.426,98.035 332.962,103.104 342.344,106.481 C354.445,110.84 366.442,116.473 378.562,120.258 C414.696,131.542 453.609,136.465 490.424,144.431 C509.348,148.501 526.712,154.444 543.464,159.429 C560.125,164.35 576.294,168.237 591.69,168.293 C597.505,168.232 603.182,167.937 609.521,167.238 C616.295,166.457 623.08,165.674 629.873,164.89 C637.141,164.093 644.907,163.359 653.155,163.053 C660.114,162.782 668.966,165.173 675.105,159.806 C668.274,155.111 660.479,155.791 654.064,154.863 L630.978,151.492 C617.097,149.344 605.118,146.841 596.073,143.757 C578.518,137.72 561.067,132.222 540.04,127.02 C532.012,125.045 523.488,123.013 514.589,121.011" id="Fill-2" fill="#CC8B53"></path>
            <path d="M624.226,202.709 C613.648,205.502 601.998,208.723 589.043,211.531 C576.285,214.39 561.288,216.604 547.191,217.433 C523.535,218.89 500.873,217.248 479.787,213.886 C459.535,210.676 440.656,204.28 422.98,199.989 C388.48,191.524 354.312,189.855 316.873,195.256 C329.97,192.813 343.355,200.177 356.403,205.534 C373.251,212.443 390.012,220.3 407.128,226.223 C432.824,235.047 462.541,242.204 496.379,245.165 C513.232,246.645 531.14,246.98 549.698,245.604 C558.882,244.978 568.531,243.811 577.617,242.346 C586.654,240.864 594.998,239.111 602.693,237.366 C618.859,233.667 632.396,230.232 643.53,228.079 C649.148,226.938 653.874,226.259 658.573,225.752 C663.271,224.978 668.127,224.986 672.909,224.512 C692.255,223.883 711.94,225.459 731.843,228.363 C747.027,230.467 762.919,233.214 778.035,238.717 C781.753,240.162 785.446,241.722 789.166,243.298 C792.698,245.13 796.371,246.849 799.84,248.861 C802.676,250.65 805.503,252.996 808.561,254.891 C811.525,256.898 814.89,258.283 819.329,257.948 C818.514,254.635 816.467,251.993 814.122,249.635 C811.805,247.238 808.846,245.505 806.6,243.358 C800.813,238.16 794.668,233.226 788.213,228.606 C775.861,219.741 762.316,211.856 747.872,206.157 C720.035,195.121 688.949,191.232 659.645,194.971 C654.039,195.93 648.648,196.621 642.83,198.023 C637.008,199.347 630.818,200.964 624.226,202.709" id="Fill-3" fill="#CC8B53"></path>
            <path d="M930.25,267.913 C956.15,225.02 946.66,190.901 900.23,163.943 C881.22,152.912 791.188,92.341 775.267,122.699 C758.503,154.663 902.41,203.342 911.81,230.916 C920.81,257.328 906.9,230.031 902.42,251.393 C897.61,274.319 917.65,273.48 930.25,267.913 C945.36,242.9 924.58,270.418 930.25,267.913" id="Fill-4" fill="#56141E"></path>
            <path d="M730.569,82.368 C751.739,106.592 743.686,138.767 704.854,116.625 C694.429,110.68 685.422,117.217 674.626,116.454 C660.859,115.48 637.541,98.675 642.38,82.838 C650.839,55.15 705.104,60.385 723.57,75.587 C726.179,77.734 728.512,80.014 730.569,82.368" id="Fill-5" fill="#56141E"></path>
            <path d="M294.263,65.515 C296.228,65.457 297.913,65.327 295.561,64.957 C306.688,65.63 317.806,67.678 328.986,67.12 C334.008,66.869 342.888,67.121 346.439,62.968 C371.952,33.141 251.487,30.362 241.858,31.15 C211.364,33.644 175.224,35.791 146.281,46.797 C135.386,50.94 112.978,60.587 111.506,74.239 C109.566,92.232 144.952,93.145 156.235,93.211 C181.668,93.362 206.675,85.818 230.958,78.97 C244.591,75.125 258.241,71.248 272.145,68.501 C278.399,67.266 284.661,66.454 290.969,65.598 C291.222,65.564 292.818,65.559 294.263,65.515" id="Fill-6" fill="#56141E"></path>
            <path d="M827.3,386.561 C830.123,386.007 832.939,385.412 835.745,384.771 C853.102,380.805 869.9,374.898 886.89,369.663 C894.97,367.173 903.12,364.833 911.31,362.71 C916.89,361.261 925.05,359.196 928.94,365.074 C932.28,370.109 929.5,377.052 928.24,382.311 C926.13,391.049 924.1,399.786 921.29,408.334 C906.89,452.141 877.81,494.14 835.89,515.33 C806.417,530.23 772.555,529.82 740.479,526.68 C723.159,524.98 705.891,522.76 688.544,521.32 C671.198,519.89 653.737,520.23 636.447,518.18 C601.836,514.06 571.199,500.11 538.782,488.39 C506.374,476.66 473.465,466.25 441.705,452.799 C407.661,438.379 373.714,423.944 339.358,410.254 C278.011,385.809 217.732,358.37 160.207,325.801 C133.436,310.644 106.609,292.528 88.456,267.211 C71.777,243.951 56.906,214.231 63.18,184.931 C66.236,170.653 73.158,156.555 81.152,144.406 C85.77,137.388 90.686,136.405 96.333,142.986 C101.155,148.605 104.645,155.411 108.072,161.926 C115.468,175.986 123.619,187.763 135.468,198.495 C147.316,209.227 160.597,217.822 174.466,225.679 C235.394,260.199 298.943,289.838 363.636,316.564 C395.768,329.839 428.118,342.907 460.873,354.575 C494.184,366.44 528.726,374.047 563.714,378.883 C600.149,383.919 636.805,387.443 673.458,390.456 C709.936,393.455 746.635,394.991 783.18,392.254 C797.963,391.147 812.742,389.413 827.3,386.561" id="Fill-7" fill="#56141E"></path>
            <path d="M906.24,502.65 C904.63,505.09 903.07,507.6 901.24,509.99 C890.59,524.82 876.53,539.57 858.35,551.7 C856.186,553.24 853.715,554.76 851.113,556.24 C848.566,557.78 845.952,559.15 843.297,560.47 C837.994,563.16 832.509,565.47 826.953,567.49 C815.826,571.54 804.404,574.28 793.177,576.02 C781.952,577.75 770.905,578.5 760.207,578.66 C754.83,578.76 749.588,578.67 744.412,578.5 L736.724,578.16 L729.756,577.75 C720.637,577.17 711.455,576.46 702.233,575.61 C697.617,575.15 693.003,574.68 688.37,574.22 L681.917,573.56 L675.878,573.08 C673.336,572.9 670.309,572.64 668.919,572.02 C667.248,571.28 669.315,570.52 671.349,570 C674.277,569.25 677.27,568.59 680.31,568.03 C681.857,567.75 683.308,567.49 684.911,567.26 C686.779,567.1 688.638,566.94 690.489,566.78 C698.055,566.2 706.098,565.78 714.149,565.37 C722.248,564.96 730.177,564.55 737.987,563.95 C746.225,563.37 754.183,562.43 761.136,560.92 C765.934,560.09 784.741,555.66 776.726,554.44 C773.903,554.11 757.998,555.35 742.458,555.34 C727.921,555.4 712.658,555.47 708.973,555.49 C697.551,555.45 685.651,554.88 675.44,555.48 C664.545,555.9 652.339,556.69 638.591,556.34 C631.724,556.16 624.376,555.57 617.355,554.71 C610.332,553.79 603.328,552.66 596.593,551.2 C583.029,548.36 570.176,544.62 558.033,540.79 C535.754,533.59 513.65,526.45 491.616,519.32 C486.116,517.51 470.722,511.85 455.481,505.98 C440.356,500.23 425.16,493.74 421.979,493.13 C439.75,497.04 458.836,500.95 477.883,504.76 C496.979,508.61 516.569,512.63 535.94,517.6 C519.775,505.2 481.688,493.9 450.175,483.39 C441.653,480.59 432.646,477.24 424.599,474.37 L399.886,465.51 L350.499,447.795 L300.471,430.044 C283.621,423.982 266.819,417.664 250.085,411.041 C216.618,397.791 183.413,383.331 150.729,367.251 L138.447,361.112 C134.226,358.948 129.977,356.732 125.698,354.36 C117.149,349.655 108.512,344.521 99.903,338.714 C82.767,327.097 65.431,312.581 50.856,293.729 C59.762,299.977 71.847,310.584 86.466,320.831 C101.042,331.198 118.033,341.329 135.305,350.077 C144.044,354.514 152.351,358.462 160.852,362.4 C169.301,366.333 177.742,370.046 185.947,373.436 C202.353,380.222 217.848,385.634 230.732,388.588 C212.592,376.056 184.04,364.816 161.152,355.177 C139.822,346.269 116.399,335.651 93.962,319.201 C82.744,310.989 71.736,301.134 61.952,289.263 C57.224,283.531 53.144,278.106 48.963,271.955 C44.875,265.847 40.984,259.336 37.441,252.306 C30.39,238.329 24.666,221.724 23.371,202.691 C23.175,197.896 23.105,193.07 23.533,188.126 C23.638,185.674 24.03,183.199 24.386,180.728 L24.961,177.022 L25.64,173.649 C27.563,164.792 30.284,156.587 33.497,148.924 C36.701,141.241 40.393,134.071 44.432,127.237 L45.965,124.69 L46.745,123.431 L47.138,122.802 L47.335,122.488 L48.176,121.227 L48.834,120.243 L49.72,119.01 L51.086,117.227 C52.034,116.012 52.948,114.974 53.892,113.957 L55.33,112.438 L57.159,110.71 L59.057,109.045 C59.801,108.436 60.644,107.793 61.457,107.2 C62.298,106.591 63.085,106.035 64.006,105.443 C65.04,104.799 66.101,104.186 67.177,103.606 C71.372,101.296 77.337,99.139 83.652,98.379 C86.83,98.041 90.242,97.94 93.283,98.256 C96.405,98.546 99.514,99.141 102.048,99.911 C103.365,100.293 104.746,100.746 105.959,101.21 C107.052,101.645 108.138,102.116 109.208,102.617 C111.504,103.686 113.097,104.637 114.743,105.673 C116.521,106.788 117.726,107.701 118.985,108.683 L120.831,110.181 L122.305,111.504 C123.258,112.384 124.3,113.38 124.984,114.124 L126.117,115.336 L127.578,116.985 L128.352,117.885 L129.872,119.758 C130.937,121.112 131.634,122.031 132.438,123.149 C135.549,127.45 137.925,131.414 139.938,134.944 L144.829,143.9 C146.05,146.131 147.262,148.257 148.483,150.228 C147.196,148.993 145.897,147.669 144.595,146.234 L142.63,144.023 L140.34,141.122 C137.095,136.928 133.249,131.554 127.957,125.639 L125.84,123.339 C124.98,122.408 123.965,121.326 123.657,121.132 L123.297,120.825 L123.118,120.672 L122.742,120.236 L122.688,120.184 L122.584,120.079 L122.372,119.872 L120.658,118.232 C119.555,117.189 117.962,115.848 116.505,114.711 C113.154,112.205 108.795,109.208 101.883,106.997 C100.019,106.449 98.356,106 96.264,105.677 C94.165,105.367 92.124,105.155 89.95,105.168 C85.55,105.165 81.209,105.946 77.388,107.252 C75.616,107.882 73.731,108.665 72.178,109.47 C70.721,110.245 69.296,111.094 67.93,112.005 C66.801,112.809 65.701,113.656 64.639,114.541 C63.57,115.433 62.888,116.139 62.026,116.982 C60.307,118.705 59.377,119.923 58.078,121.579 L56.297,124.095 L55.869,124.734 C55.756,124.911 55.778,124.908 55.725,125.005 L55.514,125.44 L55.3,125.876 L55.194,126.094 L55.168,126.148 L55.153,126.175 L54.625,126.963 L54.562,127.094 L54.064,128.141 L53.073,130.24 L51.16,134.498 C46.185,145.948 41.946,158.202 39.511,171.782 C38.359,178.364 37.513,186.18 37.807,193.572 C38.125,200.963 39.137,208.208 40.947,215.015 C39.978,208.135 39.725,200.995 40.052,193.848 C40.423,186.703 41.77,179.309 43.377,173.043 C46.715,160.165 51.553,148.589 57.069,137.688 L59.18,133.633 L60.27,131.634 L60.543,131.134 L60.61,131.009 L60.646,130.947 L61.075,130.303 L61.198,130.088 L61.689,129.232 L61.813,129.019 L62.185,128.48 L62.962,127.397 C63.486,126.689 64.039,125.945 64.569,125.332 L66.226,123.438 C66.901,122.744 67.619,122.05 68.343,121.383 C71.391,118.669 76.12,115.306 83.092,113.784 C86.441,113.028 90.315,112.899 93.655,113.368 C95.452,113.583 96.944,113.939 98.444,114.371 C100.035,114.814 101.315,115.31 102.522,115.84 C107.438,118.015 110.624,120.544 112.922,122.558 C114.239,123.691 115.062,124.56 116.096,125.595 C117.382,127.003 117.037,126.485 118.052,127.633 L120.15,130.03 L121.945,132.192 C126.528,137.92 129.874,143.208 132.778,147.521 C135.471,151.501 137.933,154.722 140.545,157.873 C146.218,164.651 151.896,169.778 158.807,174.575 C166.08,179.723 174.236,184.429 183.285,189.027 C192.091,193.449 203.022,198.574 213.254,203.465 C223.783,208.396 234.261,213.304 244.719,218.201 C287.019,237.818 330.696,257.15 374.182,276.3 C336.922,266.868 299.877,256.523 263.161,244.781 C271.501,254.039 299.976,265.316 319.883,271.459 C336.223,276.488 352.466,281.485 368.635,286.46 C385.402,291.529 402.076,296.57 418.686,301.591 C435.465,306.619 452.316,311.571 469.231,316.271 C473.566,317.485 477.476,318.525 481.475,319.527 C485.479,320.531 489.507,321.488 493.563,322.386 C501.671,324.19 509.877,325.793 518.173,327.211 C534.763,330.05 551.709,332.148 568.949,333.664 C586.746,335.247 604.873,336.593 623.118,337.804 C641.592,338.927 660.011,340.047 678.414,341.166 C696.563,342.194 714.439,342.921 731.994,343.024 C710.27,345.595 688.113,346.988 664.814,347.923 C641.637,348.91 618.566,349.653 595.54,349.909 C584.485,350.033 577.332,350.582 578.021,353.539 C615.152,358.253 650.32,360.278 684.969,361.468 C719.27,362.455 752.765,361.606 787.111,356.873 C794.309,355.882 801.699,354.735 808.538,354.234 C815.374,353.754 821.515,354.126 821.269,356.006 C821.048,357.56 816.644,359.583 812.334,361.272 C776.284,375.32 733.414,383.269 688.342,387.13 C678.967,387.956 669.466,388.604 659.884,389.213 C636.517,390.676 614.42,392.259 591.461,392.994 C579.955,393.355 568.349,393.521 556.063,393.259 C543.761,392.947 530.948,392.128 517.425,390.411 C502.752,388.584 488.013,386.061 473.282,382.848 C465.943,381.229 458.518,379.383 451.274,377.435 L430.104,371.582 C401.947,363.568 374.226,354.875 346.804,346.273 C303.718,333.167 259.176,316.444 215.36,297.762 C215.204,297.69 212.91,296.632 209.641,295.123 C206.362,293.553 202.112,291.516 198.04,289.566 C189.896,285.553 182.472,281.607 184.919,282.117 C208.541,287.161 240.215,298.493 272.157,308.877 C306.766,320.225 343.406,331.545 372.83,336.72 C334.346,321.327 298.411,307.188 263.294,292.88 C228.098,278.52 193.86,264.172 158.077,247.469 C149.12,243.173 139.988,238.389 130.927,232.654 C126.398,229.79 121.888,226.708 117.46,223.353 C113.068,220.042 108.365,216.047 104.132,211.939 C95.532,203.634 88.084,194.151 81.938,184.829 C80.387,182.499 78.915,180.155 77.501,177.868 C76.229,175.833 75.078,174.017 74.031,172.478 C72.989,170.951 72.036,169.658 71.208,168.686 C70.797,168.21 70.408,167.772 70.064,167.45 C69.888,167.259 69.734,167.152 69.576,166.996 L69.545,167.056 C69.545,167.056 69.646,167.223 69.348,166.903 L68.735,166.266 L68.659,166.186 L68.62,166.146 C72.252,163.314 60.438,172.427 76.753,159.789 L77.404,159.259 L78.683,158.158 C79.521,157.406 80.335,156.616 81.122,155.791 C81.834,155.145 82.512,154.475 83.161,153.756 C84.516,152.147 85.47,151.229 86.386,149.794 C87.191,148.83 87.872,147.435 88.261,146.741 C89.124,144.947 89.015,143.937 89.027,144.21 C89.031,144.459 89.432,145.992 90.912,147.964 C91.576,148.768 92.646,150.208 93.757,151.177 C95.106,152.584 96.213,153.645 98.198,154.912 C99.116,155.497 100.064,156.023 101.04,156.488 L103.605,159.341 L104.886,160.778 L105.204,161.138 L105.365,161.318 C99.211,158.21 113.947,165.767 112.404,164.989 L112.326,165.14 L112.006,165.743 C111.136,167.346 110.345,168.963 109.56,170.569 C106.495,176.995 104.181,183.429 103.005,189.04 C102.709,190.439 102.487,191.779 102.327,193.046 C102.314,194.154 102.191,194.942 102.229,195.955 C102.232,197.87 102.467,199.941 102.841,202.19 C103.675,206.716 105.427,212.14 108.203,218.092 C102.582,211.646 98.027,204.759 95.89,197.889 C93.454,192.04 94.225,180.854 97.943,169.603 C98.852,166.764 99.925,163.885 101.146,160.995 L102.087,158.826 L102.208,158.554 L102.268,158.418 L102.296,158.35 C102.67,157.797 101.805,159.065 101.901,158.92 L101.922,158.881 L102.247,158.255 C102.245,158.111 102.479,158.134 102.284,157.854 L101.274,156.722 C100.56,156.144 99.762,155.908 99.036,155.425 C93.191,151.759 90.3,147.351 89.399,145.413 C88.94,144.335 89.048,144.084 89.019,144.309 C89.003,144.666 88.782,145.838 87.965,147.29 C87.545,148.117 86.999,149.012 86.322,149.89 C85.574,151.054 84.824,151.811 83.811,153.013 C82.769,154.285 81.768,155.15 80.463,156.468 L78.884,157.973 C78.843,157.881 79.061,158.076 78.818,157.746 L79.788,158.651 C79.935,158.762 80.029,158.776 80.238,158.961 C80.666,159.343 81.106,159.759 81.556,160.219 C82.458,161.139 83.396,162.221 84.361,163.443 C86.318,165.914 88.296,168.833 90.63,172.355 C93.011,175.955 95.53,179.583 98.23,183.184 C103.62,190.385 109.802,197.461 116.708,203.79 C107.405,192.117 99.7,178.715 93.38,166.314 C91.843,163.401 90.349,160.737 88.81,158.395 C88.043,157.225 87.268,156.139 86.484,155.151 C86.065,154.621 85.72,154.224 85.442,153.911 L84.606,152.972 L84.363,152.79 C84.372,152.373 83.39,153.501 85.58,150.928 L86.577,149.522 C86.858,149.165 87.122,148.784 87.362,148.382 C87.861,147.454 88.19,146.963 88.456,146.292 C89.526,143.636 88.561,143.714 89.473,145.552 C89.956,146.703 90.807,147.908 92.252,149.615 C92.972,150.465 93.731,151.14 94.743,152.182 L95.173,152.583 L95.185,152.588 L95.255,152.569 C95.419,152.402 94.336,154.245 93.664,155.522 C87.889,166.359 83.955,177.976 83.098,188.307 C82.469,197.785 84.824,206.702 88.955,215.44 C93.738,225.52 100.913,235.569 109.385,245.281 L112.628,248.915 C113.714,250.119 114.704,251.022 115.726,252.092 C117.81,254.129 119.97,256.117 122.245,258.043 C126.785,261.902 131.714,265.548 136.978,269.027 C147.507,275.988 159.359,282.252 172.16,288.279 C178.889,291.346 185.604,294.406 192.309,297.461 C199.253,300.506 206.182,303.546 213.102,306.58 C241.013,318.589 269.664,329.99 298.893,340.983 C328.188,352.148 357.629,361.977 388.931,373.983 C407.291,380.904 433.807,393.883 426.656,395.462 C424.552,395.929 419.777,394.903 415.148,393.814 C397.24,389.603 377.623,384.074 357.528,378.136 C337.608,372.481 317.592,366.525 298.24,360.472 C259.57,348.548 224.362,336.812 200.823,334.31 C245.483,361.321 297.386,379.613 346.96,395.908 C374.853,405.571 403.024,415.719 431.313,426.29 C438.365,428.947 445.406,431.603 452.444,434.255 C459.232,436.842 466.107,439.341 473.069,441.776 C486.991,446.648 501.212,451.315 515.622,456.114 C500.449,454.999 484.478,453.406 467.785,450.787 C459.424,449.479 450.954,447.879 442.2,445.962 C433.383,444.061 424.389,442.02 415.234,439.841 C432.532,447.142 449.462,454.104 466.492,459.597 C483.534,465.13 500.571,469.59 517.521,473.8 C533.959,477.88 550.872,482.07 568.077,486.33 C584.633,490.43 600.822,493.98 616.466,495.6 C632.271,497.4 646.38,496.56 663.306,495.16 C671.688,494.52 680.563,493.85 690.078,493.73 C698.869,493.72 707.477,493.82 716.261,493.98 C725.017,494.15 733.825,494.41 742.696,494.77 C751.106,495.07 759.102,495.22 766.937,495.1 C782.555,494.83 797.106,493.48 809.826,489.82 C814.958,488.51 820.816,486.35 821.864,487.72 C822.452,488.52 820.845,490.16 819.188,491.75 C810.591,499.54 797.211,506.06 780.421,509.32 C772.058,511 762.942,511.98 753.326,512.37 C743.82,512.76 733.319,512.47 722.768,512.19 C704.94,511.63 681.678,511.65 684.727,516.22 C687.648,520.05 709.538,523.29 726.429,524.67 C744.795,526.34 762.903,527.46 780.514,525.85 C798.063,524.33 815.106,520.04 829.584,511.89 C841.858,505 853.614,495.98 863.87,485.46 C869.01,480.2 873.81,474.57 878.13,468.62 L881.33,464.15 L884.17,459.741 C885.88,457.153 887.25,454.391 888.72,451.801 C894.26,440.917 898.08,430.247 900.24,420.206 C901.38,415.206 902.02,410.33 902.4,405.669 L902.9,398.862 C903.09,396.679 903.45,394.537 902.87,392.358 C902.36,390.132 900.07,388 897.06,387.949 C894.12,387.807 891.18,388.87 888.44,389.862 C883.19,391.934 877.95,393.999 872.73,396.058 C862.78,400.112 853.896,404.151 845.189,407.012 C844.646,407.182 844.086,407.355 843.529,407.528 C842.927,407.696 842.59,407.783 841.235,408.089 C839.006,408.544 836.872,408.871 835.08,408.952 C829.173,409.212 831.635,406.716 834.987,404.64 C836.749,403.596 838.487,402.566 840.21,401.546 C841.224,400.985 841.509,400.604 842.189,400.125 L844.069,398.723 C846.688,396.824 849.753,394.8 853.21,392.642 C860.128,388.334 868.61,383.449 878.27,378.278 C882.86,375.866 887.44,373.457 892.05,371.036 L899.14,367.344 C901.5,366.139 904.08,364.713 906.31,363.763 C910.92,361.705 915.53,359.591 920.32,358.385 C922.71,357.792 925.2,357.415 927.68,357.705 C930.15,357.939 932.55,359.073 934.24,360.806 C935.5,362.076 936.35,363.56 936.89,364.971 C938.4,369.413 938.1,373.202 938.85,377.563 C939.43,381.863 940.1,386.414 940.42,391.335 C940.81,396.242 940.54,401.55 939.93,407.105 C939.71,409.885 939.36,412.709 938.99,415.599 C938.66,418.489 938.31,421.443 937.7,424.483 C935.64,436.597 932.22,450.031 926.27,464.34 C924.92,467.95 923.05,471.47 921.38,475.17 C920.51,477.01 919.67,478.89 918.69,480.72 L917.18,483.48 L916.4,484.86 L915.84,485.96 C914.48,488.78 912.93,491.54 911.32,494.32 C909.75,497.12 908.08,499.91 906.24,502.65" id="Fill-8" fill="#56141E"></path>
        </g>
    </g>
</svg>