<?xml version="1.0" encoding="UTF-8"?>
<svg width="404px" height="406px" viewBox="0 0 404 406" version="1.1" xmlns="http://www.w3.org/2000/svg" xmlns:xlink="http://www.w3.org/1999/xlink">
    <!-- Generator: Sketch 51.3 (57544) - http://www.bohemiancoding.com/sketch -->
    <title>Artboard</title>
    <desc>Created with Sketch.</desc>
    <defs></defs>
    <g id="Artboard" stroke="none" stroke-width="1" fill="none" fill-rule="evenodd">
        <path d="M191.014,374.216 C98.111,374.216 24,294.309 24,200.608 C24,106.911 98.108,27 191.008,27 C197.738,27 197.738,33.376 197.738,33.376 L197.738,367.614 C197.738,367.614 197.738,374.216 191.014,374.216" id="Fill-256" fill="#EAFCBB"></path>
        <path d="M204.037,191.413 C204.037,195.038 207.004,198.004 210.625,198.004 L367.529,198.004 C367.529,198.004 374,198.004 374,191.669 C374,102.799 299.469,28.05 210.625,28.05 C204.037,28.05 204.037,34.515 204.037,34.515 L204.037,191.413" id="Fill-257" fill="#FFE1E1"></path>
        <path d="M210.633,203.202 C207.01,203.202 204.043,206.167 204.043,209.792 L204.043,366.694 C204.043,366.694 204.043,373.167 210.375,373.167 C299.248,373.167 373.996,298.634 373.996,209.792 C373.996,203.202 367.531,203.202 367.531,203.202 L210.633,203.202" id="Fill-258" fill="#FCF2C8"></path>
        <path d="M111.988,225.137 C115.914,221.522 118.543,221.198 118.543,221.198 C121.94,220.128 124.037,217.786 125.027,215.221 C125.027,215.221 125.891,212.327 129.488,209.012 C135.678,203.309 146.059,204.512 151.914,210.866 C164.996,225.065 163.108,240.94 152.086,251.096 C141.067,261.249 125.166,261.923 112.006,247.641 C106.152,241.29 105.799,230.841 111.988,225.137" id="Fill-259" fill="#B9CC00"></path>
        <path d="M133.781,206.368 C137.817,206.585 141.461,208.716 144.24,211.727 C157.32,225.923 155.432,241.801 144.41,251.958 C140.967,255.132 137.043,257.378 132.875,258.53 C139.863,258.87 146.584,256.165 152.086,251.096 C163.108,240.94 164.996,225.065 151.914,210.866 C147.268,205.821 139.77,204.04 133.781,206.368" id="Fill-260" fill="#8DA12A"></path>
        <path d="M118.086,228.384 C121.07,228.509 123.369,231.577 123.219,235.237 C123.07,238.899 120.526,241.772 117.541,241.649 C114.557,241.528 112.254,238.46 112.402,234.796 C112.555,231.134 115.096,228.264 118.086,228.384" id="Fill-261" fill="#DBE50E"></path>
        <path d="M125.666,208.124 C125.666,208.114 125.668,208.11 125.672,208.102 C125.93,201.813 121.508,198.221 121.508,198.221 C121.508,198.221 116.807,201.638 116.559,207.727 C116.553,207.735 116.553,207.745 116.555,207.753 C116.549,207.76 116.553,207.77 116.547,207.776 C116.305,213.721 120.715,217.655 120.715,217.655 C120.715,217.655 125.42,214.091 125.666,208.149 C125.668,208.139 125.666,208.134 125.666,208.124" id="Fill-262" fill="#92C100"></path>
        <path d="M125.666,208.124 C125.666,208.114 125.668,208.11 125.672,208.102 C125.93,201.813 121.508,198.221 121.508,198.221 L120.715,217.655 C120.715,217.655 125.42,214.091 125.666,208.149 C125.668,208.139 125.666,208.134 125.666,208.124" id="Fill-263" fill="#68A508"></path>
        <path d="M102.988,125.656 C89.412,122.718 80.785,109.332 83.723,95.753 C86.658,82.173 100.047,73.548 113.623,76.484 C127.203,79.421 135.828,92.808 132.891,106.388 C129.955,119.967 116.568,128.592 102.988,125.656" id="Fill-264" fill="#F09300"></path>
        <path d="M123.383,111.595 C121.315,111.148 120.309,107.678 121.141,103.845 C121.971,100.013 124.317,97.268 126.385,97.715 C128.451,98.163 129.453,101.632 128.625,105.464 C127.797,109.298 125.449,112.043 123.383,111.595" id="Fill-265" fill="#DD7300"></path>
        <path d="M121.754,93.724 C119.397,95.246 115.969,94.132 114.104,91.239 C112.242,88.345 112.641,84.766 115,83.245 C117.359,81.727 120.785,82.839 122.651,85.732 C124.514,88.624 124.113,92.204 121.754,93.724" id="Fill-266" fill="#F8B002"></path>
        <path d="M126.649,118.283 C121.711,120.749 115.934,121.618 110.117,120.361 C96.539,117.424 87.91,104.038 90.848,90.456 C91.85,85.827 94.067,81.775 97.092,78.562 C90.498,81.852 85.399,87.99 83.723,95.753 C80.785,109.332 89.412,122.718 102.988,125.656 C111.94,127.591 120.803,124.502 126.649,118.283" id="Fill-267" fill="#DD7300"></path>
        <path d="M126.539,117.439 C126.541,117.449 126.547,117.456 126.549,117.466 C130.637,123.81 137.453,124.282 137.453,124.282 C137.453,124.282 139.705,117.687 135.746,111.543 C135.746,111.529 135.74,111.523 135.733,111.515 C135.731,111.505 135.725,111.498 135.721,111.488 C131.858,105.491 124.817,104.672 124.817,104.672 C124.817,104.672 122.658,111.415 126.526,117.415 C126.526,117.426 126.529,117.43 126.539,117.439" id="Fill-268" fill="#92C100"></path>
        <path d="M126.539,117.439 C126.541,117.449 126.547,117.456 126.549,117.466 C130.637,123.81 137.453,124.282 137.453,124.282 L124.817,104.672 C124.817,104.672 122.658,111.415 126.526,117.415 C126.526,117.426 126.529,117.43 126.539,117.439" id="Fill-269" fill="#68A508"></path>
        <path d="M180.008,186.981 C180.07,188.876 178.588,190.467 176.692,190.53 L176.633,190.536 C174.738,190.599 173.147,189.116 173.08,187.219 L172.881,181.571 C172.817,179.675 174.301,178.085 176.199,178.015 L176.258,178.016 C178.152,177.946 179.742,179.436 179.809,181.329 L180.008,186.981" id="Fill-270" fill="#68A508"></path>
        <path d="M180.828,174.801 C180.834,174.808 180.834,174.817 180.834,174.823 C181.033,180.563 176.539,183.835 176.539,183.835 C176.539,183.835 171.828,180.704 171.633,175.142 C171.627,175.134 171.627,175.127 171.627,175.121 C171.627,175.113 171.629,175.106 171.627,175.097 C171.438,169.67 175.922,166.085 175.922,166.085 C175.922,166.085 180.635,169.349 180.824,174.78 C180.832,174.786 180.828,174.793 180.828,174.801" id="Fill-271" fill="#68A508"></path>
        <path d="M186.483,180.164 C186.479,180.17 186.475,180.176 186.469,180.186 C182.211,184.311 176.611,183.778 176.611,183.778 C176.611,183.778 175.77,178.642 179.893,174.641 C179.893,174.634 179.901,174.632 179.906,174.625 C179.914,174.621 179.918,174.612 179.924,174.608 C183.949,170.703 189.777,171.013 189.777,171.013 C189.777,171.013 190.522,176.241 186.496,180.147 C186.498,180.156 186.488,180.164 186.483,180.164" id="Fill-272" fill="#92C100"></path>
        <path d="M186.483,180.164 C186.479,180.17 186.475,180.176 186.469,180.186 C182.211,184.311 176.611,183.778 176.611,183.778 L189.777,171.013 C189.777,171.013 190.522,176.241 186.496,180.147 C186.498,180.156 186.488,180.164 186.483,180.164" id="Fill-273" fill="#68A508"></path>
        <path d="M172.32,174.897 C172.32,174.903 172.332,174.903 172.336,174.913 C176.869,178.733 176.24,183.801 176.24,183.801 C176.24,183.801 170.557,184.6 166.166,180.897 C166.156,180.897 166.152,180.889 166.145,180.884 C166.139,180.878 166.131,180.876 166.125,180.873 C161.838,177.259 162.221,171.982 162.221,171.982 C162.221,171.982 168.01,171.27 172.299,174.886 C172.309,174.886 172.309,174.89 172.32,174.897" id="Fill-274" fill="#68A508"></path>
        <path d="M172.32,174.897 C172.32,174.903 172.332,174.903 172.336,174.913 C176.869,178.733 176.24,183.801 176.24,183.801 L162.221,171.982 C162.221,171.982 168.01,171.27 172.299,174.886 C172.309,174.886 172.309,174.89 172.32,174.897" id="Fill-275" fill="#92C100"></path>
        <path d="M176.524,185.436 C176.51,185.439 176.498,185.436 176.483,185.439 C176.475,185.438 176.461,185.436 176.445,185.44 C165.215,185.85 164.35,194.777 164.805,197.319 L174.186,238.905 C174.676,241.563 175.701,243.294 178.455,243.237 L178.457,243.241 C178.475,243.239 178.483,243.235 178.498,243.235 C178.516,243.233 178.526,243.237 178.541,243.237 L178.537,243.231 C181.287,243.1 182.192,241.301 182.496,238.614 L188.961,196.475 C189.24,193.911 187.758,185.062 176.524,185.436" id="Fill-276" fill="#F09300"></path>
        <path d="M181.111,185.883 C184.117,188.733 184.619,192.849 184.449,194.5 L178.057,238.563 C177.852,240.454 177.334,242.669 176.236,242.706 C176.818,243.055 177.531,243.253 178.455,243.237 L178.457,243.241 C178.475,243.239 178.483,243.235 178.498,243.235 C178.516,243.233 178.526,243.237 178.541,243.237 L178.537,243.231 C181.287,243.1 182.192,241.301 182.496,238.614 L188.961,196.475 C189.199,194.311 188.176,187.68 181.111,185.883" id="Fill-277" fill="#DD6900"></path>
        <path d="M169.809,195.135 C169.076,195.159 168.467,194.589 168.443,193.86 L168.443,193.837 C168.42,193.108 168.986,192.5 169.717,192.47 L172.893,192.362 C173.619,192.335 174.231,192.907 174.254,193.634 L174.252,193.659 C174.279,194.384 173.711,194.999 172.984,195.024 L169.809,195.135" id="Fill-278" fill="#DD6900"></path>
        <path d="M180.387,202.573 C179.66,202.598 179.051,202.026 179.027,201.3 L179.026,201.274 C178.998,200.543 179.568,199.932 180.297,199.908 L183.473,199.798 C184.199,199.773 184.811,200.346 184.838,201.072 L184.838,201.093 C184.863,201.825 184.291,202.438 183.565,202.464 L180.387,202.573" id="Fill-279" fill="#DD6900"></path>
        <path d="M173.576,213.012 C172.85,213.038 172.236,212.469 172.207,211.737 L172.211,211.718 C172.184,210.987 172.754,210.376 173.484,210.352 L176.658,210.239 C177.387,210.214 177.994,210.784 178.024,211.514 L178.024,211.538 C178.049,212.264 177.477,212.878 176.75,212.901 L173.576,213.012" id="Fill-280" fill="#DD6900"></path>
        <path d="M178.049,225.708 C177.322,225.735 176.713,225.163 176.688,224.434 L176.688,224.411 C176.66,223.68 177.231,223.067 177.957,223.048 L181.133,222.936 C181.865,222.909 182.473,223.481 182.5,224.206 L182.5,224.233 C182.524,224.96 181.955,225.571 181.223,225.593 L178.049,225.708" id="Fill-281" fill="#DD6900"></path>
        <path d="M179.449,346.001 C177.348,346.719 175.067,345.598 174.348,343.499 L174.326,343.432 C173.608,341.333 174.727,339.051 176.828,338.335 L183.08,336.196 C185.18,335.477 187.463,336.598 188.182,338.698 L188.203,338.762 C188.922,340.864 187.801,343.147 185.701,343.862 L179.449,346.001" id="Fill-282" fill="#79A500"></path>
        <path d="M175.002,354.606 L175.67,354.21 C177.115,353.346 177.932,352.78 177.971,352.751 C180.674,350.854 182.229,347.628 182.024,344.346 C181.947,343.114 181.637,341.925 181.109,340.817 C179.416,337.3 175.809,335.182 171.916,335.426 C171.877,335.426 170.885,335.493 169.211,335.714 L168.445,335.821 C168.379,335.833 168.305,335.844 168.248,335.848 L168.203,335.846 C167.908,335.825 167.602,335.819 167.287,335.811 L166.996,335.807 C166.682,335.796 166.361,335.807 166.026,335.817 L165.742,335.825 C165.375,335.809 164.996,335.8 164.608,335.792 L164.1,335.784 C163.418,335.811 162.666,335.755 161.865,335.7 C161.506,335.669 161.139,335.643 160.711,335.624 C160.328,335.622 159.902,335.559 159.451,335.497 L159.078,335.446 C158.768,335.391 158.453,335.36 158.137,335.333 C157.818,335.301 157.516,335.276 157.229,335.21 C156.592,335.067 155.963,334.96 155.158,334.831 C154.947,334.807 154.711,334.749 154.342,334.635 L153.289,334.38 C152.551,334.233 151.811,333.991 151.024,333.735 C150.524,333.575 150.022,333.415 149.514,333.27 L146.647,332.143 C146.58,332.12 146.52,332.096 146.469,332.075 L144.836,331.29 L144.742,331.251 C144.526,331.167 144.356,331.104 144.119,330.956 C143.457,330.581 142.899,330.274 142.287,329.973 C142.041,329.858 141.787,329.69 141.516,329.512 C141.252,329.339 140.99,329.167 140.776,329.051 C140.623,328.958 140.469,328.866 140.315,328.774 C139.949,328.561 139.606,328.36 139.287,328.108 C138.973,327.885 138.656,327.671 138.348,327.456 C137.699,327.01 137.086,326.593 136.578,326.151 L135.293,325.176 L134.24,324.253 C134.033,324.079 133.832,323.913 133.637,323.753 C133.197,323.385 132.811,323.073 132.494,322.741 C131.5,321.794 130.828,321.26 130.799,321.241 L129.578,320.276 C127.133,318.366 123.908,317.8 120.963,318.764 C116.086,320.352 113.41,325.62 115,330.501 C115.016,330.546 115.373,331.635 116.137,333.468 C116.291,333.874 116.486,334.313 116.711,334.784 C117.008,335.407 117.371,336.091 117.805,336.85 C118.145,337.473 118.531,338.124 118.936,338.811 L120.408,340.905 C121.442,342.423 122.768,343.872 124.111,345.309 C124.664,345.946 125.289,346.495 125.893,347.028 C126.076,347.192 126.266,347.364 126.477,347.555 L126.992,348.009 C127.641,348.575 128.307,349.161 129.041,349.682 C129.938,350.339 130.869,350.977 131.781,351.6 C132.295,351.973 132.914,352.329 133.475,352.637 L136.861,354.426 C137.193,354.608 137.404,354.698 137.692,354.819 L140.256,355.885 L141.526,356.378 C142.01,356.516 142.488,356.663 142.973,356.807 C144.727,357.339 146.541,357.884 148.422,358.151 C150.695,358.626 152.975,358.768 155.299,358.885 C156.233,358.932 157.129,358.889 157.998,358.848 L159.375,358.778 C160.199,358.739 161.047,358.696 161.852,358.544 L162.324,358.471 C163.16,358.346 163.975,358.221 164.727,358.085 C165.457,357.975 166.123,357.792 166.766,357.614 C167.006,357.55 167.242,357.485 167.518,357.413 L169.891,356.729 L169.983,356.702 C170.799,356.397 171.572,356.112 172.287,355.819 L172.695,355.651 C173.262,355.423 173.791,355.204 174.231,355.003 C174.59,354.854 174.818,354.714 175.002,354.606" id="Fill-283" fill="#79A500"></path>
        <path d="M177.658,348.604 C177.658,348.604 176.867,349.159 175.44,350.01 C175.262,350.116 175.074,350.227 174.875,350.346 C174.676,350.46 174.496,350.581 174.172,350.716 C173.586,350.983 172.932,351.247 172.227,351.532 C171.529,351.819 170.77,352.098 169.971,352.399 C169.213,352.616 168.422,352.843 167.594,353.085 C166.756,353.294 165.889,353.579 164.965,353.718 C164.043,353.884 163.086,354.022 162.094,354.176 C161.108,354.362 160.08,354.374 159.029,354.44 C157.981,354.479 156.897,354.559 155.809,354.501 C153.617,354.397 151.34,354.264 149.082,353.786 C146.785,353.468 144.567,352.696 142.318,352.044 L142.289,352.036 L141.799,351.854 L141.754,351.835 L141.676,351.805 L141.518,351.737 L141.192,351.598 L140.547,351.335 L139.262,350.803 L138.625,350.536 C138.408,350.446 138.219,350.366 137.902,350.2 L136.197,349.313 C135.637,349.012 135.078,348.708 134.524,348.411 C133.969,348.1 133.426,347.786 132.984,347.466 C132.045,346.829 131.125,346.196 130.242,345.551 C129.35,344.919 128.557,344.176 127.762,343.489 C126.984,342.78 126.188,342.135 125.529,341.372 C124.16,339.911 122.897,338.524 121.916,337.089 C121.418,336.385 120.945,335.712 120.486,335.073 C120.088,334.391 119.713,333.749 119.377,333.139 C118.686,331.928 118.139,330.852 117.781,329.919 C117.02,328.075 116.67,327.012 116.67,327.012 C115.297,322.805 117.598,318.28 121.805,316.909 C124.432,316.051 127.188,316.628 129.219,318.212 L130.43,319.173 C130.43,319.173 131.072,319.678 132.039,320.593 C132.49,321.075 133.147,321.571 133.836,322.157 C134.174,322.452 134.531,322.764 134.91,323.098 C135.307,323.399 135.729,323.716 136.17,324.046 C136.983,324.753 137.983,325.37 138.965,326.077 C139.438,326.448 139.996,326.743 140.537,327.073 C141.094,327.374 141.58,327.792 142.18,328.063 C142.766,328.352 143.34,328.676 143.916,328.999 C144.221,329.188 144.477,329.286 144.731,329.38 L145.486,329.731 L146.236,330.104 C146.318,330.163 146.563,330.249 146.777,330.331 L147.424,330.583 L149.537,331.417 C150.865,331.78 152.152,332.309 153.481,332.565 L154.463,332.809 C154.785,332.913 155.113,332.993 155.442,333.032 C156.094,333.139 156.742,333.249 157.383,333.389 C158.024,333.536 158.662,333.526 159.289,333.635 C159.914,333.716 160.531,333.829 161.137,333.833 C162.344,333.899 163.51,334.034 164.586,333.991 C165.131,334.003 165.654,334.01 166.162,334.036 C166.596,334.028 167,334.009 167.402,334.016 C167.801,334.026 168.178,334.022 168.535,334.053 C168.69,334.083 168.949,334.034 169.172,334.003 C169.402,333.973 169.617,333.944 169.82,333.917 C171.469,333.696 172.434,333.635 172.434,333.635 C176.973,333.352 180.883,336.801 181.164,341.339 C181.352,344.307 179.928,347.016 177.658,348.604" id="Fill-284" fill="#97C130"></path>
        <path d="M148.455,348.165 C144.651,349.991 140.086,348.391 138.26,344.589 C136.434,340.78 138.035,336.219 141.84,334.391 C145.643,332.567 150.207,334.173 152.031,337.973 C153.858,341.778 152.254,346.343 148.455,348.165" id="Fill-285" fill="#70A300"></path>
        <path d="M152.723,342.204 C151.981,343.405 150.904,344.423 149.537,345.079 C145.731,346.903 141.168,345.298 139.348,341.501 C138.69,340.132 138.481,338.665 138.656,337.264 C137.334,339.403 137.09,342.151 138.26,344.589 C140.086,348.391 144.651,349.991 148.455,348.165 C150.887,346.997 152.414,344.702 152.723,342.204" id="Fill-286" fill="#5C8C00"></path>
        <path d="M147.484,340.8 C146.043,341.491 144.315,340.885 143.623,339.44 C142.934,338.001 143.539,336.274 144.979,335.581 C146.416,334.893 148.147,335.499 148.84,336.938 C149.531,338.382 148.924,340.11 147.484,340.8" id="Fill-287" fill="#84B422"></path>
        <path d="M131.973,336.446 C128.166,338.27 123.606,336.667 121.781,332.868 C119.953,329.063 121.555,324.501 125.361,322.673 C129.16,320.85 133.725,322.448 135.553,326.253 C137.377,330.057 135.772,334.62 131.973,336.446" id="Fill-288" fill="#70A300"></path>
        <path d="M136.24,330.487 C135.498,331.684 134.42,332.7 133.057,333.354 C129.25,335.182 124.688,333.579 122.863,329.776 C122.207,328.411 121.998,326.946 122.172,325.542 C120.852,327.686 120.611,330.43 121.781,332.868 C123.606,336.667 128.166,338.27 131.973,336.446 C134.404,335.276 135.934,332.983 136.24,330.487" id="Fill-289" fill="#5C8C00"></path>
        <path d="M131.002,329.079 C129.563,329.768 127.832,329.163 127.143,327.721 C126.449,326.282 127.057,324.555 128.498,323.862 C129.934,323.171 131.666,323.776 132.359,325.218 C133.049,326.659 132.44,328.385 131.002,329.079" id="Fill-290" fill="#84B422"></path>
        <path d="M168.971,350.286 C165.168,352.112 160.604,350.509 158.777,346.706 C156.951,342.903 158.557,338.341 162.359,336.512 C166.16,334.69 170.725,336.29 172.549,340.094 C174.373,343.897 172.772,348.458 168.971,350.286" id="Fill-291" fill="#70A300"></path>
        <path d="M173.242,344.323 C172.498,345.528 171.424,346.54 170.055,347.196 C166.254,349.022 161.686,347.421 159.861,343.618 C159.205,342.249 159,340.786 159.172,339.384 C157.85,341.528 157.608,344.268 158.777,346.706 C160.604,350.509 165.168,352.112 168.971,350.286 C171.404,349.114 172.932,346.823 173.242,344.323" id="Fill-292" fill="#5C8C00"></path>
        <path d="M168,342.921 C166.561,343.612 164.832,343.005 164.139,341.563 C163.449,340.12 164.055,338.393 165.494,337.702 C166.938,337.012 168.668,337.618 169.358,339.059 C170.051,340.497 169.445,342.227 168,342.921" id="Fill-293" fill="#84B422"></path>
        <path d="M95.84,204.684 C95.328,206.962 93.744,208.548 92.299,208.221 L90.947,207.921 C89.498,207.6 88.738,205.493 89.244,203.214 L93.752,183.011 C94.262,180.735 95.846,179.151 97.291,179.475 L98.649,179.775 C100.092,180.098 100.856,182.208 100.348,184.486 L95.84,204.684" id="Fill-294" fill="#79A500"></path>
        <path d="M79.393,214.686 C81.582,215.175 83.629,214.384 83.955,212.909 L84.262,211.53 C84.59,210.057 83.08,208.471 80.889,207.987 L61.455,203.649 C59.268,203.157 57.221,203.952 56.895,205.423 L56.584,206.803 C56.258,208.274 57.768,209.858 59.959,210.352 L79.393,214.686" id="Fill-295" fill="#79A500"></path>
        <path d="M100.182,210.434 C102.543,214.155 101.442,219.085 97.723,221.444 L94.233,223.665 C90.512,226.026 85.582,224.93 83.219,221.208 L71.172,202.241 C68.809,198.521 69.912,193.591 73.629,191.227 L77.123,189.01 C80.842,186.649 85.776,187.748 88.137,191.468 L100.182,210.434" id="Fill-296" fill="#97C130"></path>
        <path d="M77.358,188.874 C79.527,189.227 81.547,190.464 82.817,192.463 L94.863,211.428 C97.225,215.151 96.123,220.081 92.404,222.442 L88.912,224.659 C88.836,224.708 88.754,224.749 88.676,224.796 C90.539,225.102 92.514,224.755 94.233,223.665 L97.723,221.444 C101.442,219.085 102.543,214.155 100.182,210.434 L88.137,191.468 C85.82,187.823 81.049,186.701 77.358,188.874" id="Fill-297" fill="#79A500"></path>
        <path d="M86.315,169.437 C92.277,178.83 89.496,191.278 80.108,197.241 C70.715,203.208 58.272,200.428 52.305,191.036 C46.34,181.647 49.117,169.199 58.51,163.234 C67.899,157.271 80.35,160.049 86.315,169.437" id="Fill-298" fill="#5C8C00"></path>
        <path d="M63.315,185.533 C66.641,190.77 65.094,197.708 59.858,201.032 C54.621,204.358 47.684,202.813 44.358,197.573 C41.031,192.339 42.578,185.397 47.815,182.072 C53.049,178.747 59.99,180.297 63.315,185.533" id="Fill-299" fill="#5C8C00"></path>
        <path d="M69.776,195.707 C73.098,200.938 71.555,207.878 66.318,211.206 C61.082,214.532 54.141,212.979 50.817,207.749 C47.49,202.51 49.037,195.569 54.274,192.243 C59.51,188.917 66.447,190.468 69.776,195.707" id="Fill-300" fill="#5C8C00"></path>
        <path d="M56.969,197.766 C59.389,201.579 58.264,206.632 54.449,209.051 C50.633,211.473 45.584,210.346 43.162,206.536 C40.738,202.723 41.863,197.667 45.68,195.244 C49.492,192.825 54.545,193.954 56.969,197.766" id="Fill-301" fill="#5C8C00"></path>
        <path d="M76.645,177.065 C79.973,182.302 86.91,183.852 92.149,180.522 C97.383,177.198 98.934,170.26 95.608,165.025 C92.283,159.787 85.344,158.238 80.108,161.563 C74.867,164.889 73.32,171.83 76.645,177.065" id="Fill-302" fill="#5C8C00"></path>
        <path d="M83.108,187.237 C86.432,192.473 93.373,194.022 98.609,190.696 C103.844,187.37 105.393,180.429 102.07,175.196 C98.742,169.958 91.801,168.409 86.567,171.735 C81.33,175.062 79.779,182 83.108,187.237" id="Fill-303" fill="#5C8C00"></path>
        <path d="M90.418,176.524 C92.838,180.335 97.893,181.464 101.703,179.04 C105.518,176.619 106.649,171.567 104.225,167.753 C101.801,163.939 96.748,162.809 92.934,165.232 C89.123,167.655 87.994,172.706 90.418,176.524" id="Fill-304" fill="#5C8C00"></path>
        <path d="M88.668,173.146 C94.633,182.536 91.854,194.987 82.463,200.951 C73.072,206.917 60.625,204.137 54.66,194.747 C48.695,185.355 51.473,172.909 60.865,166.945 C70.254,160.981 82.703,163.757 88.668,173.146" id="Fill-305" fill="#5C8C00"></path>
        <path d="M77.078,173.498 C80.797,179.35 79.063,187.115 73.207,190.833 C67.352,194.551 59.594,192.819 55.875,186.964 C52.16,181.11 53.885,173.349 59.744,169.633 C65.6,165.912 73.359,167.644 77.078,173.498" id="Fill-306" fill="#70A300"></path>
        <path d="M61.873,187.796 C64.18,191.428 63.106,196.247 59.471,198.557 C55.836,200.868 51.016,199.792 48.705,196.157 C46.397,192.519 47.473,187.699 51.108,185.393 C54.744,183.082 59.563,184.159 61.873,187.796" id="Fill-307" fill="#70A300"></path>
        <path d="M66.356,194.856 C68.666,198.491 67.594,203.313 63.957,205.624 C60.322,207.932 55.5,206.856 53.192,203.219 C50.883,199.585 51.959,194.762 55.594,192.454 C59.231,190.145 64.047,191.221 66.356,194.856" id="Fill-308" fill="#70A300"></path>
        <path d="M57.465,196.288 C59.149,198.938 58.365,202.446 55.715,204.128 C53.068,205.811 49.559,205.026 47.875,202.378 C46.193,199.73 46.977,196.218 49.627,194.536 C52.272,192.854 55.781,193.639 57.465,196.288" id="Fill-309" fill="#70A300"></path>
        <path d="M81.174,174.878 C82.959,177.69 86.686,178.522 89.492,176.736 C92.307,174.95 93.137,171.226 91.352,168.415 C89.568,165.608 85.842,164.774 83.029,166.557 C80.219,168.343 79.391,172.071 81.174,174.878" id="Fill-310" fill="#70A300"></path>
        <path d="M82.777,182.583 C85.086,186.217 89.904,187.294 93.541,184.985 C97.18,182.673 98.254,177.856 95.945,174.219 C93.639,170.584 88.817,169.508 85.178,171.817 C81.543,174.128 80.469,178.946 82.777,182.583" id="Fill-311" fill="#70A300"></path>
        <path d="M87.858,175.142 C89.537,177.791 93.047,178.572 95.695,176.89 C98.342,175.21 99.123,171.7 97.443,169.053 C95.762,166.404 92.252,165.619 89.604,167.303 C86.955,168.984 86.174,172.493 87.858,175.142" id="Fill-312" fill="#70A300"></path>
        <path d="M63.891,180.221 C62.25,182.038 59.873,182.258 58.582,180.702 C57.295,179.148 57.582,176.412 59.221,174.593 C60.865,172.77 63.242,172.553 64.533,174.106 C65.82,175.663 65.535,178.401 63.891,180.221" id="Fill-313" fill="#84B422"></path>
        <path d="M55.346,187.917 C56.231,189.05 55.961,191.11 54.744,192.51 C53.527,193.919 51.82,194.137 50.936,193.006 C50.047,191.871 50.317,189.815 51.537,188.41 C52.752,187.007 54.461,186.784 55.346,187.917" id="Fill-314" fill="#84B422"></path>
        <path d="M59.059,139.501 C58.52,139.62 57.977,139.301 57.818,138.765 C56.166,133.082 60.274,117.623 71.672,110.428 C72.162,110.117 72.817,110.263 73.125,110.758 C73.436,111.249 73.291,111.902 72.797,112.212 C62.619,118.639 58.309,132.897 59.846,138.176 C60.008,138.737 59.688,139.321 59.127,139.485 C59.104,139.491 59.08,139.496 59.059,139.501" id="Fill-315" fill="#92C100"></path>
        <path d="M81.49,132.236 C81.365,132.275 81.231,132.293 81.088,132.283 C78.318,132.088 74.688,128.681 72.318,125.391 C69.119,120.948 67.791,116.428 68.676,112.99 C68.822,112.425 69.399,112.086 69.961,112.232 C70.527,112.379 70.867,112.955 70.723,113.518 C70.004,116.303 71.238,120.281 74.031,124.158 C76.746,127.928 79.77,130.075 81.238,130.177 C81.818,130.218 82.258,130.723 82.215,131.304 C82.186,131.745 81.887,132.107 81.49,132.236" id="Fill-316" fill="#92C100"></path>
        <path d="M61.977,120.451 C61.984,120.451 61.992,120.449 62,120.449 C68.531,119.005 71.022,113.488 71.022,113.488 C71.022,113.488 66.236,109.583 59.91,110.983 C59.901,110.977 59.893,110.982 59.885,110.984 C59.875,110.983 59.865,110.986 59.858,110.986 C53.684,112.349 50.836,117.948 50.836,117.948 C50.836,117.948 55.776,121.816 61.949,120.453 C61.957,120.457 61.967,120.455 61.977,120.451" id="Fill-317" fill="#92C100"></path>
        <path d="M61.977,120.451 C61.984,120.451 61.992,120.449 62,120.449 C68.531,119.005 71.022,113.488 71.022,113.488 L50.836,117.948 C50.836,117.948 55.776,121.816 61.949,120.453 C61.957,120.457 61.967,120.455 61.977,120.451" id="Fill-318" fill="#68A508"></path>
        <path d="M60.938,136.16 L55.092,137.451 C51.166,138.319 48.686,142.205 49.553,146.131 L49.867,147.559 C51.041,152.865 56.481,156.171 62.022,154.947 C67.563,153.724 71.104,148.433 69.932,143.127 L69.615,141.699 C68.748,137.772 64.861,135.293 60.938,136.16" id="Fill-319" fill="#E83636"></path>
        <path d="M64.361,136.233 C65.477,137.217 66.311,138.549 66.656,140.115 L66.973,141.546 C68.145,146.85 64.604,152.142 59.065,153.366 C57.096,153.801 55.141,153.66 53.385,153.066 C55.709,154.863 58.85,155.648 62.022,154.947 C67.563,153.724 71.104,148.433 69.932,143.127 L69.615,141.699 C69.006,138.943 66.91,136.908 64.361,136.233" id="Fill-320" fill="#BF132C"></path>
        <path d="M59.057,142.81 C59.488,144.754 58.26,146.681 56.315,147.11 C54.371,147.54 52.445,146.311 52.016,144.367 C51.586,142.422 52.815,140.496 54.76,140.067 C56.703,139.638 58.627,140.865 59.057,142.81" id="Fill-321" fill="#F68053"></path>
        <path d="M82.699,128.84 L76.854,130.13 C72.928,130.997 70.449,134.883 71.317,138.807 L71.633,140.237 C72.805,145.543 78.246,148.849 83.783,147.625 C89.324,146.402 92.865,141.111 91.693,135.805 L91.377,134.375 C90.51,130.45 86.625,127.97 82.699,128.84" id="Fill-322" fill="#E83636"></path>
        <path d="M86.123,128.911 C87.242,129.895 88.072,131.227 88.416,132.792 L88.733,134.223 C89.904,139.528 86.365,144.818 80.824,146.043 C78.858,146.478 76.904,146.339 75.149,145.744 C77.473,147.538 80.609,148.326 83.783,147.625 C89.324,146.402 92.865,141.111 91.693,135.805 L91.377,134.375 C90.768,131.621 88.674,129.585 86.123,128.911" id="Fill-323" fill="#BF132C"></path>
        <path d="M80.822,135.488 C81.25,137.433 80.022,139.358 78.076,139.787 C76.133,140.217 74.207,138.988 73.777,137.045 C73.348,135.1 74.576,133.174 76.52,132.744 C78.465,132.315 80.391,133.544 80.822,135.488" id="Fill-324" fill="#F68053"></path>
        <path d="M57.258,250.68 C57.258,250.694 57.258,250.704 57.258,250.714 C58.768,259.057 65.633,262.485 65.633,262.485 C65.633,262.485 70.811,256.612 69.352,248.532 C69.358,248.52 69.356,248.51 69.348,248.499 C69.352,248.489 69.352,248.475 69.348,248.464 C67.926,240.579 60.977,236.694 60.977,236.694 C60.977,236.694 55.834,242.759 57.256,250.647 C57.25,250.659 57.256,250.671 57.258,250.68" id="Fill-325" fill="#92C100"></path>
        <path d="M57.258,250.68 C57.258,250.694 57.258,250.704 57.258,250.714 C58.768,259.057 65.633,262.485 65.633,262.485 L60.977,236.694 C60.977,236.694 55.834,242.759 57.256,250.647 C57.25,250.659 57.256,250.671 57.258,250.68" id="Fill-326" fill="#68A508"></path>
        <path d="M69.526,248.1 C69.537,248.104 69.543,248.108 69.555,248.114 C77.635,250.678 83.871,246.21 83.871,246.21 C83.871,246.21 81.102,238.887 73.276,236.403 C73.266,236.391 73.256,236.389 73.246,236.389 C73.234,236.384 73.227,236.376 73.215,236.372 C65.576,233.948 58.893,238.278 58.893,238.278 C58.893,238.278 61.856,245.659 69.492,248.087 C69.502,248.096 69.514,248.096 69.526,248.1" id="Fill-327" fill="#92C100"></path>
        <path d="M69.526,248.1 C69.537,248.104 69.543,248.108 69.555,248.114 C77.635,250.678 83.871,246.21 83.871,246.21 L58.893,238.278 C58.893,238.278 61.856,245.659 69.492,248.087 C69.502,248.096 69.514,248.096 69.526,248.1" id="Fill-328" fill="#68A508"></path>
        <path d="M56.684,228.331 C57.641,233.647 54.109,238.735 48.797,239.694 C43.481,240.655 38.393,237.122 37.436,231.809 C36.473,226.493 40.004,221.403 45.32,220.446 C50.635,219.485 55.725,223.018 56.684,228.331" id="Fill-329" fill="#665DBA"></path>
        <path d="M50.779,221.036 C52.01,222.36 52.895,224.036 53.238,225.942 C54.199,231.259 50.666,236.344 45.354,237.303 C43.442,237.651 41.565,237.407 39.893,236.718 C42.086,239.077 45.391,240.309 48.797,239.694 C54.109,238.735 57.641,233.647 56.684,228.331 C56.07,224.93 53.756,222.266 50.779,221.036" id="Fill-330" fill="#453E9B"></path>
        <path d="M62.549,243.817 C63.51,249.134 59.979,254.219 54.662,255.178 C49.35,256.139 44.264,252.606 43.303,247.292 C42.342,241.977 45.873,236.889 51.188,235.928 C56.502,234.968 61.59,238.503 62.549,243.817" id="Fill-331" fill="#665DBA"></path>
        <path d="M56.649,236.52 C57.877,237.844 58.76,239.516 59.108,241.426 C60.065,246.743 56.535,251.827 51.221,252.786 C49.309,253.13 47.434,252.887 45.76,252.2 C47.955,254.559 51.26,255.794 54.662,255.178 C59.979,254.219 63.51,249.134 62.549,243.817 C61.936,240.413 59.623,237.747 56.649,236.52" id="Fill-332" fill="#453E9B"></path>
        <path d="M73.373,229.897 C74.334,235.212 70.803,240.298 65.49,241.257 C60.174,242.218 55.086,238.686 54.125,233.372 C53.168,228.053 56.699,222.969 62.014,222.009 C67.33,221.05 72.414,224.581 73.373,229.897" id="Fill-333" fill="#665DBA"></path>
        <path d="M67.473,222.596 C68.701,223.919 69.586,225.593 69.932,227.507 C70.891,232.821 67.359,237.907 62.045,238.866 C60.137,239.21 58.256,238.966 56.586,238.28 C58.779,240.635 62.086,241.87 65.49,241.257 C70.803,240.298 74.334,235.212 73.373,229.897 C72.758,226.489 70.451,223.827 67.473,222.596" id="Fill-334" fill="#453E9B"></path>
        <path d="M55.992,246.45 C55.117,247.712 53.551,248.141 52.5,247.413 C51.449,246.68 51.305,245.065 52.184,243.803 C53.061,242.542 54.621,242.11 55.674,242.839 C56.727,243.569 56.869,245.186 55.992,246.45" id="Fill-335" fill="#856FD0"></path>
        <path d="M66.826,232.581 C65.949,233.841 64.389,234.272 63.338,233.54 C62.283,232.813 62.141,231.196 63.02,229.936 C63.895,228.673 65.457,228.239 66.508,228.969 C67.561,229.7 67.701,231.319 66.826,232.581" id="Fill-336" fill="#856FD0"></path>
        <path d="M50.125,230.964 C49.248,232.227 47.686,232.657 46.635,231.926 C45.582,231.196 45.438,229.583 46.315,228.321 C47.192,227.057 48.756,226.626 49.805,227.356 C50.858,228.087 51,229.702 50.125,230.964" id="Fill-337" fill="#856FD0"></path>
        <path d="M46.658,229.792 C45.26,231.809 42.76,232.499 41.08,231.333 C39.399,230.163 39.17,227.585 40.572,225.569 C41.973,223.55 44.469,222.86 46.151,224.028 C47.832,225.194 48.059,227.772 46.658,229.792" id="Fill-338" fill="#453E9B"></path>
        <path d="M52.527,245.278 C51.127,247.292 48.629,247.981 46.951,246.815 C45.266,245.649 45.037,243.067 46.44,241.051 C47.84,239.032 50.338,238.346 52.018,239.512 C53.697,240.678 53.926,243.257 52.527,245.278" id="Fill-339" fill="#453E9B"></path>
        <path d="M63.352,231.358 C61.953,233.368 59.455,234.059 57.774,232.893 C56.092,231.727 55.863,229.147 57.268,227.13 C58.664,225.112 61.164,224.423 62.846,225.589 C64.526,226.755 64.752,229.339 63.352,231.358" id="Fill-340" fill="#453E9B"></path>
        <path d="M190.629,122.647 C190.719,120.959 190.488,119.31 189.725,117.89 C188.055,113.897 184.063,111.093 179.41,111.122 L157.813,111.256 C153.158,111.284 149.203,114.136 147.578,118.151 C144.252,126.389 151.106,134.668 155.033,141.26 C158.498,147.089 162.988,153.528 169.875,152.796 C176.272,152.176 179.893,145.837 182.844,140.658 C184.875,137.091 187.176,133.661 188.776,129.863 C189.651,127.791 190.5,125.174 190.629,122.647" id="Fill-341" fill="#E83636"></path>
        <path d="M189.725,117.89 C188.234,114.323 184.889,111.715 180.881,111.215 C181.604,112.066 182.201,113.026 182.637,114.069 C183.401,115.489 183.629,117.134 183.545,118.822 C183.416,121.352 182.561,123.968 181.688,126.043 C180.09,129.84 177.789,133.269 175.758,136.835 C172.805,142.014 169.186,148.352 162.787,148.974 C162.041,149.052 161.328,149.03 160.631,148.953 C163.164,151.497 166.17,153.189 169.875,152.796 C176.272,152.176 179.893,145.837 182.844,140.658 C184.875,137.091 187.176,133.661 188.776,129.863 C189.651,127.791 190.5,125.174 190.629,122.647 C190.719,120.959 190.488,119.31 189.725,117.89" id="Fill-342" fill="#BF132C"></path>
        <path d="M173.617,104.075 C173.617,104.069 173.621,104.064 173.621,104.056 C173.584,98.189 168.498,95.044 168.498,95.044 C168.498,95.044 163.457,98.432 163.492,104.117 C163.488,104.126 163.488,104.129 163.492,104.137 C163.488,104.147 163.488,104.154 163.488,104.161 C163.52,109.706 168.609,113.171 168.609,113.171 C168.609,113.171 173.649,109.645 173.611,104.1 C173.621,104.093 173.617,104.085 173.617,104.075" id="Fill-343" fill="#68A508"></path>
        <path d="M179.813,109.975 C179.824,109.969 179.832,109.965 179.838,109.96 C184.75,105.781 183.811,100.534 183.811,100.534 C183.811,100.534 177.399,99.947 172.641,103.992 C172.629,103.992 172.623,103.998 172.617,104.006 C172.609,104.009 172.604,104.016 172.598,104.02 C167.953,107.969 168.619,113.447 168.619,113.447 C168.619,113.447 175.149,113.936 179.795,109.988 C179.807,109.985 179.809,109.977 179.813,109.975" id="Fill-344" fill="#92C100"></path>
        <path d="M179.813,109.975 C179.824,109.969 179.832,109.965 179.838,109.96 C184.75,105.781 183.811,100.534 183.811,100.534 L168.619,113.447 C168.619,113.447 175.149,113.936 179.795,109.988 C179.807,109.985 179.809,109.977 179.813,109.975" id="Fill-345" fill="#68A508"></path>
        <path d="M157.34,110.082 C157.346,110.089 157.354,110.094 157.358,110.1 C162.322,114.218 168.578,113.417 168.578,113.417 C168.578,113.417 169.295,108.033 164.484,104.043 C164.481,104.035 164.473,104.033 164.465,104.026 C164.459,104.02 164.453,104.013 164.449,104.009 C159.754,100.117 153.229,100.69 153.229,100.69 C153.229,100.69 152.631,106.172 157.324,110.063 C157.326,110.072 157.332,110.077 157.34,110.082" id="Fill-346" fill="#92C100"></path>
        <path d="M157.34,110.082 C157.346,110.089 157.354,110.094 157.358,110.1 C162.322,114.218 168.578,113.417 168.578,113.417 L153.229,100.69 C153.229,100.69 152.631,106.172 157.324,110.063 C157.326,110.072 157.332,110.077 157.34,110.082" id="Fill-347" fill="#68A508"></path>
        <path d="M159.934,120.452 C160.283,122.209 159.137,123.916 157.381,124.261 C155.623,124.607 153.916,123.462 153.567,121.706 C153.225,119.946 154.365,118.239 156.123,117.893 C157.883,117.546 159.59,118.694 159.934,120.452" id="Fill-348" fill="#F68053"></path>
        <path d="M171.065,120.382 C171.412,122.141 170.266,123.848 168.508,124.191 C166.75,124.538 165.045,123.392 164.697,121.634 C164.352,119.879 165.494,118.173 167.25,117.822 C169.012,117.479 170.719,118.619 171.065,120.382" id="Fill-349" fill="#F68053"></path>
        <path d="M165.553,129.054 C165.902,130.812 164.756,132.518 162.996,132.865 C161.24,133.209 159.533,132.066 159.188,130.308 C158.84,128.549 159.986,126.843 161.742,126.497 C163.502,126.151 165.205,127.296 165.553,129.054" id="Fill-350" fill="#F68053"></path>
        <path d="M110.457,307.626 C111.197,310.659 109.336,313.723 106.299,314.466 L98.647,316.333 C95.609,317.075 92.551,315.21 91.809,312.178 L91.361,310.344 C90.621,307.307 92.479,304.245 95.516,303.503 L103.166,301.635 C106.203,300.895 109.268,302.753 110.01,305.792 L110.457,307.626" id="Fill-351" fill="#DBF288"></path>
        <path d="M103.26,301.62 C104.229,302.376 104.969,303.426 105.281,304.712 L105.731,306.55 C106.471,309.585 104.609,312.645 101.572,313.385 L93.922,315.255 C93.891,315.26 93.861,315.26 93.828,315.268 C95.147,316.301 96.895,316.759 98.647,316.333 L106.299,314.466 C109.336,313.723 111.197,310.659 110.457,307.626 L110.01,305.792 C109.276,302.784 106.268,300.94 103.26,301.62" id="Fill-352" fill="#C0DB6E"></path>
        <path d="M129,277.913 C131.947,289.979 124.551,302.151 112.481,305.098 C100.412,308.044 88.24,300.649 85.295,288.581 C82.348,276.514 89.742,264.339 101.811,261.393 C113.881,258.444 126.055,265.843 129,277.913" id="Fill-353" fill="#79A500"></path>
        <path d="M105.254,283.71 C108.197,295.776 100.809,307.946 88.74,310.891 C76.668,313.841 64.496,306.446 61.551,294.38 C58.606,282.309 65.998,270.137 78.07,267.188 C90.139,264.243 102.307,271.639 105.254,283.71" id="Fill-354" fill="#79A500"></path>
        <path d="M120.504,275.249 C124.053,289.788 115.147,304.446 100.608,307.995 C86.07,311.544 71.412,302.639 67.863,288.102 C64.315,273.565 73.219,258.903 87.756,255.356 C102.297,251.805 116.953,260.714 120.504,275.249" id="Fill-355" fill="#97C130"></path>
        <path d="M92.748,285.352 C92.447,284.116 96.959,283.014 97.26,284.251 L102.145,304.253 C102.445,305.489 101.688,306.735 100.459,307.036 L100.416,307.044 C99.182,307.346 97.934,306.591 97.633,305.358 L92.748,285.352" id="Fill-356" fill="#DBF288"></path>
        <path d="M111.535,283.743 L111.504,283.723 C110.662,283.214 109.567,283.483 109.055,284.321 L99.918,299.362 C100.33,300.975 100.756,302.587 101.195,304.188 L112.133,286.194 C112.643,285.352 112.375,284.255 111.535,283.743" id="Fill-357" fill="#DBF288"></path>
        <path d="M96.824,287.973 L104.869,274.735 C105.381,273.885 105.113,272.79 104.274,272.282 L104.248,272.264 C103.402,271.751 102.309,272.02 101.793,272.864 L94.914,284.184 L83.59,277.309 C82.746,276.796 81.647,277.063 81.139,277.909 L81.121,277.934 C80.609,278.77 80.879,279.87 81.723,280.385 L94.963,288.426 C95.209,288.913 95.438,289.415 95.635,289.932 L96.121,289.134 L96.926,289.616 C96.858,289.067 96.828,288.52 96.824,287.973" id="Fill-358" fill="#DBF288"></path>
        <path d="M79.975,291.421 L79.959,291.452 C79.449,292.292 79.719,293.387 80.559,293.903 L98.557,304.833 C98.207,303.208 97.842,301.581 97.465,299.96 L82.432,290.821 C81.588,290.313 80.488,290.581 79.975,291.421" id="Fill-359" fill="#DBF288"></path>
        <path d="M90.053,264.678 L90.02,264.686 C89.061,264.921 88.479,265.887 88.713,266.846 L92.883,283.938 C94.315,284.784 95.754,285.624 97.203,286.448 L92.209,265.993 C91.975,265.034 91.008,264.446 90.053,264.678" id="Fill-360" fill="#DBF288"></path>
        <path d="M95.904,302.186 C95.777,301.676 102.094,300.134 102.217,300.645 L103.742,306.887 C103.865,307.399 102.567,308.151 100.836,308.573 L100.781,308.587 C99.055,309.007 97.553,308.94 97.426,308.43 L95.904,302.186" id="Fill-361" fill="#DBF288"></path>
        <path d="M76.428,271.135 C77.854,272.001 79.871,271.284 80.938,269.534 C81.998,267.784 81.705,265.659 80.277,264.796 C78.85,263.926 76.83,264.645 75.768,266.395 C74.703,268.145 74.998,270.266 76.428,271.135" id="Fill-362" fill="#B4D35A"></path>
        <path d="M163.76,39.778 C160.742,41.451 157.477,40.777 157.449,40.769 L157.354,40.75 C152.711,40.079 146.725,41.306 142.1,43.873 C130.733,50.185 126.879,64.22 133.324,75.824 C139.766,87.426 153.717,91.575 165.082,85.266 C169.776,82.657 173.881,78.335 175.818,73.913 C175.83,73.88 177.057,70.694 180.014,69.05 C188.084,64.569 191.002,54.358 186.522,46.285 C182.039,38.214 171.83,35.295 163.76,39.778" id="Fill-363" fill="#8DA12A"></path>
        <path d="M175.391,70.092 C175.391,70.092 176.76,66.45 180.166,64.563 C187.629,60.418 190.317,51.007 186.174,43.544 C182.027,36.08 172.621,33.389 165.16,37.533 C161.641,39.487 157.947,38.659 157.947,38.659 C153.41,38.005 147.774,39.258 143.5,41.634 C132.926,47.503 128.94,60.517 135.225,71.833 C141.508,83.149 154.66,86.646 165.234,80.775 C169.508,78.404 173.551,74.283 175.391,70.092" id="Fill-364" fill="#B9CC00"></path>
        <path d="M151.234,72.867 C144.717,71.003 140.949,64.208 142.809,57.697 C144.676,51.18 151.469,47.407 157.983,49.274 C164.496,51.134 168.274,57.926 166.408,64.443 C164.545,70.957 157.75,74.732 151.234,72.867" id="Fill-365" fill="#8C6128"></path>
        <path d="M162.725,70.263 C160.547,70.914 158.172,70.986 155.836,70.316 C149.315,68.452 145.543,61.658 147.408,55.144 C148.076,52.8 149.397,50.821 151.096,49.318 C147.225,50.482 144.004,53.522 142.809,57.697 C140.949,64.208 144.717,71.003 151.234,72.867 C155.41,74.063 159.69,72.933 162.725,70.263" id="Fill-366" fill="#75481C"></path>
        <path d="M157.936,62.985 C155.461,62.278 154.033,59.704 154.74,57.238 C155.447,54.77 158.018,53.339 160.49,54.045 C162.955,54.75 164.383,57.324 163.676,59.794 C162.975,62.262 160.397,63.692 157.936,62.985" id="Fill-367" fill="#AA793F"></path>
        <path d="M172.234,272.665 L156.285,272.665 C145.578,272.665 136.899,281.344 136.899,292.053 L136.899,295.954 C136.899,310.421 149.149,322.151 164.26,322.151 C179.371,322.151 191.619,310.421 191.619,295.954 L191.619,292.053 C191.619,281.344 182.942,272.665 172.234,272.665" id="Fill-368" fill="#E83636"></path>
        <path d="M181.092,274.823 C183.436,278.024 184.836,281.964 184.836,286.237 L184.836,290.135 C184.836,304.606 172.584,316.335 157.475,316.335 C152.106,316.335 147.102,314.85 142.879,312.292 C147.895,318.3 155.604,322.151 164.26,322.151 C179.371,322.151 191.619,310.421 191.619,295.954 L191.619,292.053 C191.619,284.54 187.342,278.042 181.092,274.823" id="Fill-369" fill="#BF132C"></path>
        <path d="M156.699,281.284 C159.004,283.585 158.582,287.743 155.754,290.567 C152.93,293.393 148.774,293.817 146.469,291.51 C144.164,289.208 144.59,285.051 147.414,282.227 C150.242,279.403 154.397,278.979 156.699,281.284" id="Fill-370" fill="#F68053"></path>
        <path d="M167.279,273.833 C167.279,274.79 166.506,275.561 165.551,275.561 L162.967,275.561 C162.014,275.561 161.24,274.79 161.24,273.833 L161.24,262.536 C161.24,261.583 162.014,260.807 162.967,260.807 L165.551,260.807 C166.506,260.807 167.279,261.583 167.279,262.536 L167.279,273.833" id="Fill-371" fill="#68A508"></path>
        <path d="M156.842,266.481 C156.854,266.487 156.863,266.487 156.873,266.489 C163.76,269.52 164.26,275.561 164.26,275.561 C164.26,275.561 157.092,278.218 150.42,275.28 C150.41,275.28 150.402,275.278 150.393,275.274 C150.385,275.268 150.375,275.268 150.361,275.264 C143.854,272.397 142.975,266.186 142.975,266.186 C142.975,266.186 150.307,263.602 156.813,266.473 C156.828,266.468 156.834,266.477 156.842,266.481" id="Fill-372" fill="#68A508"></path>
        <path d="M156.842,266.481 C156.854,266.487 156.863,266.487 156.873,266.489 C163.76,269.52 164.26,275.561 164.26,275.561 L142.975,266.186 C142.975,266.186 150.307,263.602 156.813,266.473 C156.828,266.468 156.834,266.477 156.842,266.481" id="Fill-373" fill="#92C100"></path>
        <path d="M171.676,266.481 C171.666,266.487 171.656,266.487 171.645,266.489 C164.76,269.52 164.26,275.561 164.26,275.561 C164.26,275.561 171.426,278.218 178.094,275.28 C178.108,275.28 178.115,275.278 178.123,275.274 C178.137,275.268 178.143,275.268 178.152,275.264 C184.664,272.397 185.541,266.186 185.541,266.186 C185.541,266.186 178.213,263.602 171.705,266.473 C171.69,266.468 171.684,266.477 171.676,266.481" id="Fill-374" fill="#68A508"></path>
        <path d="M171.676,266.481 C171.666,266.487 171.656,266.487 171.645,266.489 C164.76,269.52 164.26,275.561 164.26,275.561 L185.541,266.186 C185.541,266.186 178.213,263.602 171.705,266.473 C171.69,266.468 171.684,266.477 171.676,266.481" id="Fill-375" fill="#92C100"></path>
        <path d="M274.672,54.015 L274.672,47.206 L267.455,47.206 C260.586,47.206 255.016,52.478 255.016,58.98 L255.016,72.6 C255.016,79.101 260.584,84.374 267.453,84.374 L274.668,84.374 L274.668,77.565 C274.668,71.258 269.43,66.126 262.846,65.819 L262.846,65.762 C269.43,65.455 274.672,60.323 274.672,54.015" id="Fill-376" fill="#6B6B6B"></path>
        <path d="M260.584,65.79 C260.584,79.821 248.32,91.195 225.736,91.195 L225.736,40.385 C248.32,40.385 260.584,51.76 260.584,65.79" id="Fill-377" fill="#8D8B8E"></path>
        <path d="M239.746,65.79 C239.746,78.697 233.652,89.161 226.135,89.161 C218.619,89.161 212.526,78.697 212.526,65.79 C212.526,52.88 218.619,42.418 226.135,42.418 C233.652,42.418 239.746,52.88 239.746,65.79" id="Fill-378" fill="#EA6060"></path>
        <path d="M226.135,44.306 C219.783,44.306 214.416,54.146 214.416,65.79 C214.416,77.436 219.783,87.271 226.135,87.271 C232.488,87.271 237.858,77.436 237.858,65.79 C237.858,54.146 232.488,44.306 226.135,44.306 Z M226.135,91.053 C217.445,91.053 210.637,79.954 210.637,65.79 C210.637,51.624 217.445,40.528 226.135,40.528 C234.828,40.528 241.637,51.624 241.637,65.79 C241.637,79.954 234.828,91.053 226.135,91.053 Z" id="Fill-379" fill="#B5B5B5"></path>
        <path d="M231.051,77.243 C231.051,82.677 228.85,87.081 226.135,87.081 C223.422,87.081 221.223,82.677 221.223,77.243 C221.223,71.812 223.422,67.405 226.135,67.405 C228.85,67.405 231.051,71.812 231.051,77.243" id="Fill-380" fill="#BF4554"></path>
        <path d="M229.539,58.232 C229.539,55.005 228.016,52.387 226.135,52.387 C224.256,52.387 222.733,55.005 222.733,58.232 C222.733,60.256 223.334,62.039 224.248,63.088 L224.248,67.405 C224.248,68.448 225.092,69.297 226.135,69.297 C227.184,69.297 228.026,68.448 228.026,67.405 L228.026,63.086 C228.936,62.039 229.539,60.256 229.539,58.232" id="Fill-381" fill="#FFEEEB"></path>
        <path d="M250.963,55.81 C249.643,57.132 247.26,56.89 245.643,55.271 C244.024,53.655 243.783,51.272 245.102,49.952 C246.422,48.633 248.803,48.876 250.422,50.493 C252.039,52.112 252.279,54.493 250.963,55.81" id="Fill-382" fill="#B5B5B5"></path>
        <path d="M285.814436,118.983 L281.998436,123.466 C280.010436,121.901 277.127436,122.174 275.471436,124.116 C273.777436,126.106 274.020436,129.094 276.006436,130.79 C277.184436,131.79 278.701436,132.111 280.102436,131.801 C280.018436,133.233 280.578436,134.682 281.752436,135.682 C283.744436,137.38 286.729436,137.139 288.426436,135.148 C290.080436,133.205 289.887436,130.318 288.031436,128.603 L291.848436,124.12 L285.814436,118.983" id="Fill-383" fill="#FFFFFF"></path>
        <path d="M291.845032,123.974 L289.505032,121.983 L285.626032,126.536 C287.104032,127.901 287.255032,130.196 285.938032,131.74 C284.595032,133.324 282.216032,133.515 280.634032,132.163 C279.700032,131.369 279.255032,130.216 279.321032,129.08 C278.208032,129.324 276.999032,129.07 276.063032,128.274 C275.102032,127.457 274.665032,126.259 274.765032,125.09 C273.915032,126.963 274.362032,129.242 276.003032,130.644 C277.181032,131.644 278.698032,131.965 280.099032,131.655 C280.015032,133.087 280.575032,134.536 281.749032,135.536 C283.741032,137.234 286.726032,136.993 288.423032,135.002 C290.077032,133.059 289.884032,130.172 288.028032,128.457 L291.845032,123.974" id="Fill-384" fill="#EAC6C5"></path>
        <path d="M314.035717,115.793233 C314.046717,115.790233 314.054717,115.786233 314.062717,115.785233 L314.058717,115.783233 C317.173717,114.494233 320.095717,112.422233 322.499717,109.598233 C329.831717,100.990233 328.452717,90.0122333 320.783717,83.4812333 C313.111717,76.9462333 302.052717,77.3342333 294.722717,85.9452333 C292.318717,88.7652333 290.736717,91.9802333 289.958717,95.2582333 L289.958717,95.2562333 C289.954717,95.2652333 289.954717,95.2752333 289.954717,95.2862333 C289.593717,96.8202333 289.410717,98.3672333 289.402717,99.8962333 C288.132717,109.858233 288.382717,109.730233 285.251717,113.740233 L283.884717,115.345233 C283.072717,116.301233 283.187717,117.732233 284.140717,118.547233 L291.997717,125.236233 C292.952717,126.047233 294.386717,125.934233 295.197717,124.979233 L296.564717,123.373233 C300.023717,119.643233 299.941717,119.913233 309.568717,117.072233 C311.076717,116.821233 312.576717,116.393233 314.035717,115.793233" id="Fill-385" fill="#F09300"></path>
        <path d="M320.953544,83.842 C320.128544,83.139 319.263544,82.524 318.371544,81.983 C323.988544,88.597 324.388544,98.167 317.843544,105.853 C315.443544,108.674 312.517544,110.748 309.408544,112.035 L309.408544,112.037 C309.400544,112.039 309.392544,112.042 309.380544,112.045 C307.923544,112.646 306.425544,113.074 304.914544,113.323 C295.285544,116.164 295.367544,115.897 291.912544,119.627 L290.540544,121.231 C289.730544,122.184 288.298544,122.298 287.343544,121.488 L292.167544,125.597 C293.122544,126.408 294.556544,126.295 295.367544,125.34 L296.734544,123.734 C300.193544,120.004 300.111544,120.274 309.738544,117.433 C311.246544,117.182 312.746544,116.754 314.205544,116.154 C314.216544,116.151 314.224544,116.147 314.232544,116.146 L314.228544,116.144 C317.343544,114.855 320.265544,112.783 322.669544,109.959 C330.001544,101.351 328.622544,90.373 320.953544,83.842" id="Fill-386" fill="#CE6E0F"></path>
        <path d="M304.710401,85.7725834 C306.345401,87.1615834 306.285401,89.9165834 304.580401,91.9195834 C302.874401,93.9265834 300.164401,94.4195834 298.531401,93.0305834 C296.898401,91.6365834 296.956401,88.8845834 298.660401,86.8815834 C300.371401,84.8775834 303.074401,84.3805834 304.710401,85.7725834" id="Fill-387" fill="#F7B000"></path>
        <path d="M304.710401,85.7725834 C306.345401,87.1615834 306.285401,89.9165834 304.580401,91.9195834 C302.874401,93.9265834 300.164401,94.4195834 298.531401,93.0305834 C296.898401,91.6365834 296.956401,88.8845834 298.660401,86.8815834 C300.371401,84.8775834 303.074401,84.3805834 304.710401,85.7725834" id="Fill-388" fill="#FFBC15"></path>
        <path d="M217.289,109.032 C223.193,101.85 232.721,99.06 241.561,101.925 C244.236,102.793 246.703,104.145 248.891,105.944 C252.422,108.846 254.957,112.7 256.209,117.085 C257.289,120.835 257.361,120.904 259.223,122.694 L259.51,122.973 C265.506,128.757 266.059,138.328 260.768,144.766 C259.358,146.479 257.641,147.863 255.717,148.848 C250.078,151.887 242.447,152.207 234.789,149.723 C234.789,149.723 234.789,149.723 234.787,149.722 C228.443,147.666 222.824,143.935 218.557,138.957 C210.674,130.022 210.151,117.716 217.289,109.032" id="Fill-389" fill="#EAC6C5"></path>
        <path d="M220.43,106.565 C227.467,98.008 240.102,96.773 248.662,103.806 C251.924,106.488 254.119,109.988 255.199,113.76 L255.201,113.759 C256.514,118.322 256.809,118.459 259.141,120.711 L259.137,120.712 C264.236,125.621 264.777,133.701 260.209,139.259 C258.977,140.756 257.496,141.923 255.875,142.751 C246.74,147.677 231.584,144.217 221.649,133.388 C214.51,126.168 213.846,114.578 220.43,106.565" id="Fill-390" fill="#D82E2E"></path>
        <path d="M239.858,122.532 C238.072,124.702 234.869,125.016 232.695,123.231 C230.524,121.445 230.213,118.24 231.996,116.072 C233.779,113.9 236.988,113.587 239.156,115.369 C241.328,117.155 241.641,120.36 239.858,122.532" id="Fill-391" fill="#FFFFFF"></path>
        <path d="M222.281,108.085 C216.67,114.913 217.147,124.664 223.465,131.83 C227.178,136.163 232.049,139.396 237.555,141.181 C243.889,143.232 250.311,143.031 254.783,140.621 C256.164,139.914 257.369,138.943 258.356,137.738 C262.076,133.217 261.688,126.494 257.481,122.434 L257.193,122.158 C254.731,119.789 254.236,119.069 252.899,114.42 C251.91,110.973 249.92,107.941 247.141,105.655 C245.418,104.239 243.479,103.176 241.379,102.496 C234.42,100.24 226.924,102.436 222.281,108.085 Z M219.85,134.971 C211.967,126.035 211.445,113.728 218.582,105.046 C224.484,97.864 234.012,95.073 242.854,97.939 C245.527,98.805 247.996,100.158 250.182,101.956 C253.713,104.86 256.246,108.714 257.5,113.097 C258.582,116.848 258.652,116.917 260.514,118.708 L260.805,118.985 C266.799,124.768 267.35,134.343 262.061,140.78 C260.647,142.494 258.936,143.877 257.012,144.861 C251.369,147.9 243.742,148.219 236.08,145.737 C236.08,145.737 236.08,145.737 236.078,145.735 C229.733,143.677 224.115,139.948 219.85,134.971 Z" id="Fill-392" fill="#FFFFFF"></path>
        <path d="M241.152,106.97 C239.699,108.353 239.893,110.922 241.59,112.705 C243.285,114.49 245.84,114.814 247.297,113.431 C248.75,112.049 248.557,109.481 246.859,107.698 C245.162,105.912 242.606,105.587 241.152,106.97" id="Fill-393" fill="#EA6060"></path>
        <path d="M276.783,153.803 L276.783,160.496 C278.848,160.921 280.52,162.936 280.52,165 C280.52,167.063 278.848,168.395 276.783,167.971 L276.783,179.925 C276.783,181.987 278.459,184.003 280.52,184.425 L315.678,191.616 C317.742,192.039 319.416,190.706 319.416,188.644 L319.416,160.032 L276.783,153.803" id="Fill-394" fill="#F7B000"></path>
        <path d="M304.74,174.876 C304.74,177.317 306.719,179.698 309.158,180.194 C311.596,180.695 313.57,179.122 313.57,176.682 C313.57,174.246 311.596,171.866 309.158,171.365 C306.719,170.866 304.74,172.44 304.74,174.876" id="Fill-395" fill="#E28C10"></path>
        <path d="M293.326,165.508 C293.326,167.272 294.758,168.997 296.522,169.356 C298.285,169.717 299.715,168.579 299.715,166.815 C299.715,165.051 298.285,163.328 296.522,162.966 C294.758,162.608 293.326,163.744 293.326,165.508" id="Fill-396" fill="#E28C10"></path>
        <path d="M281.887,174.78 C281.887,177.482 284.076,180.118 286.777,180.672 C289.481,181.223 291.668,179.481 291.668,176.78 C291.668,174.078 289.481,171.445 286.777,170.891 C284.076,170.339 281.887,172.079 281.887,174.78" id="Fill-397" fill="#E28C10"></path>
        <path d="M315.678,143.139 L279.35,150.616 C277.895,150.863 276.783,152.12 276.783,153.648 C276.783,155.176 277.901,156.437 279.359,156.68 L315.678,164.157 C317.742,164.579 319.416,163.247 319.416,161.184 L319.416,146.112 C319.416,144.048 317.742,142.716 315.678,143.139" id="Fill-398" fill="#FFE000"></path>
        <path d="M314.242,155.46 C314.242,157.063 312.115,158.362 309.49,158.362 C306.869,158.362 304.74,157.063 304.74,155.46 C304.74,153.857 306.869,152.558 309.49,152.558 C312.115,152.558 314.242,153.857 314.242,155.46" id="Fill-399" fill="#F7B000"></path>
        <path d="M298.746,152.033 C298.746,153.085 297.354,153.937 295.633,153.937 C293.912,153.937 292.518,153.085 292.518,152.033 C292.518,150.983 293.912,150.132 295.633,150.132 C297.354,150.132 298.746,150.983 298.746,152.033" id="Fill-400" fill="#F7B000"></path>
        <path d="M255.17,168.616 L250.32,175.11 L251.475,175.971 C255.02,178.618 260.166,177.726 262.961,173.981 L267.811,167.484 L266.658,166.624 C263.111,163.976 257.973,164.866 255.17,168.616" id="Fill-403" fill="#C14450"></path>
        <path d="M253.815,157.036 L252.662,156.177 L247.813,162.673 C245.014,166.42 245.623,171.605 249.17,174.251 L250.32,175.113 L255.17,168.616 C257.973,164.866 257.361,159.683 253.815,157.036" id="Fill-404" fill="#EA6060"></path>
        <path d="M239.568,187.247 C238.115,187.309 236.621,187.192 235.151,186.921 C234.42,186.763 233.69,186.575 232.973,186.362 C232.274,186.106 231.555,185.878 230.883,185.565 C229.524,184.961 228.25,184.21 227.117,183.348 C226.83,183.133 226.551,182.917 226.272,182.702 C226,182.481 225.746,182.24 225.49,182.01 C225.236,181.779 224.99,181.542 224.75,181.305 C224.524,181.053 224.297,180.807 224.078,180.56 C223.863,180.311 223.649,180.063 223.44,179.823 C223.24,179.571 223.057,179.313 222.871,179.061 C222.504,178.555 222.152,178.066 221.877,177.552 C221.596,177.048 221.303,176.569 221.082,176.087 C220.863,175.606 220.656,175.146 220.475,174.709 C220.43,174.598 220.385,174.502 220.344,174.378 C220.299,174.25 220.256,174.122 220.217,173.995 C220.135,173.744 220.059,173.503 219.983,173.268 C219.848,172.804 219.719,172.35 219.625,171.985 C219.467,171.179 219.377,170.72 219.377,170.72 C219.363,170.649 219.359,170.579 219.346,170.509 C219.334,170.44 219.317,170.374 219.307,170.306 L218.295,163.347 C217.639,158.802 220.785,154.587 225.328,153.928 C229.871,153.268 234.086,156.416 234.748,160.958 L235.725,167.707 C235.768,167.915 235.838,168.277 235.936,168.767 C235.957,168.795 235.967,168.774 235.969,168.787 C235.973,168.787 235.969,168.79 235.963,168.795 L235.955,168.803 C235.955,168.81 235.973,168.843 235.981,168.863 C236.018,168.954 236.047,169.055 236.074,169.165 C236.1,169.275 236.172,169.371 236.207,169.488 C236.244,169.61 236.317,169.718 236.371,169.841 C236.401,169.906 236.428,169.968 236.457,170.034 C236.5,170.092 236.539,170.152 236.578,170.212 L236.692,170.412 C236.74,170.47 236.791,170.528 236.832,170.595 C236.881,170.655 236.918,170.733 236.967,170.797 C237.024,170.856 237.082,170.918 237.135,170.984 C237.346,171.254 237.623,171.469 237.899,171.717 C238.037,171.85 238.207,171.922 238.356,172.052 L238.858,172.334 C239.209,172.488 239.574,172.671 239.969,172.76 C240.168,172.802 240.367,172.88 240.574,172.883 L240.885,172.926 L240.922,172.934 L240.945,172.937 L240.953,172.939 L240.957,172.94 C240.264,173.06 240.772,172.974 240.619,172.999 L240.783,172.988 L241.119,172.962 C241.336,172.946 241.559,172.929 241.774,172.913 L241.922,172.903 L241.953,172.906 L242.018,172.916 C242.065,172.924 242.109,172.936 242.164,172.962 L242.205,172.979 L242.279,172.969 L242.428,172.955 C242.836,172.937 243.225,172.877 243.611,172.815 C243.795,172.77 243.977,172.723 244.168,172.699 C244.346,172.646 244.516,172.596 244.674,172.548 C245.016,172.463 245.281,172.327 245.547,172.252 C245.791,172.153 245.983,172.06 246.129,172.007 C246.274,171.952 246.352,171.923 246.352,171.923 L248.188,171.229 C249.377,170.784 250.736,170.799 251.977,171.379 C254.426,172.524 255.479,175.436 254.332,177.884 C254.332,177.884 254.262,178.032 254.131,178.315 C253.992,178.601 253.787,179.016 253.49,179.532 C253.336,179.785 253.147,180.055 252.943,180.351 C252.733,180.647 252.518,180.979 252.233,181.289 C251.949,181.604 251.649,181.94 251.334,182.294 C250.994,182.626 250.613,182.956 250.217,183.305 C249.401,183.972 248.453,184.657 247.358,185.219 L246.945,185.436 L246.734,185.548 L246.483,185.654 C246.137,185.799 245.789,185.932 245.426,186.068 C245.1,186.178 244.77,186.297 244.438,186.413 C244.231,186.48 244.022,186.55 243.813,186.616 L243.494,186.721 L243.332,186.774 L242.736,186.876 C242.393,186.934 242.049,186.99 241.705,187.046 C241.01,187.173 240.293,187.205 239.568,187.247" id="Fill-405" fill="#FFB8B8"></path>
        <path d="M219.377,170.72 C219.363,170.649 219.359,170.579 219.346,170.509 C219.334,170.44 219.317,170.374 219.307,170.306 L219.106,168.915 C219.195,168.885 219.287,168.86 219.381,168.847 L235.549,166.501 L235.725,167.707 C235.768,167.915 235.838,168.277 235.936,168.767 C235.957,168.795 235.967,168.774 235.969,168.787 C235.973,168.787 235.969,168.79 235.963,168.795 L235.955,168.803 C235.955,168.81 235.973,168.843 235.981,168.863 C236.018,168.954 236.047,169.055 236.074,169.165 C236.1,169.275 236.172,169.371 236.207,169.488 C236.223,169.535 236.242,169.58 236.264,169.624 L219.842,172.009 C219.77,172.02 219.705,172.017 219.635,172.019 C219.629,172.008 219.629,171.995 219.625,171.985 C219.467,171.179 219.377,170.72 219.377,170.72" id="Fill-406" fill="#E88989"></path>
        <path d="M227.695,183.762 L237.192,171.042 C237.397,171.283 237.647,171.488 237.899,171.717 C238.037,171.85 238.207,171.922 238.356,172.052 L238.858,172.334 C239.188,172.48 239.535,172.647 239.91,172.74 L230.483,185.372 C229.494,184.907 228.561,184.366 227.695,183.762" id="Fill-407" fill="#E88989"></path>
        <path d="M240.977,172.973 L241.119,172.962 C241.336,172.946 241.559,172.929 241.774,172.913 L241.922,172.903 L241.953,172.906 L242.018,172.916 C242.065,172.924 242.109,172.936 242.164,172.962 L242.205,172.979 L242.279,172.969 L242.428,172.955 C242.836,172.937 243.225,172.877 243.611,172.815 C243.797,172.771 243.977,172.723 244.166,172.7 L246.07,185.815 C245.856,185.9 245.645,185.985 245.426,186.068 C245.1,186.178 244.77,186.297 244.438,186.413 C244.231,186.48 244.022,186.55 243.813,186.616 L243.494,186.721 L243.332,186.774 L242.986,186.833 L240.977,172.973" id="Fill-408" fill="#E88989"></path>
        <path d="M239.568,187.247 C238.115,187.309 236.621,187.192 235.151,186.921 C234.42,186.763 233.69,186.575 232.973,186.362 C232.274,186.106 231.555,185.878 230.883,185.565 C229.524,184.961 228.25,184.21 227.117,183.348 C226.83,183.133 226.551,182.917 226.272,182.702 C226,182.481 225.746,182.24 225.49,182.01 C225.236,181.779 224.99,181.542 224.75,181.305 C224.524,181.053 224.297,180.807 224.078,180.56 C223.863,180.311 223.649,180.063 223.44,179.823 C223.24,179.571 223.057,179.313 222.871,179.061 C222.504,178.555 222.152,178.066 221.877,177.552 C221.596,177.048 221.303,176.569 221.082,176.087 C220.863,175.606 220.656,175.146 220.475,174.709 C220.436,174.615 220.397,174.531 220.363,174.432 C220.58,174.77 220.811,175.108 221.059,175.447 C221.24,175.698 221.424,175.958 221.625,176.21 C221.832,176.452 222.047,176.699 222.26,176.948 C222.483,177.195 222.705,177.442 222.932,177.694 C223.174,177.93 223.42,178.165 223.674,178.399 C223.932,178.628 224.186,178.87 224.455,179.091 C224.733,179.307 225.016,179.521 225.299,179.737 C226.434,180.6 227.709,181.346 229.067,181.952 C229.734,182.266 230.453,182.495 231.156,182.749 C231.877,182.962 232.604,183.152 233.33,183.307 C234.809,183.579 236.301,183.696 237.752,183.634 C238.477,183.591 239.195,183.563 239.887,183.436 C240.231,183.378 240.578,183.322 240.92,183.262 L241.518,183.159 L241.678,183.107 L241.994,183.004 C242.205,182.937 242.412,182.87 242.619,182.801 C242.955,182.684 243.283,182.565 243.611,182.454 C243.971,182.32 244.326,182.185 244.664,182.043 L244.918,181.934 L245.129,181.825 L245.543,181.605 C246.637,181.046 247.586,180.36 248.402,179.692 C248.801,179.343 249.178,179.013 249.518,178.681 C249.834,178.328 250.135,177.991 250.41,177.676 C250.703,177.368 250.918,177.036 251.123,176.741 C251.33,176.442 251.52,176.175 251.674,175.921 C251.973,175.404 252.178,174.987 252.315,174.706 C252.447,174.418 252.518,174.268 252.518,174.268 C252.861,173.538 253.002,172.762 252.973,172.005 C254.686,173.387 255.307,175.801 254.332,177.884 C254.332,177.884 254.262,178.032 254.131,178.315 C253.992,178.601 253.787,179.016 253.49,179.532 C253.336,179.785 253.147,180.055 252.943,180.351 C252.733,180.647 252.518,180.979 252.233,181.289 C251.949,181.604 251.649,181.94 251.334,182.294 C250.994,182.626 250.613,182.956 250.217,183.305 C249.401,183.972 248.453,184.657 247.358,185.219 L246.945,185.436 L246.734,185.548 L246.483,185.654 C246.137,185.799 245.789,185.932 245.426,186.068 C245.1,186.178 244.77,186.297 244.438,186.413 C244.231,186.48 244.022,186.55 243.813,186.616 L243.494,186.721 L243.332,186.774 L242.736,186.876 C242.393,186.934 242.049,186.99 241.705,187.046 C241.01,187.173 240.293,187.205 239.568,187.247" id="Fill-409" fill="#E88D8E"></path>
        <path d="M227.695,183.762 L229.053,181.946 C229.057,181.946 229.059,181.948 229.067,181.952 C229.734,182.266 230.453,182.495 231.156,182.749 C231.51,182.854 231.865,182.952 232.221,183.043 L230.483,185.372 C229.494,184.907 228.561,184.366 227.695,183.762" id="Fill-410" fill="#CE6363"></path>
        <path d="M242.41,182.868 C242.481,182.846 242.553,182.825 242.619,182.801 C242.955,182.684 243.283,182.565 243.611,182.454 C243.971,182.32 244.326,182.185 244.664,182.043 L244.918,181.934 L245.129,181.825 L245.463,181.647 L246.07,185.815 C245.856,185.9 245.645,185.985 245.426,186.068 C245.1,186.178 244.77,186.297 244.438,186.413 C244.231,186.48 244.022,186.55 243.813,186.616 L243.494,186.721 L243.332,186.774 L242.986,186.833 L242.41,182.868" id="Fill-411" fill="#CE6363"></path>
        <path d="M221.627,163.184 C222.889,164.131 224.854,163.637 226.01,162.087 C227.17,160.536 227.084,158.514 225.817,157.571 C224.553,156.626 222.59,157.118 221.432,158.67 C220.276,160.218 220.361,162.24 221.627,163.184" id="Fill-412" fill="#FFE1E1"></path>
        <path d="M224.404,177.132 C225.287,177.79 226.66,177.448 227.469,176.361 C228.281,175.276 228.219,173.86 227.336,173.199 C226.447,172.538 225.076,172.884 224.266,173.967 C223.457,175.054 223.516,176.471 224.404,177.132" id="Fill-413" fill="#FFE1E1"></path>
        <path d="M272.776,219.678 C272.776,215.969 269.77,212.96 266.061,212.96 L236.305,212.96 C232.592,212.96 229.588,215.969 229.588,219.678 C229.588,222.751 231.649,225.331 234.461,226.132 L234.461,256.175 C234.461,258.497 236.344,260.378 238.662,260.378 L263.697,260.378 C266.018,260.378 267.901,258.497 267.901,256.175 L267.901,226.132 C270.713,225.331 272.776,222.747 272.776,219.678" id="Fill-414" fill="#D8935B"></path>
        <path d="M234.461,226.132 L234.461,256.175 C234.461,258.497 236.344,260.378 238.662,260.378 L263.697,260.378 C266.018,260.378 267.901,258.497 267.901,256.175 L267.901,226.132 L234.461,226.132" id="Fill-415" fill="#EFAC54"></path>
        <path d="M258.026,219.678 C258.026,215.969 255.02,212.96 251.313,212.96 L221.553,212.96 C217.846,212.96 214.836,215.969 214.836,219.678 C214.836,222.751 216.901,225.331 219.711,226.132 L219.711,256.175 C219.711,258.497 221.594,260.378 223.916,260.378 L248.951,260.378 C251.27,260.378 253.152,258.497 253.152,256.175 L253.152,226.132 C255.965,225.331 258.026,222.747 258.026,219.678" id="Fill-416" fill="#FFD066"></path>
        <path d="M251.313,212.96 L221.553,212.96 C217.846,212.96 214.836,215.969 214.836,219.678 C214.836,222.751 216.901,225.331 219.711,226.132 L219.711,256.175 C219.711,258.497 221.594,260.378 223.916,260.378 L248.951,260.378 C251.27,260.378 253.152,258.497 253.152,256.175 L253.152,226.132 C255.965,225.331 258.026,222.747 258.026,219.678 C258.026,215.969 255.02,212.96 251.313,212.96 Z M251.313,215.76 C253.473,215.76 255.225,217.516 255.225,219.678 C255.225,221.415 254.059,222.962 252.385,223.436 C252.385,223.436 251.93,223.567 251.365,223.727 C250.805,223.885 250.352,224.491 250.352,225.071 L250.352,256.175 C250.352,256.946 249.723,257.575 248.951,257.575 L223.916,257.575 C223.143,257.575 222.516,256.946 222.516,256.175 L222.516,226.132 C222.516,226.132 222.516,225.659 222.516,225.071 C222.516,224.491 222.057,223.885 221.498,223.727 L220.483,223.436 C218.809,222.962 217.637,221.415 217.637,219.678 C217.637,217.516 219.395,215.76 221.553,215.76 L251.313,215.76 Z" id="Fill-417" fill="#E5A367"></path>
        <path d="M250.352,226.132 L250.352,256.175 C250.352,256.946 249.723,257.575 248.951,257.575 L223.916,257.575 C223.143,257.575 222.516,256.946 222.516,256.175 L222.516,226.132 L219.711,226.132 L219.711,256.175 C219.711,258.497 221.594,260.378 223.916,260.378 L248.951,260.378 C251.27,260.378 253.152,258.497 253.152,256.175 L253.152,226.132 L250.352,226.132" id="Fill-418" fill="#F7BD57"></path>
        <path d="M333.93,254.887 C333.93,254.887 327.184,257.456 318.863,257.456 C310.539,257.456 303.793,254.887 303.793,254.887 C303.793,246.563 310.539,239.815 318.863,239.815 C327.184,239.815 333.93,246.563 333.93,254.887" id="Fill-419" fill="#FFD066"></path>
        <path d="M329.965,253.788 L327.588,253.788 C327.588,248.973 323.672,245.061 318.863,245.061 C314.053,245.061 310.141,248.973 310.141,253.788 L307.76,253.788 C307.76,247.663 312.74,242.684 318.863,242.684 C324.984,242.684 329.965,247.663 329.965,253.788" id="Fill-420" fill="#E5AC5A"></path>
        <path d="M324.016,252.55 L321.639,252.55 C321.639,251.018 320.393,249.772 318.863,249.772 C317.334,249.772 316.086,251.018 316.086,252.55 L313.707,252.55 C313.707,249.706 316.02,247.393 318.863,247.393 C321.703,247.393 324.016,249.706 324.016,252.55" id="Fill-421" fill="#E5AC5A"></path>
        <path d="M349.725,268.395 C349.725,268.395 340.879,271.768 329.965,271.768 C319.051,271.768 310.205,268.395 310.205,268.395 C310.205,257.485 319.051,248.635 329.965,248.635 C340.879,248.635 349.725,257.485 349.725,268.395" id="Fill-422" fill="#FFD066"></path>
        <path d="M347.014,268.395 L344.637,268.395 C344.637,260.307 338.055,253.727 329.965,253.727 C321.873,253.727 315.295,260.307 315.295,268.395 L312.912,268.395 C312.912,258.997 320.563,251.346 329.965,251.346 C339.367,251.346 347.014,258.997 347.014,268.395" id="Fill-423" fill="#E5AC5A"></path>
        <path d="M342.256,268.395 L339.877,268.395 C339.877,262.928 335.43,258.483 329.965,258.483 C324.498,258.483 320.051,262.928 320.051,268.395 L317.672,268.395 C317.672,261.618 323.188,256.104 329.965,256.104 C336.742,256.104 342.256,261.618 342.256,268.395" id="Fill-424" fill="#E5AC5A"></path>
        <path d="M337.5,268.395 L335.119,268.395 C335.119,265.555 332.807,263.243 329.965,263.243 C327.121,263.243 324.809,265.555 324.809,268.395 L322.43,268.395 C322.43,264.243 325.809,260.864 329.965,260.864 C334.119,260.864 337.5,264.243 337.5,268.395" id="Fill-425" fill="#E5AC5A"></path>
        <path d="M324.412,266.018 C324.412,266.018 315.567,269.387 304.652,269.387 C293.738,269.387 284.893,266.018 284.893,266.018 C284.893,255.104 293.738,246.259 304.652,246.259 C315.567,246.259 324.412,255.104 324.412,266.018" id="Fill-426" fill="#FFD066"></path>
        <path d="M321.703,266.018 L319.322,266.018 C319.322,257.928 312.742,251.346 304.652,251.346 C296.561,251.346 289.977,257.928 289.977,266.018 L287.6,266.018 C287.6,256.618 295.25,248.966 304.652,248.966 C314.055,248.966 321.703,256.618 321.703,266.018" id="Fill-427" fill="#E5AC5A"></path>
        <path d="M316.945,266.018 L314.565,266.018 C314.565,260.551 310.119,256.104 304.652,256.104 C299.188,256.104 294.738,260.551 294.738,266.018 L292.359,266.018 C292.359,259.241 297.875,253.727 304.652,253.727 C311.43,253.727 316.945,259.241 316.945,266.018" id="Fill-428" fill="#E5AC5A"></path>
        <path d="M312.188,266.018 L309.807,266.018 C309.807,263.178 307.492,260.864 304.652,260.864 C301.809,260.864 299.498,263.178 299.498,266.018 L297.115,266.018 C297.115,261.862 300.498,258.483 304.652,258.483 C308.809,258.483 312.188,261.862 312.188,266.018" id="Fill-429" fill="#E5AC5A"></path>
        <path d="M333.928,273.593 C333.928,275.175 332.647,276.456 331.065,276.456 L303.783,276.456 C302.199,276.456 300.92,275.175 300.92,273.593 L300.92,272.483 C300.92,270.903 302.199,270.649 303.783,270.649 L331.065,270.649 C332.647,270.649 333.928,270.903 333.928,272.483 L333.928,273.593" id="Fill-430" fill="#E8D8C8"></path>
        <path d="M353.908,261.8 L280.361,261.8 C279.104,261.8 278.084,262.821 278.084,264.077 C278.084,265.331 279.104,266.348 280.361,266.348 L282.451,266.348 C285.207,271.206 295.809,274.344 317.383,274.344 L317.463,274.344 C339.041,274.344 349.641,271.206 352.399,266.348 L353.908,266.348 C355.166,266.348 356.186,265.331 356.186,264.077 C356.186,262.821 355.166,261.8 353.908,261.8" id="Fill-431" fill="#FFFFFF"></path>
        <path d="M353.908,261.8 L345.188,261.8 C346.442,261.8 347.461,262.821 347.461,264.077 C347.461,265.331 346.442,266.348 345.188,266.348 L343.674,266.348 C341.108,270.868 331.742,273.901 313.063,274.3 C314.451,274.327 315.889,274.344 317.383,274.344 L317.463,274.344 C339.041,274.344 349.641,271.206 352.399,266.348 L353.908,266.348 C355.166,266.348 356.186,265.331 356.186,264.077 C356.186,262.821 355.166,261.8 353.908,261.8" id="Fill-432" fill="#E8D8C8"></path>
        <path d="M303.264,268.395 L295.135,268.395 C293.822,268.395 292.758,267.333 292.758,266.018 C292.758,264.706 293.822,263.639 295.135,263.639 L303.264,263.639 C304.578,263.639 305.643,264.706 305.643,266.018 C305.643,267.333 304.578,268.395 303.264,268.395" id="Fill-433" fill="#FFFFFF"></path>
        <path d="M330.756,292.126 C335.734,300.962 329.348,310.362 318.414,316.518 C307.479,322.682 296.131,323.27 291.154,314.438 C286.18,305.604 291.01,293.446 301.945,287.288 C312.879,281.126 325.779,283.294 330.756,292.126" id="Fill-434" fill="#EAAC6E"></path>
        <path d="M294.172,301.936 C294.172,301.936 294.32,301.477 294.688,300.702 C294.879,300.327 295.106,299.858 295.408,299.348 C295.719,298.85 296.063,298.274 296.483,297.676 C296.924,297.102 297.399,296.464 297.943,295.829 C298.516,295.218 299.111,294.559 299.777,293.926 C300.473,293.329 301.192,292.702 301.961,292.11 C302.764,291.563 303.602,291.032 304.432,290.499 C304.875,290.28 305.322,290.061 305.766,289.844 C306.186,289.635 306.611,289.446 307.029,289.251 C307.936,288.889 308.883,288.583 309.77,288.292 C310.664,288.048 311.533,287.882 312.352,287.704 C313.178,287.569 313.971,287.493 314.69,287.415 C315.42,287.368 316.088,287.362 316.676,287.356 C317.27,287.374 317.789,287.421 318.207,287.448 C319.057,287.54 319.531,287.653 319.531,287.653 C319.531,287.653 319.416,287.69 319.199,287.762 C318.986,287.835 318.674,287.954 318.279,288.073 C317.883,288.214 317.41,288.387 316.867,288.565 C316.33,288.77 315.725,288.977 315.07,289.208 C314.424,289.456 313.725,289.719 312.984,290.001 C312.264,290.298 311.502,290.61 310.713,290.936 C309.967,291.298 309.205,291.632 308.406,291.993 C307.996,292.21 307.59,292.44 307.172,292.649 C306.776,292.848 306.381,293.053 305.984,293.255 C305.227,293.723 304.471,294.192 303.705,294.634 C302.975,295.13 302.266,295.634 301.553,296.093 C300.869,296.594 300.215,297.096 299.572,297.553 C298.949,298.042 298.358,298.499 297.815,298.925 C297.281,299.366 296.781,299.77 296.33,300.13 C295.899,300.501 295.508,300.819 295.182,301.083 C294.877,301.358 294.613,301.561 294.442,301.71 C294.264,301.86 294.172,301.936 294.172,301.936" id="Fill-435" fill="#D8935B"></path>
        <path d="M319.965,284.372 C322.535,285.772 324.678,287.784 326.135,290.372 C331.113,299.206 324.729,308.604 313.795,314.768 C307.389,318.376 300.848,320.069 295.524,319.081 C301.334,322.698 309.994,321.264 318.414,316.518 C329.348,310.362 335.734,300.962 330.756,292.126 C328.488,288.106 324.58,285.471 319.965,284.372" id="Fill-436" fill="#D8935B"></path>
        <path d="M303.844,300.887 C304.543,302.134 303.818,303.872 302.219,304.772 C300.619,305.671 298.756,305.393 298.057,304.149 C297.356,302.907 298.084,301.169 299.682,300.268 C301.281,299.368 303.145,299.647 303.844,300.887" id="Fill-437" fill="#F7C479"></path>
        <path d="M312.242,304.36 C312.242,304.36 312.168,303.948 311.983,303.259 C311.803,302.565 311.514,301.596 311.1,300.466 C310.69,299.333 310.16,298.044 309.533,296.696 C309.219,296.022 308.889,295.327 308.527,294.639 C308.174,293.942 307.789,293.251 307.406,292.559 C307.012,291.874 306.621,291.188 306.205,290.528 C305.801,289.862 305.383,289.219 304.967,288.6 C304.463,287.848 303.961,287.147 303.473,286.493 C302.957,286.739 302.449,287.003 301.945,287.288 C301.789,287.374 301.639,287.468 301.486,287.555 C301.795,288.327 302.143,289.137 302.531,289.971 C302.844,290.649 303.18,291.341 303.537,292.03 C303.889,292.727 304.274,293.419 304.654,294.112 C305.047,294.798 305.44,295.485 305.852,296.145 C306.254,296.811 306.674,297.452 307.09,298.073 C307.918,299.309 308.748,300.428 309.502,301.368 C310.254,302.301 310.936,303.053 311.434,303.567 C311.928,304.085 312.242,304.36 312.242,304.36" id="Fill-438" fill="#D8935B"></path>
        <path d="M273.041,287.915 C273.041,300.247 258.623,308.135 246.293,308.135 C233.963,308.135 219.545,300.247 219.545,287.915 C219.545,287.915 233.963,268.116 246.293,268.116 C258.623,268.116 273.041,287.915 273.041,287.915" id="Fill-439" fill="#FFFFFF"></path>
        <path d="M246.293,268.116 C246.135,268.116 245.975,268.134 245.813,268.141 C254.977,268.141 263.604,288.13 263.604,288.13 C263.604,300.46 252.307,306.872 239.977,306.872 C238.965,306.872 237.94,306.813 236.908,306.712 C239.998,307.639 243.211,308.135 246.293,308.135 C258.623,308.135 273.041,300.247 273.041,287.915 C273.041,287.915 258.623,268.116 246.293,268.116" id="Fill-440" fill="#E8D8C8"></path>
        <path d="M259.422,314.01 C259.422,315.266 258.402,316.29 257.145,316.29 L235.453,316.29 C234.193,316.29 233.174,315.266 233.174,314.01 L233.174,313.132 C233.174,311.876 234.193,311.671 235.453,311.671 L257.145,311.671 C258.402,311.671 259.422,311.876 259.422,313.132 L259.422,314.01" id="Fill-441" fill="#3498B7"></path>
        <polyline id="Fill-442" fill="#DDD3CE" points="235.611 276.786 237.584 275.067 235.611 276.786"></polyline>
        <path d="M235.611,277.833 C235.315,277.833 235.022,277.71 234.815,277.473 C234.434,277.034 234.481,276.372 234.92,275.993 L236.899,274.276 C237.336,273.893 237.998,273.942 238.381,274.38 C238.76,274.817 238.711,275.481 238.272,275.86 L236.299,277.577 C236.098,277.749 235.854,277.833 235.611,277.833" id="Fill-443" fill="#E8D8C8"></path>
        <polyline id="Fill-444" fill="#DDD3CE" points="245.697 272.948 247.815 274.489 245.697 272.948"></polyline>
        <path d="M247.813,275.538 C247.602,275.538 247.383,275.471 247.197,275.337 L245.08,273.798 C244.609,273.456 244.504,272.801 244.846,272.331 C245.188,271.862 245.846,271.759 246.313,272.098 L248.432,273.637 C248.902,273.977 249.008,274.634 248.664,275.104 C248.459,275.385 248.141,275.538 247.813,275.538" id="Fill-445" fill="#E8D8C8"></path>
        <polyline id="Fill-446" fill="#DDD3CE" points="241.512 280.948 243.914 279.909 241.512 280.948"></polyline>
        <path d="M241.514,282.001 C241.106,282.001 240.719,281.76 240.549,281.366 C240.318,280.833 240.561,280.214 241.096,279.985 L243.498,278.944 C244.029,278.716 244.649,278.96 244.879,279.491 C245.108,280.026 244.863,280.641 244.33,280.876 L241.928,281.913 C241.793,281.971 241.651,282.001 241.514,282.001" id="Fill-447" fill="#E8D8C8"></path>
        <polyline id="Fill-448" fill="#DDD3CE" points="251.318 284.2 252.178 281.727 251.318 284.2"></polyline>
        <path d="M251.318,285.251 C251.205,285.251 251.09,285.233 250.977,285.196 C250.428,285.005 250.137,284.405 250.326,283.858 L251.184,281.385 C251.375,280.837 251.973,280.548 252.518,280.735 C253.068,280.925 253.358,281.524 253.168,282.071 L252.311,284.546 C252.162,284.979 251.754,285.251 251.318,285.251" id="Fill-449" fill="#E8D8C8"></path>
        <polyline id="Fill-450" fill="#DDD3CE" points="230.424 283.926 233.027 284.2 230.424 283.926"></polyline>
        <path d="M233.029,285.251 C232.992,285.251 232.953,285.251 232.916,285.247 L230.313,284.971 C229.738,284.909 229.318,284.393 229.379,283.819 C229.442,283.239 229.959,282.817 230.535,282.882 L233.139,283.157 C233.715,283.219 234.133,283.735 234.072,284.311 C234.014,284.85 233.559,285.251 233.029,285.251" id="Fill-451" fill="#E8D8C8"></path>
        <path d="M275.432,287.495 L217.229,287.495 C215.832,287.495 214.801,288.442 214.801,289.624 C214.801,304.167 223.777,314.108 246.293,314.108 L246.365,314.108 C268.883,314.108 277.858,304.167 277.858,289.624 C277.858,288.442 276.828,287.495 275.432,287.495" id="Fill-452" fill="#42B6D1"></path>
        <path d="M275.432,287.495 L268.047,287.495 C267.768,301.671 258.731,311.305 236.567,311.305 L236.494,311.305 C233.178,311.305 230.164,311.087 227.422,310.671 C232.182,312.884 238.404,314.108 246.293,314.108 L246.365,314.108 C268.883,314.108 277.858,304.167 277.858,289.624 C277.858,288.442 276.828,287.495 275.432,287.495" id="Fill-453" fill="#3498B7"></path>
        <path d="M229.401,296.012 L224.334,296.012 C222.787,296.012 221.531,294.759 221.531,293.212 C221.531,291.665 222.787,290.411 224.334,290.411 L229.401,290.411 C230.949,290.411 232.201,291.665 232.201,293.212 C232.201,294.759 230.949,296.012 229.401,296.012" id="Fill-454" fill="#68D0E1"></path>
        <path d="M276.936,320.468 C275.977,318.764 274.063,318.706 273.338,320.007 C273.338,320.007 272.912,320.768 272.793,320.983 C272.672,321.202 272.856,321.516 273.088,321.805 C273.514,322.329 273.596,323.063 273.254,323.678 C272.914,324.286 272.256,324.602 271.602,324.532 C271.231,324.491 270.801,324.579 270.615,324.907 C270.545,325.022 269.818,326.327 269.75,326.45 C269.567,326.776 269.699,327.178 269.934,327.468 C270.359,327.991 270.442,328.723 270.102,329.339 C269.76,329.95 269.098,330.264 268.445,330.196 C268.076,330.151 267.693,330.149 267.572,330.36 C267.463,330.548 267.027,331.331 267.027,331.331 C266.303,332.63 267.168,334.223 269.315,334.145 L278.438,333.833 C279.961,333.801 281.377,334.089 282.1,332.79 L282.512,332.055 C283.234,330.755 282.145,329.602 281.467,328.391 L276.936,320.468" id="Fill-455" fill="#FFD066"></path>
        <path d="M291.264,328.452 C293.215,328.374 294.272,329.969 293.547,331.268 C293.547,331.268 293.125,332.03 293.004,332.247 C292.883,332.464 292.52,332.473 292.149,332.425 C291.483,332.343 290.815,332.657 290.471,333.272 C290.131,333.882 290.211,334.61 290.615,335.128 C290.844,335.421 290.992,335.833 290.817,336.161 C290.748,336.282 290.022,337.587 289.955,337.71 C289.777,338.036 289.365,338.135 288.994,338.087 C288.326,338.003 287.656,338.321 287.315,338.934 C286.975,339.544 287.055,340.27 287.459,340.79 C287.686,341.083 287.891,341.403 287.777,341.618 C287.672,341.811 287.236,342.593 287.236,342.593 C286.516,343.891 284.705,343.993 283.641,342.13 L279.109,334.208 C278.33,332.895 277.342,331.841 278.067,330.544 L278.475,329.807 C279.199,328.507 280.756,328.829 282.141,328.766 L291.264,328.452" id="Fill-456" fill="#FFD066"></path>
        <path d="M283.035,332.852 C282.674,333.503 281.854,333.737 281.205,333.372 L278.043,331.612 C277.393,331.251 277.16,330.428 277.522,329.78 C277.883,329.13 278.703,328.899 279.354,329.26 L282.516,331.02 C283.164,331.382 283.401,332.204 283.035,332.852" id="Fill-457" fill="#E5AC5A"></path>
        <path d="M287.709,219.327 C285.467,218.579 283.703,220.075 284.109,221.829 C284.109,221.829 284.348,222.858 284.414,223.151 C284.481,223.442 284.901,223.577 285.348,223.643 C286.151,223.772 286.82,224.364 287.012,225.192 C287.203,226.01 286.867,226.831 286.223,227.3 C285.859,227.563 285.545,227.989 285.643,228.432 C285.678,228.594 286.084,230.354 286.119,230.52 C286.221,230.96 286.666,231.21 287.113,231.28 C287.916,231.405 288.588,231.999 288.777,232.825 C288.969,233.651 288.633,234.468 287.988,234.934 C287.625,235.194 287.281,235.505 287.342,235.792 C287.397,236.051 287.641,237.102 287.641,237.102 C288.047,238.854 290.115,239.583 291.975,237.772 L299.901,230.089 C301.242,228.825 302.744,227.934 302.338,226.182 L302.108,225.19 C301.703,223.438 299.787,223.288 298.201,222.751 L287.709,219.327" id="Fill-458" fill="#FFD066"></path>
        <path d="M307.033,214.856 C308.721,213.202 310.961,213.776 311.365,215.526 C311.365,215.526 311.606,216.557 311.672,216.844 C311.738,217.137 311.422,217.444 311.053,217.698 C310.385,218.169 310.041,218.993 310.234,219.823 C310.424,220.641 311.086,221.231 311.865,221.368 C312.311,221.448 312.779,221.692 312.887,222.132 C312.924,222.294 313.334,224.053 313.373,224.218 C313.477,224.657 313.186,225.081 312.818,225.335 C312.149,225.801 311.807,226.632 311.998,227.458 C312.192,228.282 312.852,228.868 313.633,229.007 C314.076,229.081 314.52,229.206 314.592,229.491 C314.654,229.747 314.899,230.8 314.899,230.8 C315.303,232.551 313.762,234.112 311.297,233.305 L300.807,229.878 C299.043,229.335 297.303,229.192 296.897,227.438 L296.668,226.45 C296.264,224.696 297.92,223.719 299.109,222.542 L307.033,214.856" id="Fill-459" fill="#FFD066"></path>
        <path d="M303.229,225.479 C303.432,226.354 302.887,227.229 302.008,227.432 L297.744,228.421 C296.869,228.62 295.992,228.075 295.789,227.198 C295.588,226.321 296.133,225.45 297.01,225.245 L301.276,224.257 C302.151,224.057 303.026,224.6 303.229,225.479" id="Fill-460" fill="#E5AC5A"></path>
        <path d="M348.904,218.69 C348.272,216.425 346.053,215.801 344.832,217.116 C344.832,217.116 344.113,217.887 343.91,218.104 C343.707,218.323 343.83,218.743 344.022,219.149 C344.365,219.882 344.252,220.764 343.674,221.387 C343.106,222.001 342.238,222.18 341.496,221.909 C341.074,221.757 340.547,221.737 340.236,222.061 C340.119,222.182 338.895,223.497 338.779,223.62 C338.471,223.95 338.512,224.454 338.703,224.862 C339.049,225.596 338.934,226.479 338.356,227.098 C337.781,227.718 336.92,227.893 336.176,227.624 C335.758,227.468 335.311,227.354 335.108,227.563 C334.926,227.755 334.193,228.542 334.193,228.542 C332.973,229.856 333.524,231.968 336.057,232.493 L346.817,234.751 C348.606,235.155 350.18,235.899 351.401,234.587 L352.09,233.846 C353.311,232.534 352.365,230.872 351.926,229.262 L348.904,218.69" id="Fill-461" fill="#FFD066"></path>
        <path d="M363.363,232.151 C365.67,232.622 366.447,234.792 365.227,236.102 C365.227,236.102 364.51,236.872 364.307,237.089 C364.104,237.305 363.674,237.216 363.258,237.053 C362.498,236.764 361.627,236.938 361.051,237.561 C360.477,238.175 360.361,239.048 360.684,239.772 C360.865,240.18 360.924,240.704 360.623,241.034 C360.508,241.159 359.285,242.479 359.17,242.6 C358.867,242.93 358.354,242.928 357.938,242.766 C357.178,242.475 356.305,242.653 355.729,243.274 C355.156,243.891 355.041,244.762 355.363,245.485 C355.545,245.893 355.693,246.327 355.498,246.546 C355.322,246.743 354.588,247.53 354.588,247.53 C353.367,248.841 351.221,248.438 350.512,245.956 L347.494,235.384 C346.961,233.626 346.108,232.11 347.328,230.8 L348.018,230.055 C349.24,228.745 350.967,229.569 352.604,229.893 L363.363,232.151" id="Fill-462" fill="#FFD066"></path>
        <path d="M352.477,234.93 C351.865,235.587 350.838,235.624 350.184,235.012 L346.992,232.042 C346.336,231.432 346.301,230.405 346.91,229.749 C347.522,229.093 348.547,229.059 349.203,229.667 L352.393,232.637 C353.047,233.249 353.086,234.274 352.477,234.93" id="Fill-463" fill="#E5AC5A"></path>
        <path d="M216.108,351.485 C218.281,361.62 229.541,364.495 242.086,361.801 C254.635,359.11 263.723,351.874 261.549,341.737 C259.375,331.6 247.438,325.565 234.893,328.259 C222.346,330.946 213.934,341.35 216.108,351.485" id="Fill-464" fill="#FFD066"></path>
        <path d="M250.768,334.212 C250.768,334.212 250.342,333.958 249.537,333.614 C249.137,333.454 248.647,333.251 248.07,333.067 C247.494,332.893 246.838,332.686 246.113,332.512 C245.389,332.37 244.59,332.204 243.742,332.087 C242.891,332.007 241.988,331.907 241.049,331.874 C240.109,331.887 239.137,331.893 238.147,331.964 C237.162,332.087 236.158,332.249 235.162,332.405 C234.676,332.534 234.184,332.671 233.697,332.805 C233.236,332.928 232.779,333.073 232.326,333.208 C231.389,333.544 230.455,333.95 229.58,334.329 C228.729,334.751 227.951,335.21 227.205,335.628 C226.481,336.085 225.822,336.561 225.221,336.991 C224.629,337.452 224.111,337.899 223.656,338.29 C223.215,338.708 222.848,339.094 222.547,339.399 C221.957,340.046 221.67,340.45 221.67,340.45 C221.67,340.45 221.785,340.405 222,340.311 C222.213,340.221 222.531,340.102 222.916,339.928 C223.318,339.764 223.795,339.579 224.33,339.346 C224.883,339.141 225.484,338.889 226.143,338.62 C226.805,338.37 227.518,338.098 228.276,337.815 C229.029,337.553 229.824,337.278 230.647,336.995 C231.465,336.764 232.274,336.505 233.131,336.241 C233.59,336.128 234.061,336.026 234.52,335.905 C234.959,335.788 235.401,335.678 235.838,335.565 C236.74,335.409 237.635,335.255 238.522,335.077 C239.414,334.962 240.301,334.864 241.158,334.735 C242.02,334.655 242.861,334.6 243.664,334.51 C244.471,334.464 245.233,334.413 245.94,334.37 C246.647,334.346 247.303,334.319 247.893,334.286 C248.473,334.278 248.988,334.259 249.416,334.239 C249.836,334.241 250.18,334.223 250.408,334.218 C250.645,334.212 250.768,334.212 250.768,334.212" id="Fill-465" fill="#F4B558"></path>
        <path d="M219.113,338.231 C218.098,341.05 217.818,344.04 218.457,347.012 C220.631,357.147 231.889,360.02 244.438,357.329 C251.785,355.751 257.942,352.616 261.352,348.251 C259.352,354.96 251.75,359.727 242.086,361.801 C229.541,364.495 218.281,361.62 216.108,351.485 C215.117,346.87 216.328,342.204 219.113,338.231" id="Fill-466" fill="#F4B558"></path>
        <path d="M242.652,339.958 C242.957,341.385 244.693,342.225 246.529,341.833 C248.359,341.438 249.6,339.96 249.293,338.534 C248.988,337.11 247.254,336.268 245.42,336.665 C243.586,337.059 242.346,338.536 242.652,339.958" id="Fill-467" fill="#FFE98F"></path>
        <path d="M238.574,348.305 C238.574,348.305 238.352,347.944 238.027,347.288 C237.695,346.635 237.26,345.696 236.809,344.551 C236.356,343.407 235.889,342.061 235.455,340.602 C235.242,339.876 235.022,339.12 234.832,338.346 C234.633,337.575 234.459,336.782 234.281,335.997 C234.119,335.202 233.955,334.413 233.824,333.624 C233.684,332.843 233.567,332.067 233.467,331.309 C233.344,330.391 233.254,329.516 233.188,328.682 C233.746,328.524 234.311,328.382 234.893,328.259 C235.07,328.219 235.244,328.188 235.424,328.155 C235.709,328.952 235.992,329.809 236.264,330.712 C236.483,331.442 236.692,332.2 236.885,332.968 C237.088,333.739 237.26,334.53 237.442,335.319 C237.602,336.11 237.768,336.901 237.902,337.686 C238.045,338.469 238.158,339.247 238.26,340.003 C238.463,341.509 238.59,342.93 238.643,344.157 C238.701,345.385 238.688,346.423 238.656,347.155 C238.629,347.884 238.574,348.305 238.574,348.305" id="Fill-468" fill="#F4B558"></path>
        <path d="M139.994,171.618 L150.078,190.341 L150.348,190.196 C156.211,187.037 158.234,179.403 154.863,173.145 L144.865,154.59 L143.893,155.113 C138.026,158.272 136.621,165.359 139.994,171.618" id="Fill-469" fill="#68A508"></path>
        <path d="M150.893,172.968 C153.961,178.669 151.83,185.776 146.131,188.846 L144.789,189.571 C139.09,192.639 131.983,190.509 128.91,184.807 L111.08,151.703 C108.012,146.007 110.139,138.898 115.836,135.828 L117.18,135.103 C122.879,132.033 129.988,134.167 133.059,139.863 L150.893,172.968" id="Fill-470" fill="#FFE000"></path>
        <path d="M120.713,133.884 C123.27,134.845 125.51,136.693 126.908,139.285 L144.74,172.389 C147.811,178.089 149.281,183.259 139.983,188.267 L138.637,188.992 C137.5,189.602 136.311,190 135.108,190.211 C138.166,191.361 141.684,191.243 144.789,189.571 L146.131,188.846 C151.83,185.776 154.572,179.803 150.893,172.968 L133.059,139.863 C130.6,135.3 125.553,133.033 120.713,133.884" id="Fill-471" fill="#F2C300"></path>
        <path d="M115.807,161.541 L113.197,162.946 L124.654,184.217 C129.225,192.7 139.442,196.071 147.469,191.745 L150.078,190.341 L138.621,169.072 C134.051,160.586 123.838,157.216 115.807,161.541" id="Fill-472" fill="#92C100"></path>
        <path d="M115.807,161.541 L113.197,162.946 L113.203,162.961 C121.195,158.837 131.244,162.214 135.766,170.609 L147.215,191.866 C147.299,191.821 147.385,191.791 147.469,191.745 L150.078,190.341 L138.621,169.072 C134.051,160.586 123.838,157.216 115.807,161.541" id="Fill-473" fill="#68A508"></path>
        <path d="M129.293,149.602 L126.141,151.298 C125.41,151.692 124.504,151.418 124.111,150.689 C123.717,149.961 123.992,149.052 124.719,148.657 L127.869,146.962 C128.6,146.569 129.508,146.841 129.901,147.571 C130.293,148.299 130.024,149.209 129.293,149.602" id="Fill-474" fill="#F2C300"></path>
        <path d="M123.061,156.898 L119.91,158.594 C119.18,158.987 118.27,158.716 117.877,157.986 C117.486,157.256 117.758,156.345 118.486,155.953 L121.637,154.257 C122.367,153.863 123.276,154.136 123.668,154.864 C124.063,155.595 123.789,156.506 123.061,156.898" id="Fill-475" fill="#F2C300"></path>
        <path d="M119.772,150.792 L116.619,152.488 C115.891,152.881 114.981,152.611 114.59,151.882 C114.195,151.15 114.469,150.242 115.197,149.849 L118.348,148.151 C119.076,147.759 119.988,148.031 120.381,148.76 C120.774,149.491 120.5,150.397 119.772,150.792" id="Fill-476" fill="#F2C300"></path>
        <path d="M132.58,155.706 L129.428,157.405 C128.701,157.796 127.791,157.522 127.401,156.793 C127.008,156.065 127.279,155.157 128.006,154.765 L131.158,153.067 C131.889,152.674 132.797,152.945 133.192,153.675 C133.584,154.404 133.311,155.314 132.58,155.706" id="Fill-477" fill="#F2C300"></path>
        <path d="M126.002,143.496 L122.854,145.193 C122.123,145.587 121.215,145.314 120.822,144.584 C120.43,143.855 120.701,142.945 121.43,142.552 L124.58,140.857 C125.311,140.462 126.221,140.736 126.613,141.465 C127.006,142.194 126.733,143.103 126.002,143.496" id="Fill-478" fill="#F2C300"></path>
        <path d="M116.483,144.687 L113.332,146.383 C112.602,146.776 111.693,146.504 111.299,145.776 C110.906,145.047 111.18,144.137 111.91,143.743 L115.059,142.048 C115.789,141.653 116.699,141.925 117.092,142.655 C117.483,143.384 117.213,144.292 116.483,144.687" id="Fill-479" fill="#F2C300"></path>
        <path d="M344.116456,127.51 C336.430456,127.51 327.496456,140.009 327.496456,156.123 C327.496456,160.856 328.981456,165.262 331.674456,168.53 C334.709456,172.209 339.010456,174.155 344.116456,174.155 C354.912456,174.155 360.739456,164.866 360.739456,156.123 C360.739456,137.453 351.086456,127.51 344.116456,127.51" id="Fill-480" fill="#FFFFFF" transform="translate(344.117956, 150.832500) rotate(-12.000000) translate(-344.117956, -150.832500) "></path>
        <path d="M349.610621,128.093218 C353.733621,132.803218 357.020621,140.722218 357.020621,151.618218 C357.020621,160.359218 351.196621,169.649218 340.401621,169.649218 C337.432621,169.649218 334.735621,168.986218 332.399621,167.709218 C332.409621,167.721218 332.414621,167.733218 332.424621,167.745218 C335.459621,171.424218 339.760621,173.370218 344.866621,173.370218 C355.662621,173.370218 361.489621,164.081218 361.489621,155.338218 C361.489621,140.681218 355.539621,131.404218 349.610621,128.093218" id="Fill-481" fill="#EAC6C5" transform="translate(346.944621, 150.731718) rotate(-12.000000) translate(-346.944621, -150.731718) "></path>
        <path d="M341.637208,133.63056 C343.320208,134.58756 343.736208,137.03956 342.563208,139.10856 C341.387208,141.17556 339.068208,142.07656 337.383208,141.11956 C335.695208,140.16156 335.281208,137.70956 336.455208,135.64056 C337.629208,133.57256 339.949208,132.67256 341.637208,133.63056" id="Fill-482" fill="#FFFFFF" transform="translate(339.508638, 137.374673) rotate(-12.000000) translate(-339.508638, -137.374673) "></path>
    </g>
</svg>