<?xml version="1.0" encoding="UTF-8"?>
<svg width="512px" height="512px" viewBox="0 0 512 512" version="1.1" xmlns="http://www.w3.org/2000/svg" xmlns:xlink="http://www.w3.org/1999/xlink">
    <!-- Generator: Sketch 51.3 (57544) - http://www.bohemiancoding.com/sketch -->
    <title>vegetables</title>
    <desc>Created with Sketch.</desc>
    <defs></defs>
    <g id="Page-1" stroke="none" stroke-width="1" fill="none" fill-rule="evenodd">
        <g id="vegetables" fill-rule="nonzero">
            <path d="M511.8,256.199 C511.8,299.32 501.129,339.945 482.284,375.58 C478.713,382.335 474.85,388.923 470.705,395.303 C466.236,402.184 461.444,408.845 456.359,415.245 C424.943,454.774 382.072,484.791 332.771,500.275 C312.443,506.665 291.018,510.591 268.852,511.687 C267.15,511.771 265.448,511.833 263.746,511.885 C263.736,511.895 263.736,511.895 263.725,511.885 C261.167,511.958 258.578,512 255.999,512 C162.856,512 81.345,462.218 36.616,387.817 C13.49,349.362 0.199,304.331 0.199,256.199 C0.199,114.924 114.725,0.398 256,0.398 C390.802,0.398 501.245,104.671 511.08,236.956 C511.383,240.944 511.581,244.954 511.696,248.994 C511.769,251.385 511.8,253.787 511.8,256.199 Z" id="Shape" fill="#F77474"></path>
            <path d="M275.837,324.91 C271.483,330.538 266.701,335.967 261.533,341.146 C233.51,369.169 198.105,385.332 161.583,389.623 C135.899,392.63 109.64,389.78 85.01,381.051 C71.218,376.165 57.926,369.441 45.533,360.869 C44.395,341.522 43.643,322.165 43.278,302.787 C42.056,240.163 44.823,177.476 51.537,115.113 C52.539,105.842 54.889,97.061 58.365,88.938 C61.821,80.888 66.373,73.486 71.834,66.908 C91.953,42.57 124.257,29.248 157.867,35.116 C158.41,35.21 158.963,35.304 159.506,35.398 C160.373,35.555 161.25,35.711 162.106,35.899 C176.828,38.896 190.202,45.39 201.353,54.452 C206.542,58.67 211.261,63.452 215.396,68.683 C225.732,81.744 232.529,97.688 234.44,115.082 C240.694,172.162 250.738,227.874 264.249,281.874 C267.86,296.344 271.734,310.689 275.837,324.91 Z" id="Shape" fill="#413F77"></path>
            <path d="M275.837,324.91 C271.483,330.538 266.701,335.967 261.533,341.146 C233.51,369.169 198.105,385.332 161.583,389.623 C149.064,388.161 136.682,385.3 124.685,381.051 C110.893,376.165 97.601,369.441 85.208,360.869 C84.07,341.522 83.318,322.165 82.953,302.787 C81.731,240.163 84.498,177.476 91.212,115.113 C92.214,105.842 94.564,97.061 98.04,88.938 C101.496,80.888 106.048,73.486 111.509,66.908 C124.351,51.372 142.153,40.326 162.105,35.899 C176.827,38.896 190.201,45.39 201.352,54.452 C206.541,58.67 211.26,63.452 215.395,68.683 C225.731,81.744 232.528,97.688 234.439,115.082 C240.693,172.162 250.737,227.874 264.248,281.874 C267.86,296.344 271.734,310.689 275.837,324.91 Z" id="Shape" fill="#5A5993"></path>
            <path d="M145.666,38.312 C143.986,38.312 142.374,37.366 141.605,35.749 C138.147,28.488 136.036,11.829 152.792,0.747 C154.861,-0.623 157.651,-0.055 159.022,2.017 C160.391,4.087 159.823,6.877 157.752,8.246 C143.251,17.837 149.45,31.314 149.721,31.883 C150.789,34.125 149.837,36.807 147.595,37.875 C146.972,38.171 146.314,38.312 145.666,38.312 Z" id="Shape" fill="#45A5A3"></path>
            <path d="M158.002,58.171 C165.808,101.179 124.527,124.121 124.527,124.121 C107.214,91.139 114.981,67.674 118.898,59.434 C119.832,57.463 120.547,56.368 120.654,56.211 C120.659,56.206 120.659,56.196 120.663,56.191 C102.508,78.257 70.148,86.556 58.367,88.938 C61.82,80.888 66.373,73.489 71.83,66.906 C91.955,42.565 124.257,29.249 157.87,35.113 C158.413,35.206 158.961,35.304 159.508,35.401 C175.251,38.145 189.546,44.859 201.352,54.454 C218.62,82.335 204.922,103.898 204.922,103.898 C166.966,86.483 159.381,64.069 158.002,58.171 Z" id="Shape" fill="#413F77"></path>
            <path d="M168.766,59.154 C176.572,102.162 135.291,125.104 135.291,125.104 C117.978,92.122 125.745,68.657 129.662,60.417 C130.596,58.446 131.311,57.351 131.418,57.194 C131.423,57.189 131.423,57.179 131.427,57.174 C108.945,84.498 64.685,90.718 64.685,90.718 C60.529,52.396 89.353,33.802 108.974,25.674 C117.743,22.041 127.127,20.157 136.62,19.976 L145.736,19.8 C151.39,19.692 156.98,20.196 162.417,21.292 C162.422,21.287 162.422,21.287 162.422,21.287 C181.408,25.062 198.548,35.856 209.856,52.014 C230.518,81.528 215.685,104.881 215.685,104.881 C177.731,87.465 170.146,65.052 168.766,59.154 Z" id="Shape" fill="#73C9C5"></path>
            <path d="M131.427,57.173 C108.945,84.497 64.685,90.717 64.685,90.717 C60.529,52.395 89.353,33.801 108.974,25.673 C117.743,22.04 127.127,20.156 136.62,19.975 L145.736,19.799 C151.39,19.691 156.98,20.195 162.417,21.291 C161.861,21.468 146.426,26.484 131.427,57.173 Z" id="Shape" fill="#45A5A3"></path>
            <path d="M511.8,256.199 C511.8,299.32 501.129,339.945 482.284,375.58 C478.713,382.335 474.85,388.923 470.705,395.303 C466.236,402.184 461.444,408.845 456.359,415.245 C424.943,454.774 382.072,484.791 332.771,500.275 C310.887,507.156 287.729,511.175 263.747,511.885 C263.737,511.895 263.737,511.895 263.726,511.885 C259.905,511.018 256.136,510.037 252.398,508.962 C193.355,476.721 152.834,414.817 150.85,343.287 C150.798,341.46 150.777,339.633 150.777,337.795 C150.777,270.848 184.532,211.784 235.943,176.693 C267.192,155.362 304.988,142.886 345.687,142.886 C414.189,142.886 474.423,178.218 509.17,231.644 C509.828,233.409 510.465,235.173 511.081,236.958 C511.384,240.946 511.582,244.956 511.697,248.996 C511.769,251.385 511.8,253.787 511.8,256.199 Z" id="Shape" fill="#378E91"></path>
            <g id="Group" transform="translate(145.000000, 136.000000)" fill="#45A5A3">
                <path d="M337.284,239.579 C333.713,246.334 329.85,252.922 325.705,259.302 C321.236,266.183 316.444,272.844 311.359,279.244 C279.943,318.773 237.072,348.79 187.771,364.274 C165.887,371.155 142.729,375.174 118.747,375.884 C118.267,375.78 117.786,375.675 117.317,375.56 C100.309,368.533 84.512,359.178 70.323,347.881 C64.455,343.214 58.859,338.202 53.586,332.898 C29.447,308.696 11.645,278.178 2.854,244.046 C-2.93,221.546 3.105,197.887 18.15,180.179 C20.196,177.778 21.971,175.282 23.308,172.651 C31.379,156.823 25.344,129.833 38.583,116.594 C51.822,103.345 78.801,109.4 94.629,101.33 C111.042,92.967 122.13,67.752 139.932,64.933 C157.922,62.104 176.266,82.745 194.256,85.585 C212.068,88.394 235.894,74.34 252.297,82.703 C268.125,90.774 270.84,118.129 284.079,131.368 C297.318,144.607 324.683,147.332 332.754,163.16 C341.117,179.563 327.064,203.389 329.862,221.19 C330.821,227.29 333.828,233.429 337.284,239.579 Z" id="Shape"></path>
                <path d="M358.707,94.92 C357.619,103.55 355.747,111.732 350.198,117.281 C338.021,129.458 313.2,123.9 298.641,131.323 C283.555,139.013 273.363,162.202 256.983,164.791 C240.438,167.397 223.567,148.402 207.023,145.796 C190.642,143.216 168.722,156.135 153.637,148.446 C139.077,141.024 136.584,115.866 124.407,103.689 C112.221,91.503 87.064,89.009 79.642,74.449 C76.604,68.485 76.785,61.461 77.951,54.133 C80.074,40.833 88.402,29.416 100.286,23.09 C127.531,8.617 158.626,0.409 191.629,0.409 C219.254,0.409 245.533,6.157 269.344,16.521 C269.352,16.521 269.352,16.521 269.352,16.521 C281.745,21.915 293.473,28.56 304.365,36.311 C326.258,51.864 344.813,71.834 358.707,94.92 Z" id="Shape"></path>
            </g>
            <path d="M511.8,256.199 C511.8,370.725 436.532,467.678 332.771,500.275 C327.123,500.808 321.756,500.411 317.058,498.009 C311.89,495.378 308.246,490.513 305.145,484.78 C299.507,474.36 295.675,461.1 287.824,453.249 C275.65,441.065 250.488,438.569 243.064,424.015 C235.38,408.918 248.295,387.013 245.716,370.631 C243.106,354.082 224.114,337.21 226.724,320.672 C229.303,304.29 252.502,294.09 260.187,279.003 C267.61,264.438 262.056,239.62 274.23,227.446 C286.404,215.272 311.232,220.827 325.787,213.403 C340.874,205.708 351.075,182.519 367.456,179.93 C383.994,177.33 400.867,196.322 417.415,198.932 C429.318,200.801 444.144,194.495 457.153,193.858 C462.039,193.618 466.675,194.171 470.799,196.28 C485.364,203.703 487.859,228.855 500.033,241.04 C503.217,244.224 507.279,246.741 511.695,248.996 C511.769,251.385 511.8,253.787 511.8,256.199 Z" id="Shape" fill="#73C9C5"></path>
            <g id="Group" transform="translate(193.000000, 284.000000)" fill="#45A5A3">
                <path d="M277.705,111.302 C273.236,118.183 268.444,124.844 263.359,131.244 C259.475,128.101 255.622,125.053 251.811,122.098 C177.587,64.485 119.452,43.009 117.396,42.257 C137.568,47.102 157.259,53.533 176.115,60.936 C194.971,68.328 212.982,76.681 229.75,85.336 C229.75,85.336 203.982,43.259 203.982,0.441 C203.982,0.441 220.938,55.005 262.962,97.75 C267.577,102.438 272.485,106.99 277.705,111.302 Z" id="Shape"></path>
                <path d="M22.32,199.881 C16.451,195.212 10.859,190.207 5.586,184.898 C-4.408,125.746 2.315,92.261 2.315,92.261 C2.315,119.266 12.611,163.84 22.32,199.881 Z" id="Shape"></path>
            </g>
            <path d="M449.363,172.313 C372.493,154.837 312.419,162.078 312.419,162.078 C342.124,148.744 381.193,148.744 414.342,152.525 C414.35,152.525 414.35,152.525 414.35,152.525 C426.743,157.917 438.472,164.562 449.363,172.313 Z" id="Shape" fill="#73C9C5"></path>
            <path d="M337.355,351.847 C328.48,329.472 317.006,312.715 303.276,302.065 C290.904,292.449 276.506,287.584 260.458,287.584 C253.536,287.584 245.893,289.025 234.878,292.408 C232.362,293.17 229.647,294.736 226.839,296.856 C220.355,301.774 213.068,305.198 205.477,307.119 C195.433,309.677 184.856,309.625 174.833,306.962 C167.472,304.999 160.425,301.637 154.118,296.866 C151.309,294.736 148.584,293.18 146.068,292.408 C135.074,289.025 127.431,287.584 120.498,287.584 C104.45,287.584 90.053,292.449 77.691,302.055 C63.961,312.705 52.487,329.462 43.591,351.858 C39.07,363.249 36.742,375.277 36.617,387.816 C81.345,462.217 162.857,511.999 256,511.999 C258.579,511.999 261.168,511.957 263.726,511.884 C263.736,511.894 263.736,511.894 263.747,511.884 C265.449,511.832 267.151,511.769 268.853,511.686 C270.722,510.642 272.591,509.525 274.439,508.366 C291.739,497.476 307.317,482.264 319.47,464.368 C328.762,450.659 335.601,436.146 339.788,421.174 C340.853,417.332 341.74,413.5 342.409,409.794 C346.156,389.246 344.454,369.753 337.355,351.847 Z" id="Shape" fill="#EA566D"></path>
            <g id="Group" transform="translate(75.000000, 326.000000)" fill="#D12E48">
                <path d="M105.036,157.129 C104.422,157.743 103.68,158.245 102.83,158.58 C98.015,160.492 92.846,161.463 87.466,161.459 C76.35,161.459 64.089,157.436 51.989,149.824 C39.13,141.735 27.479,130.308 18.283,116.765 C16.379,113.956 14.608,111.099 12.982,108.212 C7.237,97.987 3.264,87.31 1.355,76.892 C-1.084,63.536 -0.084,51.138 4.321,40.03 C10.551,24.343 18.137,12.716 26.263,6.407 C31.797,2.11 38.092,0.019 45.501,0.019 C48.546,0.019 53.809,1.309 59.774,3.143 C73.893,7.481 81.252,23.177 75.262,36.683 C72.338,43.283 70.691,50.703 70.691,58.55 C70.691,71.176 74.947,82.699 81.948,91.46 C94.645,107.343 103.065,126.091 106.143,145.942 C106.45,147.925 106.707,149.916 106.906,151.924 C107.102,153.895 106.376,155.79 105.036,157.129 Z" id="Shape"></path>
                <path d="M178.969,149.829 C166.87,157.44 154.604,161.46 143.496,161.46 C140.809,161.46 138.162,161.22 135.599,160.739 C133.027,160.258 130.534,159.54 128.124,158.582 C125.437,157.52 123.761,154.799 124.047,151.925 C124.271,149.685 124.562,147.453 124.922,145.235 C128.087,125.645 136.457,107.153 149.005,91.462 C156.011,82.706 160.262,71.179 160.262,58.552 C160.262,50.704 158.62,43.279 155.691,36.685 C149.705,23.184 157.06,7.484 171.183,3.141 C177.144,1.312 182.407,0.022 185.451,0.022 C192.859,0.022 199.156,2.112 204.693,6.414 C212.819,12.723 220.405,24.349 226.631,40.032 C231.04,51.144 232.035,63.547 229.601,76.899 C229.12,79.546 228.497,82.208 227.755,84.876 C224.731,95.69 219.592,106.577 212.669,116.777 C203.475,130.317 191.823,141.745 178.969,149.829 Z" id="Shape"></path>
            </g>
            <g id="Group" transform="translate(87.000000, 338.000000)" fill="#EA566D">
                <path d="M174.091,12.525 C171.65,12.525 169.437,10.942 168.626,8.646 C167.844,6.43 168.527,3.879 170.309,2.345 C172.22,0.702 175.037,0.5 177.171,1.831 C179.139,3.059 180.196,5.44 179.795,7.725 C179.314,10.466 176.877,12.525 174.091,12.525 Z" id="Shape"></path>
                <path d="M145.458,128.273 C144.059,125.399 145.253,121.928 148.127,120.529 C151.006,119.126 154.472,120.324 155.876,123.198 C157.275,126.077 156.081,129.543 153.202,130.942 C152.387,131.339 151.522,131.53 150.671,131.53 C148.523,131.531 146.465,130.332 145.458,128.273 Z M161.766,119.264 C159.734,116.792 160.09,113.141 162.564,111.11 C165.037,109.082 168.687,109.439 170.718,111.912 C172.75,114.385 172.389,118.035 169.916,120.066 C168.843,120.948 167.537,121.381 166.245,121.381 C164.568,121.38 162.911,120.659 161.766,119.264 Z M175.708,106.899 C173.248,104.854 172.91,101.2 174.955,98.741 C177,96.281 180.654,95.947 183.113,97.992 C185.573,100.037 185.911,103.686 183.866,106.15 C183.866,106.15 183.866,106.15 183.866,106.146 C182.721,107.527 181.068,108.236 179.406,108.236 C178.101,108.236 176.79,107.799 175.708,106.899 Z M187.142,92.182 C184.357,90.609 183.373,87.075 184.945,84.291 C186.513,81.506 190.047,80.522 192.836,82.094 C195.621,83.666 196.605,87.201 195.033,89.985 C193.968,91.87 192.003,92.93 189.985,92.93 C189.018,92.93 188.042,92.69 187.142,92.182 Z M195.71,75.629 C192.658,74.676 190.955,71.428 191.91,68.375 C192.868,65.318 196.117,63.616 199.168,64.575 C202.22,65.528 203.923,68.776 202.968,71.829 C202.193,74.307 199.907,75.897 197.443,75.897 C196.869,75.896 196.29,75.811 195.71,75.629 Z M200.469,57.587 C197.274,57.542 194.716,54.913 194.761,51.714 C194.806,48.515 197.435,45.962 200.634,46.006 C203.833,46.051 206.391,48.68 206.346,51.879 C206.297,55.052 203.717,57.591 200.553,57.591 C200.527,57.591 200.501,57.587 200.469,57.587 Z M191.731,35.825 C190.519,32.866 191.937,29.484 194.899,28.272 C197.862,27.06 201.244,28.482 202.452,31.44 C203.664,34.403 202.247,37.785 199.284,38.993 C198.567,39.287 197.822,39.425 197.091,39.425 C194.81,39.425 192.645,38.071 191.731,35.825 Z M183.746,20.367 C181.95,17.716 182.646,14.115 185.292,12.32 C187.939,10.528 191.543,11.22 193.335,13.87 C193.335,13.87 193.335,13.87 193.339,13.87 C195.131,16.517 194.435,20.117 191.789,21.913 C190.791,22.586 189.663,22.911 188.545,22.911 C186.687,22.912 184.865,22.021 183.746,20.367 Z" id="Shape"></path>
                <path d="M132.83,136.522 C130.387,136.522 128.179,134.938 127.366,132.642 C126.581,130.424 127.272,127.88 129.049,126.343 C130.954,124.696 133.78,124.498 135.911,125.826 C137.88,127.053 138.935,129.441 138.537,131.722 C138.058,134.462 135.612,136.522 132.83,136.522 Z" id="Shape"></path>
                <path d="M32.865,12.525 C30.427,12.525 28.208,10.942 27.401,8.646 C26.623,6.434 27.299,3.873 29.084,2.345 C31,0.705 33.808,0.499 35.946,1.831 C37.912,3.057 38.978,5.44 38.573,7.725 C38.085,10.467 35.654,12.525 32.865,12.525 Z" id="Shape"></path>
                <path d="M53.754,130.943 C50.875,129.544 49.681,126.073 51.085,123.199 C52.484,120.325 55.95,119.126 58.829,120.53 C61.703,121.929 62.897,125.401 61.498,128.274 C60.496,130.332 58.433,131.532 56.285,131.532 C55.432,131.531 54.569,131.339 53.754,130.943 Z M37.039,120.062 C34.567,118.034 34.21,114.385 36.237,111.912 C38.269,109.44 41.918,109.083 44.391,111.11 C46.864,113.142 47.22,116.791 45.189,119.264 C44.044,120.659 42.387,121.38 40.711,121.38 C39.418,121.38 38.117,120.948 37.039,120.062 Z M23.088,106.15 C21.043,103.686 21.382,100.037 23.841,97.992 C26.301,95.947 29.954,96.281 31.999,98.741 C34.044,101.201 33.706,104.854 31.246,106.899 C30.163,107.799 28.853,108.235 27.548,108.235 C25.887,108.236 24.237,107.528 23.088,106.15 Z M11.922,89.985 C10.349,87.196 11.334,83.662 14.123,82.094 C16.908,80.522 20.441,81.506 22.014,84.291 C23.582,87.076 22.598,90.609 19.813,92.182 C18.913,92.689 17.937,92.931 16.974,92.931 C14.952,92.93 12.987,91.869 11.922,89.985 Z M3.986,71.828 C3.033,68.776 4.735,65.527 7.786,64.574 C10.838,63.616 14.087,65.318 15.044,68.374 C15.997,71.426 14.295,74.675 11.244,75.628 C10.665,75.811 10.085,75.895 9.511,75.895 C7.048,75.896 4.761,74.305 3.986,71.828 Z M0.609,51.879 C0.564,48.68 3.122,46.051 6.321,46.006 C9.52,45.961 12.149,48.515 12.194,51.714 C12.239,54.913 9.681,57.542 6.482,57.587 C6.455,57.587 6.429,57.587 6.402,57.587 C3.238,57.587 0.654,55.047 0.609,51.879 Z M7.671,38.993 C4.712,37.785 3.291,34.403 4.503,31.44 C5.711,28.481 9.097,27.06 12.056,28.272 C15.019,29.48 16.436,32.866 15.229,35.825 C14.311,38.071 12.146,39.425 9.864,39.425 C9.133,39.425 8.388,39.287 7.671,38.993 Z M15.166,21.914 C12.519,20.118 11.824,16.518 13.62,13.871 C15.412,11.22 19.016,10.529 21.663,12.321 C24.314,14.117 25.005,17.717 23.213,20.368 C22.091,22.021 20.268,22.912 18.409,22.912 C17.291,22.912 16.164,22.587 15.166,21.914 Z" id="Shape"></path>
                <path d="M74.125,136.522 C71.682,136.522 69.474,134.937 68.661,132.642 C67.877,130.428 68.565,127.875 70.344,126.343 C72.254,124.7 75.072,124.496 77.206,125.826 C79.171,127.051 80.238,129.442 79.833,131.722 C79.345,134.462 76.913,136.522 74.125,136.522 Z" id="Shape"></path>
            </g>
            <path d="M205.477,307.114 L205.477,354.259 C205.477,362.725 198.616,369.577 190.15,369.577 C181.694,369.577 174.832,362.726 174.832,354.259 L174.832,306.961 C184.855,309.622 195.435,309.68 205.477,307.114 Z" id="Shape" fill="#F97B69"></path>
        </g>
    </g>
</svg>