<?xml version="1.0" encoding="iso-8859-1"?>
<!-- Generator: Adobe Illustrator 19.0.0, SVG Export Plug-In . SVG Version: 6.00 Build 0)  -->
<svg version="1.1" id="Layer_1" xmlns="http://www.w3.org/2000/svg" xmlns:xlink="http://www.w3.org/1999/xlink" x="0px" y="0px"
	 viewBox="0 0 512 512" style="enable-background:new 0 0 512 512;" xml:space="preserve">
<path style="fill:#FCB5B5;" d="M0,204.799c0,0,0,23.7,0,102.402s63.335,142.7,127.428,142.7c56.242,0,63.58-34.701,128.572-34.701
	s72.329,34.701,128.572,34.701c64.093,0,127.428-63.998,127.428-142.7s0-102.402,0-102.402L0,204.799L0,204.799z"/>
<path style="fill:#FF9690;" d="M384.572,62.099C328.33,62.099,320.992,96.8,256,96.8s-72.329-34.701-128.572-34.701
	C63.335,62.099,0,126.097,0,204.799s63.335,142.7,127.428,142.7c56.242,0,63.58-34.701,128.572-34.701s72.329,34.701,128.572,34.701
	c64.093,0,127.428-63.998,127.428-142.7S448.665,62.099,384.572,62.099z"/>
<g>
	<path style="fill:#FC7576;" d="M144.144,134.762c-6.504,0-11.774,5.272-11.774,11.764c0,6.504,5.269,11.776,11.774,11.776
		c6.502,0,11.771-5.272,11.771-11.776C155.915,140.035,150.645,134.762,144.144,134.762z"/>
	<path style="fill:#FC7576;" d="M97.063,170.072c-6.504,0-11.774,5.272-11.774,11.764c0,6.504,5.269,11.776,11.774,11.776
		c6.502,0,11.771-5.272,11.771-11.776C108.835,175.345,103.564,170.072,97.063,170.072z"/>
</g>
<path style="fill:#FF9690;" d="M424.566,381.188c-6.503,0-11.772,5.274-11.772,11.765c0,6.503,5.269,11.775,11.772,11.775
	c6.498,0,11.768-5.272,11.768-11.775C436.333,386.462,431.064,381.188,424.566,381.188z"/>
<g>
</g>
<g>
</g>
<g>
</g>
<g>
</g>
<g>
</g>
<g>
</g>
<g>
</g>
<g>
</g>
<g>
</g>
<g>
</g>
<g>
</g>
<g>
</g>
<g>
</g>
<g>
</g>
<g>
</g>
</svg>
