<?xml version="1.0" encoding="UTF-8"?>
<svg width="829px" height="769px" viewBox="0 0 829 769" version="1.1" xmlns="http://www.w3.org/2000/svg" xmlns:xlink="http://www.w3.org/1999/xlink">
    <!-- Generator: Sketch 52.2 (67145) - http://www.bohemiancoding.com/sketch -->
    <title>Artboard Copy</title>
    <desc>Created with Sketch.</desc>
    <g id="Artboard-Copy" stroke="none" stroke-width="1" fill="none" fill-rule="evenodd">
        <g id="fried-chicken" transform="translate(25.000000, 129.000000)">
            <path d="M76.096,287.791 C60.332,274.809 37.06,273.187 19.245,286.006 C0.713,299.341 -5.369,324.716 5.115,344.998 C11.595,357.534 22.776,365.762 35.224,368.872 C39.705,369.992 42.538,374.582 41.53,379.089 C38.73,391.61 41.073,405.293 49.374,416.705 C62.804,435.167 88.214,441.106 108.441,430.518 C127.886,420.34 136.868,398.81 132.33,378.899 C131.492,375.223 133.047,371.422 136.255,369.442 L195.792,332.695 L145.847,251.776 L86.31,288.523 C83.101,290.502 79.006,290.188 76.096,287.791 Z" id="Path" fill="#F9E8D4"></path>
            <path d="M195.795,332.688 L171.833,293.866 L114.227,329.406 C111.025,331.382 109.478,335.193 110.317,338.866 C114.851,358.774 105.863,380.304 86.421,390.492 C71.618,398.247 54.032,397.142 40.397,388.731 C40.299,398.372 43.164,408.164 49.366,416.695 C62.805,435.16 88.209,441.097 108.444,430.526 C127.886,420.337 136.874,398.808 132.322,378.895 C131.483,375.222 133.048,371.415 136.25,369.439 L195.795,332.688 Z" id="Path" fill="#E8D0BA"></path>
            <path d="M512,218.007 C512,206.558 505.983,196.519 496.941,190.867 C495.911,190.223 495.624,188.868 496.311,187.867 C499.836,182.727 501.904,176.509 501.904,169.806 C501.904,164.261 500.49,159.047 498.007,154.501 C497.539,153.644 497.717,152.561 498.452,151.918 C506.592,144.801 511.738,134.347 511.738,122.685 C511.738,101.24 494.354,83.856 472.909,83.856 C471.273,83.856 469.663,83.962 468.081,84.16 C467.199,84.271 466.359,83.816 465.968,83.018 C460.289,71.421 449.003,63.079 435.639,61.516 C434.685,61.404 433.916,60.646 433.804,59.692 C431.554,40.389 415.157,25.406 395.251,25.406 C389.958,25.406 384.916,26.472 380.319,28.392 C379.033,28.929 377.611,28.145 377.375,26.771 C374.778,11.712 361.662,0.254 345.861,0.254 C331.104,0.254 318.683,10.247 314.99,23.835 C314.59,25.306 312.826,25.876 311.629,24.931 C306.181,20.626 299.3,18.054 291.817,18.054 C279.511,18.054 268.834,25.006 263.484,35.195 C263.054,36.014 262.118,36.441 261.214,36.249 C259.063,35.791 256.833,35.548 254.545,35.548 C236.877,35.548 222.555,49.871 222.555,67.538 C222.555,67.542 222.555,67.546 222.555,67.55 C222.556,68.287 222.184,68.964 221.566,69.365 C212.77,75.065 206.948,84.964 206.948,96.226 C206.948,103.278 209.235,109.793 213.101,115.08 C213.908,116.183 213.439,117.781 212.161,118.268 C202.958,121.778 195.795,129.411 192.931,138.913 C192.654,139.834 191.773,140.431 190.812,140.387 C190.277,140.362 189.739,140.349 189.198,140.349 C167.753,140.349 150.369,157.733 150.369,179.178 C150.369,189.289 154.24,198.492 160.574,205.401 C161.516,206.428 161.282,208.07 160.05,208.72 C149.892,214.08 142.966,224.744 142.966,237.029 C142.966,238.634 143.087,240.21 143.316,241.75 C143.447,242.628 143.023,243.511 142.238,243.927 C132.114,249.298 125.217,259.941 125.217,272.2 C125.217,277.023 126.291,281.593 128.203,285.693 C128.474,286.274 128.474,286.935 128.203,287.516 C126.291,291.617 125.217,296.186 125.217,301.009 C125.217,316.096 135.662,328.738 149.714,332.111 C150.514,332.303 151.13,332.913 151.33,333.711 C154.816,347.603 167.385,357.889 182.358,357.889 C190.284,357.889 197.532,355.001 203.119,350.227 C203.94,349.525 205.159,349.565 205.937,350.314 C211.687,355.844 219.497,359.246 228.105,359.246 C242.156,359.246 254.087,350.186 258.384,337.591 C258.907,336.057 260.943,335.681 261.983,336.925 C266.67,342.532 273.239,346.508 280.723,347.881 C281.575,348.037 282.255,348.714 282.411,349.566 C285.143,364.461 298.182,375.75 313.867,375.75 C326.939,375.75 338.171,367.906 343.134,356.672 C343.474,355.902 344.261,355.426 345.102,355.45 C345.353,355.457 345.604,355.461 345.857,355.461 C354.964,355.461 363.182,351.655 369.008,345.547 C369.854,344.66 371.25,344.66 372.096,345.547 C377.922,351.655 386.14,355.461 395.247,355.461 C410.033,355.461 422.474,345.428 426.139,331.799 C426.402,330.822 427.325,330.165 428.332,330.253 C429.238,330.332 430.154,330.374 431.08,330.374 C443.965,330.374 455.064,322.752 460.132,311.774 C460.525,310.923 461.441,310.45 462.367,310.594 C469.072,311.637 476.674,309.955 484.262,303.599 C484.417,303.469 484.559,303.314 484.675,303.148 C493.143,291.002 491.078,278.325 483.858,270.45 C483.104,269.628 483.104,268.384 483.858,267.562 C487.794,263.268 490.198,257.547 490.198,251.263 C490.198,250.828 490.185,250.397 490.161,249.968 C490.11,249.056 490.626,248.198 491.478,247.87 C503.482,243.257 512,231.63 512,218.007 Z" id="Path" fill="#FF9017"></path>
            <path d="M511.998,218.01 C511.998,231.629 503.482,243.258 491.482,247.867 C490.626,248.197 490.111,249.053 490.162,249.97 C490.193,250.393 490.203,250.826 490.203,251.259 C490.203,257.548 487.801,263.27 483.863,267.558 C483.11,268.383 483.11,269.63 483.863,270.445 C491.08,278.322 493.152,291.002 484.678,303.147 C484.564,303.312 484.42,303.467 484.265,303.601 C476.677,309.952 469.079,311.632 462.367,310.591 C461.439,310.447 460.532,310.921 460.14,311.777 C455.068,322.757 443.964,330.376 431.088,330.376 C430.16,330.376 429.243,330.335 428.335,330.252 C427.325,330.169 426.407,330.819 426.139,331.798 C422.479,345.427 410.035,355.459 395.251,355.459 C386.148,355.459 377.92,351.655 372.096,345.551 C371.251,344.664 369.859,344.664 369.013,345.551 C363.188,351.654 354.971,355.459 345.858,355.459 C345.611,355.459 345.353,355.459 345.105,355.449 C344.26,355.428 343.476,355.903 343.136,356.676 C338.177,367.903 326.94,375.749 313.867,375.749 C300.001,375.749 288.186,366.914 283.763,354.563 C296.042,353.872 306.454,346.253 311.176,335.552 C311.516,334.779 312.3,334.305 313.145,334.325 C313.392,334.335 313.65,334.335 313.898,334.335 C323.012,334.335 331.228,330.531 337.053,324.427 C337.898,323.54 339.29,323.54 340.136,324.427 C345.961,330.53 354.188,334.335 363.291,334.335 C378.075,334.335 390.519,324.304 394.179,310.674 C394.447,309.705 395.364,309.045 396.375,309.128 C397.282,309.21 398.2,309.252 399.128,309.252 C412.005,309.252 423.108,301.633 428.18,290.653 C428.572,289.797 429.479,289.323 430.407,289.467 C437.119,290.519 444.717,288.828 452.305,282.477 C452.46,282.343 452.604,282.188 452.718,282.023 C461.192,269.878 459.12,257.198 451.903,249.331 C451.15,248.506 451.15,247.259 451.903,246.434 C455.841,242.145 458.243,236.423 458.243,230.135 C458.243,229.702 458.233,229.269 458.202,228.846 C458.151,227.928 458.666,227.073 459.522,226.743 C471.523,222.135 480.038,210.505 480.038,196.886 C480.038,185.432 474.027,175.401 464.986,169.741 C463.955,169.102 463.666,167.751 464.347,166.741 C467.873,161.607 469.945,155.39 469.945,148.689 C469.945,143.142 468.533,137.926 466.048,133.379 C465.574,132.523 465.759,131.441 466.491,130.791 C474.636,123.677 479.78,113.223 479.78,101.563 C479.78,95.223 478.265,89.243 475.563,83.954 C495.78,85.315 511.74,102.14 511.74,122.687 C511.74,134.347 506.596,144.801 498.451,151.915 C497.719,152.565 497.534,153.647 498.008,154.503 C500.493,159.05 501.905,164.256 501.905,169.802 C501.905,176.514 499.833,182.73 496.307,187.864 C495.626,188.864 495.915,190.225 496.946,190.864 C505.987,196.515 511.998,206.556 511.998,218.01 Z" id="Path" fill="#EF7D0A"></path>
            <g id="Group" transform="translate(197.000000, 96.000000)" fill="#DB6E0B">
                <path d="M21.78,156.812 C26.019,156.296 29.038,152.441 28.522,148.202 C28.007,143.964 24.159,140.949 19.912,141.46 C7.999,142.909 -0.515,153.781 0.933,165.694 C1.635,171.465 4.542,176.618 9.119,180.202 C12.988,183.232 17.658,184.835 22.496,184.835 C23.381,184.835 24.273,184.781 25.167,184.673 C29.406,184.158 32.425,180.303 31.91,176.064 C31.395,171.825 27.543,168.81 23.301,169.321 C21.629,169.527 19.98,169.065 18.655,168.027 C17.33,166.989 16.488,165.497 16.285,163.827 C15.865,160.378 18.33,157.231 21.78,156.812 Z" id="Path"></path>
                <path d="M157.603,37.659 C157.771,37.67 157.938,37.675 158.104,37.675 C162.149,37.674 165.551,34.53 165.813,30.437 C166.294,22.935 163.825,15.695 158.86,10.051 C153.894,4.407 147.029,1.034 139.528,0.554 C131.032,0.016 123.182,3.312 117.651,8.944 C113.602,5.098 108.389,2.804 102.748,2.443 C96.369,2.035 90.225,4.133 85.431,8.35 C80.636,12.567 77.77,18.4 77.363,24.772 C77.09,29.034 80.323,32.71 84.585,32.983 C88.846,33.245 92.523,30.021 92.795,25.761 C92.939,23.51 93.951,21.451 95.644,19.962 C97.336,18.473 99.506,17.732 101.759,17.876 C104.01,18.02 106.069,19.032 107.559,20.725 C109.048,22.418 109.789,24.59 109.645,26.84 C109.457,29.77 110.926,32.423 113.248,33.884 C113.398,33.978 113.556,34.061 113.712,34.146 C113.776,34.18 113.836,34.22 113.901,34.253 C114.575,34.59 115.306,34.833 116.079,34.962 C116.337,35.005 116.599,35.035 116.865,35.052 C117.033,35.063 117.2,35.068 117.366,35.068 C117.425,35.068 117.482,35.061 117.541,35.06 C117.637,35.058 117.732,35.052 117.827,35.046 C117.995,35.036 118.161,35.022 118.326,35.001 C118.406,34.991 118.485,34.979 118.565,34.966 C118.739,34.939 118.912,34.906 119.083,34.867 C119.154,34.851 119.224,34.833 119.294,34.815 C119.468,34.77 119.639,34.719 119.808,34.663 C119.873,34.641 119.938,34.619 120.003,34.595 C120.172,34.533 120.337,34.466 120.501,34.393 C120.563,34.365 120.626,34.337 120.687,34.308 C120.846,34.232 121.002,34.15 121.155,34.063 C121.217,34.028 121.279,33.993 121.341,33.956 C121.487,33.868 121.629,33.774 121.769,33.677 C121.832,33.633 121.894,33.591 121.956,33.545 C122.088,33.447 122.216,33.343 122.342,33.237 C122.404,33.185 122.467,33.133 122.528,33.079 C122.646,32.973 122.758,32.861 122.87,32.748 C122.931,32.686 122.994,32.625 123.053,32.561 C123.156,32.449 123.253,32.332 123.349,32.214 C123.408,32.142 123.469,32.071 123.526,31.996 C123.615,31.878 123.697,31.756 123.78,31.633 C123.835,31.552 123.891,31.473 123.943,31.389 C124.019,31.265 124.088,31.137 124.157,31.008 C124.205,30.919 124.256,30.833 124.301,30.742 C124.365,30.612 124.42,30.476 124.477,30.342 C124.517,30.248 124.561,30.156 124.597,30.06 C124.65,29.919 124.693,29.773 124.738,29.628 C124.767,29.533 124.802,29.441 124.827,29.345 C124.871,29.182 124.903,29.015 124.936,28.848 C124.952,28.765 124.975,28.685 124.989,28.601 C125.031,28.348 125.061,28.091 125.078,27.829 C125.525,20.852 131.588,15.538 138.54,15.988 C141.92,16.204 145.012,17.723 147.248,20.266 C149.485,22.809 150.598,26.07 150.381,29.449 C150.107,33.709 153.341,37.386 157.603,37.659 Z" id="Path"></path>
                <path d="M227.72,144.116 C223.454,143.803 219.751,146.995 219.435,151.253 C219.118,155.512 222.313,159.221 226.572,159.538 C227.435,159.602 228.291,159.634 229.142,159.634 C246.917,159.633 262.001,145.869 263.341,127.86 C264.021,118.718 261.1,109.859 255.116,102.914 C249.132,95.969 240.803,91.77 231.663,91.09 C227.402,90.778 223.695,93.969 223.378,98.228 C223.062,102.487 226.257,106.196 230.515,106.512 C235.537,106.886 240.114,109.192 243.401,113.007 C246.688,116.823 248.292,121.69 247.918,126.712 C247.148,137.08 238.084,144.888 227.72,144.116 Z" id="Path"></path>
            </g>
        </g>
        <g id="egg" transform="translate(281.000000, 392.000000)">
            <g id="XMLID_1037_" transform="translate(0.000000, 131.000000)">
                <path d="M308.25,78.772 C308.25,112.424 282.579,141.096 246.629,151.969 C236.63,155.001 225.848,156.647 214.594,156.647 C162.861,156.647 120.927,121.78 120.927,78.772 C120.927,69.907 122.714,61.384 125.997,53.443 C138.637,22.863 173.523,0.887 214.594,0.887 C223.931,0.887 232.946,2.021 241.459,4.14 C270.372,11.328 293.413,29.821 303.181,53.443 C306.463,61.384 308.25,69.907 308.25,78.772 Z" id="XMLID_486_" fill="#FEC007"></path>
                <path d="M308.25,78.772 C308.25,112.424 282.579,141.096 246.629,151.969 C237.875,130.384 233.427,104.453 233.427,74.315 C233.427,50.572 236.208,26.799 241.458,4.14 C270.371,11.328 293.412,29.821 303.18,53.443 C306.463,61.384 308.25,69.907 308.25,78.772 Z" id="XMLID_481_" fill="#FE9700"></path>
                <path d="M308.25,78.77 C308.25,121.778 266.316,156.645 214.593,156.645 C162.86,156.645 120.926,121.778 120.926,78.77 C120.926,69.905 122.713,61.382 125.996,53.441 L303.18,53.441 C306.463,61.382 308.25,69.905 308.25,78.77 Z" id="XMLID_488_" fill="#FE9700"></path>
                <path d="M345.867,72.427 L345.867,72.758 C345.827,99.914 341.279,125.153 329.935,146.095 C328.991,147.842 327.997,149.569 326.943,151.255 C315.599,169.617 298.482,184.274 273.885,193.47 C255.443,200.367 232.804,204.182 205.236,204.182 C97.735,204.182 1.508,146.114 0.002,74.143 C0.002,74.1 0.001,74.057 8.13151629e-20,74.013 C-0.015,73.14 0.695,72.427 1.568,72.427 L345.867,72.427 Z" id="XMLID_507_" fill="#F9E8D4"></path>
                <path d="M345.867,72.426 L345.867,72.758 C345.827,99.914 341.279,125.153 329.935,146.095 C328.991,147.842 327.997,149.569 326.943,151.255 C315.599,169.617 298.482,184.274 273.885,193.47 C247.17,167.307 233.427,127.311 233.427,74.313 C233.427,73.68 233.427,73.058 233.437,72.426 L345.867,72.426 Z" id="XMLID_505_" fill="#EFCDB1"></path>
                <path d="M345.867,72.759 C345.827,99.915 341.279,125.154 329.935,146.096 C328.991,147.843 327.997,149.57 326.943,151.256 C307.085,183.382 269.568,204.183 205.236,204.183 C97.735,204.183 1.508,146.115 0.002,74.144 C0.002,74.1 0.001,74.057 8.13151629e-20,74.013 C-0.015,73.14 0.695,72.427 1.568,72.427 C14.529,137.612 104.974,188.12 205.236,188.12 C305.498,188.12 340.606,137.622 345.285,72.427 L345.857,72.427 C345.857,72.538 345.857,72.648 345.867,72.759 Z" id="XMLID_479_" fill="#EFCDB1"></path>
            </g>
            <g id="XMLID_1035_" transform="translate(248.000000, 0.000000)">
                <path d="M264,205.316 C264,313.669 205.009,345.939 132.24,345.939 C59.471,345.939 0.48,313.669 0.48,205.316 C0.48,96.963 59.472,0.06 132.24,0.06 C205.008,0.06 264,96.963 264,205.316 Z" id="XMLID_906_" fill="#F9E8D4"></path>
                <path d="M263.998,205.315 C263.998,313.669 205.007,345.936 132.242,345.936 C129.541,345.936 126.871,345.896 124.211,345.796 C193.241,343.437 247.936,309.654 247.936,205.316 C247.936,100.978 193.231,7.259 124.211,0.462 C126.871,0.191 129.542,0.06 132.242,0.06 C205.007,0.06 263.998,96.96 263.998,205.315 Z" id="XMLID_949_" fill="#EFCDB1"></path>
                <path d="M132.24,328.751 C80.992,328.751 39.3,279.978 39.3,220.029 C39.3,191.501 48.637,164.56 65.591,144.171 C83.213,122.978 106.883,111.307 132.24,111.307 C157.597,111.307 181.268,122.978 198.89,144.171 C215.844,164.56 225.181,191.501 225.181,220.029 C225.181,248.557 215.844,275.497 198.89,295.887 C181.268,317.079 157.598,328.751 132.24,328.751 Z" id="XMLID_963_" fill="#EFCDB1"></path>
                <ellipse id="XMLID_929_" fill="#FEC007" cx="132.24" cy="220.028" rx="77.882" ry="93.663"></ellipse>
                <path d="M210.117,220.032 C210.117,271.755 175.25,313.689 132.242,313.689 C129.702,313.689 127.182,313.538 124.713,313.257 C164.188,308.699 195.069,268.703 195.069,220.032 C195.069,171.351 164.188,131.355 124.713,126.797 C127.183,126.516 129.703,126.365 132.242,126.365 C175.25,126.365 210.117,168.3 210.117,220.032 Z" id="XMLID_977_" fill="#FE9700"></path>
            </g>
        </g>
        <g id="ice-cream-(1)" transform="translate(568.000000, 24.000000)">
            <path d="M144.631421,322 L57.3685793,322 C51.9802055,322 47.4389877,317.963739 46.7992984,312.603261 L32,189 L170,189 L155.200702,312.603261 C154.561012,317.963739 150.019795,322 144.631421,322 Z" id="Path" fill="#FBD490"></path>
            <path d="M172.863188,189 L29.1426029,189 C18.7535817,189 10.3334942,180.927 10.3334942,170.97375 L5,143 L197,143 L191.666506,170.97375 C191.672297,180.93275 183.246418,189 172.863188,189 Z" id="Path" fill="#EEAF4B"></path>
            <path d="M8.37069237,144 L193.629308,144 C198.990248,138.168732 202,131.741019 202,124.977443 C202,115.532759 196.182687,106.742427 186.188692,99.3302889 C186.806818,97.2282529 187.1361,95.0741004 187.1361,92.8794128 C187.1361,81.1010627 177.869992,70.4229518 162.838562,62.5822999 C162.838562,62.5822999 163.237166,-5.15768987 108.131553,0.314552416 C108.131553,0.314552416 125.901221,29.1581914 101.002888,29.4129836 C66.3185289,29.7835905 38.1966997,42.1236417 38.1966997,57.7875733 C38.1966997,59.4263506 45.4293477,61.0245928 46.018589,62.5880906 C30.9871593,70.4287425 14.8639002,81.1068534 14.8639002,92.8852035 C14.8639002,95.0741004 22.2929619,97.2282529 22.9110876,99.3360796 C12.9170933,106.748217 0,115.54434 0,124.983234 C0,131.74681 3.00975205,138.174523 8.37069237,144 Z" id="Path" fill="#F2ECD3"></path>
            <path d="M86.2,68 L68.8,68 C65.5984,68 63,65.318 63,62 C63,58.682 65.5984,56 68.8,56 L86.2,56 C89.4016,56 92,58.682 92,62 C92,65.318 89.4074,68 86.2,68 Z" id="Path" fill="#FBD490"></path>
            <path d="M138.25,68 L126.75,68 C123.576,68 121,65.318 121,62 C121,58.682 123.576,56 126.75,56 L138.25,56 C141.424,56 144,58.682 144,62 C144,65.318 141.42975,68 138.25,68 Z" id="Path" fill="#FBD490"></path>
            <g id="Group" transform="translate(74.000000, 91.000000)" fill="#FBD490">
                <path d="M11.869,12.2406667 L6.142,12.2406667 C2.968,12.2406667 0.392,9.70766667 0.392,6.574 C0.392,3.44033333 2.968,0.907333333 6.142,0.907333333 L11.869,0.907333333 C15.043,0.907333333 17.619,3.44033333 17.619,6.574 C17.619,9.70766667 15.04875,12.2406667 11.869,12.2406667 Z" id="Path"></path>
                <path d="M48.7495,12.2406667 L38.20975,12.2406667 C35.03575,12.2406667 32.45975,9.70766667 32.45975,6.574 C32.45975,3.44033333 35.03575,0.907333333 38.20975,0.907333333 L48.7495,0.907333333 C51.9235,0.907333333 54.4995,3.44033333 54.4995,6.574 C54.4995,9.70766667 51.9235,12.2406667 48.7495,12.2406667 Z" id="Path"></path>
                <path d="M80.892,12.2406667 L75.165,12.2406667 C71.991,12.2406667 69.415,9.70766667 69.415,6.574 C69.415,3.44033333 71.991,0.907333333 75.165,0.907333333 L80.892,0.907333333 C84.066,0.907333333 86.642,3.44033333 86.642,6.574 C86.642,9.70766667 84.07175,12.2406667 80.892,12.2406667 Z" id="Path"></path>
            </g>
            <path d="M57.3333333,103 L51.6666667,103 C48.5386667,103 46,100.318 46,97 C46,93.682 48.5386667,91 51.6666667,91 L57.3333333,91 C60.4613333,91 63,93.682 63,97 C63,100.318 60.467,103 57.3333333,103 Z" id="Path" fill="#FBD490"></path>
            <g id="Group" transform="translate(36.000000, 192.000000)" fill="#EEAF4B">
                <polygon id="Path" points="66.1025652 103.006391 50.4490435 87.3528696 34.7955217 103.006391 42.9721304 111.188783 50.4490435 103.71187 57.9259565 111.188783"></polygon>
                <polygon id="Path" points="106.580826 103.006391 90.9273043 87.3528696 75.2737826 103.006391 83.4503913 111.188783 90.9273043 103.71187 98.4042174 111.188783"></polygon>
                <polygon id="Path" points="9.97078261 45.8857826 17.4476957 53.3626957 25.6243043 45.1803043 9.97078261 29.5267826 0.0998695652 39.3976957 8.27647826 47.580087"></polygon>
                <polygon id="Path" points="42.9721304 53.3626957 50.4490435 45.8857826 57.9259565 53.3626957 66.1025652 45.1803043 50.4490435 29.5267826 34.7955217 45.1803043"></polygon>
                <polygon id="Path" points="83.4503913 53.3626957 90.9273043 45.8857826 98.4042174 53.3626957 106.580826 45.1803043 90.9273043 29.5267826 75.2737826 45.1803043"></polygon>
                <polygon id="Path" points="11.665087 74.0933478 19.8416957 82.2757391 27.3186087 74.7988261 34.7955217 82.2757391 42.9721304 74.0933478 27.3186087 58.4398261"></polygon>
                <polygon id="Path" points="52.1433478 74.0933478 60.3199565 82.2757391 67.7968696 74.7988261 75.2737826 82.2757391 83.4503913 74.0933478 67.7968696 58.4398261"></polygon>
                <polygon id="Path" points="92.6216087 74.0933478 100.798217 82.2757391 108.27513 74.7988261 115.752043 82.2757391 123.928652 74.0933478 108.27513 58.4398261"></polygon>
                <polygon id="Path" points="27.3186087 16.9727391 34.7955217 24.4496522 42.9721304 16.2672609 27.3186087 0.61373913 11.665087 16.2672609 19.8416957 24.4496522"></polygon>
                <polygon id="Path" points="67.7968696 16.9727391 75.2737826 24.4496522 83.4503913 16.2672609 67.7968696 0.61373913 52.1433478 16.2672609 60.3199565 24.4496522"></polygon>
                <polygon id="Path" points="108.27513 16.9727391 115.752043 24.4496522 123.928652 16.2672609 108.27513 0.61373913 92.6216087 16.2672609 100.798217 24.4496522"></polygon>
                <polygon id="Path" points="121.534652 39.3976957 115.752043 45.1803043 123.928652 53.3626957 127.860826 49.4305217 128.259826 46.1228696"></polygon>
                <path d="M92.6216087,126.136826 L96.709913,130.22513 L104.886522,130.22513 L108.27513,126.836522 L111.299435,129.860826 C115.312565,128.843087 118.435174,125.57013 119.169565,121.371957 L108.280913,110.483304 L92.6216087,126.136826 Z" id="Path"></path>
                <polygon id="Path" points="52.1433478 126.136826 56.2316522 130.22513 64.4082609 130.22513 67.7968696 126.842304 71.1854783 130.22513 79.362087 130.22513 83.4503913 126.136826 67.7968696 110.483304"></polygon>
                <path d="M12.3011739,125.506522 C14.2325652,128.357348 17.4650435,130.230913 21.1196522,130.230913 L23.93,130.230913 L27.3186087,126.842304 L30.7072174,130.230913 L38.8838261,130.230913 L42.9721304,126.142609 L27.3186087,110.489087 L12.3011739,125.506522 Z" id="Path"></path>
                <polygon id="Path" points="25.6243043 103.006391 14.059087 91.4411739 7.74447826 97.7615652 8.24756522 101.988652 17.4476957 111.188783"></polygon>
            </g>
        </g>
    </g>
</svg>