<?xml version="1.0" encoding="UTF-8"?>
<svg width="1731px" height="2051px" viewBox="0 0 1731 2051" version="1.1" xmlns="http://www.w3.org/2000/svg" xmlns:xlink="http://www.w3.org/1999/xlink">
    <!-- Generator: Sketch 52.2 (67145) - http://www.bohemiancoding.com/sketch -->
    <title>Artboard Copy</title>
    <desc>Created with Sketch.</desc>
    <g id="Artboard-Copy" stroke="none" stroke-width="1" fill="none" fill-rule="evenodd">
        <g id="chop" transform="translate(629.000000, 992.000000)">
            <g id="Group" transform="translate(173.000000, 0.000000)" fill="#E5E5E5">
                <path d="M132.194114,39.0583333 C132.241835,43.011 131.650823,46.9306667 130.43943,50.6926667 L81.2972785,207.8295 L0.403797468,207.8295 L56.566519,27.743 C62.9813924,7.3765 84.7112025,-3.93883333 105.102975,2.46683333 C121.120886,7.503 132.065633,22.276 132.194114,39.0583333 Z" id="Path"></path>
                <path d="M348.387278,39.216 C348.356076,43.1045 347.765063,46.9618333 346.632595,50.6908333 L297.490443,207.827667 L216.437278,207.827667 L272.759684,27.7411667 C279.174557,7.37466667 300.920886,-3.94066667 321.310823,2.4815 C337.378291,7.51766667 348.323038,22.3878333 348.387278,39.216 Z" id="Path"></path>
                <path d="M578.940949,39.0583333 C578.988671,43.011 578.397658,46.9306667 577.186266,50.6926667 L528.044114,207.8295 L447.150633,207.8295 L503.313354,27.743 C509.728228,7.3765 531.458038,-3.93883333 551.84981,2.46683333 C567.867722,7.503 578.812468,22.276 578.940949,39.0583333 Z" id="Path"></path>
            </g>
            <path d="M483.506048,208 L589.288086,208 L468.029868,545.939654 C442.646143,616.767209 439.645247,693.688562 459.414452,766.285522 L459.574132,766.924269 C470.759123,808.009684 495.360963,844.181516 529.45738,869.678188 L557.697004,890.898188 C588.058361,913.698538 625.027196,926.032972 663,926 L446.489492,925.999934 C408.516688,926.031137 371.549689,913.698538 341.186496,890.898188 L312.946872,869.678188 C278.850455,844.181516 254.248615,808.009684 243.063624,766.924269 L242.903944,766.285522 C223.136575,693.688562 226.135635,616.765373 251.51936,545.939654 L372.777578,208 C372.777578,208 483.506048,208 483.506048,208 Z" id="Path" fill="#F57B78"></path>
            <g id="Group" transform="translate(510.000000, 272.000000)" fill="#D32144">
                <path d="M210.412185,204.205539 C212.42151,208.674152 213.458285,213.509947 213.443605,218.41 C213.37938,228.224793 209.487345,237.608146 202.59692,244.58278 C195.658785,251.636359 186.16633,255.594588 176.277515,255.594588 L94.1264,255.594588 C85.129395,255.594588 76.45168,252.29178 69.7209,246.337913 L62.86167,240.433616 C51.504855,230.347108 47.405465,214.372827 52.49392,200.056375 L119.48977,13.3329752 C123.157935,3.05553251 134.468875,-2.29064706 144.741205,1.37934365 C151.02608,3.63017337 155.747535,8.91209598 157.29444,15.4075573 L182.817455,122.813994 C189.515205,150.725384 198.75076,177.968502 210.412185,204.205539 Z" id="Path"></path>
                <path d="M365.777965,453.329796 L365.777965,472.799656 C365.74677,506.18574 351.6136,538.025985 326.85578,560.416783 L325.10152,562.012192 C304.69999,580.525542 278.1402,590.755251 250.60786,590.738728 L152.98586,590.738728 C128.835425,590.722204 105.32357,582.870003 85.99001,568.395663 L57.7567,547.168833 C35.37704,530.570341 19.17032,506.982526 11.65783,480.139638 C4.51234,454.668176 0.715725,428.383406 0.33221,401.93891 C0.50837,370.355693 18.628995,341.612635 47.06966,327.887347 L47.70824,327.567898 C58.507215,322.173985 70.40719,319.396248 82.48149,319.429294 L183.4542,319.429294 C210.12409,319.412771 236.63617,323.45178 262.09496,331.399449 L277.88697,336.347235 C297.075565,342.411257 314.31906,353.487322 327.815485,368.426149 L336.90791,378.481446 C355.42673,399.005121 365.71374,425.657074 365.777965,453.329796 Z" id="Path"></path>
            </g>
            <path d="M939.999991,724.799977 L939.999991,744.424944 C940.01651,795.801904 918.284666,844.785396 880.167674,879.25023 L878.412974,880.685576 C846.215339,909.884414 804.284262,926.031144 760.82241,925.999941 L663.495322,925.999941 C625.521495,926.031144 588.5535,913.698545 558.18949,890.898195 L529.949106,869.678194 C495.85177,844.181522 471.249268,808.00969 460.063976,766.924275 L459.904291,766.285527 C440.13639,693.688567 443.135531,616.765378 468.519939,545.939657 L589.781423,208 L714.552305,208 L755.398627,379.681752 C770.858704,444.764252 802.467156,504.900128 847.301932,554.555407 L894.849516,607.208026 C923.86997,639.484966 939.952269,681.368816 939.999991,724.799977 Z M875.54048,744.265257 L875.54048,724.799977 C875.476239,697.14845 865.184816,670.488082 846.661356,649.969236 L837.566653,639.916304 C824.068682,624.980992 806.820867,613.909368 787.625629,607.844938 L771.829662,602.898316 C746.364494,594.952517 719.847607,590.916293 693.169199,590.930977 L592.171191,590.930977 C580.092031,590.899774 568.19091,593.675022 557.389229,599.067666 L556.750489,599.38704 C528.302699,613.109099 510.177534,641.845395 510.00133,673.421182 C510.384941,699.859456 514.182507,726.138043 521.329787,751.603512 C528.844159,778.440085 545.05494,802.02235 567.440207,818.616937 L595.68059,839.838773 C615.018994,854.309709 638.53674,862.160063 662.693226,862.176582 L760.339684,862.176582 C787.878922,862.193101 814.443531,851.965799 834.852008,833.456805 L836.606708,831.861771 C861.372566,809.459721 875.509277,777.645322 875.54048,744.265257 Z M723.166118,489.933613 C723.182637,485.034713 722.145602,480.200055 720.133939,475.732494 C708.471427,449.501629 699.231723,422.264921 692.530459,394.358261 L667.00105,286.977093 C664.480964,276.366176 653.822449,269.808 643.211656,272.346471 C636.717799,273.893782 631.437182,278.616476 629.186908,284.902999 L562.174273,471.58247 C557.084543,485.893719 561.18496,501.866078 572.54462,511.950212 L579.405569,517.853121 C586.138035,523.803751 594.817924,527.107618 603.817184,527.107618 L685.987045,527.107618 C695.880173,527.107618 705.373171,523.15032 712.313045,516.0984 C719.210702,509.129078 723.103712,499.731413 723.166118,489.933613 Z" id="Shape" fill="#FF5750" fill-rule="nonzero"></path>
            <path d="M195.407964,882.456809 C158.577613,854.709837 131.99526,815.571868 119.798672,771.118344 C112.2798,744.184491 107.824309,716.487077 106.483621,688.563898 L138.414033,686.968865 C139.61147,712.338889 143.650062,737.484984 150.45084,761.959292 C160.684146,799.838121 183.226069,833.249389 214.550417,856.910579 L242.9528,878.132415 C270.604031,898.810948 304.209385,910.011056 338.742201,910.044094 L338.742201,925.999934 L447,926 C409.003434,926.031137 372.013302,913.698538 341.631108,890.898188 L313.373813,869.678188 C279.256059,844.181516 254.638824,808.009684 243.446835,766.924269 L243.287054,766.285522 C223.507315,693.688562 226.508252,616.765373 251.907861,545.939654 L373.241959,208 L142.867688,208 L21.5335904,545.937818 C-3.86601874,616.765373 -6.86879249,693.686727 12.9127831,766.285522 L13.0725637,766.924269 C24.2645534,808.009684 48.8817884,844.181516 82.9995425,869.678188 L111.256837,890.898188 C141.637194,913.698538 178.629163,926.032972 216.625729,925.999934 L262.381757,925.999934 C248.684701,920.097026 235.736961,912.597249 223.793818,903.662125 L195.407964,882.456809 Z" id="Path" fill="#FFA4A1"></path>
            <g id="Group" transform="translate(106.000000, 286.000000)" fill="#D32144">
                <path d="M232.662,640.319014 L232.662,624.348731 C198.189833,624.3175 164.6435,613.105417 137.040833,592.408166 L108.673667,571.16712 C77.4061667,547.499209 54.8873333,514.074231 44.6555,476.161114 C37.8666667,451.662814 33.8351667,426.493957 32.6398333,401.102806 L0.7655,402.699283 C2.10383333,430.6459 6.5515,458.370223 14.0571667,485.328457 C26.2323333,529.820383 52.768,568.995617 89.5336667,596.767706 L117.900833,617.959149 C129.821167,626.90236 142.746167,634.408926 156.421,640.317177 L232.662,640.319014 Z" id="Path"></path>
                <polygon id="Rectangle" transform="translate(66.270464, 180.515301) rotate(109.688898) translate(-66.270464, -180.515301) " points="-17.9987917 164.631349 150.560728 164.520448 150.53972 196.399252 -18.0197996 196.510153"></polygon>
                <polygon id="Path" points="127.637667 56.3280429 97.6755 45.4043914 113.755667 0.752634286 143.7655 11.5476857"></polygon>
                <path d="M309.365,596.736474 C292.599167,584.231043 277.857333,569.236283 265.6345,552.244549 L291.4845,533.558969 C301.795167,547.899706 314.241667,560.579666 328.395,571.135889 L309.365,596.736474 Z" id="Path"></path>
                <path d="M233.586,484.898566 C212.819833,409.024566 215.943833,328.568731 242.510667,254.531874 L272.5205,265.295694 C248.168333,333.104637 245.301,406.774066 264.296167,476.275017 L249.075833,481.066286 L233.586,484.898566 Z" id="Path"></path>
            </g>
        </g>
        <g id="ice-cream" transform="translate(163.000000, 336.000000)">
            <polygon id="Path" fill="#F2A32C" points="62 358 233.000001 902 404 358"></polygon>
            <path d="M62,358 L232.99057,902 L301.385603,684.210415 C342.949704,551.972295 269.426978,411.089602 137.186242,369.547957 C112.841641,361.899001 87.4893888,358 62,358 Z" id="Path" fill="#FAB349"></path>
            <path d="M443.645505,271.719742 C473.489128,155.302475 403.369424,36.7389374 287.027555,6.87597415 C170.685686,-22.9810276 52.1989381,47.1662341 22.3612734,163.583501 C13.2753236,199.056576 13.2753236,236.246666 22.3612734,271.719742 C0.412000871,285.056426 -6.56481768,313.667399 6.76322826,335.630896 C15.2116732,349.557804 30.3271192,358.047495 46.6103332,357.9998 L419.402403,357.9998 C445.075425,358.059418 465.940343,337.282331 465.999922,311.58671 C466.029711,295.298904 457.551478,280.173661 443.645505,271.719742 Z" id="Path" fill="#995C32"></path>
            <path d="M443.613293,271.836377 C473.416388,155.743191 403.279175,37.530452 286.954626,7.78525546 C253.899742,-0.657235085 219.323379,-1.22880008 186,6.11223746 C303.231471,31.5052028 377.616892,146.931564 352.163438,263.905913 C351.590645,266.555354 350.952222,269.192889 350.283964,271.836377 C372.264864,285.155032 379.245769,313.727328 365.898518,335.661135 C357.437899,349.569217 342.300672,358.047431 325.999961,357.9998 L419.335257,357.9998 C445.045274,358.059338 465.934289,337.310338 465.999922,311.649452 C466.029754,295.383665 457.539304,280.278868 443.613293,271.836377 Z" id="Path" fill="#8A532D"></path>
        </g>
        <g id="salami" transform="translate(720.000000, 60.000000)">
            <path d="M90.3742857,196.968533 C90.3742857,186.645133 91.4821429,176.564067 93.1942857,166.693022 L21.3682143,114.849844 C11.1457143,107.466756 -2.95428571,116.820822 0.553928571,128.646689 L21.8214286,200.264267 C22.7446429,203.349978 22.4257143,206.661867 20.9317857,209.5214 L4.85107143,240.459289 C-0.570714286,250.895778 10.105,262.3016 21.4521429,258.214244 L93.9664286,232.042244 C91.6667857,220.652578 90.3742857,208.955956 90.3742857,196.968533 Z" id="Path" fill="#965E5E"></path>
            <path d="M770.195714,382.757422 L283.41,382.757422 C177.240357,382.757422 90.3742857,299.152422 90.3742857,196.968533 C90.3742857,94.7846444 177.240357,11.1796444 283.41,11.1796444 L770.195714,11.1796444 C876.365357,11.1796444 929.66,94.7846444 929.66,196.968533 C929.66,299.152422 876.365357,382.757422 770.195714,382.757422 Z" id="Path" fill="#773F3A"></path>
            <path d="M929.66,196.968533 C929.66,299.572467 876.801786,382.757422 770.195714,382.757422 C663.589643,382.757422 610.731429,299.572467 610.731429,196.968533 C610.731429,94.3646 663.589643,11.1796444 770.195714,11.1796444 C876.801786,11.1796444 929.66,94.3646 929.66,196.968533 Z" id="Path" fill="#C56458"></path>
            <g id="Group" transform="translate(671.428571, 48.466667)" fill="#CBA598">
                <path d="M122.099286,154.980244 C114.864643,155.109489 108.9225,161.733267 108.9225,169.778733 C108.9225,177.8242 114.881429,184.027933 122.099286,183.6402 C129.199643,183.268622 134.856429,176.644844 134.856429,168.857867 C134.856429,161.070889 129.199643,154.851 122.099286,154.980244 Z" id="Path"></path>
                <path d="M19.7567857,189.116933 C10.5582143,189.6016 2.97107143,197.372422 2.97107143,206.468 C2.97107143,215.563578 10.5582143,222.251978 19.7567857,221.428044 C28.7707143,220.620267 35.9382143,212.881756 35.9382143,204.109289 C35.9382143,195.336822 28.7707143,188.632267 19.7567857,189.116933 Z" id="Path"></path>
                <path d="M19.7567857,76.0280444 C28.7707143,76.6742667 35.9382143,70.0828 35.9382143,61.3103333 C35.9382143,52.5540222 28.7707143,44.6701111 19.7567857,43.7169333 C10.5582143,42.7314444 2.97107143,49.2906 2.97107143,58.3700222 C2.97107143,67.4494444 10.5582143,75.3818222 19.7567857,76.0280444 Z" id="Path"></path>
                <path d="M147.2275,223.948311 C140.446071,224.675311 134.856429,231.589889 134.856429,239.376867 C134.856429,247.163844 140.446071,252.689044 147.2275,251.719711 C153.891429,250.766533 159.2125,243.884267 159.2125,236.339622 C159.2125,228.794978 153.891429,223.237467 147.2275,223.948311 Z" id="Path"></path>
                <path d="M81.2092857,215.951311 C65.095,217.389156 51.5657143,232.559222 51.5657143,249.781044 C51.5657143,267.002867 65.095,278.780267 81.2092857,276.195378 C96.7360714,273.707422 108.905714,258.715067 108.905714,242.624133 C108.9225,226.5332 96.7360714,214.561933 81.2092857,215.951311 Z" id="Path"></path>
                <path d="M95.2925,66.6093556 C110.315714,67.9502667 122.099286,56.1728667 122.099286,40.3404222 C122.099286,24.5079778 110.315714,9.79026667 95.2925,7.38308889 C79.7153571,4.87897778 66.6392857,16.4948222 66.6392857,33.4258444 C66.6392857,50.3407111 79.7153571,65.2199778 95.2925,66.6093556 Z" id="Path"></path>
                <path d="M19.7567857,140.650267 C19.7567857,158.486 34.2764286,172.4444 51.5657143,171.830489 C68.2003571,171.232733 81.2092857,157.290489 81.2092857,140.650267 C81.2092857,124.010044 68.1835714,110.0678 51.5657143,109.470044 C34.2764286,108.856133 19.7567857,122.798378 19.7567857,140.650267 Z" id="Path"></path>
                <path d="M153.270357,71.7791333 C143.215714,70.8905778 134.873214,79.6145778 134.873214,91.2950444 C134.873214,102.975511 143.215714,112.749622 153.270357,113.105044 C163.073214,113.460467 170.845,104.688 170.845,93.5406667 C170.845,82.3933333 163.073214,72.6515333 153.270357,71.7791333 Z" id="Path"></path>
            </g>
            <path d="M299.020714,667.692956 C170.375,667.692956 92.8417857,613.361822 131.6,534.587333 C158.104643,480.740867 226.842143,459.916356 299.020714,459.916356 C371.199286,459.916356 439.936786,480.740867 466.441429,534.587333 C505.199643,613.345667 427.649643,667.692956 299.020714,667.692956 Z" id="Path" fill="#C56458"></path>
            <g id="Group" transform="translate(167.857143, 484.666667)" fill="#CBA598">
                <path d="M100.966071,78.2252 C92.5564286,78.2252 85.2042857,83.2334222 84.5160714,89.5987111 C83.8110714,96.2063333 90.4917857,101.731533 99.4553571,101.731533 C108.418929,101.731533 115.821429,96.2063333 115.955714,89.5987111 C116.09,83.2334222 109.375714,78.2252 100.966071,78.2252 Z" id="Path"></path>
                <path d="M91.7003571,22.4239111 C92.1535714,18.1588444 86.9164286,14.7823333 80.0007143,14.7823333 C73.085,14.7823333 66.8407143,18.1588444 66.0182143,22.4239111 C65.1789286,26.8182222 70.3825,30.4855333 77.6507143,30.4855333 C84.9189286,30.4855333 91.2303571,26.8182222 91.7003571,22.4239111 Z" id="Path"></path>
                <path d="M196.359286,30.4855333 C203.644286,30.4855333 208.528929,26.8343778 207.303571,22.4400667 C206.111786,18.175 199.582143,14.7984889 192.666429,14.7984889 C185.750714,14.7984889 180.798929,18.175 181.621429,22.4400667 C182.460714,26.8182222 189.074286,30.4855333 196.359286,30.4855333 Z" id="Path"></path>
                <path d="M38.8421429,101.844622 C29.8785714,101.844622 20.7807143,107.547533 18.4475,114.801378 C16.0303571,122.346022 21.7710714,128.679 31.3892857,128.679 C41.0075,128.679 50.2732143,122.346022 52.0525,114.801378 C53.7478571,107.531378 47.8057143,101.844622 38.8421429,101.844622 Z" id="Path"></path>
                <path d="M35.7032143,38.9833556 C20.7303571,38.9833556 5.67357143,46.9965111 1.88,57.4653111 C-2.18214286,68.6288 7.97321429,78.2413556 24.7925,78.2413556 C41.6117857,78.2413556 57.105,68.6288 59.2535714,57.4653111 C61.2678571,46.9965111 50.6760714,38.9833556 35.7032143,38.9833556 Z" id="Path"></path>
                <path d="M264.190357,67.5302222 C259.675,56.4313556 243.745357,47.9658444 228.352857,47.9658444 C212.960357,47.9658444 202.469286,56.4475111 205.087857,67.5302222 C207.874286,79.3884 224.357857,89.6148667 241.731071,89.6148667 C259.104286,89.6148667 269.007857,79.3884 264.190357,67.5302222 Z" id="Path"></path>
                <path d="M130.240357,22.4239111 C116.056429,22.4239111 104.088214,29.6131333 103.483929,38.9672 C102.846071,48.9190222 115.15,57.4491556 130.995714,57.4491556 C146.841429,57.4491556 158.776071,48.9190222 157.701786,38.9672 C156.694643,29.6131333 144.424286,22.4239111 130.240357,22.4239111 Z" id="Path"></path>
                <path d="M188.772143,101.747689 C175.31,101.747689 165.339286,110.3586 166.531071,121.522089 C167.79,133.364111 180.983571,143.477489 195.922857,143.477489 C210.862143,143.477489 220.581071,133.364111 217.794643,121.522089 C215.159286,110.342444 202.234286,101.747689 188.772143,101.747689 Z" id="Path"></path>
            </g>
            <path d="M299.020714,667.692956 C210.2075,667.692956 145.783929,641.763289 127.151786,599.807311 C100.479286,672.636556 176.417857,722.024089 299.020714,722.024089 C421.623571,722.024089 497.562143,672.6204 470.889643,599.807311 C452.240714,641.763289 387.833929,667.692956 299.020714,667.692956 Z" id="Path" fill="#AF564F"></path>
            <path d="M575.934643,124.268533 L266.103929,124.268533 C256.821429,124.268533 249.318214,117.047 249.318214,108.112978 C249.318214,99.1789556 256.821429,91.9574222 266.103929,91.9574222 L575.934643,91.9574222 C585.217143,91.9574222 592.720357,99.1789556 592.720357,108.112978 C592.720357,117.047 585.200357,124.268533 575.934643,124.268533 Z" id="Path" fill="#965E5E"></path>
            <path d="M605.091429,75.8018667 L433.961071,75.8018667 C424.678571,75.8018667 417.175357,68.5803333 417.175357,59.6463111 C417.175357,50.7122889 424.678571,43.4907556 433.961071,43.4907556 L605.091429,43.4907556 C614.373929,43.4907556 621.877143,50.7122889 621.877143,59.6463111 C621.877143,68.5803333 614.373929,75.8018667 605.091429,75.8018667 Z" id="Path" fill="#965E5E"></path>
            <path d="M576.203214,301.979644 L387.934643,301.979644 C378.652143,301.979644 371.148929,294.758111 371.148929,285.824089 C371.148929,276.890067 378.652143,269.668533 387.934643,269.668533 L576.203214,269.668533 C585.485714,269.668533 592.988929,276.890067 592.988929,285.824089 C592.988929,294.758111 585.485714,301.979644 576.203214,301.979644 Z" id="Path" fill="#965E5E"></path>
            <path d="M605.091429,350.446311 L435.790714,350.446311 C426.508214,350.446311 419.005,343.224778 419.005,334.290756 C419.005,325.356733 426.508214,318.1352 435.790714,318.1352 L605.091429,318.1352 C614.373929,318.1352 621.877143,325.356733 621.877143,334.290756 C621.877143,343.224778 614.373929,350.446311 605.091429,350.446311 Z" id="Path" fill="#965E5E"></path>
        </g>
        <g id="chocolate" transform="translate(163.000000, 1407.000000)">
            <path d="M301,100 C306.523,100 311,104.478 311,110 L311,190 C311,195.522 306.523,200 301,200 L221,200 C215.477,200 211,195.522 211,190 C211,195.522 206.523,200 201,200 L121,200 C115.477,200 111,195.522 111,190 C111,195.522 106.523,200 101,200 L21,200 C15.477,200 11,195.522 11,190 L11,110 C11,104.478 15.477,100 21,100 C15.477,100 11,95.522 11,90 L11,10 C11,4.477 15.477,0 21,0 L101,0 C106.523,0 111,4.477 111,10 C111,4.477 115.477,0 121,0 L201,0 C206.523,0 211,4.477 211,10 C211,4.477 215.477,0 221,0 L301,0 C306.523,0 311,4.477 311,10 L311,90 C311,95.522 306.523,100 301,100 Z" id="Path" fill="#C97D5D"></path>
            <path d="M301,100 C306.523,100 311,104.478 311,110 L311,190 C311,195.523 306.523,200 301,200 L272.5,200 C278.023,200 282.5,195.522 282.5,190 L282.5,110 C282.5,107.238 281.38,104.737 279.569,102.927 C277.926,101.285 277.926,98.716 279.569,97.073 C281.38,95.263 282.5,92.762 282.5,90 L282.5,10 C282.5,4.477 278.023,0 272.5,0 L301,0 C306.523,0 311,4.477 311,10 L311,90 C311,95.522 306.523,100 301,100 Z" id="Path" fill="#B46E53"></path>
            <path d="M78.499,34 L78.499,66 C78.499,68.209 76.708,70 74.499,70 L47.499,70 C45.29,70 43.499,68.209 43.499,66 L43.499,34 C43.499,31.791 45.29,30 47.499,30 L74.499,30 C76.708,30 78.499,31.791 78.499,34 Z M174.5,30 L147.5,30 C145.291,30 143.5,31.791 143.5,34 L143.5,66 C143.5,68.209 145.291,70 147.5,70 L174.5,70 C176.709,70 178.5,68.209 178.5,66 L178.5,34 C178.5,31.791 176.708,30 174.5,30 Z M274.5,30 L247.5,30 C245.291,30 243.5,31.791 243.5,34 L243.5,66 C243.5,68.209 245.291,70 247.5,70 L274.5,70 C276.709,70 278.5,68.209 278.5,66 L278.5,34 C278.5,31.791 276.708,30 274.5,30 Z M74.499,130 L47.499,130 C45.29,130 43.499,131.791 43.499,134 L43.499,166 C43.499,168.209 45.29,170 47.499,170 L74.499,170 C76.708,170 78.499,168.209 78.499,166 L78.499,134 C78.499,131.791 76.708,130 74.499,130 Z M174.5,130 L147.5,130 C145.291,130 143.5,131.791 143.5,134 L143.5,166 C143.5,168.209 145.291,170 147.5,170 L174.5,170 C176.709,170 178.5,168.209 178.5,166 L178.5,134 C178.5,131.791 176.708,130 174.5,130 Z M274.5,130 L247.5,130 C245.291,130 243.5,131.791 243.5,134 L243.5,166 C243.5,168.209 245.291,170 247.5,170 L274.5,170 C276.709,170 278.5,168.209 278.5,166 L278.5,134 C278.5,131.791 276.708,130 274.5,130 Z" id="Shape" fill="#97523D" fill-rule="nonzero"></path>
            <path d="M291,512 L31,512 C19.954,512 11,503.046 11,492 L11,200 L311,200 L311,492 C311,503.046 302.045,512 291,512 Z" id="Path" fill="#F15950"></path>
            <path d="M311,200 L311,492 C311,503.046 302.046,512 291,512 L262.5,512 C273.546,512 282.5,503.046 282.5,492 L282.5,200 L311,200 Z" id="Path" fill="#CE4D48"></path>
            <path d="M311,480 L311,492 C311,503.046 302.046,512 291,512 L31,512 C19.954,512 11,503.046 11,492 L11,480 L311,480 Z" id="Path" fill="#B04B42"></path>
            <path d="M166.102,219.755 L119.68,266.177 C118.806,267.051 117.671,267.618 116.448,267.793 L14.045,282.422 C7.16,283.406 1,278.063 1,271.108 L1,181.428 C1,175.116 6.117,169.999 12.429,169.999 L309.572,169.999 C315.884,169.999 321.001,175.116 321.001,181.428 L321.001,228.659 C321.001,234.346 316.819,239.168 311.189,239.973 L271.764,245.605 C269.983,245.859 268.187,245.261 266.915,243.989 L242.681,219.755 C240.449,217.523 236.831,217.523 234.6,219.755 L208.433,245.922 C206.201,248.154 202.583,248.154 200.352,245.922 L174.185,219.755 C171.951,217.523 168.333,217.523 166.102,219.755 Z" id="Path" fill="#FF9C41"></path>
            <path d="M282.414,244.084 L271.762,245.605 C269.981,245.859 268.185,245.26 266.913,243.989 L242.679,219.755 C240.447,217.524 236.829,217.524 234.598,219.755 L208.431,245.922 C206.2,248.153 202.581,248.153 200.35,245.922 L174.183,219.755 C171.951,217.524 168.333,217.524 166.102,219.755 L119.68,266.177 C118.806,267.051 117.671,267.618 116.448,267.793 L14.045,282.422 C7.159,283.405 0.999,278.063 0.999,271.108 L0.999,181.428 C0.999,175.116 6.116,169.999 12.428,169.999 L282.414,169.999 L282.414,244.084 Z" id="Path" fill="#FFB45A"></path>
        </g>
    </g>
</svg>