<?xml version="1.0" encoding="UTF-8"?>
<svg width="1256px" height="969px" viewBox="0 0 1256 969" version="1.1" xmlns="http://www.w3.org/2000/svg" xmlns:xlink="http://www.w3.org/1999/xlink">
    <!-- Generator: Sketch 52.2 (67145) - http://www.bohemiancoding.com/sketch -->
    <title>Artboard Copy</title>
    <desc>Created with Sketch.</desc>
    <g id="Artboard-Copy" stroke="none" stroke-width="1" fill="none" fill-rule="evenodd">
        <g id="butter-(1)" transform="translate(548.000000, 499.000000)">
            <path d="M405.341,407.062 C405.341,412.953 400.56,417.734 394.653,417.734 L74.667,417.734 C68.776,417.734 64.003,412.953 64.003,407.062 L64.003,193.746 C64.003,187.855 68.776,183.075 74.667,183.075 L394.653,183.075 C400.559,183.075 405.341,187.856 405.341,193.746 L405.341,407.062 Z" id="Path" fill="#FFE3AB"></path>
            <path d="M292.327,160.184 L266.539,201.199 C266.539,201.199 100.643,125.263 43.223,89.17 C24.083,77.139 13.684,51.187 30.661,24.187 C47.629,-2.813 75.519,-4.688 94.66,7.344 C152.08,43.436 292.327,160.184 292.327,160.184 Z" id="Path" fill="#CBD0D8"></path>
            <path d="M250.094,227.362 L245.547,192.12 L275.03,145.23 L503.057,288.531 C503.058,288.532 516.151,394.608 250.094,227.362 Z" id="Path" fill="#E5E8EC"></path>
            <path d="M319.999,407.062 C319.999,412.953 324.78,417.734 330.655,417.734 L437.341,417.734 C443.216,417.734 447.996,412.953 447.996,407.062 L447.996,193.746 C447.996,187.855 443.216,183.075 437.341,183.075 L330.655,183.075 C324.78,183.075 319.999,187.856 319.999,193.746 L319.999,407.062 Z" id="Path" fill="#FFEBBD"></path>
            <g id="Group" opacity="0.3" transform="translate(362.000000, 183.000000)" fill="#FFFFFF">
                <path d="M0.654,42.737 C0.654,48.628 5.435,53.408 11.341,53.408 C17.216,53.408 21.997,48.628 21.997,42.737 L21.997,0.074 L0.654,0.074 L0.654,42.737 Z" id="Path"></path>
                <path d="M53.997,181.406 C53.997,175.515 49.216,170.734 43.341,170.734 C37.435,170.734 32.653,175.515 32.653,181.406 L32.653,219.061 L53.997,219.061 L53.997,181.406 Z" id="Path"></path>
            </g>
            <g id="Group" opacity="0.3" transform="translate(106.000000, 183.000000)" fill="#FFFFFF">
                <path d="M64.666,0.074 L64.666,74.736 C64.666,80.627 69.447,85.408 75.338,85.408 C81.229,85.408 86.002,80.627 86.002,74.736 L86.002,0.074 L64.666,0.074 Z" id="Path"></path>
                <path d="M0.667,42.737 C0.667,48.628 5.448,53.408 11.338,53.408 C17.229,53.408 22.002,48.628 22.002,42.737 L22.002,0.074 L0.667,0.074 L0.667,42.737 Z" id="Path"></path>
            </g>
            <path d="M501.339,396.405 L10.669,396.405 C4.778,396.405 0.005,401.171 0.005,407.061 C0.005,412.951 4.778,417.733 10.669,417.733 L501.339,417.733 C507.214,417.733 511.995,412.952 511.995,407.061 C511.995,401.17 507.214,396.405 501.339,396.405 Z" id="Path" fill="#424953"></path>
        </g>
        <g id="chocolate-(1)" transform="translate(722.000000, 33.000000)">
            <path d="M247.751,495.985 C117.463,495.985 8.767,394.249 0.287,264.385 C-0.129,258.097 2.119,251.849 6.431,247.241 C10.751,242.625 16.847,239.985 23.151,239.985 C30.727,239.985 37.831,243.785 42.143,250.137 C48.167,259.001 62.975,274.537 94.359,278.857 C146.455,285.985 194.127,254.529 205.287,205.633 C209.247,188.241 208.455,170.881 202.911,154.025 L200.783,147.537 L206.839,144.409 C229.607,132.665 243.751,109.505 243.751,83.985 C243.583,59.713 225.751,38.945 201.367,34.065 L197.247,33.241 C189.431,31.681 183.751,24.769 183.751,16.793 C183.751,12.297 185.503,8.073 188.687,4.905 C191.855,1.745 196.055,0.017 200.519,0.017 C200.543,0.017 200.559,0.017 200.575,0.017 L239.767,0.129 C253.511,-0.319 267.631,0.401 281.559,2.313 C399.143,18.465 491.151,120.009 495.567,238.505 C498.111,306.601 473.543,371.065 426.383,420.025 C379.191,469.009 315.751,495.985 247.751,495.985 Z" id="Path" fill="#FFA64D"></path>
            <g id="Group" transform="translate(103.000000, 71.000000)" fill="#333333">
                <path d="M208.751,48.985 C195.519,48.985 184.751,38.217 184.751,24.985 C184.751,11.753 195.519,0.985 208.751,0.985 C221.983,0.985 232.751,11.753 232.751,24.985 C232.751,38.217 221.983,48.985 208.751,48.985 Z M208.751,16.985 C204.335,16.985 200.751,20.577 200.751,24.985 C200.751,29.393 204.335,32.985 208.751,32.985 C213.167,32.985 216.751,29.393 216.751,24.985 C216.751,20.577 213.167,16.985 208.751,16.985 Z" id="Shape" fill-rule="nonzero"></path>
                <path d="M288.751,104.985 C275.519,104.985 264.751,94.217 264.751,80.985 C264.751,67.753 275.519,56.985 288.751,56.985 C301.983,56.985 312.751,67.753 312.751,80.985 C312.751,94.217 301.983,104.985 288.751,104.985 Z M288.751,72.985 C284.335,72.985 280.751,76.577 280.751,80.985 C280.751,85.393 284.335,88.985 288.751,88.985 C293.167,88.985 296.751,85.393 296.751,80.985 C296.751,76.577 293.167,72.985 288.751,72.985 Z" id="Shape" fill-rule="nonzero"></path>
                <path d="M288.751,232.985 C275.519,232.985 264.751,222.217 264.751,208.985 C264.751,195.753 275.519,184.985 288.751,184.985 C301.983,184.985 312.751,195.753 312.751,208.985 C312.751,222.217 301.983,232.985 288.751,232.985 Z M288.751,200.985 C284.335,200.985 280.751,204.577 280.751,208.985 C280.751,213.393 284.335,216.985 288.751,216.985 C293.167,216.985 296.751,213.393 296.751,208.985 C296.751,204.577 293.167,200.985 288.751,200.985 Z" id="Shape" fill-rule="nonzero"></path>
                <path d="M168.751,208.985 C155.519,208.985 144.751,198.217 144.751,184.985 C144.751,171.753 155.519,160.985 168.751,160.985 C181.983,160.985 192.751,171.753 192.751,184.985 C192.751,198.217 181.983,208.985 168.751,208.985 Z M168.751,176.985 C164.335,176.985 160.751,180.577 160.751,184.985 C160.751,189.393 164.335,192.985 168.751,192.985 C173.167,192.985 176.751,189.393 176.751,184.985 C176.751,180.577 173.167,176.985 168.751,176.985 Z" id="Shape" fill-rule="nonzero"></path>
                <path d="M152.751,360.985 C139.519,360.985 128.751,350.217 128.751,336.985 C128.751,323.753 139.519,312.985 152.751,312.985 C165.983,312.985 176.751,323.753 176.751,336.985 C176.751,350.217 165.983,360.985 152.751,360.985 Z M152.751,328.985 C148.335,328.985 144.751,332.577 144.751,336.985 C144.751,341.393 148.335,344.985 152.751,344.985 C157.167,344.985 160.751,341.393 160.751,336.985 C160.751,332.577 157.167,328.985 152.751,328.985 Z" id="Shape" fill-rule="nonzero"></path>
                <path d="M24.751,312.985 C11.519,312.985 0.751,302.217 0.751,288.985 C0.751,275.753 11.519,264.985 24.751,264.985 C37.983,264.985 48.751,275.753 48.751,288.985 C48.751,302.217 37.983,312.985 24.751,312.985 Z M24.751,280.985 C20.335,280.985 16.751,284.577 16.751,288.985 C16.751,293.393 20.335,296.985 24.751,296.985 C29.167,296.985 32.751,293.393 32.751,288.985 C32.751,284.577 29.167,280.985 24.751,280.985 Z" id="Shape" fill-rule="nonzero"></path>
                <rect id="Rectangle" x="240.751" y="296.985" width="16" height="16"></rect>
                <rect id="Rectangle" x="200.751" y="96.985" width="16" height="16"></rect>
                <rect id="Rectangle" x="88.751" y="248.985" width="16" height="16"></rect>
                <rect id="Rectangle" x="320.751" y="136.985" width="16" height="16"></rect>
                <rect id="Rectangle" x="48.751" y="336.985" width="16" height="16"></rect>
            </g>
        </g>
        <g id="snack" transform="translate(23.000000, 33.000000)">
            <path d="M251.955147,124.122217 C254.554025,121.352461 258.922239,121.284007 261.59987,123.974779 L278.022677,140.445877 C282.758409,145.195534 284.953017,151.925093 283.923967,158.559872 L281.015325,177.363672 C280.73706,179.164541 282.285886,180.723187 284.086725,180.444104 L302.835395,177.526909 C309.450721,176.494833 316.16055,178.695894 320.896282,183.440286 C325.632016,188.189944 327.821373,194.919504 326.797573,201.559547 L323.88893,220.363349 C323.610667,222.169483 325.159493,223.722862 326.955081,223.438515 L345.703752,220.521319 C352.324327,219.494508 359.034156,221.690304 363.769889,226.439961 C368.500371,231.18962 370.694979,237.919179 369.665929,244.553957 L366.757285,263.363024 C366.479022,265.163893 368.033098,266.717272 369.828686,266.43819 L388.577357,263.520995 C395.192682,262.488919 401.902512,264.689979 406.638244,269.439638 C411.373978,274.189295 413.568585,280.918856 412.539534,287.553633 L409.630892,306.357434 C409.352627,308.163568 410.901454,309.716948 412.697043,309.437867 L431.445712,306.52067 C438.066289,305.488594 444.776118,307.689656 449.511851,312.439313 C454.247583,317.183705 456.43694,323.918531 455.413141,330.553308 L452.504497,349.35711 C452.226234,351.157979 453.77506,352.716625 455.570648,352.432277 L474.319319,349.515082 C480.939894,348.488271 487.649724,350.684066 492.380206,355.433723 C497.11594,360.183382 499.310547,366.912942 498.281496,373.552985 L495.372853,392.356787 C495.094589,394.157654 496.643416,395.711035 498.444254,395.431953 L517.192926,392.514757 C523.808249,391.48268 530.51808,393.683741 535.253813,398.433399 L550.033288,413.251069 C552.700419,415.931308 552.647917,420.28604 549.917783,422.897825 L485.52337,482 L193,188.621731 L251.955147,124.122217 Z" id="Path" fill="#962437"></path>
            <path d="M614,366.365685 C614,421.052837 557.577144,400.027005 487.973538,400.027005 C418.369933,400.027005 361.947077,421.052837 361.947077,366.365685 C361.947077,311.673271 418.369933,250.941916 487.973538,250.941916 C557.577144,250.941916 614,311.673271 614,366.365685 Z M567.362852,183.877035 C616.580442,134.613358 613.574306,51.7357039 574.941257,13.061219 C536.302952,-25.608006 511.26058,29.1948762 462.048245,78.4585526 C412.830654,127.722229 358.073787,152.78805 396.712091,191.462535 C435.345141,230.13176 518.145261,233.135451 567.362852,183.877035 Z M315.940587,155.470857 C267.117157,130.920554 260.56357,190.826027 229.314474,253.07764 C198.070632,315.334512 153.966626,356.360398 202.790056,380.9107 C251.613485,405.461003 331.160463,382.257363 362.409559,320.00575 C393.6534,257.748878 364.76927,180.021159 315.940587,155.470857 Z" id="Shape" fill="#FDBF43" fill-rule="nonzero"></path>
            <path d="M614,366.365685 C614,421.052837 557.577121,400.027005 487.973487,400.027005 C418.369854,400.027005 361.946975,421.052837 361.946975,366.365685 C361.946975,360.189971 362.672231,353.940612 364.043914,347.712295 C374.854444,382.162675 426.226803,365.618707 487.973487,365.618707 C549.720172,365.618707 601.092531,382.162675 611.903061,347.712295 C613.274744,353.940612 614,360.189971 614,366.365685 Z M411.369549,203.161672 C394.678131,171.146859 442.68698,146.486088 486.349543,102.782657 C530.012106,59.0792269 554.649817,11.0254426 586.629438,27.7377435 C583.202862,22.3563506 579.303294,17.427353 574.941241,13.061219 C536.302921,-25.608006 511.260539,29.1948762 462.048184,78.4585526 C412.830573,127.722229 358.073683,152.78805 396.712004,191.457275 C401.0688,195.823409 405.998445,199.726629 411.369549,203.161672 Z M229.319574,253.0829 C198.070464,315.334512 153.96644,356.360398 202.78989,380.9107 C208.302892,383.682932 214.204802,385.839698 220.385251,387.407299 C194.480969,362.273091 232.309944,323.751157 260.027369,268.527444 C287.750048,213.29847 296.043202,159.926417 331.649109,165.723382 C326.703698,161.693913 321.453469,158.243088 315.940466,155.470857 C267.117017,130.920554 260.563428,190.826027 229.319574,253.0829 Z" id="Shape" fill="#FCB30B" fill-rule="nonzero"></path>
            <path d="M522.2987,255.77812 C530.28003,258.137536 537.941057,261.271136 545.192515,265.047254 L545.192515,403.046754 C537.941057,402.546431 530.28003,401.930245 522.2987,401.387789 L522.2987,255.77812 Z M476.511071,251.327883 L476.511071,400.202815 C480.2812,400.08695 484.098585,400.018486 487.957978,400.018486 C491.817372,400.018486 495.634757,400.08695 499.404886,400.202815 L499.404886,251.327883 C495.634757,250.964491 491.822622,250.764361 487.957978,250.764361 C484.098585,250.764361 480.2812,250.964491 476.511071,251.327883 Z M568.086329,280.109597 L568.086329,404 C576.776528,403.978934 584.484812,403.299549 590.980144,401.456254 L590.980144,303.824888 C584.47956,295.198272 576.776528,287.172045 568.086329,280.109597 Z M384.935813,303.824888 L384.935813,401.456254 C391.436397,403.299549 399.139429,403.978934 407.829628,404 L407.829628,280.109597 C399.139429,287.172045 391.436397,295.198272 384.935813,303.824888 Z M430.723442,403.046754 C437.9749,402.551697 445.635927,401.935511 453.617257,401.387789 L453.617257,255.77812 C445.635927,258.137536 437.9749,261.271136 430.723442,265.047254 L430.723442,403.046754 Z M436.809206,101.468105 C430.781202,106.745192 424.926476,111.737883 419.449813,116.530448 L516.738023,214.109149 C524.530322,211.639136 532.154592,208.421272 539.46381,204.429224 L436.809206,101.468105 Z M470.02099,69.8319179 C467.432309,72.5863257 464.785868,75.3407335 462.055413,78.0793412 C459.324958,80.817949 456.57875,83.4775582 453.832542,86.0687025 L558.78703,191.341839 C561.711767,188.92449 564.54724,186.354412 567.277695,183.621072 C570.00815,180.882464 572.565325,178.033259 574.980728,175.105054 L470.02099,69.8319179 Z M489.932307,219.70223 L402.589254,132.093113 C396.461484,138.27078 391.488905,144.216719 388.191355,150.131058 L457.019824,219.165041 C467.705354,220.660742 478.810955,220.866138 489.932307,219.70223 Z M602.7211,73.0339824 L533.887381,4 C527.995899,7.30739555 522.067662,12.2895558 515.908386,18.435624 L603.251438,106.044739 C604.417133,94.8849122 604.207098,83.7461527 602.7211,73.0339824 Z M485.374548,52.7577523 L588.029153,155.718871 C592.004065,148.387829 595.21235,140.740793 597.68026,132.925228 L500.39205,35.346526 C495.613755,40.8448078 490.630673,46.711749 485.374548,52.7577523 Z M201.139439,302.845308 L324.083424,364.795776 C330.704777,359.987413 336.932314,354.531264 342.619012,348.437861 L212.896148,283.069401 C208.82672,289.979119 204.836055,296.567576 201.139439,302.845308 Z M229.53092,252.907849 C227.79813,256.362708 226.023335,259.754368 224.227535,263.08283 L356.864636,329.915393 C358.880972,326.697528 360.771287,323.369066 362.504075,319.908941 C364.236863,316.448816 365.77012,312.941292 367.140598,309.3969 L234.503498,242.564338 C232.912483,245.998131 231.263709,249.447724 229.53092,252.907849 Z M182,344.593277 L268.980742,388.421534 C279.58751,386.47291 290.199529,383.170781 300.391477,378.552014 L190.012836,322.93721 C186.132439,330.731709 183.275963,337.94162 182,344.593277 Z M361.480154,203.755105 L274.494162,159.926848 C269.936402,164.924807 265.877476,171.529065 261.955072,179.307764 L372.328463,234.922569 C369.939314,223.962871 366.247949,213.456097 361.480154,203.755105 Z M252.524501,200.252847 C249.710032,206.972969 246.82205,214.114416 243.729285,221.513924 L373.452149,286.882384 C374.932897,278.666561 375.578753,270.392806 375.468485,262.198049 L252.524501,200.252847 Z" id="Shape" fill="#FC9302" fill-rule="nonzero"></path>
            <path d="M0,354.349523 C17.7140618,338.743804 35.764533,323.511278 54.1934663,308.709761 C67.2713854,298.202576 80.5175092,287.88987 93.9423513,277.797927 L136.450844,245.855875 L184.026505,198.281823 L216.179894,164.116389 C218.781811,161.351618 223.155135,161.288543 225.841155,163.969215 L240.606377,178.73394 C245.347648,183.47505 247.539567,190.197756 246.514569,196.820594 L243.602525,215.590557 C243.318679,217.388185 244.874573,218.93877 246.672262,218.660189 L265.442859,215.748244 C272.071178,214.723281 278.788855,216.915126 283.524869,221.656236 C288.266141,226.397346 290.463315,233.114797 289.433061,239.74289 L286.521017,258.512854 C286.242428,260.310482 287.798322,261.861066 289.59601,261.582487 L308.366609,258.670541 C314.989671,257.640321 321.707347,259.837422 326.448619,264.578532 C331.18989,269.319644 333.387065,276.037094 332.356811,282.659931 L329.444765,301.429894 C329.166177,303.232778 330.716815,304.783364 332.514502,304.504784 L351.285101,301.592838 C357.913419,300.562618 364.631097,302.759718 369.372367,307.500829 C374.113639,312.241941 376.305557,318.95939 375.280559,325.582228 L372.368515,344.352192 C372.089925,346.149819 373.640563,347.70566 375.438252,347.421825 L394.208849,344.509878 C400.837168,343.484916 407.549589,345.67676 412.290859,350.41787 C417.032131,355.158981 419.229305,361.876431 418.199053,368.504526 L415.287007,387.274488 C415.008418,389.072116 416.559056,390.622702 418.362,390.344121 L437.132599,387.432175 C443.755661,386.401956 450.473337,388.599056 455.214609,393.340167 C459.955881,398.081278 462.147799,404.798728 461.122801,411.421566 L458.210755,430.19153 C457.932167,431.989157 459.482805,433.544998 461.280492,433.266418 L480.056348,430.354472 C486.679409,429.324252 493.397087,431.521353 498.138359,436.262463 L511.027046,449.150716 C513.702554,451.820876 513.649989,456.173027 510.911406,458.780112 L476.923534,491.163688 L476.891996,491.13215 L429.316334,538.706202 L429.027232,539.000551 L397.33115,581.171207 C387.270403,594.564058 376.98889,607.767684 366.512887,620.808367 C351.716126,639.236676 336.483083,657.286537 320.882093,675 C148.887483,663.751688 11.3590765,526.301522 0,354.349523 Z" id="Path" fill="#E43950"></path>
            <path d="M439.403393,473.625601 C434.012295,478.350274 425.75997,477.75115 420.68971,472.68487 L208.738045,260.9049 C203.483696,255.649423 194.957873,255.649423 189.698265,260.9049 C184.438658,266.155122 184.438658,274.674252 189.698265,279.929729 L401.970766,492.035537 C407.230374,497.291014 407.230374,505.810142 401.970766,511.06562 C396.716418,516.315842 388.190594,516.315842 382.930987,511.06562 L168.049721,296.353095 C163.305555,291.612654 155.800095,291.087106 150.440555,295.112803 L128.11878,311.872519 C106.117842,328.39574 84.5850091,345.497063 63.5202799,363.129189 C44.8223761,378.774746 26.5294604,394.877529 8.60471793,411.369216 C4.20242676,392.885703 1.29386413,373.824086 0,354.321009 C17.7248781,338.717498 35.7916289,323.487125 54.2318136,308.687701 C67.3177172,298.182001 80.5719282,287.870754 94.0049665,277.780238 L136.539412,245.842703 L184.14412,198.275377 L216.317139,164.12003 C218.920645,161.350394 223.296638,161.287328 225.984298,163.972878 L240.758535,178.735513 C245.502701,183.475953 247.695958,190.192454 246.670334,196.814355 L245.665749,203.268081 L227.215046,222.855244 C222.228938,228.152765 222.355168,236.451164 227.499065,241.591022 L440.055584,453.985881 C445.525576,459.446322 445.304673,468.438444 439.403393,473.625601 Z M48.7618218,424.507909 C36.6068684,436.648061 30.1480704,452.961063 28.9383613,471.36049 C63.5623567,548.962867 126.051755,611.403194 203.715119,646 C222.129006,644.791241 238.449567,638.337515 250.604521,626.192106 C287.411253,589.414277 272.068979,514.450148 216.327659,458.757854 C160.591597,403.060307 85.5685547,387.73008 48.7618218,424.507909 Z" id="Shape" fill="#C92E43" fill-rule="nonzero"></path>
        </g>
    </g>
</svg>