<?xml version="1.0" encoding="UTF-8"?>
<svg width="312px" height="496px" viewBox="0 0 312 496" version="1.1" xmlns="http://www.w3.org/2000/svg" xmlns:xlink="http://www.w3.org/1999/xlink">
    <!-- Generator: Sketch 51.3 (57544) - http://www.bohemiancoding.com/sketch -->
    <title>blood-vessel</title>
    <desc>Created with Sketch.</desc>
    <defs></defs>
    <g id="Page-1" stroke="none" stroke-width="1" fill="none" fill-rule="evenodd">
        <g id="blood-vessel" fill-rule="nonzero">
            <path d="M279.043,0 L261.264,0 C243.52,0 229.085,14.435 229.085,32.179 L229.085,163.922 C222.738,171.837 201.681,196.837 189.702,205.024 C179.412,212.056 169.197,215.622 159.339,215.622 C153.053,215.622 146.758,214.166 140.629,211.295 C134.346,208.353 127.933,204.957 121.529,201.181 C124.516,186.105 124.317,163.145 109.2,134.8 C106.195,129.166 100.358,125.666 93.968,125.666 C91.157,125.666 88.355,126.368 85.861,127.697 C77.469,132.174 74.283,142.644 78.759,151.035 C83.754,160.4 86.864,169.422 88.052,177.965 C68.055,162.007 55.66,148.259 55.528,148.111 C52.258,144.439 47.561,142.334 42.642,142.334 C38.41,142.334 34.337,143.885 31.174,146.702 C27.733,149.767 25.692,153.988 25.426,158.588 C25.159,163.188 26.701,167.616 29.764,171.055 C30.201,171.546 33.076,174.75 38.055,179.698 C33.725,178.98 29.959,177.774 27.273,176.189 C23.544,173.989 19.923,172.873 16.511,172.873 C11.456,172.873 6.961,175.303 3.514,179.899 C0.749,183.585 -0.415,188.128 0.237,192.689 C0.888,197.25 3.278,201.285 6.964,204.049 C16.622,211.292 30.204,214.965 47.335,214.965 C58.952,214.965 69.451,213.261 75.618,212.003 C82.434,217.079 89.356,221.834 96.278,226.2 C83.506,234.255 67.898,246.468 56.433,263.143 C53.822,266.94 52.847,271.526 53.685,276.057 C54.524,280.588 57.078,284.52 60.874,287.131 C63.764,289.117 67.138,290.167 70.632,290.167 C70.633,290.167 70.635,290.167 70.635,290.167 C76.324,290.167 81.642,287.371 84.861,282.689 C98.739,262.503 122.275,250.371 133.259,245.541 C141.825,248.631 150.609,250.196 159.396,250.196 C162.036,250.196 164.705,250.052 167.376,249.768 C166.829,265.238 162.269,289.895 141.74,310.718 C118.213,308.388 97.951,303.458 91.756,301.645 C87.443,299.996 84.035,299.227 81.041,299.227 C74.974,299.227 71.166,302.509 68.527,305.368 C65.375,308.782 63.901,313.025 64.377,317.314 C64.821,321.321 66.862,325.106 70.279,328.26 C75.104,332.714 82.756,336.509 103.057,340.22 C100.907,344.799 100.794,350.249 103.091,355.04 C105.944,360.992 112.053,364.837 118.655,364.837 C121.246,364.837 123.752,364.266 126.102,363.139 C135.517,358.626 144.191,353.381 151.994,347.487 C150.913,357.624 147.784,368.53 140.062,375.175 C136.569,378.18 134.455,382.366 134.111,386.961 C133.767,391.556 135.232,396.01 138.238,399.503 C141.518,403.314 146.286,405.501 151.318,405.501 C155.441,405.501 159.435,404.018 162.564,401.327 C193.105,375.047 187.548,327.715 184.498,311.341 C190.553,301.083 195.085,289.947 197.978,278.215 C201.902,262.301 202.202,248.09 201.613,238.237 C204.439,236.622 207.218,234.866 209.903,233.002 C218.491,227.037 224.722,221.299 229.086,216.602 L229.086,463.103 C229.086,480.847 243.521,495.282 261.265,495.282 L279.044,495.282 C296.788,495.282 311.223,480.847 311.223,463.103 L311.223,32.179 C311.222,14.435 296.787,0 279.043,0 Z" id="Shape" fill="#F42E2E"></path>
            <path d="M237.585,32.179 C237.585,19.122 248.207,8.5 261.264,8.5 L279.043,8.5 C292.1,8.5 302.722,19.122 302.722,32.179 L302.722,32.595 C302.722,45.652 292.1,56.274 279.043,56.274 L261.264,56.274 C248.207,56.274 237.585,45.652 237.585,32.595 L237.585,32.179 Z" id="Path" fill="#F77474"></path>
            <path d="M302.722,463.102 C302.722,476.159 292.1,486.781 279.043,486.781 L261.264,486.781 C248.207,486.781 237.585,476.159 237.585,463.102 L237.585,204.402 C237.585,202.545 236.379,200.904 234.608,200.347 C234.188,200.215 233.759,200.151 233.335,200.151 C231.971,200.151 230.657,200.81 229.847,201.972 C229.803,202.035 229.726,202.152 229.615,202.323 C227.302,205.925 220.278,215.443 205.052,226.019 C201.868,228.231 198.542,230.274 195.166,232.092 C193.679,232.892 192.808,234.498 192.945,236.181 C193.7,245.404 193.755,259.829 189.723,276.178 C186.903,287.611 182.415,298.431 176.384,308.339 C175.829,309.25 175.637,310.337 175.847,311.383 C178.542,324.851 185.15,370.676 157.018,394.883 C155.431,396.248 153.406,397 151.316,397 C148.762,397 146.342,395.891 144.678,393.957 C143.153,392.185 142.41,389.926 142.584,387.595 C142.759,385.264 143.831,383.141 145.603,381.617 C158.234,370.748 160.938,351.988 160.982,338.164 C160.987,336.493 160.013,334.974 158.492,334.282 C156.972,333.59 155.186,333.854 153.929,334.956 C144.895,342.88 134.296,349.783 122.424,355.473 C121.23,356.046 119.961,356.336 118.652,356.336 C115.301,356.336 112.2,354.385 110.753,351.365 C108.963,347.631 110.054,343.109 113.349,340.614 C114.706,339.586 115.319,337.847 114.906,336.196 C114.493,334.544 113.135,333.298 111.453,333.029 C86.436,329.033 79.514,325.217 76.041,322.012 C74.177,320.292 73.034,318.29 72.822,316.376 C72.616,314.519 73.271,312.754 74.769,311.132 C77.399,308.282 79.059,307.725 81.038,307.725 C82.964,307.725 85.523,308.35 88.861,309.637 C88.967,309.678 89.075,309.715 89.185,309.747 C97.129,312.095 118.584,317.128 142.927,319.368 C144.168,319.484 145.389,319.049 146.279,318.183 C172.65,292.547 176.17,261.21 175.921,244.812 C175.902,243.57 175.34,242.397 174.384,241.604 C173.428,240.811 172.175,240.478 170.947,240.688 C158.7,242.806 146.492,241.543 134.664,236.992 C133.636,236.596 132.493,236.616 131.478,237.046 C120.63,241.648 93.688,254.838 77.853,277.871 C76.22,280.246 73.52,281.665 70.63,281.665 C68.862,281.666 67.152,281.133 65.685,280.124 C63.759,278.8 62.464,276.805 62.038,274.507 C61.613,272.209 62.107,269.882 63.431,267.957 C75.884,249.845 93.762,237.275 106.567,229.919 C107.875,229.168 108.687,227.779 108.7,226.271 C108.713,224.763 107.925,223.36 106.631,222.586 C97.453,217.098 88.215,210.862 79.176,204.05 C78.186,203.303 76.918,203.028 75.707,203.293 C70.313,204.477 59.455,206.463 47.329,206.463 C32.079,206.463 20.211,203.362 12.058,197.248 C10.188,195.846 8.976,193.799 8.646,191.485 C8.315,189.172 8.906,186.867 10.308,184.997 C12.138,182.557 14.165,181.371 16.505,181.371 C18.377,181.371 20.544,182.09 22.947,183.508 C29.195,187.193 39.007,189.206 49.5,188.925 C51.228,188.88 52.756,187.792 53.365,186.174 C53.974,184.556 53.543,182.731 52.275,181.557 C42.237,172.267 36.354,165.678 36.107,165.4 C34.552,163.655 33.77,161.409 33.905,159.075 C34.04,156.742 35.076,154.6 36.821,153.046 C38.426,151.617 40.491,150.83 42.636,150.83 C45.133,150.83 47.516,151.898 49.179,153.766 C49.336,153.942 65.207,171.599 90.278,190.441 C91.551,191.398 93.253,191.563 94.685,190.868 C96.118,190.173 97.042,188.736 97.08,187.143 C97.374,174.55 93.732,161.054 86.253,147.031 C83.982,142.774 85.599,137.464 89.855,135.193 C91.14,134.508 92.522,134.161 93.962,134.161 C97.207,134.161 100.17,135.937 101.694,138.795 C116.621,166.784 115.856,188.753 112.585,202.253 C112.148,204.053 112.929,205.929 114.513,206.889 C122.037,211.449 129.609,215.519 137.018,218.989 C144.284,222.392 151.791,224.118 159.333,224.118 C170.934,224.118 182.763,220.054 194.492,212.038 C210.036,201.415 236.597,168.142 236.804,167.848 C237.309,167.132 237.579,166.277 237.579,165.401 L237.579,54.356 C243.464,60.755 251.899,64.773 261.258,64.773 L278.934,64.773 L278.934,314.919 C278.934,317.266 280.837,319.169 283.184,319.169 C285.531,319.169 287.434,317.266 287.434,314.919 L287.434,63.919 C287.434,63.831 287.413,63.749 287.408,63.662 C293.37,62.054 298.652,58.775 302.716,54.356 L302.716,463.102 L302.722,463.102 Z" id="Path" fill="#F77474"></path>
            <path d="M283.19,336.314 C280.843,336.314 278.94,338.217 278.94,340.564 L278.94,398.914 C278.94,401.261 280.843,403.164 283.19,403.164 C285.537,403.164 287.44,401.261 287.44,398.914 L287.44,340.564 C287.44,338.217 285.537,336.314 283.19,336.314 Z" id="Shape" fill="#F42E2E"></path>
        </g>
    </g>
</svg>