<?xml version="1.0" encoding="UTF-8"?>
<svg width="2116px" height="2827px" viewBox="0 0 2116 2827" version="1.1" xmlns="http://www.w3.org/2000/svg" xmlns:xlink="http://www.w3.org/1999/xlink">
    <!-- Generator: Sketch 51.3 (57544) - http://www.bohemiancoding.com/sketch -->
    <title>blood-pressure-gauge (1)</title>
    <desc>Created with Sketch.</desc>
    <defs></defs>
    <g id="Page-1" stroke="none" stroke-width="1" fill="none" fill-rule="evenodd">
        <g id="Artboard-4" transform="translate(-4169.000000, -14948.000000)" fill-rule="nonzero">
            <g id="blood-pressure-gauge-(1)" transform="translate(3119.000000, 14948.000000)">
                <path d="M3114.17085,1963.38493 L2966.27879,1975 L2948,1742.69866 L3095.89206,1731.08359 C3127.46452,1729.42429 3154.05186,1752.65443 3157.37527,1784.18104 L3165.68382,1903.6503 C3169.00723,1933.51762 3145.74331,1960.06634 3114.17085,1963.38493 Z" id="Shape" fill="#BCBFC2"></path>
                <path d="M1488.70143,1175.26738 C1425.6162,1231.70572 1349.24988,1273.20449 1287.82479,1331.30277 C1236.36053,1381.1013 1191.53681,1442.51948 1158.33406,1507.25757 C1088.60829,1640.05364 1057.06567,1789.44923 1050.42512,1937.18486 C1045.44471,2099.86005 1083.62787,2249.25563 1196.51723,2370.43205 C1304.42616,2486.62862 1455.49868,2544.7269 1611.5516,2559.66646 C1672.97669,2566.30626 1671.31655,2471.68906 1611.5516,2465.04925 C1472.10005,2450.10969 1335.96878,2390.35146 1244.66121,2280.7947 C1150.03337,2164.59814 1136.75227,2023.50231 1148.37324,1879.08658 C1159.9942,1754.59026 1193.19695,1628.43399 1257.94231,1522.19713 C1291.14506,1465.7588 1332.6485,1415.96027 1382.45263,1374.4615 C1437.23716,1327.98287 1501.98253,1291.46395 1555.10693,1243.32537 C1601.59078,1201.8266 1533.52514,1135.42856 1488.70143,1175.26738 Z" id="Shape" fill="#0B2C48"></path>
                <path d="M1405.9251,925.975296 C1354.47342,997.350422 1293.06337,1067.06566 1251.57008,1145.08033 C1218.37546,1208.15603 1208.41707,1284.51081 1198.45868,1354.22605 C1178.54191,1491.99664 1178.54191,1638.06667 1248.25062,1764.21806 C1402.60563,2044.7389 1762.76733,2048.05867 2039.94246,2031.45981 C2101.35251,2028.14003 2101.35251,1933.52649 2039.94246,1936.84627 C1797.62168,1950.12536 1465.67542,1965.06434 1329.57746,1716.08134 C1266.50767,1601.54916 1274.80632,1462.11869 1296.38283,1337.62719 C1306.34122,1276.21138 1316.2996,1216.45546 1351.15396,1163.33909 C1394.30698,1098.60351 1440.77945,1037.1877 1487.25193,974.112009 C1523.76602,924.31541 1442.43918,876.178697 1405.9251,925.975296 Z" id="Shape" fill="#36505F"></path>
                <path d="M1696.45071,939.241518 C1646.66531,920.987708 1605.17747,889.458399 1563.68963,857.92909 C1528.83985,831.378093 1495.64958,804.827096 1465.77833,773.297787 C1434.24758,738.449604 1411.01439,698.623108 1386.12169,660.45605 C1369.52655,632.245616 1351.2719,602.375744 1344.63385,569.186998 C1328.03871,482.896258 1392.75974,403.243267 1457.48077,345.162961 C1641.68677,180.878667 1874.01866,68.0369298 2117.96714,24.8915597 C2222.51649,6.63774925 2327.06584,0 2433.27471,0 C2559.39773,0 2690.4993,8.29718656 2805.00573,64.7180551 C2853.13162,87.9501775 2897.93849,121.138924 2926.15022,165.943731 C2961,224.024037 2961,295.379841 2961,363.416771 C2961,527.701065 2961,693.644796 2961,857.92909 C2859.76968,823.080906 2755.22033,798.189347 2649.01146,786.573286 C2587.60946,779.935536 2524.54795,776.616662 2463.14595,786.573286 C2366.89417,801.508221 2278.93995,847.972466 2187.66671,882.82065 C2098.05298,916.009396 2005.12022,939.241518 1908.86844,950.857579 C1837.50936,962.473641 1764.49076,964.133078 1696.45071,939.241518 Z" id="Shape" fill="#2C424F"></path>
                <path d="M2418.15493,343.373264 C2413.17746,338.395554 2406.54085,335.077081 2401.56338,331.758608 C2320.26479,283.640745 2214.07887,321.803188 2142.73521,383.194943 C2071.39155,444.586698 2019.95775,527.54853 1948.61408,588.940285 C1862.33803,661.946697 1747.85634,700.109139 1635.0338,691.812956 C1522.21127,683.516773 1422.66197,653.650514 1348,569.029446 C1404.41127,791.367154 1435.93521,997.112496 1459.16338,1224.42791 C1465.8,1292.45662 1475.75493,1367.12226 1527.18873,1410.26242 C1567.00845,1441.78791 1621.76056,1448.42486 1671.53521,1446.76562 C1903.8169,1443.44715 2131.12113,1337.25601 2283.76338,1161.37692 C2303.67324,1138.14761 2321.92394,1113.25906 2348.47042,1098.32593 C2398.24507,1068.45967 2462.95211,1075.09662 2516.04507,1099.98517 C2519.36338,1085.05204 2522.68169,1068.45967 2526,1053.52654 L2418.15493,343.373264 Z" id="Shape" fill="#9EA8AD"></path>
                <g id="Group" transform="translate(2346.000000, 190.000000)" fill="#527F99">
                    <path d="M523.204211,948.784541 C553.065263,902.307246 576.290526,859.149758 589.562105,806.03285 C604.492632,747.936232 611.128421,678.22029 614.446316,618.463768 C619.423158,517.209662 617.764211,410.975845 614.446316,309.721739 C612.787368,203.487923 631.035789,102.233816 589.562105,0.979710145 C617.764211,158.670531 531.498947,291.462802 407.077895,359.518841 C285.974737,427.574879 133.351579,399.356522 0.635789474,354.53913 C20.5431579,558.707246 40.4505263,761.215459 60.3578947,965.383575 C63.6757895,993.601932 66.9936842,1023.48019 85.2421053,1045.05894 C101.831579,1063.31787 125.056842,1071.61739 148.282105,1076.5971 C285.974737,1108.13527 446.892632,1068.29758 523.204211,948.784541 Z" id="Shape"></path>
                    <path d="M765.410526,1627.68502 L707.347368,1632.66473 C700.711579,1632.66473 695.734737,1627.68502 695.734737,1622.70531 C695.734737,1616.0657 700.711579,1611.08599 705.688421,1611.08599 L763.751579,1606.10628 C770.387368,1606.10628 775.364211,1611.08599 775.364211,1616.0657 C775.364211,1621.04541 772.046316,1627.68502 765.410526,1627.68502 Z" id="Shape"></path>
                    <path d="M770.387368,1707.36039 L712.324211,1712.3401 C705.688421,1712.3401 700.711579,1707.36039 700.711579,1702.38068 C700.711579,1695.74106 705.688421,1690.76135 710.665263,1690.76135 L768.728421,1685.78164 C775.364211,1685.78164 780.341053,1690.76135 780.341053,1695.74106 C782,1702.38068 777.023158,1707.36039 770.387368,1707.36039 Z" id="Shape"></path>
                </g>
                <path d="M1943.94731,1873.85843 L2101.51146,1844 L2138,2071.25584 L1980.43585,2101.11427 C1957.21587,2106.09068 1935.65446,2089.50266 1930.67875,2066.27943 L1907.45877,1923.62248 C1904.14163,1900.39926 1919.06876,1878.83484 1943.94731,1873.85843 Z" id="Shape" fill="#BCBFC2"></path>
                <g id="Group" transform="translate(1948.000000, 1926.000000)" fill="#527F99">
                    <path d="M22.2461538,88.24 L80.4,78.32 C87.0461538,76.6666667 92.0307692,81.6266667 93.6923077,88.24 C95.3538462,94.8533333 90.3692308,99.8133333 85.3846154,101.466667 L27.2307692,111.386667 C20.5846154,113.04 15.6,108.08 13.9384615,101.466667 C12.2769231,94.8533333 15.6,89.8933333 22.2461538,88.24 Z" id="Shape"></path>
                    <path d="M8.95384615,10.5333333 L67.1076923,0.613333333 C73.7538462,-1.04 78.7384615,3.92 80.4,10.5333333 C82.0615385,17.1466667 77.0769231,22.1066667 72.0923077,23.76 L13.9384615,33.68 C7.29230769,35.3333333 2.30769231,30.3733333 0.646153846,23.76 C-1.01538462,17.1466667 3.96923077,12.1866667 8.95384615,10.5333333 Z" id="Shape"></path>
                </g>
                <ellipse id="Oval" fill="#0B2C48" transform="translate(2535.000000, 1905.000000) rotate(-95.227110) translate(-2535.000000, -1905.000000) " cx="2535" cy="1905" rx="299" ry="498"></ellipse>
                <path d="M1778,2011.16835 C1778,2036.10304 1784.63556,2059.37541 1787.95334,2082.64778 C1791.27112,2107.58247 1791.27112,2132.51715 1792.93001,2157.45183 C1794.5889,2197.34733 1857.62672,2199.00964 1855.96783,2157.45183 C1854.30894,2132.51715 1854.30894,2107.58247 1850.99116,2082.64778 C1847.67338,2059.37541 1841.03782,2034.44073 1841.03782,2011.16835 C1841.03782,1969.61055 1778,1969.61055 1778,2011.16835 Z" id="Shape" fill="#2C424F"></path>
                <path d="M1727.88111,2253.99448 C1787.62593,2245.70129 1839.07286,2219.16309 1902.13684,2234.09083 C1981.7966,2253.99448 2014.98816,2131.25531 1935.3284,2111.35166 C1893.83895,2101.39984 1854.00907,2099.7412 1812.51961,2104.71711 C1772.68973,2109.69303 1734.51943,2124.62076 1694.68955,2131.25531 C1661.49798,2136.23122 1641.58304,2179.3558 1649.88093,2209.21127 C1659.8384,2245.70129 1694.68955,2258.97039 1727.88111,2253.99448 Z" id="Shape" fill="#4F6673"></path>
                <path d="M1658.65795,2407 L1820,2415.28671 L1803.3668,2644 L1642.02475,2635.71329 C1618.73827,2634.05594 1600.44175,2614.16783 1602.10507,2590.96503 L1612.08499,2446.77622 C1615.41163,2423.57343 1635.37147,2407 1658.65795,2407 Z" id="Shape" fill="#BCBFC2"></path>
                <g id="Group" transform="translate(1641.000000, 2471.000000)" fill="#527F99">
                    <path d="M12.3333333,79.8571429 L70.6666667,83.1714286 C77.3333333,83.1714286 82.3333333,88.1428571 80.6666667,94.7714286 C80.6666667,101.4 75.6666667,104.714286 69,104.714286 L10.6666667,101.4 C4,101.4 -1,96.4285714 0.666666667,89.8 C0.666666667,83.1714286 5.66666667,78.2 12.3333333,79.8571429 Z" id="Shape"></path>
                    <path d="M17.3333333,0.314285714 L75.6666667,3.62857143 C82.3333333,3.62857143 87.3333333,8.6 85.6666667,15.2285714 C85.6666667,21.8571429 80.6666667,25.1714286 74,25.1714286 L15.6666667,21.8571429 C9,21.8571429 4,16.8857143 5.66666667,10.2571429 C5.66666667,5.28571429 10.6666667,0.314285714 17.3333333,0.314285714 Z" id="Shape"></path>
                </g>
                <circle id="Oval" fill="#929EA5" cx="2015.5" cy="2541.5" r="285.5"></circle>
                <circle id="Oval" fill="#BBC2C6" cx="2014.5" cy="2540.5" r="245.5"></circle>
                <circle id="Oval" fill="#F7F8F9" cx="2015" cy="2541" r="216"></circle>
                <rect id="Rectangle-path" fill="#2C424F" transform="translate(2011.000000, 2446.500000) rotate(-92.722496) translate(-2011.000000, -2446.500000) " x="1918" y="2440" width="186" height="13"></rect>
            </g>
        </g>
    </g>
</svg>