<?xml version="1.0" encoding="UTF-8"?>
<svg width="3016px" height="1844px" viewBox="0 0 3016 1844" version="1.1" xmlns="http://www.w3.org/2000/svg" xmlns:xlink="http://www.w3.org/1999/xlink">
    <!-- Generator: Sketch 51.3 (57544) - http://www.bohemiancoding.com/sketch -->
    <title>shutterstock_556181722</title>
    <desc>Created with Sketch.</desc>
    <defs></defs>
    <g id="shutterstock_556181722" stroke="none" stroke-width="1" fill="none" fill-rule="evenodd">
        <g id="check-(1)" transform="translate(1222.000000, 890.000000)" fill-rule="nonzero">
            <path d="M612.092248,0 L92.9077517,0 C41.5954671,0 0,41.5972847 0,92.9077517 L0,612.092248 C0,663.404533 41.5954671,705 92.9077517,705 L612.092248,705 C663.404533,705 705,663.404533 705,612.092248 L705,92.9077517 C705,41.5972847 663.404533,0 612.092248,0 Z" id="Shape" fill="#B4BBCC"></path>
            <path d="M569.685525,94 L135.318111,94 C112.497336,94 94,112.499154 94,135.318111 L94,569.681889 C94,592.502664 112.499154,611 135.318111,611 L569.681889,611 C592.502664,611 611,592.500846 611,569.681889 L611,135.319929 C611.003636,112.500972 592.502664,94 569.685525,94 Z" id="Shape" fill="#FFFFFF"></path>
            <path d="M135.629006,176.947117 C135.629006,154.126342 154.12816,135.629006 176.947117,135.629006 L611,135.629006 L611,135.318111 C611,112.497336 592.500846,94 569.681889,94 L135.318111,94 C112.497336,94 94,112.499154 94,135.318111 L94,569.681889 C94,592.502664 112.499154,611 135.318111,611 L135.629006,611 L135.629006,176.947117 Z" id="Shape" fill="#000000" opacity="0.1"></path>
            <path d="M430.974182,562 C414.238912,562 397.999918,555.507621 385.82749,543.649128 L173.533509,336.863027 C147.952505,311.94348 147.428959,271.021871 172.364622,245.457446 C197.298466,219.891204 238.251343,219.373485 263.834165,244.289399 L419.028988,395.459749 C481.174541,306.937046 610.799266,151.352458 831.431796,10.2076928 C861.528379,-9.04237574 901.525058,-0.264765915 920.783526,29.7956412 C940.047448,59.8614981 931.268975,99.8366806 901.183299,119.084933 C604.845756,308.660959 489.44583,525.118416 488.315117,527.283754 C478.851309,545.393024 461.376167,557.967241 441.186951,561.191632 C437.782089,561.734782 434.369955,562 430.974182,562 Z" id="Shape" fill="#7ED321"></path>
        </g>
        <g id="measuring-tape" transform="translate(776.000000, 446.000000)" fill-rule="nonzero">
            <path d="M188,327 C291.824516,327 376,411.175484 376,515 L376,327 L188,327 Z" id="Shape" fill="#C1A634"></path>
            <circle id="Oval" fill="#F7AD2B" cx="187.5" cy="514.5" r="187.5"></circle>
            <path d="M188,641 C117.980667,641 61,584.019333 61,514 C61,443.980667 117.980667,387 188,387 C258.019333,387 315,443.980667 315,514 C315,584.019333 258.019333,641 188,641 Z" id="Shape" fill="#F0C419"></path>
            <path d="M676.147034,0 L182.798379,0 C81.8435172,0 0,81.7804235 0,182.657459 L0,326.541176 L0,514 C0,450.917082 31.2874138,395.235765 79.0960345,361.263388 C75.2955517,359.219482 72.6206897,355.349365 72.6206897,350.729412 L72.6206897,229.788235 C72.6206897,223.100188 78.030931,217.694118 84.7241379,217.694118 C91.4173448,217.694118 96.8275862,223.100188 96.8275862,229.788235 L96.8275862,349.991671 C112.102138,341.537882 128.695966,335.224753 146.209655,331.269976 C145.592379,329.818682 145.241379,328.222259 145.241379,326.541176 L145.241379,157.223529 C145.241379,150.535482 150.651621,145.129412 157.344828,145.129412 C164.038034,145.129412 169.448276,150.535482 169.448276,157.223529 L169.448276,326.541176 C169.448276,326.867718 169.290931,327.145882 169.266724,327.472424 C175.294241,326.879812 181.406483,326.541176 187.603448,326.541176 C193.727793,326.541176 199.779517,326.879812 205.758621,327.460329 L205.758621,326.541176 L217.862069,326.541176 L217.862069,253.976471 C217.862069,247.288424 223.27231,241.882353 229.965517,241.882353 C236.658724,241.882353 242.068966,247.288424 242.068966,253.976471 L242.068966,326.541176 L290.482759,326.541176 L290.482759,157.223529 C290.482759,150.535482 295.893,145.129412 302.586207,145.129412 C309.279414,145.129412 314.689655,150.535482 314.689655,157.223529 L314.689655,326.541176 L363.103448,326.541176 L363.103448,253.976471 C363.103448,247.288424 368.51369,241.882353 375.206897,241.882353 C381.900103,241.882353 387.310345,247.288424 387.310345,253.976471 L387.310345,326.541176 L435.724138,326.541176 L435.724138,157.223529 C435.724138,150.535482 441.134379,145.129412 447.827586,145.129412 C454.520793,145.129412 459.931034,150.535482 459.931034,157.223529 L459.931034,326.541176 L508.344828,326.541176 L508.344828,253.976471 C508.344828,247.288424 513.755069,241.882353 520.448276,241.882353 C527.141483,241.882353 532.551724,247.288424 532.551724,253.976471 L532.551724,326.541176 L580.965517,326.541176 L580.965517,157.223529 C580.965517,150.535482 586.375759,145.129412 593.068966,145.129412 C599.762172,145.129412 605.172414,150.535482 605.172414,157.223529 L605.172414,326.541176 L676.147034,326.541176 C690.429103,326.541176 702,314.9792 702,300.708141 L702,25.8330353 C702,11.5619765 690.429103,0 676.147034,0 Z" id="Shape" fill="#F0C419"></path>
            <path d="M0.3,520 C0.24,517.996 0,516.028 0,514 L0,520 L0.3,520 Z" id="Shape" fill="#F0C419"></path>
            <path d="M85,218 C78.364,218 73,223.42229 73,230.130402 L73,351.43442 C73,356.068234 75.652,359.949962 79.42,362 C85.072,357.924185 90.904,354.103108 97,350.694466 L97,230.130402 C97,223.42229 91.636,218 85,218 Z" id="Shape" fill="#F2E9C0"></path>
            <path d="M169,157.084985 C169,150.401988 163.636,145 157,145 C150.364,145 145,150.401988 145,157.084985 L145,326.274771 C145,327.954584 145.348,329.549802 145.96,331 C153.436,329.308102 161.032,327.954584 168.82,327.19323 C168.844,326.87902 169,326.601066 169,326.274771 L169,157.084985 Z" id="Shape" fill="#F2E9C0"></path>
            <path d="M230,242 C223.364,242 218,247.427857 218,254.142857 L218,327 L242,327 L242,254.142857 C242,247.427857 236.636,242 230,242 Z" id="Shape" fill="#F2E9C0"></path>
            <path d="M302,145 C295.364,145 290,150.4236 290,157.133333 L290,327 L314,327 L314,157.133333 C314,150.4236 308.636,145 302,145 Z" id="Shape" fill="#F2E9C0"></path>
            <path d="M375,242 C368.364,242 363,247.427857 363,254.142857 L363,327 L387,327 L387,254.142857 C387,247.427857 381.636,242 375,242 Z" id="Shape" fill="#F2E9C0"></path>
            <path d="M448,145 C441.364,145 436,150.4236 436,157.133333 L436,327 L460,327 L460,157.133333 C460,150.4236 454.636,145 448,145 Z" id="Shape" fill="#F2E9C0"></path>
            <path d="M520,242 C513.364,242 508,247.427857 508,254.142857 L508,327 L532,327 L532,254.142857 C532,247.427857 526.636,242 520,242 Z" id="Shape" fill="#F2E9C0"></path>
            <path d="M593,145 C586.364,145 581,150.4236 581,157.133333 L581,327 L605,327 L605,157.133333 C605,150.4236 599.636,145 593,145 Z" id="Shape" fill="#F2E9C0"></path>
            <path d="M187.5,581 C150.828273,581 121,551.171727 121,514.5 C121,477.828273 150.828273,448 187.5,448 C224.171727,448 254,477.828273 254,514.5 C254,551.171727 224.171727,581 187.5,581 Z" id="Shape" fill="#DBAE1F"></path>
            <path d="M675.9408,327 L641,327 L641,0 L675.9408,0 C690.3368,0 702,11.5782222 702,25.8693333 L702,301.142778 C702,315.421778 690.3368,327 675.9408,327 Z" id="Shape" fill="#A5A5A4"></path>
        </g>
        <g id="clock" transform="translate(1543.000000, 104.000000)" fill-rule="nonzero">
            <path d="M362,0 C561.665701,0 724,162.334943 724,362.001436 C724,561.66793 561.664265,724 362,724 C162.335735,724 0,562.232341 0,362.001436 C0,162.334943 162.334299,0 362,0 Z" id="Shape" fill="#324D5B"></path>
            <path d="M361.500717,62 C527.073439,62 661,195.928317 661,361.5 C661,527.071683 527.072004,661 361.500717,661 C195.929431,661 62,527.071683 62,361.501435 C62,195.931186 195.927996,62 361.500717,62 Z" id="Shape" fill="#DFE1E2"></path>
            <path d="M350,328 C374.749429,328 395,348.249143 395,373 C395,397.749429 374.750857,418 350,418 C325.249143,418 305,397.750857 305,373 C305,348.247715 325.249143,328 350,328 Z" id="Shape" fill="#BEBFC0"></path>
            <path d="M410.219406,297.390805 L229.390805,478.220841 C224.869732,482.741914 224.869732,490.088121 229.390805,494.609195 C233.911879,499.130268 241.258086,499.130268 245.779159,494.609195 L426.609195,313.779159 C431.130268,309.258086 431.130268,301.911879 426.609195,297.390805 C422.086686,292.869732 414.740479,292.869732 410.219406,297.390805 Z" id="Shape" fill="#E2574C"></path>
            <path d="M373.608103,334 L312,396.517435 C315.956615,403.337309 321.608103,409.0215 328.391897,413 L390,350.482565 C386.043385,343.659805 380.391897,337.9785 373.608103,334 Z" id="Shape" fill="#C04A41"></path>
            <path d="M362.052844,350.928839 L542.708907,350.928839 C548.918506,350.928839 554,356.018694 554,362.238512 C554,368.458329 548.918506,373.548185 542.708907,373.548185 L362.052844,373.548185 C355.843244,373.548185 350.761751,368.458329 350.761751,362.238512 C350.761751,356.017258 355.841811,350.928839 362.052844,350.928839 Z M285.272835,255.363037 L378.423998,348.667479 C386.892676,357.150092 386.892676,370.155426 378.423998,378.63804 C369.955319,387.120653 356.97135,387.120653 348.502672,378.63804 L255.351509,285.333598 C246.88283,276.850985 246.88283,263.845651 255.351509,255.363037 C263.255418,246.878988 276.80559,246.878988 285.272835,255.363037 Z" id="Shape" fill="#324D5B"></path>
            <path d="M362,317 C386.749429,317 407,337.249143 407,362 C407,386.750857 386.750857,407 362,407 C337.249143,407 317,386.750857 317,362 C317,337.249143 337.249143,317 362,317 Z" id="Shape" fill="#E4E7E7"></path>
            <path d="M361.5,339 C373.875428,339 384,349.124572 384,361.5 C384,373.875428 373.875428,384 361.5,384 C349.124572,384 339,373.875428 339,361.5 C339,349.124572 349.124572,339 361.5,339 Z" id="Shape" fill="#324D5B"></path>
            <path d="M361.58377,62 C272.888781,62 193.798568,100.41623 139,161.42864 C192.104536,113.974225 262.15513,84.5976137 338.98759,84.5976137 C504.513605,84.5976137 638.402386,218.48783 638.402386,384.01241 C638.402386,460.843436 609.590931,530.895464 561.57136,584 C622.58377,529.201432 661,450.109784 661,361.41623 C660.998566,195.888781 527.10835,62 361.58377,62 Z" id="Shape" fill="#CFD1D2"></path>
        </g>
        <g id="goal-(2)" transform="translate(2042.000000, 852.000000)" fill-rule="nonzero">
            <polygon id="Shape" fill="#0065E3" points="528 144.754337 528 272 574 272 574 130"></polygon>
            <rect id="Rectangle-path" fill="#FC0023" x="528" y="0" width="181" height="146"></rect>
            <rect id="Rectangle-path" fill="#D4001D" x="603" y="0" width="106" height="146"></rect>
            <rect id="Rectangle-path" fill="#FF7300" x="48" y="563" width="259" height="219"></rect>
            <rect id="Rectangle-path" fill="#FF4F19" x="178" y="563" width="130" height="219"></rect>
            <rect id="Rectangle-path" fill="#FFB012" x="261" y="413" width="259" height="369"></rect>
            <rect id="Rectangle-path" fill="#FF9900" x="391" y="413" width="130" height="369"></rect>
            <rect id="Rectangle-path" fill="#FFDB2D" x="475" y="242" width="259" height="540"></rect>
            <rect id="Rectangle-path" fill="#FFC812" x="604" y="242" width="130" height="540"></rect>
            <rect id="Rectangle-path" fill="#4FB53F" x="0" y="736" width="782" height="46"></rect>
        </g>
        <g id="medal-(1)" transform="translate(107.000000, 731.000000)" fill-rule="nonzero">
            <path d="M270.68,196.543 L362.993,4.535 C364.329,1.762 367.126,0 370.204,0 L499.165,0 C501.915,0 504.47,1.414 505.938,3.742 C507.399,6.07 507.563,8.988 506.376,11.465 L383.985,266.039 C382.993,268.098 381.172,269.637 378.977,270.266 C378.258,270.473 377.516,270.575 376.774,270.575 C375.274,270.575 373.79,270.153 372.493,269.337 L273.61,206.771 C270.18,204.598 268.923,200.199 270.68,196.543 Z" id="Shape" fill="#FF4F19"></path>
            <path d="M439.982,0 L499.165,0 C501.915,0 504.47,1.414 505.938,3.742 C507.399,6.07 507.563,8.988 506.376,11.465 L383.985,266.039 C382.993,268.098 381.172,269.637 378.977,270.266 C378.258,270.473 377.516,270.575 376.774,270.575 C375.274,270.575 373.79,270.153 372.493,269.337 L324.955,239.258 L439.982,0 Z" id="Shape" fill="#E3001E"></path>
            <path d="M237.319,196.543 L145.007,4.535 C143.671,1.762 140.874,0 137.796,0 L8.835,0 C6.085,0 3.53,1.414 2.062,3.742 C0.601,6.07 0.437,8.988 1.624,11.465 L124.015,266.039 C125.007,268.098 126.828,269.637 129.023,270.266 C129.742,270.473 130.484,270.575 131.226,270.575 C132.726,270.575 134.21,270.153 135.507,269.337 L234.39,206.771 C237.819,204.598 239.077,200.199 237.319,196.543 Z" id="Shape" fill="#FF4F19"></path>
            <path d="M68.018,0 L8.835,0 C6.085,0 3.53,1.414 2.062,3.742 C0.601,6.07 0.437,8.988 1.624,11.465 L124.015,266.039 C125.007,268.098 126.828,269.637 129.023,270.266 C129.742,270.473 130.484,270.575 131.226,270.575 C132.726,270.575 134.21,270.153 135.507,269.337 L183.045,239.258 L68.018,0 Z" id="Shape" fill="#E3001E"></path>
            <circle id="Oval" fill="#FFCD00" cx="254.109" cy="352" r="160"></circle>
            <path d="M254.109,512 C298.292,512 338.292,494.091 367.245,465.137 L140.972,238.863 C112.017,267.817 94.109,307.817 94.109,352 C94.109,440.365 165.743,512 254.109,512 Z" id="Shape" fill="#FF9100"></path>
            <path d="M295.944,431.207 C293.319,431.207 290.678,430.574 288.241,429.293 L254.108,411.352 L219.975,429.293 C214.366,432.234 207.686,431.746 202.577,428.031 C197.444,424.304 194.929,418.109 195.999,411.863 L202.515,373.863 L174.898,346.953 C170.359,342.523 168.757,336.031 170.718,330.004 C172.679,323.977 177.788,319.66 184.062,318.746 L222.218,313.203 L239.288,278.629 C242.085,272.949 247.765,269.418 254.1,269.414 L254.108,269.414 C260.452,269.414 266.131,272.945 268.936,278.629 L285.999,313.203 L324.147,318.746 C330.428,319.66 335.538,323.976 337.499,330.004 C339.46,336.032 337.858,342.524 333.319,346.949 L305.702,373.863 L312.225,411.863 C313.295,418.109 310.78,424.304 305.647,428.031 C302.749,430.137 299.358,431.207 295.944,431.207 Z M186.069,335.492 L216.694,365.34 C218.577,367.18 219.436,369.828 218.991,372.422 L211.764,414.567 L216.256,422.212 L212.537,415.13 L250.389,395.232 C252.717,394.005 255.498,394.005 257.826,395.232 L295.678,415.13 L304.342,413.216 L296.459,414.568 L289.225,372.423 C288.78,369.829 289.639,367.181 291.522,365.341 L322.147,335.493 L322.999,326.665 L321.851,334.583 L279.538,328.435 C276.929,328.056 274.679,326.419 273.515,324.056 L254.593,285.712 C254.593,285.72 254.116,285.716 253.827,285.712 C253.71,285.712 253.632,285.712 253.632,285.712 L234.702,324.06 C233.538,326.419 231.288,328.056 228.679,328.435 L186.367,334.583 L180.484,341.224 L186.069,335.492 Z" id="Shape" fill="#FFFFFF"></path>
            <path d="M382.132,360 C380.046,360 377.968,359.117 376.444,357.68 C374.928,356.16 374.131,354.078 374.131,352 C374.131,349.918 374.928,347.84 376.444,346.32 C379.405,343.359 384.764,343.359 387.725,346.32 C389.248,347.84 390.131,349.918 390.131,352 C390.131,354.078 389.248,356.16 387.725,357.68 C386.288,359.117 384.21,360 382.132,360 Z" id="Shape" fill="#FFFFFF"></path>
            <path d="M254.132,232 C251.968,232 249.968,231.117 248.445,229.68 C246.929,228.16 246.132,226.078 246.132,224 C246.132,221.918 246.929,219.84 248.445,218.32 C251.406,215.359 256.765,215.359 259.726,218.32 C261.249,219.84 262.132,221.918 262.132,224 C262.132,226.078 261.249,228.16 259.726,229.68 C258.288,231.117 256.21,232 254.132,232 Z" id="Shape" fill="#FFFFFF"></path>
            <path d="M163.569,269.519 C161.491,269.519 159.405,268.636 157.967,267.117 C156.444,265.679 155.569,263.597 155.569,261.519 C155.569,259.359 156.444,257.277 157.967,255.839 C160.85,252.878 166.287,252.878 169.248,255.839 C170.764,257.359 171.568,259.359 171.568,261.519 C171.568,263.597 170.763,265.679 169.248,267.117 C167.726,268.637 165.726,269.519 163.569,269.519 Z" id="Shape" fill="#FFFFFF"></path>
            <path d="M344.608,450.48 C342.53,450.48 340.444,449.679 338.928,448.16 C337.49,446.719 336.608,444.637 336.608,442.48 C336.608,440.398 337.491,438.32 338.928,436.878 C341.967,433.839 347.248,433.839 350.287,436.878 C351.725,438.319 352.607,440.398 352.607,442.48 C352.607,444.636 351.724,446.636 350.287,448.16 C348.765,449.68 346.687,450.48 344.608,450.48 Z" id="Shape" fill="#FFFFFF"></path>
            <path d="M344.608,269.519 C342.53,269.519 340.444,268.636 338.928,267.199 C337.49,265.679 336.608,263.597 336.608,261.519 C336.608,259.359 337.491,257.277 338.928,255.839 C341.889,252.878 347.248,252.878 350.287,255.839 C351.725,257.277 352.607,259.359 352.607,261.519 C352.607,263.597 351.724,265.679 350.287,267.199 C348.765,268.637 346.687,269.519 344.608,269.519 Z" id="Shape" fill="#FFFFFF"></path>
            <path d="M372.366,311.039 C370.288,311.039 368.21,310.16 366.686,308.637 C365.248,307.199 364.366,305.117 364.366,303.039 C364.366,300.879 365.249,298.797 366.686,297.359 C369.725,294.398 375.006,294.398 378.045,297.359 C379.49,298.797 380.365,300.879 380.365,303.039 C380.365,305.117 379.49,307.199 378.045,308.637 C376.53,310.16 374.444,311.039 372.366,311.039 Z" id="Shape" fill="#FFFFFF"></path>
            <path d="M205.085,241.758 C203.007,241.758 200.929,240.879 199.491,239.36 C197.968,237.919 197.085,235.84 197.085,233.758 C197.085,231.68 197.968,229.598 199.491,228.078 C202.444,225.117 207.811,225.117 210.764,228.078 C212.287,229.598 213.084,231.598 213.084,233.758 C213.084,235.84 212.287,237.918 210.764,239.438 C209.249,240.879 207.249,241.758 205.085,241.758 Z" id="Shape" fill="#FFFFFF"></path>
            <path d="M372.366,408.957 C370.288,408.957 368.21,408.16 366.686,406.637 C365.248,405.117 364.366,403.117 364.366,400.957 C364.366,398.879 365.249,396.797 366.686,395.359 C369.647,392.32 375.084,392.32 378.045,395.359 C379.49,396.797 380.365,398.879 380.365,400.957 C380.365,403.117 379.49,405.117 378.045,406.637 C376.53,408.16 374.444,408.957 372.366,408.957 Z" id="Shape" fill="#FFFFFF"></path>
            <path d="M303.085,241.758 C301.007,241.758 298.929,240.879 297.405,239.438 C295.967,237.918 295.085,235.84 295.085,233.758 C295.085,231.598 295.968,229.52 297.405,228.078 C300.366,225.117 305.725,225.117 308.764,228.078 C310.209,229.598 311.084,231.598 311.084,233.758 C311.084,235.84 310.209,237.918 308.764,239.438 C307.249,240.879 305.171,241.758 303.085,241.758 Z" id="Shape" fill="#FFFFFF"></path>
            <path d="M379.569,334.48 C377.405,334.48 375.327,333.597 373.889,332.16 C372.366,330.637 371.569,328.558 371.569,326.48 C371.569,324.398 372.366,322.32 373.889,320.796 C376.85,317.839 382.209,317.839 385.17,320.796 C386.686,322.319 387.568,324.398 387.568,326.48 C387.568,328.558 386.685,330.636 385.17,332.16 C383.726,333.598 381.647,334.48 379.569,334.48 Z" id="Shape" fill="#FFFFFF"></path>
            <path d="M228.608,234.559 C226.444,234.559 224.444,233.68 222.928,232.239 C221.405,230.719 220.608,228.719 220.608,226.559 C220.608,224.481 221.405,222.399 222.928,220.879 C225.889,217.918 231.248,217.918 234.287,220.879 C235.725,222.399 236.607,224.481 236.607,226.559 C236.607,228.637 235.724,230.719 234.287,232.239 C232.765,233.68 230.687,234.559 228.608,234.559 Z" id="Shape" fill="#FFFFFF"></path>
            <path d="M360.851,430.637 C358.765,430.637 356.687,429.758 355.171,428.321 C353.726,426.798 352.851,424.798 352.851,422.637 C352.851,420.559 353.726,418.481 355.171,416.957 C358.132,414 363.569,414 366.53,416.957 C367.968,418.48 368.85,420.559 368.85,422.637 C368.85,424.797 367.967,426.797 366.53,428.321 C365.007,429.758 362.929,430.637 360.851,430.637 Z" id="Shape" fill="#FFFFFF"></path>
            <path d="M324.765,253.277 C322.687,253.277 320.609,252.398 319.085,250.957 C317.647,249.437 316.765,247.359 316.765,245.277 C316.765,243.117 317.648,241.117 319.085,239.597 C322.046,236.636 327.491,236.636 330.366,239.597 C331.889,241.038 332.764,243.117 332.764,245.277 C332.764,247.359 331.889,249.437 330.366,250.957 C328.929,252.398 326.851,253.277 324.765,253.277 Z" id="Shape" fill="#FFFFFF"></path>
            <path d="M360.21,288.398 C358.132,288.398 356.046,287.597 354.53,286.078 C353.085,284.637 352.21,282.558 352.21,280.398 C352.21,278.32 353.085,276.238 354.53,274.718 C357.569,271.757 362.85,271.757 365.889,274.718 C367.405,276.238 368.209,278.32 368.209,280.398 C368.209,282.558 367.404,284.636 365.889,286.078 C364.366,287.598 362.366,288.398 360.21,288.398 Z" id="Shape" fill="#FFFFFF"></path>
            <path d="M182.53,253.84 C180.366,253.84 178.366,253.039 176.85,251.52 C175.405,250.079 174.53,248 174.53,245.918 C174.53,243.758 175.405,241.68 176.85,240.238 C179.811,237.277 185.248,237.277 188.209,240.238 C189.647,241.679 190.529,243.758 190.529,245.918 C190.529,248 189.646,250.078 188.209,251.52 C186.687,253.039 184.608,253.84 182.53,253.84 Z" id="Shape" fill="#FFFFFF"></path>
            <path d="M379.726,384.398 C377.648,384.398 375.57,383.597 374.046,382.078 C372.608,380.558 371.726,378.558 371.726,376.398 C371.726,374.32 372.609,372.238 374.046,370.718 C377.085,367.757 382.366,367.757 385.405,370.718 C386.928,372.238 387.725,374.32 387.725,376.398 C387.725,378.558 386.928,380.558 385.405,382.078 C383.89,383.598 381.89,384.398 379.726,384.398 Z" id="Shape" fill="#FFFFFF"></path>
            <path d="M278.53,234.32 C276.366,234.32 274.366,233.519 272.85,232 C271.405,230.48 270.53,228.48 270.53,226.32 C270.53,224.238 271.405,222.16 272.85,220.718 C275.811,217.679 281.17,217.679 284.209,220.718 C285.647,222.159 286.529,224.238 286.529,226.32 C286.529,228.48 285.646,230.558 284.209,232 C282.687,233.519 280.608,234.32 278.53,234.32 Z" id="Shape" fill="#FFFFFF"></path>
            <path d="M295.944,431.207 C299.358,431.207 302.749,430.137 305.647,428.031 C310.78,424.304 313.295,418.109 312.225,411.863 L311.863,409.755 L292.27,390.162 L296.459,414.566 L304.342,413.214 L295.678,415.128 L257.826,395.23 C255.498,394.003 252.717,394.003 250.389,395.23 L212.537,415.128 L216.256,422.21 L211.764,414.565 L218.991,372.42 C219.436,369.826 218.577,367.178 216.694,365.338 L186.069,335.49 L180.483,341.22 L186.366,334.579 L228.678,328.431 C229.187,328.357 229.666,328.198 230.142,328.032 L216.187,314.076 L184.061,318.743 C177.788,319.657 172.678,323.973 170.717,330.001 C168.756,336.029 170.358,342.521 174.897,346.95 L202.514,373.86 L195.998,411.86 C194.928,418.106 197.443,424.301 202.576,428.028 C207.685,431.743 214.365,432.231 219.974,429.29 L254.107,411.349 L288.24,429.29 C290.679,430.574 293.319,431.207 295.944,431.207 Z" id="Shape" fill="#FFCD00"></path>
            <path d="M126.132,360 C124.046,360 121.968,359.117 120.444,357.68 C119.006,356.16 118.132,354.078 118.132,352 C118.132,349.918 119.007,347.84 120.444,346.32 C123.405,343.359 128.764,343.359 131.725,346.32 C133.248,347.84 134.131,349.918 134.131,352 C134.131,354.078 133.248,356.16 131.725,357.68 C130.288,359.117 128.21,360 126.132,360 Z" id="Shape" fill="#FFCD00"></path>
            <path d="M254.132,488 C252.046,488 249.968,487.117 248.445,485.68 C246.929,484.16 246.132,482.078 246.132,480 C246.132,477.918 246.929,475.84 248.445,474.32 C251.492,471.359 256.765,471.359 259.726,474.32 C261.249,475.84 262.132,477.918 262.132,480 C262.132,482.078 261.249,484.16 259.726,485.68 C258.288,487.117 256.21,488 254.132,488 Z" id="Shape" fill="#FFCD00"></path>
            <path d="M163.569,450.48 C161.491,450.48 159.405,449.679 157.967,448.16 C156.444,446.637 155.569,444.558 155.569,442.48 C155.569,440.398 156.444,438.32 157.967,436.878 C160.928,433.917 166.287,433.839 169.248,436.878 C170.764,438.319 171.568,440.398 171.568,442.48 C171.568,444.558 170.763,446.636 169.248,448.16 C167.812,449.68 165.726,450.48 163.569,450.48 Z" id="Shape" fill="#FFCD00"></path>
            <path d="M135.89,408.957 C133.726,408.957 131.648,408.16 130.21,406.637 C128.687,405.117 127.89,403.039 127.89,400.957 C127.89,398.879 128.687,396.797 130.21,395.359 C133.171,392.32 138.53,392.32 141.491,395.359 C143.007,396.797 143.889,398.879 143.889,400.957 C143.889,403.039 143.006,405.117 141.491,406.637 C140.046,408.16 137.968,408.957 135.89,408.957 Z" id="Shape" fill="#FFCD00"></path>
            <path d="M303.085,478.238 C301.007,478.238 298.929,477.437 297.405,475.918 C295.967,474.48 295.085,472.398 295.085,470.238 C295.085,468.16 295.968,466.078 297.405,464.558 C300.444,461.597 305.725,461.597 308.764,464.558 C310.209,466.078 311.084,468.16 311.084,470.238 C311.084,472.32 310.209,474.398 308.764,475.918 C307.249,477.437 305.171,478.238 303.085,478.238 Z" id="Shape" fill="#FFCD00"></path>
            <path d="M135.89,311.039 C133.726,311.039 131.648,310.16 130.21,308.637 C128.687,307.199 127.89,305.117 127.89,303.039 C127.89,300.879 128.687,298.797 130.21,297.359 C133.171,294.398 138.53,294.398 141.491,297.359 C143.007,298.879 143.889,300.879 143.889,303.039 C143.889,305.117 143.006,307.199 141.491,308.637 C140.046,310.16 137.968,311.039 135.89,311.039 Z" id="Shape" fill="#FFCD00"></path>
            <path d="M205.085,478.238 C203.007,478.238 200.929,477.437 199.491,475.918 C197.968,474.398 197.085,472.398 197.085,470.238 C197.085,468.16 197.968,466.078 199.491,464.636 C202.444,461.597 207.811,461.597 210.764,464.636 C212.287,466.077 213.084,468.159 213.084,470.238 C213.084,472.398 212.287,474.398 210.764,475.918 C209.327,477.437 207.249,478.238 205.085,478.238 Z" id="Shape" fill="#FFCD00"></path>
            <path d="M128.687,385.519 C126.609,385.519 124.531,384.636 123.007,383.199 C121.569,381.679 120.687,379.597 120.687,377.519 C120.687,375.437 121.57,373.359 123.007,371.839 C126.046,368.878 131.327,368.878 134.366,371.839 C135.811,373.359 136.686,375.437 136.686,377.519 C136.686,379.597 135.811,381.679 134.366,383.199 C132.851,384.637 130.765,385.519 128.687,385.519 Z" id="Shape" fill="#FFCD00"></path>
            <path d="M279.647,485.437 C277.491,485.437 275.405,484.558 273.967,483.117 C272.444,481.597 271.647,479.519 271.647,477.437 C271.647,475.359 272.444,473.277 273.967,471.757 C276.928,468.796 282.287,468.796 285.248,471.757 C286.764,473.277 287.646,475.359 287.646,477.437 C287.646,479.519 286.763,481.597 285.248,483.117 C283.812,484.558 281.726,485.437 279.647,485.437 Z" id="Shape" fill="#FFCD00"></path>
            <path d="M147.405,289.359 C145.249,289.359 143.171,288.48 141.725,287.039 C140.209,285.519 139.405,283.437 139.405,281.359 C139.405,279.199 140.21,277.199 141.725,275.679 C144.686,272.718 150.045,272.718 153.006,275.679 C154.529,277.199 155.404,279.277 155.404,281.359 C155.404,283.437 154.529,285.519 153.006,287.039 C151.569,288.48 149.491,289.359 147.405,289.359 Z" id="Shape" fill="#FFCD00"></path>
            <path d="M183.491,466.719 C181.327,466.719 179.249,465.84 177.811,464.399 C176.288,462.879 175.491,460.879 175.491,458.719 C175.491,456.637 176.288,454.559 177.811,453.117 C180.764,450.078 186.131,450.078 189.084,453.117 C190.607,454.558 191.49,456.637 191.49,458.719 C191.49,460.879 190.607,462.879 189.084,464.399 C187.648,465.84 185.569,466.719 183.491,466.719 Z" id="Shape" fill="#FFCD00"></path>
            <path d="M147.968,431.598 C145.89,431.598 143.812,430.719 142.288,429.2 C140.85,427.759 139.968,425.68 139.968,423.598 C139.968,421.438 140.851,419.438 142.288,417.918 C145.327,414.957 150.686,414.957 153.647,417.918 C155.17,419.438 155.967,421.438 155.967,423.598 C155.967,425.68 155.17,427.758 153.647,429.2 C152.132,430.719 150.132,431.598 147.968,431.598 Z" id="Shape" fill="#FFCD00"></path>
            <path d="M325.726,466.078 C323.57,466.078 321.492,465.277 320.046,463.758 C318.53,462.32 317.726,460.238 317.726,458.078 C317.726,456 318.531,453.918 320.046,452.48 C322.929,449.519 328.366,449.437 331.327,452.48 C332.85,453.918 333.725,456 333.725,458.078 C333.725,460.238 332.85,462.32 331.327,463.758 C329.89,465.277 327.812,466.078 325.726,466.078 Z" id="Shape" fill="#FFCD00"></path>
            <path d="M128.444,335.598 C126.366,335.598 124.288,334.719 122.764,333.2 C121.326,331.759 120.444,329.68 120.444,327.598 C120.444,325.438 121.327,323.438 122.764,321.918 C125.725,318.957 131.17,318.957 134.131,321.918 C135.647,323.438 136.444,325.438 136.444,327.598 C136.444,329.68 135.647,331.758 134.131,333.2 C132.608,334.719 130.53,335.598 128.444,335.598 Z" id="Shape" fill="#FFCD00"></path>
            <path d="M229.648,485.68 C227.57,485.68 225.492,484.797 224.046,483.278 C222.53,481.84 221.726,479.758 221.726,477.68 C221.726,475.52 222.531,473.438 224.046,472 C227.007,469.039 232.366,469.039 235.327,472 C236.85,473.438 237.647,475.52 237.647,477.68 C237.647,479.758 236.85,481.84 235.327,483.278 C233.89,484.797 231.812,485.68 229.648,485.68 Z" id="Shape" fill="#FFCD00"></path>
            <path d="M157.96,255.851 C156.443,257.289 155.569,259.364 155.569,261.519 C155.569,263.597 156.444,265.679 157.967,267.117 C159.405,268.637 161.49,269.519 163.569,269.519 C165.719,269.519 167.713,268.639 169.235,267.126 L157.96,255.851 Z" id="Shape" fill="#FFCD00"></path>
            <path d="M344.608,450.48 C346.681,450.48 348.753,449.681 350.276,448.167 L338.964,436.855 C338.954,436.865 338.939,436.868 338.928,436.878 C337.49,438.319 336.608,440.398 336.608,442.48 C336.608,444.636 337.491,446.718 338.928,448.16 C340.444,449.68 342.53,450.48 344.608,450.48 Z" id="Shape" fill="#FFCD00"></path>
        </g>
        <g id="goal-(1)" transform="translate(550.000000, 1243.000000)" fill-rule="nonzero">
            <path d="M112.117188,298.078125 L46.207031,431.796875 C43.214844,438.3125 47.976562,445.738281 55.148438,445.738281 L85.140625,445.738281 C90.519531,445.738281 95.402344,442.609375 97.648438,437.722656 L156.847656,318.613281 L112.117188,298.078125 Z" id="Shape" fill="#465059"></path>
            <path d="M278.796875,298.078125 L344.707031,431.796875 C347.703125,438.3125 342.9375,445.738281 335.765625,445.738281 L305.773438,445.738281 C300.398438,445.738281 295.511719,442.609375 293.269531,437.722656 L234.066406,318.613281 L278.796875,298.078125 Z" id="Shape" fill="#465059"></path>
            <polygon id="Shape" fill="#DFB297" points="497.914062 181.191406 512 152.890625 449.488281 152.890625 430.539062 181.191406 464.257812 195.957031"></polygon>
            <polygon id="Shape" fill="#DFB297" points="497.914062 210.726562 512 239.027344 449.488281 239.027344 430.539062 210.726562 464.257812 195.957031"></polygon>
            <path d="M278.796875,298.078125 L234.066406,318.613281 L277.890625,406.78125 C293.207031,400.773438 307.710938,393.136719 321.195312,384.097656 L278.796875,298.078125 Z" id="Shape" fill="#3C474D"></path>
            <path d="M69.71875,384.09375 C83.207031,393.136719 97.710938,400.773438 113.027344,406.78125 L156.851562,318.613281 L112.117188,298.078125 L69.71875,384.09375 Z" id="Shape" fill="#3C474D"></path>
            <path d="M195.457031,391.417969 C87.683594,391.417969 0,303.734375 0,195.957031 C0,88.183594 87.683594,0.5 195.457031,0.5 C303.234375,0.5 390.917969,88.183594 390.917969,195.957031 C390.917969,303.734375 303.234375,391.417969 195.457031,391.417969 Z" id="Shape" fill="#465059"></path>
            <path d="M195.457031,338.988281 C116.589844,338.988281 52.425781,274.824219 52.425781,195.957031 C52.425781,117.089844 116.589844,52.925781 195.457031,52.925781 C274.324219,52.925781 338.488281,117.089844 338.488281,195.957031 C338.488281,274.824219 274.324219,338.988281 195.457031,338.988281 Z" id="Shape" fill="#49C3E0"></path>
            <path d="M195.457031,286.5625 C145.5,286.5625 104.851562,245.917969 104.851562,195.957031 C104.851562,146 145.5,105.351562 195.457031,105.351562 C245.417969,105.351562 286.0625,146 286.0625,195.957031 C286.0625,245.917969 245.417969,286.5625 195.457031,286.5625 Z" id="Shape" fill="#DA5B65"></path>
            <path d="M233.636719,195.957031 C233.636719,217.042969 216.542969,234.136719 195.457031,234.136719 C174.371094,234.136719 157.28125,217.042969 157.28125,195.957031 C157.28125,174.871094 174.371094,157.78125 195.457031,157.78125 C216.542969,157.78125 233.636719,174.871094 233.636719,195.957031 Z" id="Shape" fill="#FFCD38"></path>
            <path d="M497.914062,181.191406 L205.300781,181.191406 C196.910156,181.191406 190.152344,188.191406 190.554688,196.671875 C190.925781,204.613281 197.769531,210.726562 205.71875,210.726562 L497.914062,210.726562 C501.34375,210.726562 504.125,207.945312 504.125,204.511719 L504.125,187.402344 C504.125,183.972656 501.34375,181.191406 497.914062,181.191406 Z" id="Shape" fill="#AD4F3D"></path>
        </g>
        <g id="trophy-(1)" transform="translate(2312.000000, 104.000000)" fill-rule="nonzero">
            <rect id="Rectangle-path" fill="#FF4F19" x="232" y="360" width="48" height="120"></rect>
            <path d="M319.969,448 L191.969,448 C178.735,448 167.969,458.766 167.969,472 L167.969,504 C167.969,508.422 171.547,512 175.969,512 L335.969,512 C340.391,512 343.969,508.422 343.969,504 L343.969,472 C343.969,458.765 333.203,448 319.969,448 Z" id="Shape" fill="#FF9600"></path>
            <path d="M319.969,448 L256,448 L256,512 L335.969,512 C340.391,512 343.969,508.422 343.969,504 L343.969,472 C343.969,458.765 333.203,448 319.969,448 Z" id="Shape" fill="#FFD200"></path>
            <path d="M135.992,304.008 C133.89,304.008 131.75,303.586 129.695,302.703 C52.625,269.68 0.516,183.5 0.031,88.273 C-0.016,79.664 3.304,71.562 9.383,65.453 C15.445,59.359 23.516,56 32.094,56 L128,56 C136.836,56 144,63.164 144,72 C144,80.836 136.836,88 128,88 L32.094,88 C32.453,170.789 76.766,245.211 142.305,273.297 C150.422,276.774 154.188,286.18 150.703,294.305 C148.109,300.367 142.203,304.008 135.992,304.008 Z" id="Shape" fill="#FF9600"></path>
            <path d="M376.008,304.008 C369.797,304.008 363.891,300.367 361.297,294.305 C357.813,286.18 361.578,276.774 369.695,273.297 C435.234,245.211 479.547,170.789 479.968,88.117 L384,88 C375.164,88 368,80.836 368,72 C368,63.164 375.164,56 384,56 L479.906,56 C488.484,56 496.554,59.359 502.617,65.453 C508.695,71.562 512.015,79.664 511.969,88.281 C511.485,183.5 459.375,269.679 382.305,302.703 C380.25,303.586 378.109,304.008 376.008,304.008 Z" id="Shape" fill="#FF9600"></path>
            <path d="M391.969,8 L119.969,8 C115.547,8 111.969,11.578 111.969,16 L111.969,232 C111.969,311.398 176.571,376 255.969,376 C335.367,376 399.969,311.398 399.969,232 L399.969,16 C399.969,11.578 396.39,8 391.969,8 Z" id="Shape" fill="#FFD200"></path>
            <path d="M256,8 L119.969,8 C115.547,8 111.969,11.578 111.969,16 L111.969,232 C111.969,311.398 176.571,376 255.969,376 C255.98,376 255.99,375.999 256,376 L256,8 Z" id="Shape" fill="#FF9600"></path>
            <path d="M266.787,111.858 L282.318,159.657 L332.577,159.657 C343.594,159.657 348.174,173.755 339.262,180.23 L298.602,209.771 L314.133,257.57 C317.537,268.048 305.545,276.76 296.633,270.285 L255.973,240.744 L215.313,270.285 C206.4,276.761 194.408,268.048 197.812,257.57 L213.343,209.771 L172.683,180.23 C163.77,173.754 168.351,159.657 179.368,159.657 L229.627,159.657 L245.158,111.858 C248.559,101.381 263.382,101.381 266.787,111.858 Z" id="Shape" fill="#FFD200"></path>
            <path d="M332.577,159.657 L282.318,159.657 L266.787,111.858 C265.089,106.63 260.547,104.015 256,104.004 L256,240.766 L296.631,270.286 C305.544,276.762 317.536,268.049 314.131,257.571 L298.6,209.772 L339.26,180.231 C348.174,173.755 343.593,159.657 332.577,159.657 Z" id="Shape" fill="#FFFFFF"></path>
            <path d="M112,32 C103.2,32 96,24.8 96,16 C96,7.2 103.2,0 112,0 L400,0 C408.8,0 416,7.2 416,16 C416,24.8 408.8,32 400,32 L112,32 Z" id="Shape" fill="#FF4F19"></path>
        </g>
        <g id="pencil" transform="translate(399.021122, 400.021122) rotate(-45.000000) translate(-399.021122, -400.021122) translate(350.021122, 143.521122)" fill-rule="nonzero">
            <path d="M89.158,0 L9.158,0 C4.74,0 1.158,3.582 1.158,8 L1.158,384 L45.44,509.466 C46.678,512.973 51.638,512.973 52.875,509.466 L97.158,384 L97.158,8 C97.158,3.582 93.576,0 89.158,0 Z" id="Shape" fill="#E6BE94"></path>
            <path d="M48.939,280 L48.939,512 L49.483,512 C50.914,511.881 52.303,511.091 52.876,509.466 L97.158,384 L97.158,280 L48.939,280 Z" id="Shape" fill="#FFD788"></path>
            <path d="M89.158,0 L9.158,0 C4.74,0 1.158,3.582 1.158,8 L1.158,384 C1.158,375.163 8.322,368 17.158,368 C25.994,368 33.158,375.163 33.158,384 C33.158,375.163 40.322,368 49.158,368 C57.994,368 65.158,375.163 65.158,384 C65.158,375.163 72.322,368 81.158,368 C89.994,368 97.158,375.163 97.158,384 L97.158,8 C97.158,3.582 93.576,0 89.158,0 Z" id="Shape" fill="#FFCD00"></path>
            <path d="M33.158,384 C33.158,375.163 40.322,368 49.158,368 C57.25,368 63.869,374.028 64.939,381.826 L64.939,0 L32.939,0 L32.939,381.826 C33.037,382.544 33.158,383.255 33.158,384 Z" id="Shape" fill="#FFCD00"></path>
            <path d="M1.158,384 C1.158,375.163 8.322,368 17.158,368 C25.25,368 31.869,374.028 32.939,381.826 L32.939,0 L8.939,0 C4.521,0 0.939,3.582 0.939,8 L0.939,381.826 C1.037,382.544 1.158,383.255 1.158,384 Z" id="Shape" fill="#FF9100"></path>
            <path d="M96.719,384 C96.719,375.163 89.555,368 80.719,368 C72.627,368 66.008,374.028 64.938,381.826 L64.938,0 L88.938,0 C93.356,0 96.938,3.582 96.938,8 L96.938,381.826 C96.84,382.544 96.719,383.255 96.719,384 Z" id="Shape" fill="#FFE671"></path>
            <path d="M26.57,456 L45.441,509.466 C46.679,512.973 51.639,512.973 52.877,509.466 L71.746,456 L26.57,456 Z" id="Shape" fill="#5C546A"></path>
            <path d="M48.939,512.031 C50.563,512.122 52.227,511.307 52.876,509.466 L71.746,456 L48.938,456 L48.939,512.031 Z" id="Shape" fill="#868491"></path>
        </g>
        <g id="Group" transform="translate(625.000000, 93.000000)" fill="#86C8B4">
            <polygon id="Fill-34" points="138 143 381 143 381 102 138 102"></polygon>
            <path d="M79.5,257 C60.4494443,257 45,242.65042 45,224.940495 L45,32.0595047 C45,14.3565662 60.4494443,0 79.5,0 C98.5580737,0 114,14.3565662 114,32.0595047 L114,224.940495 C114,242.65042 98.5580737,257 79.5,257" id="Fill-35"></path>
            <path d="M11.9926785,172 C5.37400854,172 0,167.049506 0,160.938951 L0,86.0475594 C0,79.9504937 5.37400854,75 11.9926785,75 C18.6259915,75 24,79.9504937 24,86.0475594 L24,160.938951 C24,167.049506 18.6259915,172 11.9926785,172" id="Fill-36"></path>
            <path d="M427.5,257 C408.449444,257 393,242.65042 393,224.940495 L393,32.0595047 C393,14.3565662 408.449444,0 427.5,0 C446.558074,0 462,14.3565662 462,32.0595047 L462,224.940495 C462,242.65042 446.558074,257 427.5,257" id="Fill-37"></path>
            <path d="M495.925297,171.333333 C489.258057,171.333333 483.850594,166.394496 483.850594,160.298329 L483.850594,85.5832754 C483.850594,79.5005657 489.258057,74.5617284 495.925297,74.5617284 C502.592537,74.5617284 508,79.5005657 508,85.5832754 L508,160.298329 C508,166.394496 502.592537,171.333333 495.925297,171.333333" id="Fill-38"></path>
        </g>
    </g>
</svg>