<?xml version="1.0" encoding="utf-8"?>
<!-- Generator: Adobe Illustrator 22.0.1, SVG Export Plug-In . SVG Version: 6.00 Build 0)  -->
<svg version="1.1" id="Layer_1" xmlns="http://www.w3.org/2000/svg" xmlns:xlink="http://www.w3.org/1999/xlink" x="0px" y="0px"
	 viewBox="0 0 350 162.5" style="enable-background:new 0 0 350 162.5;" xml:space="preserve">
<style type="text/css">
	.st0{fill:#FEC866;}
	.st1{opacity:0.59;fill:#FEC866;enable-background:new    ;}
	.st2{opacity:0.75;fill:#FEC866;enable-background:new    ;}
	.st3{fill:#FDBE64;}
	.st4{opacity:0.59;fill:#FDBE64;enable-background:new    ;}
	.st5{fill:#C2C4C6;}
	.st6{opacity:0.63;fill:#C2C4C6;enable-background:new    ;}
	.st7{fill:#E2E3E4;}
	.st8{fill:#E59D49;}
	.st9{fill:#FBB150;}
	.st10{opacity:0.75;fill:#D8A755;enable-background:new    ;}
	.st11{fill:#CBBF1D;}
	.st12{fill:#86452C;}
	.st13{opacity:0.5;fill:#86452C;enable-background:new    ;}
	.st14{fill:#F4BB56;}
	.st15{fill:#FCEC5B;}
	.st16{fill:#C4C3C2;}
	.st17{fill:#F1EDEA;}
	.st18{fill:#B6BEC4;}
	.st19{fill:#EFEFF0;}
	.st20{fill:#FFEDC6;}
	.st21{fill:#E5A268;}
	.st22{opacity:0.66;fill:#E5A268;enable-background:new    ;}
	.st23{fill:#BB1F24;}
	.st24{fill:#D4522A;}
	.st25{fill:#EBEBEC;}
	.st26{fill:#664488;}
	.st27{fill:#90963D;}
	.st28{fill:#ACB137;}
	.st29{fill:#7EB542;}
	.st30{opacity:0.7;fill:#6EA13A;enable-background:new    ;}
	.st31{fill:#22873D;}
	.st32{fill:#7DB942;}
	.st33{fill:#FBAB18;}
	.st34{fill:#FFE5A1;}
	.st35{fill:#853B6C;}
	.st36{fill:#96AA3D;}
	.st37{fill:#7AC143;}
	.st38{fill:#C6D92D;}
	.st39{fill:#35AB46;}
	.st40{fill:#9BC13C;}
	.st41{fill:#18933D;}
	.st42{fill:#8EC23F;}
	.st43{fill:#568737;}
	.st44{fill:#F78F27;}
	.st45{fill:#C1711C;}
	.st46{fill:#64983F;}
	.st47{fill:#8CB131;}
	.st48{fill:#A7C732;}
	.st49{fill:#178C42;}
	.st50{fill:#92C83E;}
	.st51{fill:#E9F0BF;}
	.st52{fill:#E9312A;}
	.st53{fill:#D62C26;}
	.st54{fill:#63A63A;}
	.st55{fill:#BCC832;}
	.st56{fill:#207035;}
	.st57{fill:#7CA23B;}
</style>
<title>shutterstock_578944669</title>
<desc>Created with Sketch.</desc>
<g>
	<g>
		<g>
			<path class="st0" d="M273.4,84.7c-3.1-1.3-37.9-6-41.2-7.7c-3.8,2.3-2.6,6.2-2.6,6.2s34.5,5.3,42.2,6.6
				C272.7,87.2,272.7,85.6,273.4,84.7z"/>
			<path class="st1" d="M232.4,80.1c0,0-1.9,1.5-1.7,2.7c1.9,0.5,40,5.9,40.6,6.5c0.6,0.5,1-2.8,1-2.8S233.5,79.9,232.4,80.1z"/>
		</g>
		<g>
			<path class="st0" d="M298.5,71.4c-5.3,0.4-57.7,14.5-63.7,14.5c-3.5,4.5-4.2,9.6-4.2,9.6s57.8-15.1,69.8-18
				C299.4,74.5,298.2,72.6,298.5,71.4z"/>
			<path class="st2" d="M237.7,87.9l-5.9,6.7c0,0,66.1-17.5,67.3-17.2c1.3,0.2-1.7-4.6-1.7-4.6S238.9,87.9,237.7,87.9z"/>
		</g>
		<g>
			<path class="st3" d="M264.5,72.4c3.4,0.6,35.3,17.1,39,17.3c1.9,4.6-0.6,8.7-0.6,8.7s-32.7-16.6-40-20
				C263.6,75.4,264.5,73.7,264.5,72.4z"/>
			<path class="st4" d="M301.5,91.5l0.7,5.9c0,0-37.8-19.4-38.5-19.1c-0.8,0.2,1.4-4.5,1.4-4.5S300.7,91.5,301.5,91.5z"/>
		</g>
		<g>
			<path class="st0" d="M251.1,80.1c5.1,1.7,58.8,9.2,64.3,11.5c4.9-2.8,1.9-7.7,1.9-7.7s-53.3-8.1-65.4-10.2
				C251.4,76.9,251.8,79,251.1,80.1z"/>
			<path class="st1" d="M314,87.7c0,0,2.4-1.9,1.7-3.4c-3-0.7-61.9-9.2-62.9-9.9s-0.5,3.5-0.5,3.5S312.3,87.8,314,87.7z"/>
		</g>
	</g>
	<g>
		<g>
			<path class="st5" d="M269.9,159.8c0,0,0.8-38.4-0.4-46.1c-1.3-7.7-3.5-5.9-6.6-11.5c-2.4-4.3-2.3-30.3,0.2-35
				c1.5,5.3,1.7,29.2,3.8,30.1c0.7-12.4-0.3-17.4,2.8-30.1c1.2,11.1,0.7,29.6,2.2,30.1c1.5-0.2,1.1-18.6,4.1-29.9
				c1.8,8.2,0.7,26.8,1.3,30.1c2-1.6,3.5-27.2,4.1-30.3c2.8,8.2,3.2,28.8-1.1,36.3c-2.6,4.5-3.8,5.6-4.4,10.5
				c-2,14.7-0.5,40.3-0.7,45.8H269.9z"/>
			<path class="st6" d="M282.1,69.7c0.1,1.1,0.1,2.2,0.1,3.3c0,2,0,4,0.1,6c0.1,2,0.2,3.9,0.2,5.8c-0.1,2-0.3,3.9-0.4,5.9
				c-0.1,2.3-0.1,4.5-0.7,6.8c-0.8,3.5-2.5,6.6-3.9,9.9c-1.2,2.9-2.2,5.8-3.1,8.8c0,1.7-0.2,3.3-0.4,5c-0.4,3.4-0.1,6.8-0.1,10.2
				c0,1-0.1,2-0.1,3.1c0.1,2.1,0.2,4.2,0.2,6.2c0,3.5,0,7,0,10.5c0,1.6,0.2,3.3,0.2,4.9c0,1.3-0.2,2.6-0.5,3.8h1.6
				c0.2-5.5-1.3-31.1,0.7-45.8c0.7-4.9,1.9-6,4.4-10.5C284.2,96.6,284.2,79,282.1,69.7z"/>
			<path class="st7" d="M270.7,126.5c-0.1-0.8-0.1-1.6-0.1-2.3c-0.3-2.4-0.3-4.9-0.4-7.2c-0.1-2-0.4-4-0.9-5.9
				c-0.2-0.9-0.4-1.8-0.8-2.6c-0.1-0.2-0.2-0.4-0.2-0.5c-2.1-1.6-3.8-3.7-4.7-6.5c-0.6-1.7-1-3.7-1.3-5.5c-0.2-1.7-0.1-3.5-0.2-5.1
				c-0.1-1.8-0.5-3.7-0.4-5.4c0.1-0.6,0.1-1.1,0.2-1.7c0-0.3,0-0.5,0-0.8c0-0.1,0-0.3,0-0.4l0,0c-0.2-0.2-0.4-0.5-0.5-0.7
				c-0.2,9,0.7,18.5,2,21.1c3.1,5.6,4.7,2.7,6,10.4c0.7,4.4,0.8,18.9,0.8,30.3c0-0.1,0-0.2,0-0.3c0.1-0.7,0.1-1.3,0.4-1.8
				c0-0.4,0-0.7,0-1.1c0.2-2,0.2-4.1,0.2-6.1C270.8,131.5,270.9,128.9,270.7,126.5z"/>
		</g>
		<g>
			<path class="st8" d="M230.9,64.9c8.2-1,51.6,5.8,85.5-0.2c4.5,13.4-10.6,17.5-18.3,18.1c-7.7,0.6-51.6-0.1-57.9-2.7
				C234,77.7,229.5,70.6,230.9,64.9z"/>
			<path class="st9" d="M294.7,65.5c0.5,0.1,1,0.1,1.6,0.2c2.2,0.2,4.4,0.4,6.5,0.2c0.9-0.2,1.7-0.4,2.6-0.7
				c0.4-0.2,0.8-0.4,1.2-0.6C302.7,65,298.7,65.3,294.7,65.5z"/>
			<path class="st10" d="M307.9,80.1c-6,1.7-12.1,0.4-18.3-0.5c-5.1-0.6-10.1-0.1-15.1,0.4c-4.9,0.5-9.8-0.2-14.5-0.9
				c-1.5-0.2-2.9-0.4-4.4-0.4c-1.5-0.1-3,0-4.5-0.1c-1.7-0.1-3.5-0.3-5.1-0.8c-1.1-0.4-2.3-0.9-3.4-1.3c-3.1-1-6.3-0.9-9.1-2.9
				c-0.4-0.3-0.8-0.6-1.2-0.9c1.7,3.2,4.6,6,8.1,7.4c6.3,2.6,50.3,3.3,57.9,2.7c3.8-0.3,9.6-1.5,13.7-4.3
				C310.6,79.2,309.3,79.7,307.9,80.1z"/>
			<path class="st9" d="M289.1,78.1c-0.1,0-0.1,0-0.1,0c-0.5-0.1-0.9-0.1-1.4-0.2C288.1,78,288.6,78,289.1,78.1z"/>
			<path class="st11" d="M240.1,60.7c-2.6,0.8-7.5,2.1-7.2,3.9c0.3,1.8,3.8,4,5.8,3.6c2-0.4,2.6-2.7,3.4-2.2s1.7,2,3.7,2.8
				c2,0.7,2.9-0.2,4.1-0.6c1.2-0.4,1.7,2.9,4.5,3.1c2.8,0.2,5.5-1.9,6.3-2.5c0.8-0.7,5.1,1.1,5.7,1.3c0.6,0.2,5.9,2.1,6.9,1.1
				c1-1,4.2-2.8,5-2.5c0.7,0.4,3.1,5.3,8,3.6c4.9-1.7,6.9-2.7,8.6-2.5s5.9,4.5,9.6,1.4s6-3.1,6-3.1s6.8-3.3,1.1-7.5
				C305.9,56.5,242.3,60,240.1,60.7z"/>
			<path class="st12" d="M312.7,54.5c-1-0.4-3.1-1.5-5.6-1.5c-2.1,0-4.1,1-5.7,1.5c-1.5,0.4-3.5-0.4-5.3-0.5
				c-2.2-0.2-4.2,0.4-5.1,0.6c-0.9,0.2-8.1-0.8-15.3-0.9c-7.3-0.2-14.5,0.5-15.1,0.5c-0.6,0-5.8-1.7-11-2.3
				c-4.8-0.5-9.6-0.1-10.9,0.7c-1.1,0.7-3,0.7-4.2,1.4c-1.7,1-2.3,2.3-1.9,3.4c0.5,1.1-0.1,3.6,1.2,5.2c0.8,1.1,2.6,1.3,4.9,1.6
				c2.9,0.4,9.6,1.9,16.5,2.4c7.1,0.5,14.1,0.2,16.6,0.2c2.5,0,9.5,1.3,16.4,1.5c7.1,0.2,13.9-0.6,16.2-1.5c1.7-0.7,3.2-0.3,4.3-0.6
				c1.9-0.5,2.9-1.5,4-1.6c1-0.1,3.1-2.3,3.3-5C316.3,57.3,315.1,55.6,312.7,54.5z"/>
			<path class="st13" d="M313.3,62.3c-1.3,0.4-2.5,0.8-3.8,1c-1.4,0.2-2.8,0.3-4.2,0.4c-2.7,0.4-5.3,1.3-8,1.8
				c-2.9,0.5-5.9,0.4-8.9,0.2c-3-0.1-6-0.1-9-0.6c-1.4-0.2-2.8-0.5-4.2-0.6c-0.4,0-0.7-0.1-1-0.1c-2.2,0.2-4.4,0.5-6.6,0.6
				c-3.4,0.1-6.8-0.2-10.1-0.5c-3.4-0.4-6.9-0.2-10.2-0.6c-1.7-0.2-3.5-0.5-5.2-0.8c-1.5-0.2-3.1-0.2-4.5-0.6
				c-1.3-0.4-2.8-1.1-3.8-2c-0.4-0.3-0.6-0.7-0.9-1.1c0.1,1,0.2,2.2,1,3.1c0.8,1.1,2.6,1.3,4.9,1.6c2.9,0.4,9.6,1.9,16.5,2.4
				c7.1,0.5,14.1,0.2,16.6,0.2c2.5,0,9.5,1.3,16.4,1.5c7.1,0.2,13.9-0.6,16.2-1.5c1.7-0.7,3.2-0.3,4.3-0.6c1.9-0.5,2.9-1.5,4-1.6
				c0.8-0.1,2.3-1.6,3-3.6C315.1,61.5,314.2,62,313.3,62.3z"/>
			<g>
				<path class="st14" d="M232.2,53.4c0,0,45.5,4.5,56.7,7.3c12.1-3.1,19.3-5.1,28-5.9c0-0.5-0.2-1.1-0.3-1.7
					c-9-3.4-28.6-6.3-34.9-6.3c-5.8,0-34.5,1.1-49.1,4.8C232.5,52.7,232.5,52.7,232.2,53.4z"/>
				<path class="st15" d="M232.2,52.1c0,0,45.5,4.5,56.7,7.3c12.1-3.1,19.3-5.1,28-5.9c0-0.5-0.2-1.1-0.3-1.7
					c-9-3.4-28.6-6.3-34.9-6.3c-5.8,0-34.5,1.1-49.1,4.8C232.5,51.5,232.5,51.5,232.2,52.1z"/>
			</g>
			<path class="st12" d="M312,42.1c-1.7-0.7-7.8-0.8-11,0s-8.2-0.4-9.9,0c-1.7,0.4-27.7-0.4-28.8-0.4c-1.1,0.1-18.5-2.6-21.1-1.3
				c-2.6,1.3-6.7,3.1-6,4.5c0.7,1.5,0.9,4,6.2,6c5.7,2.2,26.8,3.8,31.6,3.8s26.9-0.1,31.2-1.6c4.3-1.5,6.2-1.7,7.8-1.9
				C313.7,51.1,317.3,44.1,312,42.1z"/>
			<path class="st13" d="M313.5,49c-3.5,2-7.5,2.5-11.4,2.8c-1.6,0.5-3.1,0.8-4.9,1c-2.1,0.2-4.1,0.4-6.2,0.5
				c-1,0.1-2.1,0.1-3.1-0.2c-1.9,0.4-3.8,0.7-5.7,0.7c-3.5,0.1-6.9-0.7-10.5-0.7c-3.3,0-6.5,0.4-9.8,0.4c-1.9,0-4-0.1-5.7-1
				c-1.2,0-2.4-0.1-3.7-0.4c-0.7-0.2-1.4-0.3-2.1-0.5c-1.4-0.1-2.8-0.3-4.1-0.7c-1.2-0.4-2.4-0.8-3.7-1.1c-2.6-0.6-5-1.7-6.6-3.8
				c-0.1-0.1-0.2-0.2-0.3-0.4c0.6,1.5,1.4,3.5,5.8,5.2c5.7,2.2,26.8,3.8,31.6,3.8s26.9-0.1,31.2-1.6c4.3-1.5,6.2-1.7,7.8-1.9
				c0.7-0.1,1.7-1.3,2.2-2.8C314,48.7,313.7,48.8,313.5,49z"/>
			<g>
				<path class="st16" d="M239.4,36.4c-0.5,2.9,1.3,10.4,8.7,11.3c7.5,0.9,18.9-0.5,25.5-8.5c6.5-8-9.1-12.4-14-10.1
					c-4.9,2.3-20.3,4.7-20.3,6.6L239.4,36.4z"/>
				<path class="st17" d="M239.4,35.5c-0.5,2.9,1.3,10.4,8.7,11.3c7.5,0.9,18.9-0.5,25.5-8.5c6.5-8-9.1-12.4-14-10.1
					c-4.9,2.3-20.3,4.7-20.3,6.6L239.4,35.5z"/>
			</g>
			<g>
				<path class="st16" d="M270.3,27.3c-2,2.1-4.9,9.2,0.7,14.2s15.7,10.5,25.7,7.7c10-2.8-0.3-15.4-5.6-16.3
					c-5.3-1-19.3-7.9-20.4-6.3L270.3,27.3z"/>
				<path class="st17" d="M270.9,26.5c-2,2.1-4.9,9.2,0.7,14.2c5.6,5,15.7,10.5,25.7,7.7s-0.3-15.4-5.6-16.3
					c-5.3-1-19.3-7.9-20.4-6.3L270.9,26.5z"/>
			</g>
			<g>
				<path class="st18" d="M313.4,39.5c0.2,2.6-1.4,9-6.9,9.4c-5.4,0.5-13.5-1.3-17.8-8.5c-4.2-7.2,7.2-10.4,10.6-8.2
					c3.4,2.2,14.3,4.9,14.2,6.6L313.4,39.5z"/>
				<path class="st19" d="M313.4,38.6c0.2,2.6-1.4,9-6.9,9.4c-5.4,0.5-13.5-1.3-17.8-8.5c-4.2-7.2,7.2-10.4,10.6-8.2
					c3.4,2.2,14.3,4.9,14.2,6.6L313.4,38.6z"/>
			</g>
			<path class="st20" d="M267.2,77.4c0.8,0.4-0.2-2.3-1.4-2.4C264.7,74.8,266.5,76.9,267.2,77.4z"/>
			<path class="st20" d="M238.8,70.7c0.6,0.8-0.6,1.7-2.1,1.7C235.2,72.4,237.2,68.7,238.8,70.7z"/>
			<path class="st20" d="M245.6,75.2c0.9-0.4,1.6,1,1.2,2.5C246.4,79.2,243.3,76.3,245.6,75.2z"/>
			<path class="st20" d="M254.6,75.5c-0.8,0.5-1.6-0.9-1.4-2.4C253.5,71.6,256.8,74.1,254.6,75.5z"/>
			<path class="st20" d="M282.6,76.8c0.1,1-1.4,1.2-2.7,0.4C278.5,76.3,282.2,74.3,282.6,76.8z"/>
			<path class="st20" d="M290,74.7c0.9-0.4,1.3,0.5,0.7,1.6C290.2,77.4,287.8,75.8,290,74.7z"/>
			<path class="st20" d="M301.9,77c0.7,0.7-0.3,1.9-1.8,2.1C298.7,79.3,300,75.4,301.9,77z"/>
			<path class="st20" d="M308.2,72.4c0.5,0.8-0.9,1.6-2.4,1.4C304.3,73.5,306.9,70.2,308.2,72.4z"/>
			<g>
				<path class="st14" d="M296.9,41.2c0,0-23.2,6.6-33,8.6c-10.2-3.9-15.8-10-23.2-11.4c0.1-0.5,0.3-1.1,0.4-1.6
					c8-2.7,24.9-2.5,30.3-2c5,0.4,13.2,0,25.4,4.7C296.6,40.5,296.6,40.5,296.9,41.2z"/>
				<path class="st15" d="M296.9,39.9c0,0-23.2,6.6-33,8.6c-10.2-3.9-15.8-10-23.2-11.4c0.1-0.5,0.3-1.1,0.4-1.6
					c8-2.7,24.9-2.5,30.3-2c5,0.4,13.2,0,25.4,4.7C296.7,39.2,296.7,39.2,296.9,39.9z"/>
			</g>
			<g>
				<path class="st21" d="M233.1,42.1c1.3,1.9,19.5,3.5,25,2.7c5.5-0.8,23.3,2.6,31,2s24.7-0.8,28.2-2.9c3.5-2.2-3.5-28.8-42.3-27.5
					C243.7,17.2,228.7,27.6,233.1,42.1z"/>
				<path class="st22" d="M317.1,40.5c-2,1.1-4.1,1.5-6.2,2.2c-2,0.6-3.9,1.4-6,1.9c-2.9,0.7-5.7,0.7-8.6,0.8
					c-2.5,0.1-4.9,0.1-7.4,0.1c-3.1,0-6.1-0.2-9.2-0.7c-2-0.3-4.1-0.7-6.1-1c-3.7-0.4-7.4-0.2-11.2-0.1c-3.8,0.2-7.7,0.1-11.5,0.1
					c-2-0.1-4.1-0.2-6.2-0.4c-2.2-0.2-4.5-0.2-6.7-0.7c-2.1-0.4-4.1-1.6-5.6-3.1c0.1,0.8,0.3,1.7,0.6,2.5c1.3,1.9,19.5,3.5,25,2.7
					c5.5-0.8,23.3,2.6,31,2s24.7-0.8,28.2-2.9c0.7-0.4,1-1.7,0.7-3.6C317.7,40.3,317.4,40.4,317.1,40.5z"/>
				<path class="st20" d="M248,26.9c0.8-1.1-4.2-0.2-4.5,1.6C243.3,30.3,247.3,27.9,248,26.9z"/>
				<path class="st20" d="M304.5,28.6c1.2,0.7-0.1-4.2-1.9-4.4C300.7,24.2,303.4,28,304.5,28.6z"/>
				<path class="st20" d="M285,28.9c-1.4-0.2,1.6,3.9,3.4,3.4C290.1,31.6,286.2,29.1,285,28.9z"/>
				<path class="st20" d="M258.3,29.4c0.9,0,0.9,1.4,0,2.5C257.4,33,255.9,29.4,258.3,29.4z"/>
				<path class="st20" d="M295,40.1c1,0,1,1.6,0,2.8C294,44,292.5,40.1,295,40.1z"/>
				<path class="st20" d="M311.2,33.8c1,0,1,1.6,0,2.8C310.2,37.7,308.6,33.8,311.2,33.8z"/>
				<path class="st20" d="M271,30.9c0.9,0.4,0.2,1.9-1.2,2.5C268.4,34,268.7,29.8,271,30.9z"/>
				<path class="st20" d="M279,23.3c0.9,0.4,0.2,1.9-1.2,2.5C276.3,26.4,276.7,22.2,279,23.3z"/>
				<path class="st20" d="M289.6,24.3c0.9-0.4,1.6,1,1.2,2.5C290.3,28.3,287.2,25.4,289.6,24.3z"/>
				<path class="st20" d="M304.3,34.1c0.9,0.4,0.2,1.9-1.2,2.5C301.8,37.2,302.1,33,304.3,34.1z"/>
				<path class="st20" d="M296.5,23c-0.7,0.7-1.7-0.5-1.8-2.1C294.7,19.4,298.5,21.4,296.5,23z"/>
				<path class="st20" d="M271,19.1c0.9,0.4,0.2,1.9-1.2,2.5C268.4,22.3,268.7,18.1,271,19.1z"/>
				<path class="st20" d="M237.8,36.7c0.7-0.7,1.8,0.4,2,1.9C239.9,40.2,236,38.5,237.8,36.7z"/>
				<path class="st20" d="M252.8,37.9c0.9-0.4,1.5,1.1,1.1,2.5C253.4,41.9,250.5,38.8,252.8,37.9z"/>
				<path class="st20" d="M261,20.2c0.4-0.7-2.1,0-2.3,1.1C258.5,22.4,260.5,20.8,261,20.2z"/>
				<path class="st20" d="M280.5,40.1c0.4-0.7-2.1,0-2.3,1.1C278,42.2,280.1,40.7,280.5,40.1z"/>
			</g>
		</g>
	</g>
</g>
<g>
	<g>
		<g>
			<path class="st23" d="M216.3,118.7c0.2,0.4,0.5,0.5,0.8,0.5c0.5,0,0.7-0.2,0.7-1v-3.4h0.9v3.5c0,1-0.5,1.7-1.5,1.7
				c-0.7,0-1.2-0.3-1.5-0.8L216.3,118.7z"/>
			<path class="st23" d="M219.9,114.8h0.9v2.9c0,1.1,0.4,1.5,1,1.5c0.6,0,1.1-0.4,1.1-1.5v-2.9h0.8v2.9c0,1.7-0.7,2.3-1.9,2.3
				c-1.2,0-1.9-0.7-1.9-2.3L219.9,114.8L219.9,114.8z"/>
			<path class="st23" d="M225.1,114.8h1l1.6,2.9l0.5,1.1h0.1c-0.1-0.5-0.1-1.2-0.1-1.7v-2.2h0.9v5.1h-1l-1.6-2.9l-0.5-1.1h-0.1
				c0.1,0.5,0.1,1.1,0.1,1.7v2.2h-0.8V114.8z"/>
			<path class="st23" d="M230.2,114.8h0.9v2.3l0,0l1.8-2.3h1l-1.6,2l1.9,3.1h-1l-1.4-2.4l-0.7,0.9v1.5h-0.9V114.8z"/>
			<path class="st23" d="M236.5,114.8h3.1v0.8h-2.2v1.4h1.9v0.8h-1.9v2.2h-0.9L236.5,114.8L236.5,114.8z"/>
			<path class="st23" d="M240.1,117.4c0-1.7,0.9-2.6,2.3-2.6c1.3,0,2.3,1,2.3,2.6s-0.9,2.7-2.3,2.7C241,120,240.1,119,240.1,117.4z
				 M243.7,117.4c0-1.1-0.5-1.9-1.3-1.9c-0.8,0-1.3,0.7-1.3,1.9s0.5,1.9,1.3,1.9C243.1,119.3,243.7,118.5,243.7,117.4z"/>
			<path class="st23" d="M245.3,117.4c0-1.7,0.9-2.6,2.3-2.6c1.3,0,2.3,1,2.3,2.6s-0.9,2.7-2.3,2.7C246.3,120,245.3,119,245.3,117.4
				z M248.9,117.4c0-1.1-0.5-1.9-1.3-1.9s-1.3,0.7-1.3,1.9s0.5,1.9,1.3,1.9C248.4,119.3,248.9,118.5,248.9,117.4z"/>
			<path class="st23" d="M250.9,114.8h1.4c1.6,0,2.5,0.8,2.5,2.5c0,1.7-0.9,2.6-2.5,2.6h-1.4V114.8z M252.2,119.2
				c1,0,1.6-0.6,1.6-1.9c0-1.3-0.6-1.8-1.6-1.8h-0.4v3.7H252.2z"/>
		</g>
	</g>
	<g>
		<g>
			<path class="st24" d="M216.8,122.8h0.2v1.5h0.7v0.2h-1V122.8z"/>
			<path class="st24" d="M218.5,123.3c0.3,0,0.6,0.2,0.6,0.7s-0.3,0.7-0.6,0.7c-0.3,0-0.6-0.2-0.6-0.7S218.2,123.3,218.5,123.3z
				 M218.5,124.4c0.2,0,0.4-0.2,0.4-0.5s-0.1-0.5-0.4-0.5c-0.2,0-0.4,0.2-0.4,0.5S218.2,124.4,218.5,124.4z"/>
			<path class="st24" d="M219.4,123.3h0.2v0.2l0,0c0.1-0.2,0.2-0.2,0.4-0.2c0.1,0,0.1,0,0.1,0l-0.1,0.2c-0.1,0-0.1,0-0.1,0
				c-0.1,0-0.2,0.1-0.3,0.3v0.8h-0.2L219.4,123.3L219.4,123.3z"/>
			<path class="st24" d="M220.7,123.3c0.3,0,0.5,0.2,0.5,0.6c0,0.1,0,0.1,0,0.1h-0.8c0,0.3,0.2,0.4,0.4,0.4c0.1,0,0.2-0.1,0.3-0.1
				l0.1,0.1c-0.1,0.1-0.2,0.1-0.4,0.1c-0.4,0-0.6-0.2-0.6-0.7C220.1,123.5,220.4,123.3,220.7,123.3z M221,123.9
				c0-0.2-0.1-0.4-0.3-0.4c-0.2,0-0.4,0.1-0.4,0.4H221z"/>
			<path class="st24" d="M221.5,123.3h0.2v0.2l0,0c0.1-0.1,0.2-0.2,0.4-0.2c0.2,0,0.3,0.1,0.4,0.2c0.1-0.1,0.2-0.2,0.4-0.2
				c0.2,0,0.4,0.2,0.4,0.5v0.8H223v-0.8c0-0.2-0.1-0.4-0.2-0.4c-0.1,0-0.2,0.1-0.3,0.2v0.9h-0.2v-0.8c0-0.2-0.1-0.4-0.2-0.4
				c-0.1,0-0.2,0.1-0.3,0.2v0.9h-0.2L221.5,123.3L221.5,123.3z"/>
			<path class="st24" d="M224.2,122.9c0-0.1,0.1-0.1,0.1-0.1s0.1,0.1,0.1,0.1s-0.1,0.1-0.1,0.1S224.2,123,224.2,122.9z M224.2,123.3
				h0.2v1.3h-0.2V123.3z"/>
			<path class="st24" d="M225.1,124.7v0.4h-0.2v-1.8h0.2v0.1l0,0c0.1-0.1,0.2-0.2,0.4-0.2c0.3,0,0.5,0.2,0.5,0.7
				c0,0.4-0.2,0.7-0.5,0.7c-0.1,0-0.2-0.1-0.4-0.1L225.1,124.7z M225.4,124.4c0.2,0,0.4-0.2,0.4-0.5s-0.1-0.5-0.4-0.5
				c-0.1,0-0.2,0.1-0.4,0.2v0.7C225.2,124.4,225.3,124.4,225.4,124.4z"/>
			<path class="st24" d="M226.2,124.3c0.1,0.1,0.2,0.2,0.4,0.2c0.2,0,0.2-0.1,0.2-0.2c0-0.1-0.2-0.2-0.3-0.2
				c-0.2-0.1-0.4-0.2-0.4-0.4c0-0.2,0.2-0.4,0.4-0.4c0.2,0,0.3,0.1,0.4,0.1l-0.1,0.1c-0.1-0.1-0.2-0.1-0.3-0.1
				c-0.2,0-0.2,0.1-0.2,0.2c0,0.1,0.1,0.2,0.3,0.2c0.2,0.1,0.4,0.1,0.4,0.4c0,0.2-0.2,0.4-0.5,0.4c-0.2,0-0.4-0.1-0.5-0.2
				L226.2,124.3z"/>
			<path class="st24" d="M227.4,123.3h0.2v0.8c0,0.2,0.1,0.4,0.2,0.4c0.1,0,0.2-0.1,0.4-0.2v-0.9h0.2v1.3h-0.2v-0.2l0,0
				c-0.1,0.1-0.2,0.2-0.4,0.2c-0.2,0-0.4-0.2-0.4-0.5v-0.8H227.4z"/>
			<path class="st24" d="M228.8,123.3h0.2v0.2l0,0c0.1-0.1,0.2-0.2,0.4-0.2s0.3,0.1,0.4,0.2c0.1-0.1,0.2-0.2,0.4-0.2
				c0.2,0,0.4,0.2,0.4,0.5v0.8h-0.2v-0.8c0-0.2-0.1-0.4-0.2-0.4c-0.1,0-0.2,0.1-0.3,0.2v0.9h-0.2v-0.8c0-0.2-0.1-0.4-0.2-0.4
				c-0.1,0-0.2,0.1-0.3,0.2v0.9h-0.2L228.8,123.3L228.8,123.3z"/>
			<path class="st24" d="M231.9,123.3c0.1,0,0.2,0.1,0.4,0.1v-0.2v-0.5h0.2v1.9h-0.2v-0.1l0,0c-0.1,0.1-0.2,0.2-0.4,0.2
				c-0.3,0-0.5-0.2-0.5-0.7C231.4,123.5,231.6,123.3,231.9,123.3z M231.9,124.4c0.1,0,0.2-0.1,0.3-0.2v-0.7
				c-0.1-0.1-0.2-0.1-0.3-0.1c-0.2,0-0.4,0.2-0.4,0.5C231.6,124.2,231.8,124.4,231.9,124.4z"/>
			<path class="st24" d="M233.4,123.3c0.3,0,0.6,0.2,0.6,0.7s-0.3,0.7-0.6,0.7c-0.3,0-0.6-0.2-0.6-0.7S233.1,123.3,233.4,123.3z
				 M233.4,124.4c0.2,0,0.4-0.2,0.4-0.5s-0.1-0.5-0.4-0.5c-0.2,0-0.4,0.2-0.4,0.5S233.2,124.4,233.4,124.4z"/>
			<path class="st24" d="M234.3,122.7h0.2v1.6c0,0.1,0,0.1,0.1,0.1c0,0,0,0,0.1,0v0.2c0,0-0.1,0-0.1,0c-0.2,0-0.2-0.1-0.2-0.3V122.7
				z"/>
			<path class="st24" d="M235.5,123.3c0.3,0,0.6,0.2,0.6,0.7s-0.3,0.7-0.6,0.7s-0.6-0.2-0.6-0.7
				C234.9,123.5,235.2,123.3,235.5,123.3z M235.5,124.4c0.2,0,0.4-0.2,0.4-0.5s-0.1-0.5-0.4-0.5c-0.2,0-0.4,0.2-0.4,0.5
				S235.3,124.4,235.5,124.4z"/>
			<path class="st24" d="M236.4,123.3h0.2v0.2l0,0c0.1-0.2,0.2-0.2,0.4-0.2c0.1,0,0.1,0,0.1,0l-0.1,0.2c-0.1,0-0.1,0-0.1,0
				c-0.1,0-0.2,0.1-0.3,0.3v0.8h-0.2L236.4,123.3L236.4,123.3z"/>
			<path class="st24" d="M237.8,124.3c0.1,0.1,0.2,0.2,0.4,0.2c0.2,0,0.2-0.1,0.2-0.2c0-0.1-0.2-0.2-0.3-0.2
				c-0.2-0.1-0.4-0.2-0.4-0.4c0-0.2,0.2-0.4,0.4-0.4c0.2,0,0.3,0.1,0.4,0.1l-0.1,0.1c-0.1-0.1-0.2-0.1-0.3-0.1
				c-0.2,0-0.2,0.1-0.2,0.2c0,0.1,0.1,0.2,0.3,0.2c0.2,0.1,0.4,0.1,0.4,0.4c0,0.2-0.2,0.4-0.5,0.4c-0.2,0-0.4-0.1-0.5-0.2
				L237.8,124.3z"/>
			<path class="st24" d="M238.9,122.9c0-0.1,0.1-0.1,0.1-0.1s0.1,0.1,0.1,0.1s-0.1,0.1-0.1,0.1C238.9,123,238.9,123,238.9,122.9z
				 M238.9,123.3h0.2v1.3h-0.2V123.3z"/>
			<path class="st24" d="M239.6,123.5h-0.2v-0.2h0.2V123h0.2v0.4h0.4v0.2h-0.4v0.7c0,0.2,0.1,0.2,0.2,0.2c0.1,0,0.1,0,0.1-0.1
				l0.1,0.2c-0.1,0-0.2,0.1-0.2,0.1c-0.3,0-0.4-0.2-0.4-0.4L239.6,123.5L239.6,123.5z"/>
			<path class="st24" d="M241.7,123.7c0-0.2-0.1-0.3-0.2-0.3c-0.1,0-0.3,0.1-0.4,0.1l-0.1-0.1c0.1-0.1,0.3-0.2,0.5-0.2
				c0.3,0,0.4,0.2,0.4,0.5v0.8h-0.2v-0.2l0,0c-0.1,0.1-0.2,0.2-0.4,0.2c-0.2,0-0.4-0.1-0.4-0.4C240.9,124,241.1,123.8,241.7,123.7z
				 M241.3,124.4c0.1,0,0.2-0.1,0.4-0.2v-0.4c-0.4,0.1-0.5,0.2-0.5,0.3C241.1,124.3,241.2,124.4,241.3,124.4z"/>
			<path class="st24" d="M242.3,123.3h0.2v0.2l0,0c0.1-0.1,0.2-0.2,0.4-0.2s0.3,0.1,0.4,0.2c0.1-0.1,0.2-0.2,0.4-0.2
				c0.2,0,0.4,0.2,0.4,0.5v0.8h-0.2v-0.8c0-0.2-0.1-0.4-0.2-0.4c-0.1,0-0.2,0.1-0.3,0.2v0.9H243v-0.8c0-0.2-0.1-0.4-0.2-0.4
				c-0.1,0-0.2,0.1-0.3,0.2v0.9h-0.2L242.3,123.3L242.3,123.3z"/>
			<path class="st24" d="M244.9,123.3c0.3,0,0.5,0.2,0.5,0.6c0,0.1,0,0.1,0,0.1h-0.8c0,0.3,0.2,0.4,0.4,0.4c0.1,0,0.2-0.1,0.3-0.1
				l0.1,0.1c-0.1,0.1-0.2,0.1-0.4,0.1c-0.4,0-0.6-0.2-0.6-0.7C244.3,123.5,244.6,123.3,244.9,123.3z M245.2,123.9
				c0-0.2-0.1-0.4-0.3-0.4c-0.2,0-0.4,0.1-0.4,0.4H245.2z"/>
			<path class="st24" d="M245.8,123.5h-0.2v-0.2h0.2V123h0.2v0.4h0.4v0.2h-0.4v0.7c0,0.2,0.1,0.2,0.2,0.2c0.1,0,0.1,0,0.1-0.1
				l0.1,0.2c-0.1,0-0.2,0.1-0.2,0.1c-0.3,0-0.4-0.2-0.4-0.4L245.8,123.5L245.8,123.5z"/>
			<path class="st24" d="M246.5,124.9c0.1-0.1,0.2-0.2,0.2-0.3l0,0c-0.1,0-0.2-0.1-0.2-0.1c0-0.1,0.1-0.2,0.2-0.2
				c0.1,0,0.2,0.1,0.2,0.2c0,0.2-0.1,0.4-0.4,0.5L246.5,124.9z"/>
			<path class="st24" d="M248.3,123.3c0.2,0,0.3,0.1,0.4,0.2l-0.1,0.1c-0.1-0.1-0.2-0.1-0.2-0.1c-0.2,0-0.4,0.2-0.4,0.5
				c0,0.3,0.2,0.5,0.4,0.5c0.1,0,0.2-0.1,0.3-0.1l0.1,0.1c-0.1,0.1-0.2,0.2-0.4,0.2c-0.4,0-0.6-0.2-0.6-0.7
				C247.7,123.5,248,123.3,248.3,123.3z"/>
			<path class="st24" d="M249.4,123.3c0.3,0,0.6,0.2,0.6,0.7s-0.3,0.7-0.6,0.7c-0.3,0-0.6-0.2-0.6-0.7S249.1,123.3,249.4,123.3z
				 M249.4,124.4c0.2,0,0.4-0.2,0.4-0.5s-0.1-0.5-0.4-0.5c-0.2,0-0.4,0.2-0.4,0.5C249,124.2,249.2,124.4,249.4,124.4z"/>
			<path class="st24" d="M250.3,123.3h0.2v0.2l0,0c0.1-0.1,0.2-0.2,0.4-0.2c0.2,0,0.4,0.2,0.4,0.5v0.8H251v-0.8
				c0-0.2-0.1-0.4-0.2-0.4c-0.1,0-0.2,0.1-0.4,0.2v0.9h-0.2v-1.1H250.3z"/>
			<path class="st24" d="M216.7,127.4c0.1,0.1,0.2,0.2,0.4,0.2c0.2,0,0.2-0.1,0.2-0.2c0-0.1-0.2-0.2-0.3-0.2
				c-0.2-0.1-0.4-0.2-0.4-0.4c0-0.2,0.2-0.4,0.4-0.4c0.2,0,0.3,0.1,0.4,0.1l-0.1,0.1c-0.1-0.1-0.2-0.1-0.3-0.1
				c-0.2,0-0.2,0.1-0.2,0.2c0,0.1,0.1,0.2,0.3,0.2c0.2,0.1,0.4,0.1,0.4,0.4c0,0.2-0.2,0.4-0.5,0.4c-0.2,0-0.4-0.1-0.5-0.2
				L216.7,127.4z"/>
			<path class="st24" d="M218.3,126.4c0.3,0,0.5,0.2,0.5,0.6c0,0.1,0,0.1,0,0.1h-0.8c0,0.3,0.2,0.4,0.4,0.4c0.1,0,0.2-0.1,0.3-0.1
				l0.1,0.1c-0.1,0.1-0.2,0.1-0.4,0.1c-0.4,0-0.6-0.2-0.6-0.7C217.7,126.6,218,126.4,218.3,126.4z M218.6,127c0-0.2-0.1-0.4-0.3-0.4
				c-0.2,0-0.4,0.1-0.4,0.4H218.6z"/>
			<path class="st24" d="M219.7,126.4c0.2,0,0.3,0.1,0.4,0.2l-0.1,0.1c-0.1-0.1-0.2-0.1-0.2-0.1c-0.2,0-0.4,0.2-0.4,0.5
				s0.2,0.5,0.4,0.5c0.1,0,0.2-0.1,0.3-0.1l0.1,0.1c-0.1,0.1-0.2,0.2-0.4,0.2c-0.4,0-0.6-0.2-0.6-0.7
				C219,126.6,219.3,126.4,219.7,126.4z"/>
			<path class="st24" d="M220.3,126.6h-0.2v-0.2h0.2v-0.4h0.2v0.4h0.4v0.2h-0.4v0.7c0,0.2,0.1,0.2,0.2,0.2c0.1,0,0.1,0,0.1-0.1
				l0.1,0.2c-0.1,0-0.2,0.1-0.2,0.1c-0.3,0-0.4-0.2-0.4-0.4L220.3,126.6L220.3,126.6z"/>
			<path class="st24" d="M221.6,126.4c0.3,0,0.5,0.2,0.5,0.6c0,0.1,0,0.1,0,0.1h-0.8c0,0.3,0.2,0.4,0.4,0.4c0.1,0,0.2-0.1,0.3-0.1
				l0.1,0.1c-0.1,0.1-0.2,0.1-0.4,0.1c-0.4,0-0.6-0.2-0.6-0.7C221,126.6,221.3,126.4,221.6,126.4z M221.9,127c0-0.2-0.1-0.4-0.3-0.4
				c-0.2,0-0.4,0.1-0.4,0.4H221.9z"/>
			<path class="st24" d="M222.4,126.6h-0.2v-0.2h0.2v-0.4h0.2v0.4h0.4v0.2h-0.4v0.7c0,0.2,0.1,0.2,0.2,0.2c0.1,0,0.1,0,0.1-0.1
				l0.1,0.2c-0.1,0-0.2,0.1-0.2,0.1c-0.3,0-0.4-0.2-0.4-0.4L222.4,126.6L222.4,126.6z"/>
			<path class="st24" d="M223.3,126.4h0.2v0.8c0,0.2,0.1,0.4,0.2,0.4c0.1,0,0.2-0.1,0.4-0.2v-0.9h0.2v1.3h-0.2v-0.2l0,0
				c-0.1,0.1-0.2,0.2-0.4,0.2c-0.2,0-0.4-0.2-0.4-0.5v-0.8H223.3z"/>
			<path class="st24" d="M224.7,126.4h0.2v0.2l0,0c0.1-0.2,0.2-0.2,0.4-0.2c0.1,0,0.1,0,0.1,0l-0.1,0.2c-0.1,0-0.1,0-0.1,0
				c-0.1,0-0.2,0.1-0.3,0.3v0.8h-0.2L224.7,126.4L224.7,126.4z"/>
			<path class="st24" d="M226.8,126.9c0-0.2-0.1-0.3-0.2-0.3c-0.1,0-0.3,0.1-0.4,0.1l-0.1-0.1c0.1-0.1,0.3-0.2,0.5-0.2
				c0.3,0,0.4,0.2,0.4,0.5v0.8h-0.2v-0.2l0,0c-0.1,0.1-0.2,0.2-0.4,0.2c-0.2,0-0.4-0.1-0.4-0.4C226.1,127.1,226.3,126.9,226.8,126.9
				z M226.5,127.5c0.1,0,0.2-0.1,0.4-0.2V127c-0.4,0.1-0.5,0.2-0.5,0.3C226.2,127.5,226.4,127.5,226.5,127.5z"/>
			<path class="st24" d="M227.9,126.4c0.1,0,0.2,0.1,0.4,0.1v-0.2v-0.5h0.2v1.9h-0.2v-0.1l0,0c-0.1,0.1-0.2,0.2-0.4,0.2
				c-0.3,0-0.5-0.2-0.5-0.7C227.3,126.6,227.6,126.4,227.9,126.4z M227.9,127.5c0.1,0,0.2-0.1,0.3-0.2v-0.7
				c-0.1-0.1-0.2-0.1-0.3-0.1c-0.2,0-0.4,0.2-0.4,0.5S227.7,127.5,227.9,127.5z"/>
			<path class="st24" d="M228.8,126c0-0.1,0.1-0.1,0.1-0.1c0.1,0,0.1,0.1,0.1,0.1s-0.1,0.1-0.1,0.1
				C228.9,126.1,228.8,126.1,228.8,126z M228.9,126.4h0.2v1.3h-0.2V126.4z"/>
			<path class="st24" d="M229.7,127.8v0.4h-0.2v-1.8h0.2v0.1l0,0c0.1-0.1,0.2-0.2,0.4-0.2c0.3,0,0.5,0.2,0.5,0.7
				c0,0.4-0.2,0.7-0.5,0.7c-0.1,0-0.2-0.1-0.4-0.1L229.7,127.8z M230,127.5c0.2,0,0.4-0.2,0.4-0.5s-0.1-0.5-0.4-0.5
				c-0.1,0-0.2,0.1-0.4,0.2v0.7C229.8,127.5,230,127.5,230,127.5z"/>
			<path class="st24" d="M230.9,126c0-0.1,0.1-0.1,0.1-0.1s0.1,0.1,0.1,0.1s-0.1,0.1-0.1,0.1C231,126.1,230.9,126.1,230.9,126z
				 M231,126.4h0.2v1.3H231V126.4z"/>
			<path class="st24" d="M231.6,127.4c0.1,0.1,0.2,0.2,0.4,0.2c0.2,0,0.2-0.1,0.2-0.2c0-0.1-0.2-0.2-0.3-0.2
				c-0.2-0.1-0.4-0.2-0.4-0.4c0-0.2,0.2-0.4,0.4-0.4c0.2,0,0.3,0.1,0.4,0.1l-0.1,0.1c-0.1-0.1-0.2-0.1-0.3-0.1
				c-0.2,0-0.2,0.1-0.2,0.2c0,0.1,0.1,0.2,0.3,0.2c0.2,0.1,0.4,0.1,0.4,0.4c0,0.2-0.2,0.4-0.5,0.4c-0.2,0-0.4-0.1-0.5-0.2
				L231.6,127.4z"/>
			<path class="st24" d="M233.2,126.4c0.2,0,0.3,0.1,0.4,0.2l-0.1,0.1c-0.1-0.1-0.2-0.1-0.2-0.1c-0.2,0-0.4,0.2-0.4,0.5
				s0.2,0.5,0.4,0.5c0.1,0,0.2-0.1,0.3-0.1l0.1,0.1c-0.1,0.1-0.2,0.2-0.4,0.2c-0.4,0-0.6-0.2-0.6-0.7
				C232.6,126.6,232.9,126.4,233.2,126.4z"/>
			<path class="st24" d="M233.8,126c0-0.1,0.1-0.1,0.1-0.1s0.1,0.1,0.1,0.1s-0.1,0.1-0.1,0.1C233.9,126.1,233.8,126.1,233.8,126z
				 M233.8,126.4h0.2v1.3h-0.2V126.4z"/>
			<path class="st24" d="M234.5,126.4h0.2v0.2l0,0c0.1-0.1,0.2-0.2,0.4-0.2c0.2,0,0.4,0.2,0.4,0.5v0.8h-0.2v-0.8
				c0-0.2-0.1-0.4-0.2-0.4c-0.1,0-0.2,0.1-0.4,0.2v0.9h-0.2v-1.1H234.5z"/>
			<path class="st24" d="M236,127.6L236,127.6c-0.1-0.1-0.1-0.1-0.1-0.2c0-0.1,0.1-0.2,0.1-0.2l0,0c-0.1-0.1-0.2-0.2-0.2-0.4
				c0-0.3,0.2-0.5,0.5-0.5c0.1,0,0.1,0,0.2,0.1h0.4v0.2h-0.2c0.1,0.1,0.1,0.2,0.1,0.2c0,0.3-0.2,0.4-0.5,0.4c-0.1,0-0.1,0-0.2-0.1
				c-0.1,0.1-0.1,0.1-0.1,0.2c0,0.1,0.1,0.1,0.2,0.1h0.2c0.3,0,0.4,0.1,0.4,0.3c0,0.2-0.2,0.4-0.7,0.4c-0.3,0-0.5-0.1-0.5-0.4
				C235.8,127.8,235.9,127.7,236,127.6z M236.4,128.1c0.2,0,0.4-0.1,0.4-0.2c0-0.1-0.1-0.2-0.2-0.2h-0.2c-0.1,0-0.1,0-0.2,0
				c-0.1,0.1-0.1,0.1-0.1,0.2C236,128,236.2,128.1,236.4,128.1z M236.6,126.9c0-0.2-0.1-0.3-0.2-0.3c-0.1,0-0.2,0.1-0.2,0.3
				s0.1,0.3,0.2,0.3C236.5,127.2,236.6,127,236.6,126.9z"/>
			<path class="st24" d="M238.2,126.4c0.3,0,0.5,0.2,0.5,0.6c0,0.1,0,0.1,0,0.1h-0.8c0,0.3,0.2,0.4,0.4,0.4c0.1,0,0.2-0.1,0.3-0.1
				l0.1,0.1c-0.1,0.1-0.2,0.1-0.4,0.1c-0.4,0-0.6-0.2-0.6-0.7C237.7,126.6,238,126.4,238.2,126.4z M238.6,127c0-0.2-0.1-0.4-0.3-0.4
				c-0.2,0-0.4,0.1-0.4,0.4H238.6z"/>
			<path class="st24" d="M239.1,125.8h0.2v1.6c0,0.1,0,0.1,0.1,0.1c0,0,0,0,0.1,0v0.2c0,0-0.1,0-0.1,0c-0.2,0-0.2-0.1-0.2-0.3V125.8
				z"/>
			<path class="st24" d="M239.7,126c0-0.1,0.1-0.1,0.1-0.1s0.1,0.1,0.1,0.1s-0.1,0.1-0.1,0.1C239.8,126.1,239.7,126.1,239.7,126z
				 M239.7,126.4h0.2v1.3h-0.2V126.4z"/>
			<path class="st24" d="M240.4,126.6h-0.2v-0.2h0.2v-0.4h0.2v0.4h0.4v0.2h-0.4v0.7c0,0.2,0.1,0.2,0.2,0.2c0.1,0,0.1,0,0.1-0.1
				l0.1,0.2c-0.1,0-0.2,0.1-0.2,0.1c-0.3,0-0.4-0.2-0.4-0.4L240.4,126.6L240.4,126.6z"/>
			<path class="st24" d="M241.4,127.4c0.1,0,0.2,0.1,0.2,0.2c0,0.1-0.1,0.2-0.2,0.2c-0.1,0-0.2-0.1-0.2-0.2
				C241.2,127.5,241.3,127.4,241.4,127.4z"/>
			<path class="st24" d="M242.5,127.3c0.1,0.1,0.3,0.2,0.5,0.2c0.2,0,0.4-0.1,0.4-0.3s-0.1-0.2-0.3-0.3l-0.2-0.1
				c-0.2-0.1-0.4-0.2-0.4-0.4c0-0.2,0.2-0.5,0.5-0.5c0.2,0,0.4,0.1,0.5,0.2l-0.1,0.1c-0.1-0.1-0.2-0.2-0.4-0.2
				c-0.2,0-0.3,0.1-0.3,0.2c0,0.2,0.1,0.2,0.3,0.3l0.2,0.1c0.2,0.1,0.4,0.2,0.4,0.5c0,0.3-0.2,0.5-0.6,0.5c-0.2,0-0.5-0.1-0.6-0.2
				L242.5,127.3z"/>
			<path class="st24" d="M243.8,126.4h0.2v0.8c0,0.2,0.1,0.4,0.2,0.4c0.1,0,0.2-0.1,0.4-0.2v-0.9h0.2v1.3h-0.2v-0.2l0,0
				c-0.1,0.1-0.2,0.2-0.4,0.2c-0.2,0-0.4-0.2-0.4-0.5v-0.8H243.8z"/>
			<path class="st24" d="M245.2,127.4c0.1,0.1,0.2,0.2,0.4,0.2c0.2,0,0.2-0.1,0.2-0.2c0-0.1-0.2-0.2-0.3-0.2
				c-0.2-0.1-0.4-0.2-0.4-0.4c0-0.2,0.2-0.4,0.4-0.4c0.2,0,0.3,0.1,0.4,0.1l-0.1,0.1c-0.1-0.1-0.2-0.1-0.3-0.1
				c-0.2,0-0.2,0.1-0.2,0.2c0,0.1,0.1,0.2,0.3,0.2c0.2,0.1,0.4,0.1,0.4,0.4c0,0.2-0.2,0.4-0.5,0.4c-0.2,0-0.4-0.1-0.5-0.2
				L245.2,127.4z"/>
			<path class="st24" d="M246.5,127.8v0.4h-0.2v-1.8h0.2v0.1l0,0c0.1-0.1,0.2-0.2,0.4-0.2c0.3,0,0.5,0.2,0.5,0.7
				c0,0.4-0.2,0.7-0.5,0.7c-0.1,0-0.2-0.1-0.4-0.1L246.5,127.8z M246.8,127.5c0.2,0,0.4-0.2,0.4-0.5s-0.1-0.5-0.4-0.5
				c-0.1,0-0.2,0.1-0.4,0.2v0.7C246.7,127.5,246.8,127.5,246.8,127.5z"/>
			<path class="st24" d="M248.3,126.4c0.3,0,0.5,0.2,0.5,0.6c0,0.1,0,0.1,0,0.1h-0.8c0,0.3,0.2,0.4,0.4,0.4c0.1,0,0.2-0.1,0.3-0.1
				l0.1,0.1c-0.1,0.1-0.2,0.1-0.4,0.1c-0.4,0-0.6-0.2-0.6-0.7C247.7,126.6,248,126.4,248.3,126.4z M248.6,127c0-0.2-0.1-0.4-0.3-0.4
				c-0.2,0-0.4,0.1-0.4,0.4H248.6z"/>
			<path class="st24" d="M249,126.4h0.2v0.2l0,0c0.1-0.1,0.2-0.2,0.4-0.2c0.2,0,0.4,0.2,0.4,0.5v0.8h-0.2v-0.8
				c0-0.2-0.1-0.4-0.2-0.4c-0.1,0-0.2,0.1-0.4,0.2v0.9h-0.2v-1.1H249z"/>
			<path class="st24" d="M217.2,129.5c0.1,0,0.2,0.1,0.4,0.1v-0.2v-0.4h0.2v1.9h-0.2v-0.1l0,0c-0.1,0.1-0.2,0.2-0.4,0.2
				c-0.3,0-0.5-0.2-0.5-0.7C216.7,129.8,216.9,129.5,217.2,129.5z M217.2,130.6c0.1,0,0.2-0.1,0.3-0.2v-0.7
				c-0.1-0.1-0.2-0.1-0.3-0.1c-0.2,0-0.4,0.2-0.4,0.5S217,130.6,217.2,130.6z"/>
			<path class="st24" d="M218.2,129.1c0-0.1,0.1-0.1,0.1-0.1s0.1,0.1,0.1,0.1s-0.1,0.1-0.1,0.1S218.2,129.2,218.2,129.1z
				 M218.2,129.5h0.2v1.3h-0.2V129.5z"/>
			<path class="st24" d="M218.8,130.5c0.1,0.1,0.2,0.2,0.4,0.2c0.2,0,0.2-0.1,0.2-0.2c0-0.1-0.2-0.2-0.3-0.2
				c-0.2-0.1-0.4-0.2-0.4-0.4s0.2-0.4,0.4-0.4c0.2,0,0.3,0.1,0.4,0.1l-0.1,0.1c-0.1-0.1-0.2-0.1-0.3-0.1c-0.2,0-0.2,0.1-0.2,0.2
				s0.1,0.2,0.3,0.2c0.2,0.1,0.4,0.1,0.4,0.4c0,0.2-0.2,0.4-0.5,0.4c-0.2,0-0.4-0.1-0.5-0.2L218.8,130.5z"/>
			<path class="st24" d="M219.9,130.5c0.1,0.1,0.2,0.2,0.4,0.2c0.2,0,0.2-0.1,0.2-0.2c0-0.1-0.2-0.2-0.3-0.2
				c-0.2-0.1-0.4-0.2-0.4-0.4s0.2-0.4,0.4-0.4c0.2,0,0.3,0.1,0.4,0.1l-0.1,0.1c-0.1-0.1-0.2-0.1-0.3-0.1c-0.2,0-0.2,0.1-0.2,0.2
				s0.1,0.2,0.3,0.2c0.2,0.1,0.4,0.1,0.4,0.4c0,0.2-0.2,0.4-0.5,0.4c-0.2,0-0.4-0.1-0.5-0.2L219.9,130.5z"/>
			<path class="st24" d="M221.5,129.5c0.3,0,0.5,0.2,0.5,0.6c0,0.1,0,0.1,0,0.1h-0.8c0,0.3,0.2,0.4,0.4,0.4c0.1,0,0.2-0.1,0.3-0.1
				l0.1,0.1c-0.1,0.1-0.2,0.1-0.4,0.1c-0.4,0-0.6-0.2-0.6-0.7C220.9,129.7,221.2,129.5,221.5,129.5z M221.8,130.1
				c0-0.2-0.1-0.4-0.3-0.4c-0.2,0-0.4,0.1-0.4,0.4H221.8z"/>
			<path class="st24" d="M223.6,130c0-0.2-0.1-0.3-0.2-0.3c-0.1,0-0.3,0.1-0.4,0.1l-0.1-0.1c0.1-0.1,0.3-0.2,0.5-0.2
				c0.3,0,0.4,0.2,0.4,0.5v0.8h-0.2v-0.2l0,0c-0.1,0.1-0.2,0.2-0.4,0.2c-0.2,0-0.4-0.1-0.4-0.4C222.8,130.2,223,130.1,223.6,130z
				 M223.2,130.7c0.1,0,0.2-0.1,0.4-0.2v-0.4c-0.4,0.1-0.5,0.2-0.5,0.3C223,130.6,223.1,130.7,223.2,130.7z"/>
			<path class="st24" d="M224.6,129.5c0.2,0,0.3,0.1,0.4,0.2l-0.1,0.1c-0.1-0.1-0.2-0.1-0.2-0.1c-0.2,0-0.4,0.2-0.4,0.5
				c0,0.3,0.2,0.5,0.4,0.5c0.1,0,0.2-0.1,0.3-0.1l0.1,0.1c-0.1,0.1-0.2,0.2-0.4,0.2c-0.4,0-0.6-0.2-0.6-0.7
				C224,129.7,224.3,129.5,224.6,129.5z"/>
			<path class="st24" d="M226.1,130.9v0.4h-0.2v-1.8h0.2v0.1l0,0c0.1-0.1,0.2-0.2,0.4-0.2c0.3,0,0.5,0.2,0.5,0.7s-0.2,0.7-0.5,0.7
				c-0.1,0-0.2-0.1-0.4-0.1L226.1,130.9z M226.4,130.6c0.2,0,0.4-0.2,0.4-0.5s-0.1-0.5-0.4-0.5c-0.1,0-0.2,0.1-0.4,0.2v0.7
				C226.2,130.6,226.3,130.6,226.4,130.6z"/>
			<path class="st24" d="M227.8,129.5c0.3,0,0.6,0.2,0.6,0.7s-0.3,0.7-0.6,0.7s-0.6-0.2-0.6-0.7S227.5,129.5,227.8,129.5z
				 M227.8,130.6c0.2,0,0.4-0.2,0.4-0.5s-0.1-0.5-0.4-0.5c-0.2,0-0.4,0.2-0.4,0.5S227.6,130.6,227.8,130.6z"/>
			<path class="st24" d="M228.7,129.5h0.2v0.2l0,0c0.1-0.2,0.2-0.2,0.4-0.2c0.1,0,0.1,0,0.1,0l-0.1,0.2c-0.1,0-0.1,0-0.1,0
				c-0.1,0-0.2,0.1-0.3,0.3v0.8h-0.2L228.7,129.5L228.7,129.5z"/>
			<path class="st24" d="M229.7,129.7h-0.2v-0.2h0.2v-0.4h0.2v0.4h0.4v0.2h-0.4v0.7c0,0.2,0.1,0.2,0.2,0.2c0.1,0,0.1,0,0.1-0.1
				l0.1,0.2c-0.1,0-0.2,0.1-0.2,0.1c-0.3,0-0.4-0.2-0.4-0.4L229.7,129.7L229.7,129.7z"/>
			<path class="st24" d="M231.2,130c0-0.2-0.1-0.3-0.2-0.3c-0.1,0-0.3,0.1-0.4,0.1l-0.1-0.1c0.1-0.1,0.3-0.2,0.5-0.2
				c0.3,0,0.4,0.2,0.4,0.5v0.8h-0.2v-0.2l0,0c-0.1,0.1-0.2,0.2-0.4,0.2c-0.2,0-0.4-0.1-0.4-0.4C230.4,130.2,230.6,130.1,231.2,130z
				 M230.8,130.7c0.1,0,0.2-0.1,0.4-0.2v-0.4c-0.4,0.1-0.5,0.2-0.5,0.3C230.6,130.6,230.7,130.7,230.8,130.7z"/>
			<path class="st24" d="M232.3,129.5h0.2v0.2l0,0c0.1-0.1,0.2-0.2,0.4-0.2c0.2,0,0.4,0.2,0.4,0.5v0.8H233V130
				c0-0.2-0.1-0.4-0.2-0.4c-0.1,0-0.2,0.1-0.4,0.2v0.9h-0.2v-1.1H232.3z"/>
			<path class="st24" d="M233.7,129.5h0.2v0.8c0,0.2,0.1,0.4,0.2,0.4c0.1,0,0.2-0.1,0.4-0.2v-0.9h0.2v1.3h-0.2v-0.2l0,0
				c-0.1,0.1-0.2,0.2-0.4,0.2c-0.2,0-0.4-0.2-0.4-0.5v-0.8H233.7z"/>
			<path class="st24" d="M235.1,128.9h0.2v1.6c0,0.1,0,0.1,0.1,0.1c0,0,0,0,0.1,0v0.2c0,0-0.1,0-0.1,0c-0.2,0-0.2-0.1-0.2-0.3V128.9
				z"/>
			<path class="st24" d="M235.8,128.9h0.2v1.6c0,0.1,0,0.1,0.1,0.1c0,0,0,0,0.1,0v0.2c0,0-0.1,0-0.1,0c-0.2,0-0.2-0.1-0.2-0.3V128.9
				z"/>
			<path class="st24" d="M237.1,130c0-0.2-0.1-0.3-0.2-0.3c-0.1,0-0.3,0.1-0.4,0.1l-0.1-0.1c0.1-0.1,0.3-0.2,0.5-0.2
				c0.3,0,0.4,0.2,0.4,0.5v0.8h-0.2v-0.2l0,0c-0.1,0.1-0.2,0.2-0.4,0.2c-0.2,0-0.4-0.1-0.4-0.4C236.4,130.2,236.6,130.1,237.1,130z
				 M236.8,130.7c0.1,0,0.2-0.1,0.4-0.2v-0.4c-0.4,0.1-0.5,0.2-0.5,0.3C236.6,130.6,236.7,130.7,236.8,130.7z"/>
			<path class="st24" d="M237.7,131.1c0.1-0.1,0.2-0.2,0.2-0.3l0,0c-0.1,0-0.2-0.1-0.2-0.1c0-0.1,0.1-0.2,0.2-0.2
				c0.1,0,0.2,0.1,0.2,0.2c0,0.2-0.1,0.4-0.4,0.5L237.7,131.1z"/>
			<path class="st24" d="M239.4,129.5c0.1,0,0.2,0.1,0.4,0.2l0,0v-0.1h0.2v1.8h-0.2v-0.5v-0.2c-0.1,0.1-0.2,0.2-0.4,0.2
				c-0.3,0-0.5-0.2-0.5-0.7C238.9,129.8,239.1,129.5,239.4,129.5z M239.4,130.6c0.1,0,0.2-0.1,0.3-0.2v-0.7
				c-0.1-0.1-0.2-0.1-0.3-0.1c-0.2,0-0.4,0.2-0.4,0.5S239.2,130.6,239.4,130.6z"/>
			<path class="st24" d="M240.4,129.5h0.2v0.8c0,0.2,0.1,0.4,0.2,0.4c0.1,0,0.2-0.1,0.4-0.2v-0.9h0.2v1.3h-0.2v-0.2l0,0
				c-0.1,0.1-0.2,0.2-0.4,0.2c-0.2,0-0.4-0.2-0.4-0.5v-0.8H240.4z"/>
			<path class="st24" d="M241.7,129.1c0-0.1,0.1-0.1,0.1-0.1s0.1,0.1,0.1,0.1s-0.1,0.1-0.1,0.1S241.7,129.2,241.7,129.1z
				 M241.8,129.5h0.2v1.3h-0.2V129.5z"/>
			<path class="st24" d="M242.4,130.5c0.1,0.1,0.2,0.2,0.4,0.2c0.2,0,0.2-0.1,0.2-0.2c0-0.1-0.2-0.2-0.3-0.2
				c-0.2-0.1-0.4-0.2-0.4-0.4s0.2-0.4,0.4-0.4c0.2,0,0.3,0.1,0.4,0.1l-0.1,0.1c-0.1-0.1-0.2-0.1-0.3-0.1c-0.2,0-0.2,0.1-0.2,0.2
				s0.1,0.2,0.3,0.2c0.2,0.1,0.4,0.1,0.4,0.4c0,0.2-0.2,0.4-0.5,0.4c-0.2,0-0.4-0.1-0.5-0.2L242.4,130.5z"/>
			<path class="st24" d="M244.6,129.5c0.3,0,0.6,0.2,0.6,0.7s-0.3,0.7-0.6,0.7s-0.6-0.2-0.6-0.7S244.2,129.5,244.6,129.5z
				 M244.6,130.6c0.2,0,0.4-0.2,0.4-0.5s-0.1-0.5-0.4-0.5c-0.2,0-0.4,0.2-0.4,0.5C244.1,130.4,244.3,130.6,244.6,130.6z"/>
			<path class="st24" d="M245.5,129.5h0.2v0.2l0,0c0.1-0.2,0.2-0.2,0.4-0.2c0.1,0,0.1,0,0.1,0l-0.1,0.2c-0.1,0-0.1,0-0.1,0
				c-0.1,0-0.2,0.1-0.3,0.3v0.8h-0.2L245.5,129.5L245.5,129.5z"/>
			<path class="st24" d="M246.4,129.5h0.2v0.2l0,0c0.1-0.1,0.2-0.2,0.4-0.2c0.2,0,0.4,0.2,0.4,0.5v0.8h-0.2V130
				c0-0.2-0.1-0.4-0.2-0.4c-0.1,0-0.2,0.1-0.4,0.2v0.9h-0.2L246.4,129.5L246.4,129.5z"/>
			<path class="st24" d="M248.5,130c0-0.2-0.1-0.3-0.2-0.3c-0.1,0-0.3,0.1-0.4,0.1l-0.1-0.1c0.1-0.1,0.3-0.2,0.5-0.2
				c0.3,0,0.4,0.2,0.4,0.5v0.8h-0.2v-0.2l0,0c-0.1,0.1-0.2,0.2-0.4,0.2c-0.2,0-0.4-0.1-0.4-0.4C247.7,130.2,248,130.1,248.5,130z
				 M248.1,130.7c0.1,0,0.2-0.1,0.4-0.2v-0.4c-0.4,0.1-0.5,0.2-0.5,0.3C247.9,130.6,248,130.7,248.1,130.7z"/>
			<path class="st24" d="M249.1,129.5h0.2v0.2l0,0c0.1-0.2,0.2-0.2,0.4-0.2c0.1,0,0.1,0,0.1,0l-0.1,0.2c-0.1,0-0.1,0-0.1,0
				c-0.1,0-0.2,0.1-0.3,0.3v0.8H249L249.1,129.5L249.1,129.5z"/>
			<path class="st24" d="M250.4,129.5c0.3,0,0.5,0.2,0.5,0.6c0,0.1,0,0.1,0,0.1h-0.8c0,0.3,0.2,0.4,0.4,0.4c0.1,0,0.2-0.1,0.3-0.1
				l0.1,0.1c-0.1,0.1-0.2,0.1-0.4,0.1c-0.4,0-0.6-0.2-0.6-0.7C249.9,129.7,250.2,129.5,250.4,129.5z M250.8,130.1
				c0-0.2-0.1-0.4-0.3-0.4c-0.2,0-0.4,0.1-0.4,0.4H250.8z"/>
			<path class="st24" d="M216.7,132.7h0.2v0.2l0,0c0.1-0.1,0.2-0.2,0.4-0.2c0.2,0,0.3,0.1,0.4,0.2c0.1-0.1,0.2-0.2,0.4-0.2
				c0.2,0,0.4,0.2,0.4,0.5v0.8h-0.2v-0.7c0-0.2-0.1-0.4-0.2-0.4c-0.1,0-0.2,0.1-0.3,0.2v0.9h-0.2v-0.7c0-0.2-0.1-0.4-0.2-0.4
				c-0.1,0-0.2,0.1-0.3,0.2v0.9h-0.2L216.7,132.7L216.7,132.7z"/>
			<path class="st24" d="M219.6,133.1c0-0.2-0.1-0.3-0.2-0.3c-0.1,0-0.3,0.1-0.4,0.1l-0.1-0.1c0.1-0.1,0.3-0.2,0.5-0.2
				c0.3,0,0.4,0.2,0.4,0.5v0.8h-0.2v-0.2l0,0c-0.1,0.1-0.2,0.2-0.4,0.2c-0.2,0-0.4-0.1-0.4-0.4C218.8,133.3,219.1,133.2,219.6,133.1
				z M219.2,133.8c0.1,0,0.2-0.1,0.4-0.2v-0.4c-0.4,0.1-0.5,0.2-0.5,0.3C219.1,133.7,219.1,133.8,219.2,133.8z"/>
			<path class="st24" d="M220.2,133.6c0.1,0.1,0.2,0.2,0.4,0.2c0.2,0,0.2-0.1,0.2-0.2c0-0.1-0.2-0.2-0.3-0.2
				c-0.2-0.1-0.4-0.2-0.4-0.4c0-0.2,0.2-0.4,0.4-0.4c0.2,0,0.3,0.1,0.4,0.1l-0.1,0.1c-0.1-0.1-0.2-0.1-0.3-0.1
				c-0.2,0-0.2,0.1-0.2,0.2c0,0.1,0.1,0.2,0.3,0.2c0.2,0.1,0.4,0.1,0.4,0.4c0,0.2-0.2,0.4-0.5,0.4c-0.2,0-0.4-0.1-0.5-0.2
				L220.2,133.6z"/>
			<path class="st24" d="M221.3,133.6c0.1,0.1,0.2,0.2,0.4,0.2c0.2,0,0.2-0.1,0.2-0.2c0-0.1-0.2-0.2-0.3-0.2
				c-0.2-0.1-0.4-0.2-0.4-0.4c0-0.2,0.2-0.4,0.4-0.4c0.2,0,0.3,0.1,0.4,0.1l-0.1,0.1c-0.1-0.1-0.2-0.1-0.3-0.1
				c-0.2,0-0.2,0.1-0.2,0.2c0,0.1,0.1,0.2,0.3,0.2c0.2,0.1,0.4,0.1,0.4,0.4c0,0.2-0.2,0.4-0.5,0.4c-0.2,0-0.4-0.1-0.5-0.2
				L221.3,133.6z"/>
			<path class="st24" d="M223.1,133.1c0-0.2-0.1-0.3-0.2-0.3c-0.1,0-0.3,0.1-0.4,0.1l-0.1-0.1c0.1-0.1,0.3-0.2,0.5-0.2
				c0.3,0,0.4,0.2,0.4,0.5v0.8h-0.2v-0.2l0,0c-0.1,0.1-0.2,0.2-0.4,0.2c-0.2,0-0.4-0.1-0.4-0.4C222.4,133.3,222.6,133.2,223.1,133.1
				z M222.8,133.8c0.1,0,0.2-0.1,0.4-0.2v-0.4c-0.4,0.1-0.5,0.2-0.5,0.3C222.5,133.7,222.7,133.8,222.8,133.8z"/>
			<path class="st24" d="M223.9,133.6c0.1,0,0.2,0.1,0.2,0.2c0,0.1-0.1,0.2-0.2,0.2c-0.1,0-0.2-0.1-0.2-0.2
				C223.7,133.7,223.7,133.6,223.9,133.6z"/>
			<path class="st24" d="M224.9,132.2h0.5c0.4,0,0.6,0.1,0.6,0.5c0,0.4-0.2,0.5-0.6,0.5h-0.3v0.7h-0.2V132.2z M225.4,133.1
				c0.3,0,0.4-0.1,0.4-0.4c0-0.2-0.1-0.3-0.4-0.3h-0.3v0.7H225.4z"/>
			<path class="st24" d="M226.4,132.7h0.2v0.2l0,0c0.1-0.2,0.2-0.2,0.4-0.2c0.1,0,0.1,0,0.1,0l-0.1,0.2c-0.1,0-0.1,0-0.1,0
				c-0.1,0-0.2,0.1-0.3,0.3v0.8h-0.2L226.4,132.7L226.4,132.7z"/>
			<path class="st24" d="M227.7,132.6c0.3,0,0.6,0.2,0.6,0.7c0,0.4-0.3,0.7-0.6,0.7s-0.6-0.2-0.6-0.7
				C227.2,132.8,227.4,132.6,227.7,132.6z M227.7,133.8c0.2,0,0.4-0.2,0.4-0.5c0-0.3-0.1-0.5-0.4-0.5c-0.2,0-0.4,0.2-0.4,0.5
				C227.4,133.6,227.6,133.8,227.7,133.8z"/>
			<path class="st24" d="M228.6,132.2c0-0.1,0.1-0.1,0.1-0.1s0.1,0.1,0.1,0.1s-0.1,0.1-0.1,0.1S228.6,132.4,228.6,132.2z
				 M228.7,132.7h0.2v1.3h-0.2V132.7z"/>
			<path class="st24" d="M229.3,132.7h0.2v0.2l0,0c0.1-0.1,0.2-0.2,0.4-0.2c0.2,0,0.4,0.2,0.4,0.5v0.8H230v-0.7
				c0-0.2-0.1-0.4-0.2-0.4c-0.1,0-0.2,0.1-0.4,0.2v0.9h-0.2v-1.2H229.3z"/>
			<path class="st24" d="M231.3,132.7h0.2v0.8c0,0.2,0.1,0.4,0.2,0.4c0.1,0,0.2-0.1,0.4-0.2v-0.9h0.2v1.3h-0.2v-0.2l0,0
				c-0.1,0.1-0.2,0.2-0.4,0.2c-0.2,0-0.4-0.2-0.4-0.5v-0.8H231.3z"/>
			<path class="st24" d="M232.7,132.1h0.2v1.6c0,0.1,0,0.1,0.1,0.1c0,0,0,0,0.1,0v0.2c0,0-0.1,0-0.1,0c-0.2,0-0.2-0.1-0.2-0.3V132.1
				z"/>
			<path class="st24" d="M233.4,132.8h-0.2v-0.2h0.2v-0.4h0.2v0.4h0.4v0.2h-0.4v0.7c0,0.2,0.1,0.2,0.2,0.2c0.1,0,0.1,0,0.1-0.1
				l0.1,0.2c-0.1,0-0.2,0.1-0.2,0.1c-0.3,0-0.4-0.2-0.4-0.4L233.4,132.8L233.4,132.8z"/>
			<path class="st24" d="M234.2,132.7h0.2v0.2l0,0c0.1-0.2,0.2-0.2,0.4-0.2c0.1,0,0.1,0,0.1,0l-0.1,0.2c-0.1,0-0.1,0-0.1,0
				c-0.1,0-0.2,0.1-0.3,0.3v0.8h-0.2L234.2,132.7L234.2,132.7z"/>
			<path class="st24" d="M235.1,132.2c0-0.1,0.1-0.1,0.1-0.1c0.1,0,0.1,0.1,0.1,0.1s-0.1,0.1-0.1,0.1
				C235.2,132.4,235.1,132.4,235.1,132.2z M235.1,132.7h0.2v1.3h-0.2V132.7z"/>
			<path class="st24" d="M236.3,132.6c0.2,0,0.3,0.1,0.4,0.2l-0.1,0.1c-0.1-0.1-0.2-0.1-0.2-0.1c-0.2,0-0.4,0.2-0.4,0.5
				c0,0.3,0.2,0.5,0.4,0.5c0.1,0,0.2-0.1,0.3-0.1l0.1,0.1c-0.1,0.1-0.2,0.2-0.4,0.2c-0.4,0-0.6-0.2-0.6-0.7
				C235.6,132.8,235.9,132.6,236.3,132.6z"/>
			<path class="st24" d="M237.4,132.6c0.3,0,0.5,0.2,0.5,0.6c0,0.1,0,0.1,0,0.1H237c0,0.3,0.2,0.4,0.4,0.4c0.1,0,0.2-0.1,0.3-0.1
				l0.1,0.1c-0.1,0.1-0.2,0.1-0.4,0.1c-0.4,0-0.6-0.2-0.6-0.7C236.8,132.9,237.1,132.6,237.4,132.6z M237.7,133.2
				c0-0.2-0.1-0.4-0.3-0.4s-0.4,0.1-0.4,0.4H237.7z"/>
			<path class="st24" d="M238.2,133.6c0.1,0.1,0.2,0.2,0.4,0.2c0.2,0,0.2-0.1,0.2-0.2c0-0.1-0.2-0.2-0.3-0.2
				c-0.2-0.1-0.4-0.2-0.4-0.4c0-0.2,0.2-0.4,0.4-0.4c0.2,0,0.3,0.1,0.4,0.1l-0.1,0.1c-0.1-0.1-0.2-0.1-0.3-0.1
				c-0.2,0-0.2,0.1-0.2,0.2c0,0.1,0.1,0.2,0.3,0.2c0.2,0.1,0.4,0.1,0.4,0.4c0,0.2-0.2,0.4-0.5,0.4c-0.2,0-0.4-0.1-0.5-0.2
				L238.2,133.6z"/>
			<path class="st24" d="M240.2,132.6c0.3,0,0.5,0.2,0.5,0.6c0,0.1,0,0.1,0,0.1h-0.8c0,0.3,0.2,0.4,0.4,0.4c0.1,0,0.2-0.1,0.3-0.1
				l0.1,0.1c-0.1,0.1-0.2,0.1-0.4,0.1c-0.4,0-0.6-0.2-0.6-0.7C239.7,132.9,240,132.6,240.2,132.6z M240.6,133.2
				c0-0.2-0.1-0.4-0.3-0.4c-0.2,0-0.4,0.1-0.4,0.4H240.6z"/>
			<path class="st24" d="M241.1,132.7h0.2v0.8c0,0.2,0.1,0.4,0.2,0.4c0.1,0,0.2-0.1,0.4-0.2v-0.9h0.2v1.3H242v-0.2l0,0
				c-0.1,0.1-0.2,0.2-0.4,0.2c-0.2,0-0.4-0.2-0.4-0.5v-0.8H241.1z"/>
			<path class="st24" d="M243.5,132.6c0.3,0,0.5,0.2,0.5,0.6c0,0.1,0,0.1,0,0.1h-0.8c0,0.3,0.2,0.4,0.4,0.4c0.1,0,0.2-0.1,0.3-0.1
				l0.1,0.1c-0.1,0.1-0.2,0.1-0.4,0.1c-0.4,0-0.6-0.2-0.6-0.7C242.9,132.9,243.2,132.6,243.5,132.6z M243.8,133.2
				c0-0.2-0.1-0.4-0.3-0.4c-0.2,0-0.4,0.1-0.4,0.4H243.8z"/>
			<path class="st24" d="M244.5,133.3l-0.4-0.6h0.2l0.2,0.3c0.1,0.1,0.1,0.1,0.1,0.2l0,0c0.1-0.1,0.1-0.1,0.1-0.2l0.2-0.3h0.2
				l-0.4,0.6l0.4,0.7H245l-0.2-0.3c-0.1-0.1-0.1-0.2-0.1-0.2l0,0c-0.1,0.1-0.1,0.1-0.1,0.2l-0.2,0.3h-0.3L244.5,133.3z"/>
			<path class="st24" d="M246.4,132.6c0.3,0,0.5,0.2,0.5,0.6c0,0.1,0,0.1,0,0.1h-0.8c0,0.3,0.2,0.4,0.4,0.4c0.1,0,0.2-0.1,0.3-0.1
				l0.1,0.1c-0.1,0.1-0.2,0.1-0.4,0.1c-0.4,0-0.6-0.2-0.6-0.7C245.9,132.9,246.2,132.6,246.4,132.6z M246.8,133.2
				c0-0.2-0.1-0.4-0.3-0.4c-0.2,0-0.4,0.1-0.4,0.4H246.8z"/>
			<path class="st24" d="M247.3,132.7h0.2v0.8c0,0.2,0.1,0.4,0.2,0.4c0.1,0,0.2-0.1,0.4-0.2v-0.9h0.2v1.3h-0.2v-0.2l0,0
				c-0.1,0.1-0.2,0.2-0.4,0.2c-0.2,0-0.4-0.2-0.4-0.5v-0.8H247.3z"/>
			<path class="st24" d="M249.2,132.1h0.2v1.6c0,0.1,0,0.1,0.1,0.1c0,0,0,0,0.1,0v0.2c0,0-0.1,0-0.1,0c-0.2,0-0.2-0.1-0.2-0.3V132.1
				z"/>
			<path class="st24" d="M250.5,133.1c0-0.2-0.1-0.3-0.2-0.3c-0.1,0-0.3,0.1-0.4,0.1l-0.1-0.1c0.1-0.1,0.3-0.2,0.5-0.2
				c0.3,0,0.4,0.2,0.4,0.5v0.8h-0.2v-0.2l0,0c-0.1,0.1-0.2,0.2-0.4,0.2c-0.2,0-0.4-0.1-0.4-0.4C249.8,133.3,250,133.2,250.5,133.1z
				 M250.2,133.8c0.1,0,0.2-0.1,0.4-0.2v-0.4c-0.4,0.1-0.5,0.2-0.5,0.3C250,133.7,250.1,133.8,250.2,133.8z"/>
			<path class="st24" d="M251.7,132.6c0.2,0,0.3,0.1,0.4,0.2l-0.1,0.1c-0.1-0.1-0.2-0.1-0.2-0.1c-0.2,0-0.4,0.2-0.4,0.5
				c0,0.3,0.2,0.5,0.4,0.5c0.1,0,0.2-0.1,0.3-0.1l0.1,0.1c-0.1,0.1-0.2,0.2-0.4,0.2c-0.4,0-0.6-0.2-0.6-0.7
				C251.1,132.8,251.4,132.6,251.7,132.6z"/>
			<path class="st24" d="M252.3,132.2c0-0.1,0.1-0.1,0.1-0.1s0.1,0.1,0.1,0.1s-0.1,0.1-0.1,0.1C252.4,132.4,252.3,132.4,252.3,132.2
				z M252.4,132.7h0.2v1.3h-0.2V132.7z"/>
			<path class="st24" d="M253,132.7h0.2v0.2l0,0c0.1-0.1,0.2-0.2,0.4-0.2c0.2,0,0.4,0.2,0.4,0.5v0.8h-0.2v-0.7
				c0-0.2-0.1-0.4-0.2-0.4c-0.1,0-0.2,0.1-0.4,0.2v0.9h-0.2v-1.2H253z"/>
			<path class="st24" d="M254.4,132.2c0-0.1,0.1-0.1,0.1-0.1s0.1,0.1,0.1,0.1s-0.1,0.1-0.1,0.1C254.4,132.4,254.4,132.4,254.4,132.2
				z M254.4,132.7h0.2v1.3h-0.2V132.7z"/>
			<path class="st24" d="M255.8,133.1c0-0.2-0.1-0.3-0.2-0.3c-0.1,0-0.3,0.1-0.4,0.1l-0.1-0.1c0.1-0.1,0.3-0.2,0.5-0.2
				c0.3,0,0.4,0.2,0.4,0.5v0.8h-0.2v-0.2l0,0c-0.1,0.1-0.2,0.2-0.4,0.2c-0.2,0-0.4-0.1-0.4-0.4C255,133.3,255.3,133.2,255.8,133.1z
				 M255.4,133.8c0.1,0,0.2-0.1,0.4-0.2v-0.4c-0.4,0.1-0.5,0.2-0.5,0.3C255.2,133.7,255.3,133.8,255.4,133.8z"/>
			<path class="st24" d="M256.5,133.6c0.1,0,0.2,0.1,0.2,0.2c0,0.1-0.1,0.2-0.2,0.2c-0.1,0-0.2-0.1-0.2-0.2
				C256.3,133.7,256.4,133.6,256.5,133.6z"/>
		</g>
	</g>
</g>
<g>
	<g>
		<path class="st5" d="M76,161.5c0,0,0.5-37.5-0.7-45.2s-2.9-4.7-6-10.4c-2.4-4.3-3.1-28.8-0.1-37c1.5,5.3,1,22.4,3.5,30.1
			c0.3-7.7-0.9-13.4,2.8-30.1c1.8,15.4,1.3,24,1.6,30.1c1.5-0.2,2.6-10.2,5-29.9c1.8,8.2,0.7,26.8,1.3,30.1c2-1.6,4.1-26.6,4.7-29.7
			c2.8,8.2,2.2,31.9-0.8,37.1c-2.5,4.5-5.2,4.2-5.9,9c-2,14.7,0.1,40.3-0.1,45.8H76z"/>
		<path class="st25" d="M76.2,152.6c0-1.2-0.1-2.4-0.1-3.6c-0.1,7.1-0.1,12.4-0.1,12.4h0.2C76.2,158.6,76.2,155.6,76.2,152.6z"/>
		<path class="st7" d="M76.4,146.5c0-0.1,0-0.2,0-0.3c0.1-0.7,0.1-1.3,0.4-1.8c-0.1-0.4,0-0.7,0-1.1c0.2-2,0.2-4.1,0.2-6.1
			c0-2.5,0.1-5-0.1-7.4c-0.1-0.8-0.1-1.6-0.1-2.3c-0.3-2.4-0.3-4.9-0.4-7.2c-0.1-2-0.4-4-0.9-5.9c-0.2-0.9-0.4-1.8-0.8-2.6
			c-0.1-0.2-0.2-0.4-0.2-0.5c-2.1-1.6-3.8-3.7-4.7-6.5c-0.6-1.7-1-3.7-1.3-5.5c-0.2-1.7-0.1-3.5-0.2-5.1c-0.1-1.8-0.5-3.7-0.4-5.4
			c0.1-0.6,0.1-1.1,0.2-1.7c0-0.3,0-0.5,0-0.8c0-2.9,0.1-5.7,0.3-8.6c0.1-1.4,0.1-2.9,0.4-4.4c0.2-1.4,0.7-2.8,0.7-4.1
			c-3,8.3-2.3,32.6,0.1,36.9c3.1,5.6,4.7,2.7,6,10.4C76.3,120.7,76.5,135.2,76.4,146.5z"/>
		<path class="st5" d="M88.7,71.7c0,0.5-0.1,1-0.1,1.6c0.2,1.1,0.3,2.3,0.4,3.4c0.4,4.3,0.1,8.6,0.1,12.9c-0.1,3.2-0.1,6.8-0.8,10.1
			c0,0.2,0,0.4-0.1,0.7c-0.4,3.5-2.2,6.5-4.4,9.1c-1.4,1.7-3,3.6-3.3,5.9c-0.1,0.4-0.2,0.8-0.3,1.3v0.1c-0.1,2.6-0.4,5.2-0.5,7.8
			c-0.1,2.4-0.1,4.8-0.1,7.2c0,2.4-0.1,4.8,0.1,7.2c0.1,2.3,0.7,4.7,0.7,7c0,4.8,0.3,9.6,0.8,14.5c0.1,0.4,0.1,0.9,0.1,1.3h0.1
			c0.2-5.5-1.8-31.1,0.1-45.8c0.7-4.9,3.4-4.5,5.9-9C90.1,101.8,90.8,81.3,88.7,71.7z"/>
	</g>
	<g>
		<g>
			<path class="st26" d="M46.1,32.4c1.9-2.9,7.1-6.5,17.2-0.4c10.1,6.2,4.8,22-4.1,18.6C50.3,47.1,41.3,39.6,46.1,32.4z"/>
			<g>
				<path class="st27" d="M46.8,33.8c0.8-2.2,1.9-2.6,3-2.9s-0.1,4.2-1.7,5.7C46.4,38.1,46,35.9,46.8,33.8z"/>
				<path class="st28" d="M40.5,30.5c2.9-1.2,7.7,2,8.6,3.1l-1,1.3c0,0-6.3-2.5-8-1.6C38.9,32.4,39.8,31.2,40.5,30.5z"/>
			</g>
		</g>
		<g>
			<path class="st29" d="M111.2,26.8c-1.6,4.8-6.8,7.5-11.5,6c-4.8-1.6-7.5-6.8-5.9-11.6c1.6-4.8,6.3-6.3,11.2-4.8
				C109.7,17.9,112.7,22,111.2,26.8z"/>
			<path class="st30" d="M101.2,17.9c0.4,0.4,0.8,0.7,1.3,1c0.4,0.3,0.9,0.5,1.4,0.7c0.5,0.1,1,0.2,1.5,0.2c0.5,0.1,1.1,0,1.6-0.1
				c-0.5,0.4-1.1,0.6-1.7,0.7c-0.6,0.1-1.1,0.1-1.7-0.1c-0.5-0.2-1-0.5-1.4-0.9C101.8,19.1,101.4,18.5,101.2,17.9z"/>
		</g>
		<g>
			<path class="st31" d="M67.4,63.4c-5.3,1.6,37.3-12.9,49.1-6.8s20.5,15.9,18.7,22.4c-1.8,6.6-19,11-28.1,1.2
				C98,70.5,78.1,60.3,67.4,63.4z"/>
			<path class="st32" d="M123.6,77.7c-0.2,0-0.4-0.1-0.5-0.2c-8.5-11.8-20.2-15.1-28.6-15.7c-9.1-0.7-16.3,1.5-16.3,1.5
				c-0.3,0.1-0.7-0.1-0.7-0.4c-0.1-0.3,0.1-0.7,0.4-0.7c0.3-0.1,7.4-2.2,16.8-1.6c8.6,0.7,20.7,4,29.4,16.2c0.2,0.2,0.1,0.6-0.1,0.8
				C123.8,77.7,123.7,77.7,123.6,77.7z"/>
			<path class="st32" d="M127.4,73.8c-2.5,0-5.7-0.5-9-1.9c-0.3-0.1-0.4-0.5-0.3-0.8c0.1-0.3,0.5-0.4,0.8-0.3c5.2,2.2,10,2,11.9,1.4
				c0.3-0.1,0.7,0.1,0.7,0.4c0.1,0.3-0.1,0.7-0.4,0.7C130.3,73.6,129,73.8,127.4,73.8z"/>
			<path class="st32" d="M127.4,73.8c-2.5,0-5.7-0.5-9-1.9c-0.3-0.1-0.4-0.5-0.3-0.8c0.1-0.3,0.5-0.4,0.8-0.3c5.2,2.2,10,2,11.9,1.4
				c0.3-0.1,0.7,0.1,0.7,0.4c0.1,0.3-0.1,0.7-0.4,0.7C130.3,73.6,129,73.8,127.4,73.8z"/>
			<path class="st32" d="M117.9,83.3c-0.1,0-0.2,0-0.2-0.1c-0.3-0.1-0.4-0.5-0.3-0.8c0.8-1.9,1.4-6.6-0.3-12
				c-0.1-0.3,0.1-0.7,0.4-0.7c0.3-0.1,0.7,0.1,0.7,0.4c1.8,5.7,1.1,10.8,0.2,12.8C118.4,83.2,118.1,83.3,117.9,83.3z"/>
			<path class="st32" d="M111.8,66.1c-0.4,0-0.8,0-1.3-0.1c-0.3,0-0.5-0.3-0.5-0.7c0-0.3,0.3-0.5,0.7-0.5c3.9,0.4,11.5-1.3,13.2-2
				c0.3-0.1,0.7,0,0.8,0.3c0.1,0.3,0,0.7-0.3,0.8C122.5,64.7,116,66.1,111.8,66.1z"/>
		</g>
		<g>
			<g>
				<path class="st33" d="M124.2,47.8c0,11.8-8.9,21.9-20.8,21.9S79.9,59,79.9,47.2S89.6,27,101.6,27S124.2,36.1,124.2,47.8z"/>
				<path class="st34" d="M121.8,47.9c0,10.5-7.9,19.5-18.6,19.5c-10.7,0-20.9-9.6-20.9-20s8.7-18,19.4-18
					C112.3,29.4,121.8,37.4,121.8,47.9z"/>
			</g>
			<path class="st33" d="M102,48.1c0,0-4.9-15.2-4.8-15.8c0.1-0.7,5.7-2.1,8.1,0C106.6,35,102.9,49.2,102,48.1z"/>
			<path class="st33" d="M103.2,48.6c0,0,4.4-15.4,4.8-15.6c0.4-0.1,6,0.8,7.9,4.8C113.1,41.8,103.2,48.6,103.2,48.6z"/>
			<path class="st33" d="M103.2,49.5c0,0,12-9.8,13.3-9.9c1.3-0.1,3.6,6.8,2.9,8.5C116.6,48.9,103.2,49.5,103.2,49.5z"/>
			<g>
				<path class="st33" d="M103,50.3c0,0,15.4-0.2,15.6,0.2c0.2,0.4,0.8,5.7-2.3,8.4C111.9,57.5,103,50.3,103,50.3z"/>
				<path class="st33" d="M102.1,50.6c0,0,12.1,8.3,12.6,9.5c0.4,1.1-5.3,5.1-7.1,4.8C106.3,62.6,102.1,50.6,102.1,50.6z"/>
			</g>
			<path class="st33" d="M101.4,50.3c0,0,4.6,13.8,4.2,15.1c-0.4,1.3-7.7,1-9-0.3C97,62.2,101.4,50.3,101.4,50.3z"/>
			<g>
				<path class="st33" d="M101.1,48.9c0,0-5.3,14.5-5.7,14.5c-0.4,0.1-5.6-1.3-7.1-5.1C91.2,54.7,101.1,48.9,101.1,48.9z"/>
				<path class="st33" d="M100.2,48c0,0-12.1,8.4-13.3,8.4s-2.9-6.8-2.1-8.3C87.5,47.6,100.2,48,100.2,48z"/>
			</g>
		</g>
		<g>
			<path class="st35" d="M76.3,18.3c1.4-5.3,2.5-9.5,7.2-9.5c4.7,0,4.4,9,10.1,13.4c5.6,4.4,11.3,8.9,12.4,12
				c3.5,10-8.4,23.5-21.7,9.5C75.5,34.4,75,23,76.3,18.3z"/>
			<path class="st36" d="M90.5,15.2c-1-4.4-5.4-6.9-7.4-6.6l-1.2,0.2c-2,0.4-3.9,2.8-4.5,5.5c-0.6,2.6-2.5,2.8-2.5,2.8
				s4.7,0.5,6.3-2.5c0.5,1.9,1.4,2.8,1.2,4.6c1.5-0.1,2.8-2,3.5-3.5c2.2,3.2,5.2,2,6.3,1.6C91.5,16.8,90.8,16.3,90.5,15.2z"/>
			<path class="st36" d="M85.4,3.1c-2.6,1.7-2.8,7.2-2.5,8.5l1.6-0.1c0,0,1.6-6.4,3.2-7.2C87.8,2.9,86.3,3,85.4,3.1z"/>
		</g>
		<g>
			<path class="st37" d="M68.6,62.9c1.7-12.2-12.2-18.4-11.6-8.5c-5-9.6-14.8-10.2-11.8-1.6c-3.9-2.7-6.7-6-8.5-1.6
				c-0.8,6.8,3.5,9.3,6.5,9.9c-3.4,1.8-2.2,12.7,8.6,5.7c0,10.8,14.2-0.3,16.3-2.1C70.1,62.9,68.6,62.9,68.6,62.9z"/>
			<path class="st38" d="M49.6,59.9c-3.3-1.1-7.2-4.2-7.5-4.3c-0.2-0.1-0.3-0.3-0.2-0.5c0.1-0.2,0.3-0.3,0.5-0.2
				c0.2,0.1,13.9,8.9,31.5,9.3c0.2,0,0.4,0.1,0.4,0.4s-0.1,0.4-0.4,0.5C69,65.6,57.6,62.5,49.6,59.9z"/>
		</g>
		<g>
			<path class="st39" d="M66.2,72.5c0.9-15.1-24.5-10.7-14.2-2.6c-7.7-6-22.1,2-15.9,5.3c-7.1,2.4-7.7,6-6.5,10.3
				c0.8,7.3,9,4.4,11.1,2.4c-3.5,5.2,6.8,13.6,12.3,2.4c4.8,5.9,17.2-9.2,17.9-16C71.8,71,70.4,74,66.2,72.5z"/>
			<path class="st39" d="M66.7,83.3c-1.3,1.4-2.6,2.9-4.1,4.1c-1.4,1.2-3.2,2.9-5.1,3.3c-1.1,0.3-2.4,0.4-3.4-0.3
				c-0.3-0.2-0.7-0.4-0.9-0.7c-0.8,1.7-2,3.2-3.8,4.2c-2.6,1.5-5.9,1.4-7.8-1.3c-1.2-1.7-0.8-3.6-0.2-5.3c-1.9,1.3-4,2.2-6.2,2.1
				c-1.5,0-3.1-0.4-4.4-1.1c2.5,3.3,8.3,1.1,10.1-0.5c-3.5,5.2,6.8,13.6,12.3,2.4c3.4,4.1,10.4-1.9,14.5-8.3
				C67.4,82.5,67.1,82.9,66.7,83.3z"/>
			<path class="st40" d="M35.1,84.5c-0.2,0.1-0.4-0.1-0.5-0.2c-0.1-0.2-0.1-0.5,0.2-0.7c0.1-0.1,6.5-3.5,14.7-6.6
				c11-4.2,19.5-5.8,25.5-4.8c0.2,0.1,0.4,0.3,0.4,0.5s-0.3,0.4-0.5,0.4c-13.9-2.4-39.3,11.1-39.6,11.3
				C35.2,84.5,35.1,84.5,35.1,84.5z"/>
		</g>
		<g>
			<path class="st41" d="M77.9,81c4-2.2,10.8-9.3,15.5-14.4c4.8-5,7.3-0.5,7.3-0.5c-2.9,2.7-9.7,5.3-13.1,12.5
				c9.9-2.4,9.9-3.8,13-4.7s3.4,3.1,3.4,3.1s-18.7,5.5-23.6,8.4C77.8,84.3,77.9,81,77.9,81z"/>
			<path class="st42" d="M83.1,84.8c4.4-0.8,14.1-0.4,21.1-0.1c6.9,0.3,5.3-3.1,5.3-3.1c-4,0-10.5,1.9-18.1-0.1
				c8.4-3.4,9.5-2.7,12.3-3.6c2.8-1,0.1-3.1,0.1-3.1s-16.8,5.8-22.3,6.7C80.6,83.3,83.1,84.8,83.1,84.8z"/>
			<g>
				<path class="st41" d="M109,72.5c-0.1-0.8-0.8-1.2-1-1.9c-0.4-1.1-0.1-2-0.1-2.1c-0.1-0.1-1-0.7-1.4-1.4
					c-0.2-0.4,0.1-1.1-0.2-1.6c-0.3-0.5-1.2-0.7-1.5-1.1c-0.4-0.5-0.7-0.8-1-1.1c-0.4-0.4-0.9-0.5-1.7-0.8c-0.6-0.2-1-1.5-1.7-1.6
					c-0.7-0.1-1.7,0.9-2.3,0.7c-0.9-0.2-1.2-1.4-1.6-1.6c-0.8-0.5-1.9,0.4-2.5,0.3c-0.8-0.1-1.7-1-2.4-0.7c-0.7,0.4-0.6,1.8-1.1,2.3
					c-0.6,0.5-1.9,0.5-2.4,1c-0.7,0.5-0.1,1.7-0.1,3.1c0,1-1,2.2-0.8,3.4c0.2,1,1.6,1.8,2,2.9c0.3,1.1-0.1,2,0.3,3.1
					c0.4,1,1.4,1.5,2.1,2c0.7,0.6,1.4,1.5,2.3,1.7c0.9,0.2,1.7-0.4,2.5-0.2c1.1,0.1,1.5,0.7,2,1c0.6,0.4,1.7-0.1,2.6-0.4
					c0.7-0.2,1.4,0.2,2.1-0.2c0.7-0.3,1.2-1.4,1.9-1.7c0.7-0.4,1.3-0.3,1.9-0.7c0.7-0.4,1-1.2,1.3-1.9
					C108.6,74.1,109.1,73.2,109,72.5z"/>
				<path class="st41" d="M109.9,70.4c-0.1-0.8-0.4-1.4-1-1.9c0.3-0.8-0.1-2-0.1-2.1c-0.1-0.1-1-1.3-1.4-1.4
					c0.1-0.3,0.1-1.1-0.2-1.6c-0.3-0.5-1.1-0.8-1.5-1.1c-0.4-0.5-0.7-0.8-1-1.1c-0.4-0.4-0.9-0.5-1.7-0.8c0-0.6-1-1.5-1.7-1.6
					S99.4,59,99,59.5c-0.2-0.5-1.2-1.4-1.6-1.6c-0.8-0.5-1.9,0.4-2.5,0.3c-0.8-0.1-1.7-1-2.4-0.7c-0.7,0.4-0.6,1.8-1.1,2.3
					c-0.6,0.5-1.9,0.5-2.4,1c-0.7,0.5-0.1,1.7-0.1,3.1c0,1-1,2.2-0.8,3.4c0.2,1,1.6,1.9,2,2.9c0.3,1.1-0.1,2,0.3,3.1
					c0.4,1,1.4,1.5,2.1,2c0.7,0.6,1.4,1.5,2.3,1.7s1.7-0.4,2.5-0.2c1.1,0.1,1.5,0.7,2,1c0.6,0.4,1.7-0.1,2.6-0.4
					c0.7-0.2,1.4,0.2,2.1-0.2c0.7-0.3,1.2-1.4,1.9-1.7c0.7-0.4,1.3-0.3,1.9-0.7c0.7-0.4,1-1.2,1.3-1.9
					C109.4,71.9,109.9,71.1,109.9,70.4z"/>
				<path class="st41" d="M107.9,74.5C107.9,74.6,107.9,74.6,107.9,74.5c-0.2,1.3-1.6,2.5-3,1.7c-0.3,0.3-0.6,0.7-0.9,0.8
					c-0.2,0.1-0.5,0.2-0.8,0.2c-0.6,0.8-1.7,1.3-2.8,0.4c-0.5,0.1-1,0.2-1.3,0c-0.2-0.1-0.4-0.2-0.5-0.4c-0.6,0.4-1.4,0.4-2.2-0.2
					c-0.1-0.1-0.2-0.2-0.3-0.4c-0.5,0.1-1,0.3-1.6,0.1c-0.6-0.2-1.1-0.6-1.6-1.1c-0.4,0-0.8-0.2-1.1-0.5s-0.5-0.7-0.7-1
					c-0.4-0.4-0.8-0.7-1-1.3c-0.2-0.7-0.1-1.4-0.2-2.1c-0.2-0.1-0.5-0.2-0.8-0.4c-0.4-0.4-0.6-0.8-0.7-1.2c-0.7-0.6-0.8-1.3-0.5-1.9
					c-0.1-0.1-0.1-0.2-0.1-0.3c-0.1-0.2-0.1-0.5,0-0.7c-0.1,0-0.1,0-0.1,0.1c-0.2,0.8-0.9,1.9-0.7,2.8c0.2,1,1.6,1.8,2,2.9
					c0.3,1.1-0.1,2,0.3,3.1c0.4,1,1.4,1.5,2.1,2c0.7,0.6,1.4,1.5,2.3,1.7s1.7-0.4,2.5-0.2c1.1,0.1,1.5,0.7,2,1
					c0.6,0.4,1.7-0.1,2.6-0.4c0.7-0.2,1.4,0.2,2.1-0.2c0.7-0.3,1.2-1.4,1.9-1.7c0.7-0.4,1.3-0.3,1.9-0.7c0.7-0.4,1-1.2,1.3-1.9
					c0.2-0.5,0.5-1.1,0.7-1.6C108.8,73.7,108.5,74.2,107.9,74.5z"/>
			</g>
			<g>
				<path class="st37" d="M117,78.6c0.3-0.3,0.5-0.9,0.4-1.4c-0.1-0.5-0.8-1-1-1.6c-0.2-0.5-0.3-1-0.5-1.3c-0.2-0.5-0.6-0.8-1.2-1.3
					c-0.1-0.4-0.4-1.7-1-2c-0.6-0.4-1.7-0.2-2.3-0.1c0.2-0.7-0.6-1.7-0.8-2c-0.5-0.7-1.7-0.3-2.3-0.6c-0.7-0.4-3.2,0-3.9,0.1
					c-0.7,0.1-1.6,1.3-1.8,1.6c-0.5,0-1.8-0.1-2.5,0.1c-0.8,0.2-1.4,2.1-1.1,2.7c-0.3,0.8-1.6,1.6-1.8,2.8c-0.2,1,0.8,2.2,0.8,3.2
					c-0.1,1.1-0.7,1.8-0.7,2.8c0,1,0.8,1.8,1.1,2.5c0.4,0.8,0.7,1.9,1.4,2.3c0.7,0.5,1.6,0.3,2.3,0.7c1,0.5,1.1,1.1,1.4,1.6
					c0.4,0.5,1.6,0.5,2.5,0.5c0.7,0.1,1.1,0.7,2,0.5c0.7-0.1,1.6-0.8,2.3-0.9c0.7-0.1,1.2,0.1,2,0s1.3-0.7,1.7-1.3
					c0.5-0.5,1.2-1.1,1.4-1.8c0.5-0.3,1.7-2.8,1.8-3.5c0.4-0.5,0.6-1.7,0.6-1.9C117.8,80.2,117.6,79,117,78.6z"/>
				<path class="st37" d="M114,87.5c0.3-0.4,0.8-0.8,1.1-1.3c-0.4,0.4-0.8,0.8-1.4,0.8h-0.1c-0.5,1.1-2.2,1.6-3.1,0.5
					c-0.4,0.2-0.7,0.4-1.1,0.4c-0.3,0-0.5,0-0.7-0.1c-0.8,0.5-2,0.5-2.6-0.5c-0.5-0.1-0.9-0.2-1.1-0.4c-0.1-0.2-0.2-0.3-0.3-0.5
					c-0.7,0.1-1.4-0.1-1.9-0.9c-0.1-0.1-0.1-0.3-0.2-0.4c-0.5-0.1-1-0.1-1.4-0.4c-0.5-0.4-0.7-0.9-1-1.5c-0.3-0.1-0.6-0.4-0.8-0.8
					c-0.2-0.4-0.3-0.7-0.2-1.1c-0.3-0.4-0.5-1-0.5-1.5c0-0.7,0.4-1.3,0.5-1.9c-0.2-0.2-0.4-0.4-0.5-0.7c-0.2-0.5-0.3-0.9-0.2-1.3
					c-0.4-0.7-0.2-1.4,0.2-1.9c0-0.1,0-0.2,0-0.3c0.1-0.2,0.1-0.5,0.2-0.7c-0.1,0-0.1,0-0.1,0c-0.5,0.7-1.4,1.4-1.6,2.3
					c-0.2,1,0.8,2.2,0.8,3.2c-0.1,1.1-0.7,1.8-0.7,2.8c0,1,0.8,1.8,1.1,2.5c0.4,0.8,0.7,1.9,1.4,2.3c0.7,0.5,1.6,0.3,2.3,0.7
					c1,0.5,1.1,1.1,1.4,1.6c0.4,0.5,1.6,0.5,2.5,0.5c0.7,0.1,1.1,0.7,2,0.5c0.7-0.1,1.6-0.8,2.3-0.9c0.7-0.1,1.2,0.1,2,0
					C113,88.6,113.6,88,114,87.5z"/>
			</g>
		</g>
		<g>
			<path class="st43" d="M32.7,14.3c0,0,1.4-2.8,1.1-3.6c-0.4-0.8,28.5,12.4,29.8,12.4c1.3,0.1-0.8,1.8-1.1,1.8
				C62,24.9,34.8,15,32.7,14.3z"/>
			<path class="st44" d="M62.5,23.5c0.4,2.3-3.5,4.8-1,6.2c2.5,1.4,42.2,14.3,52.7,12.7c10.6-1.6-30.3-16.1-36.2-18.3
				C72,22,61.1,16.3,62.5,23.5z"/>
			<path class="st45" d="M88.1,36.3c0.4-0.4,0.8-0.8,1.1-1.3c0.3-0.5,0.5-0.9,0.7-1.4c0.2-0.5,0.3-1,0.4-1.6
				c0.1-0.5,0.1-1.1,0.1-1.7c0.4,0.6,0.6,1.2,0.7,1.8s0,1.2-0.2,1.7c-0.2,0.5-0.5,1-1,1.4C89.4,35.8,88.9,36.1,88.1,36.3z"/>
			<path class="st45" d="M73.6,32.3c0.4-0.5,0.7-1,1-1.6s0.5-1.1,0.7-1.7c0.2-0.5,0.4-1.1,0.5-1.7c0.1-0.6,0.2-1.2,0.3-1.9
				c0.2,0.6,0.2,1.3,0.2,1.9c-0.1,0.7-0.2,1.3-0.4,1.9s-0.5,1.2-1,1.7C74.6,31.6,74.1,32,73.6,32.3z"/>
			<path class="st45" d="M80.5,34c0.4-0.5,0.7-1,1-1.4c0.3-0.5,0.5-1,0.7-1.6c0.2-0.5,0.4-1.1,0.4-1.6c0.1-0.5,0.2-1.1,0.2-1.7
				c0.2,0.5,0.2,1.1,0.2,1.8c0,0.6-0.1,1.2-0.4,1.8c-0.2,0.6-0.5,1.1-0.9,1.6C81.5,33.3,81.1,33.7,80.5,34z"/>
			<path class="st45" d="M97.2,38.9c0.3-0.4,0.6-0.7,0.8-1c0.2-0.4,0.4-0.7,0.5-1.1c0.1-0.4,0.2-0.8,0.3-1.2s0.1-0.8,0.1-1.3
				c0.2,0.4,0.4,0.9,0.4,1.4c0.1,0.5,0,0.9-0.2,1.3c-0.2,0.4-0.4,0.8-0.7,1.1C98.1,38.4,97.7,38.7,97.2,38.9z"/>
			<path class="st46" d="M63.8,24.6c2-0.8-2.8,4.1-5,3.1c-2.3-1-27.5-5.7-27.9-5.9c-0.4-0.2-0.1-2.5-0.4-2.7
				C30.1,18.8,60.7,25.8,63.8,24.6z"/>
			<path class="st47" d="M63.9,22.3c-1.2-1.4-9.5-4.8-13.9-7.7S39.5,8.6,39.5,8.6s-0.2,3.2-0.7,3.2S59.7,21,61.2,22.4
				C62.7,23.9,64.6,23.1,63.9,22.3z"/>
			<path class="st48" d="M63.2,24.7c-1.8,0.1-11.1-2.8-16.8-3.8c-5.6-1-12.6-2.7-12.6-2.7s1.5-1.9,1-2.2c-0.5-0.3,23.9,7,26,7.1
				C63,23.1,64.4,24.6,63.2,24.7z"/>
		</g>
		<g>
			<path class="st49" d="M73.2,72.7c14,0.8,22.3,4.2,23.5,6.3c0.2,2.3-0.3,5.2-0.3,5.2s-19.4,10.4-40.5-1.5c-0.1-4,0.1-4.8,0.4-5.9
				C58,75.2,64.5,72.2,73.2,72.7z"/>
			<path class="st50" d="M94.3,79.2c0.1-2-8.6-4.7-18.3-5.3c-9.6-0.6-16.7,1.3-17.7,3.3c0.8,1.9,8,4.2,17.6,4.8
				C85.6,82.6,93.2,81.1,94.3,79.2z"/>
			<path class="st51" d="M77.9,77.5c0.4-1.3,3.7-3.1,4.8-1.4C83.7,77.8,78.9,78.1,77.9,77.5z"/>
			<path class="st51" d="M74.3,77.9c-1.9,0.4-6.4-0.8-5-2.3C70.5,74.2,74.3,76.9,74.3,77.9z"/>
			<path class="st51" d="M76,78.4c-0.2,1.1-3.1,2.9-4.1,1.6C70.8,78.7,75,78,76,78.4z"/>
		</g>
		<g>
			<g>
				<path class="st52" d="M101.4,50.4c0,12.7-4.1,29.7-25.1,25.7c-15.1,3.5-25.1-13-25.1-25.7c0-12.7,11.2-17.7,25.1-17.7
					S101.4,37.7,101.4,50.4z"/>
				<path class="st53" d="M89.5,70.1c-4.5,1.4-9.2,1.2-13.8,0.3c-1.2-0.2-2.3-0.5-3.4-1c-2.3-0.9-5-1.8-7-3.2
					c-3.1-2.1-6.3-4.7-8-8.1c-0.8-1.6-1.7-3.3-2-5.1c-0.5-3-0.7-4.2-0.5-5.9l-0.1,0.5c0.1-0.2,0.1-0.5,0.1-0.7
					c0.1-0.3,0.1-0.7,0.1-1c0.1-0.7,0.2-1.5,0.3-2.2c0-0.1,0.1-0.2,0.1-0.4c0,0.1,0,0.2-0.1,0.3c0.2-1,0.4-1.9,0.7-2.8
					c0-0.2,0-0.4,0-0.6c0-0.5,0.1-1,0.1-1.5c-3,2.8-4.8,6.6-4.8,11.7c0,12.7,9.9,29.1,25.1,25.7c12.9,2.5,19.4-3,22.5-10.5
					c-1.1,0.7-2.1,1.3-3.4,1.8C93.6,68.5,91.5,69.4,89.5,70.1z"/>
				<path class="st54" d="M76.5,37c-4.1,0-16.8-3.6-21.1,0c1.7-2.8,4.1-3.9,7.3-3.9C65.8,33.1,75,33.3,76.5,37z"/>
				<path class="st54" d="M97.1,41.8C99.3,43,83,23.9,75.7,37.9c0,0,10.5-0.5,15.9,1.7C97.1,41.8,96.2,41.3,97.1,41.8z"/>
				<path class="st54" d="M67.9,45.7c-0.5-3.9,1.6-11.7,7.5-9.8c0.9,0.3,2.6,0.2,3.1,2.2C75.9,38.8,71.2,43.1,67.9,45.7z"/>
				<path class="st54" d="M83.9,21.5c-0.3,0.6-6.2,11.2-5.4,14.7c0.1,0.8-1,0.6-2,0.4s-2.9,0.5-2.9-0.4c-0.1-1.3,6.6-13.8,9.2-15
					C83,21.4,83.5,21.5,83.9,21.5z"/>
			</g>
			<path class="st54" d="M72.4,35.4c0.7,0.3,1.3,0.5,1.9,0.7c0.7,0.1,1.3,0.2,1.9,0.2c0.7,0,1.3-0.1,1.9-0.2
				c0.7-0.2,1.3-0.4,1.9-0.6c-0.5,0.7-1.1,1.1-1.8,1.4c-0.7,0.3-1.3,0.5-2,0.5s-1.4-0.2-2-0.5C73.5,36.6,72.9,36.1,72.4,35.4z"/>
		</g>
		<path class="st55" d="M105.5,13.9c-0.6,0.1-2.5,3.5-2.2,5.6l0.6,0.4c0,0,2.2-5.2,2.8-5.2C106.7,14.7,106.1,13.8,105.5,13.9z"/>
	</g>
</g>
<g>
	<g>
		<path class="st56" d="M97.2,114.8h0.9v2h2.1v-2h0.9v5.1h-0.9v-2.3h-2v2.3h-0.9L97.2,114.8L97.2,114.8z"/>
		<path class="st56" d="M102.4,114.8h3.1v0.8h-2.2v1.3h1.9v0.8h-1.9v1.5h2.3v0.8h-3.2V114.8z"/>
		<path class="st56" d="M109,118.6h-1.7l-0.4,1.4h-0.9l1.7-5.1h1.1l1.7,5.1h-1L109,118.6z M108.7,117.9l-0.2-0.6
			c-0.2-0.5-0.3-1.1-0.5-1.7H108c-0.1,0.6-0.3,1.1-0.5,1.7l-0.2,0.6H108.7z"/>
		<path class="st56" d="M110.9,114.8h0.9v4.4h2.2v0.8h-3.1V114.8z"/>
		<path class="st56" d="M114.9,115.6h-1.5v-0.8h3.8v0.8h-1.5v4.4h-0.9L114.9,115.6L114.9,115.6z"/>
		<path class="st56" d="M118.2,114.8h0.9v2h2.1v-2h0.9v5.1h-0.9v-2.3h-2.1v2.3h-0.9V114.8z"/>
		<path class="st56" d="M124.2,118.1l-1.6-3.2h1l0.5,1.3c0.1,0.4,0.3,0.7,0.5,1.1h0.1c0.2-0.4,0.3-0.7,0.5-1.1l0.5-1.3h1l-1.6,3.2
			v1.9h-0.9V118.1z"/>
		<path class="st56" d="M128.9,114.8h3.1v0.8h-2.2v1.4h1.9v0.8h-1.9v2.2h-0.9L128.9,114.8L128.9,114.8z"/>
		<path class="st56" d="M132.5,117.4c0-1.7,0.9-2.6,2.3-2.6c1.3,0,2.3,1,2.3,2.6s-0.9,2.7-2.3,2.7C133.4,120,132.5,119,132.5,117.4z
			 M136.1,117.4c0-1.1-0.5-1.9-1.3-1.9s-1.3,0.7-1.3,1.9s0.5,1.9,1.3,1.9C135.6,119.3,136.1,118.5,136.1,117.4z"/>
		<path class="st56" d="M137.8,117.4c0-1.7,0.9-2.6,2.3-2.6c1.3,0,2.3,1,2.3,2.6s-0.9,2.7-2.3,2.7C138.7,120,137.8,119,137.8,117.4z
			 M141.3,117.4c0-1.1-0.5-1.9-1.3-1.9s-1.3,0.7-1.3,1.9s0.5,1.9,1.3,1.9C140.9,119.3,141.3,118.5,141.3,117.4z"/>
		<path class="st56" d="M143.3,114.8h1.4c1.6,0,2.5,0.8,2.5,2.5c0,1.7-0.9,2.6-2.5,2.6h-1.4V114.8z M144.6,119.2
			c1,0,1.6-0.6,1.6-1.9c0-1.3-0.6-1.8-1.6-1.8h-0.4v3.7H144.6z"/>
	</g>
	<g>
		<path class="st57" d="M97.7,123.2h0.2v1.5h0.7v0.2h-1L97.7,123.2L97.7,123.2z"/>
		<path class="st57" d="M99.4,123.6c0.3,0,0.6,0.2,0.6,0.7c0,0.4-0.3,0.7-0.6,0.7s-0.6-0.2-0.6-0.7C98.8,123.9,99,123.6,99.4,123.6z
			 M99.4,124.8c0.2,0,0.4-0.2,0.4-0.5c0-0.3-0.1-0.5-0.4-0.5c-0.2,0-0.4,0.2-0.4,0.5C99,124.6,99.1,124.8,99.4,124.8z"/>
		<path class="st57" d="M100.3,123.7h0.2v0.2l0,0c0.1-0.2,0.2-0.2,0.4-0.2c0.1,0,0.1,0,0.1,0l-0.1,0.2c-0.1,0-0.1,0-0.1,0
			c-0.1,0-0.2,0.1-0.3,0.3v0.8h-0.2L100.3,123.7L100.3,123.7z"/>
		<path class="st57" d="M101.6,123.6c0.3,0,0.5,0.2,0.5,0.6c0,0.1,0,0.1,0,0.1h-0.8c0,0.3,0.2,0.4,0.4,0.4c0.1,0,0.2-0.1,0.3-0.1
			l0.1,0.1c-0.1,0.1-0.2,0.1-0.4,0.1c-0.4,0-0.6-0.2-0.6-0.7C101.1,123.9,101.4,123.6,101.6,123.6z M102,124.2
			c0-0.2-0.1-0.4-0.3-0.4c-0.2,0-0.4,0.1-0.4,0.4H102z"/>
		<path class="st57" d="M102.4,123.7h0.2v0.2l0,0c0.1-0.1,0.2-0.2,0.4-0.2c0.2,0,0.3,0.1,0.4,0.2c0.1-0.1,0.2-0.2,0.4-0.2
			c0.2,0,0.4,0.2,0.4,0.5v0.8h-0.2v-0.7c0-0.2-0.1-0.4-0.2-0.4c-0.1,0-0.2,0.1-0.3,0.2v0.9h-0.2v-0.7c0-0.2-0.1-0.4-0.2-0.4
			c-0.1,0-0.2,0.1-0.3,0.2v0.9h-0.2L102.4,123.7L102.4,123.7z"/>
		<path class="st57" d="M105.1,123.3c0-0.1,0.1-0.1,0.1-0.1c0.1,0,0.1,0.1,0.1,0.1c0,0.1-0.1,0.1-0.1,0.1
			C105.1,123.4,105.1,123.3,105.1,123.3z M105.1,123.7h0.2v1.3h-0.2V123.7z"/>
		<path class="st57" d="M106,125.1v0.4h-0.2v-1.8h0.2v0.1l0,0c0.1-0.1,0.2-0.2,0.4-0.2c0.3,0,0.5,0.2,0.5,0.7s-0.2,0.7-0.5,0.7
			c-0.1,0-0.2-0.1-0.4-0.1L106,125.1z M106.3,124.8c0.2,0,0.4-0.2,0.4-0.5c0-0.3-0.1-0.5-0.4-0.5c-0.1,0-0.2,0.1-0.4,0.2v0.7
			C106.1,124.8,106.2,124.8,106.3,124.8z"/>
		<path class="st57" d="M107.2,124.6c0.1,0.1,0.2,0.2,0.4,0.2c0.2,0,0.2-0.1,0.2-0.2c0-0.1-0.2-0.2-0.3-0.2
			c-0.2-0.1-0.4-0.2-0.4-0.4c0-0.2,0.2-0.4,0.4-0.4c0.2,0,0.3,0.1,0.4,0.1l-0.1,0.1c-0.1-0.1-0.2-0.1-0.3-0.1
			c-0.2,0-0.2,0.1-0.2,0.2c0,0.1,0.1,0.2,0.3,0.2c0.2,0.1,0.4,0.1,0.4,0.4c0,0.2-0.2,0.4-0.5,0.4c-0.2,0-0.4-0.1-0.5-0.2
			L107.2,124.6z"/>
		<path class="st57" d="M108.2,123.7h0.2v0.8c0,0.2,0.1,0.4,0.2,0.4c0.1,0,0.2-0.1,0.4-0.2v-0.9h0.2v1.3h-0.2v-0.2l0,0
			c-0.1,0.1-0.2,0.2-0.4,0.2c-0.2,0-0.4-0.2-0.4-0.5v-0.8H108.2z"/>
		<path class="st57" d="M109.7,123.7h0.2v0.2l0,0c0.1-0.1,0.2-0.2,0.4-0.2c0.2,0,0.3,0.1,0.4,0.2c0.1-0.1,0.2-0.2,0.4-0.2
			c0.2,0,0.4,0.2,0.4,0.5v0.8h-0.2v-0.7c0-0.2-0.1-0.4-0.2-0.4c-0.1,0-0.2,0.1-0.3,0.2v0.9h-0.2v-0.7c0-0.2-0.1-0.4-0.2-0.4
			c-0.1,0-0.2,0.1-0.3,0.2v0.9h-0.2L109.7,123.7L109.7,123.7z"/>
		<path class="st57" d="M112.9,123.6c0.1,0,0.2,0.1,0.4,0.1v-0.2V123h0.2v1.9h-0.2v-0.1l0,0c-0.1,0.1-0.2,0.2-0.4,0.2
			c-0.3,0-0.5-0.2-0.5-0.7C112.3,123.9,112.6,123.6,112.9,123.6z M112.9,124.8c0.1,0,0.2-0.1,0.3-0.2v-0.7c-0.1-0.1-0.2-0.1-0.3-0.1
			c-0.2,0-0.4,0.2-0.4,0.5C112.5,124.6,112.6,124.8,112.9,124.8z"/>
		<path class="st57" d="M114.3,123.6c0.3,0,0.6,0.2,0.6,0.7c0,0.4-0.3,0.7-0.6,0.7s-0.6-0.2-0.6-0.7
			C113.7,123.9,114,123.6,114.3,123.6z M114.3,124.8c0.2,0,0.4-0.2,0.4-0.5c0-0.3-0.1-0.5-0.4-0.5c-0.2,0-0.4,0.2-0.4,0.5
			C113.9,124.6,114.1,124.8,114.3,124.8z"/>
		<path class="st57" d="M115.2,123.1h0.2v1.6c0,0.1,0,0.1,0.1,0.1c0,0,0,0,0.1,0v0.2c0,0-0.1,0-0.1,0c-0.2,0-0.2-0.1-0.2-0.3
			L115.2,123.1L115.2,123.1z"/>
		<path class="st57" d="M116.4,123.6c0.3,0,0.6,0.2,0.6,0.7c0,0.4-0.3,0.7-0.6,0.7s-0.6-0.2-0.6-0.7
			C115.8,123.9,116.1,123.6,116.4,123.6z M116.4,124.8c0.2,0,0.4-0.2,0.4-0.5c0-0.3-0.1-0.5-0.4-0.5c-0.2,0-0.4,0.2-0.4,0.5
			C116,124.6,116.1,124.8,116.4,124.8z"/>
		<path class="st57" d="M117.3,123.7h0.2v0.2l0,0c0.1-0.2,0.2-0.2,0.4-0.2c0.1,0,0.1,0,0.1,0l-0.1,0.2c-0.1,0-0.1,0-0.1,0
			c-0.1,0-0.2,0.1-0.3,0.3v0.8h-0.2V123.7z"/>
		<path class="st57" d="M118.7,124.6c0.1,0.1,0.2,0.2,0.4,0.2c0.2,0,0.2-0.1,0.2-0.2c0-0.1-0.2-0.2-0.3-0.2
			c-0.2-0.1-0.4-0.2-0.4-0.4c0-0.2,0.2-0.4,0.4-0.4c0.2,0,0.3,0.1,0.4,0.1l-0.1,0.1c-0.1-0.1-0.2-0.1-0.3-0.1
			c-0.2,0-0.2,0.1-0.2,0.2c0,0.1,0.1,0.2,0.3,0.2c0.2,0.1,0.4,0.1,0.4,0.4c0,0.2-0.2,0.4-0.5,0.4c-0.2,0-0.4-0.1-0.5-0.2
			L118.7,124.6z"/>
		<path class="st57" d="M119.8,123.3c0-0.1,0.1-0.1,0.1-0.1c0.1,0,0.1,0.1,0.1,0.1c0,0.1-0.1,0.1-0.1,0.1
			C119.9,123.4,119.8,123.3,119.8,123.3z M119.8,123.7h0.2v1.3h-0.2V123.7z"/>
		<path class="st57" d="M120.5,123.9h-0.2v-0.2h0.2v-0.4h0.2v0.4h0.4v0.2h-0.4v0.7c0,0.2,0.1,0.2,0.2,0.2c0.1,0,0.1,0,0.1-0.1
			l0.1,0.2c-0.1,0-0.2,0.1-0.2,0.1c-0.3,0-0.4-0.2-0.4-0.4v-0.7H120.5z"/>
		<path class="st57" d="M122.5,124.1c0-0.2-0.1-0.3-0.2-0.3c-0.1,0-0.3,0.1-0.4,0.1l-0.1-0.1c0.1-0.1,0.3-0.2,0.5-0.2
			c0.3,0,0.4,0.2,0.4,0.5v0.8h-0.2v-0.2l0,0c-0.1,0.1-0.2,0.2-0.4,0.2c-0.2,0-0.4-0.1-0.4-0.4C121.8,124.3,122,124.2,122.5,124.1z
			 M122.2,124.8c0.1,0,0.2-0.1,0.4-0.2v-0.4c-0.4,0.1-0.5,0.2-0.5,0.3C122,124.7,122.1,124.8,122.2,124.8z"/>
		<path class="st57" d="M123.2,123.7h0.2v0.2l0,0c0.1-0.1,0.2-0.2,0.4-0.2s0.3,0.1,0.4,0.2c0.1-0.1,0.2-0.2,0.4-0.2
			c0.2,0,0.4,0.2,0.4,0.5v0.8h-0.2v-0.7c0-0.2-0.1-0.4-0.2-0.4c-0.1,0-0.2,0.1-0.3,0.2v0.9h-0.2v-0.7c0-0.2-0.1-0.4-0.2-0.4
			c-0.1,0-0.2,0.1-0.3,0.2v0.9h-0.2L123.2,123.7L123.2,123.7z"/>
		<path class="st57" d="M125.8,123.6c0.3,0,0.5,0.2,0.5,0.6c0,0.1,0,0.1,0,0.1h-0.8c0,0.3,0.2,0.4,0.4,0.4c0.1,0,0.2-0.1,0.3-0.1
			l0.1,0.1c-0.1,0.1-0.2,0.1-0.4,0.1c-0.4,0-0.6-0.2-0.6-0.7C125.2,123.9,125.5,123.6,125.8,123.6z M126.1,124.2
			c0-0.2-0.1-0.4-0.3-0.4c-0.2,0-0.4,0.1-0.4,0.4H126.1z"/>
		<path class="st57" d="M126.6,123.9h-0.2v-0.2h0.2v-0.4h0.2v0.4h0.4v0.2h-0.3v0.7c0,0.2,0.1,0.2,0.2,0.2c0.1,0,0.1,0,0.1-0.1
			l0.1,0.2c-0.1,0-0.2,0.1-0.2,0.1c-0.3,0-0.4-0.2-0.4-0.4V123.9z"/>
		<path class="st57" d="M127.4,125.2c0.1-0.1,0.2-0.2,0.2-0.3l0,0c-0.1,0-0.2-0.1-0.2-0.1c0-0.1,0.1-0.2,0.2-0.2s0.2,0.1,0.2,0.2
			c0,0.2-0.1,0.4-0.4,0.5L127.4,125.2z"/>
		<path class="st57" d="M129.2,123.6c0.2,0,0.3,0.1,0.4,0.2l-0.1,0.1c-0.1-0.1-0.2-0.1-0.2-0.1c-0.2,0-0.4,0.2-0.4,0.5
			s0.2,0.5,0.4,0.5c0.1,0,0.2-0.1,0.3-0.1l0.1,0.1c-0.1,0.1-0.2,0.2-0.4,0.2c-0.4,0-0.6-0.2-0.6-0.7
			C128.6,123.9,128.8,123.6,129.2,123.6z"/>
		<path class="st57" d="M130.3,123.6c0.3,0,0.6,0.2,0.6,0.7c0,0.4-0.3,0.7-0.6,0.7c-0.3,0-0.6-0.2-0.6-0.7
			C129.7,123.9,130,123.6,130.3,123.6z M130.3,124.8c0.2,0,0.4-0.2,0.4-0.5c0-0.3-0.1-0.5-0.4-0.5s-0.4,0.2-0.4,0.5
			C129.9,124.6,130.1,124.8,130.3,124.8z"/>
		<path class="st57" d="M131.2,123.7h0.2v0.2l0,0c0.1-0.1,0.2-0.2,0.4-0.2c0.2,0,0.4,0.2,0.4,0.5v0.8h-0.2v-0.7
			c0-0.2-0.1-0.4-0.2-0.4c-0.1,0-0.2,0.1-0.4,0.2v0.9h-0.2v-1.2H131.2z"/>
		<path class="st57" d="M97.6,127.8c0.1,0.1,0.2,0.2,0.4,0.2c0.2,0,0.2-0.1,0.2-0.2c0-0.1-0.2-0.2-0.3-0.2c-0.2-0.1-0.4-0.2-0.4-0.4
			c0-0.2,0.2-0.4,0.4-0.4c0.2,0,0.3,0.1,0.4,0.1l-0.1,0.1c-0.1-0.1-0.2-0.1-0.3-0.1c-0.2,0-0.2,0.1-0.2,0.2c0,0.1,0.1,0.2,0.3,0.2
			c0.2,0.1,0.4,0.1,0.4,0.4c0,0.2-0.2,0.4-0.5,0.4c-0.2,0-0.4-0.1-0.5-0.2L97.6,127.8z"/>
		<path class="st57" d="M99.2,126.7c0.3,0,0.5,0.2,0.5,0.6c0,0.1,0,0.1,0,0.1h-0.8c0,0.3,0.2,0.4,0.4,0.4c0.1,0,0.2-0.1,0.3-0.1
			l0.1,0.1c-0.1,0.1-0.2,0.1-0.4,0.1c-0.4,0-0.6-0.2-0.6-0.7C98.6,127,98.9,126.7,99.2,126.7z M99.5,127.3c0-0.2-0.1-0.4-0.3-0.4
			c-0.2,0-0.4,0.1-0.4,0.4H99.5z"/>
		<path class="st57" d="M100.5,126.7c0.2,0,0.3,0.1,0.4,0.2l-0.1,0.1c-0.1-0.1-0.2-0.1-0.2-0.1c-0.2,0-0.4,0.2-0.4,0.5
			s0.2,0.5,0.4,0.5c0.1,0,0.2-0.1,0.3-0.1l0.1,0.1c-0.1,0.1-0.2,0.2-0.4,0.2c-0.4,0-0.6-0.2-0.6-0.7
			C99.9,127,100.2,126.7,100.5,126.7z"/>
		<path class="st57" d="M101.2,127h-0.2v-0.2h0.2v-0.4h0.2v0.4h0.4v0.2h-0.4v0.7c0,0.2,0.1,0.2,0.2,0.2c0.1,0,0.1,0,0.1-0.1l0.1,0.2
			c-0.1,0-0.2,0.1-0.2,0.1c-0.3,0-0.4-0.2-0.4-0.4L101.2,127L101.2,127z"/>
		<path class="st57" d="M102.5,126.7c0.3,0,0.5,0.2,0.5,0.6c0,0.1,0,0.1,0,0.1h-0.8c0,0.3,0.2,0.4,0.4,0.4c0.1,0,0.2-0.1,0.3-0.1
			l0.1,0.1c-0.1,0.1-0.2,0.1-0.4,0.1c-0.4,0-0.6-0.2-0.6-0.7C102,127,102.3,126.7,102.5,126.7z M102.9,127.3c0-0.2-0.1-0.4-0.3-0.4
			c-0.2,0-0.4,0.1-0.4,0.4H102.9z"/>
		<path class="st57" d="M103.3,127h-0.2v-0.2h0.2v-0.4h0.2v0.4h0.4v0.2h-0.4v0.7c0,0.2,0.1,0.2,0.2,0.2c0.1,0,0.1,0,0.1-0.1l0.1,0.2
			c-0.1,0-0.2,0.1-0.2,0.1c-0.3,0-0.4-0.2-0.4-0.4L103.3,127L103.3,127z"/>
		<path class="st57" d="M104.2,126.8h0.2v0.8c0,0.2,0.1,0.4,0.2,0.4c0.1,0,0.2-0.1,0.4-0.2v-0.9h0.2v1.3h-0.2v-0.2l0,0
			c-0.1,0.1-0.2,0.2-0.4,0.2c-0.2,0-0.4-0.2-0.4-0.5v-0.8H104.2z"/>
		<path class="st57" d="M105.5,126.8h0.2v0.2l0,0c0.1-0.2,0.2-0.2,0.4-0.2c0.1,0,0.1,0,0.1,0l-0.1,0.2c-0.1,0-0.1,0-0.1,0
			c-0.1,0-0.2,0.1-0.3,0.3v0.8h-0.2L105.5,126.8L105.5,126.8z"/>
		<path class="st57" d="M107.7,127.2c0-0.2-0.1-0.3-0.2-0.3c-0.1,0-0.3,0.1-0.4,0.1l-0.1-0.1c0.1-0.1,0.3-0.2,0.5-0.2
			c0.3,0,0.4,0.2,0.4,0.5v0.8h-0.2v-0.2l0,0c-0.1,0.1-0.2,0.2-0.4,0.2c-0.2,0-0.4-0.1-0.4-0.4C106.9,127.5,107.2,127.3,107.7,127.2z
			 M107.3,127.9c0.1,0,0.2-0.1,0.4-0.2v-0.4c-0.4,0.1-0.5,0.2-0.5,0.3C107.2,127.8,107.2,127.9,107.3,127.9z"/>
		<path class="st57" d="M108.8,126.7c0.1,0,0.2,0.1,0.4,0.1v-0.2v-0.5h0.2v1.9h-0.2v-0.1l0,0c-0.1,0.1-0.2,0.2-0.4,0.2
			c-0.3,0-0.5-0.2-0.5-0.7C108.2,127,108.5,126.7,108.8,126.7z M108.8,127.9c0.1,0,0.2-0.1,0.3-0.2V127c-0.1-0.1-0.2-0.1-0.3-0.1
			c-0.2,0-0.4,0.2-0.4,0.5C108.5,127.7,108.6,127.9,108.8,127.9z"/>
		<path class="st57" d="M109.7,126.4c0-0.1,0.1-0.1,0.1-0.1c0.1,0,0.1,0.1,0.1,0.1s-0.1,0.1-0.1,0.1
			C109.8,126.5,109.7,126.4,109.7,126.4z M109.8,126.8h0.2v1.3h-0.2V126.8z"/>
		<path class="st57" d="M110.6,128.2v0.4h-0.2v-1.8h0.2v0.1l0,0c0.1-0.1,0.2-0.2,0.4-0.2c0.3,0,0.5,0.2,0.5,0.7
			c0,0.4-0.2,0.7-0.5,0.7c-0.1,0-0.2-0.1-0.4-0.1L110.6,128.2z M110.9,127.9c0.2,0,0.4-0.2,0.4-0.5c0-0.3-0.1-0.5-0.4-0.5
			c-0.1,0-0.2,0.1-0.4,0.2v0.7C110.8,127.9,110.9,127.9,110.9,127.9z"/>
		<path class="st57" d="M111.8,126.4c0-0.1,0.1-0.1,0.1-0.1c0.1,0,0.1,0.1,0.1,0.1s-0.1,0.1-0.1,0.1
			C111.9,126.5,111.8,126.4,111.8,126.4z M111.8,126.8h0.2v1.3h-0.2V126.8z"/>
		<path class="st57" d="M112.4,127.8c0.1,0.1,0.2,0.2,0.4,0.2c0.2,0,0.2-0.1,0.2-0.2c0-0.1-0.2-0.2-0.3-0.2
			c-0.2-0.1-0.4-0.2-0.4-0.4c0-0.2,0.2-0.4,0.4-0.4c0.2,0,0.3,0.1,0.4,0.1l-0.1,0.1c-0.1-0.1-0.2-0.1-0.3-0.1
			c-0.2,0-0.2,0.1-0.2,0.2c0,0.1,0.1,0.2,0.3,0.2c0.2,0.1,0.4,0.1,0.4,0.4c0,0.2-0.2,0.4-0.5,0.4c-0.2,0-0.4-0.1-0.5-0.2
			L112.4,127.8z"/>
		<path class="st57" d="M114.1,126.7c0.2,0,0.3,0.1,0.4,0.2l-0.1,0.1c-0.1-0.1-0.2-0.1-0.2-0.1c-0.2,0-0.4,0.2-0.4,0.5
			s0.2,0.5,0.4,0.5c0.1,0,0.2-0.1,0.3-0.1l0.1,0.1c-0.1,0.1-0.2,0.2-0.4,0.2c-0.4,0-0.6-0.2-0.6-0.7
			C113.5,127,113.7,126.7,114.1,126.7z"/>
		<path class="st57" d="M114.7,126.4c0-0.1,0.1-0.1,0.1-0.1c0.1,0,0.1,0.1,0.1,0.1s-0.1,0.1-0.1,0.1
			C114.8,126.5,114.7,126.4,114.7,126.4z M114.8,126.8h0.2v1.3h-0.2V126.8z"/>
		<path class="st57" d="M115.4,126.8h0.2v0.2l0,0c0.1-0.1,0.2-0.2,0.4-0.2c0.2,0,0.4,0.2,0.4,0.5v0.8h-0.2v-0.8
			c0-0.2-0.1-0.4-0.2-0.4c-0.1,0-0.2,0.1-0.4,0.2v0.9h-0.2v-1.1H115.4z"/>
		<path class="st57" d="M116.9,128L116.9,128c-0.1-0.1-0.1-0.1-0.1-0.2c0-0.1,0.1-0.2,0.1-0.2l0,0c-0.1-0.1-0.2-0.2-0.2-0.4
			c0-0.3,0.2-0.5,0.5-0.5c0.1,0,0.1,0,0.2,0.1h0.4v0.2h-0.2c0.1,0.1,0.1,0.2,0.1,0.2c0,0.3-0.2,0.4-0.5,0.4c-0.1,0-0.1,0-0.2-0.1
			c-0.1,0.1-0.1,0.1-0.1,0.2c0,0.1,0.1,0.1,0.2,0.1h0.2c0.3,0,0.4,0.1,0.4,0.3c0,0.2-0.2,0.4-0.7,0.4c-0.3,0-0.5-0.1-0.5-0.4
			C116.7,128.2,116.8,128,116.9,128z M117.3,128.5c0.2,0,0.4-0.1,0.4-0.2c0-0.1-0.1-0.2-0.2-0.2h-0.2c-0.1,0-0.1,0-0.2,0
			c-0.1,0.1-0.1,0.1-0.1,0.2C116.9,128.4,117,128.5,117.3,128.5z M117.5,127.2c0-0.2-0.1-0.3-0.2-0.3c-0.1,0-0.2,0.1-0.2,0.3
			s0.1,0.3,0.2,0.3C117.4,127.5,117.5,127.4,117.5,127.2z"/>
		<path class="st57" d="M119.1,126.7c0.3,0,0.5,0.2,0.5,0.6c0,0.1,0,0.1,0,0.1h-0.8c0,0.3,0.2,0.4,0.4,0.4c0.1,0,0.2-0.1,0.3-0.1
			l0.1,0.1c-0.1,0.1-0.2,0.1-0.4,0.1c-0.4,0-0.6-0.2-0.6-0.7C118.5,127,118.8,126.7,119.1,126.7z M119.4,127.3
			c0-0.2-0.1-0.4-0.3-0.4c-0.2,0-0.4,0.1-0.4,0.4H119.4z"/>
		<path class="st57" d="M120,126.2h0.2v1.6c0,0.1,0,0.1,0.1,0.1c0,0,0,0,0.1,0v0.2c0,0-0.1,0-0.1,0c-0.2,0-0.2-0.1-0.2-0.3
			L120,126.2L120,126.2z"/>
		<path class="st57" d="M120.6,126.4c0-0.1,0.1-0.1,0.1-0.1c0.1,0,0.1,0.1,0.1,0.1s-0.1,0.1-0.1,0.1
			C120.6,126.5,120.6,126.4,120.6,126.4z M120.6,126.8h0.2v1.3h-0.2V126.8z"/>
		<path class="st57" d="M121.3,127h-0.2v-0.2h0.2v-0.4h0.2v0.4h0.4v0.2h-0.4v0.7c0,0.2,0.1,0.2,0.2,0.2c0.1,0,0.1,0,0.1-0.1l0.1,0.2
			c-0.1,0-0.2,0.1-0.2,0.1c-0.3,0-0.4-0.2-0.4-0.4L121.3,127L121.3,127z"/>
		<path class="st57" d="M122.2,127.8c0.1,0,0.2,0.1,0.2,0.2c0,0.1-0.1,0.2-0.2,0.2c-0.1,0-0.2-0.1-0.2-0.2
			C122.1,127.8,122.2,127.8,122.2,127.8z"/>
		<path class="st57" d="M123.4,127.7c0.1,0.1,0.3,0.2,0.5,0.2c0.2,0,0.4-0.1,0.4-0.3s-0.1-0.2-0.3-0.3l-0.2-0.1
			c-0.2-0.1-0.4-0.2-0.4-0.4c0-0.2,0.2-0.5,0.5-0.5c0.2,0,0.4,0.1,0.5,0.2l-0.1,0.1c-0.1-0.1-0.2-0.2-0.4-0.2
			c-0.2,0-0.3,0.1-0.3,0.2c0,0.2,0.1,0.2,0.3,0.3l0.2,0.1c0.2,0.1,0.4,0.2,0.4,0.5c0,0.3-0.2,0.5-0.6,0.5c-0.2,0-0.5-0.1-0.6-0.2
			L123.4,127.7z"/>
		<path class="st57" d="M124.7,126.8h0.2v0.8c0,0.2,0.1,0.4,0.2,0.4c0.1,0,0.2-0.1,0.4-0.2v-0.9h0.2v1.3h-0.2v-0.2l0,0
			c-0.1,0.1-0.2,0.2-0.4,0.2c-0.2,0-0.4-0.2-0.4-0.5v-0.8H124.7z"/>
		<path class="st57" d="M126.1,127.8c0.1,0.1,0.2,0.2,0.4,0.2c0.2,0,0.2-0.1,0.2-0.2c0-0.1-0.2-0.2-0.3-0.2
			c-0.2-0.1-0.4-0.2-0.4-0.4c0-0.2,0.2-0.4,0.4-0.4c0.2,0,0.3,0.1,0.4,0.1l-0.1,0.1c-0.1-0.1-0.2-0.1-0.3-0.1
			c-0.2,0-0.2,0.1-0.2,0.2c0,0.1,0.1,0.2,0.3,0.2c0.2,0.1,0.4,0.1,0.4,0.4c0,0.2-0.2,0.4-0.5,0.4c-0.2,0-0.4-0.1-0.5-0.2
			L126.1,127.8z"/>
		<path class="st57" d="M127.5,128.2v0.4h-0.2v-1.8h0.2v0.1l0,0c0.1-0.1,0.2-0.2,0.4-0.2c0.3,0,0.5,0.2,0.5,0.7
			c0,0.4-0.2,0.7-0.5,0.7c-0.1,0-0.2-0.1-0.4-0.1L127.5,128.2z M127.8,127.9c0.2,0,0.4-0.2,0.4-0.5c0-0.3-0.1-0.5-0.4-0.5
			c-0.1,0-0.2,0.1-0.4,0.2v0.7C127.6,127.9,127.6,127.9,127.8,127.9z"/>
		<path class="st57" d="M129.1,126.7c0.3,0,0.5,0.2,0.5,0.6c0,0.1,0,0.1,0,0.1h-0.8c0,0.3,0.2,0.4,0.4,0.4c0.1,0,0.2-0.1,0.3-0.1
			l0.1,0.1c-0.1,0.1-0.2,0.1-0.4,0.1c-0.4,0-0.6-0.2-0.6-0.7C128.6,127,128.8,126.7,129.1,126.7z M129.4,127.3
			c0-0.2-0.1-0.4-0.3-0.4s-0.4,0.1-0.4,0.4H129.4z"/>
		<path class="st57" d="M130,126.8h0.2v0.2l0,0c0.1-0.1,0.2-0.2,0.4-0.2c0.2,0,0.4,0.2,0.4,0.5v0.8h-0.2v-0.8c0-0.2-0.1-0.4-0.2-0.4
			c-0.1,0-0.2,0.1-0.4,0.2v0.9h-0.2v-1.1H130z"/>
		<path class="st57" d="M98.1,129.8c0.1,0,0.2,0.1,0.4,0.1v-0.2v-0.5h0.2v1.9h-0.2V131l0,0c-0.1,0.1-0.2,0.2-0.4,0.2
			c-0.3,0-0.5-0.2-0.5-0.7C97.5,130.1,97.8,129.8,98.1,129.8z M98.1,131c0.1,0,0.2-0.1,0.3-0.2v-0.7c-0.1-0.1-0.2-0.1-0.3-0.1
			c-0.2,0-0.4,0.2-0.4,0.5C97.8,130.8,97.9,131,98.1,131z"/>
		<path class="st57" d="M99,129.5c0-0.1,0.1-0.1,0.1-0.1c0.1,0,0.1,0.1,0.1,0.1s-0.1,0.1-0.1,0.1C99.1,129.6,99,129.6,99,129.5z
			 M99.1,129.9h0.2v1.3h-0.2V129.9z"/>
		<path class="st57" d="M99.7,130.9c0.1,0.1,0.2,0.2,0.4,0.2c0.2,0,0.2-0.1,0.2-0.2c0-0.1-0.2-0.2-0.3-0.2c-0.2-0.1-0.4-0.2-0.4-0.4
			c0-0.2,0.2-0.4,0.4-0.4c0.2,0,0.3,0.1,0.4,0.1l-0.1,0.1c-0.1-0.1-0.2-0.1-0.3-0.1c-0.2,0-0.2,0.1-0.2,0.2c0,0.1,0.1,0.2,0.3,0.2
			s0.4,0.1,0.4,0.4c0,0.2-0.2,0.4-0.5,0.4c-0.2,0-0.4-0.1-0.5-0.2L99.7,130.9z"/>
		<path class="st57" d="M100.8,130.9c0.1,0.1,0.2,0.2,0.4,0.2c0.2,0,0.2-0.1,0.2-0.2c0-0.1-0.2-0.2-0.3-0.2
			c-0.2-0.1-0.4-0.2-0.4-0.4c0-0.2,0.2-0.4,0.4-0.4c0.2,0,0.3,0.1,0.4,0.1l-0.1,0.1c-0.1-0.1-0.2-0.1-0.3-0.1
			c-0.2,0-0.2,0.1-0.2,0.2c0,0.1,0.1,0.2,0.3,0.2c0.2,0.1,0.4,0.1,0.4,0.4c0,0.2-0.2,0.4-0.5,0.4c-0.2,0-0.4-0.1-0.5-0.2
			L100.8,130.9z"/>
		<path class="st57" d="M102.4,129.8c0.3,0,0.5,0.2,0.5,0.6c0,0.1,0,0.1,0,0.1H102c0,0.3,0.2,0.4,0.4,0.4c0.1,0,0.2-0.1,0.3-0.1
			l0.1,0.1c-0.1,0.1-0.2,0.1-0.4,0.1c-0.4,0-0.6-0.2-0.6-0.7C101.8,130.1,102.1,129.8,102.4,129.8z M102.7,130.4
			c0-0.2-0.1-0.4-0.3-0.4c-0.2,0-0.4,0.1-0.4,0.4H102.7z"/>
		<path class="st57" d="M104.4,130.4c0-0.2-0.1-0.3-0.2-0.3c-0.1,0-0.3,0.1-0.4,0.1l-0.1-0.1c0.1-0.1,0.3-0.2,0.5-0.2
			c0.3,0,0.4,0.2,0.4,0.5v0.8h-0.2V131l0,0c-0.1,0.1-0.2,0.2-0.4,0.2c-0.2,0-0.4-0.1-0.4-0.4C103.6,130.6,103.9,130.4,104.4,130.4z
			 M104.1,131c0.1,0,0.2-0.1,0.4-0.2v-0.4c-0.4,0.1-0.5,0.2-0.5,0.3C103.9,131,103.9,131,104.1,131z"/>
		<path class="st57" d="M105.5,129.8c0.2,0,0.3,0.1,0.4,0.2l-0.1,0.1c-0.1-0.1-0.2-0.1-0.2-0.1c-0.2,0-0.4,0.2-0.4,0.5
			s0.2,0.5,0.4,0.5c0.1,0,0.2-0.1,0.3-0.1l0.1,0.1c-0.1,0.1-0.2,0.2-0.4,0.2c-0.4,0-0.6-0.2-0.6-0.7
			C105,130.1,105.3,129.8,105.5,129.8z"/>
		<path class="st57" d="M107,131.3v0.4h-0.2v-1.8h0.2v0.1l0,0c0.1-0.1,0.2-0.2,0.4-0.2c0.3,0,0.5,0.2,0.5,0.7c0,0.4-0.2,0.7-0.5,0.7
			c-0.1,0-0.2-0.1-0.4-0.1L107,131.3z M107.3,131c0.2,0,0.4-0.2,0.4-0.5c0-0.3-0.1-0.5-0.4-0.5c-0.1,0-0.2,0.1-0.4,0.2v0.7
			C107,131,107.2,131,107.3,131z"/>
		<path class="st57" d="M108.7,129.8c0.3,0,0.6,0.2,0.6,0.7s-0.3,0.7-0.6,0.7c-0.3,0-0.6-0.2-0.6-0.7S108.4,129.8,108.7,129.8z
			 M108.7,131c0.2,0,0.4-0.2,0.4-0.5c0-0.3-0.1-0.5-0.4-0.5c-0.2,0-0.4,0.2-0.4,0.5C108.3,130.8,108.5,131,108.7,131z"/>
		<path class="st57" d="M109.6,129.9h0.2v0.2l0,0c0.1-0.2,0.2-0.2,0.4-0.2c0.1,0,0.1,0,0.1,0l-0.1,0.2c-0.1,0-0.1,0-0.1,0
			c-0.1,0-0.2,0.1-0.3,0.3v0.8h-0.2L109.6,129.9L109.6,129.9z"/>
		<path class="st57" d="M110.5,130.1h-0.2v-0.2h0.2v-0.4h0.2v0.4h0.4v0.2h-0.4v0.7c0,0.2,0.1,0.2,0.2,0.2c0.1,0,0.1,0,0.1-0.1
			l0.1,0.2c-0.1,0-0.2,0.1-0.2,0.1c-0.3,0-0.4-0.2-0.4-0.4L110.5,130.1L110.5,130.1z"/>
		<path class="st57" d="M112,130.4c0-0.2-0.1-0.3-0.2-0.3c-0.1,0-0.3,0.1-0.4,0.1l-0.1-0.1c0.1-0.1,0.3-0.2,0.5-0.2
			c0.3,0,0.4,0.2,0.4,0.5v0.8h-0.2V131l0,0c-0.1,0.1-0.2,0.2-0.4,0.2c-0.2,0-0.4-0.1-0.4-0.4C111.2,130.6,111.5,130.4,112,130.4z
			 M111.7,131c0.1,0,0.2-0.1,0.4-0.2v-0.4c-0.4,0.1-0.5,0.2-0.5,0.3C111.5,131,111.6,131,111.7,131z"/>
		<path class="st57" d="M113.2,129.9h0.2v0.2l0,0c0.1-0.1,0.2-0.2,0.4-0.2c0.2,0,0.4,0.2,0.4,0.5v0.8h-0.2v-0.8
			c0-0.2-0.1-0.4-0.2-0.4c-0.1,0-0.2,0.1-0.4,0.2v0.9h-0.2v-1.1H113.2z"/>
		<path class="st57" d="M114.6,129.9h0.2v0.8c0,0.2,0.1,0.4,0.2,0.4c0.1,0,0.2-0.1,0.4-0.2v-0.9h0.2v1.3h-0.2V131l0,0
			c-0.1,0.1-0.2,0.2-0.4,0.2c-0.2,0-0.4-0.2-0.4-0.5v-0.8H114.6z"/>
		<path class="st57" d="M116,129.3h0.2v1.6c0,0.1,0,0.1,0.1,0.1c0,0,0,0,0.1,0v0.2c0,0-0.1,0-0.1,0c-0.2,0-0.2-0.1-0.2-0.3
			L116,129.3L116,129.3z"/>
		<path class="st57" d="M116.7,129.3h0.2v1.6c0,0.1,0,0.1,0.1,0.1c0,0,0,0,0.1,0v0.2c0,0-0.1,0-0.1,0c-0.2,0-0.2-0.1-0.2-0.3
			L116.7,129.3L116.7,129.3z"/>
		<path class="st57" d="M118.1,130.4c0-0.2-0.1-0.3-0.2-0.3c-0.1,0-0.3,0.1-0.4,0.1l-0.1-0.1c0.1-0.1,0.3-0.2,0.5-0.2
			c0.3,0,0.4,0.2,0.4,0.5v0.8h-0.2V131l0,0c-0.1,0.1-0.2,0.2-0.4,0.2c-0.2,0-0.4-0.1-0.4-0.4C117.3,130.6,117.5,130.4,118.1,130.4z
			 M117.7,131c0.1,0,0.2-0.1,0.4-0.2v-0.4c-0.4,0.1-0.5,0.2-0.5,0.3C117.5,131,117.6,131,117.7,131z"/>
		<path class="st57" d="M118.6,131.5c0.1-0.1,0.2-0.2,0.2-0.3l0,0c-0.1,0-0.2-0.1-0.2-0.1c0-0.1,0.1-0.2,0.2-0.2
			c0.1,0,0.2,0.1,0.2,0.2c0,0.2-0.1,0.4-0.4,0.5L118.6,131.5z"/>
		<path class="st57" d="M120.3,129.8c0.1,0,0.2,0.1,0.4,0.2l0,0v-0.1h0.2v1.8h-0.2v-0.5V131c-0.1,0.1-0.2,0.2-0.4,0.2
			c-0.3,0-0.5-0.2-0.5-0.7C119.7,130.1,120,129.8,120.3,129.8z M120.3,131c0.1,0,0.2-0.1,0.3-0.2v-0.7c-0.1-0.1-0.2-0.1-0.3-0.1
			c-0.2,0-0.4,0.2-0.4,0.5C120,130.8,120.1,131,120.3,131z"/>
		<path class="st57" d="M121.2,129.9h0.2v0.8c0,0.2,0.1,0.4,0.2,0.4c0.1,0,0.2-0.1,0.4-0.2v-0.9h0.2v1.3h-0.2V131l0,0
			c-0.1,0.1-0.2,0.2-0.4,0.2c-0.2,0-0.4-0.2-0.4-0.5L121.2,129.9L121.2,129.9z"/>
		<path class="st57" d="M122.7,129.5c0-0.1,0.1-0.1,0.1-0.1c0.1,0,0.1,0.1,0.1,0.1s-0.1,0.1-0.1,0.1
			C122.7,129.6,122.7,129.6,122.7,129.5z M122.7,129.9h0.2v1.3h-0.2V129.9z"/>
		<path class="st57" d="M123.3,130.9c0.1,0.1,0.2,0.2,0.4,0.2c0.2,0,0.2-0.1,0.2-0.2c0-0.1-0.2-0.2-0.3-0.2
			c-0.2-0.1-0.4-0.2-0.4-0.4c0-0.2,0.2-0.4,0.4-0.4c0.2,0,0.3,0.1,0.4,0.1l-0.1,0.1c-0.1-0.1-0.2-0.1-0.3-0.1
			c-0.2,0-0.2,0.1-0.2,0.2c0,0.1,0.1,0.2,0.3,0.2c0.2,0.1,0.4,0.1,0.4,0.4c0,0.2-0.2,0.4-0.5,0.4c-0.2,0-0.4-0.1-0.5-0.2
			L123.3,130.9z"/>
		<path class="st57" d="M125.4,129.8c0.3,0,0.6,0.2,0.6,0.7s-0.3,0.7-0.6,0.7c-0.3,0-0.6-0.2-0.6-0.7S125.1,129.8,125.4,129.8z
			 M125.4,131c0.2,0,0.4-0.2,0.4-0.5c0-0.3-0.1-0.5-0.4-0.5c-0.2,0-0.4,0.2-0.4,0.5C125.1,130.8,125.2,131,125.4,131z"/>
		<path class="st57" d="M126.3,129.9h0.2v0.2l0,0c0.1-0.2,0.2-0.2,0.4-0.2c0.1,0,0.1,0,0.1,0l-0.1,0.2c-0.1,0-0.1,0-0.1,0
			c-0.1,0-0.2,0.1-0.3,0.3v0.8h-0.2L126.3,129.9L126.3,129.9z"/>
		<path class="st57" d="M127.2,129.9h0.2v0.2l0,0c0.1-0.1,0.2-0.2,0.4-0.2c0.2,0,0.4,0.2,0.4,0.5v0.8H128v-0.8
			c0-0.2-0.1-0.4-0.2-0.4c-0.1,0-0.2,0.1-0.4,0.2v0.9h-0.2V129.9z"/>
		<path class="st57" d="M129.4,130.4c0-0.2-0.1-0.3-0.2-0.3c-0.1,0-0.3,0.1-0.4,0.1l-0.1-0.1c0.1-0.1,0.3-0.2,0.5-0.2
			c0.3,0,0.4,0.2,0.4,0.5v0.8h-0.2V131l0,0c-0.1,0.1-0.2,0.2-0.4,0.2c-0.2,0-0.4-0.1-0.4-0.4C128.6,130.6,128.8,130.4,129.4,130.4z
			 M129,131c0.1,0,0.2-0.1,0.4-0.2v-0.4c-0.4,0.1-0.5,0.2-0.5,0.3C128.8,131,128.9,131,129,131z"/>
		<path class="st57" d="M130,129.9h0.2v0.2l0,0c0.1-0.2,0.2-0.2,0.4-0.2c0.1,0,0.1,0,0.1,0l-0.1,0.2c-0.1,0-0.1,0-0.1,0
			c-0.1,0-0.2,0.1-0.3,0.3v0.8h-0.2L130,129.9L130,129.9z"/>
		<path class="st57" d="M131.3,129.8c0.3,0,0.5,0.2,0.5,0.6c0,0.1,0,0.1,0,0.1H131c0,0.3,0.2,0.4,0.4,0.4c0.1,0,0.2-0.1,0.3-0.1
			l0.1,0.1c-0.1,0.1-0.2,0.1-0.4,0.1c-0.4,0-0.6-0.2-0.6-0.7C130.7,130.1,131,129.8,131.3,129.8z M131.6,130.4
			c0-0.2-0.1-0.4-0.3-0.4s-0.4,0.1-0.4,0.4H131.6z"/>
		<path class="st57" d="M97.7,133h0.2v0.2l0,0c0.1-0.1,0.2-0.2,0.4-0.2c0.2,0,0.3,0.1,0.4,0.2c0.1-0.1,0.2-0.2,0.4-0.2
			c0.2,0,0.4,0.2,0.4,0.5v0.8h-0.2v-0.8c0-0.2-0.1-0.4-0.2-0.4c-0.1,0-0.2,0.1-0.3,0.2v0.9h-0.2v-0.8c0-0.2-0.1-0.4-0.2-0.4
			c-0.1,0-0.2,0.1-0.3,0.2v0.9h-0.2L97.7,133L97.7,133z"/>
		<path class="st57" d="M100.5,133.5c0-0.2-0.1-0.3-0.2-0.3c-0.1,0-0.3,0.1-0.4,0.1l-0.1-0.1c0.1-0.1,0.3-0.2,0.5-0.2
			c0.3,0,0.4,0.2,0.4,0.5v0.8h-0.2v-0.2l0,0c-0.1,0.1-0.2,0.2-0.4,0.2c-0.2,0-0.4-0.1-0.4-0.4C99.7,133.7,100,133.6,100.5,133.5z
			 M100.2,134.2c0.1,0,0.2-0.1,0.4-0.2v-0.4c-0.4,0.1-0.5,0.2-0.5,0.3C99.9,134.1,100,134.2,100.2,134.2z"/>
		<path class="st57" d="M101.1,134c0.1,0.1,0.2,0.2,0.4,0.2c0.2,0,0.2-0.1,0.2-0.2c0-0.1-0.2-0.2-0.3-0.2c-0.2-0.1-0.4-0.2-0.4-0.4
			c0-0.2,0.2-0.4,0.4-0.4c0.2,0,0.3,0.1,0.4,0.1l-0.1,0.1c-0.1-0.1-0.2-0.1-0.3-0.1c-0.2,0-0.2,0.1-0.2,0.2c0,0.1,0.1,0.2,0.3,0.2
			s0.4,0.1,0.4,0.4c0,0.2-0.2,0.4-0.5,0.4c-0.2,0-0.4-0.1-0.5-0.2L101.1,134z"/>
		<path class="st57" d="M102.2,134c0.1,0.1,0.2,0.2,0.4,0.2c0.2,0,0.2-0.1,0.2-0.2c0-0.1-0.2-0.2-0.3-0.2c-0.2-0.1-0.4-0.2-0.4-0.4
			c0-0.2,0.2-0.4,0.4-0.4c0.2,0,0.3,0.1,0.4,0.1l-0.1,0.1c-0.1-0.1-0.2-0.1-0.3-0.1c-0.2,0-0.2,0.1-0.2,0.2c0,0.1,0.1,0.2,0.3,0.2
			c0.2,0.1,0.4,0.1,0.4,0.4c0,0.2-0.2,0.4-0.5,0.4c-0.2,0-0.4-0.1-0.5-0.2L102.2,134z"/>
		<path class="st57" d="M104,133.5c0-0.2-0.1-0.3-0.2-0.3c-0.1,0-0.3,0.1-0.4,0.1l-0.1-0.1c0.1-0.1,0.3-0.2,0.5-0.2
			c0.3,0,0.4,0.2,0.4,0.5v0.8h-0.2v-0.2l0,0c-0.1,0.1-0.2,0.2-0.4,0.2c-0.2,0-0.4-0.1-0.4-0.4C103.2,133.7,103.5,133.6,104,133.5z
			 M103.7,134.2c0.1,0,0.2-0.1,0.4-0.2v-0.4c-0.4,0.1-0.5,0.2-0.5,0.3C103.5,134.1,103.5,134.2,103.7,134.2z"/>
		<path class="st57" d="M104.7,134c0.1,0,0.2,0.1,0.2,0.2s-0.1,0.2-0.2,0.2c-0.1,0-0.2-0.1-0.2-0.2C104.6,134,104.7,134,104.7,134z"
			/>
		<path class="st57" d="M105.8,132.5h0.5c0.4,0,0.7,0.1,0.7,0.5c0,0.4-0.2,0.5-0.7,0.5H106v0.7h-0.2V132.5z M106.3,133.4
			c0.3,0,0.4-0.1,0.4-0.4c0-0.2-0.1-0.3-0.4-0.3H106v0.7H106.3z"/>
		<path class="st57" d="M107.3,133h0.2v0.2l0,0c0.1-0.2,0.2-0.2,0.4-0.2c0.1,0,0.1,0,0.1,0l-0.1,0.2c-0.1,0-0.1,0-0.1,0
			c-0.1,0-0.2,0.1-0.3,0.3v0.8h-0.2L107.3,133L107.3,133z"/>
		<path class="st57" d="M108.7,133c0.3,0,0.6,0.2,0.6,0.7s-0.3,0.7-0.6,0.7c-0.3,0-0.6-0.2-0.6-0.7S108.4,133,108.7,133z
			 M108.7,134.2c0.2,0,0.4-0.2,0.4-0.5c0-0.3-0.1-0.5-0.4-0.5c-0.2,0-0.4,0.2-0.4,0.5C108.3,133.9,108.4,134.2,108.7,134.2z"/>
		<path class="st57" d="M109.6,132.6c0-0.1,0.1-0.1,0.1-0.1c0.1,0,0.1,0.1,0.1,0.1s-0.1,0.1-0.1,0.1
			C109.6,132.8,109.6,132.7,109.6,132.6z M109.6,133h0.2v1.3h-0.2V133z"/>
		<path class="st57" d="M110.2,133h0.2v0.2l0,0c0.1-0.1,0.2-0.2,0.4-0.2c0.2,0,0.4,0.2,0.4,0.5v0.8h-0.2v-0.8c0-0.2-0.1-0.4-0.2-0.4
			c-0.1,0-0.2,0.1-0.4,0.2v0.9h-0.2V133H110.2z"/>
		<path class="st57" d="M112.1,133h0.2v0.8c0,0.2,0.1,0.4,0.2,0.4c0.1,0,0.2-0.1,0.4-0.2V133h0.2v1.3H113v-0.2l0,0
			c-0.1,0.1-0.2,0.2-0.4,0.2c-0.2,0-0.4-0.2-0.4-0.5V133H112.1z"/>
		<path class="st57" d="M113.6,132.4h0.2v1.6c0,0.1,0,0.1,0.1,0.1c0,0,0,0,0.1,0v0.2c0,0-0.1,0-0.1,0c-0.2,0-0.2-0.1-0.2-0.3
			L113.6,132.4L113.6,132.4z"/>
		<path class="st57" d="M114.3,133.2h-0.2V133h0.2v-0.4h0.2v0.4h0.4v0.2h-0.4v0.7c0,0.2,0.1,0.2,0.2,0.2c0.1,0,0.1,0,0.1-0.1
			l0.1,0.2c-0.1,0-0.2,0.1-0.2,0.1c-0.3,0-0.4-0.2-0.4-0.4L114.3,133.2L114.3,133.2z"/>
		<path class="st57" d="M115.1,133h0.2v0.2l0,0c0.1-0.2,0.2-0.2,0.4-0.2c0.1,0,0.1,0,0.1,0l-0.1,0.2c-0.1,0-0.1,0-0.1,0
			c-0.1,0-0.2,0.1-0.3,0.3v0.8h-0.2L115.1,133L115.1,133z"/>
		<path class="st57" d="M116,132.6c0-0.1,0.1-0.1,0.1-0.1c0.1,0,0.1,0.1,0.1,0.1s-0.1,0.1-0.1,0.1C116,132.7,116,132.7,116,132.6z
			 M116,133h0.2v1.3H116V133z"/>
		<path class="st57" d="M117.2,133c0.2,0,0.3,0.1,0.4,0.2l-0.1,0.1c-0.1-0.1-0.2-0.1-0.2-0.1c-0.2,0-0.4,0.2-0.4,0.5
			c0,0.3,0.2,0.5,0.4,0.5c0.1,0,0.2-0.1,0.3-0.1l0.1,0.1c-0.1,0.1-0.2,0.2-0.4,0.2c-0.4,0-0.6-0.2-0.6-0.7
			C116.6,133.2,116.9,133,117.2,133z"/>
		<path class="st57" d="M118.2,133c0.3,0,0.5,0.2,0.5,0.6c0,0.1,0,0.1,0,0.1h-0.8c0,0.3,0.2,0.4,0.4,0.4c0.1,0,0.2-0.1,0.3-0.1
			l0.1,0.1c-0.1,0.1-0.2,0.1-0.4,0.1c-0.4,0-0.6-0.2-0.6-0.7C117.7,133.3,117.9,133,118.2,133z M118.6,133.6c0-0.2-0.1-0.4-0.3-0.4
			s-0.4,0.1-0.4,0.4H118.6z"/>
		<path class="st57" d="M119,134c0.1,0.1,0.2,0.2,0.4,0.2c0.2,0,0.2-0.1,0.2-0.2c0-0.1-0.2-0.2-0.3-0.2c-0.2-0.1-0.4-0.2-0.4-0.4
			c0-0.2,0.2-0.4,0.4-0.4c0.2,0,0.3,0.1,0.4,0.1l-0.1,0.1c-0.1-0.1-0.2-0.1-0.3-0.1c-0.2,0-0.2,0.1-0.2,0.2c0,0.1,0.1,0.2,0.3,0.2
			s0.4,0.1,0.4,0.4c0,0.2-0.2,0.4-0.5,0.4c-0.2,0-0.4-0.1-0.5-0.2L119,134z"/>
		<path class="st57" d="M121.2,133c0.3,0,0.5,0.2,0.5,0.6c0,0.1,0,0.1,0,0.1h-0.8c0,0.3,0.2,0.4,0.4,0.4c0.1,0,0.2-0.1,0.3-0.1
			l0.1,0.1c-0.1,0.1-0.2,0.1-0.4,0.1c-0.4,0-0.6-0.2-0.6-0.7C120.6,133.3,120.9,133,121.2,133z M121.5,133.6c0-0.2-0.1-0.4-0.3-0.4
			s-0.4,0.1-0.4,0.4H121.5z"/>
		<path class="st57" d="M121.9,133h0.2v0.8c0,0.2,0.1,0.4,0.2,0.4c0.1,0,0.2-0.1,0.4-0.2V133h0.2v1.3h-0.2v-0.2l0,0
			c-0.1,0.1-0.2,0.2-0.4,0.2c-0.2,0-0.4-0.2-0.4-0.5V133H121.9z"/>
		<path class="st57" d="M124.4,133c0.3,0,0.5,0.2,0.5,0.6c0,0.1,0,0.1,0,0.1H124c0,0.3,0.2,0.4,0.4,0.4c0.1,0,0.2-0.1,0.3-0.1
			l0.1,0.1c-0.1,0.1-0.2,0.1-0.4,0.1c-0.4,0-0.6-0.2-0.6-0.7C123.8,133.3,124.1,133,124.4,133z M124.7,133.6c0-0.2-0.1-0.4-0.3-0.4
			c-0.2,0-0.4,0.1-0.4,0.4H124.7z"/>
		<path class="st57" d="M125.4,133.6l-0.4-0.6h0.2l0.2,0.3c0.1,0.1,0.1,0.1,0.1,0.2l0,0c0.1-0.1,0.1-0.1,0.1-0.2l0.2-0.3h0.2
			l-0.4,0.6l0.4,0.7H126l-0.2-0.3c-0.1-0.1-0.1-0.2-0.1-0.2l0,0c-0.1,0.1-0.1,0.1-0.1,0.2l-0.2,0.3h-0.2L125.4,133.6z"/>
		<path class="st57" d="M127.3,133c0.3,0,0.5,0.2,0.5,0.6c0,0.1,0,0.1,0,0.1H127c0,0.3,0.2,0.4,0.4,0.4c0.1,0,0.2-0.1,0.3-0.1
			l0.1,0.1c-0.1,0.1-0.2,0.1-0.4,0.1c-0.4,0-0.6-0.2-0.6-0.7C126.8,133.3,127,133,127.3,133z M127.6,133.6c0-0.2-0.1-0.4-0.3-0.4
			c-0.2,0-0.4,0.1-0.4,0.4H127.6z"/>
		<path class="st57" d="M128.1,133h0.2v0.8c0,0.2,0.1,0.4,0.2,0.4c0.1,0,0.2-0.1,0.4-0.2V133h0.2v1.3H129v-0.2l0,0
			c-0.1,0.1-0.2,0.2-0.4,0.2c-0.2,0-0.4-0.2-0.4-0.5V133H128.1z"/>
		<path class="st57" d="M130.1,132.4h0.2v1.6c0,0.1,0,0.1,0.1,0.1c0,0,0,0,0.1,0v0.2c0,0-0.1,0-0.1,0c-0.2,0-0.2-0.1-0.2-0.3
			L130.1,132.4L130.1,132.4z"/>
		<path class="st57" d="M131.5,133.5c0-0.2-0.1-0.3-0.2-0.3c-0.1,0-0.3,0.1-0.4,0.1l-0.1-0.1c0.1-0.1,0.3-0.2,0.5-0.2
			c0.3,0,0.4,0.2,0.4,0.5v0.8h-0.2v-0.2l0,0c-0.1,0.1-0.2,0.2-0.4,0.2c-0.2,0-0.4-0.1-0.4-0.4C130.7,133.7,130.9,133.6,131.5,133.5z
			 M131.1,134.2c0.1,0,0.2-0.1,0.4-0.2v-0.4c-0.4,0.1-0.5,0.2-0.5,0.3C130.9,134.1,131,134.2,131.1,134.2z"/>
		<path class="st57" d="M132.6,133c0.2,0,0.3,0.1,0.4,0.2l-0.1,0.1c-0.1-0.1-0.2-0.1-0.2-0.1c-0.2,0-0.4,0.2-0.4,0.5
			c0,0.3,0.2,0.5,0.4,0.5c0.1,0,0.2-0.1,0.3-0.1l0.1,0.1c-0.1,0.1-0.2,0.2-0.4,0.2c-0.4,0-0.6-0.2-0.6-0.7
			C132,133.2,132.2,133,132.6,133z"/>
		<path class="st57" d="M133.2,132.6c0-0.1,0.1-0.1,0.1-0.1c0.1,0,0.1,0.1,0.1,0.1s-0.1,0.1-0.1,0.1
			C133.3,132.8,133.2,132.7,133.2,132.6z M133.3,133h0.2v1.3h-0.2V133z"/>
		<path class="st57" d="M133.9,133h0.2v0.2l0,0c0.1-0.1,0.2-0.2,0.4-0.2c0.2,0,0.4,0.2,0.4,0.5v0.8h-0.2v-0.8c0-0.2-0.1-0.4-0.2-0.4
			c-0.1,0-0.2,0.1-0.4,0.2v0.9h-0.2V133H133.9z"/>
		<path class="st57" d="M135.3,132.6c0-0.1,0.1-0.1,0.1-0.1c0.1,0,0.1,0.1,0.1,0.1s-0.1,0.1-0.1,0.1
			C135.4,132.8,135.3,132.7,135.3,132.6z M135.3,133h0.2v1.3h-0.2V133z"/>
		<path class="st57" d="M136.7,133.5c0-0.2-0.1-0.3-0.2-0.3c-0.1,0-0.3,0.1-0.4,0.1l-0.1-0.1c0.1-0.1,0.3-0.2,0.5-0.2
			c0.3,0,0.4,0.2,0.4,0.5v0.8h-0.2v-0.2l0,0c-0.1,0.1-0.2,0.2-0.4,0.2c-0.2,0-0.4-0.1-0.4-0.4C135.9,133.7,136.1,133.6,136.7,133.5z
			 M136.3,134.2c0.1,0,0.2-0.1,0.4-0.2v-0.4c-0.4,0.1-0.5,0.2-0.5,0.3C136.1,134.1,136.2,134.2,136.3,134.2z"/>
		<path class="st57" d="M137.4,134c0.1,0,0.2,0.1,0.2,0.2s-0.1,0.2-0.2,0.2c-0.1,0-0.2-0.1-0.2-0.2C137.3,134,137.3,134,137.4,134z"
			/>
	</g>
</g>
<g>
	<path d="M156.8,27.6l-2.5-5.1h1.6l0.9,2.1c0.2,0.6,0.5,1.2,0.7,1.8h0.1c0.2-0.6,0.5-1.2,0.7-1.8l0.9-2.1h1.5l-2.5,5.1v3.1h-1.4
		L156.8,27.6L156.8,27.6z"/>
	<path d="M161.1,26.5c0-2.6,1.5-4.2,3.6-4.2c2.2,0,3.6,1.6,3.6,4.2s-1.5,4.2-3.6,4.2C162.6,30.7,161.1,29.1,161.1,26.5z M166.8,26.5
		c0-1.8-0.8-2.9-2.1-2.9c-1.3,0-2.1,1.1-2.1,2.9c0,1.9,0.8,3,2.1,3S166.8,28.3,166.8,26.5z"/>
	<path d="M169.9,22.4h1.4v4.7c0,1.8,0.7,2.3,1.6,2.3c1,0,1.7-0.6,1.7-2.3v-4.7h1.4V27c0,2.7-1.2,3.7-3.1,3.7s-3.1-1-3.1-3.7
		L169.9,22.4L169.9,22.4z"/>
	<path d="M184.4,28.4h-2.8l-0.7,2.2h-1.4l2.6-8.1h1.7l2.6,8.1H185L184.4,28.4z M184.1,27.2l-0.3-1c-0.2-0.8-0.5-1.8-0.7-2.7H183
		c-0.2,0.9-0.5,1.9-0.7,2.7l-0.3,1H184.1z"/>
	<path d="M192,30.6l-1.7-3.2H189v3.2h-1.4v-8.1h2.8c1.7,0,3,0.6,3,2.4c0,1.3-0.7,2-1.6,2.3l1.9,3.4H192z M189,26.3h1.1
		c1.1,0,1.7-0.5,1.7-1.4c0-1-0.6-1.3-1.7-1.3H189V26.3z"/>
	<path d="M195,22.4h4.9v1.2h-3.5v2.1h2.9v1.2h-2.9v2.4h3.6v1.2h-5L195,22.4L195,22.4z"/>
	<path d="M162,37.4h1.5l0.7,4.1c0.1,0.9,0.3,1.7,0.4,2.6h0.1c0.2-0.8,0.4-1.7,0.5-2.6l1-4.1h1.3l1,4.1c0.2,0.8,0.4,1.7,0.5,2.6h0.1
		c0.1-0.9,0.2-1.7,0.4-2.6l0.7-4.1h1.4l-1.6,8.1h-1.8l-1-4.3c-0.1-0.7-0.2-1.3-0.4-1.9h-0.1c-0.1,0.6-0.2,1.3-0.4,1.9l-1,4.3h-1.7
		L162,37.4z"/>
	<path d="M172.8,37.4h1.4v3.3h3.3v-3.3h1.4v8.1h-1.4v-3.6h-3.3v3.6h-1.4V37.4z"/>
	<path d="M184.8,43.3h-2.8l-0.7,2.2h-1.5l2.6-8.1h1.7l2.6,8.1h-1.4L184.8,43.3z M184.5,42.2l-0.3-1c-0.2-0.8-0.5-1.8-0.7-2.7h-0.1
		c-0.2,0.9-0.5,1.9-0.7,2.7l-0.3,1H184.5z"/>
	<path d="M189.1,38.6h-2.3v-1.2h6.2v1.2h-2.3v6.9h-1.4L189.1,38.6L189.1,38.6z"/>
	<path d="M157.4,57.4l-2.5-5.1h1.6l0.9,2.1c0.2,0.6,0.5,1.2,0.7,1.8h0.1c0.2-0.6,0.5-1.2,0.7-1.8l0.9-2.1h1.5l-2.5,5.1v3.1h-1.4
		L157.4,57.4L157.4,57.4z"/>
	<path d="M161.7,56.4c0-2.6,1.5-4.2,3.6-4.2c2.2,0,3.6,1.6,3.6,4.2s-1.5,4.2-3.6,4.2C163.1,60.6,161.7,59,161.7,56.4z M167.4,56.4
		c0-1.8-0.8-2.9-2.1-2.9c-1.3,0-2.1,1.1-2.1,2.9c0,1.9,0.8,3,2.1,3C166.5,59.4,167.4,58.2,167.4,56.4z"/>
	<path d="M170.4,52.3h1.4V57c0,1.8,0.7,2.3,1.6,2.3c1,0,1.7-0.6,1.7-2.3v-4.7h1.4v4.5c0,2.7-1.2,3.7-3.1,3.7s-3.1-1-3.1-3.7
		L170.4,52.3L170.4,52.3z"/>
	<path d="M181.2,52.3h4.9v1.2h-3.5v2.1h2.9v1.2h-2.9v2.4h3.6v1.2h-5L181.2,52.3L181.2,52.3z"/>
	<path d="M191.7,58.2h-2.8l-0.7,2.2h-1.5l2.6-8.1h1.7l2.6,8.1h-1.5L191.7,58.2z M191.4,57.1l-0.3-1c-0.2-0.8-0.5-1.8-0.7-2.7h-0.1
		c-0.2,0.9-0.5,1.9-0.7,2.7l-0.3,1H191.4z"/>
	<path d="M196,53.5h-2.3v-1.2h6.2v1.2h-2.3v6.9H196L196,53.5L196,53.5z"/>
</g>
</svg>
