<?xml version="1.0" encoding="iso-8859-1"?>
<!-- Generator: Adobe Illustrator 19.0.0, SVG Export Plug-In . SVG Version: 6.00 Build 0)  -->
<svg version="1.1" id="Capa_1" xmlns="http://www.w3.org/2000/svg" xmlns:xlink="http://www.w3.org/1999/xlink" x="0px" y="0px"
	 viewBox="0 0 55 55" style="enable-background:new 0 0 55 55;" xml:space="preserve">
<path style="fill:#38454F;" d="M49.395,51.5H5.5C2.475,51.5,0,49.025,0,46v0c0-3.025,2.475-5.5,5.5-5.5h43.895
	c3.025,0,5.5,2.475,5.5,5.5v0C54.895,49.025,52.42,51.5,49.395,51.5z"/>
<polygon style="fill:#BDC3C7;" points="13.895,40.5 5.895,40.5 11,8.5 16,8.5 "/>
<circle style="fill:#BDC3C7;" cx="5.5" cy="46" r="5.5"/>
<circle style="fill:#BDC3C7;" cx="49.5" cy="46" r="5.5"/>
<path style="fill:#95A5A5;" d="M15.895,54.5h-5.79C8.942,54.5,8,53.663,8,52.5v-1h10v1C18,53.663,17.058,54.5,15.895,54.5z"/>
<path style="fill:#95A5A5;" d="M44.895,54.5h-5.79c-1.163,0-2.105-0.837-2.105-2v-1h10v1C47,53.663,46.058,54.5,44.895,54.5z"/>
<path style="fill:#38454F;" d="M22.5,9.74H13l-9.49-4.313C2.591,5.008,2,4.091,2,3.08v0c0-1.956,2.094-3.199,3.811-2.262
	l5.291,2.886c1.246,0.679,2.642,1.036,4.061,1.036H22.5c1.381,0,2.5,1.119,2.5,2.5v0C25,8.62,23.881,9.74,22.5,9.74z"/>
<rect x="15" y="43.5" style="fill:#546A79;" width="25" height="2"/>
<rect x="15" y="46.5" style="fill:#546A79;" width="25" height="2"/>
<g>
</g>
<g>
</g>
<g>
</g>
<g>
</g>
<g>
</g>
<g>
</g>
<g>
</g>
<g>
</g>
<g>
</g>
<g>
</g>
<g>
</g>
<g>
</g>
<g>
</g>
<g>
</g>
<g>
</g>
</svg>
