<?xml version="1.0" encoding="UTF-8"?>
<svg width="1134px" height="1134px" viewBox="0 0 1134 1134" version="1.1" xmlns="http://www.w3.org/2000/svg" xmlns:xlink="http://www.w3.org/1999/xlink">
    <!-- Generator: Sketch 52.2 (67145) - http://www.bohemiancoding.com/sketch -->
    <title>shutterstock_338964533</title>
    <desc>Created with Sketch.</desc>
    <g id="shutterstock_338964533" stroke="none" stroke-width="1" fill="none" fill-rule="evenodd">
        <g id="Group" transform="translate(118.000000, 82.000000)">
            <path d="M401.074,786.663 C401.333,797.681 402.514,820.961 414.658,822.189 C432.953,824.035 426.083,795.341 426.342,784.97 C426.889,763.087 420.982,746.653 413.452,745.756 C405.042,744.758 400.563,764.811 401.074,786.663" id="Fill-3" fill="#50341F"></path>
            <path d="M501.008,782.172 C498.02,792.78 492.316,815.381 503.564,820.119 C520.512,827.255 522.368,797.811 525.66,787.972 C532.608,767.215 531.789,749.768 524.853,746.703 C517.106,743.276 506.936,761.134 501.008,782.172" id="Fill-4" fill="#50341F"></path>
            <path d="M747.691,491.176 C758.371,494.138 781.244,499.594 788.225,484.548 C798.746,461.87 767.967,462.019 758.154,458.589 C737.45,451.354 718.874,453.942 714.418,463.238 C709.437,473.614 726.511,485.292 747.691,491.176" id="Fill-5" fill="#16130E"></path>
            <path d="M236.896575,278.066223 C243.185663,274.645585 237.795575,247.783223 233.064575,238.527223 C223.077575,219.000223 207.853575,208.049223 198.210575,211.695223 C187.444575,215.766223 191.731575,236.003223 202.996575,254.881223 C208.676575,264.395223 230.607488,281.48686 236.896575,278.066223 Z" id="Fill-6" fill="#B2B3B6"></path>
            <path d="M325.948105,184.322385 C325.059398,191.592755 298.116105,196.294385 287.767105,195.298385 C265.936105,193.191385 250.156105,183.060385 250.001105,172.751385 C249.827105,161.242385 270.222105,157.790385 291.920105,161.323385 C302.860105,163.107385 326.836813,177.052016 325.948105,184.322385 Z" id="Fill-7" fill="#B2B3B6"></path>
            <path d="M554.227,165.076 C560.055,155.648 569.071,133.498 584.416,139.801 C607.539,149.296 583.394,170.907 576.488,178.675 C558.576,198.812 549.05,208.366 544.722,205.573 C539.169,201.991 542.677,183.783 554.227,165.076" id="Fill-8" fill="#B53F2C"></path>
            <path d="M641.991,209.735 C644.992,199.064 652.176,176.678 668.666,178.504 C693.513,181.254 680.154,208.486 675.285,217.673 C662.237,242.292 652.998,248.275 647.594,248.11 C641.762,247.932 636.049,230.898 641.991,209.735" id="Fill-9" fill="#B53F2C"></path>
            <path d="M742.275,637.088 C753.229,635.402 776.318,630.961 776.491,614.373 C776.753,589.375 748.759,602.171 738.405,603.087 C716.556,605.01 700.691,615.012 700.453,625.318 C700.182,636.825 720.55,640.445 742.275,637.088" id="Fill-10" fill="#16130E"></path>
            <path d="M171.287,579.141 C160.592,576.478 137.829,571.468 133.437,582.852 C126.821,600.011 154.958,607.144 165.186,608.861 C182.451,611.759 209.932,603.014 210.386,599.767 C211.113,594.599 192.497,584.423 171.287,579.141" id="Fill-11" fill="#1B1A19"></path>
            <path d="M156.003,528.06 C145.051,529.273 121.962,532.472 121.793,544.668 C121.539,563.06 150.402,559.987 160.593,558.049 C177.792,554.776 200.532,537.042 199.833,533.838 C198.721,528.74 177.729,525.654 156.003,528.06" id="Fill-12" fill="#1B1A19"></path>
            <path d="M50.049,443.618 C51.683,455.734 48.242,498.267 47.618,522.053 C47.013,545.164 42.824,581.127 64.761,638.588 C76.428,669.15 91.288,687.358 106.339,713.577 C129.824,754.489 168.389,790.019 203.598,813.921 C268.408,857.917 364.517,890.166 364.517,890.166 L367.655,861.329 C367.655,861.329 296.331,828.343 288.387,823.187 C250.925,798.877 198.315,749.359 178.207,714.69 C163.536,689.399 149.947,671.334 156.807,648.132 C162.362,629.347 180.23,620.021 180.301,604.814 C180.402,583.625 160.681,575.442 159.833,570.36 C158.83,564.342 161.84,555.57 163.536,551.715 C169.354,538.51 166.687,525.838 159.837,517.091 C153.879,508.374 132.653,503.936 124.605,492.786 C114.237,478.423 116.039,474.569 113.044,445.822 C108.271,399.985 94.741,379.377 102.096,280.932 C103.377,263.792 102.303,244.265 102.303,244.265 L81.69,233.531 C81.69,233.531 74.072,254.055 69.957,265.096 C62.841,284.175 59.67,295.594 53.974,328.976 C48.456,361.307 47.349,423.576 50.049,443.618" id="Fill-13" fill="#49A79F"></path>
            <path d="M50.675,369.11 C28.219,440.721 26.5,489.149 26.5,489.149 L54.694,493.741 C54.694,493.741 77.067,405.713 88.035,385.288 C111.738,341.146 149.285,277.532 191.58,263.777 C198.107713,261.654974 234.778889,262.033522 241.789697,258.072075 C270.688612,241.742781 281.277299,231.242107 296.00666,204.864582 C299.214301,199.120298 298.47175,171.931786 301.229,166.958 C329.896,115.248 366.94,79.11 452.157,71.682 C523.239,65.486 541.199,66.512 541.199,66.512 C542.695,57.789 546.012,33.591 546.012,33.591 C546.012,33.591 512.463,27.835 421.426,33.341 C328.927,38.938 282.608,84.001 263.015,91.811 C224.791,107.039 190.393,128.344 171.612,147.355 C107.519,212.231 78.001,281.974 50.675,369.11 Z" id="Fill-14" fill="#2F2A2C"></path>
            <path d="M617.312,86.05 C531.41,55.423 449.313,45.252 358.803,57.361 C284.416,67.315 266.828,72.808 266.828,72.808 L270.983,98.229 C270.983,98.229 324.271,95.547 366.448,96.83 C424.277,98.589 482.789,97.942 517.306,121.838 C531.589,131.727 520.124,172.097 550.725,185.462 C562.502,190.61 581.884,193.934 587.956,194.977 C598.657,196.81 610.258,229.911 646.904,225.72 C665.079,223.642 675.602,210.3 683.901,211.228 C742.661,217.8 769.142,255.388 799.681,319.521 C829.825,382.821 856.113,430.452 856.113,430.452 C864.647,428.116 883.2,417.786 883.2,417.786 C883.2,417.786 874.76,365.504 827.22,277.61 C783.133,196.098 727.4,157.837 712.033,143.388 C682.059,115.197 642.485,95.02 617.312,86.05" id="Fill-15" fill="#F9F080"></path>
            <path d="M756.68,163.564 C756.68,163.564 756.585,160.662 744.03,145.276 C736.97,136.622 726.206,127.447 716.755,121.58 C714.654,120.276 694.969,111.985 694.537,114.944 C694.114,117.862 715.112,126.386 720.53,129.568 C705.034,120.061 688.46,113.483 687.285,116.334 C686.109,119.185 700.402,121.377 717.53,132.748 C703.076,124.607 684.158,116.755 683.016,120.126 C681.979,123.183 699.885,127.273 712.889,135.883 C704.819,131.523 691.236,127.981 685.578,126.05 C682.575,125.021 681.477,127.758 684.529,129.125 C691.53,132.253 695.738,133.677 698.283,134.78 C705.009,137.697 707.783,138.608 712.702,142.567 C718.112,146.923 717.086,146.33 718.112,146.923 C719.518,147.742 711.973,143.422 703.853,140.583 C701.654,139.812 691.53,137.035 690.888,139.069 C690.335,140.824 697.109,142.631 698.958,143.282 C706.01,145.761 709.476,150.918 714.216,154.763 C719.824,159.307 720.793,159.38 727.257,161.608 C738.637,165.526 742.107,173.576 742.107,173.576 L756.68,163.564" id="Fill-16" fill="#FBE2BE"></path>
            <path d="M268.141,76.216 C268.141,76.216 265.425,75.193 246.399,80.888 C235.701,84.09 223.103,90.518 214.06,96.996 C212.05,98.435 196.846,113.442 199.416,114.971 C201.946,116.48 217.868,100.355 222.881,96.57 C208.162,107.241 195.733,120.026 197.918,122.208 C200.101,124.381 207.602,112.023 224.673,100.561 C211.61,110.792 197.109,125.251 199.785,127.602 C202.208,129.733 212.851,114.76 225.788,106.049 C218.667,111.83 210.189,123.017 206.233,127.505 C204.133,129.884 206.243,131.948 208.673,129.653 C214.249,124.388 217.176,121.046 219.171,119.118 C224.442,114.026 226.349,111.81 231.887,108.787 C237.987,105.461 237.043,106.18 237.987,105.461 C239.282,104.473 232.399,109.791 226.665,116.198 C225.11,117.934 221.691,122.619 223.322,123.99 C224.733,125.173 225.973,123.21 227.282,121.754 C232.274,116.19 238.364,114.969 243.735,112.063 C250.08,108.624 250.523,107.759 255.055,102.64 C263.036,93.634 271.804,93.515 271.804,93.515 L268.141,76.216" id="Fill-17" fill="#97592D"></path>
            <path d="M29.738,487.334 C29.738,487.334 28.896,491.628 28.484,493.959 C26.53,504.956 26.603,519.1 28.322,530.09 C28.703,532.532 35.262,552.862 37.787,551.255 C40.272,549.672 33.031,528.2 31.911,522.017 C34.819,539.966 40.643,556.816 43.572,555.846 C46.498,554.878 38.835,542.617 36.278,522.215 C39.542,538.482 45.93,557.941 49.232,556.608 C52.224,555.398 43.642,539.159 41.682,523.689 C43.641,532.648 49.817,545.251 52.049,550.802 C53.229,553.749 56.02,552.793 55.061,549.591 C52.867,542.244 51.197,538.123 50.375,535.478 C48.201,528.476 47.079,525.781 46.87,519.471 C46.642,512.525 46.86,513.692 46.642,512.525 C46.345,510.925 47.997,519.467 51.14,527.47 C51.989,529.64 54.637,534.802 56.593,533.959 C58.283,533.232 57.09,531.242 56.38,529.418 C53.654,522.456 55.305,516.466 55.124,510.364 C54.91,503.152 53.128,502.723 51.803,496.015 C51.242,493.178 50.042,489.794 50.042,489.794 L29.738,487.334" id="Fill-18" fill="#DEA350"></path>
            <path d="M856.604,537.907 C865.576,447.151 854.916,371.424 826.21,284.736 C803.526,216.241 751.108,150.775 751.108,150.775 L732.955,165.925 C732.955,165.925 779.229,277.029 783.56,299.802 C792.93,349.024 787.019,422.993 764.621,470.297 C744.042,513.765 732.879,552.821 742.955,600.539 C754.518,655.291 736.407,735.743 681.545,780.868 C627.399,825.41 575.982,871.948 575.982,871.948 C580.309,879.664 599.516,896.552 599.516,896.552 C599.516,896.552 639.239,876.645 713.05,809.284 C781.502,746.817 813.681,667.028 823.99,648.627 C844.108,612.734 853.979,564.5 856.604,537.907" id="Fill-19" fill="#53813C"></path>
            <path d="M473.708,890.207 C517.092,891.148 555.764,877.332 584.954,869.44 C630.489,857.127 676.171,834.379 727.48,799.769 C774.307,768.186 794.549,734.705 809.913,704.769 C813.007,698.736 791.369,689.401 788.621,693.036 C774.19,712.121 728.744,744.225 720.85,749.454 C689.751,770.049 682.444,772.202 645.51,787.746 C617.462,799.551 580.822,811.515 542.022,794.024 C501.883,775.927 449.984,772.826 407.977,786.808 C385.782,794.199 381.84,800.883 361.134,803.584 C342.262,806.045 268.246,808.831 268.246,808.831 C287.977,825.007 331.392,853.217 364.562,864.154 C386.518,871.396 417.108,888.984 473.708,890.207" id="Fill-20" fill="#5613FE"></path>
            <path d="M85.835,724.474 C85.835,724.474 108.516,759.692 149.658,792.233 C198.19,830.614 256.74,844.729 256.74,844.729 C256.74,844.729 220.309,825.408 209.039,817.578 C185.925,801.526 151.432,775.448 124.045,740.003 C114.899,728.163 106.339,713.577 106.339,713.577 L85.835,724.474" id="Fill-21" fill="#5613FE"></path>
            <path d="M665.653,74.376 C646,62.141 612.666,65.552 597.754,87.949 C591.631,97.146 585.591,109.588 582.629,126.445 C581.375,133.6 582.017,149.199 582.68,156.226 C584.651,177.04 592.121,190.922 599.945,194.662 C603.989,196.6 618.391,201.376 641.156,183.937 C643.941,181.805 661.459,167.959 663.58,165.188 C688.299,132.88 698.116,94.589 665.653,74.376" id="Fill-22" fill="#97592D"></path>
            <path d="M806.475,704.051 C806.475,704.051 809.099,703.542 821.251,689.879 C828.085,682.197 836.304,670.586 840.257,661.138 C841.135,659.035 846.485,641.953 843.883,641.055 C840.665,639.945 839.13,655.696 834.927,660.925 C840.625,643.915 842.033,634.715 839.268,634.064 C836.506,633.414 837.165,644.589 829.33,661.822 C834.618,647.492 837.653,630.821 834.348,629.744 C831.525,628.823 831.166,647.119 825.24,660.197 C828.024,652.227 829.258,639.358 830.19,633.932 C830.684,631.052 827.177,630.073 826.383,633.045 C824.562,639.866 824.141,643.247 823.508,645.72 C821.841,652.262 821.323,655.617 819.134,661.005 C818.402,662.812 815.096,666.174 813.537,669.446 C813.447,669.637 814.915,659.541 817.049,652.274 C817.653,650.215 817.515,646.626 815.902,644.553 C814.858,643.211 813.659,645.494 813.335,647.266 C812.114,654.041 808.877,659.407 807.038,664.284 C804.691,670.501 805.031,670.818 803.953,677.019 C802.056,687.937 795.242,692.268 795.242,692.268 L806.475,704.051" id="Fill-23" fill="#F8CA79"></path>
            <path d="M658.888,169.262 C660.315,166.762 664.995,162.047 669.644,155.293 C671.877,152.049 674.113,155.436 674.646,158.458 C675.861,165.313 668.11,170.502 663.652,173.653 C659.623,176.5 651.213,180.495 653.38,173.867 C654.3,171.043 657.896,169.979 658.888,169.262" id="Fill-24" fill="#883E26"></path>
            <path d="M581.977,133.949 C582.629,126.445 583.603,118.969 585.119,115.533 C585.838,113.904 583.576,111.378 581.229,113.309 C575.897,117.699 574.793,126.716 575.438,133.83 C576.203,142.275 580.331,146.006 581.356,141.519 C582.064,138.411 581.758,135.08 581.977,133.949" id="Fill-25" fill="#883E26"></path>
            <path d="M363.163,885.703 C363.163,885.703 361.55,887.374 367.765,889.654 C378.244,893.504 384.855,896.099 400.918,895.499 C403.388,895.407 424.464,891.978 423.246,889.244 C422.043,886.554 399.741,890.56 393.46,890.765 C411.641,890.524 429.164,887.234 428.636,884.196 C428.104,881.16 414.854,886.94 394.3,886.471 C410.869,885.634 431.051,882.172 430.219,878.708 C429.461,875.571 412.138,881.68 396.55,881.343 C405.697,880.721 419.074,876.461 424.891,875.072 C427.978,874.336 427.444,871.436 424.135,871.912 C416.548,873.005 412.227,874.049 409.486,874.476 C402.245,875.601 399.411,876.312 393.138,875.592 C386.235,874.798 387.423,874.755 386.235,874.798 C384.61,874.857 393.299,874.478 401.68,872.544 C403.948,872.022 409.444,870.164 408.898,868.101 C408.426,866.321 406.283,867.211 404.376,867.647 C397.089,869.319 391.402,866.809 385.342,866.092 C378.176,865.244 376.587,865.459 369.771,865.992 C364.714,866.385 365.845,866.294 365.845,866.294 L363.163,885.703" id="Fill-26" fill="#FCDFA8"></path>
            <path d="M629.299,172.434 C627.273,172.957 618.678,173.135 615.613,169.227 C613.564,166.618 610.54,169.387 610.54,169.387 C610.54,169.387 609.582,165.36 607.149,165.846 C601.561,166.968 598.481,164.99 595.804,160.952 C595.149,161.242 598.795,172.71 606.777,176.692 C615.575,181.083 630.686,172.071 629.299,172.434" id="Fill-27" fill="#512419"></path>
            <path d="M609.213,116.995 C606.089,114.932 599.025,114.82 599.127,115.535 C599.488,118.123 601.639,122.244 604.577,124.483 C610.142,128.735 615.234,127.696 615.234,127.696 C615.234,127.696 615.184,120.947 609.213,116.995" id="Fill-28" fill="#FFFFFE"></path>
            <path d="M611.852,121.482 C612.845,119.291 609.852,116.32 607.52,116.376 C604.715,116.439 602.479,119.536 604.552,122.844 C606.255,125.483 609.854,125.887 611.852,121.482" id="Fill-29" fill="#56241A"></path>
            <path d="M609.741,119.571 C609.723,119.497 609.68,119.429 609.645,119.364 C609.504,118.905 609.16,118.507 608.674,118.406 C607.621,118.185 606.791,119.001 606.738,120.016 C606.689,120.917 607.647,121.632 608.48,121.575 C609.492,121.5 610.005,120.475 609.741,119.571" id="Fill-30" fill="#1B1A19"></path>
            <path d="M607.621,118.406 C606.945,117.8 606.003,118.848 606.68,119.453 C607.356,120.063 608.298,119.015 607.621,118.406" id="Fill-31" fill="#FFFFFE"></path>
            <path d="M603.355,114.326 C602.176,114.204 600.299,114.353 599.235,115.051 C598.852,115.298 598.852,115.847 599.314,115.732 C600.479,115.45 603.022,115.57 604.115,115.791 C606.12,116.198 608.148,116.682 609.839,117.82 C613.214,120.091 614.417,123.772 615.298,127.525 C615.424,128.063 615.951,128.03 615.878,127.492 C615.245,123.046 614.868,118.926 610.104,116.25 C607.808,114.963 605.407,114.535 603.355,114.326" id="Fill-32" fill="#271F17"></path>
            <path d="M653.514,137.59 C656.979,138.998 661.067,144.765 660.422,145.086 C658.08,146.249 653.465,146.807 649.957,145.651 C643.305,143.466 641.279,138.678 641.279,138.678 C641.279,138.678 646.878,134.905 653.514,137.59" id="Fill-33" fill="#FFFFFE"></path>
            <path d="M648.32,137.953 C649.566,135.891 653.71,136.683 654.98,138.639 C656.516,140.988 655.225,144.582 651.326,144.745 C648.186,144.831 645.82,142.091 648.32,137.953" id="Fill-34" fill="#56241A"></path>
            <path d="M651.091,138.612 C651.161,138.588 651.237,138.583 651.313,138.575 C651.774,138.431 652.294,138.488 652.653,138.834 C653.43,139.577 653.229,140.723 652.421,141.339 C651.703,141.892 650.573,141.506 650.149,140.786 C649.638,139.909 650.194,138.906 651.091,138.612" id="Fill-35" fill="#1B1A19"></path>
            <path d="M653.245,139.703 C654.13,139.917 653.797,141.286 652.916,141.072 C652.033,140.857 652.366,139.487 653.245,139.703" id="Fill-36" fill="#FFFFFE"></path>
            <path d="M659.026,140.912 C659.794,141.814 660.732,143.452 660.758,144.72 C660.769,145.175 660.319,145.487 660.152,145.042 C659.729,143.92 658.188,141.893 657.389,141.117 C655.919,139.69 654.374,138.292 652.477,137.541 C648.693,136.039 644.981,137.133 641.387,138.532 C640.871,138.73 640.602,138.273 641.087,138.033 C645.112,136.039 648.721,134.02 653.623,136.437 C655.982,137.601 657.693,139.337 659.026,140.912" id="Fill-37" fill="#271F17"></path>
            <path d="M599.119,126.151 C598.717,125.963 598.456,126.57 598.841,126.775 C603.275,129.085 605.846,133.025 608.905,136.801 C609.214,137.185 609.845,136.744 609.532,136.361 C606.439,132.496 603.746,128.308 599.119,126.151" id="Fill-38" fill="#883E26"></path>
            <path d="M597.475,128.286 C597.033,128.182 596.942,128.853 597.366,128.97 C602.315,130.386 604.717,135.025 608.077,138.5 C608.372,138.804 608.91,138.302 608.623,137.991 C605.268,134.369 602.601,129.524 597.475,128.286" id="Fill-39" fill="#883E26"></path>
            <path d="M597.864,130.713 C597.518,130.449 597.106,130.952 597.438,131.235 C600.08,133.482 602.885,135.433 604.816,138.382 C605.077,138.779 605.656,138.358 605.412,137.96 C603.581,134.941 600.613,132.838 597.864,130.713" id="Fill-40" fill="#883E26"></path>
            <path d="M637.636,150.41 C637.219,150.49 637.274,151.15 637.705,151.074 C643.075,150.135 648.206,152.779 652.476,155.817 C652.861,156.089 653.318,155.551 652.943,155.242 C648.755,151.785 643.108,149.336 637.636,150.41" id="Fill-41" fill="#883E26"></path>
            <path d="M637.951,152.045 C637.527,152.167 637.775,152.77 638.182,152.672 C642.881,151.552 648.255,155.293 651.953,157.765 C652.352,158.033 652.829,157.466 652.434,157.184 C648.617,154.476 642.87,150.631 637.951,152.045" id="Fill-42" fill="#883E26"></path>
            <path d="M637.978,154.112 C637.554,154.226 637.795,154.846 638.213,154.745 C642.437,153.717 646.975,156.866 650.04,159.44 C650.422,159.761 650.908,159.167 650.527,158.845 C647.23,156.073 642.497,152.911 637.978,154.112" id="Fill-43" fill="#883E26"></path>
            <path d="M624.315,114.149 C620.74,104.41 603.517,99.544 597.665,108.729 C596.361,110.773 598.438,111.382 600.114,109.521 C605.055,104.04 617.516,109.808 620.68,116.16 C622.699,120.215 625.803,118.196 624.315,114.149" id="Fill-44" fill="#582E1D"></path>
            <path d="M642.605,122.852 C640.096,123.662 640.825,127.289 643.432,126.904 C652.313,125.591 664.634,127.481 665.772,137.268 C666.078,139.867 667.904,140.342 668.13,137.997 C669.285,125.882 652.374,119.694 642.605,122.852" id="Fill-45" fill="#582E1D"></path>
            <path d="M625.616,144.096 C627.019,138.648 627.828,136.601 628.335,134.733 C629.327,131.032 626.092,129.239 623.65,133.884 C621.859,137.294 619.47,141.239 616.543,144.118 C614.491,146.139 614.806,146.417 609.054,149.063 C604.913,150.968 607.164,155.649 611.896,155.208 C612.363,157.035 612.128,158.113 613.675,159.202 C614.465,159.757 618.43,160.765 619.083,158.476 C622.42,163.808 626.382,159.985 625.17,154.768 L625.616,144.096" id="Fill-46" fill="#883E26"></path>
            <path d="M670.393,64.143 C664.705,64.236 660.082,61.52 655.067,59.21 C652.682,58.111 650.438,61.531 652.874,62.758 C658.518,65.6 663.733,68.536 670.224,68.627 C673.123,68.668 673.273,64.097 670.393,64.143" id="Fill-47" fill="#5C3E85"></path>
            <path d="M581.089,143.057 C581.081,143.047 581.069,143.037 581.063,143.025 C580.949,142.706 580.783,142.401 580.586,142.135 C580.039,141.383 578.738,141.147 577.888,141.348 C576.526,141.671 575.863,142.99 575.775,144.28 C575.666,145.851 577.109,146.956 578.566,146.825 C578.836,146.854 579.115,146.842 579.388,146.789 C581.026,146.459 581.875,144.495 581.089,143.057" id="Fill-48" fill="#DB3A2A"></path>
            <path d="M657.112,174.664 C656.562,174.087 655.625,173.743 654.835,173.986 C653.901,174.271 652.942,174.864 652.503,175.777 C652.369,176.057 652.275,176.344 652.223,176.632 C652.196,176.715 652.166,176.799 652.15,176.882 C652.019,177.525 652.01,178.098 652.334,178.696 C652.644,179.264 653.231,179.706 653.875,179.849 C653.938,179.875 653.989,179.91 654.05,179.931 C654.499,180.079 655.016,180.107 655.479,179.996 C656.482,179.761 656.934,179.031 657.303,178.171 C657.461,177.801 657.565,177.401 657.668,177.013 C657.884,176.175 657.724,175.303 657.112,174.664" id="Fill-49" fill="#DB3A2A"></path>
            <path d="M813.938,593.032 C821.088,595.401 828.314,598.315 832.072,598.283 C833.853,598.265 835.303,600.491 832.601,601.881 C826.461,605.041 817.741,602.491 811.465,599.087 C804.009,595.042 802.214,589.779 806.737,590.61 C809.875,591.188 812.809,592.789 813.938,593.032" id="Fill-50" fill="#EC9358"></path>
            <path d="M906.34,561.548 C907.53,539.852 889.01,515.848 870.034,510.844 C844.075,504.003 771.128,506.487 764.983,550.087 C761.834,572.463 782.227,587.305 801.205,592.202 C839.199,602.001 903.62,611.244 906.34,561.548" id="Fill-51" fill="#FBE2BE"></path>
            <path d="M833.219,509.153 C840.714,508.411 848.238,507.987 851.898,508.843 C853.633,509.248 855.7,506.562 853.368,504.609 C848.069,500.179 839.002,500.759 832.13,502.706 C823.972,505.016 821.067,509.762 825.665,509.94 C828.852,510.063 832.066,509.146 833.219,509.153" id="Fill-52" fill="#EC9358"></path>
            <path d="M854.82,531.262 C854.976,527.525 851.546,522.437 850.985,522.888 C848.959,524.541 846.411,527.497 846.014,531.168 C845.259,538.132 848.866,541.484 848.866,541.484 C848.866,541.484 854.526,538.413 854.82,531.262" id="Fill-53" fill="#FFFFFE"></path>
            <path d="M852.348,535.842 C854.738,535.56 855.73,531.459 854.478,529.493 C852.97,527.125 849.165,526.815 847.405,530.296 C846.028,533.122 847.546,536.411 852.348,535.842" id="Fill-54" fill="#3784B1"></path>
            <path d="M852.893,533.047 C852.945,532.993 852.979,532.922 853.018,532.859 C853.343,532.496 853.506,532.003 853.338,531.529 C852.981,530.518 851.854,530.23 850.96,530.709 C850.162,531.134 850.046,532.319 850.526,533.005 C851.111,533.836 852.256,533.74 852.893,533.047" id="Fill-55" fill="#1B1A19"></path>
            <path d="M852.79,530.629 C852.965,529.74 851.578,529.475 851.406,530.369 C851.238,531.259 852.621,531.526 852.79,530.629" id="Fill-56" fill="#FFFFFE"></path>
            <path d="M850.074,580.609 C849.9,576.87 846.039,572.101 845.522,572.605 C843.646,574.424 841.371,577.593 841.292,581.284 C841.149,588.286 845.035,591.312 845.035,591.312 C845.035,591.312 850.407,587.761 850.074,580.609" id="Fill-57" fill="#FFFFFE"></path>
            <path d="M848.013,585.387 C850.367,584.898 850.997,580.722 849.577,578.873 C847.867,576.649 844.05,576.671 842.604,580.292 C841.479,583.229 843.277,586.372 848.013,585.387" id="Fill-58" fill="#3784B1"></path>
            <path d="M848.31,582.556 C848.357,582.497 848.385,582.419 848.418,582.356 C848.707,581.968 848.825,581.459 848.619,581.003 C848.176,580.026 847.027,579.838 846.179,580.392 C845.421,580.888 845.409,582.08 845.947,582.718 C846.605,583.496 847.732,583.301 848.31,582.556" id="Fill-59" fill="#1B1A19"></path>
            <path d="M847.997,580.154 C848.089,579.253 846.688,579.112 846.594,580.015 C846.505,580.922 847.906,581.06 847.997,580.154" id="Fill-60" fill="#FFFFFE"></path>
            <path d="M834.473,560.397 C840.647,559.948 843.031,559.514 845.146,559.247 C849.332,558.71 849.801,554.663 844.051,554.124 C839.824,553.726 834.808,552.945 830.651,551.168 C827.732,549.922 827.581,550.363 822.478,545.613 C818.805,542.196 814.982,546.444 817.409,551.078 C815.745,552.32 814.551,552.53 814.088,554.561 C813.85,555.6 814.484,560.063 817.093,559.766 C813.06,565.397 818.193,567.151 823.418,564.411 C826.02,563.045 830.41,560.696 834.473,560.397" id="Fill-61" fill="#EC9358"></path>
            <path d="M808.015,524.619 C803.014,533.689 806.82,554.109 806.82,554.109 C806.82,554.109 801.967,563.046 803.271,580.126 C802.781,581.04 791.744,580.161 786.732,573.546 C783.716,569.925 785.396,562.17 787.578,557.988 C789.23,557.88 793.392,558.33 794.306,558.54 C797.968,559.383 798.248,548.997 795.571,549.263 C792.463,549.572 792.03,549.169 788.092,549.327 C786.806,543.1 787.65,538.31 791.292,533.888 C795.971,528.207 801.28,525.203 808.015,524.619 Z M771.285,523.136 C764.91,529.303 759.847,538.424 758.887,552.228 C757.729,568.882 765.239,574.141 770.188,580.377 C776.006,587.717 801.079,591.47 807.051,589.227 C813.464,586.817 815.709,570.382 815.311,563.07 C815.115,559.506 813.95,556.575 814.094,553.76 C814.221,551.241 815.579,548.834 816.638,545.813 C818.857,539.474 821.315,522.744 815.901,518.092 C809.028,512.192 780.21,514.506 771.285,523.136 Z" id="Fill-62" fill="#F8C823"></path>
            <path d="M843.982,510.327 C856.566,512.423 869.37,511.392 881.16,516.177 C878.76,519.096 876.42,529.719 875.75,533.078 C873.41,544.77 870.156,555.484 869.295,568.286 C868.849,574.874 869.104,590.456 871.093,597.691 C869.753,598.828 862.876,599.283 858.939,599.274 C854.26,599.263 852.506,599.355 847.913,599.332 C843.402,599.311 841.769,598.873 837.424,597.648 C831.167,595.877 832.475,601.132 837,602.64 C847.909,606.281 869.789,608.195 872.97,607.286 C878.03,610.173 889.27,608.057 894.85,605.073 C898.45,603.148 903.02,600.648 908.85,588.869 C913.5,579.461 914.31,568.906 914.47,558.607 C914.57,552.356 915,540.097 911.39,528.659 C910.48,525.79 913.55,510.749 913.55,510.749 C913.55,510.749 901.74,510.689 896.25,508.134 C884.08,502.468 861.417,505.333 845.195,506.699 C842.136,506.956 841.183,509.863 843.982,510.327" id="Fill-63" fill="#F8C823"></path>
            <path d="M857.177,597.755 C862.641,593.865 864.74,587.306 864.545,580.707 C864.421,576.597 862.248,570.494 858.59,568.076 C855.451,566.007 852.918,568.629 855.468,572.16 C856.874,574.106 858.225,578.414 858.5,580.622 C859.115,585.564 857.969,591.683 853.994,594.712 C850.865,597.095 853.962,600.041 857.177,597.755" id="Fill-64" fill="#F8C823"></path>
            <path d="M857.692,549.499 C867.147,544.801 869.572,524.572 862.168,516.645 C859.468,513.755 855.256,516.869 857.99,519.796 C864.429,526.687 858.915,540.173 854.504,546.203 C853.077,548.155 855.149,550.765 857.692,549.499" id="Fill-65" fill="#F8C823"></path>
            <path d="M802.759,571.934 C798.726,565.294 799.404,556.121 800.718,548.761 C801.306,545.462 802.102,541.003 803.932,538.199 C804.421,537.455 805.433,536.604 805.411,535.894 C805.395,535.376 804.689,535.674 803.728,536.331 C802.305,537.306 801.015,539.71 800.393,541.135 C798.732,544.932 797.8,549.404 797.348,553.492 C796.569,560.47 797.614,566.27 801.348,572.411 C802.302,573.983 803.711,573.494 802.759,571.934" id="Fill-66" fill="#AF572E"></path>
            <path d="M835.257,592.121 C837.686,589.173 838.525,584.911 838.271,581.255 C838.123,579.086 837.409,574.629 835.295,573.293 C834.979,573.094 834.575,573.485 834.836,573.785 C836.431,575.613 837.068,578.869 837.276,581.187 C837.59,584.741 836.925,588.764 834.565,591.627 C834.217,592.05 834.91,592.54 835.257,592.121" id="Fill-67" fill="#EC9358"></path>
            <path d="M833.516,591.892 C836.89,586.81 836.006,578.741 832.959,573.686 C832.699,573.256 832.01,573.544 832.237,574.019 C834.701,579.124 836.09,586.301 832.762,591.355 C832.434,591.852 833.187,592.392 833.516,591.892" id="Fill-68" fill="#EC9358"></path>
            <path d="M830.684,590.978 C834.17,587.063 833.671,578.549 830.331,574.656 C830.145,574.441 829.827,574.464 829.655,574.68 C829.631,574.713 829.604,574.745 829.579,574.78 C829.447,574.945 829.531,575.234 829.737,575.292 C830.224,575.434 830.856,577.188 831.027,577.558 C831.741,579.094 831.883,580.919 831.951,582.585 C832.062,585.401 831.657,588.144 829.988,590.48 C829.657,590.937 830.327,591.381 830.684,590.978" id="Fill-69" fill="#EC9358"></path>
            <path d="M838.628,537.821 C842.91,533.432 845.348,527.589 844.494,521.411 C844.425,520.9 843.655,520.921 843.682,521.455 C843.978,527.638 842.145,532.648 837.921,537.183 C837.505,537.633 838.202,538.257 838.628,537.821" id="Fill-70" fill="#EC9358"></path>
            <path d="M835.793,536.692 C840.082,532.744 842.216,526.568 841.685,520.805 C841.64,520.311 840.933,520.357 840.922,520.841 C840.787,526.804 839.232,531.671 835.135,536.094 C834.738,536.52 835.379,537.071 835.793,536.692" id="Fill-71" fill="#EC9358"></path>
            <path d="M837.52,529.869 C838.833,526.867 839.517,523.855 839.148,520.56 C839.096,520.095 838.442,520.134 838.431,520.596 C838.338,523.581 838.029,526.119 836.925,528.892 C836.185,530.757 835.281,533.093 833.39,534.026 C833.015,534.209 833.262,534.773 833.63,534.758 C835.668,534.678 836.863,531.369 837.52,529.869" id="Fill-72" fill="#EC9358"></path>
            <path d="M541.348,43.686 C541.348,43.686 544.047,43.44 554.061,47.776 C564.308,52.211 578.612,52.589 588.599,57.495 C590.814,58.586 608.279,70.891 605.995,72.826 C603.746,74.727 585.392,61.435 579.823,58.526 C596.096,66.633 610.458,77.203 608.658,79.712 C606.866,82.215 597.436,71.258 578.715,62.754 C593.281,70.702 609.963,82.583 607.703,85.339 C605.659,87.84 592.71,74.819 578.516,68.353 C586.487,72.885 596.689,82.528 601.324,86.304 C603.788,88.309 602.049,90.692 599.274,88.819 C592.911,84.546 589.472,81.729 587.188,80.152 C581.152,76 578.911,74.126 572.948,72.054 C566.386,69.775 567.432,70.327 566.386,69.775 C564.943,69.012 572.608,73.127 579.318,78.505 C581.137,79.962 585.278,84.023 583.895,85.645 C582.695,87.041 581.151,85.309 579.621,84.087 C573.784,79.42 567.57,79.213 561.798,77.225 C554.976,74.879 554.396,74.099 549.084,69.794 C539.735,62.219 536.313,62.196 536.313,62.196 L541.348,43.686" id="Fill-73" fill="#DEA350"></path>
            <path d="M587.943,111.505 C590.716,103.493 612.229,81.37 630.586,89.858 C629.112,99.772 638.137,112.737 649.96,106.323 C652.151,105.133 650.307,103.981 648.721,105.956 C647.229,107.812 640.09,104.16 639.336,103.037 C636.961,99.489 637.42,95.917 637.898,93.275 C687.045,112.834 672.379,150.919 670.869,153.246 C666.21,160.438 671.653,156.11 675.355,151.987 C691.385,134.152 700.715,82.18 671.688,66.46 C683.494,65.829 694.185,53.916 694.541,45.614 C696.068,10.165 670.795,2.944 668.188,0.774 C665.837,-1.181 674.194,12.336 670.543,21.713 C666.566,31.917 664.442,26.502 655.291,34.562 C640.049,47.995 654.833,59.617 654.133,60.776 C604.871,41.441 587.575,98.594 585.501,109.721 C584.617,114.482 585.004,119.991 587.943,111.505" id="Fill-74" fill="#582E1D"></path>
            <path d="M82.548,236.126 C82.548,236.126 84.213,235.247 92.526,217.21 C97.2,207.071 105.334,195.499 113.02,187.456 C114.728,185.671 131.721,172.725 132.875,175.483 C134.014,178.203 115.81,191.7 111.358,196.134 C123.991,183.06 138.396,172.549 140.248,175.022 C142.092,177.483 128.808,183.176 115.058,198.465 C127.023,186.971 143.375,174.642 145.325,177.626 C147.096,180.327 130.775,188.755 120.334,200.34 C127.059,194.105 139.328,187.28 144.325,183.998 C146.976,182.253 148.723,184.633 146.107,186.715 C140.112,191.489 136.392,193.925 134.2,195.627 C128.421,200.13 125.958,201.703 122.186,206.766 C118.034,212.336 118.88,211.504 118.034,212.336 C116.878,213.481 123.112,207.411 130.258,202.635 C132.196,201.34 137.313,198.612 138.442,200.423 C139.414,201.981 137.297,202.935 135.675,204.027 C129.464,208.187 127.394,214.048 123.761,218.956 C119.467,224.754 118.551,225.068 112.846,228.839 C102.806,235.475 99.884,245.059 99.884,245.059 L82.548,236.126" id="Fill-75" fill="#FCDFA8"></path>
            <path d="M140.15,166.081 C146.025,184.009 172.911,212.095 201.292,222.507 C214.377,227.303 224.407,227.334 239.96,212.489 C256.994,196.227 254.493,185.839 249.243,166.953 C237.657,125.289 202.856,93.648 162.93,109.684 C142.769,117.783 134.043,147.432 140.15,166.081 Z" id="Fill-76" fill="#DEA350"></path>
            <path d="M166.752,168.502 C164.336,171.361 163.92,177.482 164.641,177.468 C167.256,177.408 171.078,176.638 173.647,173.986 C178.52,168.951 177.729,164.089 177.729,164.089 C177.729,164.089 171.375,163.037 166.752,168.502" id="Fill-77" fill="#FFFFFE"></path>
            <path d="M171.515,166.407 C169.454,165.161 166.153,167.79 165.938,170.113 C165.674,172.905 168.488,175.488 172.014,173.815 C174.835,172.432 175.656,168.904 171.515,166.407" id="Fill-78" fill="#66462B"></path>
            <path d="M169.371,168.276 C169.296,168.289 169.224,168.321 169.155,168.349 C168.681,168.436 168.247,168.728 168.088,169.203 C167.748,170.223 168.461,171.143 169.46,171.314 C170.35,171.463 171.172,170.598 171.211,169.764 C171.258,168.749 170.299,168.123 169.371,168.276" id="Fill-79" fill="#1B1A19"></path>
            <path d="M167.966,170.247 C167.281,170.846 168.216,171.907 168.899,171.307 C169.581,170.703 168.648,169.648 167.966,170.247" id="Fill-80" fill="#FFFFFE"></path>
            <path d="M200.074,136.427 C197.659,139.286 197.242,145.406 197.962,145.39 C200.577,145.33 204.402,144.558 206.97,141.908 C211.84,136.873 211.05,132.011 211.05,132.011 C211.05,132.011 204.697,130.962 200.074,136.427" id="Fill-81" fill="#FFFFFE"></path>
            <path d="M204.836,134.328 C202.777,133.086 199.476,135.714 199.259,138.036 C198.998,140.828 201.81,143.409 205.338,141.739 C208.155,140.355 208.978,136.828 204.836,134.328" id="Fill-82" fill="#66462B"></path>
            <path d="M202.691,136.202 C202.617,136.212 202.546,136.245 202.477,136.274 C202,136.359 201.568,136.651 201.41,137.127 C201.07,138.145 201.782,139.065 202.783,139.235 C203.673,139.388 204.495,138.523 204.534,137.691 C204.581,136.673 203.622,136.048 202.691,136.202" id="Fill-83" fill="#1B1A19"></path>
            <path d="M201.287,138.172 C200.606,138.772 201.538,139.831 202.217,139.229 C202.903,138.627 201.97,137.57 201.287,138.172" id="Fill-84" fill="#FFFFFE"></path>
            <path d="M170.777244,77.2746771 C154.500008,79.7433872 150.965864,80.0933001 133.971251,94.0784501 C118.884534,106.493561 111.628911,121.890136 111.081695,138.653132 C110.403961,159.414292 117.37209,188.825972 123.65409,195.281972 C129.52009,201.309972 137.379882,218.263019 148.378221,220.302896 C154.639904,221.464259 211.471646,242.739762 221.151194,242.85397 C245.044705,243.135887 270.026704,191.210066 244.538944,208.11138 C219.051183,225.012694 196.945723,217.169696 188.940909,214.614583 C157.703248,204.643614 147.198884,174.653207 144.803884,172.207207 C149.135604,164.368546 155.613597,154.007355 170.32639,139.375048 C180.603386,129.154273 192.787384,118.631605 200.422865,112.79701 C201.605865,114.57001 226.004711,127.795434 227.49046,130.141639 C231.518273,132.680749 241.574965,145.250054 244.177281,151.812484 C247.465882,160.105562 258.397433,189.485535 244.536681,208.513092 C239.2188,215.813293 277.207,209.503973 278.022217,199.311878 C278.730977,190.450748 264.225826,132.236689 264.582282,131.239247 C270.438309,114.852821 187.05448,74.8059669 170.777244,77.2746771 Z" id="Fill-85" fill="#2F2A2C"></path>
            <path d="M201.782121,124.03079 C199.764076,124.376986 196.472531,124.948418 194.012707,127.694351 C192.370469,129.527522 190.01785,131.562292 189.05065,137.179289 C188.588255,139.862656 191.428597,140.96798 192.016457,138.860912 C193.744695,132.676654 197.451512,127.944613 202.592048,126.52229 C203.647016,126.230317 203.740084,123.693632 201.782121,124.03079" id="Fill-86" fill="#2C2018"></path>
            <path d="M167.782121,156.03079 C165.764076,156.376986 162.472531,156.948418 160.012707,159.694351 C158.370469,161.527522 156.01785,163.562292 155.05065,169.179289 C154.588255,171.862656 157.428597,172.96798 158.016457,170.860912 C159.744695,164.676654 163.451512,159.944613 168.592048,158.52229 C169.647016,158.230317 169.740084,155.693632 167.782121,156.03079" id="Fill-86" fill="#2C2018" transform="translate(162.166580, 163.981915) rotate(1.000000) translate(-162.166580, -163.981915) "></path>
            <path d="M208.066,165.879 C205.727,165.285 200.307,162.031 198.345,160.613 C194.017,157.481 190.615,153.945 186.62,151.058 C185.199,150.035 183.178,152.069 183.797,153.549 C184.636,155.546 188.718,162.717 191.187,167.029 C194.386,172.611 193.715,174.404 196.24,182.126 C197.363,185.56 199.851,185.305 200.605,185.296 C202.085,185.274 204.363,184.327 204.486,181.12 C206.807,182.044 208.323,181.635 210.504,179.392 C212.044,177.811 212.237,176.389 211.344,174.818 C212.9,174.387 214.319,173.736 214.837,171.66 C215.586,168.636 211.316,166.709 208.066,165.879" id="Fill-88" fill="#D0692D"></path>
            <path d="M217.561,136.473 C211.856,141.313 207.167,146.25 206.561,154.104 C206.494,154.978 207.806,154.992 207.903,154.144 C208.756,146.725 213.171,142.154 218.592,137.564 C219.33,136.936 218.294,135.851 217.561,136.473" id="Fill-89" fill="#D0692D"></path>
            <path d="M218.996,138.995 C213.107,142.195 210.744,148.996 209.273,155.157 C209.068,156.02 210.349,156.408 210.604,155.546 C212.347,149.632 214.145,143.697 219.658,140.244 C220.422,139.765 219.802,138.557 218.996,138.995" id="Fill-90" fill="#D0692D"></path>
            <path d="M221.219,141.256 C217.104,145.134 212.626,150.037 212.685,156.048 C212.693,156.934 213.971,156.962 214.05,156.09 C214.56,150.352 218.289,146.198 222.259,142.365 C222.966,141.683 221.932,140.585 221.219,141.256" id="Fill-91" fill="#D0692D"></path>
            <path d="M185.511,176.994 C181.808,177.512 178.113,177.784 174.57,179.056 C171.468,180.166 169.67,182.136 167.034,183.93 C166.327,184.413 166.895,185.573 167.672,185.131 C170.62,183.459 172.769,181.307 176.084,180.115 C179.17,179.005 182.632,178.947 185.846,178.454 C186.81,178.307 186.456,176.862 185.511,176.994" id="Fill-92" fill="#D0692D"></path>
            <path d="M186.148,179.854 C180.176,179.15 173.251,182.406 169.099,186.565 C168.462,187.203 169.383,188.174 170.057,187.581 C174.478,183.684 180.145,181.11 186.106,181.283 C187.042,181.307 187.048,179.961 186.148,179.854" id="Fill-93" fill="#D0692D"></path>
            <path d="M187.254,183.934 C181.587,184.558 176.387,185.878 171.854,189.483 C171.253,189.962 172.006,191.022 172.645,190.587 C177.293,187.412 182.037,186.028 187.594,185.412 C188.566,185.304 188.21,183.828 187.254,183.934" id="Fill-94" fill="#D0692D"></path>
            <path d="M90.021,724.768 C90.021,724.768 90.689,726.998 79.05,710.906 C72.507,701.857 66.414,689.092 63.174,678.453 C62.456,676.085 59.51,654.926 62.48,655.277 C65.411,655.62 68.241,678.098 69.922,684.156 C64.723,666.733 62.631,649.026 65.692,648.622 C68.745,648.224 67.186,662.596 73.766,682.074 C69.621,666.009 66.899,645.71 70.458,645.477 C73.676,645.257 73.015,663.616 77.991,678.395 C75.854,669.477 75.926,655.44 75.519,649.476 C75.297,646.307 78.226,645.954 78.756,649.251 C79.978,656.821 80.274,661.255 80.684,664.001 C81.774,671.247 81.94,674.163 84.497,679.935 C87.315,686.285 87.005,685.141 87.315,686.285 C87.744,687.855 85.513,679.446 84.855,670.871 C84.678,668.551 84.814,662.752 86.942,662.657 C88.782,662.576 88.57,664.886 88.726,666.837 C89.307,674.29 93.397,678.965 95.892,684.539 C98.839,691.126 98.663,692.082 99.149,698.902 C100.008,710.907 106.895,716.333 106.895,716.333 L90.021,724.768" id="Fill-96" fill="#F8CA79"></path>
            <path d="M21.734,592.479 C18.598,613.982 38.786,633.282 57.977,637.373 C82.479,642.599 151.063,620.911 142.482,584.712 C140.968,578.323 132.906,563.744 114.61,556.703 C78.751,542.896 27.942,549.905 21.734,592.479" id="Fill-97" fill="#FCDFA8"></path>
            <path d="M79.887,513.468 C79.889,513.466 79.887,513.464 79.887,513.462 C79.864,513.512 79.846,513.559 79.824,513.604 C79.826,513.608 79.828,513.611 79.831,513.615 C79.847,513.569 79.867,513.523 79.887,513.468" id="Fill-98" fill="#BE462B"></path>
            <path d="M8.627,636.582 C26.074,655.786 50.075,661.603 59.765,663.28 C85.468,667.723 81.377,652.129 108.808,661.545 C127.858,668.081 144.916,649.13 149.26,656.647 C151.344,660.255 142.378,646.252 143.969,633.605 C145.175,624.012 133.373,608.916 132.443,613.238 C130.808,620.833 124.89,617.607 119.568,621.462 C106.479,630.937 92.045,631.609 78.055,636.186 C68.301,639.375 57.994,637.573 51.591,635.46 C53.646,629.398 46.33,609.005 46.138,607.167 C45.693,602.865 50.985,575.415 44.432,562.354 C44.956,562.134 54.655,550.61 73.872,551.046 C85.473,551.313 93.718,552.66 102.915,554.338 C118.95,557.267 121.582,556.091 121.582,556.091 C121.582,556.091 128.5,554.398 130.098,545.087 C133.822,523.376 128.099,518.567 122.223,510.962 C115.913,537.239 104.436,515.98 82.544,519.57 C67.307,522.046 57.651,528.872 50.218,535.068 C41.344,542.462 31.147,540.888 22.032,548.042 C3.924,562.241 -2.571,576.512 1.124,597.078 C2.468,604.553 6.222,607.351 6.222,607.351 C6.222,607.351 -3.383,623.361 8.627,636.582" id="Fill-99" fill="#BE462B"></path>
            <path d="M62.249,630.859 C62.828,631.385 63.792,630.524 63.263,629.958 C57.231,623.53 55.56,612.341 61.174,605.701 C61.989,604.727 60.643,603.453 59.754,604.347 C52.584,611.574 54.404,623.682 62.249,630.859" id="Fill-100" fill="#824A27"></path>
            <path d="M54.706,569.46 C54.501,575.344 56.861,579.664 60.908,583.424 C61.628,584.094 63.3,582.402 62.619,581.708 C59.149,578.161 57.238,575.678 56.686,570.695 C56.165,566.017 57.843,560.474 62.035,557.922 C62.972,557.354 62.254,556.673 61.312,557.212 C56.753,559.838 54.875,564.561 54.706,569.46" id="Fill-101" fill="#824A27"></path>
            <path d="M65.791,571.282 C65.051,567.73 67.489,561.325 68.093,561.671 C70.299,562.927 73.237,566.344 74.201,569.793 C76.031,576.337 73.266,580.551 73.266,580.551 C73.266,580.551 67.206,578.077 65.791,571.282" id="Fill-102" fill="#FFFFFE"></path>
            <path d="M68.882,575.271 C66.552,575.38 64.951,571.613 65.838,569.535 C66.905,567.03 70.497,566.127 72.73,569.183 C74.499,571.667 73.566,575.051 68.882,575.271" id="Fill-103" fill="#147653"></path>
            <path d="M67.919,572.684 C67.862,572.641 67.816,572.578 67.769,572.523 C67.404,572.232 67.168,571.78 67.253,571.304 C67.436,570.275 68.47,569.821 69.398,570.138 C70.23,570.419 70.527,571.536 70.177,572.268 C69.748,573.153 68.641,573.246 67.919,572.684" id="Fill-104" fill="#1B1A19"></path>
            <path d="M67.631,570.354 C67.327,569.529 68.612,569.056 68.916,569.883 C69.22,570.709 67.936,571.183 67.631,570.354" id="Fill-105" fill="#FFFFFE"></path>
            <path d="M67.61,595.562 C73.309,595.736 76.224,595.538 80.898,595.886 C83.292,596.066 85.993,596.849 89.196,597.44 C92.391,598.03 92.384,598.284 94.995,600.061 C98.162,602.217 100.598,598.74 99.131,595.473 C100.124,594.827 101.111,593.922 101.318,591.976 C101.653,588.828 99.658,588.65 98.641,588.255 C99.5,584.702 96.95,582.879 94.046,584.968 C91.59,586.73 91.412,587.442 89.859,588.075 C86.827,589.313 82.127,590.528 78.939,591.237 C73.188,592.513 70.078,592.716 66.835,593.385 C65.517,593.654 65.998,595.511 67.61,595.562" id="Fill-106" fill="#F1A75C"></path>
            <path d="M109.549,576.089 C110.773,577.792 111.481,583.064 110.936,586.406 C110.401,589.682 112.918,591.078 112.918,591.078 C112.918,591.078 110.575,593.055 110.837,595.519 C111.259,599.458 113.166,603.911 110.368,607.87 C110.877,608.371 120.256,600.831 121.089,591.952 C122.006,582.163 108.712,574.927 109.549,576.089" id="Fill-107" fill="#E0573D"></path>
            <path d="M216.085476,176.019672 C217.309476,177.722672 218.017476,182.994672 217.472476,186.336672 C216.937476,189.612672 219.454476,191.008672 219.454476,191.008672 C219.454476,191.008672 217.111476,192.985672 217.373476,195.449672 C217.795476,199.388672 219.702476,203.841672 216.904476,207.800672 C217.413476,208.301672 226.792476,200.761672 227.625476,191.882672 C228.542476,182.093672 215.248476,174.857672 216.085476,176.019672" id="Fill-107" fill="#7E2F23" transform="translate(221.859189, 191.860683) rotate(45.000000) translate(-221.859189, -191.860683) "></path>
            <path d="M64.837,572.356 C65.792,575.954 69.472,578.848 72.644,580.525 C73.034,580.732 73.629,580.769 73.266,580.551 C70.228,578.728 67.249,576.079 66.184,572.388 C65.057,568.495 66.561,565.154 68.093,561.671 C68.346,561.101 67.731,561.015 67.408,561.545 C65.139,565.275 63.711,568.117 64.837,572.356" id="Fill-108" fill="#F1A75C"></path>
            <path d="M65.328,616.977 C64.896,620.696 67.989,627.048 68.581,626.637 C70.728,625.143 73.432,621.363 74.103,617.733 C75.379,610.843 72.153,606.77 72.153,606.77 C72.153,606.77 66.156,609.869 65.328,616.977" id="Fill-109" fill="#FFFFFE"></path>
            <path d="M68.135,612.596 C65.731,612.698 64.433,616.713 65.537,618.769 C66.863,621.242 70.636,621.838 72.65,618.496 C74.234,615.784 72.967,612.391 68.135,612.596" id="Fill-110" fill="#147653"></path>
            <path d="M67.385,615.341 C67.329,615.392 67.289,615.459 67.245,615.52 C66.896,615.858 66.698,616.341 66.827,616.824 C67.107,617.859 68.209,618.231 69.138,617.821 C69.966,617.455 70.168,616.281 69.742,615.562 C69.219,614.69 68.074,614.7 67.385,615.341" id="Fill-111" fill="#1B1A19"></path>
            <path d="M67.302,617.758 C67.07,618.638 68.428,619.002 68.665,618.127 C68.902,617.251 67.542,616.881 67.302,617.758" id="Fill-112" fill="#FFFFFE"></path>
            <path d="M65.589,623.411 C66.015,624.514 66.998,626.125 68.096,626.759 C68.494,626.987 68.982,626.74 68.671,626.378 C67.892,625.469 66.85,623.145 66.557,622.07 C66.009,620.095 65.525,618.069 65.779,616.047 C66.278,612.007 69.02,609.276 71.971,606.792 C72.396,606.437 72.125,605.98 71.68,606.291 C67.998,608.864 64.496,611.059 64.26,616.52 C64.146,619.148 64.849,621.484 65.589,623.411" id="Fill-113" fill="#F1A75C"></path>
            <path d="M78.664,624.147 C78.698,624.589 79.357,624.515 79.342,624.08 C79.161,619.084 81.314,614.902 83.087,610.374 C83.268,609.914 82.574,609.587 82.391,610.049 C80.563,614.645 78.252,619.06 78.664,624.147" id="Fill-114" fill="#F1A75C"></path>
            <path d="M81.334,624.522 C81.458,624.958 82.086,624.703 81.982,624.278 C80.767,619.278 83.614,614.898 84.971,610.255 C85.092,609.852 84.388,609.629 84.261,610.035 C82.772,614.74 79.875,619.452 81.334,624.522" id="Fill-115" fill="#F1A75C"></path>
            <path d="M83.251,622.982 C83.192,623.411 83.834,623.525 83.915,623.094 C84.561,619.687 84.874,616.285 86.482,613.151 C86.698,612.727 86.045,612.433 85.818,612.837 C84.1,615.924 83.735,619.541 83.251,622.982" id="Fill-116" fill="#F1A75C"></path>
            <path d="M80.719,578.673 C80.997,578.993 81.541,578.621 81.264,578.285 C77.793,574.078 77.556,568.314 78.087,563.101 C78.137,562.63 77.44,562.499 77.355,562.975 C76.418,568.328 77.081,574.445 80.719,578.673" id="Fill-117" fill="#F1A75C"></path>
            <path d="M81.986,577.59 C82.301,577.9 82.705,577.385 82.417,577.078 C79.122,573.55 79.718,567.028 80.039,562.589 C80.073,562.113 79.348,561.976 79.3,562.462 C78.827,567.117 78.328,574.013 81.986,577.59" id="Fill-118" fill="#F1A75C"></path>
            <path d="M83.771,576.544 C84.078,576.861 84.497,576.34 84.204,576.029 C81.223,572.867 81.716,567.364 82.442,563.426 C82.534,562.938 81.772,562.806 81.683,563.294 C80.901,567.535 80.492,573.21 83.771,576.544" id="Fill-119" fill="#F1A75C"></path>
            <path d="M593.009,887.348 C593.009,887.348 596.076,886.756 577.822,894.586 C567.561,898.992 553.773,902.136 542.68,902.966 C540.216,903.148 518.925,901.385 519.917,898.564 C520.892,895.78 543.449,897.942 549.723,897.629 C531.586,898.886 513.849,897.047 514.129,893.972 C514.407,890.908 528.088,895.574 548.537,893.423 C531.953,893.949 511.553,892.159 512.104,888.635 C512.596,885.445 530.362,890.113 545.874,888.495 C536.703,888.627 523.021,885.481 517.114,884.572 C513.975,884.093 514.268,881.159 517.606,881.362 C525.258,881.828 529.652,882.511 532.418,882.715 C539.727,883.24 542.608,883.718 548.8,882.485 C555.611,881.128 554.428,881.181 555.611,881.128 C557.241,881.053 548.546,881.389 540.038,880.151 C537.732,879.814 532.105,878.412 532.479,876.311 C532.801,874.499 535.009,875.213 536.948,875.493 C544.348,876.558 549.807,873.588 555.793,872.375 C562.862,870.942 563.757,871.326 570.518,872.346 C582.419,874.138 581.898,871.89 581.898,871.89 L593.009,887.348" id="Fill-120" fill="#FBE2BE"></path>
            <path d="M425.337,849.317 C426.292,852.392 428.651,862.695 423.457,866.091 C421.071,867.656 417.836,868.244 415.567,865.894 C410.416,860.555 413.26,851.705 415.325,846.266 C417.189,841.353 425.436,834.822 427.468,841.967 C428.332,845.01 425.789,848.089 425.337,849.317" id="Fill-121" fill="#E67A4C"></path>
            <path d="M466.128,923.74 C488.651,929.1 511.044,909.502 517.21,889.518 C522.608,871.996 513.086,838.311 499.639,813.939 C491.47,799.133 474.52,792.297 459.925,794.769 C445.65,797.183 436.957,806.728 431.165,823.607 C417.346,863.878 421.53,913.12 466.128,923.74" id="Fill-122" fill="#F8CA79"></path>
            <path d="M430.124,876.109 C436.065,885.936 449.874,885.804 457.075,878.693 C458.848,876.942 455.957,873.383 454.06,874.917 C448.211,879.645 436.779,880.211 432.462,874.037 C430.792,871.647 428.639,873.658 430.124,876.109" id="Fill-123" fill="#0A0B09"></path>
            <path d="M473.374,879.128 C480.621,887.786 493.864,887.994 501.616,880.696 C503.657,878.775 500.653,876.835 498.632,878.731 C495.303,881.856 491.392,881.49 486.604,880.82 C482.253,880.207 479.428,877.821 476.292,875.991 C474.838,875.144 472.165,877.689 473.374,879.128" id="Fill-124" fill="#0A0B09"></path>
            <path d="M444.112,872.77 C448.137,872.86 454.154,868.763 453.652,868.17 C451.84,866.024 447.969,863.99 444.018,863.633 C436.521,862.958 433.794,868.126 433.794,868.126 C433.794,868.126 436.422,872.597 444.112,872.77" id="Fill-125" fill="#FFFFFE"></path>
            <path d="M489.36,874.561 C493.347,874.65 499.78,870.739 499.284,870.149 C497.485,868.023 493.206,865.53 489.288,865.176 C481.854,864.507 477.855,868.337 477.855,868.337 C477.855,868.337 481.735,874.389 489.36,874.561" id="Fill-126" fill="#FFFFFE"></path>
            <path d="M457.25,843.411 C458.016,847.524 461.091,850.739 462.133,854.895 C463.225,859.254 464.187,863.643 464.488,868.144 C464.698,871.295 467.416,872.619 468.676,869.014 C468.858,868.493 470.19,855.672 471.1,850.921 C471.738,847.584 473.979,845.513 473.43,842.068 C472.871,838.537 469.996,838.592 467.933,840.495 C466.153,837.998 463.714,837.943 462.33,840.565 C459.701,839.311 456.48,839.259 457.25,843.411" id="Fill-127" fill="#E67A4C"></path>
            <path d="M512.89,845.511 C512.232,848.907 510.89,860.187 516.483,863.146 C519.055,864.506 522.38,864.726 524.439,861.931 C529.108,855.581 525.34,846.518 522.701,840.987 C520.324,835.99 511.327,830.076 509.994,837.953 C509.428,841.303 512.311,844.263 512.89,845.511" id="Fill-128" fill="#E67A4C"></path>
            <path d="M453.475,831.928 C458.801,824.257 471.053,823.398 477.82,829.648 C478.608,830.375 479.607,829.113 478.867,828.404 C470.307,820.215 456.809,821.328 451.983,830.673 C451.415,831.777 452.756,832.963 453.475,831.928" id="Fill-129" fill="#D86C2C"></path>
            <path d="M484.435,872.019 C484.78,874.559 489.169,875.535 491.241,874.161 C493.731,872.509 493.988,868.448 490.243,866.643 C487.205,865.233 483.731,866.912 484.435,872.019" id="Fill-130" fill="#66462B"></path>
            <path d="M487.422,872.543 C487.48,872.595 487.555,872.633 487.625,872.672 C488.017,873.009 488.548,873.175 489.047,872.987 C490.121,872.587 490.404,871.38 489.876,870.434 C489.406,869.593 488.14,869.494 487.42,870.023 C486.547,870.661 486.671,871.875 487.422,872.543" id="Fill-131" fill="#1B1A19"></path>
            <path d="M489.992,872.387 C490.949,872.552 491.202,871.072 490.247,870.905 C489.294,870.742 489.039,872.223 489.992,872.387" id="Fill-132" fill="#FFFFFE"></path>
            <path d="M439.164,870.162 C439.786,872.52 443.675,873.509 445.647,872.202 C448.021,870.627 448.82,866.439 445.25,864.722 C442.289,863.054 437.772,864.883 439.164,870.162" id="Fill-133" fill="#66462B"></path>
            <path d="M442.148,870.277 C442.203,870.33 442.276,870.362 442.342,870.402 C442.713,870.722 443.22,870.878 443.695,870.7 C444.717,870.318 444.988,869.17 444.486,868.272 C444.038,867.471 442.829,867.373 442.146,867.875 C441.314,868.486 441.435,869.643 442.148,870.277" id="Fill-134" fill="#1B1A19"></path>
            <path d="M444.642,870.747 C444.674,870.737 444.705,870.726 444.736,870.717 C445.81,870.385 444.659,868.753 443.985,869.654 C443.967,869.683 443.945,869.71 443.926,869.736 C443.534,870.261 444.018,870.941 444.642,870.747" id="Fill-135" fill="#FFFFFE"></path>
            <path d="M431.939,858.079 C438.328,859.605 444.578,859.419 449.96,855.244 C450.683,854.685 449.882,853.536 449.141,854.086 C444.156,857.785 438.007,857.217 432.193,856.603 C431.23,856.501 430.999,857.855 431.939,858.079" id="Fill-136" fill="#E67A4C"></path>
            <path d="M432.169,854.632 C437.354,856.219 445.312,856.123 449.529,852.144 C450.116,851.587 449.171,850.562 448.57,851.1 C444.821,854.486 436.934,854.077 432.431,853.108 C431.432,852.892 431.248,854.349 432.169,854.632" id="Fill-137" fill="#E67A4C"></path>
            <path d="M432.61,851.89 C437.606,853.522 442.941,852.342 447.551,850.083 C448.364,849.686 447.907,848.37 447.049,848.742 C442.395,850.767 438.07,851.465 433.074,850.417 C432.225,850.24 431.765,851.617 432.61,851.89" id="Fill-138" fill="#E67A4C"></path>
            <path d="M483.401,858.079 C486.105,860.078 489.059,861.606 492.266,862.62 C495.318,863.587 497.814,863.042 500.89,862.705 C501.852,862.596 501.692,861.197 500.745,861.225 C497.532,861.317 495.016,861.661 491.841,860.65 C489.117,859.78 486.72,858.146 484.284,856.699 C483.478,856.216 482.653,857.526 483.401,858.079" id="Fill-139" fill="#E67A4C"></path>
            <path d="M484.316,855.127 C489.623,858.031 494.978,859.677 501.148,859.762 C502.141,859.776 502.271,858.37 501.267,858.347 C495.411,858.207 490.514,856.195 485.442,853.651 C484.34,853.098 483.201,854.52 484.316,855.127" id="Fill-140" fill="#E67A4C"></path>
            <path d="M485.254,850.978 C489.227,853.691 496.47,857.379 501.271,854.707 C502.095,854.245 501.361,853.099 500.539,853.476 C498.288,854.502 494.956,853.432 492.689,852.804 C490.273,852.134 488.289,850.647 486.123,849.462 C485.119,848.911 484.334,850.35 485.254,850.978" id="Fill-141" fill="#E67A4C"></path>
            <path d="M434.341,928.98 C443.278,934.65 452.381,936.71 472.738,937.77 C485.285,938.42 500.36,923.99 500.36,923.99 C500.36,923.99 504.918,925.11 512.641,917.94 C527.452,904.194 528.112,883.097 524.854,868.916 C523.665,863.743 518.888,851.941 513.991,853.972 C512.57,854.566 516.015,868.712 512.728,872.373 C507.048,878.694 500.644,893.744 498.914,897.751 C484.167,895.493 456.637,895.898 444.428,895.538 C416.729,894.722 429.884,855.496 422.554,858.937 C418.155,861 400.82,907.725 434.341,928.98" id="Fill-142" fill="#0A0B09"></path>
            <path d="M879.66,416.597 C879.66,416.597 880.53,415.859 884.31,435.358 C886.44,446.323 886.59,460.463 885.05,471.48 C884.7,473.926 878.46,494.358 875.92,492.791 C873.4,491.249 880.3,469.663 881.33,463.465 C878.71,481.454 873.15,498.399 870.201,497.472 C867.266,496.55 874.73,484.174 876.96,463.731 C873.96,480.051 867.883,499.605 864.557,498.322 C861.544,497.162 869.873,480.792 871.584,465.29 C869.768,474.277 863.79,486.983 861.65,492.564 C860.516,495.531 857.709,494.617 858.618,491.401 C860.696,484.022 862.296,479.874 863.081,477.213 C865.143,470.182 866.225,467.468 866.33,461.155 C866.448,454.208 866.249,455.377 866.448,454.208 C866.721,452.604 865.204,461.17 862.191,469.222 C861.37,471.403 858.807,476.607 856.835,475.797 C855.135,475.096 856.299,473.086 856.98,471.255 C859.593,464.248 857.849,458.282 857.935,452.178 C858.035,444.964 861.483,444.604 861.027,437.78 C860.642,432.035 859.543,427.273 859.543,427.273 L879.66,416.597" id="Fill-143" fill="#97592D"></path>
        </g>
    </g>
</svg>