<?xml version="1.0" encoding="UTF-8"?>
<svg width="481px" height="480px" viewBox="0 0 481 480" version="1.1" xmlns="http://www.w3.org/2000/svg" xmlns:xlink="http://www.w3.org/1999/xlink">
    <!-- Generator: Sketch 51.2 (57519) - http://www.bohemiancoding.com/sketch -->
    <title>weight</title>
    <desc>Created with Sketch.</desc>
    <defs></defs>
    <g id="Page-1" stroke="none" stroke-width="1" fill="none" fill-rule="evenodd">
        <g id="weight" fill="#27BCBD" fill-rule="nonzero">
            <path d="M442.84,175.528 C465.776,172.981 482.304,152.323 479.757,129.387 C478.707,119.934 474.464,111.123 467.728,104.408 L451.32,88.008 L477.664,61.664 C480.787,58.54 480.787,53.476 477.664,50.352 L429.664,2.352 C426.54,-0.771 421.476,-0.771 418.352,2.352 L392.008,28.696 L375.608,12.296 C359.316,-4.047 332.86,-4.089 316.517,12.203 C309.783,18.916 305.54,27.725 304.488,37.176 L279.608,12.296 C263.103,-3.958 236.546,-3.755 220.292,12.75 C204.215,29.075 204.213,55.28 220.288,71.608 L284.696,136.008 L136.008,284.696 L71.608,220.296 C55.103,204.042 28.546,204.245 12.292,220.75 C-3.785,237.075 -3.787,263.281 12.288,279.608 L37.176,304.488 C14.24,307.035 -2.288,327.693 0.259,350.629 C1.309,360.082 5.552,368.893 12.288,375.608 L28.696,392.008 L2.352,418.352 C-0.771,421.476 -0.771,426.54 2.352,429.664 L50.352,477.664 C53.476,480.787 58.54,480.787 61.664,477.664 L88.008,451.32 L104.408,467.72 C120.7,484.063 147.156,484.105 163.499,467.813 C170.233,461.1 174.476,452.291 175.528,442.84 L200.408,467.72 C216.913,483.974 243.47,483.771 259.724,467.265 C275.801,450.94 275.802,424.735 259.728,408.408 L195.32,344.008 L344.008,195.32 L408.408,259.72 C424.913,275.974 451.47,275.771 467.724,259.265 C483.801,242.94 483.802,216.735 467.728,200.408 L442.84,175.528 Z M424.008,19.32 L460.696,56.008 L440.008,76.696 L403.32,40.008 L424.008,19.32 Z M327.608,23.608 C337.737,13.479 354.159,13.479 364.288,23.608 L456.408,115.72 C461.289,120.575 464.025,127.18 464.008,134.064 C464.013,148.388 452.405,160.004 438.081,160.009 C431.197,160.011 424.595,157.277 419.728,152.408 L373.672,106.352 L327.608,60.288 C317.479,50.159 317.479,33.736 327.608,23.608 Z M56.008,460.696 L19.32,424.008 L40.008,403.32 L76.696,440.008 L56.008,460.696 Z M134.081,464.008 C127.197,464.01 120.595,461.276 115.728,456.407 L23.608,364.295 C13.477,354.166 13.475,337.742 23.604,327.611 C33.733,317.48 50.157,317.478 60.288,327.607 L106.344,373.663 L152.408,419.727 C157.289,424.578 160.026,431.181 160.008,438.063 C160.013,452.388 148.405,464.004 134.081,464.008 Z M248.408,419.72 C253.289,424.575 256.025,431.18 256.008,438.064 C256.013,452.388 244.405,464.004 230.081,464.009 C223.197,464.011 216.595,461.277 211.728,456.408 L163.728,408.408 L117.672,362.352 L23.608,268.296 C13.477,258.167 13.475,241.743 23.604,231.612 C33.733,221.481 50.157,221.479 60.288,231.608 L248.408,419.72 Z M184.008,332.696 L147.32,296.008 L296.008,147.32 L332.696,184.008 L184.008,332.696 Z M438.081,256.008 C431.197,256.01 424.595,253.276 419.728,248.407 L231.608,60.296 C221.477,50.167 221.475,33.743 231.604,23.612 C241.733,13.481 258.157,13.479 268.288,23.608 L316.288,71.608 L362.344,117.664 L456.408,211.72 C461.289,216.575 464.025,223.18 464.008,230.064 C464.013,244.388 452.405,256.004 438.081,256.008 Z" id="Shape"></path>
        </g>
    </g>
</svg>