<?xml version="1.0" encoding="UTF-8"?>
<svg width="480px" height="480px" viewBox="0 0 480 480" version="1.1" xmlns="http://www.w3.org/2000/svg" xmlns:xlink="http://www.w3.org/1999/xlink">
    <!-- Generator: Sketch 51.2 (57519) - http://www.bohemiancoding.com/sketch -->
    <title>bgl-graph</title>
    <desc>Created with Sketch.</desc>
    <defs></defs>
    <g id="Page-1" stroke="none" stroke-width="1" fill="none" fill-rule="evenodd">
        <g id="bgl-graph" fill="#27BCBD" fill-rule="nonzero">
            <path d="M472,464 L448,464 L448,448 C448,443.2 444.8,440 440,440 C435.2,440 432,443.2 432,448 L432,464 L400,464 L400,448 C400,443.2 396.8,440 392,440 C387.2,440 384,443.2 384,448 L384,464 L352,464 L352,448 C352,443.2 348.8,440 344,440 C339.2,440 336,443.2 336,448 L336,464 L304,464 L304,448 C304,443.2 300.8,440 296,440 C291.2,440 288,443.2 288,448 L288,464 L256,464 L256,448 C256,443.2 252.8,440 248,440 C243.2,440 240,443.2 240,448 L240,464 L208,464 L208,448 C208,443.2 204.8,440 200,440 C195.2,440 192,443.2 192,448 L192,464 L160,464 L160,448 C160,443.2 156.8,440 152,440 C147.2,440 144,443.2 144,448 L144,464 L112,464 L112,448 C112,443.2 108.8,440 104,440 C99.2,440 96,443.2 96,448 L96,464 L64,464 L64,448 C64,443.2 60.8,440 56,440 C51.2,440 48,443.2 48,448 L48,464 L16,464 L16,8 C16,3.2 12.8,0 8,0 C3.2,0 0,3.2 0,8 L0,472 C0,476.8 3.2,480 8,480 L472,480 C476.8,480 480,476.8 480,472 C480,467.2 476.8,464 472,464 Z" id="Shape"></path>
            <path d="M408.8,175.2 C391.2,175.2 376,189.6 376,207.2 C376,215.2 378.4,223.2 384,228.8 L319.2,308 C307.2,301.6 292.8,303.2 283.2,312 L236,271.2 C238.4,266.4 240,260.8 240,256 C240,238.4 225.6,224 208,224 C190.4,224 176,238.4 176,256 C176,261.6 177.6,267.2 180.8,272 L88,364.8 C83.2,361.6 77.6,360 72,360 C54.4,360 40,374.4 40,392 C40,409.6 54.4,424 72,424 C89.6,424 104,409.6 104,392 C104,386.4 102.4,380.8 99.2,376 L192,283.2 C202.4,289.6 215.2,289.6 224.8,283.2 L274.4,325.6 C272.8,328.8 272,332 272,336 C272,353.6 286.4,368 304,368 C321.6,368 336,353.6 336,336 C336,330.4 334.4,324 331.2,319.2 L397.6,238.4 C400.8,240 404.8,240 408,240 C425.6,240 440.8,225.6 440.8,208 C440.8,190.4 426.4,175.2 408.8,175.2 Z M72,408 C63.2,408 56,400.8 56,392 C56,383.2 63.2,376 72,376 C80.8,376 88,383.2 88,392 C88,400.8 80.8,408 72,408 Z M208,272 C199.2,272 192,264.8 192,256 C192,247.2 199.2,240 208,240 C216.8,240 224,247.2 224,256 C224,264.8 216.8,272 208,272 Z M304,352 C295.2,352 288,344.8 288,336 C288,327.2 295.2,320 304,320 C312.8,320 320,327.2 320,336 C320,344.8 312.8,352 304,352 Z M408,224 C399.2,224 392,216.8 392,208 C392,199.2 399.2,192 408,192 C416.8,192 424,199.2 424,208 C424,216.8 416.8,224 408,224 Z" id="Shape"></path>
            <path d="M112.823543,22.7250538 C111.599362,21.017229 109.610656,20 107.5,20 C105.384654,20 103.400638,21.0125628 102.167077,22.7250538 C88.9965847,41.0118449 56,89.1109117 56,111.765255 C56,140.061019 79.053051,163 107.49531,163 C135.942259,163 159,140.061019 159,111.765255 C159.00469,89.1109117 125.994035,41.0118449 112.823543,22.7250538 Z M89.3269125,140.47185 C87.9284742,142.137071 85.914723,143 83.8869875,143 C82.2787834,143 80.647272,142.449591 79.3140942,141.330115 C59.1346293,124.323408 66.0988521,99.2051644 66.4065086,98.1369977 C67.4972904,94.3634305 71.4082563,92.1991102 75.1980241,93.2766059 C78.9644846,94.3541016 81.1367254,98.2909256 80.0692509,102.050499 C79.8501622,102.866784 75.4916961,119.509661 88.4785266,130.452539 C91.4711846,132.980689 91.8580858,137.463258 89.3269125,140.47185 Z M103.5,155 C99.3657407,155 96,151.635298 96,147.502314 C96,143.355446 99.3657407,140 103.5,140 C107.648148,140 111,143.360074 111,147.502314 C111,151.644554 107.643519,155 103.5,155 Z" id="Shape"></path>
        </g>
    </g>
</svg>