<?xml version="1.0" encoding="UTF-8"?>
<svg width="2047px" height="2121px" viewBox="0 0 2047 2121" version="1.1" xmlns="http://www.w3.org/2000/svg" xmlns:xlink="http://www.w3.org/1999/xlink">
    <!-- Generator: Sketch 51.2 (57519) - http://www.bohemiancoding.com/sketch -->
    <title>Group</title>
    <desc>Created with Sketch.</desc>
    <defs></defs>
    <g id="Page-1" stroke="none" stroke-width="1" fill="none" fill-rule="evenodd">
        <g id="Group" transform="translate(0.000000, -147.000000)" fill="#27BCBD" fill-rule="nonzero">
            <g id="injection" transform="translate(1588.463592, 1045.187303) scale(-1, 1) rotate(-22.000000) translate(-1588.463592, -1045.187303) translate(785.963592, 243.187303)">
                <path d="M1575.23824,339.483213 L1497.93063,262.219161 C1485.69266,249.990724 1465.84866,249.990724 1453.61069,262.219161 C1441.37272,274.450731 1441.37272,294.284353 1453.61069,306.519055 L1530.91517,383.783106 C1545.58506,398.445328 1545.58506,422.303936 1530.91517,436.966158 C1516.25154,451.628379 1492.37731,451.637776 1477.70429,436.966158 L1384.6111,343.924791 C1384.60797,343.924791 1384.60797,343.921659 1384.60797,343.921659 L1260.47327,219.851887 C1260.47014,219.848755 1260.467,219.845622 1260.46387,219.84249 L1167.37382,126.801124 C1152.70393,112.138902 1152.70393,88.2834267 1167.37382,73.6180726 C1182.04371,58.9495863 1205.91481,58.9558509 1220.5847,73.6180726 L1283.79593,136.796242 C1296.0339,149.024679 1315.8779,149.024679 1328.119,136.796242 C1340.35697,124.564673 1340.35697,104.73105 1328.119,92.4963487 L1264.91091,29.3181789 C1225.80268,-9.76959403 1162.16524,-9.76959403 1123.05701,29.3181789 C1083.94879,68.4059519 1083.94879,132.00698 1123.05701,171.097885 L1193.9965,242.000268 L1071.10284,364.829655 L995.731985,289.498223 L959.895574,253.680555 C947.657605,241.452118 927.813604,241.452118 915.5725,253.680555 C903.33453,265.912124 903.33453,285.745747 915.5725,297.980449 L929.245806,311.646604 L403.078921,837.535174 C328.005793,912.569039 309.177183,1022.84423 346.56802,1115.56611 L224.360689,1237.70952 C205.416124,1256.64418 194.983294,1281.82148 194.983294,1308.60251 C194.983294,1324.57403 198.722064,1339.9598 205.735784,1353.80763 L9.17926076,1550.25823 C-3.05870895,1562.48979 -3.05870895,1582.32342 9.17926076,1594.55812 C15.2998126,1600.67234 23.3195218,1603.73258 31.339231,1603.73258 C39.3589402,1603.73258 47.3817834,1600.67234 53.4992012,1594.55812 L250.055724,1398.10753 C263.910798,1405.11758 279.304628,1408.85439 295.284502,1408.85439 C322.076411,1408.85439 347.263751,1398.42702 366.21145,1379.49236 L488.421915,1257.34581 C519.265986,1269.77158 552.049956,1275.9923 584.837059,1275.9923 C650.66198,1275.9923 716.483767,1250.94969 766.595197,1200.8676 L1292.76208,674.979028 L1306.43539,688.645183 C1312.55594,694.759402 1320.57565,697.819643 1328.59536,697.819643 C1336.61507,697.819643 1344.63791,694.759402 1350.75533,688.645183 C1362.9933,676.413614 1362.9933,656.579991 1350.75533,644.345289 L1314.93772,608.546415 C1314.93145,608.54015 1314.92832,608.537018 1314.92205,608.530753 L1239.5512,533.199321 L1362.44486,410.369934 L1433.38121,481.272316 C1452.32578,500.206973 1477.51625,510.634347 1504.30816,510.634347 C1531.10007,510.634347 1556.28741,500.206973 1575.23824,481.272316 C1614.34647,442.175146 1614.34647,378.574118 1575.23824,339.483213 Z M321.891509,1335.19247 C314.786906,1342.29649 305.338128,1346.20871 295.287636,1346.20871 C285.237145,1346.20871 275.791501,1342.29649 268.683763,1335.19247 C254.013869,1320.53025 254.013869,1296.67164 268.683763,1282.00942 L378.440018,1172.31056 C385.848612,1182.27436 394.040687,1191.83409 403.078921,1200.8676 C412.117156,1209.90111 421.678755,1218.0889 431.647764,1225.49048 L321.891509,1335.19247 Z M1248.43274,630.679134 L1159.02505,720.043199 L1097.69104,658.741267 C1085.45307,646.51283 1065.60907,646.51283 1053.3711,658.741267 C1041.13313,670.972836 1041.13313,690.806459 1053.3711,703.041161 L1114.70511,764.33996 L1011.25117,867.73979 L949.917163,806.437858 C937.679193,794.209421 917.835192,794.209421 905.594089,806.437858 C893.356119,818.669427 893.356119,838.50305 905.594089,850.737752 L966.928098,912.039683 L863.474162,1015.43951 L802.140153,954.137581 C789.902184,941.909144 770.058182,941.909144 757.817079,954.137581 C745.579109,966.369151 745.579109,986.202773 757.817079,998.437475 L819.151088,1059.73941 L722.275257,1156.56457 C720.068975,1158.7697 717.815684,1160.89652 715.531054,1162.97009 L654.363143,1101.84044 C642.125174,1089.612 622.281173,1089.612 610.040069,1101.84044 C597.802099,1114.07201 597.802099,1133.90563 610.040069,1146.14033 L661.558631,1197.63195 C590.634817,1227.98691 505.204073,1214.33642 447.395728,1156.5677 C371.611199,1080.82281 371.611199,957.579961 447.395728,881.835068 L973.559479,355.946498 L1248.43274,630.679134 Z M1195.23126,488.896295 L1115.41964,409.126417 L1238.3133,286.297029 L1318.12492,366.066908 L1195.23126,488.896295 Z" id="Shape"></path>
                <path d="M1420.08711,184.391299 C1414.25801,178.565251 1406.17249,175.213707 1397.93027,175.213707 C1389.65672,175.213707 1381.60253,178.562118 1375.7421,184.391299 C1369.913,190.217347 1366.59104,198.295508 1366.59104,206.536547 C1366.59104,214.805777 1369.913,222.855747 1375.7421,228.678663 C1381.60253,234.536035 1389.68806,237.887579 1397.93027,237.887579 C1406.17249,237.887579 1414.22667,234.536035 1420.08711,228.678663 C1425.91621,222.855747 1429.2695,214.802645 1429.2695,206.536547 C1429.2695,198.295508 1425.91621,190.217347 1420.08711,184.391299 Z" id="Shape"></path>
                <path d="M819.14482,653.419516 C806.90685,641.191079 787.062849,641.191079 774.82488,653.419516 L532.694847,895.422916 C520.456877,907.654486 520.456877,927.488108 532.694847,939.72281 C538.815399,945.837028 546.835108,948.89727 554.854817,948.89727 C562.874526,948.89727 570.897369,945.837028 577.014787,939.72281 L819.14482,697.71941 C831.38279,685.490973 831.38279,665.65735 819.14482,653.419516 Z" id="Shape"></path>
                <path d="M897.207711,575.403717 C891.378614,569.546346 883.293092,566.226125 875.050874,566.226125 C866.808656,566.226125 858.723135,569.546346 852.894038,575.403717 C847.064941,581.226633 843.711643,589.279735 843.711643,597.548965 C843.711643,605.786872 847.064941,613.868165 852.894038,619.691081 C858.723135,625.51713 866.808656,628.871806 875.050874,628.871806 C883.293092,628.871806 891.378614,625.520262 897.207711,619.691081 C903.036807,613.868165 906.390105,605.786872 906.390105,597.548965 C906.390105,589.276603 903.036807,581.226633 897.207711,575.403717 Z" id="Shape"></path>
            </g>
            <g id="008-pill" transform="translate(0.000000, 727.000000)">
                <path d="M807.516883,141.374222 C803.234328,124.617413 786.198094,114.497553 769.412484,118.77602 C701.85025,136.027703 645.647594,178.4146 611.167859,238.12835 C602.515031,253.10925 607.649711,272.262126 622.633953,280.909892 C627.568133,283.756984 632.953438,285.113189 638.266688,285.113189 C649.093688,285.113189 659.626203,279.494177 665.425039,269.446356 C691.399188,224.462937 733.836266,192.50598 784.916773,179.46699 C801.67732,175.191654 811.796305,158.137295 807.516883,141.374222 Z" id="Shape"></path>
                <path d="M875.849789,114.25638 C875.379867,114.171813 874.906813,114.09351 874.405563,114.018339 C857.325469,111.399892 841.451508,123.110866 838.801148,140.180886 C836.157055,157.219585 847.886305,173.193366 864.888078,175.927701 C866.698844,176.244045 868.500211,176.394386 870.282781,176.394386 C885.12918,176.394386 898.315187,165.792181 901.065797,150.673467 C904.157883,133.653561 892.870359,117.350909 875.849789,114.25638 Z" id="Shape"></path>
                <path d="M1444.11378,917.07353 C1421.05315,910.486695 1396.11283,904.651567 1369.67502,899.6026 C1368.18067,899.214217 1366.65499,898.938591 1365.11052,898.772589 C1288.04333,884.408715 1198.55454,876.678659 1105.25625,876.678659 C1053.56798,876.678659 1003.0827,879.08099 955.182,883.631951 L1148.75535,548.439394 C1197.34527,464.295157 1210.16474,365.940518 1184.84848,271.485362 C1159.53223,177.03647 1099.23812,98.266939 1015.07824,49.6909858 C840.683969,-50.9688882 616.897773,8.9735061 516.218578,183.322622 L282.564023,587.922821 C282.542094,587.957274 282.517031,587.985463 282.498234,588.019917 C282.479437,588.05437 282.463773,588.088823 282.444977,588.123276 L48.7872891,992.739136 C0.194234375,1076.88337 -12.6221016,1175.23801 12.6910234,1269.69317 C38.0041484,1364.14206 98.2982578,1442.91472 182.461266,1491.48754 C238.147008,1523.6293 300.681078,1540.15433 364.108,1540.15433 C390.830891,1540.15433 417.716688,1537.22267 444.308,1531.28418 C515.075102,1515.48893 578.696258,1479.63876 628.028656,1428.53519 C652.821734,1456.78372 698.961797,1480.65983 766.123031,1499.84089 C857.128102,1525.8343 977.55968,1540.1512 1105.24372,1540.1512 C1232.92463,1540.1512 1353.35934,1525.8343 1444.36127,1499.84089 C1550.27853,1469.5878 1603.98434,1427.68952 1603.98434,1375.31118 L1603.98434,1041.70974 C1603.9906,1041.64396 1603.99687,1041.58445 1603.99687,1041.51868 C1604,989.246829 1550.20648,947.376732 1444.11378,917.07353 Z M1105.25938,939.314671 C1154.57298,939.317803 1202.61466,941.569793 1248.08117,945.835732 L850.12,1121.44083 C826.511125,1116.85854 804.221164,1111.62478 783.613523,1105.73954 C689.726266,1078.91925 669.16875,1050.28546 669.16875,1041.51554 C669.16875,1032.74563 689.729398,1004.11184 783.616656,977.288419 C869.34607,952.804685 983.57468,939.314671 1105.25938,939.314671 Z M570.472625,214.64376 C653.880625,70.2063313 839.277336,20.5466667 983.750117,103.936065 C1053.4176,144.149274 1103.34523,209.41313 1124.33195,287.700315 C1145.31552,365.990632 1134.72035,447.466309 1094.5013,517.121388 L877.253289,893.310183 C876.404297,893.441732 875.574102,893.588941 874.725109,893.723622 L352.422609,592.220081 L570.472625,214.64376 Z M606.5125,1041.35581 C606.5125,1041.41532 606.503102,1041.46543 606.503102,1041.52494 L606.503102,1357.39549 C515.639008,1477.69372 345.13882,1513.06468 213.792523,1437.24247 C144.121906,1397.02926 94.1942734,1331.7654 73.2106953,1253.47822 C52.2271172,1175.1879 62.8254219,1093.71222 103.044469,1024.05714 L321.097617,646.462028 L782.351,912.726157 C776.946898,914.13874 771.608586,915.579512 766.392453,917.070398 C660.415672,947.345411 606.628414,989.162262 606.5125,1041.35581 Z M1541.34375,1375.31431 C1541.34375,1384.12808 1520.83009,1412.86209 1427.16213,1439.61661 C1341.59876,1464.05649 1227.27616,1477.51832 1105.25312,1477.51832 C983.23007,1477.51832 868.904344,1464.05649 783.340969,1439.61661 C689.669875,1412.86209 669.159352,1384.12808 669.159352,1375.31431 L669.159352,1127.04418 C694.156062,1141.60537 726.599469,1154.60051 766.398719,1165.97009 C790.978766,1172.99229 817.73925,1179.13123 846.122531,1184.39945 C847.500969,1184.74711 848.898203,1185.00708 850.317367,1185.16368 C926.266141,1198.94498 1013.9285,1206.36183 1105.25625,1206.36183 C1232.59568,1206.36183 1352.93954,1192.01675 1444.11378,1165.97322 C1483.90677,1154.60678 1516.34391,1141.61477 1541.34375,1127.05357 L1541.34375,1375.31431 Z M1541.34375,1041.52494 L1541.34375,1041.60951 C1541.2153,1050.47652 1520.49802,1079.00695 1426.90524,1105.74893 C1341.1727,1130.23267 1226.94095,1143.72268 1105.25625,1143.72268 C1058.0667,1143.72268 1012.03315,1141.67115 968.311617,1137.75914 L1365.29222,962.586276 C1387.07466,966.93365 1407.73556,971.826012 1426.90211,977.300947 C1520.62333,1004.06799 1541.26856,1032.64853 1541.34688,1041.47483 C1541.34688,1041.49049 1541.34375,1041.50615 1541.34375,1041.52494 Z" id="Shape"></path>
            </g>
        </g>
    </g>
</svg>