<?xml version="1.0" encoding="UTF-8"?>
<svg width="2320px" height="2015px" viewBox="0 0 2320 2015" version="1.1" xmlns="http://www.w3.org/2000/svg" xmlns:xlink="http://www.w3.org/1999/xlink">
    <!-- Generator: Sketch 51.2 (57519) - http://www.bohemiancoding.com/sketch -->
    <title>Group 3</title>
    <desc>Created with Sketch.</desc>
    <defs></defs>
    <g id="Page-1" stroke="none" stroke-width="1" fill="none" fill-rule="evenodd">
        <g id="Group-3" fill="#27BCBD">
            <path d="M1235,604 L1821,604 L1821,2015 L1235,2015 L1235,604 Z M1294,664 L1294,1955 L1764,1955 L1764,664 L1294,664 Z" id="Combined-Shape"></path>
            <rect id="Rectangle-2" x="1501" y="0" width="60" height="662"></rect>
            <path d="M2319.96287,4.54747351e-13 L2124.1807,194.179966 L2319.96287,390 L1501,390 L1501,4.54747351e-13 L2319.96287,4.54747351e-13 Z M2191,58 L1561.06915,58 L1561.06915,332.905827 L2191,332.905827 L2052.99574,194.874882 L2191,58 Z" id="Combined-Shape"></path>
            <path d="M708,1053 L1294,1053 L1294,2014 L708,2014 L708,1053 Z M768,1112 L768,1955 L1238,1955 L1238,1112 L768,1112 Z" id="Combined-Shape"></path>
            <path d="M180,1502 L766,1502 L766,2013 L180,2013 L180,1502 Z M239,1562 L239,1952 L709,1952 L709,1562 L239,1562 Z" id="Combined-Shape"></path>
            <rect id="Rectangle" x="0" y="1955" width="2003" height="60"></rect>
        </g>
    </g>
</svg>