<?xml version="1.0" encoding="UTF-8"?>
<svg width="481px" height="490px" viewBox="0 0 481 490" version="1.1" xmlns="http://www.w3.org/2000/svg" xmlns:xlink="http://www.w3.org/1999/xlink">
    <!-- Generator: Sketch 51.2 (57519) - http://www.bohemiancoding.com/sketch -->
    <title>nutrition</title>
    <desc>Created with Sketch.</desc>
    <defs></defs>
    <g id="Page-1" stroke="none" stroke-width="1" fill="none" fill-rule="evenodd">
        <g id="nutrition" fill="#27BCBD" fill-rule="nonzero">
            <path d="M238.38,44.104 C236.82,42.592 234.676,41.784 232.524,41.88 C218.484,42.432 204.484,44.4 190.924,47.744 L194.756,63.28 C204.588,60.856 214.668,59.216 224.836,58.376 L224.836,209.672 L53.044,209.672 C55.148,199.752 58.044,189.992 61.684,180.544 L46.764,174.784 C41.588,188.192 37.804,202.192 35.516,216.392 C35.14,218.712 35.804,221.064 37.324,222.856 C38.844,224.648 41.068,225.672 43.412,225.672 L232.836,225.672 C237.26,225.672 240.836,222.088 240.836,217.672 L240.836,49.872 C240.836,47.696 239.956,45.616 238.38,44.104 Z" id="Shape"></path>
            <path d="M407.228,124.864 L394.428,134.472 C419.556,167.904 432.836,207.736 432.836,249.672 C432.836,252.224 432.772,254.872 432.644,257.672 L272.836,257.672 L272.836,60.384 C285.548,62.52 298.012,65.928 310.004,70.56 L315.772,55.64 C299.748,49.448 282.932,45.264 265.796,43.216 C263.484,42.944 261.244,43.664 259.532,45.176 C257.812,46.688 256.836,48.864 256.836,51.16 L256.836,265.672 C256.836,270.088 260.412,273.672 264.836,273.672 L440.14,273.672 C444.308,273.672 447.78,270.464 448.116,266.312 C448.604,260.232 448.836,254.792 448.836,249.672 C448.836,204.24 434.444,161.088 407.228,124.864 Z" id="Shape"></path>
            <path d="M232.836,241.672 L40.836,241.672 C36.412,241.672 32.836,245.256 32.836,249.672 C32.836,260.848 33.724,272.04 35.484,282.952 L51.284,280.408 C50.076,272.936 49.316,265.32 49.004,257.672 L224.836,257.672 L224.836,440.968 C209.34,439.688 194.116,436.552 179.452,431.608 L174.34,446.776 C193.068,453.088 212.636,456.688 232.516,457.464 C232.62,457.464 232.724,457.472 232.828,457.472 C234.892,457.472 236.884,456.672 238.372,455.24 C239.956,453.728 240.836,451.648 240.836,449.472 L240.836,249.672 C240.836,245.256 237.26,241.672 232.836,241.672 Z" id="Shape"></path>
            <path d="M441.284,292.744 C439.78,290.8 437.46,289.672 435.004,289.672 L264.836,289.672 C260.412,289.672 256.836,293.256 256.836,297.672 L256.836,448.184 C256.836,450.472 257.812,452.648 259.524,454.168 C261.004,455.48 262.892,456.184 264.836,456.184 C265.148,456.184 265.468,456.168 265.788,456.128 C274.156,455.128 282.556,453.6 290.748,451.584 L286.916,436.048 C282.276,437.192 277.564,438.168 272.828,438.96 L272.828,305.672 L424.492,305.672 C423.94,307.496 423.356,309.312 422.748,311.12 L437.908,316.232 C439.764,310.728 441.404,305.128 442.756,299.592 C443.348,297.208 442.804,294.68 441.284,292.744 Z" id="Shape"></path>
            <path d="M183.204,78.52 C183.196,78.512 183.188,78.512 183.18,78.512 C171.988,70.112 158.732,65.672 144.836,65.672 C142.428,65.672 139.98,65.856 137.476,66.168 C129.676,50.232 116.204,37.584 99.66,30.904 C106.252,23.912 114.532,18.4 123.644,14.976 L118.02,0 C106.524,4.312 96.076,11.288 87.788,20.16 C85.868,22.216 84.164,24.304 82.58,26.408 C79.38,25.976 76.148,25.672 72.836,25.672 C33.132,25.672 0.836,57.976 0.836,97.672 C0.836,137.368 33.132,169.672 72.836,169.672 C79.74,169.672 86.404,168.64 92.732,166.816 C101.876,179.616 115.492,188.696 130.948,192.12 C130.956,192.12 130.956,192.128 130.964,192.128 C135.604,193.152 140.276,193.672 144.836,193.672 C160.068,193.672 174.86,188.184 186.468,178.232 C186.476,178.224 186.476,178.224 186.484,178.216 C200.684,166.024 208.836,148.328 208.836,129.672 C208.836,109.4 199.492,90.76 183.204,78.52 Z M72.836,153.672 C41.964,153.672 16.836,128.552 16.836,97.672 C16.836,66.792 41.964,41.672 72.836,41.672 C73.052,41.672 73.252,41.704 73.468,41.704 C70.34,48.656 68.596,55.176 67.636,60.456 L83.372,63.328 C84.324,58.112 86.236,51.392 89.988,44.384 C106.252,49.632 119.236,62.128 125.22,78.048 C125.788,79.568 126.292,81.096 126.724,82.632 C126.78,82.832 126.828,83.032 126.876,83.232 C127.252,84.624 127.58,86.016 127.852,87.424 C127.964,88.04 128.044,88.664 128.14,89.28 C128.3,90.32 128.468,91.36 128.572,92.408 C128.732,94.136 128.836,95.896 128.836,97.672 C128.836,101.792 128.332,106.064 127.332,110.368 C121.548,135.144 99.34,153.672 72.836,153.672 Z M126.764,174.12 C119.5,171.16 113.092,166.424 108.044,160.408 C119.86,153.752 129.636,143.896 136.124,131.976 L126.764,174.12 Z M192.172,121.672 L160.836,121.672 L179.612,96.648 C186.252,103.584 190.604,112.24 192.172,121.672 Z M166.812,87.032 L159.82,96.352 L145.836,114.992 L143.564,110.896 L143.564,110.888 C143.964,108.744 144.292,106.576 144.492,104.368 C144.716,102.128 144.836,99.888 144.836,97.672 C144.836,95.024 144.668,92.416 144.388,89.84 C144.348,89.464 144.268,89.096 144.22,88.72 C143.932,86.408 143.54,84.128 143.036,81.888 C143.028,81.832 143.02,81.776 143.004,81.712 C151.58,81.336 159.508,83.24 166.812,87.032 Z M142.38,177.608 L149.172,147.032 L169.54,170.792 C161.412,175.68 152.012,178.104 142.38,177.608 Z M181.684,160.368 L162.236,137.672 L192.164,137.672 C190.748,146.016 187.132,153.848 181.684,160.368 Z" id="Shape"></path>
            <rect id="Rectangle-path" x="296.836" y="153.672" width="16" height="16"></rect>
            <rect id="Rectangle-path" x="328.836" y="169.672" width="16" height="16"></rect>
            <rect id="Rectangle-path" x="360.836" y="225.672" width="16" height="16"></rect>
            <rect id="Rectangle-path" x="296.836" y="217.672" width="16" height="16"></rect>
            <rect id="Rectangle-path" x="288.836" y="185.672" width="16" height="16"></rect>
            <rect id="Rectangle-path" x="400.836" y="193.672" width="16" height="16"></rect>
            <rect id="Rectangle-path" x="360.836" y="161.672" width="16" height="16"></rect>
            <rect id="Rectangle-path" x="328.836" y="201.672" width="16" height="16"></rect>
            <rect id="Rectangle-path" x="360.836" y="193.672" width="16" height="16"></rect>
            <path d="M480.836,9.672 C459.988,9.672 440.132,15.096 422.26,24.424 C420.7,20.872 418.58,17.472 415.692,14.584 C404.82,3.72 384.78,9.336 382.524,10.008 C379.956,10.784 377.94,12.792 377.164,15.36 C376.492,17.608 370.868,37.648 381.748,48.528 C383.004,49.776 384.364,50.848 385.748,51.848 C380.508,57.352 375.756,63.36 371.372,69.672 C370.268,68.072 369.1,66.504 367.692,65.096 C357.148,54.56 337.46,58.168 335.244,58.624 C332.284,59.224 329.916,61.44 329.108,64.352 C328.028,68.296 323.188,88.48 333.748,99.04 C339.052,104.328 345.716,107.296 352.316,107.88 C347.548,122.352 344.836,137.736 344.836,153.672 L360.836,153.672 C360.836,142.176 362.548,130.96 365.508,120.184 C369.924,122.68 375.164,124.176 380.836,124.176 C396.132,124.176 406.668,106.144 407.82,104.08 C409.172,101.656 409.172,98.696 407.82,96.264 C406.812,94.464 398.636,80.464 386.38,76.968 C391.292,70.224 396.78,63.984 402.78,58.328 C406.86,67.288 416.972,73.672 428.836,73.672 C444.132,73.672 454.668,55.64 455.82,53.576 C457.172,51.152 457.172,48.192 455.82,45.76 C455.132,44.528 451.028,37.6 444.604,32.216 C456.148,28.024 468.332,25.672 480.836,25.672 L480.836,9.672 Z M360.82,87.216 C360.18,88.472 359.644,89.784 359.036,91.064 C358.58,91.184 358.116,91.288 357.684,91.488 C354.66,92.856 349.364,92.016 345.068,87.72 C342.916,85.568 342.788,79.256 343.548,73.712 C348.468,73.488 354.052,74.08 356.38,76.408 C359.396,79.424 361.092,83.408 360.804,86.808 C360.796,86.944 360.828,87.08 360.82,87.216 Z M391.252,100.176 C388.14,104.248 383.916,108.176 380.836,108.176 C376.724,108.176 372.964,106.624 370.78,104.512 C372.436,100.536 374.292,96.664 376.308,92.88 C377.748,92.448 379.26,92.176 380.836,92.176 C383.924,92.176 388.14,96.104 391.252,100.176 Z M398.084,40.496 C396.38,39.792 394.66,38.816 393.068,37.216 C390.908,35.056 390.78,29.36 391.54,24.384 C396.236,23.688 402.116,23.632 404.38,25.896 C406.38,27.896 407.724,30.32 408.372,32.72 C404.828,35.144 401.404,37.744 398.084,40.496 Z M428.836,57.672 C422.444,57.672 416.836,53.936 416.82,50.128 C416.844,49.984 416.948,49.328 416.964,49.184 C417.06,48.384 417.004,47.592 416.86,46.816 C418.604,45.592 420.38,44.424 422.172,43.288 C424.204,42.304 426.444,41.672 428.836,41.672 C431.924,41.672 436.14,45.6 439.252,49.672 C436.14,53.744 431.916,57.672 428.836,57.672 Z" id="Shape"></path>
            <path d="M183.14,323.856 C184.26,320.6 184.836,317.168 184.836,313.672 C184.836,296.024 170.484,281.672 152.836,281.672 C143.084,281.672 134.004,286.208 128.036,293.576 C121.332,289.92 113.316,288.752 105.804,290.464 C98.732,284.76 90.028,281.672 80.836,281.672 C58.78,281.672 40.836,299.616 40.836,321.672 C23.188,321.672 8.836,336.024 8.836,353.672 C8.836,359.088 10.18,364.28 12.708,368.896 C5.356,374.864 0.836,383.928 0.836,393.672 C0.836,411.32 15.188,425.672 32.836,425.672 C44.404,425.672 54.572,419.496 60.188,410.264 L73.14,436.168 L80.948,482.984 C81.588,486.84 84.924,489.672 88.836,489.672 L152.836,489.672 C157.26,489.672 160.836,486.088 160.836,481.672 L160.836,434.336 L168.724,386.992 C168.796,386.552 168.836,386.112 168.836,385.672 C190.892,385.672 208.836,371.32 208.836,353.672 C208.836,340.104 198.236,328.456 183.14,323.856 Z M168.836,369.672 C166.948,369.672 164.98,369.44 162.46,368.92 C160.108,368.432 157.652,369.032 155.788,370.552 C153.924,372.072 152.836,374.344 152.836,376.752 L152.836,385.016 L144.948,432.36 C144.876,432.792 144.836,433.232 144.836,433.672 L144.836,473.672 L95.612,473.672 L88.732,432.352 C88.596,431.568 88.356,430.808 87.996,430.088 L63.996,382.088 C62.636,379.384 59.868,377.672 56.836,377.672 L55.236,377.672 C52.62,377.672 50.164,378.952 48.676,381.096 C47.172,383.248 46.828,385.992 47.732,388.44 C48.484,390.488 48.836,392.152 48.836,393.672 C48.836,402.496 41.66,409.672 32.836,409.672 C24.012,409.672 16.836,402.496 16.836,393.672 C16.836,387.048 21.052,381.04 27.332,378.728 C29.94,377.76 31.86,375.52 32.412,372.784 C32.956,370.056 32.044,367.24 30.004,365.352 C26.668,362.264 24.836,358.112 24.836,353.672 C24.836,344.848 32.012,337.672 40.836,337.672 C42.436,337.672 44.124,338.008 46.124,338.728 C48.572,339.608 51.292,339.24 53.436,337.744 C55.572,336.248 56.836,333.808 56.836,331.2 L56.836,321.672 C56.836,308.44 67.604,297.672 80.836,297.672 C87.356,297.672 93.476,300.28 98.052,305.016 C100.316,307.368 103.796,308.104 106.82,306.864 C113.036,304.32 120.012,305.976 124.524,310.84 C126.42,312.88 129.244,313.792 131.964,313.24 C134.692,312.696 136.94,310.768 137.9,308.16 C140.212,301.888 146.212,297.672 152.836,297.672 C161.66,297.672 168.836,304.848 168.836,313.672 C168.836,317.6 167.332,321.408 164.596,324.4 C162.492,326.704 161.924,330.008 163.116,332.88 C164.316,335.752 167.076,337.672 170.188,337.792 C182.668,338.28 192.836,345.408 192.836,353.672 C192.836,362.344 181.844,369.672 168.836,369.672 Z" id="Shape"></path>
            <path d="M426.844,321.672 L418.46,321.672 C390.604,321.672 367.508,342.576 364.732,370.296 L361.276,404.88 L345.076,414.6 L342.492,412.016 C340.996,410.512 338.964,409.672 336.836,409.672 L332.836,409.672 C317.396,409.672 304.836,422.232 304.836,437.672 C304.836,451.84 315.412,463.584 329.084,465.424 C330.924,479.096 342.668,489.672 356.836,489.672 C372.276,489.672 384.836,477.112 384.836,461.672 L384.836,457.672 C384.836,455.552 383.996,453.512 382.492,452.016 L379.908,449.432 L389.604,433.272 L431.732,429.44 C459.724,426.896 480.836,403.776 480.836,375.672 C480.836,345.896 456.62,321.672 426.844,321.672 Z M364.18,456.328 L368.836,460.984 L368.836,461.672 C368.836,468.288 363.452,473.672 356.836,473.672 C350.22,473.672 344.836,468.288 344.836,461.672 L344.836,457.672 C344.836,453.256 341.26,449.672 336.836,449.672 L332.836,449.672 C326.22,449.672 320.836,444.288 320.836,437.672 C320.836,431.056 326.22,425.672 332.836,425.672 L333.524,425.672 L338.18,430.328 C340.772,432.928 344.796,433.416 347.956,431.528 L367.596,419.744 L371.18,423.328 L374.764,426.912 L362.98,446.552 C361.092,449.704 361.588,453.728 364.18,456.328 Z M430.284,413.504 L387.844,417.36 L377.172,406.688 L380.66,371.88 C382.612,352.376 398.86,337.672 418.46,337.672 L426.844,337.672 C447.788,337.672 464.836,354.72 464.836,375.672 C464.836,395.448 449.988,411.712 430.284,413.504 Z" id="Shape"></path>
            <path d="M93.364,74.36 C87.708,81.136 78.396,83.528 70.724,80.168 C64.236,77.32 59.828,70.632 59.492,63.136 L43.508,63.848 C44.108,77.384 52.268,89.536 64.292,94.816 C68.668,96.736 73.316,97.656 77.948,97.656 C88.3,97.656 98.596,93.048 105.644,84.616 L93.364,74.36 Z" id="Shape"></path>
            <path d="M404.084,358.984 C396.06,364.904 393.012,374.344 392.836,381.216 L408.836,381.632 C408.852,380.976 409.124,375.152 413.588,371.864 C417.692,368.84 423.644,368.952 428.428,372.104 L437.244,358.752 C426.884,351.904 413.548,352 404.084,358.984 Z" id="Shape"></path>
            <path d="M109.5,369.088 C99.94,359.648 85.788,353.672 72.836,353.672 L72.836,369.672 C86.804,369.672 104.836,381.312 104.836,393.672 L104.836,425.672 L120.836,425.672 L120.836,393.672 C120.836,384.048 123.172,361.672 144.836,361.672 L144.836,345.672 C128.06,345.672 115.756,354.328 109.5,369.088 Z" id="Shape"></path>
        </g>
    </g>
</svg>