<?xml version="1.0" encoding="utf-8"?>
<!-- Generator: Adobe Illustrator 22.0.1, SVG Export Plug-In . SVG Version: 6.00 Build 0)  -->
<svg version="1.1" xmlns="http://www.w3.org/2000/svg" xmlns:xlink="http://www.w3.org/1999/xlink" x="0px" y="0px"
	 viewBox="0 0 1200 800" style="enable-background:new 0 0 1200 800;" xml:space="preserve">
<style type="text/css">
	.st0{fill:#D7E1F2;}
	.st1{opacity:0.31;}
	.st2{fill:#E6E6E6;}
	.st3{fill:url(#SVGID_1_);}
	.st4{fill:#FFFFFF;}
	.st5{fill:url(#SVGID_2_);}
	.st6{fill:#9564FF;}
	.st7{fill:#8258DF;}
	.st8{fill:#FFEFAF;}
	.st9{fill:#DFD199;}
	.st10{opacity:0.1;}
	.st11{fill:#FD7D9E;}
	.st12{fill:#603813;}
	.st13{fill:#6E4016;}
	.st14{fill:#E9E5E4;}
	.st15{fill:#4C8EB0;}
	.st16{fill:#E4DACE;}
	.st17{fill:#CCCCCC;}
	.st18{fill:#4D4D4D;}
	.st19{fill:#FF1C1C;}
	.st20{fill:#F88C93;}
	.st21{fill:#2494D5;}
	.st22{fill:#FAB371;}
	.st23{fill:#DD1B78;}
	.st24{fill:#82BBB5;}
	.st25{fill:#706FAB;}
	.st26{fill:#376191;}
	.st27{clip-path:url(#SVGID_4_);}
	.st28{fill:#949494;}
	.st29{fill:#5E5E5E;}
	.st30{fill:url(#SVGID_5_);}
	.st31{fill:url(#SVGID_6_);}
	.st32{fill:url(#SVGID_7_);}
	.st33{fill:#333333;}
	.st34{fill:#B3B3B3;}
	.st35{opacity:0.3;}
</style>
<g id="BG">
	<rect class="st0" width="1200" height="800"/>
	<rect class="st0" width="1200" height="800"/>
</g>
<g id="object">
	<g>
		<path class="st1" d="M1019.9,335.4c-1.7,2.4-3.2,4.9-4.5,7.8c-0.6,1.4-1.1,2.8-1.5,4.3c-0.3,1-0.5,2.1-0.7,3.2
			c-30.5-8.1-56.8-4.6-69.4,12.2c-1.2,1.5-2.2,3.2-3,4.9c0,0-0.1,0.1-0.1,0.1c-0.1,0.2-0.2,0.3-0.4,0.5c-8.2-0.2-16.2,0.2-24,1.3
			l6.8-26.1l-69.5,19l5.1-20.3c68.4,12.5,135.7-30.3,152.8-98.7c17.8-71.3-25.6-143.5-96.9-161.2c-71.3-17.8-143.5,25.6-161.2,96.9
			c-5,19.9-5.2,39.9-1.3,58.7c-26.3-20.2-59.3-32.3-95.1-32.3c-73.8,0-135.7,51.2-152.1,120l-32-94l0,0l-9.5-27.8c0,0,0,0,0-0.1
			l-1.5-4.5c-0.1,0.2-0.1,0.3-0.2,0.5c-6.2-12.8-22.8-34-36.4-38.6c-3-1-5.9-1.2-8.5-0.3l-26.5,9l-4.1-82.6l0-0.4l-0.1-0.4
			c0-0.1-0.6-5.4,1.9-8c2.5-2.5,8-2.2,11.1-1.8c24.1,3.3,60.1,20.5,60.4,20.6l6.9-14.4C465,82.3,428,64.6,401.4,61
			c-10.8-1.5-19.1,0.7-24.7,6.5c-7.6,7.8-6.6,18.7-6.3,21.3l3.2,86.9L259,214.6c-2.3,0.8-4.3,2.4-5.9,4.7
			c-8.1,11.5-7.9,38.9-5.1,53.1c-0.2-0.1-0.3-0.1-0.5-0.2l1.7,5c0,0,0,0.1,0,0.1l9.3,27.2l0,0l5.4,16l27.4,80.5l-68.2-92.3
			c-2.7-3.6-7.8-4.4-11.5-1.7L24.6,445.3c-3.6,2.7-4.4,7.8-1.7,11.5l114.6,155.1c-3.3,3.4-6.2,7.2-7.1,11.8
			c-1.1,5.6,1.1,11.3,3.4,16.5c9,20.7,20.7,40.3,34.6,58.1c1.4,9.7,1.8,1.1,0.1,10.9c-0.6,3.2,4.6,5.1,7.8,5.7c4.7,0.8,9-2.5,12.2-6
			c2-2.2,3.8-4.5,5.6-6.9l16.2,21.9c-4.5,23.7-6.8,48.2-6.8,73.2c0,4.3-0.1-1.4,0,2.9h799.1c0.1-4.3,0,1.4,0-2.9
			c0-32.5-3.9-64.1-11.4-94.4l73.7-63.7l7.1-6.1l-0.8-0.6c14.2-3.7,26.9-12.1,37.6-26.4c17.8-23.7,22.8-53.8,16.9-84.8
			c5.7-2.7,10.6-6.4,14.2-11.3c2.8-3.7,4.8-7.9,6-12.5c2.5-9.5,1.7-20.6-2.1-32.5c-0.5-1.6-1.1-3.2-1.7-4.9c11-0.3,19.8-3.7,25-10.6
			c3.8-5.1,6.7-13.9,8.9-24.4l0-0.1c5.1-24.2,7-57.1,9.7-73.2c0.4-2.1,0.7-4,1.1-5.4c0.4-1.5,0.8-2.6,1.2-3.3
			C1193.6,333.8,1050.4,277.9,1019.9,335.4z M864.1,390.7c-6.8,5.2-12.9,11.3-18.1,18.2c-2.4,3.2-4.5,6.4-6.3,9.6l10.4-41.7
			L864.1,390.7z M843.9,338.8l-4.8,19.3l-28-22.4c-0.8-4.7-1.8-9.4-3-13.9C818.8,329,830.8,334.8,843.9,338.8z M810.9,389.4
			l22.5-8.8l-19.8,79.6c-8.1-5-16.4-9.7-24.8-14.1C799.6,429.1,807.3,409.9,810.9,389.4z M657,312.7c19.1,0,35.6,10.8,43.8,26.6
			c1.3,2.5,2.4,5.1,3.2,7.8c1.5,4.7,2.3,9.7,2.3,14.9c0,20.4-12.3,37.8-29.9,45.4c-16-3-32.4-5-49.1-6c-11.9-9-19.7-23.3-19.7-39.4
			C607.6,334.8,629.7,312.7,657,312.7z"/>
		<g>
			<g>
				<g>
					
						<rect x="812.1" y="306.7" transform="matrix(0.9614 0.2751 -0.2751 0.9614 148.6819 -209.1171)" class="st2" width="15.3" height="237.4"/>
					
						<radialGradient id="SVGID_1_" cx="716.0825" cy="507.9221" r="133.0552" gradientTransform="matrix(0.7441 0.668 -0.668 0.7441 689.5327 -655.7676)" gradientUnits="userSpaceOnUse">
						<stop  offset="0" style="stop-color:#F5525D"/>
						<stop  offset="1" style="stop-color:#D64851"/>
					</radialGradient>
					<circle class="st3" cx="883.1" cy="200.5" r="133"/>
				</g>
				<path class="st4" d="M927.5,313.1c-27.1,12.3-70.8,18.9-125.9-18.6c-2.8-1.9-3.6-5.8-1.6-8.6c1.9-2.8,5.8-3.5,8.6-1.6
					c45.2,30.7,90.4,34.3,127.2,10.2c40.4-26.5,58.2-76.2,52.1-109.1c-10.1-43.4-38.4-74.7-77.6-86c-32-8.9-65.6-2.9-92.1,16.5
					c-24.7,18.1-39.3,45.5-40.3,75c-0.8,28,13.2,55.7,37.6,74.2c24.9,19,55.5,24.8,83.9,16c41.5-13.3,67-52.5,60.5-93.1
					c-6.5-37.8-43.7-66-84.5-64.2c-25.1,1.7-48.3,16.4-60.7,38.3c-10.9,19.2-11.6,41-2,59.8c10.2,19.5,29.4,32.9,51.5,35.7
					c20.4,2.6,39.7-4.5,53.1-19.4l0.1-0.1c16.5-17.8,19.2-43.9,6.8-64.9c-9.5-14.7-28.3-23.6-48-22.6c-13.8,1.3-26.1,7.8-33.7,18
					c-6.9,9.2-9.6,20.6-7.4,32.2c2.2,10.5,9.4,19.4,19.5,24.4c11.2,5.5,24,5.5,35.2,0c7.8-4,12.9-11.7,13.5-20.5
					c0.6-8.6-3.2-16.7-10.2-21.8c-9.4-4.2-21.2-5.5-27.4,0.8c-2.6,4.6-3.6,10.3-2.2,13.1c0.3,0.5,0.8,1.6,3.5,1.8
					c9.2,0.6,13.4,0.1,15.5-4.8c1.3-3.2,4.9-4.7,8.1-3.4c3.2,1.3,4.7,4.9,3.4,8.1c-5.7,13.9-20,12.9-27.7,12.4
					c-6.2-0.4-11-3.4-13.6-8.4c-4-7.8-1.5-18.5,2.9-25.7l0.3-0.5l0.4-0.4c9.1-10.2,25.9-11.7,42.6-3.9l0.5,0.2l0.4,0.3
					c10.8,7.6,16.7,19.9,15.8,33.1c-0.9,13.2-8.5,24.6-20.2,30.6l-0.1,0c-14.6,7.2-31.4,7.2-46.1,0.1c-13.7-6.7-23.2-18.7-26.2-33
					l0-0.1c-2.8-15,0.6-29.9,9.7-41.9c9.8-13,25.3-21.3,42.6-22.9l0.2,0c24.1-1.2,47.4,9.9,59.2,28.4l0.1,0.2
					c15.3,25.8,12,57.8-8.2,79.7c-16.1,17.9-39.3,26.5-63.8,23.4c-26.1-3.3-48.9-19.1-61-42.3C790.2,205,791,179,804,156.1
					c14.4-25.5,41.5-42.6,70.7-44.6l0.1,0c47-2.1,89.8,30.6,97.3,74.5c6.8,42.9-16.9,84.1-57.4,102.5c-3.7,1.7-7.6,3.2-11.6,4.5
					c-32.3,10-66.9,3.4-95.1-18c-27.5-20.9-43.3-52.4-42.4-84.4c1-33.4,17.6-64.2,45.3-84.6c29.5-21.7,67-28.4,102.7-18.5
					c43.8,12.6,75.2,47.3,86.3,95.2l0.1,0.3c7.9,42.1-17.4,95.6-57.5,121.9C938.3,307.6,933.3,310.5,927.5,313.1z"/>
			</g>
			
				<radialGradient id="SVGID_2_" cx="852.3865" cy="361.7318" r="63.1171" gradientTransform="matrix(0.9966 8.180000e-02 -8.180000e-02 0.9966 24.5072 -69.6642)" gradientUnits="userSpaceOnUse">
				<stop  offset="0" style="stop-color:#F5525D"/>
				<stop  offset="1" style="stop-color:#D64851"/>
			</radialGradient>
			<polygon class="st5" points="919.2,334.1 842.4,352.3 785.5,303.4 769.5,388.5 843.1,362.7 894.4,417 			"/>
		</g>
		<g>
			<g>
				<g>
					<path class="st6" d="M1068.9,621.9l-7.1,6.1l-92.9,80.3l-1.5-0.3c-5.4-0.4-10.8-1.8-16.6-3.9c-0.2,0-0.3-0.1-0.5-0.2l0,0
						c-9.7-3.6-20.4-9.4-33.2-17.2c-0.5-0.3-1-0.6-1.5-0.9l0,0c-9.1-5.5-19.3-12-30.9-19.4c-1.4-0.9-2.8-1.8-4.2-2.7
						c-6.2-3.9-12.9-8.1-20-12.5c-8.2-5.1-16.7-11.2-25-18c-1.3-1.1-2.6-2.1-3.8-3.2c-10.5-8.9-20.6-18.9-29.9-29.5
						c-0.1-0.1-0.2-0.2-0.2-0.3c-5.5-6.3-10.7-12.9-15.3-19.6c-0.7-1-1.4-2-2-2.9c-3-4.4-5.7-8.9-8.2-13.4l-2.6-5.2l48.5-106.1
						l5.6-12.3L1068.9,621.9z"/>
					<g>
						<path class="st7" d="M787.9,581.6l-1.7-0.8c-0.7-1-1.4-2-2-2.9l59.9-122.5l4.5,2.2L787.9,581.6z"/>
						<g>
							
								<rect x="771.4" y="541.6" transform="matrix(0.5244 -0.8515 0.8515 0.5244 -64.2767 973.185)" class="st7" width="135.3" height="5"/>
							<polygon class="st7" points="831.6,630.1 909.7,524.4 913.7,527.4 835.4,633.3 							"/>
							<path class="st7" d="M884.7,666.5c-1.4-0.9-2.8-1.8-4.2-2.7L955.8,559l4.1,2.9L884.7,666.5z"/>
							<polygon class="st7" points="917.1,686.8 1001.1,593.2 997.3,589.8 913.2,683.7 915.6,685.9 915.6,685.9 							"/>
							<polygon class="st7" points="950.8,704.2 1053,614.6 1049.7,610.9 947.4,700.6 950.3,704 950.4,704 							"/>
						</g>
					</g>
				</g>
				<g>
					<path class="st8" d="M1105.7,594.9c-40.7,54.2-109.9,24-182.4-30.4C850.7,510.2,802.3,452.2,843,398
						c40.7-54.2,132.4-54.1,205,0.3S1146.3,540.7,1105.7,594.9z"/>
					<g>
						<path class="st9" d="M914.8,421.4c-1.8,2.4-5.3,2.9-7.7,1.1c-2.4-1.8-2.9-5.3-1.1-7.7c1.8-2.4,5.3-2.9,7.7-1.1
							C916.1,415.6,916.6,419,914.8,421.4z"/>
						<path class="st9" d="M949.9,510.2c-1.8,2.4-5.3,2.9-7.7,1.1c-2.4-1.8-2.9-5.3-1.1-7.7c1.8-2.4,5.3-2.9,7.7-1.1
							C951.2,504.4,951.7,507.8,949.9,510.2z"/>
						<path class="st9" d="M1070.7,545.2c-1.8,2.4-5.3,2.9-7.7,1.1c-2.4-1.8-2.9-5.3-1.1-7.7c1.8-2.4,5.3-2.9,7.7-1.1
							C1072,539.3,1072.5,542.8,1070.7,545.2z"/>
						<path class="st9" d="M1072.5,590.8c3-0.7,5.9,1.2,6.5,4.2c0.7,3-1.2,5.9-4.2,6.5c-3,0.7-5.9-1.2-6.5-4.2
							S1069.5,591.5,1072.5,590.8z"/>
						<path class="st9" d="M868.1,467.7c3-0.7,5.9,1.2,6.5,4.2c0.7,3-1.2,5.9-4.2,6.5c-3,0.7-5.9-1.2-6.5-4.2
							C863.2,471.2,865.1,468.3,868.1,467.7z"/>
					</g>
				</g>
				<g class="st10">
					<path d="M1181.8,337c-0.5,0.8-0.9,2-1.3,3.7c-3.1,12.3-4.7,46.6-9.7,73.2l0,0.1c-2.2,10.5-5.1,19.4-8.9,24.4
						c-5.2,6.9-14,10.3-25,10.6c0.6,1.6,1.2,3.3,1.7,4.9c-0.9,0.1-1.8,0.1-2.7,0.1c4.4,11.6,6.1,22.7,4.8,32.3
						c-0.9,6.5-5.8,8.9-9.6,14c-21.4,28.6-80.1,22.3-134.2-18.3c-47-35.3-73.2-82.3-65.2-112.7c1.2-4.6,3.2-8.8,6-12.5
						c12.9-17.2,40.4-20.5,72-11.5c0-1.8,0.2-3.5,0.5-5.2c0.2-1.3,0.5-2.5,0.8-3.8c0.4-1.5,0.9-2.9,1.5-4.3
						c26-59,160.9-9.9,169.1,3.1C1182,335.9,1182.1,336.5,1181.8,337z"/>
				</g>
				<g>
					<path class="st11" d="M1184.9,332c-0.4,0.7-0.9,1.8-1.2,3.3c-0.4,1.5-0.8,3.3-1.1,5.4c-2.7,16.1-4.6,49-9.7,73.2l0,0.1
						c-2.2,10.5-5.1,19.4-8.9,24.4c-5.2,6.9-14,10.3-25,10.6c0.6,1.6,1.2,3.3,1.7,4.9c3.8,11.9,4.6,23,2.1,32.5
						c-1.2,4.6-3.2,8.8-6,12.5c-21.4,28.6-82.6,18.8-136.8-21.7c-44.5-33.4-70.4-77.3-66.2-107.7c0.9-6.5,3.2-12.4,7-17.5
						c12.9-17.2,40-20.5,71.5-11.7c0.2,0.1,0.4,0.1,0.5,0.2c0-1.3,0.1-2.6,0.3-3.9c0.4-3.3,1.3-6.4,2.5-9.3
						C1043,265.1,1190.6,322.7,1184.9,332z"/>
					<g>
						<path class="st12" d="M1055.6,334.6c-0.5-0.3-0.8-0.9-0.8-1.5l-0.8-16.5c-0.1-1.1,0.8-2,1.9-2.1c1.1-0.1,2,0.8,2.1,1.9
							l0.8,16.5c0.1,1.1-0.8,2-1.9,2.1C1056.5,335.1,1056,334.9,1055.6,334.6z"/>
						<path class="st12" d="M1143.3,349.8c-0.8-0.6-1.2-1.7-0.9-2.7c0.4-1.3,1.8-2.1,3.1-1.7l16.6,4.8c1.3,0.4,2.1,1.8,1.7,3.1
							c-0.4,1.3-1.8,2.1-3.1,1.7l-16.6-4.8C1143.8,350.1,1143.6,349.9,1143.3,349.8z"/>
						<path class="st12" d="M1103.6,443.1c-0.4-0.3-0.6-0.6-0.8-1.1l-10.1-25.4c-0.5-1.3,0.1-2.7,1.4-3.2c1.3-0.5,2.7,0.1,3.2,1.4
							l10.1,25.4c0.5,1.3-0.1,2.7-1.4,3.2C1105.2,443.7,1104.2,443.6,1103.6,443.1z"/>
						<path class="st12" d="M1102.5,340.3c-0.7-0.5-1.1-1.3-1-2.2l1.3-16.6c0.1-1.4,1.3-2.4,2.7-2.3c1.4,0.1,2.4,1.3,2.3,2.7
							l-1.3,16.6c-0.1,1.4-1.3,2.4-2.7,2.3C1103.3,340.8,1102.9,340.6,1102.5,340.3z"/>
						<path class="st12" d="M1022.3,395.4c-0.9-0.7-1.2-1.8-0.8-2.9l9.5-24c0.5-1.3,2-1.9,3.2-1.4c1.3,0.5,1.9,2,1.4,3.2l-9.5,24
							c-0.5,1.3-2,1.9-3.2,1.4C1022.6,395.6,1022.4,395.5,1022.3,395.4z"/>
						<path class="st12" d="M1113.4,392.1c-0.6-0.4-0.9-1-1-1.8c-0.1-1.4,0.9-2.6,2.3-2.7l26-2.2c1.4-0.1,2.6,0.9,2.7,2.3
							c0.1,1.4-0.9,2.6-2.3,2.7l-26,2.2C1114.5,392.6,1113.9,392.5,1113.4,392.1z"/>
						<path class="st12" d="M1084.2,400.4c-0.9-0.7-1.3-1.9-0.8-3l6.5-14.9c0.6-1.3,2-1.8,3.3-1.3c1.3,0.5,1.8,2,1.3,3.3l-6.5,14.9
							c-0.6,1.3-2,1.8-3.3,1.3C1084.5,400.6,1084.3,400.5,1084.2,400.4z"/>
						<path class="st12" d="M1130.7,427.3c-0.4-0.3-0.7-0.6-0.8-1.1c-0.5-1.3,0.1-2.7,1.4-3.2l10.5-4.1c1.3-0.5,2.7,0.1,3.2,1.4
							c0.5,1.3-0.1,2.7-1.4,3.2l-10.5,4.1C1132.3,428,1131.4,427.8,1130.7,427.3z"/>
						<path class="st12" d="M980.2,379.4c-0.3-0.2-0.6-0.6-0.8-1l-6.7-14.6c-0.6-1.3,0-2.7,1.2-3.3c1.3-0.6,2.7,0,3.3,1.2l6.7,14.6
							c0.6,1.3,0,2.7-1.2,3.3C981.9,380.1,980.9,380,980.2,379.4z"/>
						<path class="st12" d="M1051.8,462.7c-0.9-0.7-1.3-2-0.7-3.1c0.6-1.2,2.1-1.8,3.3-1.2l19.8,9.6c1.2,0.6,1.8,2.1,1.2,3.3
							c-0.6,1.2-2.1,1.8-3.3,1.2l-19.8-9.6C1052.1,462.9,1052,462.8,1051.8,462.7z"/>
						<path class="st12" d="M1028.6,438.9c-0.9-0.7-1.3-2-0.8-3.1l9.9-20.6c0.6-1.2,2.1-1.8,3.3-1.2c1.2,0.6,1.8,2.1,1.2,3.3
							l-9.9,20.6c-0.6,1.2-2.1,1.8-3.3,1.2C1028.9,439.1,1028.7,439,1028.6,438.9z"/>
					</g>
				</g>
			</g>
			<g>
				<g>
					<path class="st4" d="M949.9,383.5c0.5-17.8,19.6-26.4,35.1-26.6c3.2-0.1,3.2-5.1,0-5c-18.4,0.3-39.6,10.9-40.1,31.6
						C944.8,386.7,949.8,386.7,949.9,383.5L949.9,383.5z"/>
				</g>
			</g>
			<g>
				<g>
					<path class="st4" d="M1027.5,344.6c0.3-8.8,7.7-14.9,14.9-18.7c10.4-5.5,22.5-7.4,34.2-7.5c3.8,0,3.8-5.9,0-5.9
						c-19.2,0.2-54.2,7-55,32C1021.5,348.4,1027.4,348.4,1027.5,344.6L1027.5,344.6z"/>
				</g>
			</g>
		</g>
		<g>
			<g>
				<path class="st12" d="M466,644.3L278.9,782.5c-3.6,2.7-8.8,1.9-11.5-1.7L19.9,445.7c-2.7-3.6-1.9-8.8,1.7-11.5L208.8,296
					c3.6-2.7,8.8-1.9,11.5,1.7l247.5,335.1C470.4,636.4,469.6,641.6,466,644.3z"/>
				<g>
					<g>
						<path class="st13" d="M270.9,426.8l-51,37.7c-6.7,4.9-16.2,3.5-21.2-3.2l-56.7-76.8c-4.9-6.7-3.5-16.2,3.2-21.2l51-37.7
							c6.7-4.9,16.2-3.5,21.2,3.2l56.7,76.8C279.1,412.3,277.6,421.8,270.9,426.8z"/>
						<path class="st14" d="M160.2,390.9c-2.9-3.9-6.8-7.6-8.7-12.1c-2.5-5.7,2.4-9.3,7-11.8c2.2-1.2,0.8-5-1.4-3.7
							c-5.5,3-11.6,7.4-10.2,14.4c1.3,6,6.5,10.8,10.1,15.6C158.5,395.4,161.8,393,160.2,390.9L160.2,390.9z"/>
					</g>
					<g>
						<path class="st13" d="M179.2,494.5l-51,37.7c-6.7,4.9-16.2,3.5-21.2-3.2l-56.7-76.8c-4.9-6.7-3.5-16.2,3.2-21.2l51-37.7
							c6.7-4.9,16.2-3.5,21.2,3.2l56.7,76.8C187.4,480.1,185.9,489.6,179.2,494.5z"/>
						<path class="st14" d="M68.5,458.7c-2.9-3.9-6.8-7.6-8.7-12.1c-2.5-5.7,2.4-9.3,7-11.8c2.2-1.2,0.8-5-1.4-3.7
							c-5.5,3-11.6,7.4-10.2,14.4c1.3,6,6.5,10.8,10.1,15.6C66.8,463.1,70.1,460.7,68.5,458.7L68.5,458.7z"/>
					</g>
				</g>
				<g>
					<g>
						<path class="st13" d="M352.5,537.1l-51,37.7c-6.7,4.9-16.2,3.5-21.2-3.2l-56.7-76.8c-4.9-6.7-3.5-16.2,3.2-21.2l51-37.7
							c6.7-4.9,16.2-3.5,21.2,3.2l56.7,76.8C360.7,522.7,359.2,532.2,352.5,537.1z"/>
						<path class="st14" d="M241.8,501.3c-2.9-3.9-6.8-7.6-8.7-12.1c-2.5-5.7,2.4-9.3,7-11.8c2.2-1.2,0.8-5-1.4-3.7
							c-5.5,3-11.6,7.4-10.2,14.4c1.3,6,6.5,10.8,10.1,15.6C240.1,505.7,243.4,503.3,241.8,501.3L241.8,501.3z"/>
					</g>
					<g>
						<path class="st13" d="M260.8,604.9l-51,37.7c-6.7,4.9-16.2,3.5-21.2-3.2l-56.7-76.8c-4.9-6.7-3.5-16.2,3.2-21.2l51-37.7
							c6.7-4.9,16.2-3.5,21.2,3.2l56.7,76.8C269,590.4,267.5,599.9,260.8,604.9z"/>
						<path class="st14" d="M150.1,569c-2.9-3.9-6.8-7.6-8.7-12.1c-2.5-5.7,2.4-9.3,7-11.8c2.2-1.2,0.8-5-1.4-3.7
							c-5.5,3-11.6,7.4-10.2,14.4c1.3,6,6.5,10.8,10.1,15.6C148.4,573.5,151.7,571.1,150.1,569L150.1,569z"/>
					</g>
				</g>
				<g>
					<g>
						<path class="st13" d="M434.1,647.5l-51,37.7c-6.7,4.9-16.2,3.5-21.2-3.2l-56.7-76.8c-4.9-6.7-3.5-16.2,3.2-21.2l51-37.7
							c6.7-4.9,16.2-3.5,21.2,3.2l56.7,76.8C442.2,633.1,440.8,642.6,434.1,647.5z"/>
						<path class="st14" d="M323.4,611.7c-2.9-3.9-6.8-7.6-8.7-12.1c-2.5-5.7,2.4-9.3,7-11.8c2.2-1.2,0.8-5-1.4-3.7
							c-5.5,3-11.6,7.4-10.2,14.4c1.3,6,6.5,10.8,10.1,15.6C321.7,616.1,324.9,613.7,323.4,611.7L323.4,611.7z"/>
					</g>
					<g>
						<path class="st13" d="M342.4,715.3l-51,37.7c-6.7,4.9-16.2,3.5-21.2-3.2L213.5,673c-4.9-6.7-3.5-16.2,3.2-21.2l51-37.7
							c6.7-4.9,16.2-3.5,21.2,3.2l56.7,76.8C350.5,700.8,349.1,710.3,342.4,715.3z"/>
						<path class="st14" d="M231.7,679.4c-2.9-3.9-6.8-7.6-8.7-12.1c-2.5-5.7,2.4-9.3,7-11.8c2.2-1.2,0.8-5-1.4-3.7
							c-5.5,3-11.6,7.4-10.2,14.4c1.3,6,6.5,10.8,10.1,15.6C230,683.9,233.2,681.5,231.7,679.4L231.7,679.4z"/>
					</g>
				</g>
			</g>
			<g>
				<path class="st15" d="M478.9,646.9L277.7,795.6c-3.3,2.5-8,1.7-10.5-1.6L140.6,622.7c-2.5-3.3-1.7-8,1.6-10.5l201.2-148.6
					c3.3-2.5,8-1.7,10.5,1.6l126.6,171.3C482.9,639.7,482.2,644.5,478.9,646.9z"/>
				<g>
					<path class="st16" d="M165.4,687.3c-13.9-17.8-25.6-37.4-34.6-58.1c-2.3-5.2-4.4-10.9-3.4-16.5c1.2-6.1,5.9-10.8,10.4-15.1
						c54.9-52,115.7-97.7,180.9-136.1c5.1-3,10.3-6,16.1-7.2c9.4-1.9,19.3,1.2,27.3,6.6c8,5.4,14.4,12.7,20.5,20.1
						c7.6,9.1,15,18.3,22.1,27.7c1.6,2.1,3.2,4.4,3.3,7c0.1,6.7-8.9,8.6-15.6,9.2c-22.5,2.3-42.5,15.2-60.1,29.4
						c-17.6,14.3-34,30.3-54,40.9c-9.6,5.1-20,8.8-29.2,14.5c-14.2,8.7-25.3,21.7-33.6,36.1c-10,17.4-16.4,37.1-30,51.9
						c-3.2,3.5-7.5,6.9-12.2,6c-3.2-0.6-8.4-2.4-7.8-5.7C167.2,688.4,166.8,697,165.4,687.3"/>
				</g>
			</g>
		</g>
		<g>
			<g>
				<path class="st17" d="M347.2,563c4.9,14.4,19.7,23,34.7,20.1c46.9-9.1,123.2-34.7,164.8-55.7c13.5-6.8,19.9-22.6,15-37l-10.2-30
					l-214.4,72.9"/>
				<path class="st17" d="M246.3,266.3c-3.9-11.4-5.4-45,3.8-58c11.3,21.5,54.6,26.8,99.9,11.4c45-15.3,76-45.5,72.4-69.5
					c15.1,5.1,34,30.9,38.1,42.6l9.5,27.8l-214.4,72.9"/>
				<path class="st2" d="M422.4,150.3c3.7,23.9-27.3,54.1-72.4,69.5c-45.3,15.4-88.6,10.2-99.9-11.4c1.6-2.3,3.6-3.9,5.9-4.7
					l157.9-53.7C416.5,149,419.4,149.2,422.4,150.3z"/>
				<path class="st18" d="M387.1,172.8c8.1,4.2,8.9,10.3,5.5,15.1c-3.4,4.8-9.9,6.3-17.9,2.1c-8.1-4.2-11.3-17.2-11.3-17.2
					S379.1,168.6,387.1,172.8z"/>
				<path class="st19" d="M244.6,261.2c54.3,23.5,199.2-26.2,214.4-72.9l100.2,294.7c-31.5,25.7-170.2,72.3-214.4,72.9"/>
				<path class="st20" d="M299.4,422.5l214.4-72.9l-38.4-113c-15.2,46.7-160,96.4-214.4,72.9"/>
				<g>
					<path class="st4" d="M345.4,336.6c-1.8,0.6-2.7,3.5-2.5,8.5c0.2,5,0.8,9.3,2,12.8c2.5,7.4,5.7,10.4,9.6,9.1
						c1.1-0.4,1.9-1.2,2.4-2.4c0.5-1.2,0.8-2.4,0.8-3.5c0-1.1,0-2.7-0.1-4.6l8.2-2.1c0.7,5.5,0.4,10-0.9,13.5
						c-1.2,3.5-3.8,5.9-7.6,7.2c-4.5,1.5-8.6,1-12.2-1.6c-3.6-2.6-6.3-6.5-8.1-11.8c-2.1-6.2-2.9-12.6-2.5-19.2
						c0.2-3.3,1-6.2,2.5-8.8c1.5-2.6,3.6-4.3,6.3-5.3c3.4-1.1,6.2-0.9,8.4,0.9c1.1,0.8,2.1,1.7,3,2.7c0.9,1,1.7,2.3,2.5,4
						c1.3,2.7,2.6,5.6,3.8,8.8l-8.4,2c-1.8-5.4-3.5-8.6-5-9.7C346.9,336.5,346.2,336.3,345.4,336.6z"/>
					<path class="st4" d="M388.2,364.8c-4,1.4-8,0.7-12-1.9c-4-2.7-7.2-7.6-9.7-15c-2.5-7.3-3-13.8-1.6-19.4
						c1.4-5.6,4.2-9.1,8.3-10.5c4.1-1.4,8.1-0.7,12,2c3.9,2.7,7.1,7.7,9.6,14.9c2.5,7.3,3,13.7,1.5,19.4
						C395,359.9,392.3,363.4,388.2,364.8z M372.7,331.9c-0.2,3.7,0.5,8,2.2,13c1.7,4.9,3.5,8.4,5.5,10.4c2,2,3.8,2.7,5.5,2.1
						c1.7-0.6,2.7-2.7,2.9-6.5c0.2-3.7-0.5-8-2.2-13c-1.7-4.9-3.5-8.4-5.4-10.4c-1.9-2-3.7-2.7-5.3-2.1
						C374,326,373,328.2,372.7,331.9z"/>
					<path class="st4" d="M409.1,354.8c-3.5-8.5-6.5-16.3-8.9-23.5c-2.4-7.2-4.4-13.8-6-19.8l8.6-2.1c1.8,7.4,3.9,14.4,6.1,21
						c2.2,6.6,4,11.4,5.3,14.4c1.4-0.7,5-2.4,10.7-5l3.7,6.9c-3,1.4-7.3,3.6-12.7,6.4L409.1,354.8z"/>
					<path class="st4" d="M451.5,340.2l-4.4-8.3l-9.3,3.6l1.6,12.6l-9.1,2.2l-4.3-49.5l12-3l22.8,39.9L451.5,340.2z M434.2,307.3
						l2.7,20.9l7-2.6L434.2,307.3z"/>
				</g>
			</g>
			<path class="st21" d="M389,191l-17.6-3.3l-4.1-109.8c-0.3-2.6-1.3-13.5,6.3-21.3c5.6-5.8,13.9-8,24.7-6.5
				c26.6,3.6,63.7,21.3,65.2,22.1l-6.9,14.4c-0.4-0.2-36.3-17.4-60.4-20.6c-3.1-0.4-8.7-0.7-11.1,1.8c-2.6,2.6-1.9,7.9-1.9,8
				l0.1,0.4l0,0.4L389,191z"/>
			<g>
				<path class="st4" d="M276.3,310.4c-0.7,0-1.5-0.2-2.2-0.5c-8.6-4-16.2-40.1-19-58.6l6.9-1.1c4.8,31.8,12.4,51.4,15.2,53.4
					c-0.3-0.2-1.2-0.4-2,0.1l3.6,6C278,310.2,277.2,310.4,276.3,310.4z"/>
				<path class="st4" d="M280.9,342.4c-3-7-5.8-14.5-8.4-22.3l6.6-2.2c2.6,7.6,5.3,15,8.2,21.8L280.9,342.4z"/>
			</g>
		</g>
		<g>
			<g>
				<path class="st22" d="M654,194.7c-86.3,0-156.3,70-156.3,156.3c0,86.3,70,156.3,156.3,156.3c86.3,0,156.3-70,156.3-156.3
					C810.3,264.7,740.3,194.7,654,194.7z M703.3,351c0,27.2-22.1,49.3-49.3,49.3c-27.3,0-49.3-22.1-49.3-49.3
					c0-27.2,22.1-49.3,49.3-49.3c19.1,0,35.6,10.8,43.8,26.6c1.3,2.5,2.4,5.1,3.2,7.8C702.5,340.8,703.3,345.8,703.3,351z"/>
				<g>
					<g>
						<path class="st23" d="M791.2,314.4c4.2-14.1-3.5-30.8-16.9-36.8c-9.8-4.4-21-3.4-31.5-5.4c-11.6-2.2-22.4-8.1-30.7-16.5
							c-8.6-8.7-14.3-19.7-21.6-29.5c-7.3-9.8-17.2-18.7-29.3-20.2c-15.1-1.8-29.1,8.5-38.4,20.5c-4.1,5.4-7.7,11.2-12.7,15.9
							c-4.9,4.7-11.6,8.1-18.3,7.3c-6.8-0.9-12.2-5.9-18.6-8.3c-11.5-4.4-25.9,1.1-31.7,12c-6.6,12.5-1.9,28-4.7,41.8
							c-1.1,5.5-5.1,11.7-10.7,10.9l0,0.4c-6.6-2.9-15-0.7-19.4,5.1c-4.3,5.8-4.1,14.5,0.5,20c3.6,4.3,9.1,6.4,13.9,9.2
							c8.4,4.8,15.3,12,19.7,20.6c1.2,2.4,2.3,5,2.4,7.7c0.3,6.7-4.9,12.2-8.6,17.7c-7.2,10.7-9.9,24.5-6.1,36.8
							c3.8,12.3,14.2,22.6,26.8,25.2c11.3,2.4,23.5-1.1,34.3,3c14.5,5.6,20.7,22.3,31.3,33.8c12.7,13.8,32.7,19.9,51.2,16.8
							c18.5-3.1,35-14.7,45.4-30.3c6.4-9.7,11.6-21.6,22.6-25.5c7.8-2.8,16.7-0.5,24.6-3.1c12.9-4.4,18-20.5,16.5-34.1
							c-1.4-13.6-7.3-26.4-8.5-40c-1-11.2,1.3-22.8,6.6-32.8C783.2,329.2,788.8,322.5,791.2,314.4z M654,400.4
							c-27.3,0-49.3-22.1-49.3-49.3c0-27.2,22.1-49.3,49.3-49.3c19.1,0,35.6,10.8,43.8,26.6c1.3,2.5,2.4,5.1,3.2,7.8
							c1.5,4.7,2.3,9.7,2.3,14.9C703.3,378.3,681.2,400.4,654,400.4z"/>
					</g>
				</g>
				<g>
					<path class="st24" d="M563.1,271.7c-0.9,4.3-3.7,7.7-7.7,9.1c-4.8,1.6-2.8,9.7,2.1,8c6.5-2.2,11.7-7.8,13.2-14.9
						C571.8,268.7,564.2,266.5,563.1,271.7L563.1,271.7z"/>
					<path class="st25" d="M579.6,369.2c4.9,6.3,9.7,12.6,14.6,18.9c1.4,1.8,4.2,1.5,5.6,0c1.7-1.7,1.3-4.2,0-5.9
						c-4.9-6.3-9.7-12.6-14.6-18.9c-1.4-1.8-4.2-1.5-5.6,0C577.9,365,578.2,367.5,579.6,369.2L579.6,369.2z"/>
					<path class="st25" d="M737.5,310c1.5,1.4,2.6,3.5,2.3,5.7c-0.3,2.2,0.5,4.5,2.8,5.1c1.9,0.5,4.5-0.7,4.9-2.9
						c0.8-5.1-0.6-10.3-4.3-13.8C739.3,300.5,733.7,306.4,737.5,310L737.5,310z"/>
					<path class="st24" d="M767.1,403c-5.7,0-11.4,0-17.1,0c-5.1,0-5.1,8.3,0,8.3c5.7,0,11.4,0,17.1,0
						C772.2,411.3,772.2,403,767.1,403L767.1,403z"/>
					<path class="st26" d="M682.9,460.2c-7.6,5.4-14.7,11.5-21.1,18.3c-3.6,3.8,2,9.7,5.6,5.9c6-6.3,12.5-12,19.5-17
						C691.1,464.4,687.1,457.2,682.9,460.2L682.9,460.2z"/>
					<path class="st24" d="M596.8,437.8c-9.6-3.2-18.6-8.3-26.3-15.2c-3.9-3.5-9.5,2.4-5.6,5.9c8.8,7.9,18.8,13.8,29.8,17.4
						C599.6,447.4,601.7,439.4,596.8,437.8L596.8,437.8z"/>
					<path class="st26" d="M664.9,231.2c5.6,9.5,12.3,18.2,19.9,26c3.6,3.8,9.2-2.1,5.6-5.9c-7.1-7.3-13.4-15.5-18.7-24.3
						C669,222.5,662.1,226.7,664.9,231.2L664.9,231.2z"/>
					<path class="st25" d="M613.6,243.6c-0.4,5.4-0.7,10.8-1.1,16.1c-0.4,5.4,7.5,5.3,7.9,0c0.4-5.4,0.7-10.8,1.1-16.1
						C621.9,238.2,614,238.3,613.6,243.6L613.6,243.6z"/>
					<path class="st26" d="M712.3,333.3c-3.8,0.9-7.5,1.9-11.3,2.8c-0.9-2.7-1.9-5.3-3.2-7.8c4.1-1,8.3-2,12.4-3.1
						C715.2,324,717.2,332.1,712.3,333.3z"/>
					<path class="st26" d="M548.3,335.5c-4.8-1-9.7-1.4-14.6-1c-5,0.4-5.1,8.8,0,8.3c4.2-0.3,8.3-0.2,12.5,0.7
						C551.2,344.6,553.3,336.6,548.3,335.5L548.3,335.5z"/>
					<path class="st25" d="M543,412.8c0.3,5.5-0.7,10.9-3,15.9c-2.3,4.8,4.6,9,6.8,4.2c3-6.3,4.4-13.1,4.1-20.1
						C550.6,407.4,542.7,407.4,543,412.8L543,412.8z"/>
					<path class="st25" d="M722.6,430.9c-0.4,5.5,0,10.9,1,16.3c1,5.3,8.6,3,7.6-2.2c-0.8-4.7-1-9.4-0.7-14.1
						C730.9,425.5,723,425.6,722.6,430.9L722.6,430.9z"/>
				</g>
			</g>
			<path class="st4" d="M518.9,326.9c-1,7.5-1.5,15.2-1.5,22.8c0,4.8,7.5,4.8,7.5,0c0-7.6,0.6-15.2,1.6-22.8H518.9z"/>
			<path class="st4" d="M608,224.8c-44.6,0.4-74.2,41.6-84.9,80.9c-1,3.9-1.9,7.8-2.7,11.7h7.7c3.6-18,10.4-35.4,20.9-50.5
				c13.6-19.5,34.5-34.4,58.9-34.7C612.8,232.3,612.8,224.8,608,224.8z"/>
		</g>
	</g>
</g>
<g id="scale">
	<g>
		<defs>
			<rect id="SVGID_3_" width="1200" height="800"/>
		</defs>
		<clipPath id="SVGID_4_">
			<use xlink:href="#SVGID_3_"  style="overflow:visible;"/>
		</clipPath>
		<g class="st27">
			<g>
				<ellipse class="st28" cx="600" cy="786.1" rx="399.5" ry="396.4"/>
				<g>
					<ellipse class="st29" cx="600" cy="786.1" rx="362.8" ry="359.9"/>
					<path class="st2" d="M600,1146.7c-97.1,0-188.3-37.5-257-105.6c-68.6-68.1-106.4-158.6-106.4-255c0-96.3,37.8-186.9,106.4-255
						c68.6-68.1,159.9-105.6,257-105.6c97.1,0,188.3,37.5,257,105.6c68.6,68.1,106.5,158.6,106.5,255c0,96.3-37.8,186.9-106.5,255
						C788.3,1109.2,697.1,1146.7,600,1146.7z M600,426.8c-199.7,0-362.1,161.2-362.1,359.3c0,198.1,162.5,359.3,362.1,359.3
						c199.7,0,362.1-161.2,362.1-359.3C962.1,588,799.7,426.8,600,426.8z"/>
				</g>
				<ellipse class="st4" cx="600" cy="786.1" rx="328.9" ry="326.3"/>
				<linearGradient id="SVGID_5_" gradientUnits="userSpaceOnUse" x1="282.3052" y1="943.7755" x2="917.6945" y2="943.7755">
					<stop  offset="0" style="stop-color:#54C2BA"/>
					<stop  offset="0.5065" style="stop-color:#FECF0E"/>
					<stop  offset="0.558" style="stop-color:#FEC90E"/>
					<stop  offset="0.6291" style="stop-color:#FEB70C"/>
					<stop  offset="0.7116" style="stop-color:#FE9A0A"/>
					<stop  offset="0.8026" style="stop-color:#FE7108"/>
					<stop  offset="0.9007" style="stop-color:#FF3D04"/>
					<stop  offset="1" style="stop-color:#FF0000"/>
				</linearGradient>
				<path class="st30" d="M600,1101.5c-84.8,0-164.6-32.8-224.6-92.3c-60-59.6-93.1-138.8-93.1-223.1h45.6
					c0,148.7,122.1,269.8,272.1,269.8c150,0,272.1-121,272.1-269.8h45.6c0,84.3-33.1,163.5-93.1,223.1
					C764.6,1068.7,684.8,1101.5,600,1101.5z"/>
				<linearGradient id="SVGID_6_" gradientUnits="userSpaceOnUse" x1="282.3052" y1="628.424" x2="917.6945" y2="628.424">
					<stop  offset="0" style="stop-color:#54C2BA"/>
					<stop  offset="0.5065" style="stop-color:#FECF0E"/>
					<stop  offset="0.558" style="stop-color:#FEC90E"/>
					<stop  offset="0.6291" style="stop-color:#FEB70C"/>
					<stop  offset="0.7116" style="stop-color:#FE9A0A"/>
					<stop  offset="0.8026" style="stop-color:#FE7108"/>
					<stop  offset="0.9007" style="stop-color:#FF3D04"/>
					<stop  offset="1" style="stop-color:#FF0000"/>
				</linearGradient>
				<path class="st31" d="M917.7,786.1h-45.6c0-148.7-122.1-269.8-272.1-269.8c-150,0-272.1,121-272.1,269.8h-45.6
					c0-84.3,33.1-163.5,93.1-223.1c60-59.5,139.8-92.3,224.6-92.3s164.6,32.8,224.6,92.3C884.6,622.6,917.7,701.8,917.7,786.1z"/>
				<linearGradient id="SVGID_7_" gradientUnits="userSpaceOnUse" x1="446.3675" y1="786.1" x2="753.6329" y2="786.1">
					<stop  offset="0" style="stop-color:#54C2BA"/>
					<stop  offset="0.5065" style="stop-color:#FECF0E"/>
					<stop  offset="0.558" style="stop-color:#FEC90E"/>
					<stop  offset="0.6291" style="stop-color:#FEB70C"/>
					<stop  offset="0.7116" style="stop-color:#FE9A0A"/>
					<stop  offset="0.8026" style="stop-color:#FE7108"/>
					<stop  offset="0.9007" style="stop-color:#FF3D04"/>
					<stop  offset="1" style="stop-color:#FF0000"/>
				</linearGradient>
				<path class="st32" d="M600,938.5c-84.7,0-153.6-68.4-153.6-152.4S515.3,633.7,600,633.7S753.6,702,753.6,786.1
					S684.7,938.5,600,938.5z M600,640c-81.2,0-147.3,65.5-147.3,146.1c0,80.6,66.1,146.1,147.3,146.1s147.3-65.5,147.3-146.1
					C747.3,705.5,681.2,640,600,640z"/>
				
					<ellipse transform="matrix(0.9239 -0.3827 0.3827 0.9239 -255.1551 289.4483)" class="st33" cx="600" cy="786.1" rx="55.9" ry="55.9"/>
				<path class="st34" d="M600,838.9c-29.1,0-52.8-23.7-52.8-52.8c0-29.1,23.7-52.8,52.8-52.8c29.1,0,52.8,23.7,52.8,52.8
					C652.8,815.2,629.1,838.9,600,838.9z M600,734.6c-28.4,0-51.5,23.1-51.5,51.5c0,28.4,23.1,51.5,51.5,51.5
					c28.4,0,51.5-23.1,51.5-51.5C651.5,757.7,628.4,734.6,600,734.6z"/>
				<g>
					<path class="st35" d="M588.8,790.3l-1.1-6.4c-1-5.6,2.9-11,8.5-11.8l283-41.1c2.5-0.4,4.9,1.3,5.3,3.8l0,0
						c0.4,2.5-1.2,4.9-3.7,5.4l-280,58.2C595.3,799.7,589.8,796,588.8,790.3z"/>
					<path class="st35" d="M589.8,793.3l-1.1-6.4c-1-5.6,2.9-11,8.5-11.8l283-41.1c2.5-0.4,4.9,1.3,5.3,3.8l0,0
						c0.4,2.5-1.2,4.9-3.7,5.4l-280,58.2C596.3,802.7,590.8,799,589.8,793.3z"/>
					<path class="st19" d="M588.8,791.3l-1.1-6.4c-1-5.6,2.9-11,8.5-11.8l283-41.1c2.5-0.4,4.9,1.3,5.3,3.8l0,0
						c0.4,2.5-1.2,4.9-3.7,5.4l-280,58.2C595.3,800.7,589.8,797,588.8,791.3z"/>
				</g>
			</g>
			<g>
				<path d="M427.1,515.3l11.8,18.7c1.4-0.9,2.8-1.8,4.3-2.6l-11.5-18.9C430.1,513.4,428.6,514.4,427.1,515.3z"/>
				<path d="M394.3,539l14,17.1c1.3-1.1,2.6-2.1,3.9-3.1l-13.8-17.3C397.1,536.7,395.7,537.8,394.3,539z"/>
				<path d="M338.8,597.5l17.8,13.1c0-0.1,0.1-0.1,0.1-0.2l15.8,11.5l3.7-5.1l-34.4-25l-3.7,5.1L338.8,597.5
					C338.9,597.4,338.8,597.4,338.8,597.5z"/>
				<path d="M462.5,496l9.4,20.1c1.5-0.7,3-1.4,4.5-2.1l-9-20.2C465.7,494.5,464.1,495.2,462.5,496z"/>
				<path d="M539.2,471.2l4.1,21.8c1.6-0.3,3.3-0.6,4.9-0.9l-3.7-21.8C542.7,470.6,541,470.9,539.2,471.2z"/>
				<path d="M364.7,566.5l16.1,15.2c1.2-1.2,2.3-2.4,3.5-3.6l-15.8-15.5C367.2,563.9,366,565.2,364.7,566.5z"/>
				<path d="M865.6,645.8l19.5-10.5c-0.9-1.6-1.7-3.2-2.6-4.7l-19.3,10.8C864,642.9,864.8,644.4,865.6,645.8z"/>
				<path d="M302.1,743.9l-21.9-3.1c-0.3,1.8-0.5,3.6-0.7,5.3l22,2.8C301.7,747.2,301.9,745.6,302.1,743.9z"/>
				<path d="M309.8,707.1l-21.3-5.9c-0.5,1.7-0.9,3.5-1.4,5.2l21.4,5.5C308.9,710.3,309.3,708.7,309.8,707.1z"/>
				<path d="M322.1,671.6l-20.4-8.6c-0.7,1.7-1.4,3.3-2.1,5l20.6,8.2C320.8,674.7,321.4,673.1,322.1,671.6z"/>
				<path d="M338.8,637.9l-19.2-11.1c-0.9,1.6-1.8,3.1-2.7,4.7l19.4,10.8C337.2,640.8,338,639.3,338.8,637.9z"/>
				<path d="M838.3,569.7c-1.2-1.3-2.4-2.6-3.7-3.9l-16,15.3c1.2,1.2,2.3,2.4,3.4,3.7L838.3,569.7z"/>
				<path d="M899,752.9l22-2.5c-0.2-1.8-0.4-3.6-0.6-5.3l-22,2.8C898.6,749.6,898.8,751.2,899,752.9z"/>
				<path d="M791,555.5c1.3,1.1,2.6,2.1,3.9,3.2l14.3-16.9c-1.4-1.2-2.8-2.3-4.2-3.4L791,555.5z"/>
				<path d="M760.4,533.6c1.4,0.9,2.8,1.8,4.2,2.7l12.1-18.6c-1.5-1-3-1.9-4.6-2.9L760.4,533.6z"/>
				<path d="M923,786l0-0.2v-0.6h-42.5v6.3H923L923,786C923,786.1,923,786.1,923,786z"/>
				<path d="M618.3,488.3c1.7,0.1,3.3,0.2,5,0.3l1.7-22.1c-1.8-0.1-3.6-0.3-5.4-0.4L618.3,488.3z"/>
				<path d="M655.7,492.8c1.6,0.3,3.3,0.6,4.9,1l4.4-21.7c-1.8-0.4-3.5-0.7-5.3-1L655.7,492.8z"/>
				<path d="M579.3,466.2l1.4,22.1c1.7-0.1,3.3-0.2,5-0.3l-1-22.1C582.9,466,581.1,466.1,579.3,466.2z"/>
				<path d="M892.5,715.9l21.5-5.2c-0.4-1.8-0.9-3.5-1.3-5.2l-21.4,5.6C891.7,712.6,892.1,714.2,892.5,715.9z"/>
				<path d="M727.3,515.6c1.5,0.7,3,1.4,4.5,2.2l9.7-19.9c-1.6-0.8-3.3-1.6-4.9-2.3L727.3,515.6z"/>
				<path d="M881.3,680L902,672c-0.6-1.7-1.3-3.3-2-5l-20.5,8.3C880.1,676.9,880.7,678.4,881.3,680z"/>
				<polygon points="319.5,780.6 277,780.6 277,786.1 277,786.4 277,786.9 319.5,786.9 				"/>
				<path d="M499.4,479.2l0.7,2.1c0,0,0,0,0,0l6.8,21.1c0,0,0,0,0,0l5.6,17.4l6-2l-13.1-40.5L499.4,479.2z"/>
				<rect x="674.2" y="496.7" transform="matrix(0.309 -0.9511 0.9511 0.309 5.1591 1006.8226)" width="42.5" height="6.3"/>
				<rect x="824.2" y="607.5" transform="matrix(0.809 -0.5878 0.5878 0.809 -197.4535 613.5824)" width="42.5" height="6.3"/>
			</g>
		</g>
	</g>
</g>
<g id="text">
	<g>
		<path d="M456,627.7l5-4.3c3.5-3,7-4.2,10.7-3.7c3.6,0.6,7.2,2.9,10.7,6.9c2.6,3.1,4.3,5.9,5,8.6c0.7,2.7,0.6,5.1-0.2,7.3
			c-0.9,2.2-2.3,4.2-4.2,5.8l-5.3,4.5L456,627.7z M466,628.5l12.4,14.5c1.5-1.6,2.1-3.2,1.9-4.8c-0.2-1.7-1.4-3.7-3.5-6.2
			c-1.3-1.5-2.4-2.6-3.5-3.4c-1.1-0.8-2.1-1.3-3.1-1.4c-0.9-0.1-1.7-0.1-2.2,0.2C467.4,627.5,466.7,627.9,466,628.5z"/>
		<path d="M480.5,608.1l5.9-4l18.5,27.6l-5.9,4L480.5,608.1z"/>
		<path d="M531.7,617.1l-6.6,3.4l-3.6-4.4l-6.7,3.4l1.4,5.5l-6.4,3.3l-7.7-33.4l7.1-3.6L531.7,617.1z M517.6,611.4
			c-3.2-3.9-6-7.8-8.6-11.5l-0.1,0c1.6,4.4,3,8.9,4.3,13.7L517.6,611.4z"/>
		<path d="M526,583.8l6.8-2.3c4-1.3,7.1-1.5,9.4-0.4c2.3,1.1,3.9,2.9,4.7,5.5c0.9,2.8,0.4,5.4-1.6,8c3.3,0.2,5.5,2.1,6.6,5.5
			c0.9,2.7,0.7,5.2-0.5,7.5c-1.2,2.3-3.3,3.9-6.3,4.9l-8.8,2.9L526,583.8z M534.8,587.6l2.3,6.8c3-1.1,4.1-2.7,3.4-4.8
			c-0.4-1.3-1.1-2-2-2.3C537.6,587,536.4,587.1,534.8,587.6z M538.9,600.2l2.3,6.8c1.7-0.6,2.9-1.3,3.6-2.1c0.7-0.8,0.8-1.8,0.4-3
			c-0.8-2.3-2.6-2.9-5.7-1.9L538.9,600.2z"/>
		<path d="M555.3,575.1l14.1-2.6l1.3,7l-7.1,1.3l1.1,6l6.2-1.2l1.3,6.8l-6.2,1.2l1.1,5.9l7.2-1.3l1.3,7l-14.2,2.6L555.3,575.1z"/>
		<path d="M578.5,571.3l16.9-1.1l0.5,7.6l-4.9,0.3l1.6,25.6l-7.2,0.5l-1.6-25.6l-4.8,0.3L578.5,571.3z"/>
		<path d="M605.5,570.4l14.3,0.8l-0.4,7.1l-7.3-0.4l-0.4,6.1l6.3,0.4l-0.4,6.9l-6.3-0.4l-0.4,6l7.3,0.4l-0.4,7.1l-14.4-0.8
			L605.5,570.4z"/>
		<path d="M625.3,604.7l1.4-7.6c2,1.8,3.7,2.8,5.2,3.1c0.9,0.2,1.6,0,2.2-0.4c0.6-0.4,1-1.1,1.1-1.9c0.1-0.7,0-1.3-0.3-2
			c-0.3-0.6-0.9-1.5-1.7-2.5c-2-2.4-3.4-4.6-4.2-6.5c-0.8-1.9-1-3.9-0.6-5.9c0.5-2.8,1.8-5,3.8-6.4c2-1.5,4.3-1.9,7-1.4
			c2,0.4,3.8,1.2,5.6,2.4l-1.4,7.3c-1.8-1.6-3.4-2.5-4.7-2.8c-0.9-0.2-1.6-0.1-2.2,0.3c-0.6,0.4-0.9,0.9-1.1,1.7
			c-0.3,1.4,0.6,3.1,2.6,5.3c1.2,1.3,2.3,3,3.4,5.1c1.1,2.1,1.4,4.4,0.9,6.8c-0.5,2.8-1.9,5-4.1,6.5c-2.2,1.5-4.7,2-7.6,1.4
			C628.9,606.9,627,606,625.3,604.7z"/>
		<path d="M673.6,583.7l7.6,3.3c3.1,1.3,5.1,3.2,6.2,5.6c1.1,2.4,1,5.1-0.3,8c-0.6,1.5-1.6,2.8-2.9,3.9s-2.7,1.7-4.3,1.9l-0.7,16
			l-6.9-3l0.7-16.2l-0.1,0l-6,13.9l-6.5-2.8L673.6,583.7z M677.6,592.4l-3.1,7.3c2.9,1.2,4.8,0.7,5.7-1.4c0.6-1.4,0.7-2.6,0.3-3.5
			C680.1,593.9,679.1,593.1,677.6,592.4z"/>
		<path d="M701,596.6l6.1,3.5L690.6,629l-6.1-3.5L701,596.6z"/>
		<path d="M698.4,633.1l4.6-6.3c1,2.5,2.1,4.1,3.3,5c0.7,0.5,1.4,0.7,2.2,0.6c0.7-0.1,1.3-0.5,1.9-1.2c0.4-0.5,0.6-1.2,0.6-1.9
			c0-0.7-0.2-1.7-0.5-3c-0.8-3.1-1.1-5.6-1-7.6c0.1-2,0.8-3.9,2-5.6c1.7-2.3,3.8-3.7,6.2-4.2c2.4-0.5,4.8,0.1,6.9,1.7
			c1.6,1.2,2.9,2.7,4,4.6l-4.4,6c-1-2.2-2-3.7-3.1-4.5c-0.7-0.5-1.4-0.7-2.1-0.7c-0.7,0.1-1.3,0.4-1.7,1.1c-0.8,1.1-0.8,3.1,0.1,5.9
			c0.5,1.7,0.8,3.7,0.9,6c0.1,2.4-0.6,4.5-2.1,6.5c-1.7,2.3-3.9,3.7-6.5,4.1c-2.6,0.4-5.1-0.2-7.5-2
			C700.7,636.6,699.4,635,698.4,633.1z"/>
		<path d="M739,623.3l5.1,4.9l-10.8,11.3l0.1,0.1l15.6-6.7l5.4,5.1l-17,7.3l-6.2,16.6l-5.6-5.4l5.2-14.2l-0.1-0.1l-9.5,10l-5.1-4.9
			L739,623.3z"/>
	</g>
	<g>
		<path d="M555.6,677h5.8v19.7h4.6v5.9h-10.4V677z"/>
		<path d="M572.2,677h11.8v5.4H578v4.7h5.2v5.3H578v4.7h6v5.5h-11.8V677z"/>
		<path d="M588.4,677h6.1l3.2,11.3c0.6,2.2,1,4.1,1.2,5.7h0.1c0.2-1.4,0.4-2.5,0.6-3.4l3.5-13.6h6.2l-7.7,25.6h-5.4L588.4,677z"/>
		<path d="M614.7,677h11.8v5.4h-5.9v4.7h5.2v5.3h-5.2v4.7h6v5.5h-11.8V677z"/>
		<path d="M633.3,677h5.8v19.7h4.6v5.9h-10.4V677z"/>
	</g>
</g>
</svg>
