<?xml version="1.0" encoding="UTF-8"?>
<svg width="1205px" height="760px" viewBox="0 0 1205 760" version="1.1" xmlns="http://www.w3.org/2000/svg" xmlns:xlink="http://www.w3.org/1999/xlink">
    <!-- Generator: Sketch 51.2 (57519) - http://www.bohemiancoding.com/sketch -->
    <title>Group 27</title>
    <desc>Created with Sketch.</desc>
    <defs>
        <polygon id="path-1" points="0.225521303 0.333410862 758.997781 0.333410862 758.997781 759.474568 0.225521303 759.474568"></polygon>
        <polygon id="path-3" points="0 0 260 0 260 197 0 197"></polygon>
        <path d="M57.555454,50.3723491 C62.8484185,41.9795338 64.9896828,32.9801644 62.8312196,23.1419437 C59.228048,9.87948874 51.1402605,2.20507432 39.234315,0.759668919 C37.166146,0.755367117 35.0979771,0.751065315 33.0341079,0.755367117 C19.5888599,0.755367117 8.42246757,8.1114482 3.32299074,20.3242635 C-1.41960872,31.6853221 1.47840763,45.1456599 11.4193777,54.2396689 C14.9107564,57.4316059 14.7387673,60.0384977 13.2381624,63.7982725 C9.16632044,74.0193536 5.18477275,84.2877545 1.48700708,94.6464932 C-1.12722725,101.972462 0.721655586,104.441696 8.28487629,104.471809 C23.9014866,104.532034 39.518097,104.532034 55.1347074,104.540637 C65.5314485,104.544939 67.118048,102.110119 63.3901842,92.1256374 C59.9547019,82.9240833 56.5837155,73.6967185 53.1869308,64.482259 C50.3018136,58.4339257 54.0253777,54.43325 57.555454,50.3723491 Z" id="path-5"></path>
        <polygon id="path-7" points="0 0 263 0 263 209 0 209"></polygon>
    </defs>
    <g id="Educationa-Content" stroke="none" stroke-width="1" fill="none" fill-rule="evenodd">
        <g id="Group-27">
            <g id="Group-21">
                <g id="Group-18-Copy">
                    <g id="Group-17">
                        <g id="Group-3" transform="translate(343.569482, 0.000000)">
                            <mask id="mask-2" fill="white">
                                <use xlink:href="#path-1"></use>
                            </mask>
                            <g id="Clip-2"></g>
                            <path d="M758.997781,379.903633 C758.997781,589.535027 589.140184,759.474568 379.609871,759.474568 C170.083119,759.474568 0.225521303,589.535027 0.225521303,379.903633 C0.225521303,170.272239 170.083119,0.332698581 379.609871,0.332698581 C589.140184,0.332698581 758.997781,170.272239 758.997781,379.903633" id="Fill-1" fill="#27BCBD" mask="url(#mask-2)"></path>
                        </g>
                        <path d="M902.691896,588.103671 L655.599455,588.103671 C650.869755,588.103671 647,584.23205 647,579.500068 L647,186.603604 C647,181.871622 650.869755,178 655.599455,178 L902.691896,178 C907.421597,178 911.291351,181.871622 911.291351,186.603604 L911.291351,579.500068 C911.291351,584.23205 907.421597,588.103671 902.691896,588.103671" id="Fill-4-Copy" fill="#0B9C9D"></path>
                        <path d="M449.082731,448.26047 L505.641821,448.26047 C527.500406,444.39657 541.162022,434.460829 546.626669,418.453246 C552.091315,402.445663 566.026163,374.018404 588.431213,333.171468 C602.092829,322.683741 615.481213,314.955942 628.596364,309.988071 C641.711515,305.020201 643.897374,292.600524 635.153939,272.729042 L437.606974,434.184836 L449.082731,448.26047 Z" id="Path-12" fill="#0B9C9D"></path>
                        <path d="M885.22789,570.177252 L638.135449,570.177252 C633.405748,570.177252 629.535993,566.305631 629.535993,561.573649 L629.535993,168.677185 C629.535993,163.945203 633.405748,160.073581 638.135449,160.073581 L885.22789,160.073581 C889.95759,160.073581 893.827345,163.945203 893.827345,168.677185 L893.827345,561.573649 C893.827345,566.305631 889.95759,570.177252 885.22789,570.177252" id="Fill-4" fill="#FDFEFE"></path>
                        <path d="M614.696461,259.259802 C612.969469,257.664116 611.097974,256.250082 609.124268,254.967834 C604.598844,252.214563 600.418819,248.909214 595.498654,246.846932 C575.155392,238.319985 552.926538,247.862045 551.13963,269.61039 C548.295379,304.231078 529.249124,330.164537 512.567791,357.893143 C505.561138,369.536664 496.520863,374.772509 482.870577,376.389566 C468.12418,378.134847 453.398929,377.960319 438.723021,378.818713 C404.232523,295.935648 323.137911,237.732288 228.583335,237.732288 C102.731434,237.732288 0.708497768,340.835687 0.708497768,468.02041 C0.708497768,595.205133 102.731434,698.308531 228.583335,698.308531 C354.435236,698.308531 456.461697,595.205133 456.461697,468.02041 C456.461697,456.594158 455.60525,445.374491 454.015712,434.393464 C470.725241,435.127195 487.508784,434.165509 504.232411,434.674847 C519.024627,435.123633 528.318663,428.787193 534.556982,415.380581 C546.779856,389.122998 560.987009,363.862718 574.024036,338.028989 C581.305599,323.603703 590.462181,313.954789 606.473864,311.689485 C637.03105,297.064738 639.395972,282.080249 614.696461,259.259802" id="Fill-15" fill="#0062A1"></path>
                    </g>
                    <text id="glucose-copy" font-family="PlantagenetCherokee, Plantagenet Cherokee" font-size="64" font-weight="normal" fill="#115885">
                        <tspan x="115" y="394">glucose</tspan>
                    </text>
                    <text id="glucose" font-family="PlantagenetCherokee, Plantagenet Cherokee" font-size="64" font-weight="normal" fill="#FCFCFC">
                        <tspan x="113" y="391">glucose</tspan>
                    </text>
                </g>
                <g id="Group-14-Copy-2" transform="translate(945.000000, 341.000000)">
                    <mask id="mask-4" fill="white">
                        <use xlink:href="#path-3"></use>
                    </mask>
                    <g id="Clip-13"></g>
                </g>
                <g id="Group-11" transform="translate(702.000000, 319.000000)">
                    <g id="Fill-6-Copy" transform="translate(0.000000, 74.000000)">
                        <mask id="mask-6" fill="white">
                            <use xlink:href="#path-5"></use>
                        </mask>
                        <use id="Mask" fill="#0B9C9D" xlink:href="#path-5"></use>
                        <path d="M75.1872557,58.6187638 C80.4802203,50.2259485 82.6214846,41.2265792 80.4630214,31.3883584 C76.8598497,18.1259035 68.7720622,10.4514891 56.8661167,9.00608367 C54.7979478,9.00178186 52.7297788,8.99748006 50.6659096,9.00178186 C37.2206617,9.00178186 26.0542693,16.3578629 20.9547925,28.5706783 C16.212193,39.9317368 19.1102094,53.3920747 29.0511794,62.4860837 C32.5425581,65.6780206 32.370569,68.2849125 30.8699641,72.0446873 C26.7981222,82.2657684 22.8165745,92.5341693 19.1188088,102.892908 C16.5045745,110.218876 18.3534573,112.688111 25.916678,112.718223 C41.5332884,112.778449 57.1498987,112.778449 72.7665091,112.787052 C83.1632502,112.791354 84.7498497,110.356534 81.0219859,100.372052 C77.5865036,91.1704981 74.2155173,81.9431332 70.8187325,72.7286738 C67.9336154,66.6803404 71.6571794,62.6796647 75.1872557,58.6187638 Z" fill="#27BCBD" mask="url(#mask-6)"></path>
                    </g>
                    <path d="M13,95 L13,117 L13,138.995785 C118.012915,138.995785 223.00861,138.995785 328,139 L328,95 C222.987085,95 118.012915,95 13,95" id="Fill-4-Copy-2" fill="#318787"></path>
                    <path d="M451.360537,135.931355 C445.715693,141.534122 438.664748,142.980788 431.09469,140.116062 C427.930962,138.91868 425.392622,137.647739 422.241156,140.782182 C419.22049,143.777681 420.442654,146.094799 421.640293,149.045345 C422.453706,151.043706 422.596769,153.315871 422.756181,154.080071 C422.682606,163.822593 417.769426,171.068184 410.003167,174.051423 C402.171509,177.063268 395.091951,175.408184 389.095582,169.797243 C382.862138,163.957451 381.165824,155.538997 384.885453,147.970562 C386.467317,144.750299 385.731566,143.19738 383.577451,140.647324 C380.618098,137.14917 378.194208,139.184311 375.40653,140.128322 C366.033883,143.299545 357.262098,140.643237 351.801192,133.017589 C346.552837,125.690264 346.793999,116.062168 352.41023,108.890136 C357.871136,101.914261 367.587134,99.1762202 375.749881,102.743847 C378.705146,104.031135 380.597661,105.457368 383.740952,102.359704 C386.990518,99.1557871 385.698866,96.9122282 384.43174,93.7696111 C379.76381,82.216713 386.651255,69.5236457 398.68078,67.1411414 C413.943522,64.1170365 426.373623,77.7908946 421.914155,92.7397808 C420.888192,96.1725485 418.750427,99.0822278 422.703044,102.73976 C426.47581,106.229741 428.597225,103.197462 431.483003,102.339271 C434.246156,101.521945 437.070622,100.93347 440.013625,101.383 C448.266296,102.653941 453.686327,107.398516 456.371817,115.134504 C459.110445,123.033956 457.123918,130.210075 451.360537,135.931355 M467.649242,72.1023081 C464.665364,71.4116679 461.415798,70.9212725 458.43192,71.3503685 C453.641364,72.036922 452.116725,71.1542103 452.116725,65.7435145 C452.128988,45.7762489 436.939821,29.1804516 414.434022,23.3651796 C394.368463,18.1833349 365.032444,27.5580601 354.711495,54.8322171 C353.109194,59.0700506 352.925256,63.528562 353.309481,67.9707269 C353.571082,70.9784853 352.500156,71.7345115 349.569415,71.4729673 C332.553134,69.9527416 320.703459,78.4651883 311.935762,91.9101952 C309.511872,95.6331136 307.083894,96.6915503 302.918727,96.6874636 C282.943093,96.650684 262.971547,96.6874636 243,96.6711171 L243,139.327343 C246.220953,139.331429 249.445994,139.339603 252.666948,139.339603 L252.666948,139.310996 C268.661353,139.310996 284.663932,139.519414 300.650162,139.184311 C305.68188,139.078058 308.522696,140.271354 310.631848,145.179394 C315.986479,157.635437 324.856363,166.585153 338.668041,169.294588 C343.315533,170.205906 349.655252,168.501782 352.451105,171.043665 C354.940396,173.307657 352.937518,179.948428 354.069757,184.361986 C362.109878,215.812677 404.227524,229.470189 432.480354,209.944279 C445.167968,201.178461 452.574526,189.515224 452.243438,173.659107 C452.198475,171.468674 451.569,169.719597 455.386729,169.768637 C480.475831,170.083307 498.289175,154.251709 502.372592,128.481431 C506.394696,103.107557 490.641454,77.4312713 467.649242,72.1023081" id="Fill-12" fill="#318787"></path>
                    <path d="M13,85 L13,107 L13,128.995785 C118.012915,128.995785 223.00861,128.995785 328,129 L328,85 C222.987085,85 118.012915,85 13,85" id="Fill-4" fill="#CB0001"></path>
                    <g id="Group-8" transform="translate(243.000000, 0.000000)">
                        <mask id="mask-8" fill="white">
                            <use xlink:href="#path-7"></use>
                        </mask>
                        <g id="Clip-7"></g>
                        <path d="M208.749184,125.330318 C203.08173,130.942565 196.002543,132.391679 188.402164,129.522105 C185.225763,128.322697 182.677256,127.049606 179.513167,130.189353 C176.480402,133.18992 177.707461,135.510958 178.909897,138.466496 C179.726569,140.468238 179.870204,142.744248 180.030256,143.50974 C179.956386,153.268746 175.023526,160.526597 167.226161,163.514883 C159.363133,166.531824 152.255219,164.873939 146.234832,159.253505 C139.97642,153.403833 138.273311,144.971135 142.007839,137.389894 C143.596039,134.164183 142.857341,132.608637 140.694598,130.054266 C137.723392,126.550194 135.289793,128.588778 132.490949,129.534386 C123.08076,132.710975 114.273841,130.050172 108.791062,122.411622 C103.521684,115.0719 103.763813,105.427514 109.402539,98.2433466 C114.885318,91.2556695 124.640233,88.512996 132.835675,92.0866586 C135.802777,93.3761245 137.702872,94.8047709 140.858753,91.7018656 C144.121335,88.4925282 142.82451,86.2451734 141.552309,83.0972391 C136.865682,71.5247943 143.780714,58.8102511 155.858422,56.4237158 C171.182298,53.3944942 183.662186,67.0914877 179.184857,82.0656664 C178.154784,85.5042422 176.008457,88.4188445 179.976905,92.0825651 C183.764783,95.5784504 185.894695,92.5410418 188.792032,91.6813979 C191.566253,90.8585958 194.402031,90.2732193 197.356823,90.7235089 C205.642549,91.9966007 211.08429,96.7492036 213.780537,104.49828 C216.530134,112.411097 214.53565,119.599358 208.749184,125.330318 M224.649242,61.1023081 C221.665364,60.4116679 218.415798,59.9212725 215.43192,60.3503685 C210.641364,61.036922 209.116725,60.1542103 209.116725,54.7435145 C209.128988,34.7762489 193.939821,18.1804516 171.434022,12.3651796 C151.368463,7.18333494 122.032444,16.5580601 111.711495,43.8322171 C110.109194,48.0700506 109.925256,52.528562 110.309481,56.9707269 C110.571082,59.9784853 109.500156,60.7345115 106.569415,60.4729673 C89.553134,58.9527416 77.7034587,67.4651883 68.9357618,80.9101952 C66.5118717,84.6331136 64.0838941,85.6915503 59.9187271,85.6874636 C39.943093,85.650684 19.9715465,85.6874636 0,85.6711171 L0,128.327343 C3.22095347,128.331429 6.44599445,128.339603 9.66694792,128.339603 L9.66694792,128.310996 C25.6613527,128.310996 41.6639324,128.519414 57.6501621,128.184311 C62.68188,128.078058 65.5226956,129.271354 67.6318479,134.179394 C72.9864787,146.635437 81.8563632,155.585153 95.6680406,158.294588 C100.315533,159.205906 106.655252,157.501782 109.451105,160.043665 C111.940396,162.307657 109.937518,168.948428 111.069757,173.361986 C119.109878,204.812677 161.227524,218.470189 189.480354,198.944279 C202.167968,190.178461 209.574526,178.515224 209.243438,162.659107 C209.198475,160.468674 208.569,158.719597 212.386729,158.768637 C237.475831,159.083307 255.289175,143.251709 259.372592,117.481431 C263.394696,92.1075566 247.641454,66.4312713 224.649242,61.1023081" id="Fill-6" fill="#CB0001" mask="url(#mask-8)"></path>
                    </g>
                    <path d="M12.7643315,129 C12.7643315,129 -13.7054143,106.787104 12.7643315,85 L36,111.711124 L12.7643315,129 Z" id="Fill-9" fill="#CB0001"></path>
                </g>
                <text id="insulin" font-family="PlantagenetCherokee, Plantagenet Cherokee" font-size="48" font-weight="normal" fill="#FCFCFC">
                    <tspan x="814" y="440">insulin</tspan>
                </text>
            </g>
            <path d="M203.993342,695.826021 L454.000913,433.356858 C462.744347,510.634845 441.432226,576.045141 390.064551,629.587746 C338.696875,683.130352 276.673139,705.209776 203.993342,695.826021 Z" id="Path-11" fill="#115885"></path>
            <path d="" id="Path-15" stroke="#979797"></path>
        </g>
    </g>
</svg>