<?xml version="1.0" encoding="UTF-8"?>
<svg width="1439px" height="760px" viewBox="0 0 1439 760" version="1.1" xmlns="http://www.w3.org/2000/svg" xmlns:xlink="http://www.w3.org/1999/xlink">
    <!-- Generator: Sketch 51.2 (57519) - http://www.bohemiancoding.com/sketch -->
    <title>Group 29</title>
    <desc>Created with Sketch.</desc>
    <defs>
        <polygon id="path-1" points="-8.01089918e-05 0.0441264687 273.498278 0.0441264687 273.498278 207.416783 -8.01089918e-05 207.416783"></polygon>
        <polygon id="path-3" points="0.225521303 0.333410862 758.997781 0.333410862 758.997781 759.474568 0.225521303 759.474568"></polygon>
        <path d="M57.555454,50.3723491 C62.8484185,41.9795338 64.9896828,32.9801644 62.8312196,23.1419437 C59.228048,9.87948874 51.1402605,2.20507432 39.234315,0.759668919 C37.166146,0.755367117 35.0979771,0.751065315 33.0341079,0.755367117 C19.5888599,0.755367117 8.42246757,8.1114482 3.32299074,20.3242635 C-1.41960872,31.6853221 1.47840763,45.1456599 11.4193777,54.2396689 C14.9107564,57.4316059 14.7387673,60.0384977 13.2381624,63.7982725 C9.16632044,74.0193536 5.18477275,84.2877545 1.48700708,94.6464932 C-1.12722725,101.972462 0.721655586,104.441696 8.28487629,104.471809 C23.9014866,104.532034 39.518097,104.532034 55.1347074,104.540637 C65.5314485,104.544939 67.118048,102.110119 63.3901842,92.1256374 C59.9547019,82.9240833 56.5837155,73.6967185 53.1869308,64.482259 C50.3018136,58.4339257 54.0253777,54.43325 57.555454,50.3723491 Z" id="path-5"></path>
        <polygon id="path-7" points="-8.01089918e-05 0.0441264687 273.498278 0.0441264687 273.498278 207.416783 -8.01089918e-05 207.416783"></polygon>
    </defs>
    <g id="Educationa-Content" stroke="none" stroke-width="1" fill="none" fill-rule="evenodd">
        <g id="Group-29">
            <g id="Group-18">
                <g id="Group-17">
                    <g id="Group-14-Copy" transform="translate(1165.000000, 355.000000)">
                        <mask id="mask-2" fill="white">
                            <use xlink:href="#path-1"></use>
                        </mask>
                        <g id="Clip-13"></g>
                        <path d="M219.17853,119.974318 C213.240607,125.872088 205.823577,127.394926 197.860481,124.379363 C194.532492,123.118935 191.862361,121.781074 188.547271,125.080556 C185.369773,128.233777 186.655391,130.672899 187.915211,133.7788 C188.770857,135.882381 188.921348,138.274182 189.089037,139.078619 C189.011642,149.334115 183.843369,156.961209 175.673887,160.101525 C167.435609,163.271953 159.988481,161.529723 153.680781,155.623349 C147.123696,149.476074 145.33931,140.614363 149.252062,132.647426 C150.916056,129.257606 150.142105,127.622921 147.876149,124.938597 C144.763146,121.256255 142.213408,123.398552 139.280993,124.392268 C129.421718,127.730466 120.194503,124.934295 114.450067,116.907133 C108.929217,109.194002 109.182901,99.0589572 115.090726,91.509295 C120.835162,84.1661194 131.055615,81.2839122 139.642171,85.0393851 C142.750874,86.3944527 144.741647,87.8957815 148.048138,84.6350158 C151.466421,81.2624032 150.107707,78.900714 148.774792,75.5926284 C143.864503,63.4314347 151.109544,50.0700383 163.763642,47.5620878 C179.818825,44.3787545 192.894296,58.7725833 188.203293,74.5085743 C187.124062,78.1220878 184.875304,81.1849707 189.033141,85.0350833 C193.001789,88.7088221 195.233348,85.5168851 198.268955,84.6135068 C201.175571,83.7531464 204.146683,83.1336869 207.242487,83.6068851 C215.923637,84.9447455 221.625075,89.9391374 224.449996,98.0824482 C227.330814,106.397831 225.241146,113.951795 219.17853,119.974318 M236.312944,52.7844752 C233.174143,52.0574707 229.75586,51.5412545 226.617059,51.9929437 C221.577778,52.7156464 219.97398,51.7864572 219.97398,46.0908716 C219.986879,25.072268 204.009092,7.6026509 180.334792,1.48118694 C159.227429,-3.97349775 128.368285,5.89483559 117.511473,34.6050608 C115.82598,39.0660293 115.632492,43.759295 116.036666,48.4353536 C116.311849,51.6014797 115.18532,52.3973131 112.102416,52.1219977 C94.2026501,50.5217275 81.7377401,59.4823806 72.5148245,73.6353086 C69.9650861,77.55425 67.411048,78.6684167 63.0296256,78.6641149 C42.0168572,78.6253986 21.0083886,78.6641149 -8.01089918e-05,78.6469077 L-8.01089918e-05,123.549115 C3.38810518,123.553417 6.78059019,123.56202 10.1687755,123.56202 L10.1687755,123.531908 C26.9936093,123.531908 43.8270425,123.7513 60.6432768,123.398552 C65.9362414,123.286705 68.924552,124.542831 71.1432114,129.709295 C76.7758545,142.821187 86.1062632,152.242133 100.635043,155.094227 C105.523833,156.053529 112.19271,154.259678 115.133724,156.935399 C117.752258,159.318597 115.645391,166.309025 116.836416,170.954971 C125.29398,204.061637 169.598372,218.438259 199.318089,197.88425 C212.664443,188.656885 220.455549,176.379543 220.107271,159.688552 C220.059974,157.382786 219.397816,155.541615 223.413762,155.593236 C249.805489,155.924475 268.543702,139.259295 272.83913,112.132133 C277.070062,85.4222455 260.498912,58.3940248 236.312944,52.7844752" id="Fill-12" fill="#979797" mask="url(#mask-2)"></path>
                    </g>
                    <g id="Group-3" transform="translate(346.569482, 0.000000)">
                        <mask id="mask-4" fill="white">
                            <use xlink:href="#path-3"></use>
                        </mask>
                        <g id="Clip-2"></g>
                        <path d="M758.997781,379.903633 C758.997781,589.535027 589.140184,759.474568 379.609871,759.474568 C170.083119,759.474568 0.225521303,589.535027 0.225521303,379.903633 C0.225521303,170.272239 170.083119,0.332698581 379.609871,0.332698581 C589.140184,0.332698581 758.997781,170.272239 758.997781,379.903633" id="Fill-1" fill="#27BCBD" mask="url(#mask-4)"></path>
                    </g>
                    <g id="Group-24" transform="translate(841.000000, 434.000000)" fill="#318787">
                        <path d="M23.7317279,0.02171998 C7.0831829,0.0389271872 -3.58014135,13.976765 1.11086137,29.1621254 C3.84118835,38.0066299 11.9031774,44.3603912 21.3496788,44.8594002 C26.0105834,45.1046029 30.7015862,44.8120803 35.3624908,45.0486794 C41.5068014,45.3584092 45.978518,49.7634542 46.4041911,55.5665848 C46.8513627,61.6579362 42.6591284,66.4630488 36.4761202,67.9858866 C32.5762674,68.9494903 27.0726161,65.8780038 25.0431448,70.171202 C23.413548,73.6255488 24.6217715,78.4349632 24.613172,82.6421254 C24.5916734,96.2014047 24.7292646,109.764986 24.4970794,123.319963 C24.423984,127.570143 25.1377388,129.523161 30.0953246,129.346788 C41.2961148,128.942418 52.5270031,129.045661 63.7363927,129.308071 C67.7996352,129.402711 68.8272701,128.077756 68.7584745,124.163116 C68.5305889,110.840436 68.6337824,97.5091524 68.6810794,84.1864722 C68.7197769,74.2019903 73.4064799,68.717193 81.7694499,68.6784767 C89.5218586,68.6397605 93.714093,73.8836569 93.7914881,84.1348506 C93.8946815,97.4618326 93.9290794,110.788815 93.7312919,124.111495 C93.6753954,127.970211 94.6643328,129.407013 98.779172,129.316675 C110.457232,129.049963 122.152491,129.04136 133.830551,129.320977 C138.052883,129.42422 138.72794,127.828252 138.680643,124.064175 C138.482856,107.700121 138.375363,91.3274632 138.702142,74.967711 C138.809635,69.7324182 137.382126,67.8525308 132.063363,68.3300308 C126.26733,68.8505488 120.660485,67.8439272 117.672175,61.9246479 C113.48854,53.6436794 118.906197,45.1261119 128.610682,45.0271704 C142.098927,44.8938146 155.587172,44.928229 169.079717,44.9540398 L169.079717,0.0604361962 C120.630387,0.02171998 72.1810576,-0.0299016416 23.7317279,0.02171998" id="Fill-8-Copy"></path>
                        <path d="M107,44.8979054 C211.887553,44.8979054 282.133946,44.8936036 387,44.8979054 L401,6 C296.112447,6 211.887553,0 107,0 L107,44.8979054 Z" id="Fill-10-Copy"></path>
                    </g>
                    <path d="M907.22789,589.177252 L660.135449,589.177252 C655.405748,589.177252 651.535993,585.305631 651.535993,580.573649 L651.535993,187.677185 C651.535993,182.945203 655.405748,179.073581 660.135449,179.073581 L907.22789,179.073581 C911.95759,179.073581 915.827345,182.945203 915.827345,187.677185 L915.827345,580.573649 C915.827345,585.305631 911.95759,589.177252 907.22789,589.177252" id="Fill-4-Copy" fill="#0B9C9D"></path>
                    <path d="M888.22789,570.177252 L641.135449,570.177252 C636.405748,570.177252 632.535993,566.305631 632.535993,561.573649 L632.535993,168.677185 C632.535993,163.945203 636.405748,160.073581 641.135449,160.073581 L888.22789,160.073581 C892.95759,160.073581 896.827345,163.945203 896.827345,168.677185 L896.827345,561.573649 C896.827345,566.305631 892.95759,570.177252 888.22789,570.177252" id="Fill-4" fill="#FDFEFE"></path>
                    <g id="Fill-6-Copy" transform="translate(705.000000, 394.000000)">
                        <mask id="mask-6" fill="white">
                            <use xlink:href="#path-5"></use>
                        </mask>
                        <use id="Mask" fill="#0B9C9D" xlink:href="#path-5"></use>
                        <path d="M75.1872557,58.6187638 C80.4802203,50.2259485 82.6214846,41.2265792 80.4630214,31.3883584 C76.8598497,18.1259035 68.7720622,10.4514891 56.8661167,9.00608367 C54.7979478,9.00178186 52.7297788,8.99748006 50.6659096,9.00178186 C37.2206617,9.00178186 26.0542693,16.3578629 20.9547925,28.5706783 C16.212193,39.9317368 19.1102094,53.3920747 29.0511794,62.4860837 C32.5425581,65.6780206 32.370569,68.2849125 30.8699641,72.0446873 C26.7981222,82.2657684 22.8165745,92.5341693 19.1188088,102.892908 C16.5045745,110.218876 18.3534573,112.688111 25.916678,112.718223 C41.5332884,112.778449 57.1498987,112.778449 72.7665091,112.787052 C83.1632502,112.791354 84.7498497,110.356534 81.0219859,100.372052 C77.5865036,91.1704981 74.2155173,81.9431332 70.8187325,72.7286738 C67.9336154,66.6803404 71.6571794,62.6796647 75.1872557,58.6187638 Z" fill="#27BCBD" mask="url(#mask-6)"></path>
                    </g>
                    <path d="M851.731728,424.02172 C835.083183,424.038927 824.419859,437.976765 829.110861,453.162125 C831.841188,462.00663 839.903177,468.360391 849.349679,468.8594 C854.010583,469.104603 858.701586,468.81208 863.362491,469.048679 C869.506801,469.358409 873.978518,473.763454 874.404191,479.566585 C874.851363,485.657936 870.659128,490.463049 864.47612,491.985887 C860.576267,492.94949 855.072616,489.878004 853.043145,494.171202 C851.413548,497.625549 852.621771,502.434963 852.613172,506.642125 C852.591673,520.201405 852.729265,533.764986 852.497079,547.319963 C852.423984,551.570143 853.137739,553.523161 858.095325,553.346788 C869.296115,552.942418 880.527003,553.045661 891.736393,553.308071 C895.799635,553.402711 896.82727,552.077756 896.758474,548.163116 C896.530589,534.840436 896.633782,521.509152 896.681079,508.186472 C896.719777,498.20199 901.40648,492.717193 909.76945,492.678477 C917.521859,492.639761 921.714093,497.883657 921.791488,508.134851 C921.894682,521.461833 921.929079,534.788815 921.731292,548.111495 C921.675395,551.970211 922.664333,553.407013 926.779172,553.316675 C938.457232,553.049963 950.152491,553.04136 961.830551,553.320977 C966.052883,553.42422 966.72794,551.828252 966.680643,548.064175 C966.482856,531.700121 966.375363,515.327463 966.702142,498.967711 C966.809635,493.732418 965.382126,491.852531 960.063363,492.330031 C954.26733,492.850549 948.660485,491.843927 945.672175,485.924648 C941.48854,477.643679 946.906197,469.126112 956.610682,469.02717 C970.098927,468.893815 983.587172,468.928229 997.079717,468.95404 L997.079717,424.060436 C948.630387,424.02172 900.181058,423.970098 851.731728,424.02172" id="Fill-8" fill="#CB0001"></path>
                    <path d="M935,424 L935,468.897905 C1039.88755,468.897905 1144.75791,468.897905 1249.62396,468.902207 L1249.62396,424 C1144.73641,424 1039.88755,424 935,424" id="Fill-10" fill="#CB0001"></path>
                    <g id="Group-14" transform="translate(1164.517711, 345.310811)">
                        <mask id="mask-8" fill="white">
                            <use xlink:href="#path-7"></use>
                        </mask>
                        <g id="Clip-13"></g>
                        <path d="M219.17853,119.974318 C213.240607,125.872088 205.823577,127.394926 197.860481,124.379363 C194.532492,123.118935 191.862361,121.781074 188.547271,125.080556 C185.369773,128.233777 186.655391,130.672899 187.915211,133.7788 C188.770857,135.882381 188.921348,138.274182 189.089037,139.078619 C189.011642,149.334115 183.843369,156.961209 175.673887,160.101525 C167.435609,163.271953 159.988481,161.529723 153.680781,155.623349 C147.123696,149.476074 145.33931,140.614363 149.252062,132.647426 C150.916056,129.257606 150.142105,127.622921 147.876149,124.938597 C144.763146,121.256255 142.213408,123.398552 139.280993,124.392268 C129.421718,127.730466 120.194503,124.934295 114.450067,116.907133 C108.929217,109.194002 109.182901,99.0589572 115.090726,91.509295 C120.835162,84.1661194 131.055615,81.2839122 139.642171,85.0393851 C142.750874,86.3944527 144.741647,87.8957815 148.048138,84.6350158 C151.466421,81.2624032 150.107707,78.900714 148.774792,75.5926284 C143.864503,63.4314347 151.109544,50.0700383 163.763642,47.5620878 C179.818825,44.3787545 192.894296,58.7725833 188.203293,74.5085743 C187.124062,78.1220878 184.875304,81.1849707 189.033141,85.0350833 C193.001789,88.7088221 195.233348,85.5168851 198.268955,84.6135068 C201.175571,83.7531464 204.146683,83.1336869 207.242487,83.6068851 C215.923637,84.9447455 221.625075,89.9391374 224.449996,98.0824482 C227.330814,106.397831 225.241146,113.951795 219.17853,119.974318 M236.312944,52.7844752 C233.174143,52.0574707 229.75586,51.5412545 226.617059,51.9929437 C221.577778,52.7156464 219.97398,51.7864572 219.97398,46.0908716 C219.986879,25.072268 204.009092,7.6026509 180.334792,1.48118694 C159.227429,-3.97349775 128.368285,5.89483559 117.511473,34.6050608 C115.82598,39.0660293 115.632492,43.759295 116.036666,48.4353536 C116.311849,51.6014797 115.18532,52.3973131 112.102416,52.1219977 C94.2026501,50.5217275 81.7377401,59.4823806 72.5148245,73.6353086 C69.9650861,77.55425 67.411048,78.6684167 63.0296256,78.6641149 C42.0168572,78.6253986 21.0083886,78.6641149 -8.01089918e-05,78.6469077 L-8.01089918e-05,123.549115 C3.38810518,123.553417 6.78059019,123.56202 10.1687755,123.56202 L10.1687755,123.531908 C26.9936093,123.531908 43.8270425,123.7513 60.6432768,123.398552 C65.9362414,123.286705 68.924552,124.542831 71.1432114,129.709295 C76.7758545,142.821187 86.1062632,152.242133 100.635043,155.094227 C105.523833,156.053529 112.19271,154.259678 115.133724,156.935399 C117.752258,159.318597 115.645391,166.309025 116.836416,170.954971 C125.29398,204.061637 169.598372,218.438259 199.318089,197.88425 C212.664443,188.656885 220.455549,176.379543 220.107271,159.688552 C220.059974,157.382786 219.397816,155.541615 223.413762,155.593236 C249.805489,155.924475 268.543702,139.259295 272.83913,112.132133 C277.070062,85.4222455 260.498912,58.3940248 236.312944,52.7844752" id="Fill-12" fill="#CB0001" mask="url(#mask-8)"></path>
                    </g>
                    <path d="" id="Path-8" stroke="#979797"></path>
                    <path d="" id="Path-9" stroke="#979797"></path>
                    <path d="" id="Path-10" stroke="#979797"></path>
                    <g id="Group-25" transform="translate(0.000000, 238.000000)">
                        <path d="M451.600647,216 L508.775263,216 C530.871733,212.147799 544.682026,202.242138 550.206144,186.283019 C555.730261,170.323899 569.816761,141.982704 592.465643,101.259434 C606.275936,90.8034591 619.810024,83.0990566 633.067906,78.1462264 C646.325788,73.1933962 648.535435,60.8113208 639.696847,41 L440,201.966981 L451.600647,216 Z" id="Path-12" fill="#0B9C9D"></path>
                        <path d="M618.087554,21.5473204 C616.34903,19.9501663 614.465039,18.534831 612.478155,17.2514036 C607.922515,14.4955997 603.71458,11.187209 598.761563,9.12302993 C578.28247,0.588237569 555.905193,10.1390766 554.106354,31.9074318 C551.243113,66.5599722 532.069686,92.5172918 515.276972,120.27141 C508.223535,131.925644 499.122898,137.166306 485.38147,138.78485 C470.536611,140.531738 455.71304,140.357049 440.939141,141.216232 C406.218351,58.2569098 324.582271,0 229.396355,0 C102.704142,0 0,103.19826 0,230.5 C0,357.80174 102.704142,461 229.396355,461 C356.088568,461 458.796258,357.80174 458.796258,230.5 C458.796258,219.063236 457.934092,207.833246 456.333941,196.842116 C473.15504,197.576522 490.050646,196.613951 506.885937,197.123757 C521.776919,197.572956 531.133012,191.230686 537.412984,177.811739 C549.71747,151.529998 564.019484,126.246477 577.14356,100.38898 C584.473741,85.9504215 593.691461,76.2926301 609.810055,74.0252417 C640.57127,59.3870389 642.951983,44.3887634 618.087554,21.5473204" id="Fill-15" fill="#0062A1"></path>
                        <path d="M205,458.90551 L456.084127,197 C464.865211,274.112032 443.461319,339.38186 391.872449,392.809482 C340.283579,446.237104 277.992763,468.269114 205,458.90551 Z" id="Path-11" fill="#115885"></path>
                    </g>
                </g>
                <g id="Group-26" transform="translate(110.000000, 346.000000)" font-family="PlantagenetCherokee, Plantagenet Cherokee" font-size="64" font-weight="normal">
                    <text id="glucose-copy" fill="#115885">
                        <tspan x="5" y="49">glucose</tspan>
                    </text>
                    <text id="glucose" fill="#FCFCFC">
                        <tspan x="0" y="45">glucose</tspan>
                    </text>
                </g>
                <text id="insulin" font-family="PlantagenetCherokee, Plantagenet Cherokee" font-size="48" font-weight="normal" fill="#FCFCFC">
                    <tspan x="969" y="460">insulin</tspan>
                </text>
            </g>
            <path d="" id="Path-13" stroke="#979797"></path>
            <path d="" id="Path-14" stroke="#979797"></path>
        </g>
    </g>
</svg>