<?xml version="1.0" encoding="utf-8"?>
<!-- Generator: Adobe Illustrator 19.2.1, SVG Export Plug-In . SVG Version: 6.00 Build 0)  -->
<svg version="1.1" id="Layer_1" xmlns="http://www.w3.org/2000/svg" xmlns:xlink="http://www.w3.org/1999/xlink" x="0px" y="0px"
	 viewBox="0 0 529.4 221.7" style="enable-background:new 0 0 529.4 221.7;" xml:space="preserve">
<style type="text/css">
	.st0{fill:#FE6563;}
	.st1{fill:#54961B;}
	.st2{fill:#FFFFFF;}
	.st3{fill:#1097CA;}
	.st4{fill:#0E80AB;}
	.st5{fill:#3C4767;}
	.st6{fill:#B35205;}
	.st7{fill:#FECB3F;}
	.st8{fill:#3A7309;}
	.st9{fill:#E0AB19;}
	.st10{fill:#ED4E4C;}
	.st11{fill:#2C3654;}
	.st12{fill:#96A4A9;}
</style>
<title>shutterstock_376102174</title>
<desc>Created with Sketch.</desc>
<g id="shutterstock_376102174">
	<path id="Fill-23" class="st0" d="M121.7,103.4c-9.9-1.9-20,3.3-27.3,12.9c-7.3-9.6-17.4-14.8-27.3-12.9
		C51,106.5,41.5,127.5,46,150.2c4.4,22.7,21.1,38.6,37.2,35.5c4.3-0.8,8.1-2.9,11.3-6c3.2,3,7,5.1,11.3,6
		c16.1,3.1,32.7-12.7,37.2-35.5C147.3,127.5,137.8,106.5,121.7,103.4"/>
	<path id="Fill-24" class="st1" d="M94.4,102c0,0-12.2,0.5-19.4-6.7C67.9,88.2,68.4,76,68.4,76s12.2-0.5,19.4,6.7
		C94.9,89.9,94.4,102,94.4,102"/>
	<path id="Fill-25" class="st2" d="M70.7,127.8c0,3.1-2.5,5.7-5.7,5.7s-5.7-2.5-5.7-5.7c0-3.1,2.5-5.7,5.7-5.7
		S70.7,124.6,70.7,127.8"/>
	<path id="Fill-26" class="st3" d="M137,56.4l-12.6,14.2c-5,5.6-9,16.1-9,23.6c-0.1,24.6-0.3,75.9,0.1,96.5
		c0.1,7.8,0.7,22,12.5,28.4c14.8,8.1,10.5-5.1,21.4-5.1s6.6,13.2,21.4,5.1c11.8-6.4,12.4-20.6,12.5-28.4c0.3-20.6,0.2-71.9,0.1-96.5
		c0-7.5-4.1-18-9-23.6l-12.6-14.2H137"/>
	<polyline id="Fill-27" class="st4" points="149.3,49.3 137,49.3 137,56.4 161.7,56.4 161.7,49.3 149.3,49.3 	"/>
	<path id="Fill-28" class="st5" d="M134.7,33.1c-2.2,0-4,1.8-4,4v8.1c0,2.2,1.8,4,4,4H164c2.2,0,4-1.8,4-4v-8.1c0-2.2-1.8-4-4-4
		H134.7"/>
	<path id="Fill-29" class="st5" d="M115.3,142.3h68.2c0-16.2-0.1-32.6-0.1-44.4h-68C115.3,109.7,115.3,126.1,115.3,142.3"/>
	<path id="Fill-30" class="st4" d="M115.4,185.6c0,1.5,0,2.8,0,4.1c9.8,8.8,21.4,14,33.9,14s24.2-5.1,33.9-14c0-1.3,0-2.6,0-4.1
		c-9.8,8.8-21.4,14-34,14S125.1,194.4,115.4,185.6"/>
	<path id="Fill-31" class="st6" d="M29.1,103.3c0,0-0.1,0-0.1,0c-0.6-0.1-1-0.6-1-1.3c1-7.3-2.2-14.4-8.2-18.6
		c-0.5-0.4-0.6-1-0.3-1.6c0.4-0.5,1-0.6,1.6-0.3c6.7,4.7,10.3,12.6,9.2,20.7C30.1,102.9,29.7,103.3,29.1,103.3"/>
	<path id="Fill-32" class="st6" d="M9.1,92.8c-0.4,0.5-0.7,1-0.9,1.5c-0.5,1.4-0.1,2.9,1.1,4.4c0.9,1.1,2,1.6,3,1.5
		c0.9-0.1,1.6-0.8,2-1.8c0.4-1.2,0.1-2.6-0.9-3.8C12.2,93.5,10.8,92.9,9.1,92.8z M6.7,109.2c-0.1,0-0.2,0-0.3-0.1
		c-1.5-1.5-6.3-6.7-4.3-12.3c0.8-2.3,3-4,5.6-4.5c0.4-0.1,0.7-0.1,1.1-0.1c1.4-1.5,3.6-2.6,5.5-3c4.2-0.9,9.5-1.5,13.8,1.8
		c0.2,0.1,0.2,0.4,0.1,0.5c-0.1,0.2-0.4,0.2-0.5,0.1c-4.1-3.1-9.2-2.5-13.2-1.7c-1.6,0.3-3.3,1.1-4.6,2.3c1.6,0.2,3,0.9,4,2.1
		c1.2,1.3,1.6,3,1.1,4.5c-0.4,1.2-1.4,2.1-2.5,2.3c-1.3,0.2-2.6-0.4-3.7-1.7c-1.4-1.7-1.8-3.5-1.2-5.1c0.2-0.4,0.4-0.8,0.6-1.2
		c-0.1,0-0.2,0-0.3,0.1c-2.3,0.4-4.3,2-5,4c-1.9,5.2,2.7,10.1,4.1,11.5c0.1,0.1,0.2,0.4,0,0.5C6.9,109.1,6.8,109.2,6.7,109.2z"/>
	<path id="Fill-33" class="st5" d="M29.1,102.5c0,3.1-2.5,5.6-5.6,5.6c-3.1,0-5.6-2.5-5.6-5.6c0-3.1,2.5-5.6,5.6-5.6
		C26.6,96.9,29.1,99.4,29.1,102.5"/>
	<path id="Fill-34" class="st2" d="M23.5,101c0,0.8-0.7,1.5-1.5,1.5s-1.5-0.7-1.5-1.5c0-0.8,0.7-1.5,1.5-1.5S23.5,100.2,23.5,101"/>
	<path id="Fill-35" class="st5" d="M40.3,102.5c0,3.1-2.5,5.6-5.6,5.6c-3.1,0-5.6-2.5-5.6-5.6c0-3.1,2.5-5.6,5.6-5.6
		C37.8,96.9,40.3,99.4,40.3,102.5"/>
	<path id="Fill-36" class="st2" d="M34.7,101c0,0.8-0.7,1.5-1.5,1.5c-0.8,0-1.5-0.7-1.5-1.5c0-0.8,0.7-1.5,1.5-1.5
		C34,99.5,34.7,100.2,34.7,101"/>
	<path id="Fill-37" class="st5" d="M29.1,121.9c0,3.1-2.5,5.6-5.6,5.6c-3.1,0-5.6-2.5-5.6-5.6c0-3.1,2.5-5.6,5.6-5.6
		C26.6,116.3,29.1,118.8,29.1,121.9"/>
	<path id="Fill-38" class="st2" d="M23.5,120.4c0,0.8-0.7,1.5-1.5,1.5s-1.5-0.7-1.5-1.5c0-0.8,0.7-1.5,1.5-1.5
		S23.5,119.5,23.5,120.4"/>
	<path id="Fill-39" class="st5" d="M40.3,121.9c0,3.1-2.5,5.6-5.6,5.6c-3.1,0-5.6-2.5-5.6-5.6c0-3.1,2.5-5.6,5.6-5.6
		C37.8,116.3,40.3,118.8,40.3,121.9"/>
	<path id="Fill-40" class="st2" d="M34.7,120.4c0,0.8-0.7,1.5-1.5,1.5c-0.8,0-1.5-0.7-1.5-1.5c0-0.8,0.7-1.5,1.5-1.5
		C34,118.9,34.7,119.5,34.7,120.4"/>
	<path id="Fill-41" class="st5" d="M34.7,112.2c0,3.1-2.5,5.6-5.6,5.6c-3.1,0-5.6-2.5-5.6-5.6c0-3.1,2.5-5.6,5.6-5.6
		C32.2,106.6,34.7,109.1,34.7,112.2"/>
	<path id="Fill-42" class="st2" d="M29.1,110.7c0,0.8-0.7,1.5-1.5,1.5c-0.8,0-1.5-0.7-1.5-1.5c0-0.8,0.7-1.5,1.5-1.5
		C28.4,109.2,29.1,109.9,29.1,110.7"/>
	<path id="Fill-43" class="st5" d="M34.7,131.6c0,3.1-2.5,5.6-5.6,5.6c-3.1,0-5.6-2.5-5.6-5.6c0-3.1,2.5-5.6,5.6-5.6
		C32.2,126,34.7,128.5,34.7,131.6"/>
	<path id="Fill-44" class="st2" d="M29.1,130.1c0,0.8-0.7,1.5-1.5,1.5c-0.8,0-1.5-0.7-1.5-1.5c0-0.8,0.7-1.5,1.5-1.5
		C28.4,128.6,29.1,129.2,29.1,130.1"/>
	<path id="Fill-45" class="st5" d="M23.5,112.2c0,3.1-2.5,5.6-5.6,5.6c-3.1,0-5.6-2.5-5.6-5.6c0-3.1,2.5-5.6,5.6-5.6
		C21,106.6,23.5,109.1,23.5,112.2"/>
	<path id="Fill-46" class="st2" d="M17.9,110.7c0,0.8-0.7,1.5-1.5,1.5c-0.8,0-1.5-0.7-1.5-1.5c0-0.8,0.7-1.5,1.5-1.5
		C17.2,109.2,17.9,109.9,17.9,110.7"/>
	<path id="Fill-47" class="st5" d="M45.9,112.2c0,3.1-2.5,5.6-5.6,5.6c-3.1,0-5.6-2.5-5.6-5.6c0-3.1,2.5-5.6,5.6-5.6
		C43.3,106.6,45.9,109.1,45.9,112.2"/>
	<path id="Fill-48" class="st2" d="M40.3,110.7c0,0.8-0.7,1.5-1.5,1.5c-0.8,0-1.5-0.7-1.5-1.5c0-0.8,0.7-1.5,1.5-1.5
		C39.6,109.2,40.3,109.9,40.3,110.7"/>
	<path id="Fill-49" class="st1" d="M27.9,89.9c0,0,4.1-3.2,8.4-2.4c4.3,0.8,7.1,5.1,7.1,5.1S39.2,95.8,35,95
		C30.7,94.3,27.9,89.9,27.9,89.9"/>
	<path id="Fill-50" class="st1" d="M27.9,89.9c0,0-3.2-4.1-2.4-8.4c0.8-4.3,5.1-7.1,5.1-7.1s3.2,4.1,2.4,8.4
		C32.3,87.1,27.9,89.9,27.9,89.9"/>
	<path id="Fill-51" class="st1" d="M27.9,89.9c0,0,0.7-5.2,4.2-7.6c3.6-2.5,8.6-1.4,8.6-1.4s-0.7,5.2-4.2,7.6
		C33,91,27.9,89.9,27.9,89.9"/>
	<path id="Fill-52" class="st0" d="M239.2,88.6c2.6-6.7,9.1-14.5,16.8-14.5c10,0,18,8.1,18,18c0,11.6-9.8,33.7-34.8,41.2
		c-25-7.5-34.8-29.6-34.8-41.2c0-10,8.1-18,18-18C230.1,74.2,236.6,81.9,239.2,88.6"/>
	<path id="Fill-53" class="st2" d="M235,124.1c-0.5,0-0.9-0.3-1.1-0.8l-7.8-33.8l-3.4,14.6c-0.1,0.5-0.6,0.8-1.1,0.8h-29.3
		c-0.6,0-1.1-0.5-1.1-1.1s0.5-1.1,1.1-1.1h28.5l4.2-18.3c0.1-0.3,0.3-0.5,0.5-0.7c0.3-0.2,0.7-0.2,1-0.1c0.3,0.1,0.5,0.4,0.6,0.7
		l7.8,33.8l4.9-21.2c0-0.3,0.2-0.6,0.5-0.8c0.4-0.2,0.9-0.2,1.3,0.1c0.2,0.2,0.3,0.4,0.4,0.6l3.2,13.8l6.1-24.6
		c0.1-0.5,0.6-0.8,1.1-0.8c0.5,0,0.9,0.3,1.1,0.8l4.1,16.6h28.5c0.6,0,1.1,0.5,1.1,1.1s-0.5,1.1-1.1,1.1h-29.4
		c-0.5,0-0.9-0.3-1.1-0.8L252.4,91l-6.1,24.7c-0.1,0.5-0.5,0.8-1.1,0.8c-0.5,0-0.9-0.4-1-0.8l-3.2-13.7l-4.9,21.3
		C236,123.7,235.5,124.1,235,124.1"/>
	<path id="Fill-54" class="st5" d="M79.6,180.6l-7.9-3.5l7.7-17.3c1.4-3.2,1.6-6.2,0.5-7.9c-1-1.5-2.8-1.8-4.2-1.8H46.2
		c-1.4,0-3.3,0.3-4.2,1.8c-1.1,1.7-0.9,4.7,0.5,7.9l7.7,17.3l-7.9,3.5l-7.7-17.3c-2.7-6-2.6-11.9,0.2-16.2c2.4-3.7,6.5-5.7,11.5-5.7
		h29.4c5,0,9.1,2,11.5,5.7c2.8,4.3,2.8,10.2,0.2,16.2L79.6,180.6"/>
	<path id="Fill-55" class="st5" d="M48.9,221.7H73c9.7-4.5,16.5-14.4,16.5-25.9c0-15.8-12.8-28.5-28.5-28.5
		c-15.8,0-28.5,12.8-28.5,28.5C32.4,207.2,39.1,217.1,48.9,221.7"/>
	<path id="Fill-56" class="st5" d="M48.9,221.7H73c9.7-4.5,16.5-14.4,16.5-25.9c0-15.8-12.8-28.5-28.5-28.5
		c-15.8,0-28.5,12.8-28.5,28.5C32.4,207.2,39.1,217.1,48.9,221.7"/>
	<path id="Fill-57" class="st2" d="M40.1,189.3c0,0,0.1-0.4,0.2-1c0.1-0.3,0.2-0.7,0.3-1.1c0.1-0.4,0.3-0.9,0.5-1.4
		c0.1-0.2,0.2-0.5,0.3-0.8c0.1-0.3,0.3-0.5,0.4-0.8c0.3-0.6,0.6-1.1,1-1.7c0.4-0.5,0.8-1.1,1.3-1.7c0.5-0.6,1-1.1,1.5-1.6
		c0.6-0.5,1.1-1,1.7-1.4c0.6-0.5,1.2-0.8,1.8-1.2c0.6-0.3,1.2-0.7,1.8-0.9c0.3-0.1,0.6-0.2,0.8-0.4c0.3-0.1,0.5-0.2,0.8-0.3
		c0.5-0.2,1-0.3,1.4-0.4c0.4-0.1,0.8-0.2,1.1-0.2c0.6-0.1,1-0.1,1-0.1s-0.3,0.1-0.9,0.4c-0.3,0.1-0.6,0.3-1,0.4
		c-0.4,0.2-0.8,0.4-1.3,0.6c-0.5,0.2-1,0.5-1.5,0.8c-0.5,0.3-1,0.7-1.6,1c-0.5,0.4-1.1,0.8-1.6,1.2c-0.5,0.4-1,0.9-1.6,1.3
		c-0.5,0.5-1,0.9-1.4,1.5c-0.5,0.5-0.9,1-1.3,1.5c-0.4,0.5-0.8,1-1.1,1.5c-0.3,0.5-0.7,1-0.9,1.4c-0.3,0.4-0.5,0.9-0.7,1.2
		c-0.2,0.4-0.4,0.7-0.5,1C40.3,189,40.1,189.3,40.1,189.3"/>
	<path id="Fill-58" class="st3" d="M60.9,207c-6.2,0-11.2-5-11.2-11.2c0-6.2,5-11.2,11.2-11.2c6.2,0,11.2,5,11.2,11.2
		C72.1,202,67.1,207,60.9,207"/>
	<polygon id="Fill-59" class="st0" points="189.8,191 190.2,191 190.2,167.1 189.8,167.1 	"/>
	<polygon id="Fill-60" class="st0" points="189.8,218.7 190.2,218.7 190.2,194.8 189.8,194.8 	"/>
	<polyline id="Fill-61" class="st0" points="188.8,191.4 176.9,170.7 177.3,170.5 189.3,191.2 188.8,191.4 	"/>
	<polyline id="Fill-62" class="st0" points="188.3,192.2 167.6,180.2 167.8,179.8 188.5,191.8 188.3,192.2 	"/>
	<polygon id="Fill-63" class="st0" points="164.2,193.1 188.1,193.1 188.1,192.7 164.2,192.7 	"/>
	<polygon id="Fill-64" class="st0" points="191.9,193.1 215.8,193.1 215.8,192.7 191.9,192.7 	"/>
	<polyline id="Fill-65" class="st0" points="167.8,206 167.6,205.6 188.3,193.6 188.5,194 167.8,206 	"/>
	<polyline id="Fill-66" class="st0" points="177.3,215.3 176.9,215.1 188.8,194.4 189.3,194.6 177.3,215.3 	"/>
	<polyline id="Fill-67" class="st0" points="202.7,215.3 190.7,194.6 191.1,194.4 203.1,215.1 202.7,215.3 	"/>
	<polyline id="Fill-68" class="st0" points="212.2,206 191.5,194 191.7,193.6 212.4,205.6 212.2,206 	"/>
	<polyline id="Fill-69" class="st0" points="191.7,192.2 191.5,191.8 212.2,179.8 212.4,180.2 191.7,192.2 	"/>
	<polyline id="Fill-70" class="st0" points="191.1,191.4 190.7,191.2 202.7,170.5 203.1,170.7 191.1,191.4 	"/>
	<path id="Fill-71" class="st5" d="M190,215.6c-12.5,0-22.7-10.2-22.7-22.7c0-12.5,10.2-22.7,22.7-22.7c12.5,0,22.7,10.2,22.7,22.7
		C212.7,205.4,202.5,215.6,190,215.6z M190,164.1c-15.9,0-28.8,12.9-28.8,28.8s12.9,28.8,28.8,28.8c15.9,0,28.8-12.9,28.8-28.8
		S205.9,164.1,190,164.1z"/>
	<polygon id="Fill-72" class="st0" points="283.1,191 283.6,191 283.6,167.1 283.1,167.1 	"/>
	<polygon id="Fill-73" class="st0" points="283.1,218.7 283.6,218.7 283.6,194.8 283.1,194.8 	"/>
	<polyline id="Fill-74" class="st0" points="282.2,191.4 270.2,170.7 270.7,170.5 282.6,191.2 282.2,191.4 	"/>
	<polyline id="Fill-75" class="st0" points="281.6,192.2 260.9,180.2 261.1,179.8 281.8,191.8 281.6,192.2 	"/>
	<polygon id="Fill-76" class="st0" points="257.6,193.1 281.5,193.1 281.5,192.7 257.6,192.7 	"/>
	<polygon id="Fill-77" class="st0" points="285.2,193.1 309.1,193.1 309.1,192.7 285.2,192.7 	"/>
	<polyline id="Fill-78" class="st0" points="261.1,206 260.9,205.6 281.6,193.6 281.8,194 261.1,206 	"/>
	<polyline id="Fill-79" class="st0" points="270.7,215.3 270.2,215.1 282.2,194.4 282.6,194.6 270.7,215.3 	"/>
	<polyline id="Fill-80" class="st0" points="296,215.3 284.1,194.6 284.5,194.4 296.4,215.1 296,215.3 	"/>
	<polyline id="Fill-81" class="st0" points="305.5,206 284.8,194 285.1,193.6 305.8,205.6 305.5,206 	"/>
	<polyline id="Fill-82" class="st0" points="285.1,192.2 284.8,191.8 305.5,179.8 305.8,180.2 285.1,192.2 	"/>
	<polyline id="Fill-83" class="st0" points="284.5,191.4 284.1,191.2 296,170.5 296.4,170.7 284.5,191.4 	"/>
	<path id="Fill-84" class="st5" d="M283.3,215.6c-12.5,0-22.7-10.2-22.7-22.7c0-12.5,10.2-22.7,22.7-22.7
		c12.5,0,22.7,10.2,22.7,22.7C306.1,205.4,295.9,215.6,283.3,215.6z M283.3,164.1c-15.9,0-28.8,12.9-28.8,28.8s12.9,28.8,28.8,28.8
		c15.9,0,28.8-12.9,28.8-28.8S299.2,164.1,283.3,164.1z"/>
	<polyline id="Fill-85" class="st5" points="241,190.8 233.1,204.5 236.8,206.6 244.6,192.9 241,190.8 	"/>
	<path id="Fill-86" class="st7" d="M278.5,189.6h-31l16.9-34.8L278.5,189.6z M285.7,194.5l1.6-0.6l-1.6-3.9v-0.3h-0.1l-17.4-42.8
		l0.4-0.8l-0.9-0.4l-0.9-2.3l-2.1,0.8l-2-1l-1.1,2.2l-0.9,0.4l0.3,0.8l-19.3,39.8l-26.9-39.3l0.2-0.7c0.6-2.6-0.6-5.4-2.8-6.8h11.9
		v-6.5h-19.3c-2.3,0-4.2,1.9-4.2,4.2v1c0,2.5,2.1,5,5,5.9l3,0.9l-0.4,2l-0.8,0.6l0.5,0.7l-5.8,25.4c-1,4.3-4.3,9.7-7.3,11.7
		l-8.5,5.9l3.7,5.4l8.5-5.9c4.3-3,8.6-9.7,10-15.6l4.5-19.6l25.6,37.4l-0.2,0.4l0.7,0.3l0.9,1.4v0.9h0.6l0.3,0.5l0.7-0.5h2l0.5,0.3
		l0.1-0.3h36.9l0,0.1l0.3-0.1h4.2V194.5z"/>
	<polyline id="Fill-87" class="st7" points="227,204 240.2,211.6 244,205 230.8,197.4 227,204 	"/>
	<path id="Fill-88" class="st5" d="M248.5,192.9c0,3.5-2.8,6.3-6.3,6.3c-3.5,0-6.3-2.8-6.3-6.3c0-3.5,2.8-6.3,6.3-6.3
		C245.7,186.6,248.5,189.4,248.5,192.9"/>
	<path id="Fill-89" class="st5" d="M193.5,192.9c0,1.9-1.6,3.5-3.5,3.5c-1.9,0-3.5-1.6-3.5-3.5c0-1.9,1.6-3.5,3.5-3.5
		C191.9,189.4,193.5,191,193.5,192.9"/>
	<path id="Fill-90" class="st5" d="M286.8,192.9c0,1.9-1.6,3.5-3.5,3.5c-1.9,0-3.5-1.6-3.5-3.5c0-1.9,1.6-3.5,3.5-3.5
		C285.3,189.4,286.8,191,286.8,192.9"/>
	<path id="Fill-91" class="st0" d="M250.1,142.2c-1.3,0.1-2.3,1.3-2.3,2.8c0,1.5,1,2.7,2.3,2.7h29c1.3,0,2.3-1.2,2.3-2.7
		c0-1.5-0.8-3.8-1.9-4.7c-3-2.4-8.7-4.9-13-1.9C262.3,141.2,254.1,142,250.1,142.2"/>
	<path id="Fill-92" class="st5" d="M406.2,135h-29.5c-9.5,0-17.3-7.7-17.3-17.3V14.2h6.9v103.5c0,5.7,4.6,10.4,10.4,10.4h29.5V135"
		/>
	<path id="Fill-93" class="st5" d="M426.1,165.4h-19.9v-6.9h19.9c5.7,0,10.4-4.6,10.4-10.4v-14.9h6.9v14.9
		C443.4,157.6,435.7,165.4,426.1,165.4"/>
	<polygon id="Fill-94" class="st5" points="400,221.7 412.4,221.7 412.4,87 400,87 	"/>
	<path id="Fill-95" class="st1" d="M446.3,59.9c-3.9,0-7.6,0.8-11,2.3c0.7-2.6,1.1-5.3,1.1-8.2c0-16.7-13.5-30.2-30.2-30.2
		C389.5,23.8,376,37.3,376,54c0,2.8,0.4,5.6,1.1,8.2c-3.4-1.5-7.1-2.3-11-2.3c-15.2,0-27.5,12.3-27.5,27.5c0,2.6,0.4,5.2,1.1,7.6
		h132.9c0.7-2.4,1.1-4.9,1.1-7.6C473.7,72.2,461.4,59.9,446.3,59.9"/>
	<path id="Fill-96" class="st8" d="M473.7,87.3c0-15.2-12.3-27.5-27.5-27.5c-3.9,0-7.6,0.8-11,2.3c0.7-2.6,1.1-5.3,1.1-8.2
		c0-16.7-13.5-30.2-30.2-30.2v71.2h66.5C473.4,92.5,473.7,90,473.7,87.3"/>
	<path id="Fill-97" class="st1" d="M376.2,12c-1.3,0-2.5,0.3-3.6,0.8c0.2-0.9,0.4-1.8,0.4-2.7c0-5.5-4.5-10-10-10
		c-5.5,0-10,4.5-10,10c0,0.9,0.1,1.8,0.4,2.7c-1.1-0.5-2.3-0.8-3.6-0.8c-5,0-9.1,4.1-9.1,9.1c0,0.9,0.1,1.7,0.4,2.5h44.1
		c0.2-0.8,0.4-1.6,0.4-2.5C385.3,16,381.2,12,376.2,12"/>
	<path id="Fill-98" class="st8" d="M385.3,21.1c0-5-4.1-9.1-9.1-9.1c-1.3,0-2.5,0.3-3.6,0.8c0.2-0.9,0.4-1.8,0.4-2.7
		c0-5.5-4.5-10-10-10v23.6h22C385.1,22.8,385.3,22,385.3,21.1"/>
	<path id="Fill-99" class="st1" d="M453.3,128.7c-1.3,0-2.5,0.3-3.6,0.8c0.2-0.9,0.4-1.8,0.4-2.7c0-5.5-4.5-10-10-10
		c-5.5,0-10,4.5-10,10c0,0.9,0.1,1.8,0.4,2.7c-1.1-0.5-2.3-0.8-3.6-0.8c-5,0-9.1,4.1-9.1,9.1c0,0.9,0.1,1.7,0.4,2.5h44.1
		c0.2-0.8,0.4-1.6,0.4-2.5C462.4,132.8,458.4,128.7,453.3,128.7"/>
	<path id="Fill-100" class="st8" d="M462.4,137.8c0-5-4.1-9.1-9.1-9.1c-1.3,0-2.5,0.3-3.6,0.8c0.2-0.9,0.4-1.8,0.4-2.7
		c0-5.5-4.5-10-10-10v23.6h22C462.3,139.5,462.4,138.7,462.4,137.8"/>
	<path id="Fill-101" class="st6" d="M108.4,143c-1.1,0-2.1-0.9-2.1-2.1v-14.2c0-1.1,0.9-2.1,2.1-2.1c1.1,0,2.1,0.9,2.1,2.1v14.2
		C110.5,142.1,109.6,143,108.4,143"/>
	<path id="Fill-102" class="st1" d="M108.4,131c0,0,6.5,7.1,14.6,7.1c8.1,0,14.6-7.1,14.6-7.1s-6.5-7.1-14.6-7.1
		C115,123.9,108.4,131,108.4,131"/>
	<path id="Fill-103" class="st1" d="M108.4,138.9c-8.6,0-15.6,7-15.6,15.6c0,0,0,3.8,0,8.6s-4.2,11.2-7.4,16.1
		c-2.8,4.3-4.5,9.5-4.5,15.1c0,15.2,12.3,27.5,27.5,27.5c15.2,0,27.5-12.3,27.5-27.5c0-5.6-1.7-10.7-4.5-15.1
		c-3.2-4.9-7.4-11.4-7.4-16.1v-8.6C124,145.8,117.1,138.9,108.4,138.9"/>
	<path id="Fill-104" class="st2" d="M97.9,195.4c0,2.5-2,4.5-4.5,4.5c-2.5,0-4.5-2-4.5-4.5c0-2.5,2-4.5,4.5-4.5
		C95.9,190.9,97.9,193,97.9,195.4"/>
	<path id="Fill-105" class="st8" d="M131.4,179.1c-3.2-4.9-7.4-11.4-7.4-16.1v-8.6c0-8.6-7-15.6-15.6-15.6v82.8
		c15.2,0,27.5-12.3,27.5-27.5C135.9,188.6,134.3,183.5,131.4,179.1"/>
	<path id="Fill-106" class="st1" d="M21.1,197c0,0-4.7-5.1-10.5-5.1C4.7,191.8,0,197,0,197s4.7,5.1,10.5,5.1
		C16.3,202.1,21.1,197,21.1,197"/>
	<path id="Fill-107" class="st1" d="M21.1,197c0,0,5.1-4.7,5.1-10.5c0-5.8-5.1-10.5-5.1-10.5s-5.1,4.7-5.1,10.5
		C15.9,192.3,21.1,197,21.1,197"/>
	<path id="Fill-108" class="st1" d="M21.1,197c0,0,0.3-7-3.8-11.1s-11.1-3.8-11.1-3.8s-0.3,7,3.8,11.1C14.1,197.3,21.1,197,21.1,197
		"/>
	<path id="Fill-109" class="st0" d="M39.6,193.3c5.5,5.5,9.2,19.1,3,25.3c-6.1,6.1-19.8,2.4-25.3-3c-5.5-5.5-4.9-14.9,1.2-21
		C24.7,188.3,34.1,187.8,39.6,193.3"/>
	<path id="Fill-110" class="st7" d="M23.8,199.7c-0.3,0.3-0.8,0.3-1.1,0l-0.8-0.8c-0.3-0.3-0.3-0.8,0-1.1c0.3-0.3,0.8-0.3,1.1,0
		l0.8,0.8C24.1,198.9,24.1,199.4,23.8,199.7"/>
	<path id="Fill-111" class="st7" d="M19.5,203.9c-0.3,0.3-0.8,0.3-1.1,0l-0.8-0.8c-0.3-0.3-0.3-0.8,0-1.1c0.3-0.3,0.8-0.3,1.1,0
		l0.8,0.8C19.8,203.1,19.8,203.6,19.5,203.9"/>
	<path id="Fill-112" class="st7" d="M28,195.4c-0.3,0.3-0.8,0.3-1.1,0l-0.8-0.8c-0.3-0.3-0.3-0.8,0-1.1c0.3-0.3,0.8-0.3,1.1,0
		l0.8,0.8C28.3,194.6,28.3,195.1,28,195.4"/>
	<path id="Fill-113" class="st7" d="M30.1,201.8c-0.3,0.3-0.8,0.3-1.1,0l-0.8-0.8c-0.3-0.3-0.3-0.8,0-1.1c0.3-0.3,0.8-0.3,1.1,0
		l0.8,0.8C30.5,201,30.5,201.5,30.1,201.8"/>
	<path id="Fill-114" class="st7" d="M25.9,206.1c-0.3,0.3-0.8,0.3-1.1,0l-0.8-0.8c-0.3-0.3-0.3-0.8,0-1.1c0.3-0.3,0.8-0.3,1.1,0
		l0.8,0.8C26.2,205.2,26.2,205.7,25.9,206.1"/>
	<path id="Fill-115" class="st7" d="M21.7,210.3c-0.3,0.3-0.8,0.3-1.1,0l-0.8-0.8c-0.3-0.3-0.3-0.8,0-1.1c0.3-0.3,0.8-0.3,1.1,0
		l0.8,0.8C22,209.5,22,210,21.7,210.3"/>
	<path id="Fill-116" class="st7" d="M34.4,197.6c-0.3,0.3-0.8,0.3-1.1,0l-0.8-0.8c-0.3-0.3-0.3-0.8,0-1.1c0.3-0.3,0.8-0.3,1.1,0
		l0.8,0.8C34.7,196.7,34.7,197.3,34.4,197.6"/>
	<path id="Fill-117" class="st7" d="M32.3,208.2c-0.3,0.3-0.8,0.3-1.1,0l-0.8-0.8c-0.3-0.3-0.3-0.8,0-1.1c0.3-0.3,0.8-0.3,1.1,0
		l0.8,0.8C32.6,207.4,32.6,207.9,32.3,208.2"/>
	<path id="Fill-118" class="st7" d="M40.8,216.7c-0.3,0.3-0.8,0.3-1.1,0l-0.8-0.8c-0.3-0.3-0.3-0.8,0-1.1c0.3-0.3,0.8-0.3,1.1,0
		l0.8,0.8C41.1,215.8,41.1,216.3,40.8,216.7"/>
	<path id="Fill-119" class="st7" d="M28,212.4c-0.3,0.3-0.8,0.3-1.1,0l-0.8-0.8c-0.3-0.3-0.3-0.8,0-1.1c0.3-0.3,0.8-0.3,1.1,0
		l0.8,0.8C28.3,211.6,28.3,212.1,28,212.4"/>
	<path id="Fill-120" class="st7" d="M36.5,203.9c-0.3,0.3-0.8,0.3-1.1,0l-0.8-0.8c-0.3-0.3-0.3-0.8,0-1.1c0.3-0.3,0.8-0.3,1.1,0
		l0.8,0.8C36.8,203.1,36.8,203.6,36.5,203.9"/>
	<path id="Fill-121" class="st7" d="M38.6,210.3c-0.3,0.3-0.8,0.3-1.1,0l-0.8-0.8c-0.3-0.3-0.3-0.8,0-1.1c0.3-0.3,0.8-0.3,1.1,0
		l0.8,0.8C38.9,209.5,38.9,210,38.6,210.3"/>
	<path id="Fill-122" class="st7" d="M34.4,214.5c-0.3,0.3-0.8,0.3-1.1,0l-0.8-0.8c-0.3-0.3-0.3-0.8,0-1.1c0.3-0.3,0.8-0.3,1.1,0
		l0.8,0.8C34.7,213.7,34.7,214.2,34.4,214.5"/>
	<path id="Fill-123" class="st6" d="M355.1,139.1c0,14.9-12.1,26.9-26.9,26.9c-14.9,0-26.9-12-26.9-26.9s12-26.9,26.9-26.9
		C343,112.1,355.1,124.2,355.1,139.1"/>
	<path id="Fill-124" class="st2" d="M326.9,165.9c0.4,0,0.9,0,1.3,0s0.9,0,1.3,0v-53.8c-0.4,0-0.9,0-1.3,0s-0.9,0-1.3,0V165.9"/>
	<path id="Fill-125" class="st2" d="M301.3,139.1c0,0.4,0,0.9,0,1.3h53.8c0-0.4,0-0.9,0-1.3s0-0.9,0-1.3h-53.8
		C301.3,138.2,301.3,138.6,301.3,139.1"/>
	<path id="Fill-126" class="st2" d="M309,120.2c-0.6,0.6-1.2,1.3-1.8,2c5.6,2.8,9.5,9.3,9.5,16.9c0,7.6-3.9,14.1-9.5,16.9
		c0.6,0.7,1.2,1.4,1.8,2c6.1-3.4,10.3-10.6,10.3-18.9S315.1,123.5,309,120.2"/>
	<path id="Fill-127" class="st2" d="M347.3,120.2c0.6,0.6,1.2,1.3,1.8,2c-5.6,2.8-9.5,9.3-9.5,16.9c0,7.6,3.9,14.1,9.5,16.9
		c-0.6,0.7-1.2,1.4-1.8,2c-6.1-3.4-10.3-10.6-10.3-18.9S341.2,123.5,347.3,120.2"/>
	<path id="Fill-128" class="st9" d="M470.3,221.7h-48.9c-4,0-7.6-3.2-8-7.2l-5.6-50.4c-0.4-4,2.4-7.2,6.4-7.2h63.3
		c4,0,6.8,3.2,6.4,7.2l-5.6,50.4C477.8,218.5,474.3,221.7,470.3,221.7"/>
	<path id="Fill-129" class="st7" d="M421.4,218.1c-2.2,0-4.2-1.8-4.4-4l-5.6-50.4c-0.1-0.9,0.1-1.7,0.7-2.3c0.5-0.6,1.3-0.9,2.2-0.9
		h63.3c0.9,0,1.7,0.3,2.2,0.9c0.5,0.6,0.7,1.4,0.7,2.3l-5.6,50.4c-0.2,2.1-2.3,4-4.4,4H421.4"/>
	<path id="Fill-130" class="st9" d="M465.8,165c0,11-9,20-20,20c-11,0-20-9-20-20c0-11,9-20,20-20C456.9,145,465.8,153.9,465.8,165"
		/>
	<path id="Fill-131" class="st2" d="M445.8,181.3c-9,0-16.4-7.4-16.4-16.4c0-9,7.4-16.4,16.4-16.4c9,0,16.4,7.4,16.4,16.4
		C462.2,174,454.9,181.3,445.8,181.3"/>
	<polyline id="Fill-132" class="st0" points="447.9,166.4 445.8,175 443.7,166.4 447.9,166.4 	"/>
	<path id="Fill-133" class="st5" d="M445.8,153.3c-0.4,0-0.7-0.3-0.7-0.7v-1.9c0-0.4,0.3-0.7,0.7-0.7c0.4,0,0.7,0.3,0.7,0.7v1.9
		C446.5,153,446.2,153.3,445.8,153.3"/>
	<path id="Fill-134" class="st5" d="M440,154.9c-0.3,0.2-0.8,0.1-1-0.3l-0.9-1.6c-0.2-0.3-0.1-0.8,0.3-1c0.3-0.2,0.8-0.1,1,0.3
		l0.9,1.6C440.5,154.2,440.4,154.7,440,154.9"/>
	<path id="Fill-135" class="st5" d="M435.8,159.1c-0.2,0.3-0.6,0.5-1,0.3l-1.6-0.9c-0.3-0.2-0.5-0.6-0.3-1c0.2-0.3,0.6-0.5,1-0.3
		l1.6,0.9C435.8,158.4,436,158.8,435.8,159.1"/>
	<path id="Fill-136" class="st5" d="M434.2,165c0,0.4-0.3,0.7-0.7,0.7h-1.9c-0.4,0-0.7-0.3-0.7-0.7c0-0.4,0.3-0.7,0.7-0.7l1.9,0
		C433.9,164.2,434.2,164.6,434.2,165"/>
	<path id="Fill-137" class="st5" d="M435.8,170.8c0.2,0.3,0.1,0.8-0.3,1l-1.6,0.9c-0.3,0.2-0.8,0.1-1-0.3c-0.2-0.3-0.1-0.8,0.3-1
		l1.6-0.9C435.1,170.3,435.6,170.4,435.8,170.8"/>
	<path id="Fill-138" class="st5" d="M440,175c0.3,0.2,0.5,0.6,0.3,1l-0.9,1.6c-0.2,0.3-0.6,0.5-1,0.3c-0.3-0.2-0.5-0.6-0.3-1
		l0.9-1.6C439.2,174.9,439.7,174.8,440,175"/>
	<path id="Fill-139" class="st5" d="M445.8,176.6c0.4,0,0.7,0.3,0.7,0.7v1.9c0,0.4-0.3,0.7-0.7,0.7c-0.4,0-0.7-0.3-0.7-0.7v-1.9
		C445.1,176.9,445.4,176.6,445.8,176.6"/>
	<path id="Fill-140" class="st5" d="M451.6,175c0.3-0.2,0.8-0.1,1,0.3l0.9,1.6c0.2,0.3,0.1,0.8-0.3,1c-0.3,0.2-0.8,0.1-1-0.3
		l-0.9-1.6C451.2,175.7,451.3,175.2,451.6,175"/>
	<path id="Fill-141" class="st5" d="M455.9,170.8c0.2-0.3,0.6-0.5,1-0.3l1.6,0.9c0.3,0.2,0.5,0.6,0.3,1c-0.2,0.3-0.6,0.5-1,0.3
		l-1.6-0.9C455.8,171.5,455.7,171.1,455.9,170.8"/>
	<path id="Fill-142" class="st5" d="M457.4,165c0-0.4,0.3-0.7,0.7-0.7l1.9,0c0.4,0,0.7,0.3,0.7,0.7c0,0.4-0.3,0.7-0.7,0.7h-1.9
		C457.8,165.7,457.4,165.3,457.4,165"/>
	<path id="Fill-143" class="st5" d="M455.9,159.1c-0.2-0.3-0.1-0.8,0.3-1l1.6-0.9c0.3-0.2,0.8-0.1,1,0.3c0.2,0.3,0.1,0.8-0.3,1
		l-1.6,0.9C456.5,159.6,456.1,159.5,455.9,159.1"/>
	<path id="Fill-144" class="st5" d="M451.6,154.9c-0.3-0.2-0.5-0.6-0.3-1l0.9-1.6c0.2-0.3,0.6-0.5,1-0.3c0.3,0.2,0.5,0.6,0.3,1
		l-0.9,1.6C452.4,155,452,155.1,451.6,154.9"/>
	<path id="Fill-145" class="st5" d="M448.9,165c0,1.7-1.4,3.1-3.1,3.1c-1.7,0-3.1-1.4-3.1-3.1c0-1.7,1.4-3.1,3.1-3.1
		C447.5,161.9,448.9,163.3,448.9,165"/>
	<polygon id="Fill-146" class="st9" points="424,214.4 467.7,214.4 467.7,212.4 424,212.4 	"/>
	<polygon id="Fill-147" class="st9" points="424,207.5 467.7,207.5 467.7,205.4 424,205.4 	"/>
	<polygon id="Fill-148" class="st9" points="424,200.5 467.7,200.5 467.7,198.4 424,198.4 	"/>
	<polygon id="Fill-149" class="st9" points="424,193.5 467.7,193.5 467.7,191.4 424,191.4 	"/>
	<path id="Fill-150" class="st2" d="M433.9,205.9c0,0-101.3-15.8-130.1-1.7c0,0-5.4,14.4,12.2,15.4c0.6,0,1.1,0,1.6,0
		c0-1.5,1.2-2.7,2.7-2.7c1.5,0,2.7,1.2,2.7,2.7c10.6,0,7.4,0,11.3,0c15.2,0,9-7.4,34.7-1c5.2,1.3,10.4,2.1,15.4,2.6
		c0.2-1.2,1.3-2.2,2.6-2.2c1.4,0,2.6,1.1,2.7,2.6c5.7,0.2,11.1,0,16.1-0.5c0.3-1.2,1.3-2.1,2.6-2.1c1,0,1.9,0.6,2.3,1.4
		c4.5-0.7,8.4-1.7,11.6-2.8c0-0.2-0.1-0.4-0.1-0.6c0-1.5,1.2-2.7,2.7-2.7c0.9,0,1.7,0.4,2.2,1.1c0.5-0.3,0.9-0.5,1.3-0.8
		C434.6,210,434.9,207.7,433.9,205.9"/>
	<path id="Fill-151" class="st0" d="M303.7,204.2c0,0,20.8,4,30.1,0.5c15.6-5.8,35,3.7,43.4,6.2c13.2,4,49.7,5.6,56.6-5.1
		c0,0,0.5-7.2-4.9-12.3c-2.6-2.4-10.5-6.4-18.1-4.6c-11.5,2.8-23.3-4.4-26.4-6.2c-2.9-1.7-18.2-11.9-27-15.6c-1-0.4-2.6-0.2-3.6,0.3
		c-6,3.4-26.4,13.6-44.4,4.4c-1-0.5-2.2-0.2-2.6,0.9C304.5,177.9,298.6,193.2,303.7,204.2"/>
	<path id="Fill-152" class="st10" d="M368.7,187.1c11.3,9.2,31.5,13.6,39.5,2.4c-10.6,1.2-20.9-5-23.8-6.7
		c-2.9-1.7-18.2-11.9-27-15.6c-1-0.4-2.6-0.2-3.6,0.3c-2.1,1.2-6,3.2-10.9,5l1.4,5.3C344.4,177.7,359.4,179.5,368.7,187.1"/>
	<path id="Fill-153" class="st2" d="M366.8,186.7c-0.1,0-0.2,0-0.3,0c-0.5-0.1-0.9-0.7-0.7-1.2c1.1-4.2,1.1-9.1,1-11.4
		c-4.2,2-9.4,7.4-9.4,7.4c-0.4,0.4-1,0.4-1.4,0c-0.4-0.4-0.4-1,0-1.4c0.3-0.3,6.6-6.9,11.5-8.5c0.3-0.1,0.6,0,0.9,0.1
		c0.3,0.2,0.4,0.4,0.4,0.8c0,0.3,0.5,7.4-1,13.5C367.6,186.4,367.2,186.7,366.8,186.7"/>
	<path id="Fill-154" class="st2" d="M381.6,195.1c-0.1,0-0.1,0-0.2,0c-0.5-0.1-0.9-0.6-0.8-1.2c0.8-4.3,0.4-9,0.2-11.4
		c-5.4,3.2-8.4,7.2-8.4,7.2c-0.3,0.4-1,0.5-1.4,0.2c-0.4-0.3-0.5-1-0.2-1.4c0.1-0.2,3.7-5,10.4-8.5c0.3-0.1,0.6-0.2,0.9,0
		c0.3,0.1,0.5,0.4,0.5,0.7c0,0.3,1.1,7.2,0,13.5C382.5,194.8,382.1,195.1,381.6,195.1"/>
	<path id="Fill-155" class="st2" d="M387.9,196.7c-0.1,0-0.3,0-0.4-0.1c-0.5-0.2-0.7-0.8-0.5-1.3c0.1-0.2,2.3-4.9,7.4-8.3
		c0.3-0.2,0.6-0.2,1-0.1c0.2,0.1,4.1,1.9,4.2,8.7c0,0.6-0.4,1-1,1c0,0,0,0,0,0c-0.5,0-1-0.4-1-1c0-4.2-1.7-6-2.5-6.6
		c-4.3,3.1-6.2,7.1-6.2,7.2C388.6,196.5,388.3,196.7,387.9,196.7"/>
	<path id="Fill-156" class="st3" d="M309,172.4c5.4,5.2,25.6,21.4,45.3-4.3c0.7-0.9,0.4-1.1-0.5-0.6c-6,3.4-26.4,13.6-44.4,4.4
		C308.4,171.4,308.2,171.6,309,172.4"/>
	<path id="Fill-157" class="st10" d="M303.3,182.7c-1.7,6.6-2.7,14.9,0.4,21.6c0,0,16.3,3.1,26.5,1.4
		C323.6,190,309.8,184.5,303.3,182.7"/>
	<path id="Fill-158" class="st11" d="M515.8,162.1h-2.2c0-8.3-6.8-15.1-15.1-15.1c-8.3,0-15.1,6.8-15.1,15.1h-2.2
		c0-9.5,7.8-17.3,17.3-17.3C508,144.8,515.8,152.5,515.8,162.1"/>
	<polyline id="Fill-159" class="st11" points="512.1,168.5 509.2,166.8 513,160.3 515.9,161.9 512.1,168.5 	"/>
	<path id="Fill-160" class="st5" d="M517.1,156.6c-5.3-3-10.7-3.4-12.2-0.8l-1.4,2.4l19,11l1.4-2.4
		C525.4,164.2,522.3,159.6,517.1,156.6"/>
	<polyline id="Fill-161" class="st11" points="484.9,168.5 487.8,166.8 484,160.3 481.1,161.9 484.9,168.5 	"/>
	<path id="Fill-162" class="st5" d="M479.9,156.6c5.3-3,10.7-3.4,12.2-0.8l1.4,2.4l-19,11l-1.4-2.4
		C471.6,164.2,474.7,159.6,479.9,156.6"/>
	<polyline id="Fill-163" class="st5" points="480.8,221.7 479.7,221.3 481.2,207.4 488.6,210.1 480.8,221.7 	"/>
	<polyline id="Fill-164" class="st5" points="516.2,221.7 517.3,221.3 515.8,207.4 508.4,210.1 516.2,221.7 	"/>
	<path id="Fill-165" class="st3" d="M525.2,188.7c0,14.7-11.9,26.7-26.7,26.7c-14.7,0-26.7-11.9-26.7-26.7
		c0-14.7,11.9-26.7,26.7-26.7C513.2,162.1,525.2,174,525.2,188.7"/>
	<path id="Fill-166" class="st4" d="M498.5,162.1v53.3c14.7,0,26.7-11.9,26.7-26.7C525.2,174,513.2,162.1,498.5,162.1"/>
	<path id="Fill-167" class="st2" d="M498.5,209.5c-11.5,0-20.8-9.3-20.8-20.8c0-11.5,9.3-20.8,20.8-20.8c11.5,0,20.8,9.3,20.8,20.8
		C519.3,200.2,510,209.5,498.5,209.5"/>
	<path id="Fill-168" class="st5" d="M498.5,174.3c-0.6,0-1.2-0.5-1.2-1.2v-1.9c0-0.6,0.5-1.2,1.2-1.2c0.6,0,1.2,0.5,1.2,1.2v1.9
		C499.7,173.8,499.2,174.3,498.5,174.3"/>
	<path id="Fill-169" class="st5" d="M484.1,188.7c0,0.6-0.5,1.2-1.2,1.2H481c-0.6,0-1.2-0.5-1.2-1.2c0-0.6,0.5-1.2,1.2-1.2h1.9
		C483.6,187.6,484.1,188.1,484.1,188.7"/>
	<path id="Fill-170" class="st5" d="M498.5,203.1c0.6,0,1.2,0.5,1.2,1.2v1.9c0,0.6-0.5,1.2-1.2,1.2c-0.6,0-1.2-0.5-1.2-1.2v-1.9
		C497.3,203.6,497.9,203.1,498.5,203.1"/>
	<path id="Fill-171" class="st5" d="M512.9,188.7c0-0.6,0.5-1.2,1.2-1.2h1.9c0.6,0,1.2,0.5,1.2,1.2c0,0.6-0.5,1.2-1.2,1.2h-1.9
		C513.4,189.9,512.9,189.4,512.9,188.7"/>
	<path id="Fill-172" class="st0" d="M511.5,184c0,0-8.2,8.9-11.1,10c-2.9,1.1-6.1-0.4-7.2-3.3c-1.1-2.9,0.4-6.1,3.3-7.2
		C499.5,182.4,511.5,184,511.5,184"/>
	<polyline id="Fill-173" class="st12" points="501,192.1 498.8,192.9 491.7,173.6 494,172.8 501,192.1 	"/>
	<path id="Fill-174" class="st5" d="M500.8,188.7c0,1.3-1.1,2.3-2.3,2.3c-1.3,0-2.3-1-2.3-2.3c0-1.3,1-2.3,2.3-2.3
		C499.8,186.4,500.8,187.4,500.8,188.7"/>
	<path id="Fill-175" class="st5" d="M302,8.7c-11,0-19.9,8.9-19.9,19.9c0,11,8.9,19.9,19.9,19.9c11,0,19.9-8.9,19.9-19.9
		C321.9,17.6,312.9,8.7,302,8.7z M302,49.9c-11.7,0-21.3-9.5-21.3-21.3c0-11.7,9.5-21.3,21.3-21.3c11.7,0,21.3,9.5,21.3,21.3
		C323.2,40.3,313.7,49.9,302,49.9z"/>
	<path id="Fill-176" class="st5" d="M303.9,9.9c-11,0-19.9,8.9-19.9,19.9s8.9,19.9,19.9,19.9s19.9-8.9,19.9-19.9
		S314.8,9.9,303.9,9.9z M303.9,51.1c-11.7,0-21.3-9.5-21.3-21.3c0-11.7,9.5-21.3,21.3-21.3c11.7,0,21.3,9.5,21.3,21.3
		C325.1,41.5,315.6,51.1,303.9,51.1z"/>
	<path id="Fill-177" class="st5" d="M308.1,8.7c-11,0-19.9,8.9-19.9,19.9c0,11,8.9,19.9,19.9,19.9c11,0,19.9-8.9,19.9-19.9
		C328,17.6,319,8.7,308.1,8.7z M308.1,49.9c-11.7,0-21.3-9.5-21.3-21.3c0-11.7,9.5-21.3,21.3-21.3c11.7,0,21.3,9.5,21.3,21.3
		C329.4,40.3,319.8,49.9,308.1,49.9z"/>
	<path id="Fill-178" class="st5" d="M308.8,13.2c-11,0-19.9,8.9-19.9,19.9c0,11,8.9,19.9,19.9,19.9c11,0,19.9-8.9,19.9-19.9
		C328.7,22.1,319.7,13.2,308.8,13.2z M308.8,54.4c-11.7,0-21.3-9.5-21.3-21.3c0-11.7,9.5-21.3,21.3-21.3c11.7,0,21.3,9.5,21.3,21.3
		C330,44.8,320.5,54.4,308.8,54.4z"/>
	<polygon id="Fill-179" class="st5" points="280.7,62.9 282.1,62.9 282.1,28.6 280.7,28.6 	"/>
	<polygon id="Fill-180" class="st5" points="328.7,84.3 330,84.3 330,33.1 328.7,33.1 	"/>
	<polygon id="Fill-181" class="st3" points="326.3,99.2 332.4,99.2 332.4,71.8 326.3,71.8 	"/>
	<path id="Fill-182" class="st4" d="M332.4,77v1.4h-3c-0.3,0-0.5-0.3-0.5-0.7c0-0.4,0.2-0.7,0.5-0.7H332.4"/>
	<path id="Fill-183" class="st4" d="M332.4,80.5v1.4h-3c-0.3,0-0.5-0.3-0.5-0.7s0.2-0.7,0.5-0.7H332.4"/>
	<path id="Fill-184" class="st4" d="M332.4,84v1.4h-3c-0.3,0-0.5-0.3-0.5-0.7c0-0.4,0.2-0.7,0.5-0.7H332.4"/>
	<path id="Fill-185" class="st4" d="M332.4,87.5v1.4h-3c-0.3,0-0.5-0.3-0.5-0.7c0-0.4,0.2-0.7,0.5-0.7H332.4"/>
	<path id="Fill-186" class="st4" d="M332.4,91v1.4h-3c-0.3,0-0.5-0.3-0.5-0.7c0-0.4,0.2-0.7,0.5-0.7H332.4"/>
	<path id="Fill-187" class="st4" d="M332.4,94.5v1.4h-3c-0.3,0-0.5-0.3-0.5-0.7c0-0.4,0.2-0.7,0.5-0.7H332.4"/>
	<path id="Fill-188" class="st4" d="M332.4,73.5h-6.1c-0.7,0-1.3-0.8-1.3-1.7s0.6-1.7,1.3-1.7h6.1c0.7,0,1.3,0.8,1.3,1.7
		S333.1,73.5,332.4,73.5"/>
	<polygon id="Fill-189" class="st3" points="278.4,81.7 284.4,81.7 284.4,54.4 278.4,54.4 	"/>
	<path id="Fill-190" class="st4" d="M284.4,59.6V61h-3c-0.3,0-0.5-0.3-0.5-0.7c0-0.4,0.2-0.7,0.5-0.7H284.4"/>
	<path id="Fill-191" class="st4" d="M284.4,63.1v1.4h-3c-0.3,0-0.5-0.3-0.5-0.7c0-0.4,0.2-0.7,0.5-0.7H284.4"/>
	<path id="Fill-192" class="st4" d="M284.4,66.6V68h-3c-0.3,0-0.5-0.3-0.5-0.7c0-0.4,0.2-0.7,0.5-0.7H284.4"/>
	<path id="Fill-193" class="st4" d="M284.4,70v1.4h-3c-0.3,0-0.5-0.3-0.5-0.7c0-0.4,0.2-0.7,0.5-0.7H284.4"/>
	<path id="Fill-194" class="st4" d="M284.4,73.5v1.4h-3c-0.3,0-0.5-0.3-0.5-0.7c0-0.4,0.2-0.7,0.5-0.7H284.4"/>
	<path id="Fill-195" class="st4" d="M284.4,77v1.4h-3c-0.3,0-0.5-0.3-0.5-0.7c0-0.4,0.2-0.7,0.5-0.7H284.4"/>
	<path id="Fill-196" class="st4" d="M284.4,56.1h-6.1c-0.7,0-1.3-0.8-1.3-1.7c0-1,0.6-1.7,1.3-1.7h6.1c0.7,0,1.3,0.8,1.3,1.7
		C285.7,55.3,285.2,56.1,284.4,56.1"/>
	<polygon id="Fill-197" class="st5" points="478.1,126.7 508.5,126.7 508.5,119.5 478.1,119.5 	"/>
	<polygon id="Fill-198" class="st3" points="472.4,131.3 477.6,131.3 477.6,114.9 472.4,114.9 	"/>
	<polyline id="Fill-199" class="st4" points="469.9,116.4 469.9,129.8 472.4,131.3 472.4,114.9 469.9,116.4 	"/>
	<polyline id="Fill-200" class="st4" points="480.1,116.4 477.6,114.9 477.6,131.3 480.1,129.8 480.1,116.4 	"/>
	<polygon id="Fill-201" class="st3" points="509,131.3 514.2,131.3 514.2,114.9 509,114.9 	"/>
	<polyline id="Fill-202" class="st4" points="506.5,116.4 506.5,129.8 509,131.3 509,114.9 506.5,116.4 	"/>
	<polyline id="Fill-203" class="st4" points="516.7,116.4 514.2,114.9 514.2,131.3 516.7,129.8 516.7,116.4 	"/>
	<polygon id="Fill-204" class="st5" points="490.8,106.8 521.3,106.8 521.3,99.6 490.8,99.6 	"/>
	<polygon id="Fill-205" class="st3" points="485.2,111.4 490.4,111.4 490.4,95 485.2,95 	"/>
	<polyline id="Fill-206" class="st4" points="482.7,96.5 482.7,109.9 485.2,111.4 485.2,95 482.7,96.5 	"/>
	<polyline id="Fill-207" class="st4" points="492.9,96.5 490.4,95 490.4,111.4 492.9,109.9 492.9,96.5 	"/>
	<polygon id="Fill-208" class="st3" points="521.7,111.4 526.9,111.4 526.9,95 521.7,95 	"/>
	<polyline id="Fill-209" class="st4" points="519.2,96.5 519.2,109.9 521.7,111.4 521.7,95 519.2,96.5 	"/>
	<polyline id="Fill-210" class="st4" points="529.4,96.5 526.9,95 526.9,111.4 529.4,109.9 529.4,96.5 	"/>
</g>
</svg>
