<?xml version="1.0" encoding="iso-8859-1"?>
<!-- Generator: Adobe Illustrator 19.0.0, SVG Export Plug-In . SVG Version: 6.00 Build 0)  -->
<svg version="1.1" id="Capa_1" xmlns="http://www.w3.org/2000/svg" xmlns:xlink="http://www.w3.org/1999/xlink" x="0px" y="0px"
	 viewBox="0 0 500.512 500.512" style="enable-background:new 0 0 500.512 500.512;" xml:space="preserve">
<g>
	<path style="fill:#D25627;" d="M497.021,8.375c3.981,5.996,4.208,13.733,0.586,19.952c-7.689,14.009-14.407,28.529-20.106,43.459
		c-17.655,44.138-35.31,211.862-114.759,282.483s-167.724,79.448-238.345,97.103c-60.771,15.193-75.784,30.386-95.665,45.578
		c-6.025,4.54-14.266,4.76-20.525,0.547c-3.961-2.675-6.686-6.826-7.565-11.524s0.161-9.554,2.888-13.48
		c26.914-39.869,38.757-109.912,50.247-171.191C80.261,160.062,169.858,70.094,265.64,54.131
		c47.032-7.839,160.188-26.118,206.584-51.747C480.787-2.394,491.584,0.215,497.021,8.375L497.021,8.375z"/>
	<g>
		<path style="fill:#E57E25;" d="M80.261,407.234c8.828-35.31,8.828-114.759,35.31-176.552s61.793-70.621,61.793-70.621
			c9.615,57.301,0.319,116.174-26.483,167.724C121.202,388.109,80.261,407.234,80.261,407.234z"/>
		<path style="fill:#E57E25;" d="M150.881,398.407c35.31,0,114.759-26.483,158.897-61.793s0-79.448-35.31-79.448
			C212.675,257.165,150.881,398.407,150.881,398.407z"/>
		<path style="fill:#E57E25;" d="M212.675,239.51c17.655-52.966,76.663-127.923,167.724-141.241c0,0,14.199,30.834-44.138,79.448
			C283.295,221.855,265.64,195.372,212.675,239.51z"/>
		<path style="fill:#E57E25;" d="M203.847,142.407c0-17.655,20.847-55.112,88.276-61.793
			C258.472,120.962,225.1,146.642,203.847,142.407z"/>
		<path style="fill:#E57E25;" d="M371.571,274.82c16.324-23.365,25.523-50.962,26.483-79.448
			C393.885,195.382,340.991,213.079,371.571,274.82z"/>
	</g>
</g>
<g>
</g>
<g>
</g>
<g>
</g>
<g>
</g>
<g>
</g>
<g>
</g>
<g>
</g>
<g>
</g>
<g>
</g>
<g>
</g>
<g>
</g>
<g>
</g>
<g>
</g>
<g>
</g>
<g>
</g>
</svg>
