<?xml version="1.0" encoding="UTF-8"?>
<svg width="2393px" height="2234px" viewBox="0 0 2393 2234" version="1.1" xmlns="http://www.w3.org/2000/svg" xmlns:xlink="http://www.w3.org/1999/xlink">
    <!-- Generator: Sketch 51.2 (57519) - http://www.bohemiancoding.com/sketch -->
    <title>brain</title>
    <desc>Created with Sketch.</desc>
    <defs></defs>
    <g id="Page-1" stroke="none" stroke-width="1" fill="none" fill-rule="evenodd">
        <g id="Artboard-4" transform="translate(-7897.000000, -11661.000000)" fill-rule="nonzero">
            <g id="brain" transform="translate(7894.131274, 11655.463320)">
                <path d="M346.97234,1905.14043 C346.97234,1905.14043 637.046809,2239.53191 1193.58511,2239.53191 C1750.14894,2239.53191 2052.07021,1866.74043 2052.07021,1866.74043 L1235.91702,1514.91064 L346.97234,1905.14043 Z" id="Shape" fill="#D6638C"></path>
                <path d="M1199.52766,205.940426 C1199.52766,205.940426 494.010638,627.389362 764.948936,1881.47872 C764.948936,1881.47872 864.453191,2029.14894 1199.52766,2029.14894 C1534.54468,2029.14894 1634.04894,1881.47872 1634.04894,1881.47872 C1905.01915,627.421277 1199.52766,205.940426 1199.52766,205.940426 Z" id="Shape" fill="#E27296"></path>
                <g id="Group">
                    <g id="Shape">
                        <path d="M1173.95745,123.006383 C1173.95745,123.006383 1072.62766,-56.1829787 893.438298,29.5085106 C714.248936,115.2 683.080851,104.642553 542.808511,143.585106 C402.561702,182.553191 386.948936,311.093617 285.702128,451.365957 C184.37234,591.612766 80.693617,708.746809 65.112766,903.517021 C49.5574468,1098.31915 -45.4659574,1101.94468 36.3765957,1382.4383 C131.757447,1709.59787 163.168085,1673.32979 285.702128,1834.37234 C422.017021,2013.5617 663.568085,1853.85957 838.908511,1881.12128 C980.846809,1903.2 1049.26596,1673.52128 1173.95745,1689.10213 L1173.95745,123.006383 Z" fill="#F9BDB3"></path>
                        <g transform="translate(12.765957, 82.978723)" fill="#F99CA7">
                            <path d="M1155.95106,154.838298 C1060.73617,180.134043 958.123404,172.825532 874.882979,117.829787 C867.759574,113.16383 857.010638,114.77234 851.246809,120.861702 C784.002128,192.555319 689.329787,229.257447 592.365957,232.046809 C567.287234,232.755319 567.229787,271.729787 592.365957,270.989362 C700.219149,267.906383 800.7,227.406383 877.225532,150.197872 C852.255319,175.385106 1014.2234,205.92766 1030.67872,207.070213 C1074.88723,210.153191 1123.44255,203.770213 1166.34255,192.357447 C1190.55957,185.948936 1180.27021,148.37234 1155.95106,154.838298 Z"></path>
                            <path d="M522.970213,324.255319 C496.282979,426.593617 421.506383,509.751064 318.402128,536.604255 C308.853191,539.087234 300.989362,550.742553 304.812766,560.565957 C352.32766,684.440426 272.119149,787.570213 161.782979,838.519149 C138.995745,849.051064 158.808511,882.651064 181.461702,872.170213 C308.278723,813.574468 386.112766,700.921277 345.644681,559.857447 C339.612766,538.819149 345.402128,569.821277 354.817021,567.36383 C371.87234,562.940426 389.993617,553.091489 405.631915,545.285106 C440.425532,527.846809 469.13617,497.444681 493.397872,467.859574 C524.234043,430.2 548.22766,381.868085 560.534043,334.570213 C566.82766,310.282979 529.276596,299.968085 522.970213,324.255319 Z"></path>
                            <path d="M1166.3234,310.665957 C1017.42766,249.83617 871.965957,335.061702 801.47234,467.668085 C789.682979,489.829787 823.359574,509.534043 835.123404,487.346809 C898.276596,368.521277 1023.31915,294.044681 1155.95106,348.248936 C1179.2617,357.746809 1189.2766,320.029787 1166.3234,310.665957 Z"></path>
                            <path d="M785.1,277.56383 C688.685106,321.96383 582.791489,436.940426 596.412766,549.051064 C609.702128,658.104255 762.612766,685.640426 846.887234,659.629787 C840.555319,648.765957 834.223404,637.934043 827.891489,627.070213 C763.129787,709.404255 753.031915,854.508511 853.270213,918.070213 C953.565957,981.631915 1108.71064,941.482979 1177.94681,845.751064 C1192.73617,825.36383 1158.9,805.934043 1144.35319,826.07234 C1105.68511,879.478723 1026.61915,905.380851 964.37234,911.904255 C822.376596,926.725532 784.442553,744.887234 855.485106,654.638298 C866.565957,640.582979 856.985106,615.778723 836.57234,622.110638 C787.665957,637.2 742.474468,632.508511 695.559574,612.095745 C608.802128,574.295745 634.180851,491.087234 672.031915,427.8 C701.368085,378.702128 752.757447,335.202128 804.797872,311.240426 C827.565957,300.708511 807.778723,267.140426 785.1,277.56383 Z"></path>
                            <path d="M1161.19149,512.534043 C1034.78298,526.67234 963.497872,636.434043 970.238298,757.959574 C971.687234,782.929787 1010.59787,783.06383 1009.20638,757.959574 C1005.33191,688.665957 1022.85319,623.195745 1082.31702,582.42766 C1103.62979,567.797872 1146.82979,553.091489 1161.21702,551.482979 C1185.83617,548.751064 1186.07872,509.725532 1161.19149,512.534043 Z"></path>
                            <path d="M826.117021,991.729787 C825.817021,1031.32979 842.897872,1071.85532 872.348936,1098.27447 C953.840426,1171.60213 1090.94681,1106.78936 1170.96383,1066.97234 C1193.42553,1055.78298 1173.72128,1022.18936 1151.31702,1033.35319 C1074.54894,1071.50426 863.891489,1150.92128 865.040426,991.73617 C865.251064,966.6 826.282979,966.6 826.117021,991.729787 Z"></path>
                            <path d="M559.104255,635.182979 C524.961702,682.723404 499.857447,740.961702 499.531915,800.042553 C498.957447,914.910638 640.43617,929.234043 724.819149,929.4 C720.23617,918.319149 715.595745,907.238298 711.012766,896.131915 C628.078723,964.934043 541.238298,1097.15745 629.495745,1194.61277 C696.657447,1268.76383 855.517021,1230.30638 936.459574,1205.28511 C960.395745,1197.88723 950.214894,1160.31064 926.119149,1167.73404 C863.457447,1187.08085 797.82766,1197.09574 732.248936,1193.68723 C552.593617,1184.3234 660.855319,988.13617 738.631915,923.7 C752.195745,912.42766 740.623404,890.457447 724.825532,890.431915 C631.493617,890.297872 515.808511,871.92766 544.487234,753.408511 C552.944681,718.423404 571.889362,684.006383 592.793617,654.83617 C607.468085,634.359574 573.625532,614.955319 559.104255,635.182979 Z"></path>
                            <path d="M392.412766,689.897872 C428.189362,767.865957 439.104255,871.244681 373.882979,936.006383 C303.038298,1006.33404 167.891489,1001.4766 79.4170213,972.957447 C55.4297872,965.234043 45.2744681,1002.84255 69.0765957,1010.50851 C181.704255,1046.83404 325.691489,1038.77872 413.048936,951.995745 C484.902128,880.62766 463.889362,752.910638 426.095745,670.244681 C415.614894,647.431915 382.07234,667.219149 392.412766,689.897872 Z"></path>
                            <path d="M240.485106,1067.60426 C152.910638,1235.44468 273.919149,1351.09787 401.253191,1443.64468 C566.119149,1563.42128 732.12766,1681.5383 898.212766,1799.57234 C918.682979,1814.17021 938.16383,1780.33404 917.834043,1765.95319 C813.96383,1692.15957 710.368085,1618.11702 606.804255,1543.91489 C467.023404,1443.75957 165.185106,1296.25532 274.187234,1087.28936 C285.765957,1065.00638 252.140426,1045.30213 240.485106,1067.60426 Z"></path>
                            <path d="M564.210638,972.931915 C324.434043,1028.7383 421.755319,1317.20426 635.221277,1326.75319 C629.655319,1316.98085 624.057447,1307.21489 618.440426,1297.44255 C591.695745,1341.19149 583.346809,1409.93617 620.489362,1451.19574 C727.059574,1569.68936 909.989362,1516.58298 993.855319,1663.81915 C1006.24468,1685.64894 1039.92128,1666.02766 1027.44894,1644.14043 C989.457447,1577.41277 944.731915,1541.31064 871.455319,1518.8234 C788.789362,1493.41277 563.234043,1462.41064 652.065957,1317.08936 C660.089362,1303.95957 649.582979,1288.43617 635.22766,1287.77872 C469.13617,1280.38085 381.72766,1055.37447 574.557447,1010.4766 C599.061702,1004.80213 588.66383,967.251064 564.210638,972.931915 Z"></path>
                            <path d="M1161.19149,1252.71064 C1014.5617,1249.1617 886.729787,1339.76809 888.555319,1494.2617 C888.797872,1519.37234 927.797872,1519.37234 927.523404,1494.2617 C925.965957,1360.62128 1036.2766,1288.67872 1161.21064,1291.68511 C1186.30213,1292.28511 1186.24468,1253.34255 1161.19149,1252.71064 Z"></path>
                            <path d="M25.2765957,1305.8234 C124.589362,1290.3766 174.66383,1373.96809 187.953191,1460.4766 C188.82766,1466.37447 195.619149,1473.24894 201.542553,1474.06596 C315.453191,1490.41277 388.212766,1571.7383 382.014894,1689.03191 C381.197872,1704.58723 398.910638,1712.22766 411.3,1705.87021 C510.47234,1654.92128 604.978723,1687.77447 649.544681,1792.57021 C659.368085,1815.60638 692.885106,1795.73617 683.195745,1772.89149 C630.089362,1648.11702 511.946809,1610.43191 391.621277,1672.21915 C401.393617,1677.84255 411.191489,1683.43404 420.906383,1689.03191 C428.080851,1554.98298 345.446809,1459.24468 213.797872,1436.78298 C239.042553,1441.09787 187.92766,1338.21064 186.095745,1335.34468 C169.940426,1309.28298 142.921277,1292.3617 115.876596,1279.8383 C85.3659574,1265.73191 47.8404255,1263.13404 14.9042553,1268.26596 C-9.84893617,1272.14681 0.682978723,1309.66596 25.2765957,1305.8234 Z"></path>
                            <path d="M998.648936,28.2382979 C882.77234,-20.9106383 769.053191,4.22553191 670.423404,82.2765957 C596.246809,140.948936 498.682979,118.110638 434.304255,211.742553 C374.425532,298.857447 384.089362,342.682979 315.178723,391.97234 C215.706383,463.117021 163.659574,563.929787 180.146809,685.238298 C183.504255,710.074468 221.029787,699.42766 217.723404,674.897872 C190.921277,477.338298 367.442553,475.187234 412.742553,337.065957 C427.831915,291.025532 452.393617,250.391489 483.344681,213.331915 C536.776596,149.170213 591.440426,185.195745 648.995745,151.461702 C762.497872,84.9829787 823.768085,-4.01489362 979.021277,61.8638298 C1001.84043,71.5723404 1021.71064,38.0361702 998.648936,28.2382979 Z"></path>
                        </g>
                    </g>
                    <g transform="translate(1200.000000, 0.000000)" id="Shape">
                        <path d="M25.1297872,123.006383 C25.1297872,123.006383 126.376596,-56.1829787 305.623404,29.5085106 C484.812766,115.2 515.980851,104.642553 656.22766,143.585106 C796.5,182.553191 812.055319,311.093617 913.359574,451.365957 C1014.6383,591.612766 1118.36809,708.746809 1133.89787,903.517021 C1149.51064,1098.31915 1244.4766,1101.94468 1162.69149,1382.4383 C1067.25319,1709.59787 1035.87447,1673.32979 913.365957,1834.37234 C776.993617,2013.5617 535.442553,1853.85957 360.159574,1881.12128 C218.221277,1903.2 149.802128,1673.52128 25.1425532,1689.10213 L25.1425532,123.006383 L25.1297872,123.006383 Z" fill="#F9BDB3"></path>
                        <g transform="translate(0.000000, 82.978723)" fill="#F99CA7">
                            <path d="M30.2617021,154.838298 C125.476596,180.134043 228.146809,172.825532 311.355319,117.829787 C318.453191,113.16383 329.259574,114.77234 334.959574,120.861702 C402.204255,192.555319 496.92766,229.257447 593.840426,232.046809 C618.976596,232.755319 619.02766,271.729787 593.840426,270.989362 C486.012766,267.906383 385.506383,227.406383 309.038298,150.197872 C334.008511,175.385106 172.014894,205.92766 155.52766,207.070213 C111.319149,210.153191 62.7957447,203.770213 19.8638298,192.357447 C-4.3212766,185.948936 5.96808511,148.37234 30.2617021,154.838298 Z"></path>
                            <path d="M663.319149,324.255319 C690.006383,426.593617 764.731915,509.751064 867.861702,536.604255 C877.442553,539.087234 885.248936,550.742553 881.482979,560.565957 C833.942553,684.440426 914.125532,787.570213 1024.4617,838.519149 C1047.24894,849.051064 1027.43617,882.651064 1004.78298,872.170213 C878.017021,813.574468 800.131915,700.921277 840.6,559.857447 C846.631915,538.819149 840.842553,569.821277 831.42766,567.36383 C814.397872,562.940426 796.334043,553.091489 780.66383,545.285106 C745.838298,527.846809 717.102128,497.444681 692.897872,467.859574 C662.061702,430.2 638.017021,381.868085 625.710638,334.570213 C619.385106,310.282979 656.987234,299.968085 663.319149,324.255319 Z"></path>
                            <path d="M19.8893617,310.665957 C168.842553,249.83617 314.27234,335.061702 384.740426,467.668085 C396.529787,489.829787 362.910638,509.534043 351.089362,487.346809 C287.968085,368.521277 162.919149,294.044681 30.2617021,348.248936 C7.05957447,357.746809 -3.00638298,320.029787 19.8893617,310.665957 Z"></path>
                            <path d="M401.112766,277.56383 C497.585106,321.96383 603.446809,436.940426 589.8,549.051064 C576.510638,658.104255 423.6,685.640426 339.382979,659.629787 C345.689362,648.765957 352.021277,637.934043 358.321277,627.070213 C423.134043,709.404255 433.180851,854.508511 332.942553,918.070213 C232.704255,981.631915 77.5595745,941.482979 8.26595745,845.751064 C-6.47234043,825.36383 27.3702128,805.934043 41.9170213,826.07234 C80.5340426,879.478723 159.651064,905.380851 221.897872,911.904255 C363.83617,926.725532 401.770213,744.887234 330.734043,654.638298 C319.710638,640.582979 329.234043,615.778723 349.697872,622.110638 C398.629787,637.2 443.821277,632.508511 490.653191,612.095745 C577.461702,574.295745 552.031915,491.087234 514.231915,427.8 C484.895745,378.702128 433.506383,335.202128 381.408511,311.240426 C358.704255,300.708511 378.459574,267.140426 401.112766,277.56383 Z"></path>
                            <path d="M25.1297872,512.534043 C151.455319,526.67234 222.797872,636.434043 216,757.959574 C214.608511,782.929787 175.640426,783.06383 177.031915,757.959574 C180.906383,688.665957 163.442553,623.195745 103.97234,582.42766 C82.6021277,567.797872 39.4276596,553.091489 25.1042553,551.482979 C0.40212766,548.751064 0.159574468,509.725532 25.1297872,512.534043 Z"></path>
                            <path d="M360.146809,991.729787 C360.389362,1031.32979 343.308511,1071.85532 313.914894,1098.27447 C232.423404,1171.60213 95.2595745,1106.78936 15.3,1066.97234 C-7.21276596,1055.78298 12.4914894,1022.18936 34.9468085,1033.35319 C111.689362,1071.50426 322.37234,1150.92128 321.17234,991.73617 C321.038298,966.6 359.929787,966.6 360.146809,991.729787 Z"></path>
                            <path d="M627.102128,635.182979 C661.244681,682.723404 686.374468,740.961702 686.674468,800.042553 C687.248936,914.910638 545.770213,929.234043 461.444681,929.4 C466.02766,918.319149 470.617021,907.238298 475.2,896.131915 C558.191489,964.934043 645.031915,1097.15745 556.742553,1194.61277 C489.606383,1268.76383 330.695745,1230.30638 249.753191,1205.28511 C225.874468,1197.88723 236.055319,1160.31064 260.125532,1167.73404 C322.812766,1187.08085 388.448936,1197.09574 453.995745,1193.68723 C633.676596,1184.3234 525.389362,988.13617 447.66383,923.7 C434.074468,912.42766 445.614894,890.457447 461.470213,890.431915 C554.751064,890.297872 670.43617,871.92766 641.808511,753.408511 C633.351064,718.423404 614.406383,684.006383 593.476596,654.83617 C578.776596,634.359574 612.587234,614.955319 627.102128,635.182979 Z"></path>
                            <path d="M793.825532,689.897872 C758.074468,767.865957 747.134043,871.244681 812.412766,936.006383 C883.206383,1006.33404 1018.34681,1001.4766 1106.87872,972.957447 C1130.86596,965.234043 1141.02128,1002.84255 1117.21915,1010.50851 C1004.59149,1046.83404 860.604255,1038.77872 773.195745,951.995745 C701.33617,880.62766 722.355319,752.910638 760.180851,670.244681 C770.655319,647.431915 804.223404,667.219149 793.825532,689.897872 Z"></path>
                            <path d="M945.721277,1067.60426 C1033.29574,1235.44468 912.319149,1351.09787 784.953191,1443.64468 C620.119149,1563.42128 454.13617,1681.5383 288.044681,1799.57234 C267.574468,1814.17021 248.093617,1780.33404 268.365957,1765.95319 C372.23617,1692.15957 475.882979,1618.11702 579.453191,1543.91489 C719.234043,1443.75957 1021.07234,1296.25532 912.070213,1087.28936 C900.478723,1065.00638 934.123404,1045.30213 945.721277,1067.60426 Z"></path>
                            <path d="M622.02766,972.931915 C861.829787,1028.7383 764.482979,1317.20426 551.017021,1326.75319 C556.640426,1316.98085 562.231915,1307.21489 567.855319,1297.44255 C594.574468,1341.19149 602.897872,1409.93617 565.806383,1451.19574 C459.185106,1569.68936 276.331915,1516.58298 192.440426,1663.81915 C179.993617,1685.64894 146.348936,1666.02766 158.789362,1644.14043 C196.857447,1577.41277 241.506383,1541.31064 314.782979,1518.8234 C397.5,1493.41277 623.004255,1462.41064 534.197872,1317.08936 C526.2,1303.95957 536.706383,1288.43617 551.010638,1287.77872 C717.153191,1280.38085 804.510638,1055.37447 611.680851,1010.4766 C587.208511,1004.80213 597.606383,967.251064 622.02766,972.931915 Z"></path>
                            <path d="M25.1297872,1252.71064 C171.734043,1249.1617 299.508511,1339.76809 297.708511,1494.2617 C297.434043,1519.37234 258.465957,1519.37234 258.765957,1494.2617 C260.323404,1360.62128 150.012766,1288.67872 25.1042553,1291.68511 C-0.00638297872,1292.28511 0.0510638298,1253.34255 25.1297872,1252.71064 Z"></path>
                            <path d="M1160.9617,1305.8234 C1061.70638,1290.3766 1011.62553,1373.96809 998.33617,1460.4766 C997.461702,1466.37447 990.670213,1473.24894 984.746809,1474.06596 C870.778723,1490.41277 798.025532,1571.7383 804.274468,1689.03191 C805.091489,1704.58723 787.32766,1712.22766 774.989362,1705.87021 C675.785106,1654.92128 581.310638,1687.77447 536.744681,1792.57021 C526.921277,1815.60638 493.353191,1795.73617 503.093617,1772.89149 C556.148936,1648.11702 674.368085,1610.43191 794.642553,1672.21915 C784.92766,1677.84255 775.129787,1683.43404 765.357447,1689.03191 C758.234043,1554.98298 840.817021,1459.24468 972.523404,1436.78298 C947.278723,1441.09787 998.393617,1338.21064 1000.16809,1335.34468 C1016.38085,1309.28298 1043.42553,1292.3617 1070.38723,1279.8383 C1100.95532,1265.73191 1138.47447,1263.13404 1171.39149,1268.26596 C1196.14468,1272.14681 1185.5234,1309.66596 1160.9617,1305.8234 Z"></path>
                            <path d="M187.589362,28.2382979 C303.517021,-20.9106383 417.185106,4.22553191 515.865957,82.2765957 C590.017021,140.948936 687.606383,118.110638 751.92766,211.742553 C811.806383,298.857447 802.142553,342.682979 871.053191,391.97234 C970.557447,463.117021 1022.57234,563.929787 1006.08511,685.238298 C1002.72766,710.074468 965.202128,699.42766 968.559574,674.897872 C995.304255,477.338298 818.87234,475.187234 773.514894,337.065957 C758.425532,291.025532 733.914894,250.391489 702.970213,213.331915 C649.480851,149.170213 594.817021,185.195745 537.261702,151.461702 C423.759574,84.9829787 362.57234,-4.01489362 207.23617,61.8638298 C184.397872,71.5723404 164.502128,38.0361702 187.589362,28.2382979 Z"></path>
                        </g>
                    </g>
                </g>
            </g>
        </g>
    </g>
</svg>