<?xml version="1.0" encoding="UTF-8"?>
<svg width="2467px" height="2000px" viewBox="0 0 2467 2000" version="1.1" xmlns="http://www.w3.org/2000/svg" xmlns:xlink="http://www.w3.org/1999/xlink">
    <!-- Generator: Sketch 51.2 (57519) - http://www.bohemiancoding.com/sketch -->
    <title>kidneys</title>
    <desc>Created with Sketch.</desc>
    <defs></defs>
    <g id="Page-1" stroke="none" stroke-width="1" fill="none" fill-rule="evenodd">
        <g id="Artboard-4" transform="translate(-14030.000000, -13479.000000)" fill-rule="nonzero">
            <g id="kidneys" transform="translate(14029.000000, 13479.000000)">
                <g id="kidney" transform="translate(1851.187500, 1000.000000) scale(-1, 1) translate(-1851.187500, -1000.000000) translate(1234.000000, 0.000000)">
                    <path d="M636.460938,638.035156 L679.429688,951.992188 C1102.57422,884.425781 997.71875,1999.94141 997.71875,1999.94141 L1225.98828,1999.94141 C1308.26172,320.535156 636.460938,638.035156 636.460938,638.035156 Z" id="Shape" fill="#DA4453"></path>
                    <path d="M785.628906,878.503906 C785.628906,878.503906 801.742188,844.265625 800.15625,795.316406 C801.742188,746.371094 785.628906,712.066406 785.628906,712.066406 C1026.52734,651.277344 1026.52734,-81.5546875 536.1875,7.4921875 C49.5625,95.8710937 2.69140625,614.230469 1.34765625,795.316406 C2.69140625,976.34375 49.5625,1494.76172 536.183594,1583.14062 C1026.52734,1672.19141 1026.52734,939.355469 785.628906,878.503906 Z" id="Shape" fill="#EC5564"></path>
                    <g id="Group" opacity="0.2" fill="#FFFFFF">
                        <path d="M619.558594,1583.14062 C132.9375,1494.76172 86,976.34375 84.65625,795.316406 C86,614.230469 132.9375,95.8710938 619.558594,7.49609375 C632.070312,5.23828125 644.277344,3.52734375 656.117188,2.30859375 C619.984375,-1.83984375 580.070312,-0.49609375 536.1875,7.49609375 C49.5625,95.8710938 2.69140625,614.230469 1.34765625,795.316406 C2.69140625,976.34375 49.5625,1494.76172 536.183594,1583.14062 C580.066406,1591.13672 619.984375,1592.48047 656.113281,1588.32812 C644.273438,1587.10938 632.066406,1585.39844 619.558594,1583.14062 Z" id="Shape"></path>
                    </g>
                </g>
                <g id="kidney">
                    <path d="M636.460938,638.035156 L679.429688,951.992188 C1102.57422,884.425781 997.71875,1999.94141 997.71875,1999.94141 L1225.98828,1999.94141 C1308.26172,320.535156 636.460938,638.035156 636.460938,638.035156 Z" id="Shape" fill="#DA4453"></path>
                    <path d="M785.628906,878.503906 C785.628906,878.503906 801.742188,844.265625 800.15625,795.316406 C801.742188,746.371094 785.628906,712.066406 785.628906,712.066406 C1026.52734,651.277344 1026.52734,-81.5546875 536.1875,7.4921875 C49.5625,95.8710938 2.69140625,614.230469 1.34765625,795.316406 C2.69140625,976.34375 49.5625,1494.76172 536.183594,1583.14062 C1026.52734,1672.19141 1026.52734,939.355469 785.628906,878.503906 Z" id="Shape" fill="#EC5564"></path>
                    <g id="Group" opacity="0.2" fill="#FFFFFF">
                        <path d="M619.558594,1583.14062 C132.9375,1494.76172 86,976.34375 84.65625,795.316406 C86,614.230469 132.9375,95.8710938 619.558594,7.49609375 C632.070312,5.23828125 644.277344,3.52734375 656.117188,2.30859375 C619.984375,-1.83984375 580.070312,-0.49609375 536.1875,7.49609375 C49.5625,95.8710938 2.69140625,614.230469 1.34765625,795.316406 C2.69140625,976.34375 49.5625,1494.76172 536.183594,1583.14062 C580.066406,1591.13672 619.984375,1592.48047 656.113281,1588.32812 C644.273438,1587.10938 632.066406,1585.39844 619.558594,1583.14062 Z" id="Shape"></path>
                    </g>
                </g>
            </g>
        </g>
    </g>
</svg>