<?xml version="1.0" encoding="iso-8859-1"?>
<!-- Generator: Adobe Illustrator 19.0.0, SVG Export Plug-In . SVG Version: 6.00 Build 0)  -->
<svg version="1.1" id="Capa_1" xmlns="http://www.w3.org/2000/svg" xmlns:xlink="http://www.w3.org/1999/xlink" x="0px" y="0px"
	 viewBox="0 0 512 512" style="enable-background:new 0 0 512 512;" xml:space="preserve">
<path style="fill:#9268CA;" d="M286.502,194.63h-63.467c-25.607,0-47.601,22.008-47.601,47.601v269.765H327.59V384.089l6.527-25.021
	V242.23C334.117,216.638,312.109,194.63,286.502,194.63"/>
<path style="fill:#7450A8;" d="M227.622,233.509c-35.49,0-64.267,28.777-64.267,64.267s28.777,64.267,64.267,64.267V233.509z"/>
<path style="fill:#9268CA;" d="M227.622,247.791c-27.606,0-49.986,22.379-49.986,49.986c0,27.606,22.379,49.986,49.986,49.986
	V247.791z"/>
<path style="fill:#7450A8;" d="M256.185,233.509c-35.49,0-64.267,28.777-64.267,64.267s28.777,64.267,64.267,64.267V233.509z"/>
<path style="fill:#9268CA;" d="M256.185,247.791c-27.606,0-49.986,22.379-49.986,49.986c0,27.606,22.379,49.986,49.986,49.986
	V247.791z"/>
<path style="fill:#7450A8;" d="M139.268,512h102.17V308.488c-6.47-1.085-13.082-1.785-19.866-1.785
	c-65.838,0-119.208,53.37-119.208,119.208C102.365,459.787,116.575,490.292,139.268,512"/>
<path style="fill:#9268CA;" d="M238.904,257.368v64.139c-5.656-0.943-11.411-1.557-17.324-1.557
	c-58.526,0-105.969,47.429-105.969,105.955c0,35.504,17.538,66.866,44.359,86.089h152.756V216.837L238.904,257.368z"/>
<path style="fill:#7450A8;" d="M319.56,226.368l69.28,73.036l-61.254,64.424l-0.014,43.502l-56.284,38.189l-37.718-59.112
	l80.634-82.976l-27.692-27.464L319.56,226.368z"/>
<path style="fill:#9268CA;" d="M319.56,208.516l78.035,81.319c0,0,27.092,21.837,0,47.601
	c-16.267,15.467-118.209,84.119-118.209,84.119l-31.719-31.734l86.461-84.104l-47.615-47.615L319.56,208.516z"/>
<path style="fill:#664131;" d="M260.914,391.067c-16.053-7.641-31.277-6.584-46.001,2.028c-7.027,4.127-9.911,11.839,0.871,14.382
	C226.609,410.019,260.914,391.067,260.914,391.067"/>
<path style="fill:#7C533E;" d="M282.53,418.445c1.985,25.207-31.805,48.757-57.412,45.687
	c-18.309-2.199-34.233-51.528-12.525-57.883c19.38-5.656,24.721-23.236,47.701-16.667
	C278.56,394.795,281.802,408.762,282.53,418.445"/>
<g>
	<path style="fill:#583529;" d="M265.599,428.192l-3.028-6.298c0,0-10.997,16.381-26.321,22.693
		c-11.611,4.741-21.394,5.227-26.521,4.37c2.199,4.185,2.242,4.899,5.127,7.569C230.809,457.098,256.302,448.544,265.599,428.192"/>
	<path style="fill:#583529;" d="M233.933,427.635c14.139-9.683,18.266-18.937,18.266-18.937l-4.613-5.841
		c0,0-16.352,25.364-45.373,24.05c0.214,3.542-0.086,4.227,0.971,7.855C207.083,434.905,222.45,435.49,233.933,427.635"/>
</g>
<path style="fill:#0B0200;" d="M192.963,66.544c8.226,19.78-1.028,42.402-20.651,50.557c-19.651,8.155-42.216-1.243-50.428-21.023
	c-8.212-19.766,1.028-42.402,20.68-50.557C162.2,37.352,184.765,46.764,192.963,66.544"/>
<path style="fill:#7C533E;" d="M270.226,166.365c17.181-20.494,27.435-46.687,18.623-67.852l-14.567-35.09
	c-78.749,29.649-111.139-11.04-111.139-11.04s15.41,37.104-17.695,56.012l17.609,42.373c14.41,34.619,34.019,59.426,68.594,45.201
	l1.185,4.67c2.928,11.654,0.785,21.108,17.966,21.765c12.011,0.457,28.22-20.994,25.293-32.662L270.226,166.365z"/>
<path style="fill:#0B0200;" d="M362.014,75.149c11.768-31.448-16.552-55.355-40.66-57.812c-14.624-1.485-27.806,7.841-34.247,19.009
	C257.816-12.697,214-1.143,186.136,8.668c-29.549,10.383-73.479,40.96-56.241,73.836c17.238,32.862,74.807,18.737,74.807,18.737
	l20.851,33.59c-5.627-28.906,13.553-35.361,22.436-29.063c9.34,6.641,3.128,27.949,7.384,36.332
	c4.256,8.398,18.994,19.909,18.994,19.909c9.055-11.497,37.632-51.1,24.279-99.043c5.527-2.071,13.825-0.671,20.537,2.828
	c17.024,8.826,3.613,52.87,27.292,66.795c22.693,13.353,36.018-4.999,36.018-4.999C359.215,128.377,350.774,105.212,362.014,75.149"
	/>
<path style="fill:#3D2E24;" d="M175.377,166.126l-4.399,1.828c-1.928,0.8-4.156-0.086-4.956-2.042
	c-0.785-1.928,0.129-4.142,2.042-4.941l4.413-1.828c1.942-0.814,4.156,0.114,4.956,2.028
	C178.234,163.127,177.305,165.312,175.377,166.126"/>
<path d="M178.738,119.648c-1.6-3.827-6.041-5.67-9.911-4.07c-3.856,1.6-5.698,6.055-4.099,9.883l2.928,7.012
	c1.6,3.842,6.027,5.684,9.883,4.085c3.885-1.6,5.698-6.041,4.099-9.897L178.738,119.648z"/>
<path style="fill:#DF1F32;" d="M181.366,183.282c3.47,4.213,7.269,7.726,11.368,10.468c15.081-8.683,16.124-21.894,16.124-21.894
	s-13.368,5.556-26.764,11.14C181.823,183.096,181.638,183.167,181.366,183.282"/>
<g>
</g>
<g>
</g>
<g>
</g>
<g>
</g>
<g>
</g>
<g>
</g>
<g>
</g>
<g>
</g>
<g>
</g>
<g>
</g>
<g>
</g>
<g>
</g>
<g>
</g>
<g>
</g>
<g>
</g>
</svg>
