<?xml version="1.0" encoding="UTF-8"?>
<svg width="2462px" height="1482px" viewBox="0 0 2462 1482" version="1.1" xmlns="http://www.w3.org/2000/svg" xmlns:xlink="http://www.w3.org/1999/xlink">
    <!-- Generator: Sketch 51.2 (57519) - http://www.bohemiancoding.com/sketch -->
    <title>pancreas</title>
    <desc>Created with Sketch.</desc>
    <defs></defs>
    <g id="Page-1" stroke="none" stroke-width="1" fill="none" fill-rule="evenodd">
        <g id="Artboard-4" transform="translate(-6251.000000, -9230.000000)" fill-rule="nonzero">
            <g id="pancreas" transform="translate(6251.053640, 9230.099010)">
                <path d="M2445.96956,34.3554251 C2445.96956,34.3554251 2385.65764,-41.808136 2284.09605,34.3554251 C2284.09605,34.3554251 2211.11258,-38.6280418 2100.00461,34.3554251 C2100.00461,34.3554251 1985.71654,-13.2300151 1944.46687,66.0892249 C1944.46687,66.0892249 1820.68735,-6.89424202 1776.25149,104.183213 C1776.25149,104.183213 1661.98784,31.1997462 1601.67592,129.58124 C1601.67592,129.58124 1477.87198,43.8712923 1389.00635,129.58124 C1389.00635,129.58124 1208.07059,75.6050921 1128.74525,186.713066 C1128.74525,186.713066 1052.58169,113.729599 941.473712,186.713066 C941.473712,186.713066 751.015979,139.097107 668.492229,215.291187 C668.492229,215.291187 514.059286,186.713066 424.638212,259.720949 C424.638212,259.720949 293.943055,272.392495 233.631134,383.500469 C233.631134,383.500469 97.1251329,456.483936 100.335746,580.293975 C100.335746,580.293975 -61.5377624,704.073496 27.3522793,891.351135 C27.3522793,891.351135 -26.6238684,1018.31075 40.0238255,1151.61224 C40.0238255,1151.61224 78.1178137,1319.82763 205.083532,1326.21223 C205.083532,1326.21223 297.129253,1453.17184 452.642573,1443.65598 C452.642573,1443.65598 652.616173,1527.23569 766.879827,1444.18091 C766.879827,1444.18091 890.683762,1399.22011 951.001787,1310.35449 C951.001787,1310.35449 1046.20319,1215.12867 976.399814,1091.31863 C976.399814,1091.31863 985.915681,973.874884 897.025639,958.023244 C897.025639,958.023244 1043.04751,951.687471 1084.29717,894.555644 C1084.29717,894.555644 1258.87275,897.711323 1325.52044,815.18147 C1325.52044,815.18147 1496.94034,796.119216 1560.43235,704.073496 C1560.43235,704.073496 1728.64774,678.675469 1817.50726,586.629748 C1817.50726,586.629748 1941.3112,558.051628 2030.17682,516.80196 C2030.17682,516.80196 2185.71456,510.466187 2223.78413,440.638399 C2223.78413,440.638399 2357.11004,399.388732 2388.84384,307.343012 C2388.84384,307.343012 2471.37369,224.813158 2445.97566,158.165465 C2445.96956,158.159361 2480.81021,59.7778671 2445.96956,34.3554251 Z" id="Shape" fill="#FCBE97"></path>
                <path d="M385.823972,1103.89252 C479.02942,971.280758 460.437161,804.774444 368.916369,677.338731 C357.056632,660.882812 329.534474,676.710037 341.491872,693.349071 C427.04312,812.526305 445.476679,963.937853 358.399474,1087.85166 C346.649606,1104.64939 374.202284,1120.50714 385.823972,1103.89252 Z" id="Shape" fill="#EDA37A"></path>
                <path d="M436.833659,844.131924 C560.771879,734.629257 671.483105,569.020206 645.590668,397.600311 C642.569273,377.384434 611.964681,386.003038 614.986076,406.011385 C638.99243,565.046614 528.537566,720.822399 414.353262,821.651527 C399.026551,835.244751 421.531363,857.61528 436.833659,844.131924 Z" id="Shape" fill="#EDA37A"></path>
                <path d="M604.493596,606.168101 C813.43372,595.388741 1060.12602,523.534482 1177.22795,337.86215 C1188.19042,320.508968 1160.69268,304.577978 1149.80345,321.85181 C1039.40352,496.927898 801.622813,564.283636 604.493596,574.434301 C584.16785,575.459744 584.064085,607.242374 604.493596,606.168101 Z" id="Shape" fill="#EDA37A"></path>
                <path d="M1070.74668,450.837895 C1319.5448,481.601187 1668.14049,471.053772 1833.24903,253.202061 C1845.6337,236.898737 1818.02609,221.102031 1805.80012,237.216136 C1649.18201,443.842909 1306.6291,448.231561 1070.74057,419.097992 C1050.44535,416.577111 1050.70781,448.365845 1070.74668,450.837895 Z" id="Shape" fill="#EDA37A"></path>
                <path d="M1710.49495,360.605012 C1890.85696,376.828985 2118.1696,355.740261 2249.76202,218.391932 C2263.88017,203.59015 2241.47913,181.109753 2227.28162,195.942054 C2101.63433,327.186555 1882.83653,344.381038 1710.52547,328.871212 C1690.08986,327.00344 1690.30349,358.761656 1710.49495,360.605012 Z" id="Shape" fill="#EDA37A"></path>
                <path d="M429.838673,954.580685 C542.313904,938.124766 665.013047,999.803944 741.786991,1085.93506 C755.48398,1101.23735 777.830093,1078.70202 764.236869,1063.48518 C679.759895,968.704942 550.932509,905.054228 421.397079,923.982197 C401.205617,926.948658 409.805911,957.52273 429.838673,954.580685 Z" id="Shape" fill="#EDA37A"></path>
                <path d="M552.537816,701.235216 C641.824606,706.228147 722.877333,764.019187 764.682449,840.945726 C774.515715,858.927603 801.885278,842.892847 792.131361,824.935387 C744.753451,737.858182 652.890846,675.153561 552.537816,669.525831 C532.114409,668.347793 532.187654,700.106008 552.537816,701.235216 Z" id="Shape" fill="#EDA37A"></path>
                <path d="M933.819512,530.49895 C1044.16451,521.453077 1157.56142,569.355916 1217.34841,663.745507 C1228.26205,680.964404 1255.7598,665.05783 1244.79732,647.735167 C1179.2239,544.250873 1055.57867,488.779288 933.819512,498.76515 C913.524285,500.419287 913.365586,532.183606 933.819512,530.49895 Z" id="Shape" fill="#EDA37A"></path>
                <path d="M1522.72291,428.095034 C1580.74589,458.669106 1621.65985,520.586334 1630.15027,584.847431 C1632.78102,604.855778 1664.51482,605.118242 1661.88407,584.847431 C1651.94704,509.471263 1607.38299,436.878442 1538.73324,400.67664 C1520.67202,391.154669 1504.63116,418.548647 1522.72291,428.095034 Z" id="Shape" fill="#EDA37A"></path>
            </g>
        </g>
    </g>
</svg>