<?xml version="1.0" encoding="UTF-8"?>
<svg width="2389px" height="1794px" viewBox="0 0 2389 1794" version="1.1" xmlns="http://www.w3.org/2000/svg" xmlns:xlink="http://www.w3.org/1999/xlink">
    <!-- Generator: Sketch 51.2 (57519) - http://www.bohemiancoding.com/sketch -->
    <title>liver</title>
    <desc>Created with Sketch.</desc>
    <defs></defs>
    <g id="Page-1" stroke="none" stroke-width="1" fill="none" fill-rule="evenodd">
        <g id="Artboard-4" transform="translate(-11463.000000, -12275.000000)" fill-rule="nonzero">
            <g id="liver" transform="translate(11457.297297, 12269.042471)">
                <path d="M2393.8843,166.386777 C2389.50744,53.9041322 2271.46446,23.5570248 1638.90909,30.3933884 C1006.43306,37.1966942 387.484298,-132.866116 149.421488,343.226446 C-88.6413223,819.292562 -6.98181818,1825.99669 231.021488,1798.70413 C469.110744,1771.52397 860.25124,1352.55537 1043.8876,1155.39174 C1227.47107,958.201653 1476.35041,995.91405 1727.36529,902.790083 C2160.53554,741.983471 2400.72066,343.166942 2393.8843,166.386777 Z" id="Shape" fill="#ED5145"></path>
                <path d="M969.857851,75.722314 C969.857851,75.722314 1142.57851,334.816529 1124.0595,575.418182 C1105.5405,816.019835 433.104132,1587.2595 161.586777,1451.5438 C161.586777,1451.5438 180.072727,1574.89587 346.671074,1531.70909 C513.236364,1488.58182 834.029752,1223.19339 975.953719,1019.62314 C1117.87769,816.026446 1247.43802,806.684298 1420.15868,808.290909 C1592.87934,809.897521 2119.27273,610.816529 2197.52066,334.816529 C2197.52066,334.816529 2037.07769,563.140496 1697.7719,643.332231 C1358.53884,723.464463 1203.96694,139.742149 969.857851,75.722314 Z" id="Shape" fill="#F47673"></path>
            </g>
        </g>
    </g>
</svg>