<?xml version="1.0" encoding="UTF-8"?>
<svg width="2398px" height="2317px" viewBox="0 0 2398 2317" version="1.1" xmlns="http://www.w3.org/2000/svg" xmlns:xlink="http://www.w3.org/1999/xlink">
    <!-- Generator: Sketch 51.2 (57519) - http://www.bohemiancoding.com/sketch -->
    <title>intestine</title>
    <desc>Created with Sketch.</desc>
    <defs></defs>
    <g id="Page-1" stroke="none" stroke-width="1" fill="none" fill-rule="evenodd">
        <g id="Artboard-4" transform="translate(-9986.000000, -9466.000000)" fill-rule="nonzero">
            <g id="intestine" transform="translate(9986.000000, 9462.000000)">
                <path d="M950.825,2098.575 C950.825,2098.575 900.08125,2025.59375 846.15625,2066.8625 C792.20625,2108.08125 589.16875,2238.1875 573.28125,1939.95625 C573.28125,1939.95625 395.63125,2016.0625 392.425,1847.9375 C392.425,1847.9375 214.74375,1870.11875 246.4875,1676.6125 C246.4875,1676.6125 78.3375,1590.95 170.35625,1470.4 C170.35625,1470.4 -4.175,1372.05625 100.525,1238.8 C100.525,1238.8 -58.41875,1099.1625 67.0625,965.95625 C67.0625,965.95625 -58.09375,772.39375 87.81875,670.875 C87.81875,670.875 -102.4875,464.6625 78.3125,344.08125 C78.3125,344.08125 97.34375,33.14375 332.125,96.625 C332.125,96.625 478.09375,-77.85 665.275,109.33125 C665.275,109.33125 893.7,4.60625 969.83125,248.94375 C969.83125,248.94375 1131.68125,106.18125 1268.0875,264.825 C1268.0875,264.825 1353.75,131.5625 1487.0125,182.3375 C1487.0125,182.3375 1563.14375,-25.46875 1743.975,51.5 C1743.975,51.5 1947.0125,-77.8 2054.8875,90.35 C2054.8875,90.35 2277.0125,55.43125 2273.8125,283.85625 C2273.8125,283.85625 2480.025,363.1125 2346.79375,607.45 C2346.79375,607.45 2476.85,772.45 2321.40625,959.63125 C2321.40625,959.63125 2429.28125,1115.1 2229.44375,1311.7875 C2229.44375,1311.7875 2321.40625,1426.0125 2191.35,1575.13125 C2191.35,1575.13125 2232.56875,1768.6375 1959.71875,1854.3 C1959.71875,1854.3 1953.41875,1965.35 1632.975,1962.175 C1632.975,1962.175 1544.08125,2022.45 1398.14375,2000.26875 C1398.14375,2000.26875 1261.7375,2092.25625 1268.0875,2320.65625 C1268.0875,2320.65625 1185.63125,2282.75 1087.23125,2320.65625 C1087.23125,2320.65625 998.3625,1955.79375 1064.99375,1816.20625 C1131.625,1676.61875 1388.6125,1714.6875 1388.6125,1714.6875 C1388.6125,1714.6875 1410.79375,1568.75 1588.5,1556.04375 C1588.5,1556.04375 1642.45,1448.2 1756.65,1460.90625 C1756.65,1460.90625 1781.98125,1299.05625 1899.4125,1299.05625 C1899.4125,1299.05625 1845.4625,1118.2 1934.3,1086.4875 C1934.3,1086.4875 1861.36875,896.15625 1943.83125,839.03125 C1943.83125,839.03125 1915.24375,655.025 1985.075,613.78125 C1985.075,613.78125 1899.3875,461.51875 1962.8625,417.09375 C1962.8625,417.09375 1855.01875,490.025 1762.975,461.4875 C1762.975,461.4875 1702.675,645.49375 1528.19375,632.7875 C1528.19375,632.7875 1410.79375,724.775 1280.7625,686.7375 C1280.7625,686.7375 1179.24375,759.66875 1004.74375,629.6125 C1004.74375,629.6125 795.325,674.05625 757.2875,531.29375 C757.2875,531.29375 579.58125,566.2125 525.65625,464.6625 C525.65625,464.6625 604.9125,639.1375 474.85625,740.68125 C474.85625,740.68125 547.8375,896.125 506.625,981.7875 C506.625,981.7875 624.025,1050.65 557.4,1204.9875 C557.4,1204.9875 687.45625,1289.51875 627.18125,1448.1625 C627.18125,1448.1625 773.15,1508.4375 766.79375,1670.23125 C766.79375,1670.23125 925.46875,1724.15625 919.0875,1857.4125 C912.78125,1990.7 966.70625,2022.4375 950.825,2098.575 Z" id="Shape" fill="#E17567"></path>
                <g id="Group" transform="translate(87.500000, 68.750000)" fill="#B2352B">
                    <path d="M509.95625,1842.6375 C528.53125,1745.83125 606.2,1663.8 685.31875,1611.81875 C698.13125,1603.41875 686.18125,1582.825 673.3375,1591.25 C589.2625,1646.49375 506.775,1733.5 487.01875,1836.3375 C484.1125,1851.30625 507.05,1857.6875 509.95625,1842.6375 Z" id="Shape"></path>
                    <path d="M214.9,1592.00625 C255.55,1470.2125 403.78125,1412.81875 517.46875,1394.05625 C532.625,1391.55 526.1625,1368.66875 511.19375,1371.11875 C388.24375,1391.3625 235.3875,1455.54375 191.9625,1585.65 C187.09375,1600.24375 210.08125,1606.4625 214.9,1592.00625 Z" id="Shape"></path>
                    <path d="M50.0625,1175.29375 C134,1074.825 295.6625,1079.48125 409.65,1105.05625 C424.59375,1108.41875 430.94375,1085.43125 415.95,1082.11875 C293.91875,1054.76875 122.75,1051.31875 33.1875,1158.46875 C23.46875,1170.125 40.1875,1187.05625 50.0625,1175.29375 Z" id="Shape"></path>
                    <path d="M19.08125,853.5625 C125.6375,802.65625 253.9125,808.925 352.875,872.56875 C365.76875,880.9125 377.69375,860.26875 364.85625,852.025 C258.35625,783.48125 121.38125,778.425 7.01875,832.9625 C-6.79375,839.5875 5.29375,860.13125 19.08125,853.5625 Z" id="Shape"></path>
                    <path d="M47.64375,587.04375 C133.95,549.4375 237.4125,570.05625 306.0875,635.90625 C317.15,646.5375 333.95,629.74375 322.8875,619.08125 C246.1375,545.48125 134.0625,523.59375 35.6125,566.475 C21.58125,572.6125 33.69375,593.125 47.64375,587.04375 Z" id="Shape"></path>
                    <path d="M95.5625,204.7875 C213.8,194.20625 306.1125,292.575 347.38125,392.725 C353.16875,406.725 376.1625,400.5875 370.31875,386.4 C325.225,277.1 225.05,169.41875 95.5375,180.9625 C80.40625,182.3375 80.3,206.1375 95.5625,204.7875 Z" id="Shape"></path>
                    <path d="M547.1375,80.7125 C615.975,157.35625 621.9,294.46875 623,389.575 C623.2125,404.89375 646.9875,404.89375 646.76875,389.575 C645.6125,286.6 637.66875,145.99375 564.0125,63.88125 C553.73125,52.46875 536.93125,69.325 547.1375,80.7125 Z" id="Shape"></path>
                    <path d="M904.91875,225.33125 C991.76875,277.6125 972.95,437.65625 959.75625,516.45625 C957.2,531.48125 980.1625,537.8875 982.66875,522.78125 C997.93125,431.68125 1014.86875,263.71875 916.98125,204.7625 C903.73125,196.875 891.78125,217.44375 904.91875,225.33125 Z" id="Shape"></path>
                    <path d="M1192.54375,236.9625 C1240.51875,330.24375 1233.7625,445.33125 1192.54375,539.04375 C1186.38125,552.9375 1206.89375,565.075 1213.05625,551.05 C1257.9875,448.9625 1265.3625,326.55625 1213.05625,224.95625 C1206.03125,211.30625 1185.54375,223.3125 1192.54375,236.9625 Z" id="Shape"></path>
                    <path d="M1415.6625,171.40625 C1509.43125,234.99375 1514.65,367.475 1489.5625,465.73125 C1485.7375,480.61875 1508.70625,486.89375 1512.525,472.03125 C1540.55,362.275 1530.9125,220.85625 1427.725,150.80625 C1414.9625,142.225 1403.09375,162.84375 1415.6625,171.40625 Z" id="Shape"></path>
                    <path d="M1669.18125,26.68125 C1789.16875,47.86875 1833.66875,186.59375 1838.08125,291.04375 C1838.725,306.30625 1862.55,306.3875 1861.90625,291.04375 C1857.00625,176.63125 1806.2875,26.8375 1675.45,3.74375 C1660.5125,1.05 1654.1,23.9875 1669.18125,26.68125 Z" id="Shape"></path>
                    <path d="M2125.275,224.95625 C2081.95625,301.30625 1981.25,347.25625 1903.95625,376.55 C1889.74375,381.88125 1895.93125,404.925 1910.23125,399.4875 C1993.58125,367.9375 2099.21875,319.1 2145.81875,236.99375 C2153.40625,223.58125 2132.8375,211.6 2125.275,224.95625 Z" id="Shape"></path>
                    <path d="M1891.625,602.3625 C1996.99375,670.09375 2133,656.6625 2239.875,602.3625 C2253.575,595.3875 2241.54375,574.875 2227.89375,581.76875 C2128.36875,632.325 2001.625,644.79375 1903.575,581.76875 C1890.65625,573.5 1878.73125,594.09375 1891.625,602.3625 Z" id="Shape"></path>
                    <path d="M1861.9875,813.475 C1930.90625,918.14375 2064.78125,955.5625 2183.18125,940.7875 C2198.23125,938.93125 2198.3625,915.10625 2183.18125,916.9875 C2073.69375,930.6375 1946.84375,899.1375 1882.55625,801.46875 C1874.1,788.73125 1853.48125,800.63125 1861.9875,813.475 Z" id="Shape"></path>
                    <path d="M1860.75,1055.79375 C1901.83125,1153.4125 1988.8375,1243.4875 2100.64375,1242.225 C2115.9875,1242.0625 2116.04375,1218.2625 2100.64375,1218.425 C1999.23125,1219.55625 1918.4125,1131.98125 1883.6875,1049.49375 C1877.84375,1035.575 1854.8,1041.6875 1860.75,1055.79375 Z" id="Shape"></path>
                    <path d="M1819.50625,1271.5625 C1846.05,1382.125 1933.4375,1477 2046.75,1497.1875 C2061.74375,1499.88125 2068.125,1476.94375 2053.025,1474.225 C1947.44375,1455.43125 1867.1625,1368.2625 1842.45,1265.2125 C1838.8625,1250.325 1815.95,1256.65 1819.50625,1271.5625 Z" id="Shape"></path>
                    <path d="M1660.8625,1427.0625 C1629.58125,1547.31875 1687.89375,1666.55 1790.1125,1730.7875 C1803.1125,1738.96875 1815.06875,1718.375 1802.09375,1710.19375 C1709.05625,1651.775 1655.35,1542.76875 1683.8,1433.3375 C1687.675,1418.5 1664.7625,1412.2 1660.8625,1427.0625 Z" id="Shape"></path>
                    <path d="M1492.63125,1513.8 C1415.825,1605.11875 1468.10625,1754.3375 1512.98125,1845.46875 C1519.7375,1859.25 1540.25,1847.1625 1533.575,1833.4875 C1494.45625,1754.15 1440.8875,1612.14375 1509.45625,1530.625 C1519.23125,1518.94375 1502.5125,1502.0375 1492.63125,1513.8 Z" id="Shape"></path>
                    <path d="M1285.60625,1670.5625 C1206.4875,1724.40625 1244.65625,1839.7375 1281.35,1905.74375 C1288.80625,1919.175 1309.375,1907.16875 1301.91875,1893.7375 C1272.925,1841.5375 1231.0875,1736.38125 1297.6625,1691.1 C1310.2375,1682.5125 1298.3125,1661.8625 1285.60625,1670.5625 Z" id="Shape"></path>
                </g>
            </g>
        </g>
    </g>
</svg>