<?xml version="1.0" encoding="iso-8859-1"?>
<!-- Generator: Adobe Illustrator 19.0.0, SVG Export Plug-In . SVG Version: 6.00 Build 0)  -->
<svg version="1.1" id="Capa_1" xmlns="http://www.w3.org/2000/svg" xmlns:xlink="http://www.w3.org/1999/xlink" x="0px" y="0px"
	 viewBox="0 0 512.001 512.001" style="enable-background:new 0 0 512.001 512.001;" xml:space="preserve">
<path style="fill:#FE5722;" d="M431.039,54.078H80.961C45.141,54.078,16,83.218,16,119.039v184.094c0,8.836,7.164,16,16,16
	s16-7.164,16-16h416c0,8.836,7.164,16,16,16c8.836,0,16-7.164,16-16V119.039C496.001,83.218,466.859,54.078,431.039,54.078z"/>
<path style="fill:#F34336;" d="M32,319.133c8.836,0,16-7.164,16-16H16C16,311.968,23.164,319.133,32,319.133z"/>
<path style="fill:#E54A19;" d="M431.039,54.078h-41.168c35.82,0,64.961,29.14,64.961,64.961v184.094H464c0,8.836,7.164,16,16,16
	c8.836,0,16-7.164,16-16V119.039C496.001,83.218,466.859,54.078,431.039,54.078z"/>
<g>
	<path style="fill:#B61C1C;" d="M51.746,457.923c-8.836,0-16-7.163-16-16v-51.064c0-8.837,7.164-16,16-16s16,7.163,16,16v51.064
		C67.746,450.759,60.582,457.923,51.746,457.923z"/>
	<path style="fill:#B61C1C;" d="M460.254,457.923c-8.836,0-16-7.163-16-16v-51.064c0-8.837,7.164-16,16-16c8.836,0,16,7.163,16,16
		v51.064C476.254,450.759,469.09,457.923,460.254,457.923z"/>
</g>
<g>
	<path style="fill:#FFFFFF;" d="M216.938,167.629h-96.82c-19.403,0-35.187,14.516-35.187,32.36v30.484c0,8.84,7.164,16,16,16
		c8.836,0,16-7.161,16-16h103.195c0,8.84,7.164,16,16,16s16-7.161,16-16v-30.484C252.125,182.144,236.34,167.629,216.938,167.629z"
		/>
	<path style="fill:#FFFFFF;" d="M391.883,167.629h-96.82c-19.406,0-35.191,14.516-35.191,32.36v30.484c0,8.84,7.164,16,16,16
		c8.836,0,16-7.161,16-16h103.199c0,8.84,7.164,16,16,16c8.836,0,16-7.161,16-16v-30.484
		C427.071,182.144,411.285,167.629,391.883,167.629z"/>
</g>
<g>
	<path style="fill:#EBEEF0;" d="M216.938,167.629h-25.66c19.403,0,35.187,14.516,35.187,32.36v30.484
		c0,3.563-1.203,6.816-3.17,9.477c2.914,3.937,7.554,6.523,12.83,6.523c8.836,0,16-7.161,16-16v-30.484
		C252.125,182.144,236.34,167.629,216.938,167.629z"/>
	<path style="fill:#EBEEF0;" d="M391.883,167.629h-25.66c19.403,0,35.187,14.516,35.187,32.36v30.484
		c0,3.563-1.203,6.816-3.17,9.477c2.914,3.937,7.554,6.523,12.83,6.523c8.836,0,16-7.161,16-16v-30.484
		C427.071,182.144,411.285,167.629,391.883,167.629z"/>
</g>
<path style="fill:#CED7DB;" d="M411.157,217.516H100.844C76.117,217.516,56,236.207,56,259.18v39.676c0,8.836,7.164,16,16,16
	s16-7.164,16-16h336c0,8.836,7.164,16,16,16c8.836,0,16-7.164,16-16V259.18C456,236.207,435.883,217.516,411.157,217.516z"/>
<path style="fill:#AFBDC4;" d="M411.157,217.516h-41.332c24.727,0,44.844,18.691,44.844,41.664v39.676H424c0,8.836,7.164,16,16,16
	c8.836,0,16-7.164,16-16V259.18C456,236.207,435.883,217.516,411.157,217.516z"/>
<path style="fill:#D22F2F;" d="M496.001,287.132H16c-8.836,0-16,7.16-16,16v81.699c0,8.84,7.164,16,16,16h480.001
	c8.836,0,16-7.16,16-16v-81.699C512,294.293,504.836,287.132,496.001,287.132z"/>
<path style="fill:#B61C1C;" d="M496.001,287.132h-48.652c8.836,0,16,7.16,16,16v81.699c0,8.84-7.164,16-16,16h48.652
	c8.836,0,16-7.16,16-16v-81.699C512,294.293,504.836,287.132,496.001,287.132z"/>
<g>
</g>
<g>
</g>
<g>
</g>
<g>
</g>
<g>
</g>
<g>
</g>
<g>
</g>
<g>
</g>
<g>
</g>
<g>
</g>
<g>
</g>
<g>
</g>
<g>
</g>
<g>
</g>
<g>
</g>
</svg>
