<?xml version="1.0" encoding="UTF-8"?>
<svg width="7320px" height="3687px" viewBox="0 0 7320 3687" version="1.1" xmlns="http://www.w3.org/2000/svg" xmlns:xlink="http://www.w3.org/1999/xlink">
    <!-- Generator: Sketch 51.3 (57544) - http://www.bohemiancoding.com/sketch -->
    <title>shutterstock_556181722</title>
    <desc>Created with Sketch.</desc>
    <defs></defs>
    <g id="shutterstock_556181722" stroke="none" stroke-width="1" fill="none" fill-rule="evenodd">
        <path d="M6429.07692,2965 L6426.92308,2965 C6419.78954,2965 6414,2959.2173 6414,2952.07295 C6414,2947.96214 6415.92985,2944.29086 6418.91938,2941.9209 C6421.29723,2938.92182 6424.96738,2937 6429.07692,2937 C6436.21046,2937 6442,2942.7827 6442,2949.92705 L6442,2952.07295 C6442,2959.2173 6436.21046,2965 6429.07692,2965" id="Fill-7" fill="#62BCA1"></path>
        <path d="M5743.07692,2965 L5740.92308,2965 C5733.78092,2965 5728,2958.73733 5728,2951 C5728,2943.272 5733.78092,2937 5740.92308,2937 L5743.07692,2937 C5750.21046,2937 5756,2943.272 5756,2951 C5756,2958.73733 5750.21046,2965 5743.07692,2965" id="Fill-9" fill="#62BCA1"></path>
        <polygon id="Fill-11" fill="#FFFFFE" points="2377 1297 2464 1297 2464 1245 2377 1245"></polygon>
        <path d="M2463.30386,1175 L2366.69614,1175 C2356.92231,1175 2349,1185.08065 2349,1197.5 C2349,1209.92832 2356.92231,1220 2366.69614,1220 L2463.30386,1220 C2473.07769,1220 2481,1209.92832 2481,1197.5 C2481,1185.08065 2473.07769,1175 2463.30386,1175" id="Fill-12" fill="#FFFFFE"></path>
        <path d="M2416.00416,1516 C2408.26568,1516 2402,1522.27345 2402,1530.00412 C2402,1537.73478 2408.26568,1544 2416.00416,1544 C2423.74264,1544 2430,1537.73478 2430,1530.00412 C2430,1522.27345 2423.74264,1516 2416.00416,1516" id="Fill-13" fill="#FFFFFE"></path>
        <path d="M2420.50436,1377 C2415.80779,1377 2412,1381.05273 2412,1386.04213 L2412,1437.9486 C2412,1442.94727 2415.80779,1447 2420.50436,1447 C2425.19221,1447 2429,1442.94727 2429,1437.9486 L2429,1386.04213 C2429,1381.05273 2425.19221,1377 2420.50436,1377" id="Fill-14" fill="#FFFFFE"></path>
        <path d="M2420.50436,1614 C2415.80779,1614 2412,1618.04399 2412,1623.04333 L2412,1674.9474 C2412,1679.94673 2415.80779,1684 2420.50436,1684 C2425.19221,1684 2429,1679.94673 2429,1674.9474 L2429,1623.04333 C2429,1618.04399 2425.19221,1614 2420.50436,1614" id="Fill-15" fill="#FFFFFE"></path>
        <path d="M2553.79797,1516 L2507.20203,1516 C2502.66778,1516 2499,1519.80584 2499,1524.5 C2499,1529.18545 2502.66778,1533 2507.20203,1533 L2553.79797,1533 C2558.32381,1533 2562,1529.18545 2562,1524.5 C2562,1519.80584 2558.32381,1516 2553.79797,1516" id="Fill-16" fill="#FFFFFE"></path>
        <path d="M2316.79065,1516 L2270.20935,1516 C2265.6757,1516 2262,1519.80584 2262,1524.5 C2262,1529.18545 2265.6757,1533 2270.20935,1533 L2316.79065,1533 C2321.3243,1533 2325,1529.18545 2325,1524.5 C2325,1519.80584 2321.3243,1516 2316.79065,1516" id="Fill-17" fill="#FFFFFE"></path>
        <path d="M2550.34457,1595.25411 L2505.38928,1569.18348 C2501.02235,1566.65112 2495.53594,1568.31995 2493.13043,1572.88013 C2490.71566,1577.45001 2492.29775,1583.2133 2496.65543,1585.74566 L2541.60147,1611.80659 C2542.99851,1612.6119 2544.48808,1613 2545.9684,1613 C2549.14182,1613 2552.23198,1611.22444 2553.86957,1608.10994 C2556.28434,1603.54005 2554.70225,1597.77677 2550.34457,1595.25411" id="Fill-18" fill="#FFFFFE"></path>
        <path d="M2338.3403,1480.2435 L2293.39057,1454.18123 C2289.03343,1451.65845 2283.53845,1453.30796 2281.12398,1457.87808 C2278.71877,1462.4676 2280.30066,1468.22148 2284.65779,1470.74426 L2329.60753,1496.82594 C2330.9859,1497.62158 2332.48453,1498 2333.96466,1498 C2337.13769,1498 2340.21822,1496.23405 2341.87411,1493.11939 C2344.27933,1488.53957 2342.70669,1482.77599 2338.3403,1480.2435" id="Fill-19" fill="#FFFFFE"></path>
        <path d="M2479.869,1600.13361 C2477.20237,1595.85433 2471.80691,1594.71511 2467.83364,1597.57753 C2463.86037,1600.4591 2462.80261,1606.26054 2465.47812,1610.54939 L2493.131,1654.8739 C2494.81098,1657.55443 2497.54871,1659 2500.33977,1659 C2502.00197,1659 2503.68194,1658.49261 2505.16636,1657.4204 C2509.13963,1654.53883 2510.19739,1648.73739 2507.52188,1644.45812 L2479.869,1600.13361" id="Fill-20" fill="#FFFFFE"></path>
        <path d="M2347.86303,1405.13078 C2345.19668,1400.85199 2339.81064,1399.71289 2335.83777,1402.58456 C2331.85601,1405.4658 2330.80724,1411.26658 2333.4736,1415.54536 L2361.1326,1459.87437 C2362.8124,1462.55459 2365.54986,1464 2368.34064,1464 C2370.00267,1464 2371.68248,1463.49267 2373.16675,1462.41101 C2377.13962,1459.52977 2378.19727,1453.729 2375.52203,1449.45021 L2347.86303,1405.13078" id="Fill-21" fill="#FFFFFE"></path>
        <path d="M2339.45372,1569.23202 L2294.58817,1595.51964 C2290.22896,1598.06886 2288.71392,1603.78064 2291.18631,1608.27532 C2292.85936,1611.30372 2295.91732,1613 2299.07752,1613 C2300.59255,1613 2302.13547,1612.60708 2303.54827,1611.77331 L2348.41381,1585.4761 C2352.76374,1582.92688 2354.28807,1577.22468 2351.81568,1572.73001 C2349.33399,1568.24492 2343.81293,1566.66363 2339.45372,1569.23202" id="Fill-22" fill="#FFFFFE"></path>
        <path d="M2541.45073,1448.22348 L2496.58609,1474.52964 C2492.23626,1477.08838 2490.71196,1482.80003 2493.1843,1487.28502 C2494.85731,1490.30376 2497.9245,1492 2501.08464,1492 C2502.59965,1492 2504.13324,1491.61667 2505.5553,1490.78292 L2550.41064,1464.47676 C2554.76977,1461.9276 2556.29407,1456.21595 2553.80314,1451.72138 C2551.3308,1447.2364 2545.80056,1445.67432 2541.45073,1448.22348" id="Fill-23" fill="#FFFFFE"></path>
        <path d="M2494.87734,1402.44028 C2490.72233,1399.69841 2485.22786,1400.9937 2482.60364,1405.28615 L2455.37734,1449.84627 C2452.75312,1454.15763 2453.99233,1459.84938 2458.12913,1462.57234 C2459.60525,1463.54617 2461.2545,1464 2462.88553,1464 C2465.82867,1464 2468.70802,1462.48724 2470.39372,1459.72646 L2497.62002,1415.16634 C2500.24424,1410.85498 2499.01414,1405.16324 2494.87734,1402.44028" id="Fill-25" fill="#FFFFFE"></path>
        <path d="M2201.3301,1312.32343 C2190.22473,1323.41991 2190.22473,1341.41212 2201.32154,1352.50859 L2222.81361,1374 L2263,1333.81483 L2241.50794,1312.31487 C2230.41112,1301.22695 2212.41836,1301.22695 2201.3301,1312.32343" id="Fill-26" fill="#FFFFFE"></path>
        <path d="M2590.49173,1312.31487 L2569,1333.81483 L2609.18578,1374 L2630.67751,1352.50859 C2641.77416,1341.41212 2641.77416,1323.41991 2630.67751,1312.32343 C2619.57231,1301.22695 2601.57983,1301.22695 2590.49173,1312.31487" id="Fill-27" fill="#FFFFFE"></path>
        <path d="M4020.14171,927 L3983,927 L3983,795 L4020.14171,795 C4028.34884,795 4035,802.4487 4035,811.630917 L4035,910.360055 C4035,919.5513 4028.34884,927 4020.14171,927" id="Fill-28" fill="#86C8B4"></path>
        <path d="M3907.46036,1001 L3528.54848,1001 C3502.32611,1001 3481,979.635741 3481,953.3862 L3481,783.6138 C3481,757.364259 3502.32611,736 3528.54848,736 L3907.46036,736 C3933.67389,736 3955,757.364259 3955,783.6138 L3955,953.3862 C3955,979.635741 3933.67389,1001 3907.46036,1001 M3528.54848,761.391076 C3516.30784,761.391076 3506.35624,771.365194 3506.35624,783.6138 L3506.35624,953.3862 C3506.35624,965.634806 3516.30784,975.608924 3528.54848,975.608924 L3907.46036,975.608924 C3919.69216,975.608924 3929.64376,965.634806 3929.64376,953.3862 L3929.64376,783.6138 C3929.64376,771.365194 3919.69216,761.391076 3907.46036,761.391076 L3528.54848,761.391076" id="Fill-29" fill="#86C8B4"></path>
        <polygon id="Fill-30" fill="#86C8B4" points="3551 938 3614 938 3614 788 3551 788"></polygon>
        <polygon id="Fill-31" fill="#86C8B4" points="3642 938 3705 938 3705 788 3642 788"></polygon>
        <polygon id="Fill-32" fill="#86C8B4" points="3736 938 3799 938 3799 788 3736 788"></polygon>
        <polygon id="Fill-33" fill="#86C8B4" points="3826 938 3889 938 3889 788 3826 788"></polygon>
        <polygon id="Fill-34" fill="#86C8B4" points="2492 1356 2774 1356 2774 1304 2492 1304"></polygon>
        <path d="M2424,1499 C2401.9124,1499 2384,1480.90948 2384,1458.58257 L2384,1215.41743 C2384,1193.09933 2401.9124,1175 2424,1175 C2446.09632,1175 2464,1193.09933 2464,1215.41743 L2464,1458.58257 C2464,1480.90948 2446.09632,1499 2424,1499" id="Fill-35" fill="#86C8B4"></path>
        <path d="M2345.99146,1391 C2338.26968,1391 2332,1384.77361 2332,1377.08817 L2332,1282.89487 C2332,1275.22639 2338.26968,1269 2345.99146,1269 C2353.73032,1269 2360,1275.22639 2360,1282.89487 L2360,1377.08817 C2360,1384.77361 2353.73032,1391 2345.99146,1391" id="Fill-36" fill="#86C8B4"></path>
        <path d="M2828,1499 C2805.9124,1499 2788,1480.90948 2788,1458.58257 L2788,1215.41743 C2788,1193.09933 2805.9124,1175 2828,1175 C2850.09632,1175 2868,1193.09933 2868,1215.41743 L2868,1458.58257 C2868,1480.90948 2850.09632,1499 2828,1499" id="Fill-37" fill="#86C8B4"></path>
        <path d="M2907,1391 C2899.26968,1391 2893,1384.77361 2893,1377.08817 L2893,1282.89487 C2893,1275.22639 2899.26968,1269 2907,1269 C2914.73032,1269 2921,1275.22639 2921,1282.89487 L2921,1377.08817 C2921,1384.77361 2914.73032,1391 2907,1391" id="Fill-38" fill="#86C8B4"></path>
        <polyline id="Fill-40" fill="#FFFFFE" points="2241.65088 2544.29551 2186.27511 2544.29551 2241.65088 2342 2088 2609.16974 2199.47081 2609.16974 2143.89969 2816 2297 2544.29551 2241.65088 2544.29551"></polyline>
        <path d="M2210,1533 L2200.11494,1533 C2200.03831,1530.807 2200,1528.6055 2200,1526.3955 C2200,1522.9105 2200.09579,1519.451 2200.28736,1516 L2210,1516 L2210,1533" id="Fill-50" fill="#FFFFFE"></path>
        <path d="M2630.88701,1533 L2614,1533 L2614,1516 L2630.73926,1516 C2630.91309,1519.451 2631,1522.9105 2631,1526.3955 C2631,1528.6055 2630.96524,1530.807 2630.88701,1533" id="Fill-53" fill="#FFFFFE"></path>
        <path d="M3140,1558 C3123.89628,1558 3110.32447,1547.11835 3106.24734,1532.30851 C3105.4375,1529.3484 3105,1526.22074 3105,1523 C3105,1519.77926 3105.4375,1516.6609 3106.25665,1513.69149 C3110.33378,1498.88165 3123.89628,1488 3140,1488 C3159.32447,1488 3175,1503.67553 3175,1523 C3175,1542.32447 3159.32447,1558 3140,1558" id="Fill-54" fill="#9BD1C0"></path>
        <path d="M4429,2763 C4409.67553,2763 4394,2747.32447 4394,2728 C4394,2708.67553 4409.67553,2693 4429,2693 C4445.10372,2693 4458.67553,2703.88165 4462.75266,2718.69149 C4463.5625,2721.6609 4464,2724.77926 4464,2728 C4464,2731.22074 4463.5625,2734.3484 4462.74335,2737.30851 C4458.66622,2752.11835 4445.10372,2763 4429,2763" id="Fill-66" fill="#86C8B4"></path>
        <path d="M6347.60784,1419 L5929.39216,1419 C5915.92041,1419 5905,1408.11712 5905,1394.68289 L5905,548.308316 C5905,534.882876 5915.92041,524 5929.39216,524 L6347.60784,524 C6361.07959,524 6372,534.882876 6372,548.308316 L6372,1394.68289 C6372,1408.11712 6361.07959,1419 6347.60784,1419" id="Fill-67" fill="#57BCB8"></path>
        <polygon id="Fill-68" fill="#124A51" points="5947 980 6334 980 6334 628 5947 628"></polygon>
        <polyline id="Fill-69" fill="#FFFFFE" points="6072 1332 6211 1239.49568 6072 1147 6072 1332"></polyline>
        <polyline id="Fill-70" fill="#FFFFFE" points="6009.29814 374 6059.70186 374 6066 524 6003 524 6009.29814 374"></polyline>
        <path d="M6642.96448,806 L6616,809.341131 L6616.14354,848.784784 C6620.62395,850.157852 6625.10436,851 6630.0974,851 C6634.96741,851 6639.62212,850.267697 6644,848.96786 L6643.98975,830.925753 L6642.96448,806" id="Fill-77" fill="#A1D6D1"></path>
        <path d="M6668,792.995344 C6668,815.092888 6650.09289,833 6627.99534,833 C6605.90711,833 6588,815.092888 6588,792.995344 C6588,770.907112 6605.90711,753 6627.99534,753 C6650.09289,753 6668,770.907112 6668,792.995344" id="Fill-78" fill="#FFFFFE"></path>
        <polyline id="Fill-79" fill="#A1D6D1" points="6643 983 6643 958.345242 6651.7 955 6652.84 978.908638 6643 983"></polyline>
        <path d="M6309.21612,1078 L6175.78388,1078 C6166.51427,1078 6159,1070.16512 6159,1060.5 C6159,1050.83488 6166.51427,1043 6175.78388,1043 L6309.21612,1043 C6318.48573,1043 6326,1050.83488 6326,1060.5 C6326,1070.16512 6318.48573,1078 6309.21612,1078" id="Fill-80" fill="#A1D6D1"></path>
        <path d="M6097.21612,1078 L5963.78388,1078 C5954.51427,1078 5947,1070.16512 5947,1060.5 C5947,1050.83488 5954.51427,1043 5963.78388,1043 L6097.21612,1043 C6106.48573,1043 6114,1050.83488 6114,1060.5 C6114,1070.16512 6106.48573,1078 6097.21612,1078" id="Fill-81" fill="#A1D6D1"></path>
        <polyline id="Fill-82" fill="#FFFFFE" points="1054 1354.77869 1031.12262 1332.6881 1054 1310.60622 1031.12262 1288.55919 1054 1266.47731 1031.12262 1244.43029 1054 1222.34841 1031.12262 1200.25781 1054 1178.2195 1031.12262 1156.1289 1054 1134.08188 1031.12262 1112 991 1112 991 1377 1031.12262 1376.82572 1054 1354.77869"></polyline>
        <path d="M1831.01401,1893 C1841.66437,1893 1853.86132,1892.07058 1868.29907,1889.63303 C1853.86132,1892.07058 1841.66437,1893 1831.01401,1893 M1688.26223,1893 C1677.61187,1893 1665.40613,1892.07058 1650.97717,1889.63303 C1650.90687,1889.61549 1650.82779,1889.60672 1650.75749,1889.59796 C1650.82779,1889.60672 1650.90687,1889.61549 1650.97717,1889.63303 C1665.40613,1892.07058 1677.61187,1893 1688.26223,1893 C1720.08151,1893 1737.93756,1884.71409 1759.63372,1883.79344 C1759.80947,1883.80221 1759.97643,1883.81097 1760.1434,1883.81974 C1759.97643,1883.81097 1759.80947,1883.80221 1759.63372,1883.79344 C1737.93756,1884.71409 1720.08151,1893 1688.26223,1893 M1650.64325,1889.57165 C1650.6081,1889.57165 1650.56416,1889.56288 1650.52901,1889.55412 C1650.56416,1889.56288 1650.6081,1889.57165 1650.64325,1889.57165 M1650.40599,1889.53658 C1650.37084,1889.52781 1650.33569,1889.51904 1650.30054,1889.51904 C1650.33569,1889.51904 1650.37084,1889.52781 1650.40599,1889.53658 M1650.16873,1889.49274 C1650.14237,1889.48397 1650.10722,1889.48397 1650.08085,1889.4752 C1650.10722,1889.48397 1650.14237,1889.48397 1650.16873,1889.49274 M1649.93147,1889.4489 C1649.90511,1889.44013 1649.87874,1889.44013 1649.86117,1889.43136 C1649.87874,1889.44013 1649.90511,1889.44013 1649.93147,1889.4489 M1649.71178,1889.40506 C1649.68542,1889.40506 1649.65906,1889.39629 1649.63269,1889.39629 C1649.65906,1889.39629 1649.68542,1889.40506 1649.71178,1889.40506 M1649.47452,1889.36122 C1649.45695,1889.36122 1649.43058,1889.35245 1649.41301,1889.35245 C1649.43058,1889.35245 1649.45695,1889.36122 1649.47452,1889.36122 M1649.24605,1889.31738 C1649.22847,1889.31738 1649.2109,1889.31738 1649.20211,1889.30861 C1649.2109,1889.30861 1649.22847,1889.31738 1649.24605,1889.31738 M1649.00879,1889.27353 C1649,1889.27353 1649,1889.27353 1649,1889.27353 C1649,1889.27353 1649,1889.27353 1649.00879,1889.27353 M1993.87142,1796.12067 C2047.40443,1727.64139 2091.41188,1626.39552 2087.79145,1507.32399 C2091.41188,1626.39552 2047.40443,1727.64139 1993.87142,1796.12067 M2087.74752,1506.09645 C2087.74752,1506.06138 2087.74752,1506.03507 2087.74752,1506 C2087.74752,1506.03507 2087.74752,1506.06138 2087.74752,1506.09645" id="Fill-90" fill="#2B9A7A"></path>
        <polygon id="Fill-109" fill="#57BCB8" points="5142 189 5246 189 5246 85 5142 85"></polygon>
        <path d="M5092.8032,339 L4962.41597,339 C4925.24514,339 4895,303.782911 4895,260.504396 C4895,217.217089 4925.24514,182 4962.41597,182 L5160,182 L5160,201.463464 L4962.41597,201.463464 C4934.45895,201.463464 4911.71811,227.951005 4911.71811,260.504396 C4911.71811,293.057786 4934.45895,319.536536 4962.41597,319.536536 L5092.8032,319.536536 L5092.8032,339" id="Fill-110" fill="#A1D6D1"></path>
        <polygon id="Fill-111" fill="#57BCB8" points="5028 350 5362 350 5362 280 5028 280"></polygon>
        <path d="M5369,304 L5010,304 L5010,239.406526 C5010,207.702022 5035.14848,182 5066.18092,182 L5312.81908,182 C5343.85152,182 5369,207.702022 5369,239.406526 L5369,304" id="Fill-112" fill="#A1D6D1"></path>
        <path d="M5250.21803,95 L5138.78197,95 C5131.17064,95 5125,88.7553325 5125,81.0526976 L5125,73.9473024 C5125,66.2446675 5131.17064,60 5138.78197,60 L5250.21803,60 C5257.82936,60 5264,66.2446675 5264,73.9473024 L5264,81.0526976 C5264,88.7553325 5257.82936,95 5250.21803,95" id="Fill-113" fill="#A1D6D1"></path>
        <path d="M5450.16078,755.326327 C5450.16078,660.743163 5457.67919,582.263183 5501,566.941026 L5501,457.562241 C5501,398.160364 5452.86285,350 5393.47878,350 L5002.52122,350 C4943.13715,350 4895,398.160364 4895,457.562241 L4895,566.941026 C4938.32081,582.263183 4945.83922,660.743163 4945.83922,755.326327 C4945.83922,849.900715 4938.32081,928.389471 4895,943.702852 L4895,1593.44653 C4895,1652.84841 4943.13715,1701 5002.52122,1701 L5393.47878,1701 C5452.86285,1701 5501,1652.84841 5501,1593.44653 L5501,943.702852 C5457.67919,928.389471 5450.16078,849.900715 5450.16078,755.326327" id="Fill-114" fill="#A1D6D1"></path>
        <path d="M5501,571.784385 C5501,571.784385 4930.53043,567.064098 4895,569.915394 L4895,571.784385 C4938.32081,586.962324 4945.83922,664.703624 4945.83922,758.396539 C4945.83922,852.08076 4938.32081,929.830754 4895,945 L5501,945 C5457.67919,929.830754 5450.16078,852.08076 5450.16078,758.396539 C5450.16078,664.703624 5457.67919,586.962324 5501,571.784385" id="Fill-115" fill="#57BCB8"></path>
        <path d="M5010,1682.17909 C5010,1682.17909 5204.38982,1582.2311 5386,1683 L5010,1682.17909" id="Fill-116" fill="#57BCB8"></path>
        <path d="M5392.74135,1700 L5202,1700 L5392.74135,1700 C5453.08008,1700 5501.99109,1651.89761 5501.99109,1592.55642 L5501.99109,943.476568 C5457.97385,928.178832 5450.33457,849.770266 5450.33457,755.292503 C5450.33457,660.805974 5457.97385,582.406175 5501.99109,567.099673 L5501.99109,457.832637 C5501.99109,398.49145 5453.08008,350.380291 5392.74135,350.380291 C5453.08008,350.380291 5502,398.49145 5502,457.832637 L5502,567.099673 C5457.98277,582.406175 5450.33457,660.805974 5450.33457,755.292503 C5450.33457,849.770266 5457.98277,928.178832 5502,943.476568 L5502,1592.55642 C5502,1651.89761 5453.08008,1700 5392.74135,1700 M5363.91353,350.380291 L5363.91353,302.093799 L5377.67672,302.093799 L5377.67672,238.509572 C5377.67672,207.300438 5351.95989,182 5320.22612,182 C5351.95989,182 5377.68563,207.300438 5377.68563,238.509572 L5377.68563,302.093799 L5363.91353,302.093799 L5363.91353,350.380291" id="Fill-117" fill="#289E7E"></path>
        <polygon id="Fill-118" fill="#51B3AC" points="5202 182 5247 182 5247 95 5202 95"></polygon>
        <polygon id="Fill-119" fill="#51B3AC" points="5202 356 5359 356 5359 304 5202 304"></polygon>
        <path d="M5376,304 L5202,304 L5202,182 L5319.09773,182 C5350.52862,182 5376,207.702022 5376,239.406526 L5376,304" id="Fill-120" fill="#94CAC5"></path>
        <path d="M5250.95677,95 L5202,95 L5202,60 L5250.95677,60 C5258.71238,60 5265,66.2446675 5265,73.9473024 L5265,81.0526976 C5265,81.1141782 5265,81.1668758 5265,81.2283563 C5264.90272,88.8519448 5258.65048,95 5250.95677,95" id="Fill-121" fill="#94CAC5"></path>
        <path d="M5392.74701,1701 L5202,1701 L5202,1682.58006 L5388.12052,1682.99252 C5326.50526,1647.96919 5263.46372,1636.33278 5206.84044,1636.33278 C5205.21804,1636.33278 5203.60456,1636.34155 5202,1636.3591 L5202,943.702852 L5502,943.702852 L5502,1593.44653 C5502,1652.84841 5453.08754,1701 5392.74701,1701 M5502,566.941026 C5502,566.941026 5353.39954,565.721221 5202,564.887541 L5202,350 L5392.74701,350 C5453.08754,350 5502,398.160364 5502,457.562241 L5502,566.941026" id="Fill-122" fill="#94CAC5"></path>
        <path d="M5502,945 L5202,945 L5202,569 C5353.39954,569.827484 5502,571.038224 5502,571.038224 C5457.98146,586.246508 5450.34195,664.143234 5450.34195,758.023467 C5450.34195,851.894989 5457.98146,929.800426 5502,945" id="Fill-123" fill="#51B3AC"></path>
        <path d="M5387,1683 L5202,1682.60222 L5202,1638.02539 C5203.5949,1638.00846 5205.19867,1638 5206.81129,1638 C5263.09368,1638 5325.75569,1649.22249 5387,1683" id="Fill-124" fill="#51B3AC"></path>
        <polygon id="Fill-126" fill="#B4DBCC" points="2729 1018 2746 1018 2746 1008 2729 1008"></polygon>
        <path d="M4397,506.242815 C4397,506.242815 3932.67642,517 3774.17781,517 C3618.89759,517 3168,506.242815 3168,506.242815 L3168,175.748295 C3168,175.748295 3620.76547,165 3774.17781,165 C3934.54431,165 4397,175.748295 4397,175.748295 L4397,506.242815" id="Fill-127" fill="#C86358"></path>
        <path d="M3780.36709,514.63 C3679.28382,514.63 3453.77338,512.99 3307,511.84 C3307.11478,509.91 3307.18541,507.95 3307.22955,506 C3454.01176,509.58 3679.33679,514.63 3780.36709,514.63 C3883.1632,514.63 4113.70617,509.61 4264.77045,506.04 C4264.80576,507.98 4264.88522,509.92 4265,511.85 C4113.93573,513 3883.20734,514.63 3780.36709,514.63" id="Fill-128" fill="#2B9A7A"></path>
        <path d="M3774.9291,506 C3675.01097,506 3452.16638,501.603086 3307,498.486067 C3307.0262,497.53703 3307.03493,496.5967 3307.03493,495.638956 L3307.03493,172 C3312.30021,182.709314 3321.82662,232.982143 3331.38795,283.254972 C3342.16301,339.92727 3353.00792,396.599567 3357.88027,396.599567 C3357.88027,396.599567 3357.88027,396.599567 3357.889,396.599567 C3500.4795,395.641824 3687.04341,394.509945 3774.9291,394.509945 C3877.67634,394.509945 4104.94796,395.92044 4253.96507,396.930424 L4253.96507,495.638956 C4253.96507,496.605407 4253.9738,497.56315 4254,498.520894 C4104.59869,501.629207 3876.5936,506 3774.9291,506" id="Fill-129" fill="#B25C54"></path>
        <path d="M4506.57637,50 L4377.41479,50 C4309.25771,50 4254,104.488261 4254,171.70512 L4254,499.29488 C4254,566.511739 4309.25771,621 4377.41479,621 L4506.57637,621 C4574.74229,621 4630,566.511739 4630,499.29488 L4630,171.70512 C4630,104.488261 4574.74229,50 4506.57637,50" id="Fill-130" fill="#C86358"></path>
        <path d="M3183.57637,50 L3054.41479,50 C2986.25771,50 2931,104.488261 2931,171.70512 L2931,499.29488 C2931,566.511739 2986.25771,621 3054.41479,621 L3183.57637,621 C3251.74229,621 3307,566.511739 3307,499.29488 L3307,171.70512 C3307,104.488261 3251.74229,50 3183.57637,50" id="Fill-131" fill="#C86358"></path>
        <path d="M3179.36186,611 L3064.62937,611 C3004.08464,611 2955,561.497185 2955,500.431212 L2955,454 L3289,454 L3289,500.431212 C3289,561.497185 3239.91536,611 3179.36186,611" id="Fill-132" fill="#B25C54"></path>
        <path d="M4506.36186,611 L4391.62937,611 C4331.08464,611 4282,561.497185 4282,500.431212 L4282,454 L4616,454 L4616,500.431212 C4616,561.497185 4566.91536,611 4506.36186,611" id="Fill-133" fill="#B25C54"></path>
        <path d="M5564.15832,1984.04705 C5609.9065,1984.04705 5652.93409,1996.42533 5684.28692,2020.48934 C5732.49155,2057.48393 5760.3578,2108.87309 5764.89211,2169.0901 C5768.185,2212.89624 5758.58809,2255.07182 5746.98376,2284.273 C5765.42919,2261.52396 5778.41583,2235.54009 5784.53495,2208.23247 C5796.59712,2154.29226 5781.8936,2095.19736 5744.18393,2046.09626 C5706.9497,1997.61757 5654.3164,1968.38133 5599.78133,1965.88288 C5565.81357,1964.33121 5530.93894,1973.74642 5499.63014,1992.11222 C5521.12193,1986.71206 5542.93067,1984.04705 5564.15832,1984.04705 M5437.16222,2047.56026 C5403.84599,2090.91932 5389.50346,2142.41367 5397.65643,2191.06769 C5409.96512,2264.5221 5469.29864,2328.21941 5541.95337,2345.93648 C5602.52833,2360.71678 5667.76087,2343.14874 5708.15592,2301.22739 C5718.42196,2290.56734 5743.31228,2234.41797 5738.54905,2171.04503 C5734.543,2117.73601 5710.8589,2074.09642 5668.15707,2041.31852 C5622.40889,2006.20873 5543.21242,2000.51051 5475.56744,2027.47623 C5461.3834,2033.13939 5448.52883,2039.88082 5437.16222,2047.56026 M5962.39465,2498 C5791.96595,2498 5624.12577,2465.301 5535.71098,2425.01021 C5513.93745,2415.08655 5323.91874,2322.42476 5354.27665,2125.72228 C5356.60985,2110.60008 5361.59319,2096.14414 5368.98017,2082.64375 C5389.45944,2016.0798 5427.01063,1971.32687 5494.25059,1933.22771 C5582.16352,1883.43405 5652.23854,1884.2844 5740.94387,1885.26625 C5760.27856,1885.49418 5780.26477,1885.73087 5801.6421,1885.44158 C5803.27093,1885.42405 5804.979,1885.40651 5806.70468,1885.40651 C5932.70588,1885.40651 6322.60435,1940.76689 6437.86406,1968.19724 C6444.95168,1969.8804 6449.32752,1976.98126 6447.63705,1984.03828 C6445.93778,1991.10407 6438.82375,1995.47855 6431.71852,1993.77785 C6315.90413,1966.21601 5920.53806,1909.99652 5801.98547,1911.74105 C5780.27357,1912.03034 5760.12007,1911.79365 5740.64452,1911.56572 C5652.62594,1910.5488 5589.01342,1909.82119 5507.31647,1956.09071 C5496.75107,1962.07823 5487.03971,1968.17094 5478.10314,1974.48281 C5515.7952,1950.27853 5558.8316,1937.74245 5601.00515,1939.61848 C5663.34101,1942.46759 5723.17639,1975.46466 5765.15625,2030.12371 C5807.62035,2085.40519 5824.07596,2152.3987 5810.30572,2213.94822 C5797.60963,2270.71124 5759.15158,2322.24943 5704.7926,2355.36046 C5650.50405,2388.42765 5587.0148,2399.02634 5530.53394,2384.4652 C5518.99124,2381.48459 5507.64224,2377.26791 5496.63661,2371.92035 C5520.80496,2388.79585 5540.71194,2398.36885 5546.699,2401.09523 C5634.22453,2440.97399 5792.63509,2469.35111 5940.86765,2471.69177 C6122.49568,2474.56717 6271.59108,2440.74606 6360.72784,2376.4614 C6366.61805,2372.20965 6374.89428,2373.51586 6379.17326,2379.39817 C6383.45225,2385.28048 6382.13157,2393.49468 6376.22375,2397.76396 C6274.79592,2470.91155 6117.52114,2498 5962.39465,2498" id="Fill-136" fill="#B2B3B6"></path>
        <path d="M7050.48039,1973.80782 L6565.49147,1904.64317 C6552.01147,1902.71823 6538.25836,1904.41253 6525.63298,1909.55752 L6496.07392,1921.59503 C6469.73948,1932.31967 6439.66941,1927.64483 6417.76662,1909.40672 L6386.03138,1882.98985 C6375.03593,1873.82644 6361.72334,1867.9097 6347.58257,1865.89605 L6290.69348,1857.77939 C6248.38569,1851.74733 6209.23205,1881.38425 6203.24094,1923.98124 L6194.77409,1984.19539 C6188.78299,2026.79237 6218.21871,2066.21365 6260.52649,2072.24571 L6317.40677,2080.35351 C6331.55636,2082.37602 6345.97025,2080.4156 6359.0714,2074.68515 L6396.8418,2058.17682 C6422.91193,2046.78687 6453.08772,2050.69884 6475.43103,2068.36923 L6500.50557,2088.19519 C6511.21027,2096.66668 6523.95019,2102.13989 6537.43899,2104.05596 L7022.4191,2173.22061 C7064.72689,2179.25267 7103.88054,2149.61575 7109.87165,2107.01876 L7116.22398,2061.85815 C7122.2239,2019.2523 7092.77937,1979.83988 7050.48039,1973.80782" id="Fill-137" fill="#C86358"></path>
        <path d="M7029.52495,2174 C7025.92922,2174 7022.28964,2173.74266 7018.62375,2173.21909 L6535.86626,2104.02897 C6522.43927,2102.1122 6509.75775,2096.63698 6499.10211,2088.16236 L6486.62229,2078.25017 L6499.10211,2088.16236 C6509.75775,2096.63698 6522.43927,2102.1122 6535.86626,2104.02897 L7018.62375,2173.21909 C7022.28964,2173.74266 7025.92922,2174 7029.52495,2174 C7067.27135,2174 7100.22929,2145.89623 7105.67551,2106.99287 L7106,2104.6679 L7105.67551,2106.99287 C7100.22929,2145.89623 7067.27135,2174 7029.52495,2174 M6327.65593,2081.08983 C6338.16248,2081.08983 6348.60764,2078.91572 6358.31611,2074.64735 L6395.91341,2058.13295 C6405.76221,2053.81134 6416.18983,2051.69047 6426.56482,2051.69047 C6416.18983,2051.69047 6405.76221,2053.81134 6395.91341,2058.13295 L6358.31611,2074.64735 C6348.60764,2078.91572 6338.16248,2081.08983 6327.65593,2081.08983 M6207.6287,2039.29357 C6198.99894,2026.63933 6194.02631,2011.38502 6194,1995.26995 C6194.02631,2011.38502 6198.99894,2026.63933 6207.6287,2039.29357 M6194.94717,1982.89967 L6196.14867,1974.26533 L6198.84985,1955 L6196.14867,1974.26533 L6194.94717,1982.89967" id="Fill-138" fill="#2B9A7A"></path>
        <polyline id="Fill-139" fill="#DEDFD9" points="6205 1955 6205 1955 6206.67 1945 6205 1955"></polyline>
        <path d="M7027.44915,2175 C7023.86235,2175 7020.23181,2174.74209 7016.57503,2174.21738 L6535.01691,2104.87588 C6521.62329,2102.95491 6508.97327,2097.46771 6498.3441,2088.97456 L6485.89529,2079.04068 L6473.44648,2069.0979 C6459.67668,2058.10571 6442.91496,2052.42286 6425.99578,2052.42286 L6425.98703,2052.42286 C6415.63781,2052.42286 6405.2361,2054.54837 6395.41177,2058.87944 L6357.90787,2075.42997 C6348.22352,2079.70768 6337.80431,2081.88655 6327.32387,2081.88655 C6326.09036,2081.88655 6324.8481,2081.85987 6323.6146,2081.79762 C6321.25256,2081.682 6318.89052,2081.45078 6316.53723,2081.11283 L6260.0583,2072.9843 C6237.93389,2069.80048 6219.35253,2057.33199 6207.59484,2039.99884 C6198.98652,2027.31691 6194.02624,2012.02923 6194,1995.8789 C6194,1992.18815 6194.24495,1988.46184 6194.76985,1984.70884 L6194.94481,1983.48156 L6196.14333,1974.82832 L6198.8378,1955.52084 L6200.29877,1945 C6204.06928,1947.28559 6208.14598,1949.33106 6212.63385,1951.01191 C6388.21193,2016.90279 6992.07108,2070.56531 7106,2089.26804 L7103.73419,2105.5162 L7103.41051,2107.84626 C7097.97782,2146.83474 7065.10177,2175 7027.44915,2175" id="Fill-140" fill="#B25C54"></path>
        <path d="M6942.34672,2237.78499 L6457.38233,2307.14044 C6443.9018,2309.07141 6431.16137,2314.54544 6420.45625,2323.00451 L6395.3895,2342.81908 C6373.06292,2360.48125 6342.88591,2364.40519 6316.80592,2353.04968 L6279.02519,2336.58329 C6265.92352,2330.87011 6251.50904,2328.92142 6237.35888,2330.94982 L6180.47632,2339.08115 C6138.17564,2345.13093 6108.75636,2384.51208 6114.78295,2427.03769 L6116.16625,2436.87854 L6123.28538,2487.16346 C6129.30316,2529.68908 6168.476,2559.26479 6210.77668,2553.21501 L6267.66806,2545.07483 C6281.8094,2543.05528 6295.11372,2537.13836 6306.1096,2527.97955 L6337.82851,2501.58373 C6359.71455,2483.36353 6389.78583,2478.66897 6416.13014,2489.36902 L6445.6992,2501.37115 C6458.32509,2506.49087 6472.07876,2508.17383 6485.55929,2506.25171 L6970.52368,2436.89626 C7012.82436,2430.84648 7042.24364,2391.46534 7036.21705,2348.93087 L7035.89105,2346.61016 L7030.16403,2306.1661 L7029.83803,2303.83654 C7023.82025,2261.31092 6984.6474,2231.73521 6942.34672,2237.78499" id="Fill-141" fill="#C86358"></path>
        <path d="M6205,2331.05 L6244.76886,2324.84 C6248.38422,2324.27 6252.01778,2324 6255.64224,2324 C6259.77667,2324 6263.9111,2324.36 6268,2325.03 C6247.03643,2327.56 6226.03643,2329.54 6205,2331.05" id="Fill-142" fill="#B25C54"></path>
        <path d="M6212,2544 C6213.05974,2543.90099 6214.11948,2543.77723 6215.17923,2543.64521 L6244.16947,2539.84983 L6215.17923,2543.64521 C6214.11948,2543.77723 6213.05974,2543.90099 6212,2544 M6302.01523,2526.79703 C6305.63452,2524.84158 6309.09215,2522.62211 6312.35221,2520.13861 L6327,2509 L6312.35221,2520.13861 C6309.09215,2522.62211 6305.63452,2524.84158 6302.01523,2526.79703" id="Fill-143" fill="#2B9A7A"></path>
        <path d="M6299,2527.35 C6299.8,2526.92 6300.6,2526.46 6301.39,2526 C6300.6,2526.46 6299.8,2526.92 6299,2527.35" id="Fill-144" fill="#78BBA7"></path>
        <path d="M6149,2526 C6148.8409,2525.80468 6148.6818,2525.60935 6148.5227,2525.41403 C6148.6818,2525.60935 6148.8409,2525.80468 6149,2526 M6148.49883,2525.37683 C6140.84605,2515.88972 6135.07861,2504.18894 6132,2491 C6135.07861,2504.18894 6140.84605,2515.88972 6148.49883,2525.37683" id="Fill-145" fill="#2B9A7A"></path>
        <path d="M6128.82,2491 C6127.86,2488.2738 6127.11,2485.47016 6126.58,2482.60456 L6125,2474 L6126.58,2482.60456 C6127.11,2485.47016 6127.86,2488.2738 6128.82,2491" id="Fill-146" fill="#DEDFD9"></path>
        <path d="M6478.59532,2499 C6471.73805,2499 6464.90719,2498.0893 6458.28759,2496.27675 C6464.90719,2498.0893 6471.73805,2499 6478.59532,2499 C6482.23082,2499 6485.86632,2498.74359 6489.48421,2498.23077 L6974,2429 L6489.48421,2498.23077 C6485.86632,2498.74359 6482.23082,2499 6478.59532,2499 M6417.33764,2480.30858 C6410.37474,2477.79752 6403.19177,2476.3298 6396,2475.87887 C6403.19177,2476.3298 6410.37474,2477.79752 6417.33764,2480.30858" id="Fill-147" fill="#2B9A7A"></path>
        <path d="M6431,2488.98 L6416.69408,2482.21 C6415.7989,2481.79 6414.90371,2481.38 6414,2481 C6414.90371,2481.38 6415.7989,2481.79 6416.69408,2482.21 L6431,2488.98" id="Fill-148" fill="#58B095"></path>
        <path d="M7009,2404 C7029.38632,2388.08666 7040.30365,2365.27443 7036.11227,2341.39167 C7040.30365,2365.27443 7029.38632,2388.08666 7009,2404 M7036.02449,2340.90739 L7035.61852,2338.68139 L7032.91936,2324 L7035.61852,2338.68139 L7036.02449,2340.90739" id="Fill-149" fill="#2B9A7A"></path>
        <path d="M6203.35423,2543 C6181.94741,2543 6162.08469,2534.13233 6147.88951,2519.49807 C6147.71404,2519.31514 6147.53858,2519.13221 6147.36311,2518.94929 C6147.35434,2518.94058 6147.34556,2518.93186 6147.33679,2518.91444 C6138.89689,2510.02935 6132.53625,2499.07108 6129.14099,2486.71906 C6128.29876,2483.65284 6127.64076,2480.4995 6127.17578,2477.27648 L6125.7896,2467.5987 L6125,2462.11085 C6371.04686,2423.73076 6882.99452,2358.79993 7033.73715,2324 L7035.89538,2339.05238 L7036.21999,2341.33463 C7036.24631,2341.50014 7036.27263,2341.66565 7036.29018,2341.83115 C7039.64157,2366.31741 7030.91215,2389.7061 7014.61138,2406.02156 C7003.19734,2417.44151 6988.08096,2425.39453 6970.80636,2427.84229 L6487.90705,2496.04841 C6484.30123,2496.55364 6480.67786,2496.80625 6477.05449,2496.80625 C6470.2201,2496.80625 6463.41203,2495.90903 6456.81452,2494.1233 C6453.90179,2493.33062 6451.03292,2492.37242 6448.2167,2491.24872 L6433.49512,2485.34275 L6418.77354,2479.44549 C6417.85235,2479.07963 6416.93115,2478.72249 6416.00118,2478.39147 C6409.06151,2475.91758 6401.90251,2474.47158 6394.73473,2474.02733 C6393.138,2473.93151 6391.54126,2473.87924 6389.94452,2473.87924 C6372.29266,2473.87924 6354.86014,2479.89845 6340.80533,2491.45778 L6309.2215,2517.41617 C6306.03679,2520.03814 6302.65908,2522.38137 6299.12344,2524.44585 C6298.43035,2524.84655 6297.72849,2525.24725 6297.02663,2525.62181 C6288.9552,2530.00338 6280.1205,2532.93023 6270.93487,2534.22815 L6242.6147,2538.22644 L6214.29452,2542.23344 C6213.25928,2542.37282 6212.22403,2542.50348 6211.18878,2542.60801 C6208.55679,2542.86934 6205.94235,2543 6203.35423,2543" id="Fill-150" fill="#B25C54"></path>
        <path d="M2133,2265 C2127.27721,2263.58567 2123,2257.85188 2123,2251 C2123,2244.14812 2127.27721,2238.41433 2133,2237 L2133,2265" id="Fill-152" fill="#B4DBCC"></path>
        <path d="M3127.07692,3017 L3124.91446,3017 C3117.78092,3017 3112,3010.728 3112,3003 C3112,2995.272 3117.78092,2989 3124.91446,2989 L3127.07692,2989 C3134.21046,2989 3140,2995.272 3140,3003 C3140,3010.728 3134.21046,3017 3127.07692,3017" id="Fill-154" fill="#86C8B4"></path>
        <path d="M3092.07692,3379 L3089.92308,3379 C3082.78092,3379 3077,3372.728 3077,3364.99067 C3077,3357.26267 3082.78092,3351 3089.92308,3351 L3092.07692,3351 C3099.21908,3351 3105,3357.26267 3105,3364.99067 C3105,3372.728 3099.21908,3379 3092.07692,3379" id="Fill-157" fill="#62BCA1"></path>
        <path d="M5868.07692,3379 L5865.92308,3379 C5858.78954,3379 5853,3372.728 5853,3364.99067 C5853,3357.26267 5858.78954,3351 5865.92308,3351 L5868.07692,3351 C5875.21046,3351 5881,3357.26267 5881,3364.99067 C5881,3372.728 5875.21046,3379 5868.07692,3379" id="Fill-160" fill="#62BCA1"></path>
        <path d="M3305.07692,3379 L3302.92308,3379 C3295.78092,3379 3290,3372.728 3290,3364.99067 C3290,3357.26267 3295.78092,3351 3302.92308,3351 L3305.07692,3351 C3312.21908,3351 3318,3357.26267 3318,3364.99067 C3318,3372.728 3312.21908,3379 3305.07692,3379" id="Fill-162" fill="#62BCA1"></path>
        <path d="M1769.17584,2429 C1841.7455,2367.57571 1877.65951,2310.51296 1875.94114,2259.39226 C1874.44887,2215.31048 1844.96519,2192.92413 1843.70806,2192 L1836.12912,2201.27583 C1836.38236,2201.47447 1862.45643,2221.52028 1863.62311,2260.07456 C1865.04303,2306.79053 1829.56313,2362.16049 1761,2420.19055 L1769.17584,2429" id="Fill-163" fill="#124A51"></path>
        <path d="M1575.85403,3066 C1584.28724,3066 1591.57368,3059.71986 1592.55285,3051.2093 C1605.09681,2942.74998 1659.6216,2845.51271 1746.07969,2777.41075 C1832.5466,2709.32629 1940.39647,2678.6603 2049.79889,2691.09813 C2126.7211,2699.84485 2199.3032,2729.71489 2259.67654,2777.47198 C2266.93651,2783.22732 2277.53096,2782.04651 2283.32659,2774.83922 C2289.12222,2767.62317 2287.93134,2757.12711 2280.66254,2751.38052 C2215.34924,2699.7049 2136.84801,2667.39452 2053.62736,2657.93057 C1935.30655,2644.47812 1818.64414,2677.63693 1725.13779,2751.27556 C1631.63145,2824.91418 1572.66952,2930.08473 1559.1111,3047.41322 C1558.05254,3056.57104 1564.67737,3064.84543 1573.91333,3065.88629 L1575.85403,3066" id="Fill-164" fill="#FFFFFE"></path>
        <path d="M1068.14597,3066 L1070.08667,3065.88629 C1079.32263,3064.84543 1085.94746,3056.57104 1084.8889,3047.41322 C1071.33048,2930.08473 1012.35973,2824.91418 918.862205,2751.27556 C825.355857,2677.63693 708.684634,2644.47812 590.372639,2657.93057 C507.16081,2667.39452 428.650763,2699.7049 363.33746,2751.38052 C356.068665,2757.12711 354.877782,2767.62317 360.673411,2774.83922 C366.469041,2782.03777 377.063487,2783.22732 384.332282,2777.47198 C444.696805,2729.71489 517.270081,2699.84485 594.209928,2691.09813 C703.612355,2678.66904 811.453403,2709.31755 897.920312,2777.41075 C984.378399,2845.51271 1038.90319,2942.74998 1051.44715,3051.2093 C1052.43514,3059.71986 1059.71276,3066 1068.14597,3066" id="Fill-165" fill="#FFFFFE"></path>
        <polyline id="Fill-166" fill="#FFFFFE" points="243 3096.59169 243.558683 3079.73537 592.124484 3091.22316 276.128155 2943.65394 283.260092 2928.37762 597.01296 3074.89932 362.785122 2824.7169 360.349613 2822.10683 372.649368 2810.59286 611.023681 3065.19231 493.141573 2740.74081 491.919454 2737.38875 507.763354 2731.62739 626.020828 3057.0915 637.29924 2714.57029 637.412723 2711 654.260506 2711.56741 642.781317 3060.13804 790.352187 2744.12778 805.628675 2751.26837 659.122794 3065.009 911.891923 2828.3483 923.414759 2840.65665 668.812452 3079.01956 993.258861 2961.13877 996.610959 2959.9254 1002.37238 2975.76039 676.922084 3094.00781 1019.4384 3105.29483 1023 3105.40831 1022.45005 3122.26463 673.866787 3110.78557 989.880575 3258.35479 982.739908 3273.63111 668.99577 3127.11814 903.214878 3377.29183 905.659116 3379.89317 893.350632 3391.40714 654.985048 3136.80769 772.858427 3461.25919 774.080546 3464.61125 758.236646 3470.37261 639.987902 3144.91723 628.70076 3487.43844 628.587277 3491 611.739494 3490.44132 623.227413 3141.86196 475.647813 3457.87222 460.371325 3450.74909 606.885936 3136.99973 356.718174 3371.20749 354.116806 3373.6517 342.585241 3361.34335 597.196278 3122.98044 272.741139 3240.86996 269.389041 3242.09206 263.627623 3226.23961 589.086645 3107.99219 246.570333 3096.70517 243 3096.59169"></polyline>
        <polyline id="Fill-167" fill="#FFFFFE" points="1615 3096.59169 1615.55868 3079.73537 1964.12058 3091.22316 1648.12778 2943.65394 1655.25964 2928.37762 1969.01773 3074.89932 1732.3483 2822.10683 1744.65665 2810.59286 1983.01956 3065.19231 1865.13877 2740.74081 1863.91667 2737.38875 1879.76039 2731.62739 1998.01654 3057.0915 2009.29483 2714.57029 2009.41704 2711 2026.2559 2711.56741 2014.77684 3060.13804 2162.35479 2744.12778 2177.62238 2751.26837 2031.11814 3065.009 2281.27437 2830.79251 2283.89317 2828.3483 2295.40714 2840.65665 2040.79896 3079.01956 2365.25046 2961.13877 2368.61125 2959.9254 2374.37261 2975.76039 2048.91723 3094.00781 2391.42971 3105.29483 2395 3105.40831 2394.44132 3122.26463 2045.87069 3110.78557 2361.87222 3258.35479 2354.74036 3273.63111 2040.99973 3127.11814 2275.20749 3377.29183 2277.6517 3379.89317 2265.34335 3391.40714 2026.97171 3136.80769 2144.86123 3461.25919 2146.08333 3464.61125 2130.23961 3470.37261 2011.99219 3144.91723 2000.70517 3487.43844 2000.59169 3491 1983.7441 3490.44132 1995.21443 3141.86196 1847.64521 3457.87222 1832.36889 3450.74909 1978.88186 3136.99973 1728.7169 3371.20749 1726.11556 3373.6517 1714.59286 3361.34335 1969.18358 3122.98044 1644.74954 3240.86996 1641.38875 3242.09206 1635.63612 3226.23961 1961.08277 3107.99219 1618.57029 3096.70517 1615 3096.59169"></polyline>
        <path d="M626,2721.05183 C416.505491,2721.05183 246.060556,2891.49677 246.060556,3101.00872 C246.060556,3310.50323 416.505491,3480.94817 626,3480.94817 C835.503233,3480.94817 1005.94817,3310.50323 1005.94817,3101.00872 C1005.94817,2891.49677 835.503233,2721.05183 626,2721.05183 Z M626,3526 C391.65021,3526 201,3335.34979 201,3101.00872 C201,2866.65893 391.65021,2676 626,2676 C860.34979,2676 1051,2866.65893 1051,3101.00872 C1051,3335.34979 860.34979,3526 626,3526 Z" id="Fill-168" fill="#124A51"></path>
        <path d="M2037.27891,2730.54512 C1829.14964,2706.68589 1640.41307,2856.5934 1616.55384,3064.72268 C1592.69461,3272.85195 1742.60212,3461.58852 1950.7314,3485.44775 C2158.85195,3509.30698 2347.58852,3359.39074 2371.44775,3151.27019 C2395.31571,2943.14091 2245.39947,2754.40435 2037.27891,2730.54512 Z M1945.60188,3530.20889 C1712.79335,3503.51447 1545.09827,3292.40169 1571.7927,3059.59316 C1598.48712,2826.79335 1809.59989,2659.09828 2042.39971,2685.7927 C2275.20824,2712.4784 2442.89459,2923.5999 2416.20889,3156.40843 C2389.51447,3389.20824 2178.4017,3556.89459 1945.60188,3530.20889 Z" id="Fill-169" fill="#124A51"></path>
        <polyline id="Fill-170" fill="#C86358" points="1217.63721 3118.09988 658.722538 3121 629 3057.92452 1057.14081 2550 1082.3417 2569.51231 666.270416 3062.13014 679.19826 3089.55426 1218 3086.42633 1217.63721 3118.09988"></polyline>
        <polyline id="Fill-171" fill="#C86358" points="1334.86243 3028 1304.05349 2994.61459 1759.00784 2603.75069 1753.04369 2589.66622 1050 2589.66622 1050 2544 1782.8382 2544 1813 2615.26228 1334.86243 3028"></polyline>
        <path d="M1758.88456,2428.86419 C1749.98716,2427.84497 1742.52623,2420.94557 1741.18552,2411.65056 L1727.71754,2318.5349 C1720.41331,2272.70447 1737.46812,2256.24002 1758.7975,2240.8819 C1761.35703,2239.03509 1764.02973,2237.1186 1766.71114,2234.98431 C1768.96596,2233.18977 1771.41231,2231.31683 1773.98054,2229.33936 C1788.63252,2218.093 1810.78896,2201.09715 1806.94967,2187.95172 C1806.23579,2185.50383 1804.95603,2182.35032 1802.92756,2181.2614 C1800.23745,2179.81531 1795.64075,2180.74743 1795.59722,2180.76485 C1794.33487,2181.16557 1793.02028,2181.43562 1791.68828,2181.57501 L1785.92499,2141.47665 C1791.94075,2140.0567 1807.2805,2137.6785 1822.01083,2145.56227 C1829.968,2149.82212 1840.54563,2158.66415 1845.78656,2176.60082 C1857.4002,2216.35073 1820.59177,2244.59294 1798.60945,2261.46683 C1796.23275,2263.29621 1793.96922,2265.02977 1791.87981,2266.68493 C1788.66734,2269.24607 1785.49841,2271.52844 1782.42523,2273.74112 C1768.04314,2284.10764 1763.69891,2287.23501 1767.71231,2312.45438 L1781.22382,2405.8488 C1782.8257,2416.92093 1775.15583,2427.19161 1764.10808,2428.78579 C1762.33208,2429.04713 1760.5822,2429.06456 1758.88456,2428.86419" id="Fill-172" fill="#124A51"></path>
        <path d="M1078.85528,2636.95193 C1072.54138,2636.44384 1066.88609,2632.16887 1064.92781,2625.76519 L998.688891,2403.43193 C996.142254,2395.06597 1000.87549,2386.22695 1009.27061,2383.6865 C1017.65695,2381.14605 1026.51749,2385.87654 1029.06413,2394.24251 L1095.31183,2616.55824 C1097.85847,2624.93297 1093.11645,2633.77199 1084.73011,2636.31244 C1082.77184,2636.90813 1080.78722,2637.10085 1078.85528,2636.95193" id="Fill-173" fill="#124A51"></path>
        <path d="M628.495659,3066.38093 C607.483728,3066.38093 590.387657,3083.47807 590.387657,3104.5 C590.387657,3125.51324 607.483728,3142.61038 628.495659,3142.61038 C649.516272,3142.61038 666.612343,3125.51324 666.612343,3104.5 C666.612343,3083.47807 649.516272,3066.38093 628.495659,3066.38093 Z M628.495659,3174 C590.179274,3174 559,3142.82746 559,3104.5 C559,3066.17254 590.179274,3035 628.495659,3035 C666.820726,3035 698,3066.17254 698,3104.5 C698,3142.82746 666.820726,3174 628.495659,3174 Z" id="Fill-174" fill="#124A51"></path>
        <path d="M1225.39407,2954 L607.099859,3044.72868 C598.48432,3046.23646 592.726019,3054.40291 594.242284,3062.97028 C595.600787,3070.6138 602.279364,3076 609.82563,3076 C610.737141,3076 611.657418,3075.92156 612.586458,3075.75597 L1235,2984.31262 C1230.10062,2974.89984 1226.87527,2964.63295 1225.39407,2954" id="Fill-175" fill="#124A51"></path>
        <path d="M1193.4338,3194.49635 L629.641366,3149.10557 C620.900945,3148.0687 613.01691,3154.78983 612.089895,3163.97353 C611.162881,3173.15722 617.510722,3181.40588 626.2688,3182.3872 L1201,3229 C1196.59447,3218.11288 1194.06064,3206.43885 1193.4338,3194.49635" id="Fill-176" fill="#124A51"></path>
        <path d="M1986.95817,3128 L1896.40454,2976.87975 C1872.62645,2938.55559 1854.77293,2896.91415 1843.43821,2853.36835 L1737,2394.3033 L1781.35443,2383 L1879.62418,2810.70891 C1895.24269,2870.70067 1919.49971,2928.1562 1951.64137,2981.32034 L2026,3104.29641 L1986.95817,3128" id="Fill-177" fill="#C86358"></path>
        <polyline id="Fill-178" fill="#C86358" points="1156.11959 2972 1026 2528.56714 1069.88041 2516 1200 2959.42413 1156.11959 2972"></polyline>
        <path d="M1225.99562,3229 C1148.25266,3229 1085,3165.7493 1085,3088 C1085,3010.25946 1148.25266,2947 1225.99562,2947 C1303.74734,2947 1367,3010.25946 1367,3088 C1367,3165.7493 1303.74734,3229 1225.99562,3229" id="Fill-179" fill="#A1D6D1"></path>
        <path d="M1125.41504,3321.72947 C1121.90834,3318.91948 1119.7563,3314.48265 1120.02209,3309.61083 C1120.45079,3301.66804 1127.14696,3295.58697 1134.98345,3296.02195 L1245.57747,3302.20742 C1253.40539,3302.6511 1259.40708,3309.44554 1258.97839,3317.38834 C1258.5497,3325.33113 1251.84495,3331.4209 1244.01703,3330.97722 L1133.41444,3324.79175 C1130.38787,3324.62646 1127.62709,3323.4955 1125.41504,3321.72947" id="Fill-180" fill="#124A51"></path>
        <path d="M917.739106,2328.91381 C979.639714,2334.70414 1165.94235,2314.09375 1165.94235,2314.09375 C1182.19898,2312.39902 1189.56541,2334.1304 1175.712,2342.91299 L991.934503,2428.73519 C928.118277,2466.93723 885.112636,2431.1184 881.490375,2422.15928 L866.949087,2365.51822 C863.039483,2355.85296 869.578709,2324.41219 917.739106,2328.91381" id="Fill-181" fill="#A1D6D1"></path>
        <path d="M1963.26372,3104.44241 C1965.77855,3082.50139 1985.61477,3066.75633 2007.5558,3069.26205 C2029.50594,3071.77689 2045.25099,3091.61311 2042.73616,3113.55413 C2040.22132,3135.50427 2020.39421,3151.25844 1998.44408,3148.73449 C1976.50305,3146.21965 1960.74888,3126.39255 1963.26372,3104.44241" id="Fill-182" fill="#FFFFFE"></path>
        <path d="M681,3104.0042 C681,3132.72105 657.708027,3156 628.995805,3156 C600.275192,3156 577,3132.72105 577,3104.0042 C577,3075.27895 600.275192,3052 628.995805,3052 C657.708027,3052 681,3075.27895 681,3104.0042" id="Fill-183" fill="#124A51"></path>
        <path d="M1194.72338,3334 C1193.87796,3334 1193.04183,3333.96484 1192.19642,3333.82421 C1181.97708,3332.54972 1174.78638,3323.63709 1176.17063,3313.96855 L1208.80749,3084.40235 C1210.16387,3074.73382 1219.79792,3067.5791 1229.80358,3069.24033 C1240.02292,3070.52361 1247.21362,3079.41866 1245.82937,3089.09599 L1213.19251,3318.66219 C1211.94761,3327.53966 1203.92078,3334 1194.72338,3334" id="Fill-184" fill="#124A51"></path>
        <path d="M1927.97033,2592.53343 C1928.37537,2597.85621 1924.58654,2602.51586 1919.49821,2602.94027 L1872.52182,2606.84836 C1847.77209,2608.91735 1826.1108,2589.57141 1824.14466,2563.63829 C1822.17008,2537.70518 1840.64166,2515.00818 1865.3914,2512.94803 L1912.36779,2509.03109 C1917.45612,2508.60668 1921.8947,2512.57667 1922.29974,2517.9083 L1927.97033,2592.53343" id="Fill-185" fill="#FFFFFE"></path>
        <polyline id="Fill-186" fill="#FFFFFE" points="1758.4421 2544 1843.61223 2544 1852 2589 1754 2589 1758.4421 2544"></polyline>
        <path d="M1779.73439,2191.26866 L1672.47297,2166.71422 C1656.36687,2163.02155 1646.16634,2146.37739 1649.69929,2129.54316 C1653.22358,2112.69989 1669.14784,2102.03821 1685.2626,2105.73088 L1792.52402,2130.29437 C1808.63878,2133.98704 1818.83931,2150.6312 1815.2977,2167.47447 C1811.76475,2184.3087 1795.84049,2194.96132 1779.73439,2191.26866" id="Fill-187" fill="#A1D6D1"></path>
        <path d="M926.48185,2620 L457.51815,2620 C456.123077,2620 455,2618.77609 455,2617.27704 L455,2587.72296 C455,2586.21442 456.123077,2585 457.51815,2585 L926.48185,2585 C927.868149,2585 929,2586.21442 929,2587.72296 L929,2617.27704 C929,2618.77609 927.868149,2620 926.48185,2620" id="Fill-188" fill="#FFFFFE"></path>
        <polyline id="Fill-189" fill="#FFFFFE" points="922.37092 2700 831 2611.01814 854.646221 2585 946 2673.97298 922.37092 2700"></polyline>
        <path d="M3857.79533,2198.87737 C3857.79533,2198.87737 3789.65347,2039.64058 3827.38491,1809.10465 C3874.6812,1520.17167 3959.96411,1375.84552 3970.03932,1354.10231 C3980.10573,1332.35032 4010.50735,1300.57313 4039.04351,1288.8639 C4067.57087,1277.15467 4218.61102,1243.69345 4331.0486,1303.91487 C4443.49498,1364.13628 4542.51361,1548.15104 4619.70995,1755.57548 C4676.61509,1908.49718 4633.1377,2234.00507 4614.67675,2297.57699 C4596.2158,2361.14014 4577.73725,2487.977 4575.23824,2520.06117 C4557.61322,2745.88709 4569.3603,3005.17423 4562.64643,3040.3107 C4555.93256,3075.43839 4597.88766,3503.68054 4227.8415,3541.31673 C3857.79533,3578.95293 3877.92815,2972.97603 3877.92815,2972.97603 L3883.70929,2677.69288 L3857.79533,2198.87737" id="Fill-190" fill="#FFFFFE"></path>
        <path d="M3891.96868,2644.2301 L3871.85372,2186.40883 C3871.85372,2186.40883 3816.54415,1939.89509 3881.90681,1670.74001 C3947.27825,1401.58493 4005.1011,1308.5136 4052.86206,1298.44589 C4100.63181,1288.38698 4261.52519,1263.2309 4344.48954,1336.1844 C4427.4539,1409.12911 4580.80746,1672.41943 4600.92243,1934.02153 C4621.02861,2195.63243 4575.78091,2375.07501 4563.20576,2528.51741 C4550.6394,2681.95982 4549.57609,2904.1352 4545.61286,2991.35935 C4538.06425,3157.38418 4533.38043,3418.78405 4369.63106,3501.99871 C4211.25095,3582.4964 3907.0659,3586.05746 3874.36699,3117.13094 C3859.28736,2900.80274 3891.96868,2644.2301 3891.96868,2644.2301" id="Fill-191" fill="#C86358"></path>
        <path d="M4489.96179,2168.69801 C4487.06234,2156.30053 4487.94096,2143.6751 4491.95626,2132.33851 C4491.49938,2129.21722 4491.17429,2126.00825 4491.15672,2122.58886 C4490.84041,2045.0827 4481.72032,1966.80499 4447.69131,1901.38067 C4416.35089,1841.14681 4369.79273,1797.94852 4306.08389,1767.5861 C4304.08064,1766.63042 4302.6397,1765.93777 4301.4887,1765.37664 C4300.99668,1765.19252 4300.3465,1764.93826 4299.32729,1764.52618 C4295.30321,1762.91293 4291.23519,1761.43119 4287.15839,1759.9933 C4280.10306,1757.51205 4272.96865,1755.24999 4265.77274,1753.22466 C4257.68942,1750.9626 4249.50946,1748.99864 4241.26799,1747.34156 C4238.21917,1746.72782 4235.15278,1746.19299 4232.0864,1745.64063 C4230.68939,1745.38637 4229.8547,1745.21978 4229.36267,1745.11457 C4213.45083,1743.20322 4197.32813,1742.64209 4181.31965,1743.21199 C4174.34339,1743.46625 4167.41986,1744.04491 4160.46996,1744.62358 C4148.17805,1745.64063 4156.21743,1745.19348 4158.87966,1744.76386 C4154.99615,1745.38637 4151.13021,1746.06148 4147.27307,1746.82426 C4131.98505,1749.84911 4116.9167,1754.02252 4102.26129,1759.31819 C4099.26519,1760.40538 4096.27788,1761.55394 4093.32571,1762.74634 C4092.46466,1763.16719 4091.36638,1763.70202 4089.92544,1764.39467 C4083.85417,1767.3406 4077.85319,1770.39175 4071.96642,1773.68839 C4064.41906,1777.92317 4057.04743,1782.47359 4049.89545,1787.35718 C4047.51439,1788.98797 4045.15968,1790.66259 4042.82255,1792.35475 L4042.29538,1792.74053 L4041.32889,1793.54715 C4030.15283,1802.82334 4019.60937,1812.80971 4009.9006,1823.62901 C4007.77434,1825.99628 3999.25171,1836.81558 3999.73495,1835.90374 C3995.50878,1841.78685 3991.4847,1847.82777 3987.71541,1854.01774 C3983.53317,1860.87405 3979.64088,1867.91449 3976.04732,1875.09521 C3974.68546,1877.82195 3973.37631,1880.575 3972.09352,1883.34558 L3971.32912,1884.98513 L3970.94253,1885.96711 C3958.03558,1918.65297 3953.07137,1945.8941 3951.57771,1975.44114 C3951.05932,1985.47134 3948.36196,1995.01933 3943.89856,2003.45383 C3944.54874,2007.25899 3944.91776,2011.28335 3944.87383,2015.57074 C3944.3203,2065.71302 3933.22331,2110.27029 3905.14257,2150.19824 C3897.67429,2164.96299 3884.20502,2174.31809 3869.05758,2178.42135 C3869.32117,2179.63129 3869.46175,2180.2801 3869.46175,2180.2801 L3889.5734,2636.79489 C3889.5734,2636.79489 3856.89746,2892.63537 3871.97461,3108.34623 C3904.66811,3575.93459 4208.80293,3572.38369 4367.15687,3492.11571 C4530.87919,3409.13853 4535.56224,3148.48461 4543.1096,2982.93355 C4547.07218,2895.95831 4548.13532,2674.41694 4560.6996,2521.41242 C4566.437,2451.57796 4578.97493,2376.31633 4589,2290.35814 C4541.88832,2262.94165 4502.8951,2223.99568 4489.96179,2168.69801" id="Fill-192" fill="#A1D6D1"></path>
        <path d="M4431.7617,2539.78411 C4419.01825,2531.31968 4405.67675,2524.285 4391.53495,2518.04851 C4358.13285,2503.33005 4334.06188,2470.14773 4318.94386,2436.27246 C4270.05437,2430.50963 4220.88345,2426.79055 4171.80048,2430.46578 C4101.75985,2443.52644 4035.01721,2468.56887 3968.10747,2492.83065 C3959.79652,2515.59251 3946.61333,2535.88083 3930.64224,2556.90595 C3936.32358,2549.56426 3936.12131,2542.60851 3941.80265,2535.26683 C3924.08142,2559.35318 3916.10467,2584.71138 3903.95925,2611.80633 C3898.80558,2624.18282 3893.65192,2636.55053 3888.44548,2648.89194 C3882.78172,2697.02078 3858.59642,2919.8502 3871.98189,3111.16387 C3904.7068,3578.95303 4209.1338,3575.4006 4367.63987,3495.09815 C4531.51948,3412.08533 4536.20703,3151.31948 4543.76164,2985.69733 C4546.88374,2917.18368 4519.85777,2584.20264 4431.7617,2539.78411" id="Fill-193" fill="#C86358"></path>
        <path d="M4406.32547,2529.70319 C4394.76191,2521.45179 4318.63805,2469.14604 4304.92597,2436.09648 C4260.58443,2430.47533 4215.99835,2426.84225 4171.49086,2430.43135 C4107.97862,2443.16911 4047.45333,2467.6066 3986.77958,2491.26998 C3979.2423,2513.4731 3957.7746,2539.8283 3962.92755,2532.6765 C3946.85734,2556.17274 3939.62575,2580.90933 3928.60369,2607.3437 C3923.9311,2619.41291 3919.25851,2631.48211 3914.54226,2643.53372 C3909.40678,2690.47342 3887.47619,2907.87743 3899.60745,3094.52784 C3929.28492,3550.90561 4205.3431,3547.43967 4349.0841,3469.09541 C4497.68983,3388.10331 4501.95193,3133.69998 4508.7905,2972.12043 C4511.62025,2905.27358 4486.21361,2573.045 4406.32547,2529.70319" id="Fill-194" fill="#57BCB8"></path>
        <path d="M3916.0826,2156.78029 C3916.0826,2156.78029 3873.05949,1978.43023 3888.24672,1835.25496 C3903.4251,1692.07092 4000.84626,1427.05706 4055.25315,1409.46967 C4144.26251,1380.70466 4275.40161,1380.58173 4353.84979,1511.20963 C4432.29797,1641.82874 4482.90142,1774.96787 4510.7373,1870.42097 C4538.57318,1965.87408 4556.29014,2081.42581 4553.76041,2093.98196 C4551.23068,2106.54689 4508.20757,2202 4508.20757,2202 C4508.20757,2202 4432.29797,2053.79349 4427.23851,2028.6724 C4422.1702,2003.55132 4437.35743,1887.99959 4318.42472,1850.32235 C4199.49201,1812.64511 4014.76862,1815.15634 3994.52193,1905.58698 C3974.27524,1996.01763 3964.15632,2086.44827 3916.0826,2156.78029" id="Fill-195" fill="#FFFFFE"></path>
        <path d="M4052.73667,2010.50875 C4051.07586,2020.03077 4042.01021,2026.39713 4032.49494,2024.73674 C4022.97049,2023.07635 4016.60251,2014.013 4018.26333,2004.49097 C4019.92414,1994.97812 4028.98062,1988.60259 4038.50506,1990.26298 C4048.02951,1991.92337 4054.39749,2000.98672 4052.73667,2010.50875" id="Fill-196" fill="#124A51"></path>
        <path d="M4034.73702,2125.50875 C4033.07663,2135.03077 4024.01328,2141.39713 4014.49125,2139.73674 C4004.96923,2138.07635 3998.60287,2129.013 4000.26326,2119.49097 C4001.92365,2109.97812 4010.987,2103.60259 4020.50903,2105.26298 C4030.02188,2106.92337 4036.39741,2115.98672 4034.73702,2125.50875" id="Fill-197" fill="#124A51"></path>
        <path d="M4017.73667,2219.50506 C4016.08504,2229.02951 4007.01021,2235.39749 3997.49494,2233.73667 C3987.97049,2232.07586 3981.60251,2223.01938 3983.26333,2213.49494 C3984.92414,2203.97049 3993.98979,2197.60251 4003.50506,2199.26333 C4013.02951,2200.92414 4019.39749,2209.98979 4017.73667,2219.50506" id="Fill-198" fill="#124A51"></path>
        <path d="M3999.73702,2327.50891 C3998.07663,2337.02184 3989.01328,2343.39743 3979.49125,2341.73702 C3969.96923,2340.07662 3963.60287,2331.01319 3965.26326,2321.49109 C3966.92365,2311.97816 3975.987,2305.60257 3985.50903,2307.26298 C3995.02188,2308.92338 4001.39741,2317.98681 3999.73702,2327.50891" id="Fill-199" fill="#124A51"></path>
        <path d="M3989.73667,2431.50506 C3988.07586,2441.02951 3979.01021,2447.39749 3969.49494,2445.73667 C3959.97049,2444.07586 3953.60251,2435.01021 3955.26333,2425.49494 C3956.92414,2415.97049 3965.98979,2409.60251 3975.50506,2411.26333 C3985.02951,2412.92414 3991.39749,2421.98979 3989.73667,2431.50506" id="Fill-200" fill="#124A51"></path>
        <path d="M4438.73703,2431.50506 C4437.07664,2441.02951 4428.01329,2447.39749 4418.49126,2445.73667 C4408.96923,2444.07586 4402.60287,2435.01021 4404.26326,2425.49494 C4405.92365,2415.97049 4414.98701,2409.60251 4424.49986,2411.26333 C4434.02189,2412.92414 4440.39743,2421.98979 4438.73703,2431.50506" id="Fill-201" fill="#124A51"></path>
        <path d="M4342.26333,2017.50875 C4343.92414,2027.03077 4352.98062,2033.39713 4362.50506,2031.73674 C4372.02951,2030.07635 4378.39749,2021.013 4376.73667,2011.49097 C4375.07586,2001.97812 4366.01021,1995.60259 4356.49494,1997.26298 C4346.97049,1998.92337 4340.60251,2007.98672 4342.26333,2017.50875" id="Fill-202" fill="#124A51"></path>
        <path d="M4359.26297,2125.50875 C4360.92336,2135.03077 4369.98671,2141.39713 4379.50874,2139.73674 C4389.03077,2138.07635 4395.39713,2129.013 4393.73674,2119.49097 C4392.07635,2109.97812 4383.01299,2103.60259 4373.50014,2105.26298 C4363.97811,2106.92337 4357.60257,2115.98672 4359.26297,2125.50875" id="Fill-203" fill="#124A51"></path>
        <path d="M4376.26328,2229.50874 C4377.92378,2239.03077 4386.98774,2245.39713 4396.50123,2243.73674 C4406.0239,2242.07635 4412.39069,2233.01299 4410.73936,2223.50014 C4409.06968,2213.97811 4400.01489,2207.60257 4390.49223,2209.26297 C4380.96956,2210.92336 4374.60277,2219.98671 4376.26328,2229.50874" id="Fill-204" fill="#124A51"></path>
        <path d="M4394.26333,2327.50891 C4395.92414,2337.02184 4404.98062,2343.39743 4414.50506,2341.73702 C4424.02951,2340.07662 4430.39749,2331.01319 4428.73667,2321.49109 C4427.07586,2311.97816 4418.01021,2305.60257 4408.49494,2307.26298 C4398.97049,2308.92338 4392.60251,2317.98681 4394.26333,2327.50891" id="Fill-205" fill="#124A51"></path>
        <path d="M3965.41069,2700 C3965.41069,2700 3920.22055,2996.03229 3975.44904,3186.10253 C4030.67752,3376.16396 4100.96353,3448.4986 4193.01101,3455.21878 C4285.05848,3461.94779 4360.36367,3426.62711 4410.57298,3293.74903 C4434.40529,3230.6745 4490.90612,2962.38724 4395.50668,2723.54712 L3965.41069,2700" id="Fill-206" fill="#124A51"></path>
        <path d="M4322.5138,1321 C4321.00441,1321 4319.46884,1320.73236 4317.9769,1320.18034 C4170.61515,1265.03749 4036.14865,1311.40667 4034.80503,1311.87504 C4028.35741,1314.15837 4021.15945,1311.0052 4018.77759,1304.79923 C4016.38699,1298.60161 4019.69369,1291.71817 4026.15876,1289.43484 C4031.99565,1287.3606 4170.92925,1239.48593 4327.05069,1297.88232 C4333.47213,1300.29111 4336.64796,1307.22474 4334.14394,1313.38053 C4332.21576,1318.10611 4327.50438,1321 4322.5138,1321" id="Fill-207" fill="#124A51"></path>
        <path d="M4428.57218,2673.74491 L4401.11936,2573.09873 C4386.85714,2518.37067 4275.18139,2088.94578 4270.51154,2041.12422 C4266.4864,1999.81624 4252.66851,1974.41676 4208.0261,1964.91706 C4208.0261,1964.91706 4195.33211,1961.46818 4189.51221,1962.07065 C4183.69232,1961.46818 4170.99833,1964.91706 4170.99833,1964.91706 C4126.35591,1974.41676 4112.52931,1999.81624 4108.50417,2041.12422 C4103.52067,2092.22004 3976.40653,2578.85268 3976.40653,2578.85268 L3955.42703,2673.74491 C3955.42703,2673.74491 3942.96828,2734.56744 4052.64017,2739.43953 C4129.55337,2742.85349 4254.42842,2742.85349 4331.36776,2739.43953 C4441.03965,2734.56744 4428.57218,2673.74491 4428.57218,2673.74491" id="Fill-208" fill="#C86358"></path>
        <path d="M4132,2002.45843 C4131.95742,1990.92352 4124.02839,1999.67627 4123.88361,1988.14137 C4123.84102,1984.9441 4124.06246,1981.9323 4124.39461,1979 C4112.05394,1992.37201 4106.63733,2010.97271 4104.38893,2034.86392 C4100.90561,2071.78268 4036.511,2333.48197 4000,2480 C4014.68275,2469.18934 4029.97019,2459.64169 4046.25408,2451.84282 C4066.85593,2308.09811 4109.14123,2145.84985 4132,2002.45843" id="Fill-209" fill="#C86358"></path>
        <path d="M4275.2424,2037.32913 C4272.82267,2011.79269 4266.73951,1992.36128 4252.19575,1979 C4252.62724,1981.24142 4252.89798,1983.59621 4253.10104,1986.00333 C4258.98115,1994.66374 4246.61176,1990.53849 4247.00941,2003.66429 C4249.84371,2098.23109 4284.79441,2205.39167 4300.66648,2298.24034 C4310.21003,2354.09257 4316.73314,2410.42448 4322.91783,2466.8 C4331.15845,2470.23626 4339.13679,2474.38767 4346.65825,2479.46356 C4359.61988,2488.21991 4372.84378,2496.55763 4386,2505 C4351.75999,2368.79695 4278.93968,2076.29661 4275.2424,2037.32913" id="Fill-210" fill="#C86358"></path>
        <path d="M4299.93841,1952.28771 C4258.22856,1942.73382 4197.00869,1945.31867 4197.00869,1945.31867 C4196.99099,1945.31867 4135.77112,1942.73382 4094.06127,1952.28771 C4034.15091,1966.0066 4035,2015 4035,2015 C4056.93472,1997.58195 4090.69015,2001.06191 4090.69015,2001.06191 L4303.31838,2001.06191 C4303.31838,2001.06191 4337.06496,1997.58195 4359,2015 C4359,2015 4359.84877,1966.0066 4299.93841,1952.28771" id="Fill-211" fill="#57BCB8"></path>
        <path d="M4018,2114.32813 C4018,2114.32813 4018,2082.21809 4034.45084,2072.34074 C4050.91053,2062.46338 4196.48146,1997 4196.48146,1997 L4318,1997 L4076.22837,2110.62412 C4076.22837,2110.62412 4045.84874,2126.68346 4018,2114.32813" id="Fill-212" fill="#57BCB8"></path>
        <path d="M3990,2222.34437 C3990,2222.34437 3990,2190.32021 4006.45969,2180.46067 C4022.91053,2170.60973 4226.70983,2077 4226.70983,2077 L4290,2105.33005 L4048.22837,2218.65027 C4048.22837,2218.65027 4017.84874,2234.65804 3990,2222.34437" id="Fill-213" fill="#57BCB8"></path>
        <path d="M3983,2316.3919 C3983,2316.3919 3983,2284.69473 3999.54555,2274.94437 C4016.10001,2265.1855 4237.19098,2164 4237.19098,2164 L4300,2190.822 L4041.56361,2312.73552 C4041.56361,2312.73552 4011.00907,2328.57985 3983,2316.3919" id="Fill-214" fill="#57BCB8"></path>
        <path d="M3972,2423.23584 C3972,2423.23584 3972,2390.44489 3988.28713,2380.3608 C4004.57425,2370.2767 4233.37337,2261 4233.37337,2261 L4296,2290.41489 L4029.6179,2419.44549 C4029.6179,2419.44549 3999.55677,2435.84096 3972,2423.23584" id="Fill-215" fill="#57BCB8"></path>
        <path d="M3931.00457,2568 C3931.00457,2568 3929.75987,2523.84867 3968.35423,2487.25581 C3982.23741,2474.10567 4230.23706,2359 4230.23706,2359 L4290,2388.4401 L4008.61109,2517.11926 C4008.61109,2517.11926 3962.54854,2542.76689 3931.00457,2568" id="Fill-216" fill="#57BCB8"></path>
        <path d="M4380,2114.32813 C4380,2114.32813 4380,2082.21809 4363.54916,2072.34074 C4347.08947,2062.46338 4201.51854,1997 4201.51854,1997 L4080,1997 L4321.77163,2110.62412 C4321.77163,2110.62412 4352.15126,2126.68346 4380,2114.32813" id="Fill-217" fill="#57BCB8"></path>
        <path d="M4398,2229.17996 C4398,2229.17996 4398,2196.02487 4381.54916,2185.81714 C4365.08947,2175.61832 4165.51128,2077 4165.51128,2077 L4098,2108.0333 L4339.77163,2225.3554 C4339.77163,2225.3554 4370.15126,2241.92848 4398,2229.17996" id="Fill-218" fill="#57BCB8"></path>
        <path d="M4415,2326.26941 C4415,2326.26941 4415,2293.72962 4398.49846,2283.72007 C4381.98804,2273.70177 4153.86024,2174 4153.86024,2174 L4098,2199.86384 L4356.60106,2322.51582 C4356.60106,2322.51582 4387.07432,2338.78134 4415,2326.26941" id="Fill-219" fill="#57BCB8"></path>
        <path d="M4422,2434.18757 C4422,2434.18757 4422,2401.06445 4405.62836,2390.87819 C4389.26553,2380.69194 4152.56333,2272 4152.56333,2272 L4098,2300.0211 L4364.08313,2430.35883 C4364.08313,2430.35883 4394.30024,2446.92039 4422,2434.18757" id="Fill-220" fill="#57BCB8"></path>
        <path d="M4467,2568 C4467,2568 4459.79415,2519.77401 4426.3327,2488.03447 C4412.25863,2474.69801 4159.00539,2359 4159.00539,2359 L4098,2388.61883 L4385.23891,2518.07922 C4385.23891,2518.07922 4434.80024,2542.6137 4467,2568" id="Fill-221" fill="#57BCB8"></path>
        <path d="M4056.12848,3266.3414 C4061.48454,3273.5764 4067.7527,3272.81717 4052,3261 C4053.37845,3262.77749 4054.77747,3264.51925 4056.12848,3266.3414" id="Fill-222" fill="#124A51"></path>
        <path d="M3719.60218,2198.87737 C3719.60218,2198.87737 3791.81137,2038.92136 3749.94181,1809.10465 C3692.61704,1494.49907 3617.63295,1375.84552 3607.57828,1354.10231 C3597.5324,1332.35032 3567.19277,1300.57313 3538.7148,1288.8639 C3510.2456,1277.15467 3359.51343,1243.69345 3247.30512,1303.91487 C3135.08803,1364.13628 3036.28008,1548.15104 2959.23236,1755.57548 C2902.44326,1908.49718 2945.832,2234.00507 2964.2553,2297.57699 C2982.67861,2361.14014 3001.11949,2487.977 3003.61339,2520.06117 C3021.20247,2745.88709 3009.47935,3005.17423 3016.17953,3040.3107 C3022.87971,3075.43839 2981.01015,3503.68054 3350.30178,3541.31673 C3719.60218,3578.95293 3699.50163,2972.97603 3699.50163,2972.97603 L3693.73228,2677.69288 L3719.60218,2198.87737" id="Fill-223" fill="#FFFFFE"></path>
        <path d="M3687.03132,2644.2301 L3707.14628,2186.40883 C3707.14628,2186.40883 3762.45585,1939.89509 3697.09319,1670.74001 C3631.72175,1401.58493 3573.8989,1308.5136 3526.13794,1298.44589 C3478.36819,1288.38698 3317.47481,1263.2309 3234.51046,1336.1844 C3151.5461,1409.12911 2998.19254,1672.41943 2978.07757,1934.02153 C2957.97139,2195.63243 3003.21909,2375.07501 3015.79424,2528.51741 C3028.3606,2681.95982 3029.42391,2904.1352 3033.38714,2991.35935 C3040.93575,3157.38418 3045.61957,3418.78405 3209.36894,3501.99871 C3367.75783,3582.4964 3671.9341,3586.05746 3704.63301,3117.13094 C3719.71264,2900.80274 3687.03132,2644.2301 3687.03132,2644.2301" id="Fill-224" fill="#C86358"></path>
        <path d="M3089.03821,2168.69801 C3091.93766,2156.30053 3091.05904,2143.6751 3087.03495,2132.33851 C3087.50062,2129.21722 3087.82571,2126.00825 3087.84328,2122.58886 C3088.15959,2045.0827 3097.27968,1966.80499 3131.30869,1901.38067 C3162.64911,1841.14681 3209.20727,1797.94852 3272.91611,1767.5861 C3274.91936,1766.63042 3276.3603,1765.93777 3277.5113,1765.37664 C3278.00332,1765.19252 3278.6535,1764.93826 3279.67271,1764.52618 C3283.68801,1762.91293 3287.76481,1761.43119 3291.84161,1759.9933 C3298.89694,1757.51205 3306.02256,1755.24999 3313.22726,1753.22466 C3321.31058,1750.9626 3329.49933,1748.99864 3337.73201,1747.34156 C3340.78083,1746.72782 3343.84722,1746.19299 3346.9136,1745.64063 C3348.31061,1745.38637 3349.1453,1745.21978 3349.63733,1745.11457 C3365.54917,1743.20322 3381.67187,1742.64209 3397.68035,1743.21199 C3404.65661,1743.46625 3411.58014,1744.04491 3418.53004,1744.62358 C3430.82195,1745.64063 3422.78257,1745.19348 3420.12034,1744.76386 C3424.00385,1745.38637 3427.86979,1746.06148 3431.72693,1746.82426 C3447.01495,1749.84911 3462.09209,1754.02252 3476.73871,1759.31819 C3479.73481,1760.40538 3482.72212,1761.55394 3485.67429,1762.74634 C3486.53534,1763.16719 3487.63362,1763.70202 3489.07456,1764.39467 C3495.14583,1767.3406 3501.14681,1770.39175 3507.03358,1773.68839 C3514.58094,1777.92317 3521.95257,1782.47359 3529.10455,1787.35718 C3531.48561,1788.98797 3533.84032,1790.66259 3536.16866,1792.35475 L3536.70462,1792.74053 L3537.67111,1793.54715 C3548.84717,1802.82334 3559.39063,1812.80971 3569.0994,1823.62901 C3571.21687,1825.99628 3579.74829,1836.81558 3579.26505,1835.90374 C3583.49122,1841.78685 3587.5153,1847.82777 3591.28459,1854.01774 C3595.46683,1860.87405 3599.35912,1867.91449 3602.95268,1875.09521 C3604.31454,1877.82195 3605.62369,1880.575 3606.90648,1883.34558 L3607.67088,1884.98513 L3608.05747,1885.96711 C3620.96442,1918.65297 3625.92863,1945.8941 3627.42229,1975.44114 C3627.93189,1985.47134 3630.63804,1995.01933 3635.10144,2003.45383 C3634.45126,2007.25899 3634.08224,2011.28335 3634.12617,2015.57074 C3634.6797,2065.71302 3645.77669,2110.27029 3673.85743,2150.19824 C3681.32571,2164.96299 3694.79498,2174.31809 3709.94242,2178.42135 C3709.67883,2179.63129 3709.53825,2180.2801 3709.53825,2180.2801 L3689.4266,2636.79489 C3689.4266,2636.79489 3722.10254,2892.63537 3707.02539,3108.34623 C3674.33189,3575.93459 3370.20586,3572.38369 3211.84313,3492.11571 C3048.12081,3409.13853 3043.43776,3148.48461 3035.8904,2982.93355 C3031.92782,2895.95831 3030.86468,2674.41694 3018.3004,2521.41242 C3012.563,2451.57796 3000.02507,2376.31633 2990,2290.35814 C3037.11168,2262.94165 3076.09612,2223.99568 3089.03821,2168.69801" id="Fill-225" fill="#A1D6D1"></path>
        <path d="M3148.2383,2539.78411 C3160.98175,2531.31968 3174.32325,2524.285 3188.46505,2518.04851 C3221.86715,2503.33005 3245.93812,2470.14773 3261.05614,2436.27246 C3309.94563,2430.50963 3359.11655,2426.79055 3408.19952,2430.46578 C3478.24015,2443.52644 3544.98279,2468.56887 3611.88374,2492.83065 C3620.19469,2515.59251 3633.38667,2535.88083 3649.35776,2556.90595 C3643.67642,2549.56426 3643.87869,2542.60851 3638.19735,2535.26683 C3655.91858,2559.35318 3663.89533,2584.71138 3676.04075,2611.80633 C3681.19442,2624.18282 3686.34808,2636.55053 3691.55452,2648.89194 C3697.21828,2697.02078 3721.40358,2919.8502 3708.01811,3111.16387 C3675.2932,3578.95303 3370.875,3575.4006 3212.36013,3495.09815 C3048.48052,3412.08533 3043.79297,3151.31948 3036.23836,2985.69733 C3033.11626,2917.18368 3060.14223,2584.20264 3148.2383,2539.78411" id="Fill-226" fill="#C86358"></path>
        <path d="M3167.50721,2527.56556 C3179.06257,2519.31417 3183.44714,2510.03355 3196.26896,2503.95496 C3226.56794,2489.59859 3250.34246,2469.14604 3264.05517,2436.09648 C3308.39002,2430.47533 3352.98689,2426.84225 3397.48769,2430.43135 C3461.0116,2443.16911 3521.53968,2467.6066 3582.21624,2491.26998 C3589.75386,2513.4731 3611.22255,2539.8283 3606.06937,2532.6765 C3622.14031,2556.17274 3629.37224,2580.90933 3640.39481,2607.3437 C3645.05888,2619.41291 3649.74042,2631.48211 3654.45689,2643.53372 C3659.5926,2690.47342 3681.52421,2907.87743 3669.39239,3094.52784 C3639.71354,3550.90561 3363.64263,3547.43967 3219.895,3469.09541 C3071.28242,3388.10331 3067.02012,3133.69998 3060.18123,2972.12043 C3057.34262,2905.27358 3087.61539,2570.89858 3167.50721,2527.56556" id="Fill-227" fill="#57BCB8"></path>
        <path d="M3662.9174,2156.78029 C3662.9174,2156.78029 3705.94051,1978.43023 3690.75328,1835.25496 C3675.5749,1692.07092 3578.15374,1427.05706 3523.74685,1409.46967 C3434.73749,1380.70466 3303.58954,1380.58173 3225.15021,1511.20963 C3146.70203,1641.82874 3096.09858,1774.96787 3068.2627,1870.42097 C3040.42682,1965.87408 3022.70986,2081.42581 3025.23959,2093.98196 C3027.76932,2106.54689 3070.79243,2202 3070.79243,2202 C3070.79243,2202 3146.70203,2053.79349 3151.76149,2028.6724 C3156.8298,2003.55132 3141.64257,1887.99959 3260.57528,1850.32235 C3379.50799,1812.64511 3564.23138,1815.15634 3584.47807,1905.58698 C3604.71591,1996.01763 3614.84368,2086.44827 3662.9174,2156.78029" id="Fill-228" fill="#FFFFFE"></path>
        <path d="M3527.26333,2010.50875 C3528.92414,2020.03077 3537.98979,2026.39713 3547.50506,2024.73674 C3557.02951,2023.07635 3563.39749,2014.013 3561.73667,2004.49097 C3560.07586,1994.97812 3551.01021,1988.60259 3541.49494,1990.26298 C3531.97049,1991.92337 3525.60251,2000.98672 3527.26333,2010.50875" id="Fill-229" fill="#124A51"></path>
        <path d="M3544.26298,2125.50875 C3545.92338,2135.03077 3554.98681,2141.39713 3564.50891,2139.73674 C3574.02184,2138.07635 3580.39743,2129.013 3578.73702,2119.49097 C3577.07662,2109.97812 3568.01319,2103.60259 3558.49109,2105.26298 C3548.97816,2106.92337 3542.60257,2115.98672 3544.26298,2125.50875" id="Fill-230" fill="#124A51"></path>
        <path d="M3561.26064,2219.50506 C3562.93032,2229.02951 3571.98511,2235.39749 3581.50777,2233.73667 C3591.03044,2232.07586 3597.39723,2223.01938 3595.73672,2213.49494 C3594.07622,2203.97049 3585.01226,2197.60251 3575.49877,2199.26333 C3565.9761,2200.92414 3559.60931,2209.98979 3561.26064,2219.50506" id="Fill-231" fill="#124A51"></path>
        <path d="M3579.26298,2327.50891 C3580.92337,2337.02184 3589.98672,2343.39743 3599.50875,2341.73702 C3609.03077,2340.07662 3615.39713,2331.01319 3613.73674,2321.49109 C3612.07635,2311.97816 3603.013,2305.60257 3593.49097,2307.26298 C3583.97812,2308.92338 3577.60259,2317.98681 3579.26298,2327.50891" id="Fill-232" fill="#124A51"></path>
        <path d="M3589.26333,2431.50506 C3590.92414,2441.02951 3599.98979,2447.39749 3609.50506,2445.73667 C3619.02951,2444.07586 3625.39749,2435.01021 3623.73667,2425.49494 C3622.07586,2415.97049 3613.01021,2409.60251 3603.49494,2411.26333 C3593.97049,2412.92414 3587.60251,2421.98979 3589.26333,2431.50506" id="Fill-233" fill="#124A51"></path>
        <path d="M3140.26297,2431.50506 C3141.92336,2441.02951 3150.98671,2447.39749 3160.50874,2445.73667 C3170.03077,2444.07586 3176.39713,2435.01021 3174.73674,2425.49494 C3173.07635,2415.97049 3164.01299,2409.60251 3154.50014,2411.26333 C3144.97811,2412.92414 3138.60257,2421.98979 3140.26297,2431.50506" id="Fill-234" fill="#124A51"></path>
        <path d="M3244.73667,2017.50875 C3243.07586,2027.03077 3234.01021,2033.39713 3224.49494,2031.73674 C3214.97049,2030.07635 3208.60251,2021.013 3210.26333,2011.49097 C3211.92414,2001.97812 3220.98979,1995.60259 3230.50506,1997.26298 C3240.02951,1998.92337 3246.39749,2007.98672 3244.73667,2017.50875" id="Fill-235" fill="#124A51"></path>
        <path d="M3219.73936,2125.50875 C3218.06968,2135.03077 3209.01489,2141.39713 3199.49223,2139.73674 C3189.96956,2138.07635 3183.60277,2129.013 3185.26328,2119.49097 C3186.92378,2109.97812 3195.98774,2103.60259 3205.50123,2105.26298 C3215.0239,2106.92337 3221.39069,2115.98672 3219.73936,2125.50875" id="Fill-236" fill="#124A51"></path>
        <path d="M3202.73674,2229.50874 C3201.07635,2239.03077 3192.01299,2245.39713 3182.50014,2243.73674 C3172.97811,2242.07635 3166.60257,2233.01299 3168.26297,2223.50014 C3169.92336,2213.97811 3178.98671,2207.60257 3188.50874,2209.26297 C3198.03077,2210.92336 3204.39713,2219.98671 3202.73674,2229.50874" id="Fill-237" fill="#124A51"></path>
        <path d="M3184.73667,2327.50891 C3183.07586,2337.02184 3174.01938,2343.39743 3164.49494,2341.73702 C3154.97049,2340.07662 3148.60251,2331.01319 3150.26333,2321.49109 C3151.92414,2311.97816 3160.98979,2305.60257 3170.50506,2307.26298 C3180.02951,2308.92338 3186.39749,2317.98681 3184.73667,2327.50891" id="Fill-238" fill="#124A51"></path>
        <path d="M3616.58931,2700 C3616.58931,2700 3661.77945,2996.03229 3606.55096,3186.10253 C3551.32248,3376.16396 3481.03647,3448.4986 3388.98899,3455.21878 C3296.94152,3461.94779 3221.63633,3426.62711 3171.42702,3293.74903 C3147.59471,3230.6745 3091.09388,2962.38724 3186.49332,2723.54712 L3616.58931,2700" id="Fill-239" fill="#124A51"></path>
        <path d="M3256.4862,1321 C3257.99559,1321 3259.53116,1320.73236 3261.0231,1320.18034 C3408.38485,1265.03749 3542.85135,1311.40667 3544.19497,1311.87504 C3550.64259,1314.15837 3557.84055,1311.0052 3560.22241,1304.79923 C3562.61301,1298.60161 3559.30631,1291.71817 3552.84124,1289.43484 C3547.00435,1287.3606 3408.07075,1239.48593 3251.94931,1297.88232 C3245.52787,1300.29111 3242.35204,1307.22474 3244.85606,1313.38053 C3246.78424,1318.10611 3251.49562,1321 3256.4862,1321" id="Fill-240" fill="#124A51"></path>
        <path d="M3247.63224,2739.43953 C3324.57158,2742.85349 3449.44663,2742.85349 3526.35983,2739.43953 C3636.03172,2734.56744 3623.57297,2673.74491 3623.57297,2673.74491 L3602.59347,2578.85268 C3602.59347,2578.85268 3475.47933,2092.22004 3470.49583,2041.12422 C3466.46198,1999.81624 3452.64409,1974.41676 3408.00167,1964.91706 C3408.00167,1964.91706 3395.30768,1961.46818 3389.48779,1962.07065 C3383.66789,1961.46818 3370.9739,1964.91706 3370.9739,1964.91706 C3326.33149,1974.41676 3312.5136,1999.81624 3308.47975,2041.12422 C3303.81861,2088.94578 3192.14286,2518.37067 3177.88064,2573.09873 L3150.42782,2673.74491 C3150.42782,2673.74491 3137.96035,2734.56744 3247.63224,2739.43953" id="Fill-241" fill="#C86358"></path>
        <path d="M3440,2002.45843 C3440.04259,1990.92352 3447.97213,1999.67627 3448.11692,1988.14137 C3448.1595,1984.9441 3447.93806,1981.9323 3447.60588,1979 C3459.94735,1992.37201 3465.36431,2010.97271 3467.61285,2034.86392 C3471.0964,2071.78268 3535.48664,2333.48197 3572,2480 C3557.32482,2469.18934 3542.03639,2459.64169 3525.75145,2451.84282 C3505.14828,2308.09811 3462.86024,2145.84985 3440,2002.45843" id="Fill-242" fill="#C86358"></path>
        <path d="M3302.74914,2037.32913 C3305.17733,2011.79269 3311.26049,1992.36128 3325.80425,1979 C3325.37276,1981.24142 3325.10202,1983.59621 3324.89896,1986.00333 C3319.01885,1994.66374 3331.38824,1990.53849 3330.99059,2003.66429 C3328.15629,2098.23109 3293.20559,2205.39167 3277.33352,2298.24034 C3267.78997,2354.09257 3261.26686,2410.42448 3255.09063,2466.8 C3246.83309,2470.23626 3238.86321,2474.38767 3231.34175,2479.46356 C3218.38012,2488.21991 3205.15622,2496.55763 3192,2505 C3226.24001,2368.79695 3299.06032,2076.29661 3302.74914,2037.32913" id="Fill-243" fill="#C86358"></path>
        <path d="M3286.0688,1952.28771 C3327.77752,1942.73382 3388.99572,1945.31867 3388.99572,1945.31867 C3388.99572,1945.31867 3450.23162,1942.73382 3491.94034,1952.28771 C3551.84906,1966.0066 3551,2015 3551,2015 C3529.06588,1997.58195 3495.31137,2001.06191 3495.31137,2001.06191 L3282.68893,2001.06191 C3282.68893,2001.06191 3248.94327,1997.58195 3227,2015 C3227,2015 3226.16008,1966.0066 3286.0688,1952.28771" id="Fill-244" fill="#57BCB8"></path>
        <path d="M3562,2114.32813 C3562,2114.32813 3562,2082.21809 3545.54031,2072.34074 C3529.08947,2062.46338 3383.51854,1997 3383.51854,1997 L3262,1997 L3503.77163,2110.62412 C3503.77163,2110.62412 3534.15126,2126.68346 3562,2114.32813" id="Fill-245" fill="#57BCB8"></path>
        <path d="M3590,2222.34437 C3590,2222.34437 3590,2190.32021 3573.54031,2180.46067 C3557.08947,2170.60973 3353.29017,2077 3353.29017,2077 L3290,2105.33005 L3531.77163,2218.65027 C3531.77163,2218.65027 3562.15126,2234.65804 3590,2222.34437" id="Fill-246" fill="#57BCB8"></path>
        <path d="M3596,2316.3919 C3596,2316.3919 3596,2284.69473 3579.45445,2274.94437 C3562.89999,2265.1855 3341.80012,2164 3341.80012,2164 L3279,2190.822 L3537.43639,2312.73552 C3537.43639,2312.73552 3567.99093,2328.57985 3596,2316.3919" id="Fill-247" fill="#57BCB8"></path>
        <path d="M3603,2423.23584 C3603,2423.23584 3603,2390.44489 3586.72119,2380.3608 C3570.43362,2370.2767 3341.62832,2261 3341.62832,2261 L3279,2290.41489 L3545.3893,2419.44549 C3545.3893,2419.44549 3575.45124,2435.84096 3603,2423.23584" id="Fill-248" fill="#57BCB8"></path>
        <path d="M3648.99543,2568 C3648.99543,2568 3650.24013,2523.84867 3611.64577,2487.25581 C3597.76259,2474.10567 3349.76294,2359 3349.76294,2359 L3290,2388.4401 L3571.38891,2517.11926 C3571.38891,2517.11926 3617.45146,2542.76689 3648.99543,2568" id="Fill-249" fill="#57BCB8"></path>
        <path d="M3203,2114.32813 C3203,2114.32813 3203,2082.21809 3219.45084,2072.34074 C3235.91053,2062.46338 3381.48146,1997 3381.48146,1997 L3503,1997 L3261.22837,2110.62412 C3261.22837,2110.62412 3230.84874,2126.68346 3203,2114.32813" id="Fill-250" fill="#57BCB8"></path>
        <path d="M3185,2229.17996 C3185,2229.17996 3185,2196.02487 3201.45084,2185.81714 C3217.91053,2175.61832 3417.48872,2077 3417.48872,2077 L3485,2108.0333 L3243.22837,2225.3554 C3243.22837,2225.3554 3212.84874,2241.92848 3185,2229.17996" id="Fill-251" fill="#57BCB8"></path>
        <path d="M3168,2326.26941 C3168,2326.26941 3168,2293.72962 3184.50995,2283.72007 C3201.01991,2273.70177 3429.14132,2174 3429.14132,2174 L3485,2199.86384 L3226.40618,2322.51582 C3226.40618,2322.51582 3195.93378,2338.78134 3168,2326.26941" id="Fill-252" fill="#57BCB8"></path>
        <path d="M3157,2434.18757 C3157,2434.18757 3157,2401.06445 3173.37164,2390.87819 C3189.73447,2380.69194 3426.43667,2272 3426.43667,2272 L3481,2300.0211 L3214.91687,2430.35883 C3214.91687,2430.35883 3184.69976,2446.92039 3157,2434.18757" id="Fill-253" fill="#57BCB8"></path>
        <path d="M3112,2568 C3112,2568 3119.20585,2519.77401 3152.6673,2488.03447 C3166.74137,2474.69801 3419.99461,2359 3419.99461,2359 L3481,2388.61883 L3193.76109,2518.07922 C3193.76109,2518.07922 3144.19976,2542.6137 3112,2568" id="Fill-254" fill="#57BCB8"></path>
        <polygon id="Fill-255" fill="#A1D6D1" points="5546 3243 7127 3243 7127 3104 5546 3104"></polygon>
        <path d="M5666.5,3463 C5623.14183,3463 5588,3427.65912 5588,3384.07496 L5588,2952.92504 C5588,2909.33211 5623.14183,2874 5666.5,2874 C5709.84944,2874 5745,2909.33211 5745,2952.92504 L5745,3384.07496 C5745,3427.65912 5709.84944,3463 5666.5,3463" id="Fill-256" fill="#124A51"></path>
        <path d="M5826.5,3543 C5783.15056,3543 5748,3507.64915 5748,3464.03311 L5748,2876.96689 C5748,2833.35085 5783.15056,2798 5826.5,2798 C5869.85817,2798 5905,2833.35085 5905,2876.96689 L5905,3464.03311 C5905,3507.64915 5869.85817,3543 5826.5,3543" id="Fill-257" fill="#124A51"></path>
        <path d="M6850.5,3543 C6807.14183,3543 6772,3507.64915 6772,3464.03311 L6772,2876.96689 C6772,2833.35085 6807.14183,2798 6850.5,2798 C6893.84944,2798 6929,2833.35085 6929,2876.96689 L6929,3464.03311 C6929,3507.64915 6893.84944,3543 6850.5,3543" id="Fill-258" fill="#124A51"></path>
        <path d="M7000.5,2874 C7043.85817,2874 7079,2909.33211 7079,2952.92504 L7079,3384.07496 C7079,3427.65912 7043.85817,3463 7000.5,3463 C6957.15056,3463 6922,3427.65912 6922,3384.07496 L6922,2952.92504 C6922,2909.33211 6957.15056,2874 7000.5,2874" id="Fill-259" fill="#124A51"></path>
        <polygon id="Fill-260" fill="#A1D6D1" points="5546 3289 5591 3289 5591 3059 5546 3059"></polygon>
        <polygon id="Fill-261" fill="#A1D6D1" points="7082 3289 7127 3289 7127 3059 7082 3059"></polygon>
        <path d="M1973.72893,309.50285 C1973.71144,268.353071 1942.4862,235.00877 1903.95964,235 L1315.71683,235.122783 C1277.2165,235.157864 1245.98252,268.546015 1246.00001,309.687024 L1246.27982,1539.51465 C1246.25359,1580.64689 1277.52254,1614.04381 1316.04036,1613.99996 L1904.25694,1613.87717 C1942.80974,1613.85963 1974.01748,1580.48025 1973.99999,1539.33047 L1973.72893,309.50285" id="Fill-274" fill="#000000"></path>
        <polyline id="Fill-275" fill="#124A51" points="1917.83308 409 1305 409 1305.16692 1443 1918 1443 1917.83308 409"></polyline>
        <path d="M1688.90577,321 L1533.09423,321 C1528.07916,321 1524,317.719548 1524,313.670573 L1524,311.329427 C1524,307.280452 1528.07916,304 1533.09423,304 L1688.90577,304 C1693.92967,304 1698,307.280452 1698,311.329427 L1698,313.670573 C1698,317.719548 1693.92967,321 1688.90577,321" id="Fill-276" fill="#FFFFFE"></path>
        <path d="M1615.00436,506.603846 C1513.32712,506.603846 1430.61256,589.327117 1430.61256,690.995645 C1430.61256,792.672883 1513.32712,875.396154 1615.00436,875.396154 C1716.68159,875.396154 1799.39615,792.672883 1799.39615,690.995645 C1799.39615,589.327117 1716.68159,506.603846 1615.00436,506.603846 Z M1615.00436,893 C1503.62366,893 1413,802.38505 1413,690.995645 C1413,579.61495 1503.62366,489 1615.00436,489 C1726.39376,489 1817,579.61495 1817,690.995645 C1817,802.38505 1726.39376,893 1615.00436,893 Z" id="Fill-277" fill="#C86358"></path>
        <path d="M1530.94434,710.037691 C1537.0383,709.851549 1543.13226,709.718591 1549.23503,709.559041 L1567.53453,709.142439 L1585.81642,708.787883 L1604.0983,708.486511 L1613.25686,708.362417 L1619.84397,708.282642 L1620.74222,705.92485 L1622.5387,701.297903 L1624.34399,696.670957 C1624.94282,695.137506 1625.55926,693.604054 1626.15809,692.061739 L1629.83913,682.834438 L1633.573,673.651457 L1638.87439,660.577231 L1641.58674,674.449206 L1642.47617,679.031833 L1645.95466,697.415523 L1646.81768,702.015878 L1648.5173,711.207723 L1650.19049,720.408432 L1651.83727,729.618005 L1652.96448,736 C1653.81869,733.881532 1654.68171,731.763065 1655.53592,729.653461 L1657.35002,725.194928 L1659.19054,720.771851 L1662.88038,711.881378 L1663.52324,710.321335 L1692.813,710.321335 L1708.3121,710.347927 C1713.12034,699.870819 1716,689.136658 1716,678.5 C1716,646.740712 1692.61926,621 1663.76101,621 C1634.90275,621 1611.51321,646.740712 1611.51321,678.5 C1611.51321,646.740712 1588.11486,621 1559.2478,621 C1530.38954,621 1507,646.740712 1507,678.5 C1507,689.198705 1509.92369,699.977185 1514.76716,710.525204 L1521.8122,710.312471 L1530.94434,710.037691" id="Fill-278" fill="#C86358"></path>
        <path d="M1668.88497,716.790888 L1666.30177,724.502031 L1664.73055,729.132319 L1663.15045,733.735583 C1662.07633,736.816437 1661.03773,739.906298 1659.98137,742.969135 L1652.66674,763.931551 L1649.99478,751.59012 C1649.32013,748.509267 1648.68098,745.39238 1648.03297,742.29351 L1646.08891,733.005907 L1643.2394,719.042974 L1642.30732,714.376652 L1639.5377,700.395703 L1638.63225,695.738389 L1637.71793,691 L1635.39216,696.504098 C1634.75302,698.053533 1634.105,699.611977 1633.43923,701.161412 L1629.48897,710.421989 L1627.48278,715.04327 L1626.44417,717.412464 L1624.01188,717.385439 L1614.80646,717.277339 L1605.58329,717.16023 L1587.14582,716.862955 L1568.71723,716.520638 L1550.27089,716.115262 C1544.11915,715.953112 1537.98516,715.817987 1531.83342,715.63782 L1522.628,715.36757 L1517,715.20542 C1542.74322,767.372739 1613.04882,813 1613.04882,813 C1613.04882,813 1683.17689,767.462822 1709,715.36757 L1695.07203,715.881046 L1668.88497,716.790888" id="Fill-279" fill="#C86358"></path>
        <polygon id="Fill-280" fill="#C86358" points="1305 1443 1918 1443 1918 1339 1305 1339"></polygon>
        <polygon id="Fill-281" fill="#57BCB8" points="1374 1272 1419 1272 1419 1157 1374 1157"></polygon>
        <polygon id="Fill-282" fill="#57BCB8" points="1447 1269 1492 1269 1492 1112 1447 1112"></polygon>
        <polygon id="Fill-283" fill="#57BCB8" points="1517 1276 1562 1276 1562 1067 1517 1067"></polygon>
        <polygon id="Fill-284" fill="#57BCB8" points="1597 1279 1642 1279 1642 962 1597 962"></polygon>
        <polygon id="Fill-285" fill="#57BCB8" points="1667 1273 1712 1273 1712 1008 1667 1008"></polygon>
        <polygon id="Fill-286" fill="#57BCB8" points="1737 1269 1782 1269 1782 1119 1737 1119"></polygon>
        <polygon id="Fill-287" fill="#57BCB8" points="1806 1276 1851 1276 1851 1067 1806 1067"></polygon>
        <path d="M5129,3045 C5156.06075,3045 5178,3023.06075 5178,2996 C5178,2968.93925 5156.06075,2947 5129,2947 C5101.93925,2947 5080,2968.93925 5080,2996 C5080,3023.06075 5101.93925,3045 5129,3045" id="Fill-290" fill="#72C1AA"></path>
        <path d="M5204.23716,2981.66327 L5169.35165,3059.16087 L5084.64835,3059.16087 L5049.76284,2981.66327 L5031.34114,2885.80751 L5222.65886,2885.80751 L5204.23716,2981.66327 Z M5303.41155,2805 L5300.70529,2805 C5289.33204,2805 5280.10813,2814.30638 5280.10813,2825.77255 L5280.10813,2863.96385 L5260.72053,2863.96385 L5261.5385,2855.39495 C5262.30425,2847.107 5256.7351,2839.33705 5248.45969,2837.7216 C5239.64477,2836.0008 5231.11701,2841.8129 5229.41146,2850.69786 L5226.86183,2863.96385 L5027.13817,2863.96385 L5024.58854,2850.69786 C5022.99611,2842.53282 5015.46906,2836.6856 5007.08052,2837.50211 C4998.14378,2838.37129 4991.60003,2846.37829 4992.4528,2855.39495 L4993.27947,2863.96385 L4973.89187,2863.96385 L4973.89187,2825.77255 C4973.89187,2814.30638 4964.66796,2805 4953.29471,2805 L4950.58845,2805 C4939.2152,2805 4930,2814.30638 4930,2825.77255 L4930,2928.37105 C4930,2939.83722 4939.2152,2949.1436 4950.58845,2949.1436 L4953.29471,2949.1436 C4964.66796,2949.1436 4973.89187,2939.83722 4973.89187,2928.37105 L4973.89187,2885.80751 L4995.3592,2885.80751 L5005.5142,2992.0671 C5005.68824,2993.84936 5006.15813,2995.69308 5006.92389,2997.41388 L5007.31547,2998.26551 L5054.35739,3102.76918 C5054.91431,3104.0071 5055.60175,3105.13089 5056.3327,3106.21078 L5062.40656,3203.61175 L5058.7518,3523.11046 C5058.63868,3533.63721 5066.81837,3542.48706 5077.33014,3542.97871 C5088.07686,3543.47915 5097.19634,3535.09463 5097.69235,3524.24303 L5109.46588,3267.47462 L5144.53412,3267.47462 L5156.29895,3524.24303 C5156.79496,3534.761 5165.47065,3543.11919 5175.99112,3542.99627 C5186.75525,3542.86458 5195.37003,3533.96206 5195.2482,3523.11046 L5191.59344,3203.61175 L5197.6673,3106.21078 C5198.39825,3105.13089 5199.08569,3104.0071 5199.64261,3102.76918 L5246.68453,2998.26551 L5247.10221,2997.35243 C5247.83316,2995.71942 5248.31176,2993.94594 5248.4858,2992.0671 L5258.6408,2885.80751 L5280.10813,2885.80751 L5280.10813,2928.37105 C5280.10813,2939.83722 5289.33204,2949.1436 5300.70529,2949.1436 L5303.41155,2949.1436 C5314.7848,2949.1436 5324,2939.83722 5324,2928.37105 L5324,2825.77255 C5324,2814.30638 5314.7848,2805 5303.41155,2805 Z" id="Fill-291" fill="#72C1AA"></path>
        <path d="M2639.05528,2448.90795 C2637.90499,2470.96962 2654.84393,2489.79347 2676.90351,2490.94387 C2698.96308,2492.10355 2717.78515,2475.15373 2718.94472,2453.09205 C2720.09501,2431.03038 2703.15607,2412.21581 2681.09649,2411.05613 C2659.03692,2409.89645 2640.21485,2426.84627 2639.05528,2448.90795" id="Fill-292" fill="#72C1AA"></path>
        <path d="M2660.53362,2620.80114 L2688.98068,2552.71389 L2710.79275,2589.52111 L2660.53362,2620.80114 Z M2750.67362,2587.11495 L2750.28333,2586.45239 L2701.20395,2503.62308 C2697.42521,2497.25025 2690.19591,2494.1205 2683.20611,2495.11435 C2681.91992,2494.83537 2680.61598,2494.61743 2679.24996,2494.54768 L2622.45342,2491.62717 L2623.06547,2404.73528 L2728.41804,2366.29781 C2734.56516,2364.03986 2738.06893,2357.46652 2736.25938,2351.146 C2734.35227,2344.47676 2727.30925,2340.59727 2720.52347,2342.47163 L2599.78093,2375.83525 C2592.72904,2377.79679 2587.5133,2384.14347 2587.46008,2391.70194 L2587.46008,2392.39937 L2586.7061,2499.58666 L2558.33001,2613.72216 C2557.647,2615.05601 2557.0793,2616.46832 2556.70674,2617.98524 L2499.42234,2851.93163 C2497.52409,2859.71677 2502.18987,2867.6937 2510.10218,2869.90806 C2518.22738,2872.18345 2526.69851,2867.55421 2529.01366,2859.56856 L2590.38728,2648.05348 L2607.6134,2648.94271 L2660.34735,2866.44703 C2662.25446,2874.23217 2670.08694,2879.27115 2678.16778,2877.71935 C2686.46151,2876.12397 2691.8724,2868.2255 2690.24913,2860.07421 L2650.07554,2657.774 L2743.71931,2610.50524 L2744.50877,2610.07806 C2752.66057,2605.41395 2755.42811,2595.13548 2750.67362,2587.11495 Z" id="Fill-293" fill="#72C1AA"></path>
        <path d="M5736.49555,241 C5760.52412,241 5780,221.524117 5780,197.504455 C5780,173.475883 5760.52412,154 5736.49555,154 C5712.47588,154 5693,173.475883 5693,197.504455 C5693,221.524117 5712.47588,241 5736.49555,241" id="Fill-294" fill="#72C1AA"></path>
        <path d="M5736.53705,534.358834 L5728.85076,439.821324 L5767.18568,439.821324 L5782.28625,492.875419 L5736.53705,534.358834 Z M5660.99909,335.563048 L5686.55863,303.948742 L5689.83144,380.02203 L5660.99909,335.563048 Z M5769.98468,65.3362074 C5765.42204,59.6817579 5757.14788,58.2594195 5750.94445,62.3344626 C5744.34617,66.6625598 5742.52989,75.4758221 5746.88195,82.0290499 L5810.27627,177.604954 L5779.86454,250.807387 L5684.27731,250.807387 L5684.29486,251.200057 C5679.7059,252.020302 5675.38017,254.332692 5672.2302,258.224489 L5620.82157,321.793417 L5620.07576,322.709647 C5614.66201,329.402491 5614.54795,339.184339 5620.29511,346.034251 L5680.10952,417.32569 L5681.95212,419.149425 L5713.60102,675.039444 C5714.72414,684.044678 5722.80527,690.685166 5731.99196,689.943456 C5741.42433,689.184294 5748.45255,680.964399 5747.69796,671.583947 L5739.99412,576.889369 L5741.90692,575.606647 L5816.8219,513.556044 C5822.01628,509.245399 5824.66612,502.238419 5823.06042,495.222713 L5822.84984,494.315209 L5801.39668,400.641574 L5808.29328,286.488011 L5851.2698,183.076157 L5851.612,182.255913 C5854.07758,176.287327 5853.29666,169.201813 5848.96216,163.800418 L5769.98468,65.3362074 Z" id="Fill-295" fill="#72C1AA"></path>
        <path d="M2370.85817,317.24613 L2338.28197,276.512202 L2404.6383,235.061127 L2370.85817,317.24613 Z M2592.88925,221.363626 L2456.33795,201.588308 C2460.61281,196.344174 2461.8691,188.841027 2458.82435,182.270171 C2454.6629,173.28791 2444.19385,169.478068 2435.4522,173.754055 L2323.93938,228.328913 L2266.35088,192.830155 C2261.09019,189.585067 2255.13155,188.715526 2249.52189,189.728496 C2238.17169,189.020314 2226.5336,192.489511 2217.05911,200.503624 C2197.1243,217.320712 2194.24531,247.566371 2210.62065,268.040907 L2317.3526,401.510858 C2330.34295,417.763193 2351.55149,422.935613 2369.70657,415.988256 C2381.58022,417.171547 2393.33172,410.55587 2398.21728,398.669165 L2456.17219,257.687103 L2588.92846,264.356566 C2599.64178,264.867533 2609.26458,256.91617 2610.79132,245.782469 C2612.41402,233.967478 2604.39648,223.030992 2592.88925,221.363626 Z" id="Fill-296" fill="#72C1AA"></path>
        <path d="M2218.6304,165.357238 C2245.06071,182.953522 2280.7546,175.793285 2298.35094,149.372008 C2315.95623,122.941781 2308.79597,87.2479961 2282.36566,69.6427618 C2255.93535,52.0464779 2220.24145,59.2067155 2202.64511,85.6279923 C2185.04877,112.058219 2192.20008,147.752004 2218.6304,165.357238" id="Fill-297" fill="#72C1AA"></path>
    </g>
</svg>