<?xml version="1.0" encoding="iso-8859-1"?>
<!-- Generator: Adobe Illustrator 19.0.0, SVG Export Plug-In . SVG Version: 6.00 Build 0)  -->
<svg version="1.1" id="Capa_1" xmlns="http://www.w3.org/2000/svg" xmlns:xlink="http://www.w3.org/1999/xlink" x="0px" y="0px"
	 viewBox="0 0 511.999 511.999" style="enable-background:new 0 0 511.999 511.999;" xml:space="preserve">
<path style="fill:#FFB69E;" d="M229.921,493.219l-26.095-191.359c-1.62-11.88,6.697-22.824,18.578-24.445
	c11.879-1.615,22.824,6.697,24.445,18.578l26.095,191.359c1.62,11.88-6.697,22.824-18.578,24.445
	C242.383,513.428,231.528,505.003,229.921,493.219z"/>
<path style="fill:#3C5A73;" d="M213.976,376.289h43.824l-10.95-80.295c-1.62-11.881-12.566-20.194-24.445-18.578
	c-11.881,1.62-20.198,12.565-18.578,24.445L213.976,376.289z"/>
<path style="fill:#FFB69E;" d="M357.478,251.907l-28.942-56.281c-4.61-8.965-11.728-16.395-20.487-21.386l-50.222-28.617
	l0.379-70.74l57.327-45.888c7.021-5.619,8.156-15.867,2.536-22.888c-5.619-7.02-15.866-8.157-22.888-2.536l-63.392,50.744
	c-3.836,3.071-6.081,7.711-6.108,12.624l-0.478,89.387l-72.536,127.302l0.334,206.658c0,11.99,9.72,21.71,21.71,21.71
	s21.71-9.72,21.71-21.71V308.559l52.283,1.036l9.86-17.304l87.558-16.862C356.812,273.37,362.519,261.569,357.478,251.907z
	 M279.79,255.039l22.233-39.018l16.469,31.564L279.79,255.039z"/>
<path style="fill:#FFA50A;" d="M328.535,195.656c-4.61-8.983-11.736-16.429-20.509-21.428l-11.461-6.531
	c-3.293,5.572-9.608,9.442-16.12,9.442c-10.349,0-18.012-8.458-18.46-18.46c-0.15-3.346,0.811-6.516,2.495-9.264l-6.655-3.792
	l0.24-44.83h-32.567l-0.297,55.534l-72.536,127.302l43.755,24.931l52.283,1.036c0,0,50.554-88.724,53.317-93.574l10.987,21.057
	l30.033-13.151L328.535,195.656z"/>
<g>
	<path style="fill:#FFB69E;" d="M244.144,261.904c-8.831,1.701-14.61,10.237-12.909,19.068c1.696,8.803,10.209,14.614,19.068,12.909
		l8.26-1.591c6.847-12.016,14.375-25.228,21.226-37.252L244.144,261.904z"/>
	<circle style="fill:#FFB69E;" cx="305.353" cy="112.911" r="37.68"/>
</g>
<polygon style="fill:#3C5A73;" points="196.421,377.293 196.421,308.559 152.666,283.628 152.818,377.293 "/>
<g>
</g>
<g>
</g>
<g>
</g>
<g>
</g>
<g>
</g>
<g>
</g>
<g>
</g>
<g>
</g>
<g>
</g>
<g>
</g>
<g>
</g>
<g>
</g>
<g>
</g>
<g>
</g>
<g>
</g>
</svg>
