<svg xmlns="http://www.w3.org/2000/svg" xmlns:xlink="http://www.w3.org/1999/xlink" viewBox="0 0 1200 800"><defs><style>.cls-1{fill:url(#linear-gradient);}.cls-2{fill:url(#linear-gradient-2);}.cls-3{fill:url(#linear-gradient-3);}.cls-4{fill:url(#linear-gradient-4);}.cls-5{fill:url(#linear-gradient-5);}.cls-6{fill:url(#linear-gradient-6);}.cls-7{fill:url(#linear-gradient-7);}.cls-8{fill:url(#linear-gradient-8);}.cls-9{fill:url(#linear-gradient-9);}.cls-10{fill:url(#linear-gradient-10);}.cls-11{fill:url(#linear-gradient-11);}.cls-12{fill:url(#linear-gradient-12);}.cls-13{fill:url(#linear-gradient-13);}.cls-14{fill:url(#linear-gradient-14);}.cls-15{fill:url(#linear-gradient-15);}.cls-16{fill:url(#linear-gradient-16);}</style><linearGradient id="linear-gradient" x1="600" y1="508.08" x2="600" y2="-67.89" gradientUnits="userSpaceOnUse"><stop offset="0" stop-color="#fff6e8"/><stop offset="0.17" stop-color="#e0f4ed"/><stop offset="0.44" stop-color="#a7f1f5"/><stop offset="0.53" stop-color="#a3edf1"/><stop offset="0.62" stop-color="#99e0e5"/><stop offset="0.71" stop-color="#87ccd1"/><stop offset="0.81" stop-color="#6eafb5"/><stop offset="0.9" stop-color="#4e8a91"/><stop offset="1" stop-color="#275d66"/></linearGradient><linearGradient id="linear-gradient-2" x1="600" y1="888.32" x2="600" y2="103.91" gradientUnits="userSpaceOnUse"><stop offset="0" stop-color="#314946"/><stop offset="0.4" stop-color="#f2b696"/><stop offset="1" stop-color="#fde5d2"/></linearGradient><linearGradient id="linear-gradient-3" x1="513.87" y1="502" x2="513.87" y2="1091.57" gradientTransform="matrix(1, 0, -0.06, 1, 43.92, 0)" gradientUnits="userSpaceOnUse"><stop offset="0" stop-color="#fde5d2"/><stop offset="0.01" stop-color="#fde3cf"/><stop offset="0.16" stop-color="#f8cfb6"/><stop offset="0.31" stop-color="#f5c1a4"/><stop offset="0.47" stop-color="#f3b999"/><stop offset="0.66" stop-color="#f2b696"/><stop offset="1" stop-color="#314946"/></linearGradient><linearGradient id="linear-gradient-4" x1="524.26" y1="-204.99" x2="396.64" y2="680.53" gradientUnits="userSpaceOnUse"><stop offset="0" stop-color="#fde5d2"/><stop offset="0.6" stop-color="#f2b696"/><stop offset="1" stop-color="#314946"/></linearGradient><linearGradient id="linear-gradient-5" x1="487.67" y1="-640.64" x2="284.62" y2="768.35" xlink:href="#linear-gradient-4"/><linearGradient id="linear-gradient-6" x1="511.17" y1="143.33" x2="177.91" y2="765.42" xlink:href="#linear-gradient-4"/><linearGradient id="linear-gradient-7" x1="785.27" y1="193.95" x2="372.32" y2="964.78" xlink:href="#linear-gradient-4"/><linearGradient id="linear-gradient-8" x1="610.82" y1="-459.33" x2="414.43" y2="903.41" gradientTransform="matrix(-1, 0, 0, 1, 1481.65, 0)" xlink:href="#linear-gradient-4"/><linearGradient id="linear-gradient-9" x1="1435.89" y1="-385.12" x2="1257.82" y2="850.53" gradientTransform="matrix(-1, 0, 0, 1, 2234.03, 0)" gradientUnits="userSpaceOnUse"><stop offset="0" stop-color="#fde5d2"/><stop offset="0.6" stop-color="#f2b696"/><stop offset="0.67" stop-color="#c79e84"/><stop offset="0.75" stop-color="#92806e"/><stop offset="0.83" stop-color="#68685d"/><stop offset="0.9" stop-color="#4a5750"/><stop offset="0.96" stop-color="#384d49"/><stop offset="1" stop-color="#314946"/></linearGradient><linearGradient id="linear-gradient-10" x1="1117.74" y1="485.4" x2="953.54" y2="791.9" gradientTransform="matrix(-1, 0, 0, 1, 2039.43, 0)" gradientUnits="userSpaceOnUse"><stop offset="0" stop-color="#fde5d2"/><stop offset="0.29" stop-color="#f2b696"/><stop offset="0.36" stop-color="#d2a489"/><stop offset="0.47" stop-color="#a28975"/><stop offset="0.59" stop-color="#797264"/><stop offset="0.7" stop-color="#5a6057"/><stop offset="0.81" stop-color="#43534e"/><stop offset="0.91" stop-color="#364c48"/><stop offset="1" stop-color="#314946"/></linearGradient><linearGradient id="linear-gradient-11" x1="494.15" y1="-685.58" x2="291.1" y2="723.41" xlink:href="#linear-gradient-4"/><linearGradient id="linear-gradient-12" x1="490.58" y1="67.59" x2="-29.89" y2="1039.12" xlink:href="#linear-gradient-4"/><linearGradient id="linear-gradient-13" x1="215.74" y1="123.09" x2="109.83" y2="858" gradientTransform="matrix(1, 0, 0, 1, 0, 0)" xlink:href="#linear-gradient-10"/><linearGradient id="linear-gradient-14" x1="271.98" y1="221.68" x2="-13.8" y2="755.14" gradientTransform="matrix(1, 0, 0, 1, 0, 0)" xlink:href="#linear-gradient-10"/><linearGradient id="linear-gradient-15" x1="-333.82" y1="1149.5" x2="752.09" y2="552.04" gradientTransform="matrix(1, 0, 0.04, 1, -26.15, 0)" gradientUnits="userSpaceOnUse"><stop offset="0" stop-color="#fde5d2"/><stop offset="0.01" stop-color="#fde3cf"/><stop offset="0.12" stop-color="#f8cfb6"/><stop offset="0.23" stop-color="#f5c1a4"/><stop offset="0.36" stop-color="#f3b999"/><stop offset="0.49" stop-color="#f2b696"/><stop offset="1" stop-color="#314946"/></linearGradient><linearGradient id="linear-gradient-16" x1="524.7" y1="934.72" x2="589.7" y2="403.72" gradientUnits="userSpaceOnUse"><stop offset="0" stop-color="#fde5d2"/><stop offset="0.29" stop-color="#496465"/><stop offset="0.31" stop-color="#496263"/><stop offset="0.44" stop-color="#485559"/><stop offset="0.61" stop-color="#484e53"/><stop offset="1" stop-color="#484c51"/></linearGradient></defs><title>shutterstock_1011090397 (1) [Converted]</title><g id="Layer_1" data-name="Layer 1"><rect class="cls-1" width="1200" height="800"/></g><g id="Layer_2" data-name="Layer 2"><rect class="cls-2" y="504.21" width="1200" height="295.79"/><polygon class="cls-3" points="474 800 64 800 957.83 504.21 979.71 504.21 474 800"/><polygon class="cls-4" points="19.67 516.11 821 516.11 402.1 368 19.67 516.11"/><polygon class="cls-5" points="0 220.01 0 543.37 680.69 543.37 0 220.01"/><polygon class="cls-6" points="0 220.01 522.46 438.09 540.95 435.2 776 526.5 680.69 543.37 0 220.01"/><polygon class="cls-7" points="402.1 368 908.99 504.21 821 516.11 402.1 368"/><polygon class="cls-8" points="1200 354.58 1200 667.32 821.31 667.32 1200 354.58"/><polygon class="cls-9" points="1200 516.42 1200 800 697 800 950.54 613.64 985.94 648.49 1200 516.42"/><polygon class="cls-10" points="950.54 613.64 985.94 648.49 1033.26 619.3 950.54 613.64"/></g><g id="Layer_3" data-name="Layer 3"><polygon class="cls-11" points="0 220.01 0 543.37 680.69 543.37 0 220.01"/><polygon class="cls-12" points="0 481.08 0 437.03 171.99 492.58 215.5 441.53 507.47 582.36 307.2 627.45 0 481.08"/><polygon class="cls-13" points="0 481.08 0 627.45 307.2 627.45 0 481.08"/><polygon class="cls-14" points="215.5 441.53 171.99 492.58 81.26 463.27 215.5 441.53"/></g><g id="Layer_4" data-name="Layer 4"><polygon class="cls-15" points="571.59 686.99 556.97 683.2 242.03 800 331.53 800 571.59 686.99"/><path class="cls-16" d="M585.38,627.6c.16-.84.52-1.11.49-1.84a39.38,39.38,0,0,0-1.06-6.67,20.35,20.35,0,0,0-.3-2.1,55.52,55.52,0,0,0-1.08-6.39c-.48-2.47-.84-5.08-1.33-7.67a55.75,55.75,0,0,0-.82-9.4c0-.93-1.77-7-3.86-9.11-1.25-1.25-6.73-4.16-8.19-5.13-.87-.58-.87-3-.85-3.16.85,0,2.2-.22,2.38-.77a24.19,24.19,0,0,0,.75-3.87,3.52,3.52,0,0,0-.24-2.49c0-.29.42-1,.39-1.41a18.84,18.84,0,0,0-.22-2.09,9.34,9.34,0,0,0-.41-1.16,3,3,0,0,0,.11-.31,1.63,1.63,0,0,0-.12-1.31,2,2,0,0,0-.14-1.85l0,0a1.19,1.19,0,0,0,.11-.34s0-.09-.08-.08l-.53.2a7.26,7.26,0,0,0-5.26-.25,2.41,2.41,0,0,0-1.35.51,5.09,5.09,0,0,0-1.21.31c-.6.25-1.71.89-1.71,1.67l-.2.26c-1.07-.2-1.87,1-2.34,1.84a6.25,6.25,0,0,0-.68,4.72,1,1,0,0,0,.27.36v.09c.6,2,1.35,3.56,1,5.69-.53,3.67-5.14,3.65-8.33,4.8l-1.23.6,0,0a2.37,2.37,0,0,1-.65.3l-.82.4-.15.2a1.17,1.17,0,0,0-.37.29c-3.44,4-3.72,11-4.75,15.92a12.77,12.77,0,0,0,1.12,8.94c1.58,2.83,4,7.69,5.87,10.32,0,0,.27,2.46,1.29,7.54.44,2.21-1,3.25,0,10.45.66,4.08,2.24,8.38,2.46,13.53a72.9,72.9,0,0,1-.06,10,194.45,194.45,0,0,1-2.3,24.44l.07.16a3.86,3.86,0,0,0,.78,1c-.19,1-.39,1.27.62,1.91a10.92,10.92,0,0,0,2.6,1.06c.47.08,1.43.08,1.94.12a3.56,3.56,0,0,0-.15,1.55c.17.44,2.37,1.07,3.95.83,2.07-.32,2.46.09,4.41-1.17,1.57-.43,3.73-1.5,5.18-1.8,3.2-.68,3.27-3,3.27-3,.14-.78-.23-.86-2-1-3-.3-4.39-.83-4.16-1.5a300.94,300.94,0,0,1,10.84-28.12c.83-2.42,1.69-4.84,2.47-7.28a59.64,59.64,0,0,0-1.67-7c-.77-2.53-2.19-5.32-2.76-8.09,0-1-.14-2.07-.19-2.89a34.1,34.1,0,0,0-.79-3.37,54.75,54.75,0,0,1-.3-13.77c1,4.5,3.25,8.86,4.25,13.3.88,3.91,1.18,4,2,4.23a22.37,22.37,0,0,0-.31,3.81c-.62.36-1.34.82-1.33,1.54a.07.07,0,0,0,.07.06,4.75,4.75,0,0,0,.62-.16c-.27.41-.49.77-.36,1.14a6.82,6.82,0,0,0,1.78-1,19.52,19.52,0,0,0,2.56-1.72,2.75,2.75,0,0,0,.93-2.11A7.69,7.69,0,0,0,585.38,627.6Zm-18.11,23.7c-.75,1.59-1.45,3.22-2.25,4.59-.33.57-.71,1.16-1.09,1.78a50.36,50.36,0,0,0,.39-7.95c0-1.68.43-3.8.42-5.8.06-.57.11-1.15.13-1.71l.09,0c.51.82,1.13,1.59,1.61,2.28a24.79,24.79,0,0,0,1.41,4.71C567.76,649.82,567.52,650.54,567.27,651.29Z"/></g></svg>