<?xml version="1.0" encoding="UTF-8"?>
<svg width="512px" height="398px" viewBox="0 0 512 398" version="1.1" xmlns="http://www.w3.org/2000/svg" xmlns:xlink="http://www.w3.org/1999/xlink">
    <!-- Generator: Sketch 51.3 (57544) - http://www.bohemiancoding.com/sketch -->
    <title>salad (1)</title>
    <desc>Created with Sketch.</desc>
    <defs></defs>
    <g id="Page-1" stroke="none" stroke-width="1" fill="none" fill-rule="evenodd">
        <g id="salad-(1)" fill-rule="nonzero">
            <path d="M293.514,65.238 C282.279,68.371 270.842,63.143 265.558,53.52 C253.709,31.7 221.134,26.535 203.188,44.105 C194.421,52.479 181.696,52.61 173.129,46.703 C153.052,33.23 122.614,41.624 113.328,65.619 C109.227,76.266 98.269,82.159 87.139,80.081 C75.833,77.805 62.181,83.761 55.53,91.323 L192.893,228.688 C201.691,229.418 210.64,229.977 219.701,230.365 L343.344,104.658 C344.622,79.616 318.133,58.256 293.514,65.238 Z" id="Shape" fill="#00B04B"></path>
            <path d="M271.407,100.64 C297.671,126.904 339.154,128.674 367.468,105.95 C370.799,103.277 371.026,98.278 368.007,95.258 L276.789,4.04 C273.77,1.021 268.77,1.248 266.097,4.579 C243.373,32.893 245.143,74.377 271.407,100.64 Z" id="Shape" fill="#FF5368"></path>
            <path d="M276.871,95.177 C251.767,70.073 251.767,29.225 276.871,4.121 C270.564,-2.186 260.056,-1.031 255.232,6.47 C235.358,37.371 238.928,79.088 265.944,106.103 C292.959,133.118 334.676,136.689 365.577,116.815 C373.078,111.991 374.233,101.483 367.926,95.176 C342.823,120.28 301.974,120.28 276.871,95.177 Z" id="Shape" fill="#C5324F"></path>
            <path d="M307.83,64.218 C315.876,72.264 328.922,72.265 336.968,64.218 L307.83,35.079 C299.783,43.126 299.783,56.171 307.83,64.218 Z" id="Shape" fill="#FF7C8B"></path>
            <g id="Group" transform="translate(273.000000, 37.000000)" fill="#FFCF5D">
                <path d="M0.825,6.858 C0.33,11.038 0.374,15.271 0.954,19.44 C1.542,23.666 5.446,26.615 9.671,26.027 C11.402,25.786 12.918,24.99 14.065,23.842 C15.719,22.188 16.605,19.805 16.258,17.309 C15.86,14.448 15.829,11.543 16.169,8.673 C16.671,4.435 13.641,0.593 9.404,0.093 C5.168,-0.408 1.326,2.621 0.825,6.858 Z" id="Shape"></path>
                <path d="M28.957,39.168 C27.828,38.296 26.741,37.339 25.724,36.324 C24.7,35.3 23.736,34.204 22.857,33.063 C20.253,29.683 15.401,29.055 12.021,31.66 C8.64,34.26 8.013,39.116 10.618,42.496 C11.9,44.159 13.306,45.759 14.797,47.25 C16.277,48.73 17.864,50.125 19.511,51.399 C22.621,53.801 26.983,53.462 29.691,50.754 C29.923,50.522 30.143,50.272 30.349,50.006 C32.957,46.629 32.333,41.776 28.957,39.168 Z" id="Shape"></path>
            </g>
            <path d="M188.829,209.717 C182.324,205.236 179.83,196.895 183.054,189.595 C190.297,173.121 179.441,153.9 162.92,150.631 C155.792,149.315 149.59,142.952 149.397,134.467 C149.212,116.888 130.627,103.321 114.046,108.255 C106.705,110.403 98.497,107.33 94.508,100.218 C85.823,84.577 62.26,82.038 50.556,95.063 C44.992,101.416 36.388,102.127 28.15,100.314 C11.424,96.512 -5.43,111.631 1.665,127.783 C3.708,132.549 7.52,136.389 11.755,138.798 C19.239,143.086 25.445,149.149 24.425,157.798 C23.358,167.052 26.454,176.62 33.06,183.534 C38.885,189.431 43.617,190.875 47.303,192.402 C44.755,190.934 42.485,189.512 40.5,188.158 C42.485,189.513 44.756,190.934 47.303,192.402 C48.786,193.016 50.1,193.646 51.247,194.583 C59.827,199.143 71.207,204.065 86.183,208.894 C118.359,219.269 157.905,226.249 200.692,229.286 C199.505,221.257 195.093,213.903 188.829,209.717 Z" id="Shape" fill="#4FE267"></path>
            <path d="M189.866,84.057 C150.039,84.057 117.753,116.343 117.753,156.17 C117.753,170.275 121.818,183.424 128.819,194.539 C162.705,201.557 201.393,205.584 241.773,206.201 C254.275,193.233 261.979,175.606 261.979,156.17 C261.978,116.343 229.691,84.057 189.866,84.057 Z" id="Shape" fill="#FF5368"></path>
            <g id="Group" transform="translate(169.000000, 107.000000)" fill="#FF7C8B">
                <path d="M28.592,90.377 L28.592,7.963 C28.592,3.696 25.133,0.237 20.866,0.237 C16.599,0.237 13.14,3.696 13.14,7.963 L13.14,90.377 C13.14,92.562 14.051,94.531 15.508,95.936 C18.687,96.256 21.89,96.552 25.112,96.827 C27.207,95.447 28.592,93.074 28.592,90.377 Z" id="Shape"></path>
                <circle id="Oval" cx="20.864" cy="49.166" r="20.604"></circle>
            </g>
            <path d="M189.866,76.331 C145.842,76.331 110.027,112.146 110.027,156.17 C110.027,169.179 113.174,181.46 118.718,192.323 C125.56,193.907 132.621,195.366 139.879,196.691 C130.884,185.617 125.481,171.514 125.481,156.17 C125.481,120.668 154.365,91.784 189.867,91.784 C225.369,91.784 254.253,120.668 254.253,156.17 C254.253,176.203 245.054,194.125 230.662,205.943 C237.705,206.161 244.809,206.276 251.958,206.283 C263.047,192.571 269.707,175.138 269.707,156.17 C269.705,112.146 233.888,76.331 189.866,76.331 Z" id="Shape" fill="#C5324F"></path>
            <g id="Group" transform="translate(140.000000, 116.000000)" fill="#FFCF5D">
                <path d="M19.613,1.729 C16.307,4.335 13.345,7.359 10.808,10.717 C8.236,14.122 8.91,18.967 12.314,21.539 C13.709,22.592 15.344,23.102 16.966,23.102 C19.306,23.102 21.617,22.043 23.137,20.033 C24.878,17.728 26.912,15.653 29.181,13.864 C32.532,11.223 33.107,6.363 30.465,3.013 C27.822,-0.338 22.964,-0.913 19.613,1.729 Z" id="Shape"></path>
                <path d="M29.151,66.453 C26.885,64.663 24.854,62.586 23.115,60.278 C20.547,56.871 15.702,56.191 12.294,58.76 C8.887,61.329 8.207,66.173 10.776,69.581 C13.31,72.942 16.27,75.97 19.573,78.579 C20.991,79.699 22.68,80.243 24.357,80.243 C26.64,80.243 28.9,79.235 30.425,77.305 C33.07,73.957 32.5,69.098 29.151,66.453 Z" id="Shape"></path>
                <path d="M16.659,44.467 C16.477,43.053 16.385,41.607 16.385,40.17 C16.385,38.722 16.479,37.265 16.664,35.837 C17.212,31.606 14.226,27.73 9.994,27.182 C5.765,26.63 1.887,29.62 1.339,33.852 C1.069,35.934 0.932,38.059 0.932,40.169 C0.932,42.262 1.067,44.371 1.332,46.436 C1.833,50.334 5.157,53.179 8.986,53.179 C9.314,53.179 9.646,53.157 9.98,53.115 C14.212,52.571 17.202,48.7 16.659,44.467 Z" id="Shape"></path>
                <path d="M70.58,13.887 C72.846,15.677 74.877,17.754 76.616,20.062 C78.134,22.077 80.449,23.137 82.792,23.137 C84.411,23.137 86.044,22.629 87.437,21.579 C90.844,19.01 91.524,14.166 88.955,10.758 C86.421,7.397 83.461,4.369 80.158,1.76 C76.81,-0.885 71.951,-0.316 69.306,3.033 C66.661,6.383 67.23,11.241 70.58,13.887 Z" id="Shape"></path>
                <path d="M87.416,58.8 C84.01,56.228 79.166,56.902 76.594,60.306 C74.853,62.611 72.819,64.686 70.55,66.475 C67.199,69.116 66.624,73.976 69.266,77.326 C70.791,79.26 73.053,80.269 75.339,80.269 C77.014,80.269 78.7,79.727 80.118,78.609 C83.424,76.003 86.386,72.979 88.923,69.621 C91.495,66.218 90.821,61.372 87.416,58.8 Z" id="Shape"></path>
                <path d="M98.399,33.902 C97.855,29.67 93.98,26.681 89.751,27.223 C85.519,27.767 82.528,31.639 83.072,35.871 C83.254,37.285 83.346,38.731 83.346,40.168 C83.346,41.616 83.252,43.073 83.067,44.501 C82.519,48.732 85.505,52.608 89.737,53.156 C90.074,53.199 90.408,53.221 90.739,53.221 C94.564,53.221 97.887,50.381 98.392,46.486 C98.662,44.404 98.799,42.279 98.799,40.169 C98.799,38.076 98.664,35.968 98.399,33.902 Z" id="Shape"></path>
            </g>
            <path d="M471.581,64.942 C459.752,67.532 447.397,66.516 439.407,57.441 C422.603,38.834 388.768,42.46 376.297,64.805 C370.568,74.965 358.784,79.355 348.242,76.286 C324.433,69.235 297.749,88.618 297.483,113.731 C297.206,125.852 288.3,134.942 278.065,136.823 C254.342,141.493 238.754,168.951 249.155,192.485 C253.784,202.914 250.202,214.829 240.862,221.23 C237.184,223.676 233.957,226.882 231.303,230.595 C239.291,230.867 247.357,231.009 255.482,231.009 C316.846,231.009 375.001,223.154 419.233,208.891 C425.157,206.981 435.847,202.874 440.697,200.962 C446.204,192.005 450.484,197.972 464.53,183.824 C474.014,173.949 478.461,160.279 476.929,147.059 C475.464,134.704 484.375,126.042 495.122,119.917 C501.202,116.476 506.677,110.99 509.609,104.182 C519.798,81.109 495.598,59.51 471.581,64.942 Z" id="Shape" fill="#4FE267"></path>
            <path d="M417.315,192.723 C414.89,164.618 391.253,142.482 362.53,142.482 C332.2,142.482 307.526,167.157 307.526,197.486 C307.526,204.802 308.973,211.784 311.579,218.176 C342.714,214.452 371.412,208.533 395.853,200.652 C404.038,198.012 411.144,195.345 417.315,192.723 Z" id="Shape" fill="#C5324F"></path>
            <path d="M386.63,166.581 C386.63,166.51 386.63,166.438 386.63,166.367 C386.58,153.264 375.848,142.533 362.745,142.482 C362.674,142.482 362.602,142.482 362.531,142.482 C332.201,142.482 307.527,167.157 307.527,197.486 C307.527,197.557 307.527,197.629 307.527,197.7 C307.559,205.835 311.71,213.055 317.987,217.372 C335.277,215.111 351.754,212.161 367.104,208.567 C379.035,198.471 386.63,183.4 386.63,166.581 Z" id="Shape" fill="#FF5368"></path>
            <path d="M469.568,191.93 L252.72,191.93 L110.541,347.295 L110.563,347.295 C110.563,347.941 110.574,348.585 110.597,349.227 C111.572,376.583 134.362,397.967 161.384,397.967 L252.721,397.967 L344.058,397.967 C371.08,397.967 393.87,376.584 394.845,349.227 C394.868,348.585 394.879,347.941 394.879,347.295 L394.901,347.295 C447.133,320.444 485.147,279.211 498.75,231.222 C504.326,211.547 489.775,191.93 469.568,191.93 Z" id="Shape" fill="#B6B0A2"></path>
            <path d="M312.824,300.633 C346.413,256.135 315.094,191.93 259.799,191.93 L35.873,191.93 C15.741,191.93 1.111,211.436 6.643,231.046 C20.204,279.115 58.262,320.412 110.567,347.295 L219.24,347.295 C255.63,347.295 290.133,330.414 312.369,301.234 C312.521,301.034 312.673,300.834 312.824,300.633 Z" id="Shape" fill="#E9E3D5"></path>
        </g>
    </g>
</svg>