<?xml version="1.0" encoding="UTF-8"?>
<svg width="7320px" height="4498px" viewBox="0 0 7320 4498" version="1.1" xmlns="http://www.w3.org/2000/svg" xmlns:xlink="http://www.w3.org/1999/xlink">
    <!-- Generator: Sketch 51.2 (57519) - http://www.bohemiancoding.com/sketch -->
    <title>Artboard 3</title>
    <desc>Created with Sketch.</desc>
    <defs></defs>
    <g id="Artboard-3" stroke="none" stroke-width="1" fill="none" fill-rule="evenodd">
        <g id="yogurt" transform="translate(3560.000000, 393.000000)" fill-rule="nonzero">
            <path d="M1242.77583,1795.68031 L355.672515,1795.68031 C339.493177,1795.68031 326.382066,1808.79532 326.382066,1824.97076 L326.382066,1970.70955 C326.382066,1986.88499 339.493177,2000 355.672515,2000 L1242.77583,2000 C1258.95127,2000 1272.06628,1986.88499 1272.06628,1970.70955 L1272.06628,1824.97076 C1272.06628,1808.79532 1258.95127,1795.68031 1242.77583,1795.68031 Z" id="Shape" fill="#F9ECD4"></path>
            <path d="M1242.77583,1795.68031 L1102.17544,1795.68031 L1102.17544,2000 L1242.77583,2000 C1258.95127,2000 1272.06628,1986.88499 1272.06628,1970.70955 L1272.06628,1824.97076 C1272.06628,1808.79532 1258.95127,1795.68031 1242.77583,1795.68031 Z" id="Shape" fill="#F7E0BA"></path>
            <path d="M1379.11111,50.6471735 C1358.81871,21.3723197 1325.4386,3.89863548 1289.81676,3.89863548 C1244.74464,3.89863548 1203.84795,32.2573099 1188.05068,74.460039 L1053.89474,432.768031 C1050.52632,441.762183 1051.78168,451.836257 1057.25536,459.727096 C1062.72904,467.621832 1071.7232,472.331384 1081.32554,472.331384 L1250.82651,472.331384 C1263.04483,472.331384 1273.97661,464.752437 1278.25731,453.309942 L1391.57505,150.666667 C1404.07018,117.306043 1399.40741,79.9181287 1379.11111,50.6471735 Z" id="Shape" fill="#C6946A"></path>
            <path d="M1379.11111,50.6471735 C1358.81871,21.3723197 1325.4386,3.89863548 1289.81676,3.89863548 C1268.0117,3.89863548 1247.21248,10.5847953 1229.73099,22.2183236 C1240.93567,29.6959064 1250.82261,39.2670565 1258.70955,50.6432749 C1279.00585,79.91423 1283.66862,117.302144 1271.17739,150.666667 L1157.85965,453.309942 C1153.57505,464.748538 1142.64327,472.331384 1130.42885,472.331384 L1250.83431,472.331384 C1263.05263,472.331384 1273.98441,464.752437 1278.26511,453.309942 L1391.58285,150.666667 C1404.07018,117.306043 1399.40741,79.9181287 1379.11111,50.6471735 Z" id="Shape" fill="#B27C57"></path>
            <path d="M1447.08772,545.730994 C1441.53996,539.727096 1433.74269,536.315789 1425.56725,536.315789 L172.873294,536.315789 C164.697856,536.315789 156.900585,539.730994 151.352827,545.730994 C145.805068,551.738791 143.021442,559.781676 143.668616,567.929825 L238.152047,1755.38012 C242.565302,1810.82651 289.594542,1854.26511 345.216374,1854.26511 L1253.21637,1854.26511 C1308.83821,1854.26511 1355.86745,1810.82651 1360.2807,1755.38012 L1454.76413,567.929825 C1455.4191,559.781676 1452.63548,551.738791 1447.08772,545.730994 Z" id="Shape" fill="#73CDFF"></path>
            <g id="Group" fill="#36C2FF">
                <path d="M1447.08772,545.730994 C1441.53996,539.727096 1433.74269,536.315789 1425.56725,536.315789 L1254.05458,536.315789 C1262.23002,536.315789 1270.02729,539.730994 1275.57505,545.730994 C1281.12281,551.738791 1283.90643,559.781676 1283.25926,567.929825 L1188.77193,1755.38012 C1184.35867,1810.82651 1137.33333,1854.26511 1081.7076,1854.26511 L1253.22027,1854.26511 C1308.84211,1854.26511 1355.87135,1810.82651 1360.2846,1755.38012 L1454.76803,567.929825 C1455.4191,559.781676 1452.63548,551.738791 1447.08772,545.730994 Z" id="Shape"></path>
                <path d="M49.7348928,472.545809 C37.582846,472.545809 30.3781676,472.362573 28.9590643,472.323587 C12.791423,471.867446 0.0584795322,458.393762 0.510721248,442.222222 C0.962962963,426.050682 14.3235867,413.341131 30.6081871,413.762183 C32.5146199,413.816764 223.005848,418.479532 439.902534,371.083821 C566.25731,343.473684 676.68616,303.863548 768.136452,253.348928 C880.658869,191.196881 964.460039,112.2846 1017.19688,18.7992203 C1025.1501,4.71345029 1043.02144,-0.272904483 1057.09942,7.68031189 C1071.18908,15.6296296 1076.17154,33.4931774 1068.22222,47.582846 C1009.97271,150.834308 918.34308,237.430799 795.871345,304.962963 C699.278752,358.222222 583.306043,399.816764 451.185185,428.584795 C267.28655,468.631579 105.832359,472.545809 49.7348928,472.545809 Z" id="Shape"></path>
            </g>
            <path d="M1413.64133,966.089669 C1408.09357,960.08577 1400.2963,956.674464 1392.12086,956.674464 L1109.59064,956.674464 C1036.81871,858.444444 921.949318,800.261209 799.220273,800.261209 C676.491228,800.261209 561.621832,858.444444 488.849903,956.674464 L206.319688,956.674464 C198.14425,956.674464 190.346979,960.089669 184.79922,966.089669 C179.251462,972.097466 176.467836,980.140351 177.11501,988.288499 L209.005848,1389.07992 C210.222222,1404.30799 222.927875,1416.04678 238.206628,1416.04678 L488.849903,1416.04678 C561.621832,1514.2768 676.491228,1572.46004 799.220273,1572.46004 C921.949318,1572.46004 1036.81871,1514.2768 1109.59064,1416.04678 L1360.23392,1416.04678 C1375.50877,1416.04678 1388.22222,1404.30799 1389.4347,1389.07992 L1421.32554,988.288499 C1421.96881,980.136452 1419.18129,972.093567 1413.64133,966.089669 Z" id="Shape" fill="#F9ECD4"></path>
            <path d="M1413.64133,966.089669 C1408.09357,960.08577 1400.2963,956.674464 1392.12086,956.674464 L1252.32359,956.674464 L1215.76998,1416.05068 L1360.23002,1416.05068 C1375.50487,1416.05068 1388.21832,1404.31189 1389.4308,1389.08382 L1421.32164,988.292398 C1421.96881,980.136452 1419.18129,972.093567 1413.64133,966.089669 Z" id="Shape" fill="#F7E0BA"></path>
            <path d="M1568.66277,413.750487 L29.7816764,413.750487 C13.6023392,413.750487 0.49122807,426.865497 0.49122807,443.040936 L0.49122807,565.606238 C0.49122807,581.781676 13.6023392,594.896686 29.7816764,594.896686 L1568.66277,594.896686 C1584.83821,594.896686 1597.95322,581.781676 1597.95322,565.606238 L1597.95322,443.040936 C1597.95322,426.865497 1584.83821,413.750487 1568.66277,413.750487 Z" id="Shape" fill="#F9ECD4"></path>
            <path d="M1568.66277,413.750487 L1428.06238,413.750487 L1428.06238,594.900585 L1568.66277,594.900585 C1584.83821,594.900585 1597.95322,581.785575 1597.95322,565.610136 L1597.95322,443.040936 C1597.95322,426.865497 1584.83821,413.750487 1568.66277,413.750487 Z" id="Shape" fill="#F7E0BA"></path>
        </g>
        <g id="milk" transform="translate(2161.000000, 249.000000)" fill-rule="nonzero">
            <polygon id="Shape" fill="#C6C6C6" points="531.263158 2163 0 1935.31579 0 683.052632 531.263158 872.789474"></polygon>
            <polygon id="Shape" fill="#E6E6E6" points="1252.26316 1973.26316 531.263158 2163 531.263158 872.789474 1252.26316 683.052632"></polygon>
            <polygon id="Shape" fill="#E2E2E2" points="986.631579 151.789474 265.631579 303.578947 265.631579 151.789474 986.631579 0"></polygon>
            <polygon id="Shape" fill="#D1D1D1" points="531.263158 872.789474 0 683.052632 265.631579 303.578947 265.631579 303.578947"></polygon>
            <polygon id="Shape" fill="#EAEAEA" points="1252.26316 683.052632 531.263158 872.789474 265.631579 303.578947 986.631579 151.789474"></polygon>
            <polygon id="Shape" fill="#3DABEF" points="1252.26316 1404.05263 531.263158 1973.26316 531.263158 1404.05263 1252.26316 796.894737"></polygon>
            <polygon id="Shape" fill="#2B9DD6" points="0 1745.57895 531.263158 1973.26316 531.263158 1404.05263 0 1176.36842"></polygon>
            <path d="M843.000789,640.361842 C758.871474,662.371316 730.828368,586.362737 717.584737,535.892737 C704.379053,485.422737 691.628737,405.391737 775.758053,383.382263 C859.887368,361.372789 887.930474,437.381368 901.136158,487.851368 C914.341842,538.321368 927.130105,618.352368 843.000789,640.361842 Z" id="Shape" fill="#FFFFFF"></path>
            <polygon id="Shape" fill="#EDEDED" points="834.842105 183.741158 910.736842 167.765316 910.736842 15.9758421 834.842105 31.9516842"></polygon>
            <polygon id="Shape" fill="#EDEDED" points="683.052632 215.692842 758.947368 199.717 758.947368 47.9275263 683.052632 63.9033684"></polygon>
            <polygon id="Shape" fill="#EDEDED" points="531.263158 247.644526 607.157895 231.668684 607.157895 79.8792105 531.263158 95.8550526"></polygon>
            <polygon id="Shape" fill="#EDEDED" points="379.473684 279.596211 455.368421 263.620368 455.368421 111.830895 379.473684 127.806737"></polygon>
        </g>
        <g id="cheese" transform="translate(2787.000000, 2249.000000)" fill-rule="nonzero">
            <path d="M1843.19231,1271.38462 C1858.11538,1254.80769 1879.15385,1244.38462 1904.23077,1242.34615 C1912.57692,1241.65385 1921.38462,1241.92308 1930.57692,1243.15385 C1938.19231,1244.19231 1945.73077,1246.11538 1953.15385,1248.53846 C1960,1250.61538 1966.69231,1253.42308 1973.34615,1256.46154 L1973.34615,1170.53846 C1973.34615,1098.42308 1939.84615,1030.38462 1882.69231,986.384615 L1213.07692,352.923077 C1191.96154,370.269231 1161.42308,376.192308 1127.03846,365.576923 C1063.42308,345.884615 1011.84615,278.346154 1011.84615,214.692308 C1011.84615,198.307692 1015.34615,183.884615 1021.5,171.692308 L906.884615,63.2692308 C823.346154,-0.384615385 729.615385,-14.2307692 665.692308,13.7307692 L95.3461538,288.846154 C43.7692308,311.115385 11.8076923,363.461538 11.8076923,421.153846 C11.8076923,421.615385 11.8076923,421.615385 11.8076923,421.5 L11.8076923,1027.15385 C29.6153846,1023.88462 49.3461538,1024.61538 70.5384615,1031.19231 C144.307692,1054.03846 204.115385,1132.34615 204.115385,1206.11538 C204.115385,1279.88462 144.307692,1321.19231 70.5384615,1298.34615 C49.3461538,1291.80769 29.6153846,1280.30769 11.8076923,1266 L11.8076923,1349.19231 C11.8076923,1414.11538 56,1470.69231 118.961538,1486.42308 L1797.57692,1980.92308 C1886.84615,2003.23077 1973.34615,1935.73077 1973.34615,1843.69231 L1973.34615,1522.88462 L1973.30769,1522.88462 C1937.19231,1517.03846 1902.15385,1496.84615 1874.57692,1468.38462 C1873.96154,1467.76923 1873.46154,1467.03846 1872.88462,1466.38462 C1866.69231,1459.84615 1860.80769,1453.03846 1855.46154,1445.76923 C1853.69231,1443.38462 1852.34615,1440.73077 1850.69231,1438.26923 C1846.84615,1432.5 1842.88462,1426.80769 1839.65385,1420.69231 C1837.07692,1415.88462 1835.23077,1410.76923 1833.07692,1405.76923 C1831.34615,1401.73077 1829.19231,1397.76923 1827.76923,1393.65385 C1824.53846,1384.34615 1822.07692,1374.84615 1820.5,1365.23077 C1818.92308,1355.53846 1818.30769,1346.23077 1818.57692,1337.34615 C1819.11538,1319.57692 1823.26923,1303.53846 1830.38462,1289.92308 C1833.92308,1283.07692 1838.23077,1276.88462 1843.19231,1271.38462 Z" id="Shape" fill="#EEAF4B"></path>
            <path d="M1930.61538,1243.15385 C1945.19231,1245.15385 1959.5,1250.11538 1973.38462,1256.46154 L1973.38462,1170.5 C1973.38462,1103.76923 1926.76923,1046.15385 1861.53846,1032.19231 L1124.34615,812.653846 C1124.73077,816.615385 1125.5,820.576923 1125.5,824.5 C1125.5,888.153846 1073.92308,923.769231 1010.30769,904.038462 C946.692308,884.346154 895.115385,816.807692 895.115385,753.153846 C895.115385,750.153846 895.769231,747.5 896,744.615385 L86.3076923,503.5 C41.2692308,494.846154 19.1538462,460.576923 14.3461538,421.730769 L11.8461538,421.153846 L11.8461538,1027.11538 C29.6538462,1023.84615 49.3846154,1024.57692 70.5769231,1031.15385 C144.346154,1054 204.153846,1132.30769 204.153846,1206.07692 C204.153846,1279.84615 144.346154,1321.15385 70.5769231,1298.30769 C49.3846154,1291.76923 29.6538462,1280.26923 11.8461538,1265.96154 L11.8461538,1349.15385 C11.8461538,1414.07692 56.0384615,1470.65385 119,1486.38462 L1797.61538,1980.88462 C1886.88462,2003.19231 1973.38462,1935.69231 1973.38462,1843.65385 L1973.38462,1522.84615 C1901.07692,1511.15385 1833.03846,1441.5 1820.5,1365.19231 C1807.76923,1287.76923 1857.07692,1233.11538 1930.61538,1243.15385 Z" id="Shape" fill="#FCDF76"></path>
            <path d="M1004.76923,1231.03846 C1004.76923,1317.73077 934.5,1366.23077 847.807692,1339.42308 C761.115385,1312.57692 690.846154,1220.57692 690.846154,1133.88462 C690.846154,1047.19231 761.115385,998.692308 847.807692,1025.5 C934.5,1052.30769 1004.76923,1144.34615 1004.76923,1231.03846 Z" id="Shape" fill="#F4C44E"></path>
            <path d="M847.807692,1025.5 C783.5,1005.57692 728.346154,1027.30769 704.115385,1075.19231 C728.346154,1138.07692 783.5,1193.92308 847.807692,1213.84615 C912.115385,1233.76923 967.269231,1212.03846 991.5,1164.15385 C967.269231,1101.26923 912.115385,1045.38462 847.807692,1025.5 Z" id="Shape" fill="#EEAF4B"></path>
            <path d="M1654.65385,1443.80769 C1654.65385,1504.5 1605.46154,1538.46154 1544.76923,1519.65385 C1484.07692,1500.88462 1434.88462,1436.46154 1434.88462,1375.76923 C1434.88462,1315.07692 1484.07692,1281.11538 1544.76923,1299.92308 C1605.46154,1318.73077 1654.65385,1383.15385 1654.65385,1443.80769 Z" id="Shape" fill="#F4C44E"></path>
            <path d="M577.730769,1366.88462 C577.730769,1427.57692 528.538462,1461.53846 467.846154,1442.73077 C407.153846,1423.92308 357.961538,1359.53846 357.961538,1298.84615 C357.961538,1238.15385 407.153846,1204.19231 467.846154,1223 C528.538462,1241.80769 577.730769,1306.23077 577.730769,1366.88462 Z" id="Shape" fill="#EEAF4B"></path>
            <path d="M1346.96154,1660.19231 C1346.96154,1699.61538 1315,1721.69231 1275.53846,1709.5 C1236.11538,1697.30769 1204.11538,1655.42308 1204.11538,1616 C1204.11538,1576.57692 1236.07692,1554.5 1275.53846,1566.69231 C1315,1578.88462 1346.96154,1620.73077 1346.96154,1660.19231 Z" id="Shape" fill="#EEAF4B"></path>
            <path d="M1319.53846,1202.96154 C1319.53846,1242.38462 1287.57692,1264.46154 1248.11538,1252.26923 C1208.69231,1240.07692 1176.69231,1198.19231 1176.69231,1158.76923 C1176.69231,1119.34615 1208.65385,1097.26923 1248.11538,1109.46154 C1287.53846,1121.65385 1319.53846,1163.5 1319.53846,1202.96154 Z" id="Shape" fill="#EEAF4B"></path>
            <path d="M358,799.038462 C358,842.384615 322.846154,866.653846 279.538462,853.230769 C236.192308,839.807692 201.076923,793.807692 201.076923,750.461538 C201.076923,707.115385 236.230769,682.846154 279.538462,696.269231 C322.846154,709.692308 358,755.692308 358,799.038462 Z" id="Shape" fill="#F4C44E"></path>
            <path d="M1125.5,824.5 C1125.5,888.115385 1073.92308,923.730769 1010.30769,904.038462 C946.692308,884.346154 895.115385,816.807692 895.115385,753.153846 C895.115385,689.538462 946.692308,653.923077 1010.30769,673.615385 C1073.88462,693.307692 1125.5,760.846154 1125.5,824.5 Z" id="Shape" fill="#F4C44E"></path>
        </g>
    </g>
</svg>