<?xml version="1.0" encoding="UTF-8"?>
<svg width="474px" height="388px" viewBox="0 0 474 388" version="1.1" xmlns="http://www.w3.org/2000/svg" xmlns:xlink="http://www.w3.org/1999/xlink">
    <!-- Generator: Sketch 51.3 (57544) - http://www.bohemiancoding.com/sketch -->
    <title>nuts</title>
    <desc>Created with Sketch.</desc>
    <defs></defs>
    <g id="Page-1" stroke="none" stroke-width="1" fill="none" fill-rule="evenodd">
        <g id="nuts" fill-rule="nonzero">
            <g id="Group" fill="#C49B83">
                <path d="M308.833,189.811 C328.494,209.424 291.539,324.78 253.473,362.846 C221.001,395.342 168.332,395.361 135.841,362.889 C135.827,362.875 135.812,362.86 135.798,362.846 C103.331,330.34 103.331,277.676 135.798,245.17 C170.579,210.389 269.898,176.526 301.732,185.994 C304.389,186.637 306.833,187.951 308.833,189.811 Z" id="Shape"></path>
                <path d="M449.31,61.604 C481.806,94.1 481.806,146.784 449.31,179.28 C416.814,211.776 364.13,211.776 331.634,179.28 C322.958,170.087 315.504,159.807 309.461,148.702 C281.105,99.043 260.526,21.945 276.274,6.245 C285.79,-3.271 317.77,0.496 352.551,11.221 C389.554,22.669 429.697,41.992 449.31,61.604 Z" id="Shape"></path>
                <path d="M143.237,43.2 C188.984,75.276 238.836,133.969 231.445,154.113 C222.122,179.378 104.011,194.353 54.255,176.576 C25.633,166.528 5.069,141.278 1.021,111.217 C-0.718,98.425 0.726,85.397 5.224,73.296 C21.03,31.219 67.729,9.67 110.002,24.94 C121.818,29.577 132.986,35.717 143.237,43.2 Z" id="Shape"></path>
            </g>
            <g id="Group" opacity="0.12" transform="translate(1.000000, 11.000000)" fill="#302A27">
                <path d="M252.473,351.846 C220.001,384.342 167.332,384.361 134.841,351.889 C134.827,351.875 134.812,351.86 134.798,351.846 C121.547,338.687 113.166,321.413 111.031,302.863 C116.142,303.423 121.035,305.23 125.282,308.128 C135.088,314.939 140.402,326.823 149.967,333.972 C158.614,339.426 168.396,342.831 178.565,343.923 C193.975,346.725 211.462,349.044 223.78,339.43 C232.33,332.764 236.195,321.798 243.151,313.441 C249.817,305.47 259.189,300.012 265.517,291.703 C270.063,285.167 273.492,277.916 275.661,270.255 C284.124,245.227 290.631,219.576 295.129,193.544 C295.883,187.076 297.776,180.796 300.733,174.994 C303.39,175.632 305.834,176.946 307.834,178.81 C327.494,198.424 290.539,313.78 252.473,351.846 Z" id="Shape"></path>
                <path d="M194.472687,376.230506 C172.97142,376.230506 151.478742,368.056533 135.103233,351.690456 C121.738664,338.417413 113.209733,320.844088 111.061515,302.168494 C110.900231,300.776103 111.384081,299.383713 112.37564,298.393102 C113.367199,297.401536 114.754808,296.917683 116.147189,297.060835 C121.762522,297.678297 127.188896,299.684332 131.845118,302.869938 C137.257177,306.622426 141.222457,311.610792 145.053175,316.433102 C148.427719,320.678987 151.618076,324.694874 155.564269,327.644757 C162.885007,332.240887 171.640116,335.288113 180.588003,336.247231 C195.344953,338.916536 210.281319,340.810913 220.414494,332.909883 C224.733835,329.54486 227.744775,324.625207 230.938949,319.416387 C233.129158,315.852859 235.38808,312.164313 238.195746,308.789746 C241.436683,304.912238 245.20346,301.690367 248.845219,298.573473 C252.786641,295.203678 256.511428,292.0133 259.416437,288.200688 C263.357859,282.525193 266.400293,276.098628 268.336647,269.266466 C276.376957,245.450764 282.567756,221.053866 286.805023,196.531949 C287.556088,190.040489 289.51153,183.563343 292.586411,177.519471 C293.554112,175.615551 295.679425,174.615396 297.777063,175.126926 C301.082895,175.919987 304.13869,177.565279 306.619018,179.879568 C311.136861,184.384081 313.280307,191.870924 313.28985,202.870715 C313.312754,241.876739 284.518426,321.029232 253.897492,351.644647 C237.507667,368.028857 215.988268,376.230506 194.472687,376.230506 Z M121.282489,307.686522 C124.228535,321.807023 131.290647,334.909238 141.566973,345.11215 C170.781211,374.308453 218.214742,374.285549 247.360267,345.12551 C276.048664,316.436919 304.073795,239.419298 304.050891,202.874532 C304.041347,191.980674 301.635458,187.946654 300.197268,186.513226 C299.837482,186.181114 299.446203,185.868088 299.01675,185.581785 C297.444953,189.505101 296.402815,193.612605 295.904649,197.845129 C291.557634,223.085669 285.241815,247.948288 277.118478,271.994941 C274.975032,279.592488 271.494556,286.945723 266.851695,293.621372 C263.23284,298.374015 258.954537,302.034886 254.824156,305.575509 C251.311232,308.576927 248.001583,311.416106 245.262629,314.694284 C242.888233,317.543006 240.896527,320.793508 238.785528,324.232971 C235.305052,329.908466 231.70433,335.78151 226.070864,340.175318 C212.936291,350.424039 195.01666,348.229043 179.259562,345.357417 C169.255222,344.30191 159.136362,340.779419 150.335444,335.228944 C145.135248,331.356208 141.419051,326.681822 137.827872,322.163949 C134.254825,317.664208 130.875509,313.418323 126.606749,310.454125 C124.956696,309.323225 123.163492,308.396555 121.282489,307.686522 Z" id="Shape"></path>
                <path d="M448.31,168.28 C415.838,200.776 363.169,200.795 330.678,168.323 C330.664,168.309 330.649,168.294 330.635,168.28 C321.959,159.087 314.505,148.807 308.462,137.702 C319.718,137.171 335.514,145.19 344.596,150.455 C358.557,158.522 373.677,167.266 390.391,165.817 C409.569,164.126 435.413,144.852 442.707,123.21 C448.552,105.723 431.645,109.153 434.06,91.231 C435.171,83.067 426.959,69.541 420.824,63.986 C402.569,47.518 383.058,32.495 362.469,19.061 C356.914,15.438 350.682,10.801 350.779,4.231 C350.793,2.859 351.054,1.502 351.552,0.222 C388.555,11.671 428.698,30.993 448.311,50.606 C480.134,82.97 479.603,135.398 448.31,168.28 Z" id="Shape"></path>
                <path d="M389.585866,192.663553 C367.380858,192.663553 346.498928,183.952139 330.794007,168.13848 C322.197789,158.970976 314.916142,148.852253 309.018055,137.927993 C308.264846,136.538775 308.278077,134.855337 309.050187,133.475641 C309.817571,132.095945 311.237044,131.21233 312.811505,131.134252 C324.01891,130.614366 338.983852,137.771837 349.461675,143.888585 C362.358837,151.400263 375.711516,159.159506 390.055558,157.913114 C405.768984,156.514375 429.079705,139.850427 435.566561,120.458509 C437.584253,114.368422 436.150605,112.754492 433.284254,109.54377 C430.134386,106.011215 425.820211,101.181803 427.199046,90.8602676 C427.929573,85.4328919 421.592981,73.9106685 416.151356,68.9431914 C399.131864,53.4789794 380.770395,39.2344985 361.568771,26.6077566 C356.935168,23.5627131 348.316268,17.9011033 348.452356,8.56792144 C348.470312,6.71404416 348.821872,4.8792103 349.497587,3.14530658 C350.369872,0.901039118 352.811894,-0.281557484 355.103652,0.426857872 C394.310194,12.6479749 430.937683,31.9294413 448.417416,49.5417515 C479.808356,81.7070461 479.831037,134.837246 448.499636,168.014698 C448.472229,168.042311 448.444823,168.069924 448.417416,168.097537 C432.717221,183.929287 411.83151,192.654984 389.617052,192.664506 C389.608547,192.663553 389.595316,192.663553 389.585866,192.663553 Z M321.681789,141.473879 C326.242623,148.690384 331.474447,155.466034 337.30449,161.689425 C351.232707,175.709193 369.818155,183.463675 389.585866,183.463675 C389.595316,183.463675 389.603822,183.463675 389.613272,183.463675 C409.371533,183.458915 427.942804,175.704433 441.922055,161.634199 C469.861654,132.012154 469.87016,84.6454463 441.935285,56.0222286 C426.281398,40.2504652 393.79892,22.8819107 358.112706,11.0559447 C359.404596,13.8848453 362.873892,16.4880813 366.563386,18.9123091 C386.161932,31.7961373 404.902369,46.3357912 422.278146,62.1256458 C428.843441,68.1148025 437.585198,82.2307402 436.257396,92.1057075 C435.439924,98.2005552 437.389572,100.380075 440.082978,103.402266 C443.40201,107.11859 447.943944,112.210802 444.227988,123.396909 C436.31599,147.05741 409.751445,165.41051 390.864525,167.089188 C373.699495,168.606949 358.368816,159.711765 344.901785,151.863971 C336.162864,146.759381 328.137458,143.194452 321.681789,141.473879 Z" id="Shape"></path>
                <path d="M230.446,143.112 C221.123,168.377 103.012,183.352 53.256,165.575 C24.634,155.527 4.07,130.277 0.022,100.216 L0.119,100.216 C13.065,100.409 27.509,102.438 35.673,112.486 C40.6,118.621 42.629,127.123 48.909,131.857 C57.459,138.427 69.633,135.094 80.357,135.963 C89.091,137.475 97.69,139.702 106.056,142.629 C124.026,147.122 142.914,144.61 161.271,142.049 C169.266,141.421 177.092,139.431 184.41,136.156 C191.811,132.75 196.979,125.818 198.129,117.751 C198.854,107.172 190.158,98.235 181.028,92.825 C171.898,87.415 161.415,83.695 154.218,75.869 C144.122,64.855 142.962,48.576 142.286,33.649 C142.286,33.166 142.238,32.683 142.238,32.2 C187.984,64.275 237.836,122.968 230.446,143.112 Z" id="Shape"></path>
                <path d="M110.443139,173.338361 C88.1019153,173.338361 67.2637677,170.929582 53.0780727,165.728086 C24.4387799,155.410949 4.11763787,129.80863 0.0633735775,98.9083483 C-0.113348353,97.5751755 0.28145596,96.2333207 1.14438539,95.2175241 C2.00731481,94.2017275 3.2509484,93.6238907 4.56414274,93.6238907 C16.0839686,93.8013898 32.2681254,95.3950232 41.5996073,107.184245 C43.7296706,109.905576 45.2684674,112.86904 46.7536836,115.735072 C48.6835247,119.453872 50.5090247,122.967197 53.2519746,125.087539 C57.6343025,128.541055 63.9727917,128.325934 70.6713049,128.078979 C73.8682798,127.967077 77.178056,127.845529 80.4436517,128.120459 C89.2891483,129.672612 97.6627598,131.900033 105.736508,134.797899 C121.665922,138.865909 139.648318,136.284454 155.509112,134.019411 C162.797011,133.423246 169.608326,131.642466 176.034236,128.693473 C181.569956,126.074396 185.420238,120.776433 186.292568,114.535988 C186.928015,104.806335 175.817094,97.2375413 172.397336,95.1548206 C169.96835,93.6779122 167.434082,92.3399161 164.904514,90.9932379 C158.315982,87.503065 151.504668,83.896167 146.16917,77.9402997 C135.143789,65.600252 134.34478,47.4914829 133.759154,34.2716569 L133.736594,33.5963885 C133.723434,33.2838357 133.709334,32.9722476 133.709334,32.6596948 C133.709334,30.921361 134.654044,29.3277275 136.15712,28.5260875 C137.655497,27.7244474 139.471596,27.8459957 140.861872,28.842499 C180.821708,57.5944628 233.940748,117.471477 225.436476,141.261182 C225.436476,141.266006 225.436476,141.266006 225.431776,141.270829 C218.262317,161.217293 160.565427,173.338361 110.443139,173.338361 Z M9.98894201,103.163504 C15.1336182,128.085731 32.4072469,148.407451 56.1058458,156.944773 C102.908957,174.09852 209.706344,158.049319 216.904002,138.062339 C221.730955,124.510667 186.334868,75.7350661 143.309658,42.2388594 C144.204548,53.7116695 146.274451,64.2902313 152.859223,71.6574096 C157.105249,76.3920058 162.917333,79.4721943 169.07064,82.7347054 C171.759069,84.1604864 174.451259,85.5862674 177.025947,87.1567487 C182.85683,90.7028725 196.315897,100.568544 195.316667,115.531527 C193.977152,125.26118 188.182929,133.235135 179.786757,137.20089 C172.371016,140.602313 164.54731,142.648377 156.492362,143.300493 C140.076963,145.653321 121.173357,148.361147 103.13644,143.733629 C95.1350721,140.882067 87.252146,138.780053 79.3062392,137.372601 C76.9721937,137.195102 74.065682,137.303145 70.9871484,137.410223 C63.358025,137.685154 54.6901903,137.98806 47.7510345,132.517421 C43.4373274,129.180631 41.0487613,124.57723 38.7419761,120.131069 C37.3930614,117.530321 36.1174674,115.075238 34.5373102,113.052327 C28.847428,105.85686 18.7169374,103.764493 9.98894201,103.163504 Z" id="Shape"></path>
            </g>
            <g id="Group" transform="translate(34.000000, 39.000000)" fill="#302A27" opacity="0.24">
                <g id="Shape">
                    <path d="M4.938,48.739 C4.151,48.739 3.349,48.546 2.61,48.135 C0.272,46.845 -0.578,43.908 0.712,41.575 C11.253,22.46 31.358,10.398 53.178,10.093 C55.758,10.141 58.038,12.19 58.076,14.856 C58.114,17.522 55.979,19.716 53.313,19.754 C34.952,20.01 18.034,30.159 9.165,46.241 C8.29,47.84 6.638,48.739 4.938,48.739 Z"></path>
                    <path d="M338.255,34.246 C337.419,34.246 336.569,34.029 335.801,33.575 C320.531,24.542 304.484,16.518 288.103,9.726 C285.635,8.707 284.466,5.881 285.49,3.412 C286.509,0.944 289.355,-0.221 291.804,0.799 C308.61,7.765 325.063,15.996 340.72,25.257 C343.019,26.614 343.778,29.58 342.42,31.875 C341.516,33.401 339.907,34.246 338.255,34.246 Z"></path>
                    <path d="M130.54,232.305 C129.231,232.305 127.922,231.778 126.97,230.73 C125.173,228.759 125.313,225.706 127.284,223.909 C143.37,209.229 161.722,197.548 181.822,189.196 C184.29,188.177 187.116,189.341 188.136,191.805 C189.16,194.269 187.991,197.099 185.527,198.124 C166.46,206.046 149.05,217.123 133.79,231.04 C132.869,231.889 131.7,232.305 130.54,232.305 Z"></path>
                </g>
            </g>
        </g>
    </g>
</svg>