<?xml version="1.0" encoding="UTF-8"?>
<svg width="7320px" height="6930px" viewBox="0 0 7320 6930" version="1.1" xmlns="http://www.w3.org/2000/svg" xmlns:xlink="http://www.w3.org/1999/xlink">
    <!-- Generator: Sketch 51.2 (57519) - http://www.bohemiancoding.com/sketch -->
    <title>Artboard</title>
    <desc>Created with Sketch.</desc>
    <defs></defs>
    <g id="Artboard" stroke="none" stroke-width="1" fill="none" fill-rule="evenodd">
        <g id="carrot" transform="translate(325.000000, 526.000000)" fill-rule="nonzero">
            <path d="M1930.09302,370.756335 L1717.5658,370.756335 L1883.75229,204.561404 C1909.34943,178.982456 1909.34943,137.465887 1883.75229,111.883041 C1858.15515,86.2846004 1816.67577,86.2846004 1791.07863,111.883041 L1624.89214,278.077973 L1624.89214,65.539961 C1624.89214,29.337232 1595.53691,0 1559.35551,0 C1523.17411,0 1493.81887,29.337232 1493.81887,65.539961 L1493.81887,436.296296 C1493.81887,472.074074 1523.10394,501.836257 1559.35551,501.836257 L1930.09302,501.836257 C1966.27441,501.836257 1995.62965,472.499025 1995.62965,436.296296 C1995.62965,400.093567 1966.27441,370.756335 1930.09302,370.756335 Z" id="Shape" fill="#91DC5A"></path>
            <path d="M1930.09302,370.756335 L1717.5658,370.756335 L1883.75229,204.561404 C1909.34943,178.982456 1909.34943,137.465887 1883.75229,111.883041 C1858.15515,86.2846004 1816.67577,86.2846004 1791.07863,111.883041 L1624.89214,278.077973 L1624.89214,65.539961 C1624.89214,29.337232 1595.53691,0 1559.35551,0 C1523.17411,0 1493.81887,29.337232 1493.81887,65.539961 L1493.81887,436.296296 C1493.81887,472.074074 1523.10394,501.836257 1559.35551,501.836257 L1930.09302,501.836257 C1966.27441,501.836257 1995.62965,472.499025 1995.62965,436.296296 C1995.62965,400.093567 1966.27441,370.756335 1930.09302,370.756335 Z" id="Shape" fill="#88CC2A"></path>
            <path d="M1613.91414,381.777778 C1409.70619,177.555556 1118.36816,135.844055 965.136172,289.087719 C947.218953,307.005848 914.472078,344.701754 871.526891,397.532164 C847.430648,427.196881 819.626992,461.797271 789.659703,500.421053 C719.834789,590.015595 636.735695,700.319688 551.46907,818.959064 C526.133125,854.179337 500.485305,890.323587 474.84918,927.095517 C262.602648,1232.32749 -121.623453,1797.53996 38.3060469,1957.47368 C154.779664,2073.95322 477.005016,1904.95127 734.97632,1743.36842 C774.210195,1718.96296 811.904188,1694.23782 847.430648,1671.06823 C990.203125,1577.45809 1126.90184,1482.53801 1284.58973,1366.13255 C1318.17088,1341.51267 1390.24909,1287.03314 1390.24909,1287.03314 C1455.23994,1237.61404 1649.05076,1088.15984 1706.60339,1030.59649 C1865.08657,872.093567 1814.73045,582.60039 1613.91414,381.777778 Z" id="Shape" fill="#FF9F19"></path>
            <path d="M1930.09691,370.756335 L1717.5697,370.756335 L1883.75619,204.561404 C1909.31045,179.025341 1909.34163,137.633528 1883.88484,112.035088 L1513.26818,482.670565 C1525.09994,494.444444 1541.35252,501.840156 1559.35941,501.840156 L1930.09691,501.840156 C1966.27441,501.836257 1995.63355,472.502924 1995.63355,436.300195 C1995.62965,400.093567 1966.27441,370.752437 1930.09691,370.756335 Z" id="Shape" fill="#7FB335"></path>
            <g id="Group" transform="translate(35.085938, 378.167641)" fill="#F28618">
                <path d="M1671.51355,652.424951 C1613.95313,709.988304 1420.13061,859.454191 1355.15925,908.861598 C1324.50584,932.17154 1283.88412,962.748538 1249.4999,987.961014 C1091.64437,1104.49123 954.922266,1199.4152 812.340812,1292.89669 C776.814352,1316.07018 739.124258,1340.78752 699.886484,1365.19688 C441.91518,1526.77973 119.689828,1695.78168 3.21621094,1579.30214 L1578.8282,3.61013645 C1779.64452,204.432749 1830.00063,493.925926 1671.51355,652.424951 Z" id="Shape"></path>
                <path d="M976.390961,252.011696 C963.724937,264.678363 947.043523,270.861598 930.050234,271.165692 C913.364922,271.165692 896.683508,264.37037 884.013586,251.699805 L754.569867,122.249513 C784.537156,83.6296296 812.344711,49.0292398 836.437055,19.3606238 L976.387063,159.317739 C1002.34676,184.662768 1002.03098,226.37037 976.390961,252.011696 Z" id="Shape"></path>
                <path d="M698.342703,715.450292 C685.67668,728.116959 668.995266,734.300195 652.001977,734.604288 C635.316664,734.604288 618.63525,727.808967 605.965328,715.138402 L439.755445,548.920078 C465.39157,512.148148 491.035492,476.003899 516.375336,440.783626 L698.338805,622.756335 C723.986625,648.409357 723.982727,689.808967 698.342703,715.450292 Z" id="Shape"></path>
            </g>
            <g id="Group" transform="translate(588.664063, 1134.502924)" fill="#E67400">
                <path d="M801.577227,152.522417 C801.577227,152.522417 742.43793,197.512671 695.917875,231.621832 L577.588602,113.28655 C551.640602,87.9532164 551.94468,46.2378168 577.284523,20.9044834 C602.928445,-4.74074074 644.329852,-4.74074074 669.965977,20.9044834 L801.577227,152.522417 Z" id="Shape"></path>
                <path d="M258.762688,536.557505 C223.236227,559.730994 185.546133,584.448343 146.308359,608.8577 L21.4959844,484.038986 C-4.45201563,458.705653 -4.1479375,416.990253 21.4959844,391.352827 C46.8280312,366.019493 88.2294375,366.019493 113.873359,391.65692 L258.762688,536.557505 Z" id="Shape"></path>
            </g>
        </g>
        <g id="broccoli" transform="translate(795.000000, 4552.000000)" fill-rule="nonzero">
            <path d="M1584.07018,445.619455 C1584.07018,410.704 1564.31579,380.666182 1535.40351,364.664727 C1549.08772,336.732364 1556.98246,305.571636 1556.98246,272.516 C1556.98246,154.856182 1459.89474,59.4790909 1340.14035,59.4790909 C1308.84211,59.4790909 1279.15789,66.1112727 1252.2807,77.8667273 C1220.24561,34.5294545 1168.42105,6.21109091 1109.75439,6.21109091 C1043.26316,6.21109091 985.438596,42.4249091 955.438596,95.8332727 C922.385965,72.9890909 882.175439,59.4790909 838.701754,59.4790909 C726.421053,59.4790909 635.403509,148.890727 635.403509,259.216545 C635.403509,267.462909 636.070175,275.568909 637.052632,283.534545 C557.263158,310.519455 499.859649,384.701636 499.859649,472.253455 C499.859649,540.540364 534.77193,600.756364 587.964912,636.759636 C566.736842,665.358727 554.070175,700.449636 554.070175,738.558364 C554.070175,834.146 632.947368,911.661818 730.245614,911.661818 C770.982456,911.661818 808.350877,897.941273 838.210526,875.167273 C877.508772,929.417818 941.894737,964.929818 1014.87719,964.929818 C1092,964.929818 1159.54386,925.242 1198,865.657636 C1223.85965,909.065091 1271.7193,938.295818 1326.59649,938.295818 C1408.94737,938.295818 1475.68421,872.710909 1475.68421,791.826364 C1475.68421,773.684364 1472.17544,756.384545 1466.03509,740.348 C1519.50877,718.100364 1557.01754,666.060545 1557.01754,605.423455 C1557.01754,576.719091 1548.49123,549.979818 1533.92982,527.381273 C1563.61404,511.625455 1584.07018,481.131455 1584.07018,445.619455 Z" id="Shape" fill="#88C057"></path>
            <path d="M801.122807,896.327091 C779.368421,905.836727 755.578947,911.661818 730.210526,911.661818 C632.912281,911.661818 554.035088,834.146 554.035088,738.558364 C554.035088,700.449636 566.701754,665.358727 587.929825,636.759636 C534.736842,600.756364 499.824561,540.540364 499.824561,472.253455 C499.824561,439.197818 508.070175,408.037091 522.561404,380.631091 C464.421053,346.066545 387.894737,353.049636 337.684211,402.352364 C333.263158,406.703636 329.298246,411.300545 325.54386,416.002727 C269.157895,388.982727 199.263158,398.352 152.421053,444.356182 C115.894737,480.254182 102.035088,529.942909 110.701754,576.368182 C84.2105263,580.403636 58.7719298,592.334545 38.3859649,612.371455 C-12.7719298,662.621636 -12.7719298,744.137818 38.3859649,794.388 C59.7894737,815.442545 86.8070175,827.548909 114.701754,830.952727 C106.315789,879.799273 121.192982,931.733818 159.54386,969.421455 C200.105263,1009.24964 256.842105,1023.286 308.947368,1011.81127 C299.333333,1047.99 308.842105,1088.06382 337.684211,1116.45236 C380.982456,1158.98255 451.157895,1158.98255 494.45614,1116.45236 C504.175439,1106.90764 511.578947,1095.99436 516.947368,1084.37927 C556.982456,1100.31055 604.526316,1092.30982 636.982456,1060.44727 C652.350877,1045.35818 662.140351,1026.90036 666.596491,1007.49509 C690.666667,1014.58345 717.719298,1009.10927 736.736842,990.440909 C755.403509,972.088364 761.122807,946.086 754.45614,922.750545 C771.192982,916.960545 786.666667,907.591273 801.122807,896.327091 Z" id="Shape" fill="#659C35"></path>
            <path d="M1946.80702,640.374 C1942.38596,636.022727 1937.7193,632.127636 1932.91228,628.443091 C1960.42105,573.034545 1950.87719,504.361636 1904.03509,458.357455 C1867.50877,422.459455 1816.91228,408.844182 1769.64912,417.371273 C1765.50877,391.368909 1753.40351,366.349091 1733.01754,346.347273 C1681.85965,296.062 1598.91228,296.062 1547.7193,346.347273 C1544.38596,349.645818 1541.61404,353.295273 1538.73684,356.839455 C1537.57895,359.436182 1536.63158,362.173273 1535.40351,364.699818 C1564.31579,380.666182 1584.07018,410.739091 1584.07018,445.654545 C1584.07018,481.166545 1563.61404,511.660545 1533.89474,527.381273 C1548.42105,549.979818 1556.98246,576.684 1556.98246,605.423455 C1556.98246,666.060545 1519.47368,718.100364 1466,740.348 C1472.14035,756.384545 1475.64912,773.684364 1475.64912,791.826364 C1475.64912,872.710909 1408.91228,938.295818 1326.5614,938.295818 C1307.29825,938.295818 1288.98246,934.506 1272.07018,927.944 C1273.89474,930.014364 1274.94737,932.470727 1276.91228,934.400727 C1292.2807,949.489818 1311.05263,959.139818 1330.80702,963.526182 C1323.57895,987.177455 1329.15789,1013.77636 1348.17544,1032.44473 C1366.84211,1050.79727 1393.33333,1056.41182 1417.08772,1049.84982 C1424.84211,1071.60618 1437.36842,1092.06418 1455.08772,1109.43418 C1518.07018,1171.29945 1620.14035,1171.29945 1683.12281,1109.43418 C1699.57895,1093.25727 1711.61404,1074.44855 1719.47368,1054.37655 C1759.50877,1060.62273 1801.89474,1048.72691 1832.77193,1018.40836 C1867.7193,984.054364 1878.77193,935.137636 1865.96491,891.554727 C1895.54386,886.501636 1923.92982,872.851273 1946.80702,850.358 C2005.82456,792.387818 2005.82456,698.379273 1946.80702,640.374 Z" id="Shape" fill="#659C35"></path>
            <path d="M1417.08772,1049.84982 C1393.33333,1056.37673 1366.87719,1050.79727 1348.17544,1032.44473 C1337.05263,1021.53145 1330.52632,1007.88109 1328.49123,993.704364 C1327.33333,985.808909 1324.66667,978.194182 1320.70175,971.421636 C1183.22807,1113.32927 1087.19298,1374.75655 1087.19298,1374.75655 C1132.84211,1212.426 1125.64912,1050.44636 1111.50877,942.401455 C1082.42105,956.753636 1049.61404,964.929818 1014.80702,964.929818 C980.912281,964.929818 949.017544,956.999273 920.491228,943.348909 C981.929825,1160.59673 946.842105,1515.12018 946.842105,1515.12018 C881.087719,1252.11382 736.526316,1087.67782 668.210526,1021.81218 C663.333333,1025.63709 658.947368,1030.05855 655.859649,1035.60291 C650.947368,1044.516 644.631579,1052.90273 636.947368,1060.48236 C604.491228,1092.38 556.912281,1100.34564 516.912281,1084.41436 C511.54386,1096.02945 504.140351,1106.94273 494.421053,1116.48745 C482.842105,1127.85691 469.263158,1135.96291 454.877193,1141.26164 C631.052632,1141.26164 833.122807,1491.96018 859.192982,1866.06436 C861.122807,1893.57564 884.175439,1914.91091 911.754386,1914.91091 L1087.19298,1914.91091 C1114.21053,1914.91091 1136.73684,1894.66345 1139.78947,1867.854 C1155.89474,1725.52527 1205.61404,1130.52382 1481.75439,1130.52382 C1472.31579,1124.52327 1463.33333,1117.61036 1455.05263,1109.50436 C1437.40351,1092.06418 1424.84211,1071.60618 1417.08772,1049.84982 Z" id="Shape" fill="#436B1C"></path>
            <path d="M823.438596,497.483818 C819.192982,497.483818 814.877193,496.711818 810.666667,495.062545 C722.350877,460.533091 678.561404,360.559091 713.087719,272.235273 C747.614035,183.946545 847.403509,140.153091 935.929825,174.612364 C953.964912,181.665636 962.912281,202.018364 955.824561,220.055091 C948.77193,238.126909 928.491228,247.004909 910.350877,239.986727 C858.035088,219.528727 798.877193,245.460909 778.45614,297.746364 C758,350.066909 783.929825,409.230182 836.210526,429.653091 C854.245614,436.706364 863.192982,457.059091 856.105263,475.095818 C850.701754,489.026909 837.438596,497.483818 823.438596,497.483818 Z" id="Shape" fill="#659C35"></path>
            <path d="M1722.24561,864.885636 C1701.05263,864.885636 1679.89474,860.920364 1659.57895,852.989818 C1616.80702,836.251455 1583.08772,803.897636 1564.66667,761.788545 C1556.87719,744.032545 1564.98246,723.328909 1582.73684,715.573818 C1600.63158,707.783636 1621.22807,715.924727 1628.94737,733.645636 C1639.85965,758.560182 1659.82456,777.719818 1685.15789,787.650545 C1710.52632,797.546182 1738.17544,796.949636 1763.08772,786.071455 C1788,775.158182 1807.15789,755.191455 1817.05263,729.855818 C1826.94737,704.520182 1826.42105,676.868545 1815.47368,651.954 C1807.68421,634.198 1815.78947,613.494364 1833.54386,605.739273 C1851.40351,597.984182 1872,606.055091 1879.75439,623.811091 C1898.17544,665.885091 1899.15789,712.626182 1882.42105,755.437091 C1865.68421,798.248 1833.33333,831.970364 1791.22807,850.393091 C1769.08772,860.008 1745.68421,864.885636 1722.24561,864.885636 Z" id="Shape" fill="#88C057"></path>
            <path d="M1241.78947,778.140909 C1181.75439,778.140909 1123.36842,746.699455 1091.78947,690.799636 C1082.24561,673.920909 1088.17544,652.515455 1105.05263,642.970727 C1121.85965,633.426 1143.33333,639.356364 1152.84211,656.235091 C1166.24561,679.921455 1188.03509,696.975636 1214.24561,704.274545 C1240.38596,711.503273 1267.89474,708.169636 1291.57895,694.8 C1315.26316,681.430364 1332.31579,659.638909 1339.61404,633.390909 C1346.87719,607.178 1343.50877,579.701818 1330.14035,556.050545 C1320.59649,539.171818 1326.52632,517.766364 1343.40351,508.221636 C1360.21053,498.712 1381.68421,504.607273 1391.19298,521.486 C1413.82456,561.489636 1419.50877,607.879818 1407.19298,652.164545 C1394.87719,696.449273 1366.07018,733.259636 1326.07018,755.858182 C1299.4386,770.982364 1270.42105,778.140909 1241.78947,778.140909 Z" id="Shape" fill="#659C35"></path>
            <path d="M1118.63158,588.755273 C1093.50877,588.755273 1068.07018,583.246 1043.96491,571.595818 C958.596491,530.258727 922.77193,427.196727 964.070175,341.820545 C972.526316,324.415455 993.438596,317.081455 1010.94737,325.503273 C1028.38596,333.960182 1035.68421,354.944545 1027.26316,372.384727 C1002.80702,422.915636 1024,483.938727 1074.5614,508.397091 C1125.08772,532.785273 1186.10526,511.660545 1210.5614,461.094545 C1218.98246,443.689455 1239.89474,436.320364 1257.4386,444.777273 C1274.87719,453.234182 1282.17544,474.218545 1273.75439,491.658727 C1244.03509,552.997636 1182.52632,588.755273 1118.63158,588.755273 Z" id="Shape" fill="#659C35"></path>
            <path d="M851.894737,785.720545 C828.491228,785.720545 805.122807,780.878 783.052632,771.228 C696.175439,733.224545 656.385965,631.636364 694.350877,544.716182 C702.105263,527.030364 722.631579,518.854182 740.526316,526.609273 C758.280702,534.364364 766.385965,555.068 758.631579,572.824 C736.175439,624.267273 759.719298,684.448182 811.157895,706.906364 C836.140351,717.819636 863.789474,718.346 889.087719,708.415273 C914.421053,698.484545 934.350877,679.324909 945.263158,654.375273 C953.017544,636.689455 973.578947,628.548364 991.438596,636.268364 C1009.19298,644.023455 1017.29825,664.727091 1009.54386,682.483091 C991.192982,724.592182 957.508772,757.016182 914.701754,773.754545 C894.350877,781.755273 873.122807,785.720545 851.894737,785.720545 Z" id="Shape" fill="#659C35"></path>
            <path d="M1242.24561,402.808545 C1236.70175,402.808545 1231.12281,402.562909 1225.50877,402.036545 C1179.75439,397.650182 1138.49123,375.718364 1109.26316,340.276545 C1096.91228,325.327818 1099.05263,303.220545 1114,290.868545 C1129.01754,278.481455 1151.08772,280.692182 1163.40351,295.605818 C1180.70175,316.590182 1205.12281,329.573818 1232.21053,332.170545 C1259.64912,334.942727 1285.78947,326.626182 1306.73684,309.361455 C1350.03509,273.638909 1356.21053,209.317273 1320.49123,166.015091 C1308.14035,151.066364 1310.2807,128.959091 1325.22807,116.607091 C1340.24561,104.22 1362.31579,106.430727 1374.63158,121.344364 C1434.98246,194.473818 1424.5614,303.115273 1351.4386,363.471636 C1320.2807,389.123091 1282.03509,402.808545 1242.24561,402.808545 Z" id="Shape" fill="#659C35"></path>
            <path d="M346.736842,826.250545 C325.22807,826.250545 303.403509,822.215091 282.280702,813.652909 C194.421053,778.000545 151.929825,677.500182 187.578947,589.597455 C194.842105,571.630909 215.298246,563.033636 233.298246,570.262364 C251.263158,577.561273 259.894737,598.019273 252.631579,615.985818 C231.508772,667.990545 256.666667,727.504727 308.701754,748.629455 C360.842105,769.824364 420.280702,744.594 441.333333,692.554182 C448.631579,674.552545 469.157895,665.955273 487.052632,673.219091 C505.017544,680.518 513.684211,700.976 506.385965,718.942545 C479.22807,785.685455 414.736842,826.250545 346.736842,826.250545 Z" id="Shape" fill="#88C057"></path>
        </g>
        <g id="cucumber" transform="translate(2442.000000, 347.000000)" fill-rule="nonzero">
            <circle id="Oval" fill="#619F38" cx="998.603922" cy="998.603922" r="998.603922"></circle>
            <circle id="Oval" fill="#DEF7CD" cx="998.603922" cy="998.603922" r="897.545098"></circle>
            <circle id="Oval" fill="#F2FFDB" cx="998.603922" cy="998.603922" r="555.811765"></circle>
            <g id="Group" transform="translate(572.549020, 580.392157)" fill="#CDE4A7">
                <path d="M521.792157,337.098039 L733.215686,214.764706 C759.807843,200.137255 766.458824,164.235294 746.513725,141.631373 C685.34902,71.1568627 601.576471,20.627451 505.839216,2.01176471 C476.584314,-3.30588235 448.662745,19.2980392 448.662745,49.8823529 L448.662745,294.545098 C448.658824,331.780392 488.54902,355.713725 521.792157,337.098039 Z" id="Shape"></path>
                <path d="M403.447059,294.54902 L403.447059,49.8862745 C403.447059,19.3019608 375.521569,-3.30196078 346.270588,2.01568627 C250.533333,20.6313725 166.760784,69.8313725 105.596078,141.635294 C85.6509804,164.239216 92.2980392,200.141176 118.894118,214.768627 L330.317647,337.101961 C363.556863,355.713725 403.447059,331.780392 403.447059,294.54902 Z" id="Shape"></path>
                <path d="M544.396078,460.760784 L755.819608,583.094118 C782.411765,597.721569 815.654902,587.082353 826.294118,557.831373 C842.25098,513.952941 850.227451,467.411765 850.227451,418.211765 C850.227451,369.011765 842.25098,322.47451 826.294118,278.592157 C816.984314,250.666667 782.415686,238.701961 755.819608,253.329412 L544.396078,375.662745 C512.482353,394.27451 512.482353,442.145098 544.396078,460.760784 Z" id="Shape"></path>
                <path d="M448.658824,541.870588 L448.658824,786.533333 C448.658824,817.117647 476.584314,839.721569 505.835294,834.403922 C601.572549,815.788235 685.345098,766.588235 746.509804,694.784314 C766.454902,672.180392 759.807843,636.278431 733.211765,621.65098 L521.788235,499.317647 C488.54902,480.705882 448.658824,504.639216 448.658824,541.870588 Z" id="Shape"></path>
                <path d="M307.709804,375.658824 L96.2862745,253.32549 C69.6941176,238.698039 36.4509804,249.337255 25.8117647,278.588235 C9.85490196,322.466667 1.87843137,369.007843 1.87843137,418.207843 C1.87843137,467.407843 9.85490196,513.945098 25.8117647,557.827451 C35.1215686,585.752941 69.6901961,597.717647 96.2862745,583.090196 L307.709804,460.756863 C339.623529,442.145098 339.623529,394.27451 307.709804,375.658824 Z" id="Shape"></path>
                <path d="M330.313725,499.321569 L118.890196,621.654902 C92.2980392,636.282353 85.6470588,672.184314 105.592157,694.788235 C166.756863,765.262745 250.529412,815.792157 346.266667,834.407843 C375.521569,839.72549 403.443137,817.121569 403.443137,786.537255 L403.443137,541.87451 C403.447059,504.639216 363.556863,480.705882 330.313725,499.321569 Z" id="Shape"></path>
            </g>
        </g>
        <g id="asparagus" transform="translate(1016.000000, 2347.000000)" fill-rule="nonzero">
            <rect id="Rectangle-path" fill="#88C057" x="288.856656" y="1174.52632" width="691.627625" height="229.54386"></rect>
            <path d="M980.484281,1333.89474 L204.66675,1333.89474 C185.259906,1333.89474 169.573,1318.21053 169.573,1298.80702 C169.573,1279.40351 185.259906,1263.7193 204.66675,1263.7193 L980.484281,1263.7193 C999.891125,1263.7193 1015.57803,1279.40351 1015.57803,1298.80702 C1015.57803,1318.21053 999.891125,1333.89474 980.484281,1333.89474 Z" id="Shape" fill="#A46F3E"></path>
            <g id="Group" transform="translate(386.031250, 0.000000)" fill="#88C057">
                <path d="M66.8185,655.824561 L32.426625,702.245614 L32.426625,707.824561 L32.426625,1193.50877 L172.801625,1193.50877 L172.801625,702.280702 L207.1935,655.859649 C319.844437,503.824561 319.844437,296.035088 207.1935,144 L100.5085,0 L30.321,94.7368421 L66.7834063,143.964912 C179.469438,296 179.469438,503.789474 66.8185,655.824561 Z" id="Shape"></path>
                <path d="M32.426625,1404.07018 L32.426625,1930.17544 C32.426625,1949.68421 48.2539062,1965.47368 67.7309375,1965.47368 L137.462219,1965.47368 C156.974344,1965.47368 172.766531,1949.64912 172.766531,1930.17544 L172.766531,1404.07018 L32.426625,1404.07018 Z" id="Shape"></path>
            </g>
            <g id="Group" transform="translate(175.468750, 0.000000)" fill="#659C35">
                <path d="M114.967125,1439.68421 L114.967125,1929.89474 C114.967125,1949.54386 130.899688,1965.50877 150.587281,1965.50877 L219.757063,1965.50877 C239.409562,1965.50877 255.377219,1949.57895 255.377219,1929.89474 L255.377219,1439.68421 C255.377219,1420.03509 239.444656,1404.07018 219.757063,1404.07018 L150.587281,1404.07018 C130.934781,1404.07018 114.967125,1420 114.967125,1439.68421 Z" id="Shape"></path>
                <path d="M114.967125,719.614035 L114.967125,1157.92982 C114.967125,1177.57895 130.899687,1193.54386 150.587281,1193.54386 L219.757062,1193.54386 C239.409562,1193.54386 255.377219,1177.61404 255.377219,1157.92982 L255.377219,714.035088 C255.377219,706.421053 257.833781,698.982456 262.360875,692.842105 L274.082188,677.052632 C396.032969,512.421053 396.032969,287.438596 274.082188,122.807018 L183.084094,0 L92.1210937,122.77193 C-29.8296875,287.403509 -29.8296875,512.385965 92.1210937,677.017544 L107.983469,698.421053 C112.545656,704.561404 114.967125,712 114.967125,719.614035 Z" id="Shape"></path>
            </g>
            <g id="Group" transform="translate(526.406250, 0.000000)" fill="#659C35">
                <path d="M67.38,655.824561 L32.988125,702.245614 L32.988125,707.824561 L32.988125,1193.50877 L173.363125,1193.50877 L173.363125,702.280702 L207.755,655.859649 C320.405938,503.824561 320.405938,296.035088 207.755,144 L101.07,0 L30.8825,94.7368421 L67.3449063,143.964912 C179.995844,296 179.995844,503.789474 67.38,655.824561 Z" id="Shape"></path>
                <path d="M32.9530313,1404.07018 L32.9530313,1929.68421 C32.9530313,1949.4386 48.990875,1965.47368 68.7486562,1965.47368 L137.532406,1965.47368 C157.290187,1965.47368 173.328031,1949.4386 173.328031,1929.68421 L173.328031,1404.07018 L32.9530313,1404.07018 Z" id="Shape"></path>
            </g>
            <g id="Group" transform="translate(666.781250, 0.000000)" fill="#88C057">
                <path d="M63.5547812,656.701754 L29.1629062,703.122807 L29.1629062,708.701754 L29.1629062,1193.50877 L169.537906,1193.50877 L169.537906,703.157895 L203.929781,656.736842 C316.580719,504.701754 316.580719,296.912281 203.929781,144.877193 L97.279875,0.912280702 L27.092375,95.6491228 L63.5547812,144.877193 C176.205719,296.877193 176.205719,504.666667 63.5547812,656.701754 Z" id="Shape"></path>
                <path d="M29.1629062,1404.07018 L29.1629062,1930.66667 C29.1629062,1950.38596 45.1305625,1966.35088 64.85325,1966.35088 L133.847562,1966.35088 C153.57025,1966.35088 169.537906,1950.38596 169.537906,1930.66667 L169.537906,1404.07018 L29.1629062,1404.07018 Z" id="Shape"></path>
            </g>
            <g id="Group" transform="translate(807.156250, 0.000000)" fill="#659C35">
                <path d="M63.6951562,656.701754 L29.3032813,703.122807 L29.3032813,708.701754 L29.3032813,1193.50877 L133.637,1193.50877 C153.535156,1193.50877 169.678281,1177.36842 169.678281,1157.47368 L169.678281,703.157895 L204.070156,656.736842 C316.721094,504.701754 316.721094,296.912281 204.070156,144.877193 L97.42025,0.912280702 L27.23275,95.6491228 L63.6951562,144.877193 C176.346094,296.877193 176.346094,504.666667 63.6951562,656.701754 Z" id="Shape"></path>
                <path d="M29.3032813,1404.07018 L29.3032813,1930.31579 C29.3032813,1950.21053 45.4464063,1966.31579 65.3094688,1966.31579 L133.637,1966.31579 C153.535156,1966.31579 169.643188,1950.17544 169.643188,1930.31579 L169.643188,1440.49123 C169.643188,1420.38596 153.324594,1404.07018 133.215875,1404.07018 L29.3032813,1404.07018 Z" id="Shape"></path>
            </g>
            <path d="M63.8004375,1478.49123 C54.8164375,1478.49123 45.8324375,1475.05263 38.9891562,1468.21053 C25.2675,1454.49123 25.2675,1432.31579 38.9891562,1418.59649 L183.6105,1274 C197.332156,1260.2807 219.511406,1260.2807 233.233063,1274 C246.954719,1287.7193 246.954719,1309.89474 233.233063,1323.61404 L88.6117187,1468.21053 C81.7684375,1475.05263 72.7844375,1478.49123 63.8004375,1478.49123 Z" id="Shape" fill="#A46F3E"></path>
            <path d="M208.421781,1333.89474 C199.437781,1333.89474 190.453781,1330.45614 183.6105,1323.61404 L38.9891562,1179.01754 C25.2675,1165.29825 25.2675,1143.12281 38.9891562,1129.40351 C52.7108125,1115.68421 74.8900625,1115.68421 88.6117187,1129.40351 L233.233063,1274 C246.954719,1287.7193 246.954719,1309.89474 233.233063,1323.61404 C226.389781,1330.45614 217.405781,1333.89474 208.421781,1333.89474 Z" id="Shape" fill="#A46F3E"></path>
            <path d="M454.078031,386.526316 C445.094031,386.526316 436.110031,383.087719 429.26675,376.245614 L348.796781,295.789474 L268.326813,376.245614 C254.605156,389.964912 232.425906,389.964912 218.70425,376.245614 C204.982594,362.526316 204.982594,340.350877 218.70425,326.631579 L348.796781,196.561404 L478.889313,326.631579 C492.610969,340.350877 492.610969,362.526316 478.889313,376.245614 C472.046031,383.087719 463.062031,386.526316 454.078031,386.526316 Z" id="Shape" fill="#436B1C"></path>
            <path d="M454.078031,561.964912 C445.094031,561.964912 436.110031,558.526316 429.26675,551.684211 L348.796781,471.22807 L268.326813,551.684211 C254.605156,565.403509 232.425906,565.403509 218.70425,551.684211 C204.982594,537.964912 204.982594,515.789474 218.70425,502.070175 L348.796781,372 L478.889313,502.070175 C492.610969,515.789474 492.610969,537.964912 478.889313,551.684211 C472.046031,558.526316 463.062031,561.964912 454.078031,561.964912 Z" id="Shape" fill="#436B1C"></path>
            <path d="M980.484281,1228.63158 L278.609281,1228.63158 C259.202437,1228.63158 243.515531,1212.94737 243.515531,1193.54386 C243.515531,1174.14035 259.202437,1158.45614 278.609281,1158.45614 L980.484281,1158.45614 C999.891125,1158.45614 1015.57803,1174.14035 1015.57803,1193.54386 C1015.57803,1212.94737 999.891125,1228.63158 980.484281,1228.63158 Z" id="Shape" fill="#A46F3E"></path>
            <path d="M980.484281,1439.15789 L278.609281,1439.15789 C259.202437,1439.15789 243.515531,1423.47368 243.515531,1404.07018 C243.515531,1384.66667 259.202437,1368.98246 278.609281,1368.98246 L980.484281,1368.98246 C999.891125,1368.98246 1015.57803,1384.66667 1015.57803,1404.07018 C1015.57803,1423.47368 999.891125,1439.15789 980.484281,1439.15789 Z" id="Shape" fill="#A46F3E"></path>
        </g>
        <g id="aubergine" transform="translate(2589.000000, 4308.000000)" fill-rule="nonzero">
            <path d="M1616.87234,342.051485 C1815.52636,540.673267 1678.43084,1104.35248 1246.11513,1536.56634 C813.799416,1968.7802 250.088117,2105.95248 51.4024026,1907.26733 C-147.315,1708.64554 304.532597,1459.67129 736.852273,1027.3901 C1169.23532,595.20396 1418.21831,143.366337 1616.87234,342.051485 Z" id="Shape" fill="#5A20A5"></path>
            <path d="M1103.52565,1394.06337 C1478.90143,1018.81188 1631.56779,544.633663 1535.34623,296.130693 C1349.29623,262.50297 1112.20032,652.19802 736.856234,1027.3901 C361.53987,1402.64554 -28.2857792,1639.76238 5.47415584,1825.78218 C254.053117,1921.92871 728.209286,1769.31881 1103.52565,1394.06337 Z" id="Shape" fill="#6731BC"></path>
            <g id="Group" transform="translate(621.883117, 700.990099)" fill="#8354DD">
                <path d="M375.965974,216.653465 C404.921169,245.667327 346.230455,351.168317 244.891234,452.522772 C143.552013,553.877228 37.9982468,612.526733 8.98363636,583.576238 C-19.9715584,554.625743 70.9501299,481.287129 172.289351,379.960396 C273.628571,278.633663 347.042468,187.70297 375.965974,216.653465 Z" id="Shape"></path>
                <ellipse id="Oval" cx="450.314675" cy="134.110891" rx="28.5194805" ry="31.5089109"></ellipse>
                <ellipse id="Oval" cx="552.996688" cy="20.2138614" rx="17.1275325" ry="19.9960396"></ellipse>
            </g>
            <polygon id="Shape" fill="#7DA81D" points="1522.73825 239.449505 1197.68747 319.247525 1397.24857 370.562376 1357.34506 587.219802 1488.47922 461.841584 1482.80305 649.984158 1619.68071 501.679208 1665.26435 610.083168 1682.39188 501.679208 1807.85383 604.344554 1676.65234 296.475248"></polygon>
            <g id="Group" transform="translate(1410.129870, 0.000000)" fill="#68930A">
                <polygon id="Shape" points="263.714091 399.077228 309.361104 507.417822 322.123571 426.807921 266.522468 296.475248 112.608377 239.449505 19.4764286 262.344554 41.377013 267.960396 1.44181818 484.613861 132.575974 359.176238 126.868117 547.318812"></polygon>
                <path d="M115.416753,279.346535 C115.416753,279.346535 78.3493506,88.3366337 149.675779,19.9247525 C220.907143,-48.4237624 518.904026,72.019802 381.372792,185.354455 C381.372792,185.354455 300.813182,272.29703 277.973831,165.358416 C254.698766,56.2970297 169.675065,105.461386 198.131169,182.423762 C226.650649,259.445545 306.552727,308.609901 246.649935,328.605941 C186.711494,348.506931 115.416753,279.346535 115.416753,279.346535 Z" id="Shape"></path>
            </g>
        </g>
        <g id="chilli" transform="translate(3504.000000, 1106.000000)" fill-rule="nonzero">
            <path d="M182.155257,1586.80702 C465.566353,1618.74464 730.31285,1492.61598 962.895269,1242.15595 C1241.78445,941.789474 1252.67993,488.631579 1252.67993,430.670565 C1252.67993,372.709552 1908.17456,253.532164 1890.20774,720.487329 C1865.34499,1369.44639 1459.64725,1934.58869 735.879485,1990.81481 C389.181054,2017.76608 174.916293,1937.02534 75.9253114,1854.88889 C-79.9248683,1725.57115 32.4525449,1569.94152 182.155257,1586.80702" id="Shape" fill="#DA2F47"></path>
            <g id="Group" transform="translate(1177.257485, 0.000000)" fill="#77B255">
                <path d="M7.06744311,466.19883 C32.9164311,376.179337 198.964311,244.374269 422.444425,294.740741 C668.760216,350.269006 770.939928,466.892788 770.939928,679.387914 C770.939928,891.937622 562.467898,707.730994 533.492551,642.522417 C504.517204,577.31384 383.789838,772.939571 278.308347,568.327485 C242.600802,499.122807 -38.2569701,623.980507 7.06744311,466.19883" id="Shape"></path>
                <path d="M290.794293,56.0116959 C356.751898,123.247563 466.692934,214.366472 418.589102,361.247563 C370.426796,508.124756 492.600395,505.637427 522.850455,416.374269 C552.987467,327.169591 562.085874,135.192982 497.640772,49.4658869 C433.254144,-36.2651072 240.897287,5.11890838 290.794293,56.0116959" id="Shape"></path>
            </g>
        </g>
        <g id="tomato" transform="translate(4519.000000, 4308.000000)" fill-rule="nonzero">
            <path d="M1153.0176,243.075035 C1079.35389,195.885486 940.997216,130.130499 808.074754,190.884888 C795.279924,196.747658 780.702444,187.522417 780.702444,173.440274 L780.702444,51.327975 C780.731197,23.1062105 761.553329,0 738.120102,0 L674.203461,0 C650.770234,0 631.592366,23.1062105 631.592366,51.327975 L631.592366,180.682519 C631.592366,192.896623 620.522682,202.150603 608.532921,199.679043 C554.564618,188.557024 414.425297,171.256105 280.410242,251.265669 C262.066194,262.215254 272.704592,290.954322 293.751367,287.103287 C356.14413,275.693877 438.261057,267.848112 493.753238,289.747281 C508.301966,295.466356 510.400893,315.353791 497.318539,323.918033 C457.898964,349.639498 385.18408,408.7845 337.541311,517.533132 C329.433127,536.041092 352.205048,552.623534 367.817615,539.777171 C428.6865,489.656237 528.831197,421.745819 613.765862,432.695404 C623.771706,433.988662 631.362347,442.150558 631.218585,452.23797 C630.356012,509.198803 631.074822,702.727685 678.142543,775.983569 C685.560669,787.536674 702.179571,788.111455 710.259002,776.989436 C740.247782,735.806352 805.257016,626.597894 802.58304,456.060266 C802.410526,444.85203 811.410035,435.741745 822.623481,436.115353 C865.464595,437.494829 966.615627,449.593976 1046.83489,527.907936 C1059.97475,540.754299 1081.74034,529.661019 1079.44014,511.44045 C1073.14336,461.578167 1045.6848,386.166854 946.287663,327.682851 C931.192639,318.802479 933.751605,296.213571 950.744289,292.046407 C985.074685,283.62586 1044.24718,275.60766 1141.7754,278.826435 C1161.58582,279.429956 1169.66526,253.737229 1153.0176,243.075035 Z" id="Shape" fill="#88C057"></path>
            <path d="M1174.46484,287.027033 C1171.79136,285.157638 1168.68667,283.97848 1165.43824,283.575841 C1153.93938,282.166604 1142.41177,280.843647 1130.91291,279.290611 C1126.80207,278.887972 1122.66248,278.571612 1118.58038,278.168973 C1034.81118,276.788496 982.232646,284.09352 950.524539,291.801183 C933.304995,296.000133 930.200303,318.576683 945.493787,327.578543 C1044.87269,386.105013 1072.29747,461.571084 1078.5931,511.440813 C1080.89287,529.674612 1059.13127,540.775948 1045.99383,527.920256 C965.789276,449.578191 864.656799,437.470258 821.823545,436.061021 C810.612156,435.687142 801.585551,444.804042 801.786781,456.020417 C804.431519,626.681876 739.462958,735.969632 709.47968,777.182621 C701.372983,788.312716 684.785877,787.737517 677.369112,776.176023 C630.310027,702.866946 629.591348,509.197538 630.453762,452.195345 C630.597498,442.129368 623.00825,433.932786 613.004242,432.638589 C528.085159,421.652293 427.958833,489.640782 367.101115,539.79811 C351.491412,552.653801 328.723669,536.059318 336.830365,517.537919 C384.406899,408.854122 456.993455,349.694934 496.434546,323.897271 C509.571994,315.29805 507.38721,295.309895 492.754911,289.672948 C482.089718,285.560277 470.447122,282.511724 458.172088,280.354728 C455.987305,279.952089 453.658786,279.923329 451.445255,280.239689 C381.733414,289.730467 313.257701,302.988798 246.794289,320.819958 C243.86208,321.596476 241.1311,323.005713 238.802581,324.961389 C92.1058709,447.076077 0,622.885565 0,818.366849 C0,1187.09799 327.516288,1486 731.499997,1486 C1135.48371,1486 1462.99999,1187.09799 1462.99999,818.366849 C1463.02874,601.603212 1349.82246,408.969162 1174.46484,287.027033 Z" id="Shape" fill="#D13834"></path>
            <path d="M156.166212,996 C146.301901,996 136.697177,990.976699 131.332376,981.934756 C109.7578,945.680871 95.6247222,905.637983 89.3081018,862.925568 C87.0006605,847.224163 97.9033205,832.642236 113.651607,830.34587 C129.688324,827.877276 144.080989,838.899834 146.38843,854.572535 C151.522487,889.39119 163.492338,923.320004 180.971206,952.684789 C189.076093,966.319464 184.576582,983.944076 170.847307,992.010063 C166.232425,994.708294 161.156054,996 156.166212,996 Z" id="Shape" fill="#ED7161"></path>
            <path d="M120.734023,767 C120.074074,767 119.385431,766.971218 118.725482,766.913654 C102.886707,765.819938 90.9789319,752.062139 92.0692823,736.232036 C94.7664651,698.038314 102.571079,660.938309 115.339657,625.881825 C120.762716,610.943964 137.17536,603.345515 152.153332,608.72775 C167.045224,614.167549 174.677678,630.717202 169.254619,645.655063 C158.322421,675.617131 151.636851,707.421248 149.341376,740.203953 C148.279719,755.400852 135.683301,767 120.734023,767 Z" id="Shape" fill="#ED7161"></path>
        </g>
        <g id="cabbage" transform="translate(4982.000000, 2347.000000)" fill-rule="nonzero">
            <path d="M1802.45312,461.397518 C1788.34375,455.330918 1778.77344,442.080496 1777.47266,426.822197 C1766.78516,301.169755 1664.56641,199.865745 1536.125,193.568669 C1515.94922,192.584263 1498.37891,178.833825 1491.35156,158.540209 C1424.19531,-35.4503486 1159.80469,-51.9196235 1064.30469,122.765631 L1062.00781,126.964984 L1066.54688,128.48847 C1158.32031,159.23945 1232.1875,244.49998 1240.19141,353.612833 C1408.89062,404.423046 1546.16016,502.988687 1646.49219,633.543629 L1651.44531,639.989147 L1653.54297,632.137335 C1667.94531,578.190303 1708.13281,486.148307 1815.47656,475.808133 L1829.16406,474.311992 C1812.78516,466.202359 1808.20703,463.870253 1802.45312,461.397518 Z" id="Shape" fill="#3BBC56"></path>
            <g id="Group" fill="#30AA44">
                <path d="M1431.66016,64.8731614 C1326.77344,-34.5089124 1141.03516,-17.586498 1064.30469,122.765631 L1062.00781,126.964984 L1066.54687,128.48847 C1094.75781,137.941896 1121.26562,152.563456 1144.69922,171.427339 C1204.41016,62.7285618 1329.62109,28.3134024 1431.66016,64.8731614 Z" id="Shape"></path>
                <polygon id="Shape" points="250.164062 1193.11225 250.425781 1193.15131 251.523438 1185.21356"></polygon>
                <path d="M230.875,1190.92077 L231.019531,1190.92468 C231.203125,1186.11983 231.175781,1187.83473 231.160156,1182.90879 L230.875,1190.92077 Z" id="Shape"></path>
                <path d="M1001.25391,107.874532 C926.226563,103.811902 852.996094,131.988582 800.304688,185.263717 C783.246094,202.502548 758.628906,207.928502 737.589844,199.096189 C604.824219,143.317068 452.84375,196.420323 381.5,317.783566 C372.714844,332.725448 356.402344,341.546042 339.101563,340.862426 C69.9257813,329.885514 -95.375,634.055365 60,853.683458 C79.2890625,880.942139 83.0078125,916.287016 69.7070313,945.928586 C30.1757813,1034.06811 49.0703125,1144.07162 134.460938,1214.45277 C163.917969,1198.73742 186.558594,1192.74895 214.691406,1190.78795 C175.46875,711.26095 552.199219,320.49459 1011.73828,320.49459 C1097.21875,320.49459 1172.99609,333.37 1248.41016,356.085568 C1237.67578,210.432488 1125.46875,114.648185 1001.25391,107.874532 Z" id="Shape"></path>
            </g>
            <path d="M149.855469,941.319064 C163.15625,911.169665 159.4375,875.215394 140.148438,847.487948 C8.09375,657.614709 107.703125,405.669179 305.828125,341.163217 C56.6484375,355.284761 -88.8632812,643.262689 60,853.683458 C79.2890625,880.942139 83.0078125,916.287016 69.7070312,945.928586 C30.1757812,1034.06811 49.0703125,1144.07162 134.460937,1214.45277 C155.820312,1203.05787 173.597656,1196.79205 192.480469,1193.45601 C126.210938,1122.21545 114.007812,1022.61853 149.855469,941.319064 Z" id="Shape" fill="#239B31"></path>
            <path d="M1652.83594,628.645036 C1578.93359,532.481815 1482.79687,452.893341 1374.83203,398.48145 C1261.59766,341.417131 1139.4375,312.482616 1011.73828,312.482616 C549.625,312.482616 166.929687,705.1631 206.699219,1191.35047 L210.648437,1191.07312 C319.769531,1183.43616 396.285156,1289.58016 397.042969,1290.65442 L398.132812,1292.19353 L400.007812,1292.33806 C491.597656,1299.33047 564.113281,1351.42588 615.542969,1447.17503 C654.101562,1518.95466 665.59375,1589.66395 665.707031,1590.36709 L666.207031,1593.53516 L669.410156,1593.7422 C827.027344,1603.85971 943.472656,1762.96634 1009.51562,1907.3147 C1067.94141,1702.10503 1201.01562,1529.35343 1410.73828,1494.39919 L1414.57422,1493.75855 L1414.05078,1489.90295 C1413.60937,1486.65285 1371.91797,1163.45896 1556.17188,1047.08415 L1558.88672,1045.36925 L1557.80078,1042.34572 C1556.86719,1039.74408 1466.63281,780.903795 1645.55469,664.841502 L1647.13281,663.818032 L1647.35156,661.950785 C1647.36719,661.829687 1648.8125,649.786335 1653.53125,632.125616 L1654.03906,630.219305 L1652.83594,628.645036 Z" id="Shape" fill="#83CC8E"></path>
            <path d="M1084.47266,315.681936 C1060.44531,313.564681 1036.19531,312.482616 1011.73828,312.482616 C549.625,312.482616 166.929688,705.1631 206.699219,1191.35047 L210.648438,1191.07312 C240.378906,1188.99102 267.660156,1195.38966 291.675781,1205.77671 C264.472656,726.671598 631.789062,340.096777 1084.47266,315.681936 Z" id="Shape" fill="#78C181"></path>
            <path d="M934.007812,1759.30217 C863.78125,1662.44361 782.664062,1604.12925 697.882812,1589.10924 C683.179687,1586.50369 671.242188,1575.79241 667.617188,1561.30757 C635.074219,1431.38937 556.824219,1309.29564 423.535156,1287.10743 C410.261719,1284.89642 398.089844,1278.29855 389.152344,1268.23964 C310.710937,1179.96729 205.433594,1151.09919 103.335937,1224.71091 C-66.6875,1347.30075 79.4492187,1501.23535 236.390625,1469.66012 C282.210937,1460.41764 308.449219,1513.60683 344.789062,1587.1873 C384.859375,1668.32661 434.730469,1769.3103 534.90625,1843.25797 C621.789062,1907.39673 730.316406,1939.15165 864.109375,1939.15165 C919.457031,1939.15165 971.644531,1933.92882 1025.65234,1925.7645 C1007.83984,1879.10676 973.203125,1813.35467 934.007812,1759.30217 Z" id="Shape" fill="#3BBC56"></path>
            <path d="M944.253906,1935.15152 C810.460938,1935.15152 701.933594,1903.3966 615.050781,1839.25784 C514.878906,1765.31017 465.007813,1664.32648 424.933594,1583.18718 C388.59375,1509.6028 362.355469,1456.41361 316.535156,1465.65999 C159.59375,1497.23522 13.4570313,1343.29672 183.480469,1220.71078 C207.046875,1203.71805 230.78125,1192.25284 254.316406,1185.65107 C205.664063,1176.86563 154.105469,1188.11209 103.332031,1224.71872 C-66.6914062,1347.30857 79.4453125,1501.24316 236.386719,1469.66793 C282.207031,1460.42545 308.445313,1513.61465 344.785156,1587.19512 C384.855469,1668.33442 434.726562,1769.31811 534.902344,1843.26578 C621.785156,1907.40454 730.3125,1939.15946 864.105469,1939.15946 C893.359375,1939.15946 921.726562,1937.66723 949.949219,1935.08511 C948.046875,1935.09292 946.164062,1935.15152 944.253906,1935.15152 Z" id="Shape" fill="#30AA44"></path>
            <path d="M1412.6875,732.718665 C1404.91797,718.050229 1386.72656,712.464114 1372.05859,720.229986 C1198.19922,812.342297 1113.57812,949.901369 1073.20312,1049.08031 C1062.60156,1075.12802 1054.43359,1099.86318 1048.11328,1122.47718 C1020.43359,1047.16619 985.230469,974.84357 942.761719,906.146068 C949.148438,875.133361 989.535156,705.081066 1125.94922,591.018837 C1138.68359,580.37006 1140.375,561.416331 1129.72656,548.68155 C1119.07422,535.950675 1100.125,534.259215 1087.39062,544.904086 C974.609375,639.207873 921.34375,764.942349 898.226562,839.1244 C774.808594,666.103261 646.804687,581.756823 640.9375,577.948108 C627.023437,568.912663 608.402344,572.865914 599.363281,586.788233 C590.324219,600.710552 594.285156,619.324426 608.203125,628.367683 C609.128906,628.969265 668.289062,667.954882 743.511719,746.402695 C627.335938,733.288996 537.136719,762.977442 532.484375,764.551711 C516.757812,769.86438 508.316406,786.919612 513.628906,802.642769 C517.863281,815.182231 529.5625,823.088733 542.097656,823.088733 C545.289063,823.088733 548.53125,822.576998 551.71875,821.498839 C552.9375,821.088669 673.460938,781.431155 808.554688,820.358177 C832.835938,850.480231 857.523438,884.168805 881.472656,921.505932 C903.460938,955.784369 925.613281,994.508259 946.519531,1037.63854 C743.460938,943.022243 473.574219,1047.83027 460.566406,1052.99059 C445.136719,1059.11579 437.597656,1076.589 443.722656,1092.01527 C449.847656,1107.44545 467.316406,1114.98085 482.746094,1108.85956 C486.046875,1107.55092 813.375,980.253898 988.699219,1136.31356 C1015.93359,1209.37058 1038.21875,1292.04509 1050.98828,1384.24724 C990.230469,1351.77746 875.152344,1303.73686 742.40625,1315.67475 C725.875,1317.15917 713.675781,1331.76901 715.164063,1348.30078 C716.652344,1364.83256 731.261719,1377.04779 747.789063,1375.54384 C904.503906,1361.47699 1038.24609,1445.08121 1058.99609,1458.8004 C1067.61719,1571.18289 1061.91406,1696.25719 1034.75781,1833.92954 C1031.54688,1850.21522 1042.14453,1866.02432 1058.42969,1869.23536 C1074.71094,1872.4464 1090.51953,1861.8484 1093.73438,1845.56273 C1132.46484,1649.21272 1132.91797,1460.44498 1095.09375,1284.50969 C1092.51172,1272.50149 1089.6875,1260.57143 1086.75,1248.68042 C1086.78906,1248.1765 1086.85156,1247.68039 1086.86328,1247.17256 C1086.94141,1244.05527 1098.11719,933.39303 1400.21484,773.341054 C1414.86719,765.579088 1420.45703,747.387102 1412.6875,732.718665 Z" id="Shape" fill="#9BE0A3"></path>
            <path d="M1929.45312,1091.93324 C1923.97266,955.36248 1895.01172,810.385203 1869.63281,731.863169 L1866.64844,731.929578 C1730.64844,734.894516 1714.07422,970.441086 1713.42969,980.535157 C1703.86719,1183.78382 1427.77344,1476.37127 1409.76953,1494.55545 C1190.06641,1532.25196 1045.88281,1722.84397 998.417969,1919.44789 C1028.57812,1935.0773 1102.01562,1959.29291 1195.09766,1959.29291 C1202.64062,1959.29291 1210.37891,1959.13666 1218.26562,1958.80852 C1339.47656,1953.75758 1526.74609,1905.49432 1730.56641,1704.25744 C1891.57812,1545.29534 1938.44922,1316.21773 1929.45312,1091.93324 Z" id="Shape" fill="#3BBC56"></path>
            <g id="Group" transform="translate(996.093750, 464.858566)" fill="#30AA44">
                <path d="M149.699219,1318.01857 C203.34375,1195.33497 291.230469,1087.64795 408.558594,1030.69691 C191.757813,1070.47162 49.4179688,1259.52842 2.32421875,1454.59324 C32.484375,1470.22264 105.921875,1494.43825 199.003906,1494.43825 C206.546875,1494.43825 214.285156,1494.282 222.171875,1493.95386 C231.703125,1493.55541 241.691406,1492.85617 252.015625,1491.86786 C251.328125,1491.79755 250.644531,1491.72723 249.957031,1491.65301 C166.46875,1482.84023 116.0625,1394.95071 149.699219,1318.01857 Z" id="Shape"></path>
                <path d="M1003.47266,109.171448 C998.433594,52.2243207 950.199219,13.8949741 871.140625,4.01184661 C749.683594,-11.1644183 672.285156,62.8066892 646.917969,176.083737 C644.371094,187.451287 638.046875,197.658643 628.800781,204.748713 C563.132813,255.086255 528.964844,333.346562 529.726563,432.427845 C530.152344,487.738201 541.4375,536.548351 548.523438,561.849938 C551.074219,570.967416 547.652344,580.592723 540.066406,586.256966 C470.914063,637.86408 426.519531,727.300524 411.253906,846.370725 C398.921875,942.576916 413.683594,1029.69297 413.683594,1029.69297 C604.535156,959.608709 731.25,861.281357 791.335938,732.156147 C842.371094,622.480777 837.839844,513.19995 834.199219,425.392464 C830.898438,345.827428 828.515625,288.341221 871.835938,274.899386 C951.683594,250.121253 1009.50781,177.325964 1003.47266,109.171448 Z" id="Shape"></path>
            </g>
            <path d="M1490.57422,1311.2332 C1505.83984,1192.163 1550.23828,1102.72655 1619.38672,1051.11944 C1626.97266,1045.4591 1630.39844,1035.82989 1627.84375,1026.71632 C1620.76172,1001.41473 1609.47266,952.600673 1609.04688,897.290317 C1608.28516,798.209034 1642.45312,719.944821 1708.12109,669.611185 C1717.36719,662.525022 1723.69141,652.317665 1726.23828,640.946209 C1746.26172,551.52539 1798.73438,486.644416 1879.67969,470.72594 C1875.61328,470.034512 1871.47266,469.401679 1867.22656,468.874319 C1745.77344,453.698054 1668.37109,527.669161 1643.00391,640.950116 C1640.45703,652.317665 1634.13281,662.525022 1624.88672,669.615092 C1559.21875,719.952633 1525.05078,798.21294 1525.8125,897.294223 C1526.23828,952.60458 1537.52734,1001.41473 1544.60938,1026.72022 C1547.16016,1035.83379 1543.73828,1045.46301 1536.15234,1051.12334 C1467,1102.73046 1422.60547,1192.1669 1407.33984,1311.2371 C1395.00781,1407.44329 1409.76953,1494.55935 1409.76953,1494.55935 C1437.55859,1484.3559 1463.94141,1473.53525 1489.00391,1462.12473 C1485.75781,1428.16661 1482.85156,1371.48902 1490.57422,1311.2332 Z" id="Shape" fill="#239B31"></path>
        </g>
        <g id="cauliflower" transform="translate(2139.000000, 3106.000000)" fill-rule="nonzero">
            <path d="M1561.40351,157.909091 C1543.82456,157.909091 1526.59649,159.067091 1509.54386,160.856727 C1469.33333,95.9736364 1397.7193,52.6363636 1315.78947,52.6363636 C1263.08772,52.6363636 1214.70175,70.6730909 1176.10526,100.710909 C1171.12281,94.6401818 1165.78947,88.8852727 1160.17544,83.376 C1158.52632,81.7618182 1156.73684,80.288 1155.01754,78.7089091 C1151.01754,74.9892727 1146.94737,71.3047273 1142.70175,67.9009091 C1140.42105,66.0761818 1138.03509,64.3918182 1135.68421,62.6723636 C1131.75439,59.7598182 1127.78947,56.8823636 1123.64912,54.2154545 C1121.01754,52.496 1118.2807,50.9169091 1115.57895,49.3027273 C1111.50877,46.9165455 1107.40351,44.6356364 1103.19298,42.46 C1100.2807,40.9861818 1097.36842,39.5825455 1094.42105,38.214 C1090.10526,36.2489091 1085.75439,34.4592727 1081.29825,32.7749091 C1078.2807,31.6169091 1075.26316,30.4589091 1072.17544,29.4412727 C1067.54386,27.8972727 1062.80702,26.5638182 1058.03509,25.3356364 C1055.01754,24.5285455 1052,23.6863636 1048.94737,22.9845455 C1043.64912,21.8265455 1038.24561,20.9843636 1032.84211,20.2123636 C1030.17544,19.8263636 1027.54386,19.3 1024.87719,18.9841818 C1016.70175,18.0718182 1008.42105,17.5454545 1000,17.5454545 C991.578947,17.5454545 983.298246,18.0718182 975.122807,18.9490909 C972.421053,19.2298182 969.824561,19.7912727 967.157895,20.1772727 C961.719298,20.9492727 956.350877,21.7914545 951.052632,22.9494545 C947.964912,23.6161818 944.982456,24.4934545 941.964912,25.3005455 C937.192982,26.5638182 932.45614,27.8621818 927.824561,29.4061818 C924.736842,30.4238182 921.719298,31.5818182 918.701754,32.7398182 C914.280702,34.4241818 909.894737,36.2138182 905.578947,38.1789091 C902.631579,39.5474545 899.684211,40.9510909 896.807018,42.4249091 C892.596491,44.5654545 888.491228,46.8463636 884.421053,49.2676364 C881.684211,50.8818182 878.982456,52.4609091 876.350877,54.1803636 C872.210526,56.8472727 868.245614,59.7247273 864.315789,62.6372727 C861.964912,64.3918182 859.578947,66.0410909 857.298246,67.8658182 C853.017544,71.3047273 848.982456,74.9541818 844.982456,78.6738182 C843.263158,80.2529091 841.473684,81.7267273 839.824561,83.3409091 C834.245614,88.8501818 828.912281,94.6050909 823.894737,100.675818 C785.298246,70.6730909 736.912281,52.6363636 684.210526,52.6363636 C602.280702,52.6363636 530.666667,95.9736364 490.45614,160.856727 C473.403509,159.067091 456.175439,157.909091 438.596491,157.909091 C196.350877,157.909091 0,330.731818 0,543.909091 C0,670.797818 69.8596491,783.018545 177.263158,853.375818 C191.508772,975.492182 295.157895,1070.27273 421.052632,1070.27273 C462.912281,1070.27273 502.245614,1059.74545 536.736842,1041.28764 C580.385965,1080.97545 638.140351,1105.36364 701.754386,1105.36364 C752.666667,1105.36364 799.789474,1089.64291 838.947368,1063.11418 C883.754386,1110.62727 947.087719,1140.45455 1017.54386,1140.45455 C1081.22807,1140.45455 1139.08772,1115.99618 1182.73684,1076.23818 C1217.19298,1094.696 1256.42105,1105.36364 1298.24561,1105.36364 C1361.85965,1105.36364 1419.61404,1080.97545 1463.26316,1041.28764 C1497.75439,1059.74545 1537.08772,1070.27273 1578.94737,1070.27273 C1704.84211,1070.27273 1808.49123,975.492182 1822.73684,853.375818 C1930.14035,783.018545 2000,670.797818 2000,543.909091 C2000,330.731818 1803.64912,157.909091 1561.40351,157.909091 Z" id="Shape" fill="#F9EA80"></path>
            <path d="M1298.24561,1105.36364 L1087.7193,1491.36364 L1087.7193,1130.13782 C1065.47368,1136.80509 1041.96491,1140.45455 1017.54386,1140.45455 C996.842105,1140.45455 976.842105,1137.61218 957.649123,1132.73455 L947.368421,1631.72727 L759.719298,1097.71382 C741.087719,1102.27564 721.824561,1105.36364 701.754386,1105.36364 C648.385965,1105.36364 599.263158,1088.02873 559.052632,1059.11382 L788.701754,1719.45455 C798.315789,1747.07109 804.035088,1775.74036 810.736842,1804.19909 C825.333333,1866.06436 881.192982,1912.45455 947.368421,1912.45455 L1087.7193,1912.45455 C1153.89474,1912.45455 1209.75439,1866.06436 1224.35088,1804.164 C1231.64912,1773.21382 1237.26316,1741.87764 1246.52632,1711.41873 L1446.14035,1055.49945 C1405.01754,1086.73036 1353.85965,1105.36364 1298.24561,1105.36364 Z" id="Shape" fill="#436B1C"></path>
            <path d="M350.561404,692.834909 C318.842105,692.834909 286.631579,685.641273 256.350877,670.446909 C152.666667,618.336909 110.701754,491.518364 162.77193,387.789636 C171.473684,370.489818 192.45614,363.471636 209.894737,372.174182 C227.192982,380.876727 234.175439,401.966364 225.473684,419.266182 C190.736842,488.430364 218.736842,572.964364 287.859649,607.704364 C357.052632,642.479455 441.508772,614.441818 476.280702,545.312727 C484.947368,528.012909 506,520.994727 523.403509,529.732364 C540.701754,538.434909 547.684211,559.524545 538.982456,576.859455 C502.105263,650.339818 427.684211,692.834909 350.561404,692.834909 Z" id="Shape" fill="#D7CC56"></path>
            <path d="M699.438596,957.209818 C657.508772,957.209818 616.596491,944.682364 581.22807,920.504727 C534.77193,888.817636 503.438596,840.918545 493.017544,785.650364 C489.403509,766.596 501.929825,748.243455 520.982456,744.664182 C540.035088,741.155091 558.385965,753.612364 561.964912,772.631636 C568.912281,809.477091 589.789474,841.409818 620.77193,862.534545 C651.719298,883.694364 689.087719,891.449455 725.894737,884.536545 C801.929825,870.184364 852.140351,796.633818 837.789474,720.556727 C834.175439,701.502364 846.701754,683.149818 865.754386,679.570545 C884.807018,676.131636 903.157895,688.518727 906.736842,707.538 C928.245614,821.618545 852.982456,931.979455 738.912281,953.490182 C725.754386,955.981636 712.526316,957.209818 699.438596,957.209818 Z" id="Shape" fill="#D7CC56"></path>
            <path d="M1283.82456,578.964909 C1202.70175,578.964909 1125.22807,531.837818 1090.66667,452.918364 C1082.87719,435.162364 1090.98246,414.458727 1108.73684,406.703636 C1126.59649,398.983636 1147.22807,407.019455 1154.94737,424.775455 C1186.03509,495.659091 1268.91228,528.083091 1339.82456,497.027636 C1374.17544,481.973636 1400.5614,454.462364 1414.24561,419.546909 C1427.89474,384.631455 1427.08772,346.452545 1412.03509,312.133636 C1404.24561,294.377636 1412.35088,273.674 1430.10526,265.918909 C1448,258.128727 1468.59649,266.269818 1476.31579,283.990727 C1498.91228,335.504182 1500.03509,392.737455 1479.57895,445.128182 C1459.12281,497.518909 1419.47368,538.785818 1367.96491,561.349273 C1340.5614,573.280182 1312,578.964909 1283.82456,578.964909 Z" id="Shape" fill="#D7CC56"></path>
            <path d="M1297.96491,972.158545 C1269.85965,972.158545 1241.29825,966.508909 1213.92982,954.542909 C1162.38596,932.014545 1122.73684,890.782727 1102.21053,838.392 C1081.7193,786.001273 1082.80702,728.803091 1105.36842,677.254545 C1113.12281,659.498545 1133.82456,651.357455 1151.54386,659.182727 C1169.29825,666.937818 1177.40351,687.641455 1169.64912,705.397455 C1154.63158,739.751455 1153.89474,777.860182 1167.54386,812.810727 C1181.22807,847.726182 1207.68421,875.202364 1242,890.256364 C1312.98246,921.206545 1395.85965,888.782545 1426.87719,817.863818 C1434.59649,800.107818 1455.33333,791.931636 1473.05263,799.792 C1490.80702,807.547091 1498.91228,828.250727 1491.15789,846.006727 C1456.66667,924.926182 1379.15789,972.158545 1297.96491,972.158545 Z" id="Shape" fill="#D7CC56"></path>
            <path d="M772.210526,588.439455 C707.052632,588.439455 642.77193,558.366545 601.649123,501.764909 C590.245614,486.079273 593.719298,464.147455 609.403509,452.742909 C625.087719,441.373455 647.017544,444.812364 658.385965,460.498 C703.929825,523.100182 791.824561,536.996182 854.45614,491.518364 C884.77193,469.481273 904.701754,436.952 910.561404,399.931091 C916.421053,362.875091 907.508772,325.784 885.473684,295.465455 C874.070175,279.779818 877.508772,257.848 893.22807,246.443455 C908.912281,235.074 930.842105,238.512909 942.210526,254.198545 C975.263158,299.676364 988.666667,355.330545 979.859649,410.879455 C971.087719,466.428364 941.192982,515.239818 895.719298,548.295455 C858.421053,575.385636 815.122807,588.439455 772.210526,588.439455 Z" id="Shape" fill="#D7CC56"></path>
            <path d="M1649.26316,729.189091 C1590.42105,729.189091 1531.89474,704.730727 1490.35088,657.007091 C1477.61404,642.374182 1479.15789,620.231818 1493.78947,607.493818 C1508.24561,594.790909 1530.52632,596.264727 1543.26316,610.897636 C1594.14035,669.288909 1682.94737,675.394727 1741.33333,624.583091 C1769.61404,599.949273 1786.59649,565.805818 1789.15789,528.398909 C1791.75439,490.992 1779.61404,454.813273 1754.98246,426.565091 C1742.24561,411.932182 1743.78947,389.789818 1758.42105,377.051818 C1772.98246,364.313818 1795.15789,365.787636 1807.89474,380.455636 C1844.84211,422.845455 1863.01754,477.131091 1859.15789,533.241455 C1855.29825,589.351818 1829.78947,640.584545 1787.36842,677.535273 C1747.57895,712.205091 1698.2807,729.189091 1649.26316,729.189091 Z" id="Shape" fill="#D7CC56"></path>
        </g>
    </g>
</svg>