<?xml version="1.0" encoding="UTF-8"?>
<svg width="7320px" height="5720px" viewBox="0 0 7320 5720" version="1.1" xmlns="http://www.w3.org/2000/svg" xmlns:xlink="http://www.w3.org/1999/xlink">
    <!-- Generator: Sketch 51.2 (57519) - http://www.bohemiancoding.com/sketch -->
    <title>Artboard 2</title>
    <desc>Created with Sketch.</desc>
    <defs></defs>
    <g id="Artboard-2" stroke="none" stroke-width="1" fill="none" fill-rule="evenodd">
        <g id="pumpkin" transform="translate(4646.000000, 619.000000)" fill-rule="nonzero">
            <path d="M1069.32002,302.786343 C1089.29081,311.453531 1108.7755,321.254745 1127.28798,333 C1149.52726,318.865193 1173.26536,307.72745 1197.61109,298.088241 C1197.81364,168.606925 1249.34071,78.2089587 1282.67938,33.4554854 C1289.32281,24.5452916 1280.65395,13.0430414 1269.91914,15.9996057 C1187.88901,38.3560919 1099.29646,19.3611788 1041.61206,0.609270997 C1030.79624,-2.91430564 1022.735,9.60046654 1029.45945,18.7536656 C1086.4552,96.3938542 1078.35346,232.395812 1069.32002,302.786343 Z" id="Shape" fill="#A46F3E"></path>
            <path d="M1771.12867,269.102827 C1693.60798,269.102827 1619.53174,292.285652 1554.28955,332.774537 C1491.96501,292.285652 1419.55023,269.102827 1342.07005,269.102827 C1264.58988,269.102827 1191.32411,292.285652 1127.54074,332.774537 C1063.71685,292.285652 990.491604,269.102827 913.01143,269.102827 C835.490733,269.102827 763.11647,292.285652 700.791936,332.774537 C635.509216,292.285652 561.432983,269.102827 483.952808,269.102827 C-279.745603,370.791128 -56.8685333,1976.40441 579.344194,2022 C645.35633,2022 706.910925,2005.09923 760.401422,1975.35064 C816.039643,2005.13976 878.809931,2022 944.822067,2022 C1010.8342,2022 1073.03717,2005.09923 1127.58126,1975.35064 C1182.12536,2005.13976 1244.2878,2022 1310.34046,2022 C1376.3526,2022 1439.16341,2005.09923 1494.76111,1975.35064 C1548.21108,2005.13976 1609.8062,2022 1675.81833,2022 C2402.27601,2022 2450.41746,180.424468 1771.12867,269.102827 Z" id="Shape" fill="#EF771D"></path>
            <g id="Group" transform="translate(476.000000, 269.000000)" fill="#F79959">
                <path d="M1286.23318,549.250205 C1287.04376,549.290727 1287.77329,549.33125 1288.58388,549.33125 C1309.90235,549.33125 1327.81635,532.676409 1328.99171,511.118318 C1337.70553,356.686205 1285.34153,207.481523 1185.31494,101.676682 C1164.56388,79.7133636 1142.19165,60.2219318 1118.52247,43.2023864 C1105.02618,49.7670682 1091.61094,56.4938409 1078.76312,64.4768182 C1016.42888,23.9946136 944.002824,0.815613636 866.510588,0.815613636 C788.977824,0.815613636 715.741176,23.9946136 651.947882,64.4768182 C641.369706,57.7500455 630.183588,52.2794773 619.119059,46.5657727 C597.071059,62.8153864 576.076824,81.1316591 556.622706,101.757727 C456.596118,207.562568 404.232118,356.807773 412.986471,511.199364 L421.902941,669.278523 C423.078294,690.836614 440.992294,707.491455 462.310765,707.491455 C463.080824,707.491455 463.850882,707.450932 464.661471,707.410409 C486.993176,706.194727 504.096588,687.027477 502.799647,664.658932 L493.883176,506.579773 C486.425765,374.354114 530.764941,247.11275 615.511941,157.435955 C684.817235,84.0898182 775.400471,43.3239545 871.009353,41.6625227 C966.618235,43.3239545 1057.16094,84.1303409 1126.46624,157.395432 C1211.21324,247.072227 1255.59294,374.354114 1248.13553,506.579773 C1246.79806,528.907795 1263.90147,548.034523 1286.23318,549.250205 Z" id="Shape"></path>
                <path d="M437.344647,0.775090909 C359.811882,0.775090909 287.426353,23.9540909 225.092118,64.4362955 C212.244294,56.4533182 198.748,49.7265455 185.251706,43.1213409 C134.549412,79.3891818 89.8049412,126.152409 54.7064706,182.762659 C42.9124118,201.767818 48.7891765,226.729818 67.7974706,238.521932 C74.4442941,242.695773 81.8206471,244.600341 89.0754118,244.600341 C102.652765,244.600341 115.905882,237.792523 123.565941,225.392568 C196.154118,108.322409 310.487588,41.2167727 437.344647,41.2167727 C458.703647,41.2167727 475.685471,24.6024545 477.266118,3.69272727 C464.053529,2.35547727 450.881471,0.775090909 437.344647,0.775090909 Z" id="Shape"></path>
                <path d="M1304.91724,937.538977 C1306.17365,915.170432 1289.07024,896.043705 1266.77906,894.7875 C1245.01476,893.855477 1225.27694,910.591364 1224.02053,932.919386 L1200.47294,1350.62766 C1189.44894,1545.90668 1031.58688,1705.161 845.759529,1712.17143 C699.691529,1705.32309 575.023059,1606.81234 525.415059,1456.87825 C518.403471,1435.64434 495.382765,1423.89275 474.226412,1431.1058 C452.989,1438.11623 441.397588,1461.01157 448.449706,1482.286 C481.967529,1583.63334 544.139647,1665.5703 623.536765,1720.03284 C633.101706,1715.77795 642.747706,1711.72568 651.866824,1706.74139 C706.419412,1736.52559 768.591529,1753.38305 834.654471,1753.38305 C900.676882,1753.38305 963.497471,1736.48507 1019.10382,1706.74139 C1032.68118,1714.31914 1046.78541,1721.00539 1061.33547,1726.84066 C1185.11229,1649.23964 1272.45318,1511.74602 1281.28859,1355.24725 L1304.91724,937.538977 Z" id="Shape"></path>
                <path d="M509.162765,1750.83011 C507.784765,1729.67725 490.640824,1712.8198 469.160235,1712.8198 C277.901941,1712.8198 113.149882,1550.32366 101.842176,1350.62766 L81.2937647,986.044682 C80.0778824,963.716659 61.1506471,946.453977 38.5352353,947.912795 C16.2035294,949.128477 -0.899882353,968.295727 0.397058824,990.664273 L20.9454706,1355.24725 C29.7808824,1512.02968 117.648647,1649.48277 241.790235,1727.04327 C256.583471,1721.16748 270.971412,1714.40018 284.751412,1706.74139 C340.398294,1736.52559 403.178353,1753.38305 469.200765,1753.38305 C482.697059,1753.38305 495.950176,1752.20789 509.162765,1750.83011 Z" id="Shape"></path>
            </g>
        </g>
        <g id="corn" transform="translate(2435.000000, 322.000000)" fill-rule="nonzero">
            <g id="Group" transform="translate(999.025341, 975.525449) scale(-1, 1) rotate(-180.000000) translate(-999.025341, -975.525449) translate(0.000000, 0.974551)">
                <g transform="translate(550.682261, 501.893713)" fill="#5C913B" id="Shape">
                    <path d="M431.661793,1364.34202 C383.050682,1510.16407 285.823587,1412.94775 285.823587,1412.94775 C188.659844,1315.73629 -103.011696,927.00256 42.8265107,586.762478 C188.601365,246.575996 388.070175,455.958256 480.214425,732.521183 C528.825536,878.333488 528.825536,1072.76126 431.661793,1364.34202 Z"></path>
                    <path d="M1365.08285,431.000007 C1073.46979,528.21146 879.083821,528.152987 733.250487,479.54726 C456.535088,387.359618 247.197856,188.02985 587.412281,42.2077994 C927.631579,-103.614251 1316.52534,188.02985 1413.68908,285.177957 C1413.69396,285.177957 1510.8577,382.389409 1365.08285,431.000007 Z"></path>
                </g>
                <g transform="translate(238.791423, 190.037425)" id="Shape">
                    <path d="M1587.56335,1415.4426 C1587.56335,1415.4426 1579.09357,1516.33298 1541.92982,1547.06544 C1516.45224,1578.96249 1424.02047,1578.96249 1424.02047,1578.96249 C1326.79825,1578.96249 208.849903,1433.20379 14.4639376,461.196467 C-20.3021442,287.512006 19.4883041,188.604835 62.7241715,128.372717 C61.8469786,125.044626 61.67154,122.354865 63.0750487,121.068458 C70.0877193,113.998091 78.4405458,105.64619 88.0847953,96.9385778 C96.5545809,87.6511078 104.678363,79.4112799 111.632554,72.404259 C112.919103,71.2347979 115.545809,71.5271632 118.289474,72.1118937 C180.867446,25.6696707 284.805068,-20.2511677 460.730994,14.9739746 C1432.90936,209.284805 1587.50487,1318.28962 1587.56335,1415.4426" fill="#F4900C"></path>
                    <g transform="translate(360.623782, 584.730539)" fill="#F7B82D">
                        <path d="M786.052632,684.704843 L691.578947,779.168061 C665.462963,805.281153 623.104288,805.281153 597.04191,779.168061 C570.925926,753.05497 570.925926,710.754588 597.04191,684.704843 L691.578947,590.178278 C717.577973,564.118787 760,564.118787 786.052632,590.178278 C812.110136,616.296243 812.110136,658.586879 786.052632,684.704843 Z"></path>
                        <path d="M219.054581,590.183151 C245.116959,564.12366 287.475634,564.12366 313.528265,590.183151 C339.64425,616.296243 339.64425,658.596624 313.528265,684.709716 L268.38694,729.84604 C230.209552,706.578638 192.339181,681.35726 155.199805,654.025981 L219.054581,590.183151 Z"></path>
                        <path d="M360.808967,731.955943 C386.924951,705.842852 429.166667,705.842852 455.282651,731.955943 C481.345029,758.015434 481.345029,800.30607 455.282651,826.419162 L453.776803,827.924843 C412.188109,808.935719 370.121832,787.870801 328.143275,764.58878 L360.808967,731.955943 Z"></path>
                        <path d="M77.2319688,448.439596 C103.406433,422.380105 145.706628,422.380105 171.822612,448.439596 C197.88499,474.552687 197.88499,516.853069 171.822612,542.96616 L101.832359,612.865823 C67.5877193,585.154469 34.1910331,555.489139 1.9785575,523.777253 L77.2319688,448.439596 Z"></path>
                        <path d="M738.825536,920.892126 C712.651072,894.832635 712.651072,852.541999 738.825536,826.428907 L833.29922,731.965689 C859.415205,705.852597 901.720273,705.852597 927.772904,731.965689 C953.835283,758.02518 953.835283,800.315816 927.772904,826.428907 L833.29922,920.892126 C807.188109,947.005217 764.94152,947.005217 738.825536,920.892126 Z"></path>
                        <path d="M879.181287,967.412313 C879.595517,966.973765 879.961014,966.510853 880.389864,966.082051 L974.863548,871.618832 C1000.97953,845.505741 1043.2846,845.505741 1069.33723,871.618832 C1095.39961,897.678323 1095.39961,939.96896 1069.33723,966.082051 L1042.27583,993.140457 C1010.47271,990.52866 953.143275,982.985636 879.181287,967.412313 Z"></path>
                        <path d="M644.322612,448.439596 C670.38499,474.552687 670.38499,516.853069 644.322612,542.96616 L549.785575,637.429379 C523.723197,663.54247 481.364522,663.54247 455.311891,637.429379 C429.137427,611.369888 429.137427,569.015906 455.311891,542.96616 L549.785575,448.439596 C575.84308,422.384978 618.206628,422.384978 644.322612,448.439596 Z"></path>
                        <path d="M502.47076,306.725277 C528.586745,332.838368 528.586745,375.13875 502.47076,401.251841 L407.997076,495.71506 C381.934698,521.828151 339.639376,521.828151 313.523392,495.71506 C287.461014,469.601969 287.461014,427.301587 313.523392,401.251841 L407.997076,306.725277 C434.11306,280.665786 476.471735,280.665786 502.47076,306.725277 Z"></path>
                        <path d="M219.039961,23.2576572 C245.155945,49.3707485 245.102339,91.6077844 219.039961,117.784222 L124.502924,212.24744 C98.4405458,238.306931 56.1452242,238.360531 30.0292398,212.24744 C3.91325536,186.134349 3.91325536,143.833967 30.0292398,117.784222 L124.502924,23.2576572 C150.623782,-2.79696108 192.923977,-2.79696108 219.039961,23.2576572 Z"></path>
                        <path d="M171.842105,353.966632 C145.667641,327.907141 145.667641,285.553159 171.842105,259.440067 L266.262183,164.976849 C292.378168,138.917358 334.683236,138.917358 360.79922,164.976849 C386.915205,191.08994 386.915205,233.390322 360.79922,259.440067 L266.262183,353.966632 C240.204678,380.079723 197.904483,380.079723 171.842105,353.966632 Z"></path>
                    </g>
                </g>
                <path d="M1566.45224,597.321737 C1150.15595,736.010075 684.376218,559.289888 431.910331,388.40726 C602.811891,640.84518 779.551657,1106.63178 640.847953,1522.82349 C586.335283,1686.40186 313.596491,1850.0387 149.946394,1686.46033 C95.3752437,1631.89522 40.8625731,1577.33012 149.946394,1577.33012 C259.030214,1577.33012 422.626706,1413.75175 368.172515,1250.17338 C319.327485,1103.82995 -34.3323587,739.459985 125.467836,351.954184 C109.751462,345.234656 94.9074074,335.65482 82.0565302,322.805367 L40.2826511,281.094588 C-13.411306,227.406579 -13.411306,140.359693 40.2241715,86.6132111 L82.0614035,44.7806138 C135.81384,-8.96586826 222.811891,-8.96586826 276.505848,44.7806138 L318.34308,86.6132111 C325.531189,93.800524 331.549708,101.684641 336.807992,109.865996 C745.740741,-114.470749 1140.00487,273.385891 1293.78655,324.676504 C1457.38304,379.183136 1620.97953,215.546295 1620.97953,106.533031 C1620.97953,-2.59717814 1675.4922,51.9679266 1730.06335,106.533031 C1893.7037,270.048054 1729.99513,542.873578 1566.45224,597.321737 Z" id="Shape" fill="#77B255"></path>
            </g>
        </g>
        <g id="potato" transform="translate(259.000000, 291.000000)" fill-rule="nonzero">
            <path d="M286.103175,1937.6855 C286.103175,1937.6855 -41.4642857,1875.49504 12.4404762,1406.97741 C12.4404762,1406.97741 8.29365079,1303.32531 373.178571,888.708992 C373.178571,888.708992 721.47619,275.077632 970.261905,138.253056 C970.261905,138.253056 1219.04762,-40.033152 1480.26984,9.7216 C1857.59524,80.205184 1965.40079,494.821504 1965.40079,494.821504 C1965.40079,494.821504 2118.81746,921.873536 1749.78571,1377.95149 C1384.90079,1834.02944 932.940476,1937.68154 932.940476,1937.68154 C932.940476,1937.68154 588.793651,2033.04448 286.103175,1937.6855 Z" id="Shape" fill="#FFD15C"></path>
            <g id="Group" transform="translate(246.031746, 361.088000)" fill="#F8B64C">
                <path d="M715.936508,117.151232 C674.472222,117.151232 633.007937,88.12928 620.56746,46.667648 C616.420635,34.227968 624.714286,25.938816 633.007937,21.792256 C645.448413,17.645696 653.738095,25.938816 657.884921,34.231936 C666.178571,59.107328 686.90873,75.693568 711.789683,75.693568 C736.666667,75.693568 757.400794,59.107328 765.694444,34.231936 C769.84127,21.792256 782.281746,17.645696 790.571429,21.792256 C803.011905,25.938816 807.15873,38.378496 803.011905,46.667648 C794.718254,88.125312 757.400794,117.151232 715.936508,117.151232 Z" id="Shape"></path>
                <path d="M1416.68254,100.564992 C1375.21825,100.564992 1333.75397,71.54304 1321.31349,30.081408 C1317.16667,17.641728 1325.46032,9.352576 1333.75397,5.206016 C1346.19444,1.059456 1354.48413,9.352576 1358.63095,17.645696 C1366.9246,42.521088 1387.65476,59.107328 1412.53571,59.107328 C1437.41667,59.107328 1458.14683,42.521088 1466.44048,17.645696 C1470.5873,5.206016 1483.02778,1.059456 1491.31746,5.206016 C1503.75794,9.352576 1507.90476,21.792256 1503.75794,30.081408 C1495.46429,71.54304 1458.14683,100.564992 1416.68254,100.564992 Z" id="Shape"></path>
                <path d="M1283.99603,668.58816 C1242.53175,668.58816 1201.06746,639.566208 1188.62698,598.104576 C1184.48016,585.664896 1192.77381,577.375744 1201.06746,573.229184 C1213.50794,569.082624 1221.80159,577.375744 1225.94444,585.668864 C1234.2381,610.544256 1254.96825,627.130496 1279.84921,627.130496 C1304.73016,627.130496 1325.46032,610.544256 1333.75397,585.668864 C1337.90079,573.229184 1350.34127,569.082624 1358.63095,573.229184 C1371.07143,577.375744 1375.21825,589.815424 1371.07143,598.104576 C1366.9246,639.566208 1325.46032,668.58816 1283.99603,668.58816 Z" id="Shape"></path>
                <path d="M985.456349,486.155392 C943.992063,486.155392 902.527778,457.13344 890.087302,415.671808 C885.940476,403.232128 894.234127,394.942976 902.527778,390.796416 C914.968254,386.649856 923.257937,394.942976 927.404762,403.236096 C935.698413,428.111488 956.428571,444.697728 981.309524,444.697728 C1006.18651,444.697728 1026.92063,428.111488 1035.21429,403.236096 C1039.36111,390.796416 1051.80159,386.649856 1060.09127,390.796416 C1072.53175,394.942976 1076.67857,407.382656 1072.53175,415.671808 C1068.38492,457.13344 1031.06746,486.155392 985.456349,486.155392 Z" id="Shape"></path>
                <path d="M985.456349,1128.81267 C943.992063,1128.81267 902.527778,1099.79072 890.087302,1058.32909 C885.940476,1045.88941 894.234127,1037.60026 902.527778,1033.4537 C914.968254,1029.30714 923.257937,1037.60026 927.404762,1045.89338 C935.698413,1070.76877 956.428571,1087.35501 981.309524,1087.35501 C1006.18651,1087.35501 1026.92063,1070.76877 1035.21429,1045.89338 C1039.36111,1033.4537 1051.80159,1029.30714 1060.09127,1033.4537 C1072.53175,1037.60026 1076.67857,1050.03994 1072.53175,1058.32909 C1068.38492,1099.78675 1031.06746,1128.81267 985.456349,1128.81267 Z" id="Shape"></path>
                <path d="M425.686508,817.848448 C384.222222,817.848448 342.757937,788.826496 330.31746,747.364864 C326.170635,734.925184 334.464286,726.636032 342.757937,722.489472 C355.198413,718.342912 363.492063,726.636032 367.634921,734.929152 C375.928571,759.804544 396.65873,776.390784 421.539683,776.390784 C446.416667,776.390784 467.150794,759.804544 475.444444,734.929152 C479.59127,722.489472 492.031746,718.342912 500.321429,722.489472 C512.761905,726.636032 516.90873,739.075712 512.761905,747.364864 C504.472222,788.826496 467.150794,817.848448 425.686508,817.848448 Z" id="Shape"></path>
                <path d="M98.1230159,1307.09491 C56.6587302,1307.09491 15.1944444,1278.07296 2.75396825,1236.61133 C-1.39285714,1224.17165 6.90079365,1215.8825 15.1944444,1211.73594 C27.6349206,1207.58938 35.9246032,1215.8825 40.0714286,1224.17562 C48.3650794,1249.05101 69.0952381,1265.63725 93.9761905,1265.63725 C118.857143,1265.63725 139.587302,1249.05101 147.880952,1224.17562 C152.027778,1211.73594 164.468254,1207.58938 172.757937,1211.73594 C185.198413,1215.8825 189.345238,1228.32218 185.198413,1236.61133 C176.904762,1278.07296 139.587302,1307.09491 98.1230159,1307.09491 Z" id="Shape"></path>
            </g>
            <path d="M1961.25794,490.674944 C1961.25794,490.674944 1957.11111,478.235264 1948.81746,453.359872 C1961.25794,619.2064 1928.0873,888.705024 1704.17857,1166.49677 C1339.29365,1622.57472 887.333333,1726.22682 887.333333,1726.22682 C887.333333,1726.22682 543.178571,1821.58976 240.492063,1726.22682 C240.492063,1726.22682 78.781746,1697.20486 2.84217094e-14,1514.7721 C8.29365079,1879.63366 281.956349,1933.53498 281.956349,1933.53498 C584.646825,2028.89792 928.797619,1933.53498 928.797619,1933.53498 C928.797619,1933.53498 1380.75794,1829.88288 1745.64286,1373.80493 C2114.6746,917.730944 1961.25794,490.674944 1961.25794,490.674944 Z" id="Shape" fill="#FCC956"></path>
        </g>
        <g id="sweet-potato" transform="translate(1072.000000, 2642.000000)" fill-rule="nonzero">
            <path d="M1923.2368,2513.7062 C1912.64784,2540.92985 1900.88832,2565.38636 1888.02298,2586.78985 C1886.58271,2589.22795 1885.0831,2591.61211 1883.52955,2593.99627 C1847.15596,2651.32936 1797.08091,2695.13424 1740.07422,2723.63626 C1636.10497,2775.59151 1509.11836,2776.53547 1400.54241,2715.65311 L892.43953,2404.41786 C892.385587,2404.41786 892.32625,2404.36392 892.32625,2404.36392 L701.352757,2287.36751 C700.910426,2287.09242 700.468096,2286.87126 700.020371,2286.59077 C699.966428,2286.59077 699.966428,2286.53683 699.966428,2286.53683 C528.342197,2190.05391 365.149216,2038.78926 240.492931,1862.0756 C214.875523,1825.75763 190.865608,1788.44177 168.792237,1750.23589 C69.2570878,1578.5117 7.76236073,1390.20629 7.76236073,1208.38988 L5.21086898,915.785597 L4.32620799,811.265572 L0,283.061057 L211.935643,279.344574 L243.098366,278.788989 L1659.10616,254.057384 C1660.88088,257.995022 1663.26515,262.542185 1664.98592,266.533764 C1791.02853,552.093453 1884.62998,904.253171 1940.35823,1250.69522 C1945.18071,1280.63746 1949.72808,1310.52575 1954.00035,1340.35471 C2022.1624,1818.48649 2016.72497,2273.77457 1923.2368,2513.7062 Z" id="Shape" fill="#8034AD"></path>
            <path d="M1923.24365,2513.96952 C1912.65576,2541.19634 1900.89743,2565.6557 1888.03339,2587.06168 C1886.59327,2589.50007 1885.09381,2591.8845 1883.54042,2594.26894 C1794.99158,2618.33449 1697.35432,2608.91003 1611.30279,2560.66564 L1103.25137,2249.39412 C1103.19743,2249.39412 1103.1381,2249.34018 1103.1381,2249.34018 L912.18395,2132.33014 C911.741664,2132.05501 911.299379,2131.82844 910.851699,2131.55331 C910.797762,2131.55331 910.797762,2131.49936 910.797762,2131.49936 C739.190914,2035.00519 576.014462,1883.72292 451.370803,1706.98867 C425.755989,1670.66647 401.748506,1633.34625 379.677371,1595.13592 C280.152303,1423.39173 218.663804,1235.06437 218.663804,1053.22677 L216.112571,760.588391 L215.227999,656.056187 L212.121212,279.34752 L243.280778,278.791871 L1659.14515,254.057384 C1660.91969,257.995481 1663.30372,262.543174 1665.02432,266.535218 C1791.05416,552.128184 1884.64613,904.328939 1940.36873,1250.81136 C1945.19073,1280.75708 1949.73764,1310.64886 1954.00947,1340.48129 C2022.15922,1818.66879 2016.72235,2274.00993 1923.24365,2513.96952 Z" id="Shape" fill="#A258CD"></path>
            <g id="Group" transform="translate(3.496503, 631.647257)" fill="#5A2479">
                <path d="M170.618617,333.952828 C163.24218,348.312562 148.651187,356.522748 133.563755,356.522748 C127.185592,356.522748 120.64015,355.023121 114.537187,351.921376 C69.49613,328.741895 31.5563111,304.89891 1.98580793,284.438177 L1.10085127,179.912042 C25.4533478,199.709272 78.9230769,239.967234 152.644284,277.954179 C173.117001,288.483932 181.103195,313.546038 170.618617,333.952828 Z" id="Shape"></path>
                <path d="M275.815143,417.209078 C348.996742,439.018396 422.728741,450.39506 494.966027,451.031592 C495.090136,451.031592 495.20885,451.031592 495.338356,451.031592 C518.142178,451.031592 536.731664,432.64768 536.931319,409.802648 C537.13637,386.833547 518.670994,368.050453 495.694497,367.850863 C431.265335,367.284457 365.287499,357.078365 299.584863,337.491515 C277.574264,330.937391 254.398112,343.457655 247.831086,365.466564 C241.269456,387.480868 253.799147,410.644165 275.815143,417.209078 Z" id="Shape"></path>
                <path d="M1127.71004,907.560017 C1137.22872,907.694876 1146.68265,907.765002 1156.05024,907.765002 C1274.46176,907.765002 1390.12128,896.954744 1499.82892,875.647099 C1522.37913,871.266895 1537.11582,849.435999 1532.7342,826.893051 C1528.35259,804.350102 1506.57942,789.618158 1483.95906,793.998363 C1379.46942,814.291871 1269.14662,824.584273 1156.05563,824.584273 C1147.07656,824.584273 1138.02194,824.524935 1128.89718,824.390077 C1106.0286,823.920769 1087.03441,842.417962 1086.71065,865.38167 C1086.37609,888.350771 1104.73894,907.236357 1127.71004,907.560017 Z" id="Shape"></path>
                <path d="M1951.43202,709.032107 C1889.58218,746.128986 1794.17414,794.42991 1665.53706,834.186199 C1661.43064,835.459263 1657.32962,836.074218 1653.22321,836.074218 C1635.47012,836.074218 1619.05525,824.595062 1613.50808,806.739795 C1606.68744,784.838773 1619.00129,761.546011 1640.96332,754.727564 C1785.68611,709.976116 1884.97393,653.972074 1937.78534,619.36738 C1942.61483,649.311364 1947.15833,679.19601 1951.43202,709.032107 Z" id="Shape"></path>
                <path d="M1003.11462,1745.81894 C1000.56227,1766.94857 982.593337,1782.41954 961.899381,1782.41954 C960.178032,1782.41954 958.51604,1782.30626 956.794691,1782.08509 C933.882948,1779.3124 911.365117,1776.31854 889.511005,1773.15746 C889.457044,1773.15746 889.397687,1773.10352 889.397687,1773.10352 L698.360365,1656.10027 C697.917887,1655.82516 697.475409,1655.60399 697.027534,1655.32349 C767.640601,1669.62928 863.43716,1686.87499 966.831395,1699.51932 C989.694574,1702.29201 1005.8882,1723.02786 1003.11462,1745.81894 Z" id="Shape"></path>
                <path d="M1507.16219,1677.49423 C1440.05118,1703.85097 1346.60191,1717.21276 1229.39912,1717.21276 C1198.02093,1717.21276 1164.56525,1716.23638 1129.98179,1714.3106 C1107.16718,1713.08609 1087.40674,1730.59072 1086.13327,1753.52206 C1084.85979,1776.4534 1102.41863,1796.08341 1125.35735,1797.35647 C1161.47869,1799.36856 1196.48305,1800.38809 1229.40451,1800.38809 C1357.06491,1800.38809 1460.75593,1785.08435 1537.59067,1754.90841 C1558.97532,1746.50942 1569.50307,1722.36975 1561.10138,1700.99197 C1552.68889,1679.6196 1528.55764,1669.08985 1507.16219,1677.49423 Z" id="Shape"></path>
                <path d="M1203.18497,183.947009 C1206.49816,183.947009 1285.33485,183.731235 1382.17285,165.180098 C1404.73925,160.859232 1419.5245,139.066096 1415.20764,116.512359 C1410.87999,93.9586217 1389.09602,79.1349742 1366.51883,83.4936012 C1277.83431,100.480379 1203.90265,100.771674 1203.16339,100.771674 C1180.19768,100.782462 1161.58661,119.398331 1161.58661,142.362038 C1161.58122,165.325746 1180.20848,183.947009 1203.18497,183.947009 Z" id="Shape"></path>
                <path d="M1533.35475,117.602016 C1539.10157,117.602016 1544.94013,116.404472 1550.51967,113.874527 C1574.829,102.848495 1597.30366,90.4954551 1617.31771,77.1552512 C1636.43062,64.4138191 1641.59466,38.5857171 1628.84913,19.4843576 C1616.10899,0.37760383 1590.28876,-4.78477996 1571.15427,7.95665214 C1554.87431,18.8100651 1536.37116,28.9622138 1516.14666,38.1271982 C1495.23146,47.615843 1485.961,72.2625844 1495.4527,93.187231 C1502.40285,108.528735 1517.52266,117.602016 1533.35475,117.602016 Z" id="Shape"></path>
                <path d="M600.874834,1303.127 C622.7937,1303.127 641.140362,1285.99997 642.370668,1263.85081 C643.644142,1240.91407 626.090703,1221.28946 603.146583,1220.011 C553.702327,1217.2545 498.424912,1209.65387 438.85222,1197.41411 C416.318201,1192.79656 394.350771,1207.28036 389.726333,1229.78015 C385.101894,1252.27995 399.601154,1274.26189 422.102796,1278.89023 C485.657793,1291.94453 545.014643,1300.0738 598.522145,1303.05688 C599.309972,1303.10542 600.092403,1303.127 600.874834,1303.127 Z" id="Shape"></path>
                <path d="M308.963245,1208.99037 C303.529395,1227.01286 286.995814,1238.5999 269.134799,1238.5999 C265.141702,1238.5999 261.148605,1238.04428 257.155507,1236.82516 C250.388827,1234.77531 243.789424,1232.77941 237.351904,1230.7835 C211.725933,1194.46341 187.707994,1157.14536 165.627246,1118.93725 C193.805561,1129.13795 233.968564,1143.06074 281.06013,1157.1993 C303.081521,1163.79658 315.562647,1186.97606 308.963245,1208.99037 Z" id="Shape"></path>
            </g>
            <path d="M1663.17016,282.582749 C1663.17016,419.857713 1375.42021,534.187925 993.754555,559.790517 C941.303506,563.391808 887.083415,565.219409 831.585082,565.219409 C372.297273,565.219409 0,438.694407 0,282.582749 C3.0658066e-13,126.525003 372.297273,0 831.585082,0 C887.083415,0 941.3089,1.82760134 993.754555,5.42889248 C1375.4256,31.0368759 1663.17016,145.367087 1663.17016,282.582749 Z" id="Shape" fill="#FFA733"></path>
            <path d="M1664.33566,282.580018 C1664.33566,420.01667 1376.44388,534.481543 994.590123,560.11429 C978.89292,561.166804 963.082399,562.111367 947.109995,562.888608 C541.788672,543.910983 229.60373,425.673254 229.60373,282.580018 C229.60373,243.183635 253.287135,205.676378 296.056483,171.612728 C408.548609,81.9493872 653.228563,16.0890401 946.888756,2.33080169 C962.920516,3.1080423 978.838959,3.993233 994.595519,5.10511888 C1266.95198,23.4134534 1491.49375,86.8881036 1597.88291,171.612728 C1640.65226,205.681775 1664.33566,243.189032 1664.33566,282.580018 Z" id="Shape" fill="#FFB655"></path>
        </g>
        <g id="15-peas" transform="translate(3435.000000, 2909.000000)" fill-rule="nonzero">
            <path d="M2066.56687,216.158584 C2099.20511,213.671032 2126.32899,240.790561 2123.84144,273.433149 C2117.15723,361.145427 2082.70116,533.951967 1925.32874,691.32873 C1767.95197,848.705493 1595.14541,883.157209 1507.43313,889.841416 C1474.79489,892.328968 1447.67101,865.209439 1450.15856,832.566851 C1456.84277,744.854573 1491.29884,572.048033 1648.67126,414.675619 C1806.05238,257.298856 1978.85893,222.842791 2066.56687,216.158584 Z" id="Shape" fill="#8ADBA1"></path>
            <path d="M1450.15863,833.538881 C1447.67035,866.193028 1474.79786,893.330126 1507.45006,890.841362 C1558.65998,886.938528 1638.88539,873.515737 1728.09819,831.750626 C1772.34353,752.432157 1813,640.559614 1813,497.046703 C1813,425.873279 1802.97291,362.509875 1787.49944,307 C1741.58364,334.328541 1694.51071,369.658544 1648.73412,415.439616 C1491.31102,572.893085 1456.84481,745.788202 1450.15863,833.538881 Z" id="Shape" fill="#000000" opacity="0.1"></path>
            <path d="M1624.62593,749 C1616.27776,749 1607.92525,745.815585 1601.55645,739.446756 C1588.81452,726.700397 1588.81452,706.045205 1601.55645,693.303197 L1927.30459,367.553244 C1940.04653,354.815585 1960.70596,354.815585 1973.44355,367.553244 C1986.18548,380.299603 1986.18548,400.954795 1973.44355,413.696803 L1647.69541,739.446756 C1641.32661,745.815585 1632.9741,749 1624.62593,749 Z" id="Shape" fill="#000000" opacity="0.1"></path>
            <path d="M1491.02662,18.6275928 C1512.33572,-6.2091976 1550.66428,-6.2091976 1571.97338,18.6275928 C1629.22936,85.3751079 1727,231.934351 1727,454.5 C1727,677.065649 1629.22936,823.624892 1571.97338,890.372407 C1550.66428,915.209198 1512.33572,915.209198 1491.02662,890.372407 C1433.77064,823.624892 1336,677.065649 1336,454.5 C1336,231.934351 1433.77064,85.3751079 1491.02662,18.6275928 Z" id="Shape" fill="#8ADBA1"></path>
            <path d="M1531.5,718 C1513.55133,718 1499,703.394327 1499,685.368917 L1499,224.631083 C1499,206.610023 1513.55133,192 1531.5,192 C1549.44867,192 1564,206.610023 1564,224.631083 L1564,685.364567 C1564,703.394327 1549.44867,718 1531.5,718 Z" id="Shape" fill="#7ACF90"></path>
            <path d="M1315.06656,1252.16178 L707.162557,1860.06942 C552.540119,2014.69167 331.501127,2086.25091 106.032914,2054.67644 C57.7074202,2047.91079 21.5165981,2003.4707 25.2670776,1955.49334 C38.7940391,1782.44938 111.306211,1623.01503 230.847307,1503.47407 L958.475142,775.847093 C1078.01624,656.306137 1237.45078,583.794051 1410.49494,570.267106 C1458.46801,566.516631 1502.90815,602.703059 1509.67816,651.032847 C1541.24832,876.505145 1469.689,1097.53953 1315.06656,1252.16178 Z" id="Shape" fill="#67C787"></path>
            <path d="M1315.06656,1252.16178 L707.162557,1860.06942 C552.540119,2014.69167 331.501127,2086.25091 106.032914,2054.67644 C57.7074202,2047.91079 21.5165981,2003.4707 25.2670776,1955.49334 C38.7940391,1782.44938 111.306211,1623.01503 230.847307,1503.47407 L958.475142,775.847093 C1078.01624,656.306137 1237.45078,583.794051 1410.49494,570.267106 C1458.46801,566.516631 1502.90815,602.703059 1509.67816,651.032847 C1541.24832,876.505145 1469.689,1097.53953 1315.06656,1252.16178 Z" id="Shape" fill="#000000" opacity="0.1"></path>
            <path d="M230.890341,1503.31518 C111.32427,1622.89046 38.7969498,1782.37058 25.2671622,1955.46422 C21.5158991,2003.45101 57.7099305,2047.90385 106.045521,2054.6758 C331.560839,2086.25499 552.64601,2014.67955 707.300752,1860.00855 L1200,1367.27138 C777.27791,1621.06255 524.598574,1406.24486 478.182133,1256 L230.890341,1503.31518 Z" id="Shape" fill="#000000" opacity="0.05"></path>
            <circle id="Oval" fill="#8ADBA1" cx="664" cy="1209" r="241"></circle>
            <path d="M888,1298.7047 C582.034946,1421.43902 494.435969,1095.04398 602.186456,976 C499.034066,1003.34682 423,1097.2634 423,1208.96151 C423,1342.08362 530.976908,1450 664.173683,1450 C765.619204,1450 852.377809,1387.36429 888,1298.7047 Z" id="Shape" fill="#7ACF90"></path>
            <circle id="Oval" fill="#8ADBA1" cx="241" cy="1671" r="241"></circle>
            <path d="M465,1760.70035 C159.034946,1883.43467 71.435969,1557.03963 179.186456,1438 C76.0340662,1465.34682 0,1559.2634 0,1670.96151 C0,1804.08362 107.976908,1912 241.173683,1912 C342.619204,1911.99565 429.377809,1849.35993 465,1760.70035 Z" id="Shape" fill="#7ACF90"></path>
            <circle id="Oval" fill="#8ADBA1" cx="1126" cy="785" r="241"></circle>
            <path d="M1350,874.700349 C1044.0393,997.434668 956.435969,671.039625 1064.18646,552 C961.034066,579.346823 885,673.263404 885,784.961513 C885,918.083621 992.976908,1026 1126.17368,1026 C1227.6192,1025.99565 1314.37781,963.364286 1350,874.700349 Z" id="Shape" fill="#7ACF90"></path>
            <path d="M1457.25074,1353.55289 L808.55662,2002.24757 C643.560117,2167.24421 412.696427,2248.61117 180.710074,2223.52966 C130.986591,2218.15132 95.0701098,2173.43192 100.552878,2123.72144 C120.330005,1944.40867 200.617743,1777.18845 328.179125,1649.62696 L1104.62609,873.179323 C1232.18747,745.617831 1399.40754,665.330022 1578.72015,645.552878 C1628.43058,640.070106 1673.1543,675.986618 1678.52829,725.710144 C1703.61413,957.692348 1622.24724,1188.55624 1457.25074,1353.55289 Z" id="Shape" fill="#67C787"></path>
            <path d="M571.396917,1406 L328.166714,1649.35584 C200.612271,1776.97617 120.328899,1944.27351 100.552848,2123.67335 C95.0703779,2173.40675 130.984906,2218.15113 180.705684,2223.5276 C412.683771,2248.62068 643.530554,2167.21619 808.518082,2002.14344 L1323,1487.39578 C870.639685,1797.01058 605.588383,1556.0317 571.396917,1406 Z" id="Shape" fill="#5FB87D"></path>
        </g>
    </g>
</svg>