<?xml version="1.0" encoding="UTF-8"?>
<svg width="7320px" height="4498px" viewBox="0 0 7320 4498" version="1.1" xmlns="http://www.w3.org/2000/svg" xmlns:xlink="http://www.w3.org/1999/xlink">
    <!-- Generator: Sketch 51.2 (57519) - http://www.bohemiancoding.com/sketch -->
    <title>Artboard 3</title>
    <desc>Created with Sketch.</desc>
    <defs></defs>
    <g id="Artboard-3" stroke="none" stroke-width="1" fill="none" fill-rule="evenodd">
        <g id="baguette" transform="translate(3461.000000, 340.000000)" fill-rule="nonzero">
            <path d="M261.54386,1391.15789 C257.263158,1402.70175 250.912281,1413.29825 242.315789,1422.14035 C76.3508772,1593.36842 -58.8070175,1833.82456 34.6666667,1927.29825 C130.596491,2023.22807 414.070175,2004.03509 585.894737,1832.21053 L1813.96491,604.140351 C1985.78947,432.315789 2025.64912,128.140351 1929.7193,32.245614 C1834.2807,-63.1929825 1582,64.8421053 1399.40351,264.666667 C1397.61404,266.596491 1395.68421,268.105263 1393.33333,269.298246 C1375.85965,278.035088 1295.36842,319.192982 1261.05263,353.54386 C1199.50877,415.087719 1167.36842,493.508772 1165.36842,568.982456 C1089.89474,570.982456 1011.47368,603.122807 949.929825,664.666667 C888.385965,726.210526 856.245614,804.631579 854.245614,880.105263 C778.77193,882.105263 700.350877,914.245614 638.807018,975.789474 C577.263158,1037.33333 545.122807,1115.75439 543.122807,1191.22807 C467.649123,1193.22807 389.22807,1225.36842 327.684211,1286.91228 C294.105263,1320.49123 275.859649,1352.45614 261.54386,1391.15789 Z" id="Shape" fill="#D99F4C"></path>
            <path d="M1399.4386,264.666667 C1397.64912,266.596491 1395.7193,268.105263 1393.36842,269.298246 C1387.68421,272.140351 1374.98246,278.666667 1359.64912,287.052632 C1359.19298,297.263158 1359.33333,306.912281 1360.35088,315.403509 C1367.47368,374.491228 1405.08772,426.140351 1469.12281,464.912281 C1474.80702,468.350877 1481.05263,470 1487.26316,470 C1499.12281,470 1510.73684,463.964912 1517.29825,453.087719 C1527.33333,436.491228 1522.03509,414.947368 1505.4386,404.912281 C1474.14035,385.964912 1435.68421,353.614035 1430.03509,307.017544 C1425.57895,270.315789 1442.2807,229.157895 1478.17544,186.982456 C1451.01754,211.263158 1424.52632,237.192982 1399.4386,264.666667 Z" id="Shape" fill="#EAC494"></path>
            <path d="M1222.80702,745.157895 C1228.66667,748.842105 1235.19298,750.631579 1241.61404,750.631579 C1253.19298,750.631579 1264.5614,744.877193 1271.26316,734.385965 C1281.68421,718.035088 1276.84211,696.350877 1260.49123,685.929825 C1216.45614,657.894737 1188.87719,612 1182.80702,556.596491 C1177.89474,511.859649 1186.98246,465.54386 1207.61404,423.298246 C1180.98246,469.473684 1166.66667,519.754386 1165.33333,568.912281 C1148.52632,569.368421 1131.61404,571.54386 1114.77193,574.947368 C1125.57895,647.122807 1163.4386,707.368421 1222.80702,745.157895 Z" id="Shape" fill="#EAC494"></path>
            <path d="M906.842105,1060.84211 C912.736842,1064.59649 919.298246,1066.42105 925.824561,1066.42105 C937.333333,1066.42105 948.631579,1060.77193 955.368421,1050.35088 C965.859649,1034.03509 961.157895,1012.35088 944.877193,1001.82456 C888.877193,965.789474 872.245614,912.245614 868.105263,873.719298 C863.333333,829.087719 873.087719,781.578947 894.245614,738.105263 C868.947368,783.263158 855.473684,832.245614 854.210526,880.070175 C835.964912,880.561404 817.54386,882.877193 799.263158,886.877193 C808.701754,960.315789 846.596491,1022 906.842105,1060.84211 Z" id="Shape" fill="#EAC494"></path>
            <path d="M628.315789,1342.84211 C633.649123,1345.78947 639.438596,1347.15789 645.122807,1347.15789 C657.54386,1347.15789 669.54386,1340.5614 675.929825,1328.91228 C685.263158,1311.92982 679.017544,1290.5614 662.035088,1281.29825 C600.877193,1247.78947 566.315789,1206.2807 559.403509,1157.89474 C554.561404,1124 563.789474,1085.82456 584.631579,1046.84211 C558.45614,1092.66667 544.421053,1142.52632 543.122807,1191.22807 C527.684211,1191.64912 512.175439,1193.64912 496.666667,1196.5614 C510.45614,1242.07018 545.087719,1297.26316 628.315789,1342.84211 Z" id="Shape" fill="#EAC494"></path>
            <path d="M308.842105,1621.19298 C315.052632,1625.68421 322.245614,1627.82456 329.368421,1627.82456 C340.280702,1627.82456 350.947368,1622.77193 357.859649,1613.29825 C369.192982,1597.61404 365.684211,1575.68421 349.964912,1564.31579 C287.333333,1519.01754 253.684211,1472.73684 250,1426.80702 C249.614035,1422.03509 249.649123,1417.19298 249.929825,1412.35088 C247.54386,1415.7193 245.22807,1419.12281 242.350877,1422.14035 C224.561404,1440.49123 207.22807,1459.75439 190.385965,1479.4386 C208.105263,1529.4386 247.649123,1576.94737 308.842105,1621.19298 Z" id="Shape" fill="#EAC494"></path>
        </g>
        <g id="cake-slice" transform="translate(3859.000000, 1842.000000)" fill-rule="nonzero">
            <path d="M1.3452381,929.897969 L1998.65476,929.897969 L1998.65476,1825.35513 C1998.65476,1939.49241 1906.15873,2032 1792.03571,2032 L1.3452381,2032 L1.3452381,929.897969 Z" id="Shape" fill="#F0DBC2"></path>
            <path d="M1.3452381,1136.54284 L1688.72619,1136.54284 C1745.78571,1136.54284 1792.03571,1182.79466 1792.03571,1239.86528 L1792.03571,1722.03666 C1792.03571,1779.10331 1745.78571,1825.35909 1688.72619,1825.35909 L1.3452381,1825.35909 L1.3452381,1136.54284 Z" id="SVGCleanerId_0" fill="#F2B9B8"></path>
            <path d="M1.3452381,1136.54284 L1688.72619,1136.54284 C1745.78571,1136.54284 1792.03571,1182.79466 1792.03571,1239.86528 L1792.03571,1722.03666 C1792.03571,1779.10331 1745.78571,1825.35909 1688.72619,1825.35909 L1.3452381,1825.35909 L1.3452381,1136.54284 Z" id="SVGCleanerId_0_1_" fill="#F2B9B8"></path>
            <path d="M1.3452381,929.897969 L1206.61905,206.644875 C1616.61905,206.712344 1959.39683,518.437813 1998.34524,926.627719 L1998.65476,929.897969 L1.3452381,929.897969 Z" id="Shape" fill="#F29C9B"></path>
            <ellipse id="Oval" fill="#F0614A" cx="1585.41667" cy="378.848937" rx="206.619048" ry="206.644875"></ellipse>
            <path d="M1688.24603,199.755125 C1683.28571,353.361625 1559.93651,476.72625 1406.34921,481.687188 C1462.96429,580.774969 1589.17063,615.211813 1688.24603,558.629344 C1787.31746,502.007188 1821.75397,375.785063 1765.17857,276.697281 C1746.85714,244.63375 1720.30556,218.078844 1688.24603,199.755125 Z" id="Shape" fill="#EA5242"></path>
            <g id="Group" transform="translate(527.777778, 0.000000)" fill="#965735">
                <path d="M1092.0754,309.967312 L1023.20238,309.967312 C1023.4127,138.866563 1162.05159,0.206375 1333.13095,0 L1333.13095,68.881625 C1200.07143,69.0205312 1092.21429,176.887187 1092.0754,309.967312 Z" id="Shape"></path>
                <rect id="Rectangle-path" transform="translate(696.057376, 396.075223) rotate(135.000000) translate(-696.057376, -396.075223) " x="661.621198" y="323.011236" width="68.8723554" height="146.127974"></rect>
                <rect id="Rectangle-path" transform="translate(317.342601, 602.688687) rotate(135.000000) translate(-317.342601, -602.688687) " x="244.287746" y="568.248205" width="146.10971" height="68.8809644"></rect>
                <rect id="Rectangle-path" transform="translate(455.012513, 740.510113) rotate(135.000000) translate(-455.012513, -740.510113) " x="420.576336" y="667.446126" width="68.8723554" height="146.127974"></rect>
                <rect id="Rectangle-path" transform="translate(627.197807, 602.794671) rotate(135.000000) translate(-627.197807, -602.794671) " x="554.142952" y="568.354189" width="146.10971" height="68.8809644"></rect>
                <rect id="Rectangle-path" transform="translate(1212.599939, 740.449659) rotate(135.000000) translate(-1212.599939, -740.449659) " x="1139.54508" y="706.009177" width="146.10971" height="68.8809644"></rect>
                <rect id="Rectangle-path" transform="translate(833.817239, 740.480779) rotate(135.000000) translate(-833.817239, -740.480779) " x="760.762384" y="706.040296" width="146.10971" height="68.8809644"></rect>
                <rect id="Rectangle-path" transform="translate(76.206346, 740.632122) rotate(135.000000) translate(-76.206346, -740.632122) " x="3.15149148" y="706.19164" width="146.10971" height="68.8809644"></rect>
            </g>
            <path d="M1264.60714,1136.54284 L1688.72619,1136.54284 C1745.78571,1136.54284 1792.03571,1182.79466 1792.03571,1239.86528 L1792.03571,1722.03666 C1792.03571,1779.10331 1745.78571,1825.35909 1688.72619,1825.35909 L467.130952,1825.35909 L227.900794,2032 L1792.03571,2032 C1906.15873,2032 1998.65476,1939.49241 1998.65476,1825.35513 L1998.65476,929.897969 L1503.87302,929.897969 L1264.60714,1136.54284 Z" id="Shape" fill="#EBD3B7"></path>
            <path d="M1688.72619,1825.35513 C1745.78571,1825.35513 1792.03571,1779.10331 1792.03571,1722.03269 L1792.03571,1239.86528 C1792.03571,1182.79863 1745.78571,1136.54284 1688.72619,1136.54284 L1264.60714,1136.54284 L467.130952,1825.35513 L1688.72619,1825.35513 Z" id="Shape" fill="#F2AEAC"></path>
            <rect id="Rectangle-path" fill="#F28685" x="1.3452381" y="1446.51016" width="1790.69048" height="68.881625"></rect>
        </g>
        <g id="muffin" transform="translate(1461.000000, 344.000000)" fill-rule="nonzero">
            <polygon id="Shape" fill="#F0DBC2" points="1824.02339 1101.24232 1548.69786 1996 447.403509 1996 172.077973 1101.24232"></polygon>
            <path d="M389.929825,1809.20247 L447.403509,1996 L1548.70175,1996 L1824.02729,1101.24232 L1666.02729,1101.24232 C1260.74464,1625.32877 664.838207,1769.73079 389.929825,1809.20247 Z" id="Shape" fill="#EBD3B7"></path>
            <path d="M1651.94542,550.619211 L1639.48538,500.789383 C1565.90643,206.484641 1301.45809,0 998.050682,0 C694.643275,0 430.194932,206.484641 356.612086,500.789383 L344.152047,550.619211 L275.325536,550.619211 C123.278752,550.619211 0,673.887805 0,825.930766 C0,977.969828 123.274854,1101.24232 275.325536,1101.24232 L1720.77973,1101.24232 C1872.82651,1101.24232 1996.10526,977.973727 1996.10526,825.930766 C1996.10526,673.891703 1872.83041,550.619211 1720.77973,550.619211 L1651.94542,550.619211 Z" id="Shape" fill="#F09E3E"></path>
            <path d="M1720.77583,550.619211 L1651.94542,550.619211 L1639.48538,500.789383 C1613.05263,395.001383 1560.81092,297.439086 1487.4386,216.807703 C1239.64912,850.296 500.951267,994.970914 85.5243665,1025.04736 C136.596491,1073.98445 204.60039,1101.27351 275.325536,1101.23842 L1720.77973,1101.23842 C1872.82651,1101.23842 1996.10526,977.969828 1996.10526,825.926867 C1996.10526,673.883906 1872.82651,550.619211 1720.77583,550.619211 Z" id="Shape" fill="#F09235"></path>
            <g id="Group" transform="translate(378.167641, 272.890625)" fill="#BF7341">
                <ellipse id="Oval" cx="103.649123" cy="518.624734" rx="103.247563" ry="103.24232"></ellipse>
                <ellipse id="Oval" cx="447.805068" cy="105.659352" rx="103.247563" ry="103.24232"></ellipse>
                <ellipse id="Oval" cx="1101.69981" cy="484.213227" rx="103.247563" ry="103.24232"></ellipse>
            </g>
            <g id="Group" transform="translate(409.356725, 1099.359375)" fill="#E6CCAF">
                <rect id="Rectangle-path" x="554.276803" y="1.88294531" width="68.8304094" height="894.75768"></rect>
                <polygon id="Shape" points="282.393762 1.88294531 348.19883 896.640625 417.20078 896.640625 351.39961 1.88294531"></polygon>
                <polygon id="Shape" points="2.11695906 1.88294531 176.569201 896.640625 246.670565 896.640625 72.2183236 1.88294531"></polygon>
                <polygon id="Shape" points="833.871345 1.88294531 762.838207 896.640625 831.910331 896.640625 902.908382 1.88294531"></polygon>
                <polygon id="Shape" points="1104.96296 1.88294531 929.614035 896.640625 999.719298 896.640625 1175.09942 1.88294531"></polygon>
            </g>
        </g>
        <g id="croissant" transform="translate(1461.000000, 2642.000000)" fill-rule="nonzero">
            <path d="M982.142857,1000.27586 C929.5,1000.27586 883.464286,964.837517 870,913.930621 L673.25,170.296966 C657.392857,81.5224828 725.642857,0 815.785714,0 L1148.46429,0 C1238.60714,0 1306.85714,81.5224828 1291,170.296966 L1094.28571,913.930621 C1080.82143,964.837517 1034.78571,1000.27586 982.142857,1000.27586 Z" id="Shape" fill="#EEAF4B"></path>
            <path d="M1656.32143,200.340966 C1537.89286,114.281517 1375.46429,65.8753103 1277.5,79.4862069 C1291.17857,106.386483 1296.82143,137.823724 1291.03571,170.296966 L1094.28571,913.930621 C1091.21429,925.57669 1086.25,936.258207 1080.07143,946.046621 C1096.28571,955.835034 1114.92857,962.551172 1135.32143,964.123034 C1305.46429,1018.99531 1571.96429,675.293379 1708.42857,477.667448 C1778.39286,376.282345 1755.96429,272.718069 1656.32143,200.340966 Z" id="Shape" fill="#F4C44E"></path>
            <path d="M870,913.930621 L673.25,170.296966 C667.392857,137.502207 673.142857,105.779172 687.107143,78.7002759 C588.714286,67.3042759 429.5,115.674759 313,200.305241 C213.357143,272.682345 190.928571,376.282345 260.892857,477.667448 C397.321429,675.329103 663.857143,1018.99531 834,964.123034 C852.821429,962.658345 870.142857,956.83531 885.5,948.297241 C878.642857,937.972966 873.321429,926.434069 870,913.930621 Z" id="Shape" fill="#F4C44E"></path>
            <g id="Group" transform="translate(0.000000, 392.965517)" fill="#F1B501">
                <path d="M260.928571,84.701931 C247.464286,65.1965517 237.5,45.6197241 230.75,26.1857931 C134.714286,122.533793 59.2857143,236.529517 12.2142857,362.850069 C-38.4642857,498.780414 76.8214286,639.069103 207.107143,600.915724 L603.5,484.919448 C475.142857,379.247448 343.964286,204.985103 260.928571,84.701931 Z" id="Shape"></path>
                <path d="M1987.78571,362.885793 C1936.78571,226.062345 1852.78571,103.492828 1745.03571,2.42924138 C1739.35714,29.5795862 1727.39286,57.230069 1708.42857,84.7376552 C1627.14286,202.520138 1499.64286,372.102621 1373.89286,478.346207 L1792.92857,600.987172 C1923.17857,639.069103 2038.46429,498.816138 1987.78571,362.885793 Z" id="Shape"></path>
            </g>
            <path d="M815.785714,0 C814.285714,0 812.928571,0.428689655 811.464286,0.500137931 L870,221.811172 C883.464286,272.718069 929.5,308.156414 982.142857,308.156414 C1034.78571,308.156414 1080.82143,272.718069 1094.28571,221.811172 L1152.82143,0.500137931 C1151.32143,0.428689655 1150,0 1148.5,0 L815.785714,0 Z" id="Shape" fill="#F4C44E"></path>
        </g>
    </g>
</svg>