<?xml version="1.0" encoding="UTF-8"?>
<svg width="2000px" height="2000px" viewBox="0 0 2000 2000" version="1.1" xmlns="http://www.w3.org/2000/svg" xmlns:xlink="http://www.w3.org/1999/xlink">
    <!-- Generator: Sketch 51.2 (57519) - http://www.bohemiancoding.com/sketch -->
    <title>Group 2</title>
    <desc>Created with Sketch.</desc>
    <defs></defs>
    <g id="Page-1" stroke="none" stroke-width="1" fill="none" fill-rule="evenodd">
        <g id="Group-2" fill="#27BCBD">
            <path d="M0.5,0.5 L0.5,1999.5 L1999.5,1999.5 L1999.5,0.5 L0.5,0.5 Z M59.5,59.5 L1937.5,59.5 L1937.5,1937.5 L59.5,1937.5 L59.5,59.5 Z" id="Combined-Shape" stroke="#979797"></path>
            <path d="M1294.63329,670.075145 L715.873454,670.075145 C636.519637,442.419519 597.923828,329.061322 600.086028,330.000553 C723.20052,279.151112 858.779165,251 1001.17137,251 C1142.65498,251 1277.4117,278.792997 1399.89843,329.029924 C1402.14706,330.693852 1367.05868,444.375592 1294.63329,670.075145 Z M1252.0188,609.927746 C1302.494,454.801953 1326.7928,376.544367 1324.91519,375.154986 C1222.63877,333.207152 1120.11691,310 1001.97809,310 C883.080603,310 779.872435,333.506179 677.071833,375.965461 C675.266396,375.181204 702.493897,453.168632 758.754334,609.927746 L1252.0188,609.927746 Z" id="Combined-Shape"></path>
            <path d="M929.007824,610.016088 C892.957317,610.029869 869.067589,610.041591 869,610 C869,538.202983 927.202983,480 999,480 C1070.79702,480 1129,538.202983 1129,610 C1128.86283,609.769301 1105.00801,609.834227 1068.99994,609.910661 C1068.95171,571.291797 1037.63015,540 999,540 C960.340068,540 929,571.340068 929,610 C929.002115,610.005406 929.004724,610.010769 929.007824,610.016088 Z M1068.99994,609.910661 C1058.68078,609.932566 1047.3635,609.955415 1035.32029,609.972522 Z M999.182219,609.999999 C999.121489,610 999.06075,610 999,610 C960.496065,610 929.773066,611.328971 929.007824,610.016088 Z" id="Combined-Shape"></path>
            <rect id="Rectangle-7" x="969" y="366" width="60" height="174"></rect>
        </g>
    </g>
</svg>