<?xml version="1.0" encoding="UTF-8"?>
<svg width="150px" height="150px" viewBox="0 0 150 150" version="1.1" xmlns="http://www.w3.org/2000/svg" xmlns:xlink="http://www.w3.org/1999/xlink">
    <!-- Generator: Sketch 51.2 (57519) - http://www.bohemiancoding.com/sketch -->
    <title>Group 36</title>
    <desc>Created with Sketch.</desc>
    <defs>
        <polygon id="path-1" points="0 0.152836134 149.699193 0.152836134 149.699193 149.842416 0 149.842416"></polygon>
    </defs>
    <g id="Educationa-Content" stroke="none" stroke-width="1" fill="none" fill-rule="evenodd">
        <g id="Group-36">
            <path d="M5.46020483,118.653939 C7.45794643,116.642332 9.46860819,114.64333 11.4507511,112.616439 C16.7371481,107.210924 22.0960242,101.877574 27.4397742,96.5289391 C27.5915074,96.3770483 27.7610452,96.2429622 27.9223897,96.1005252 C29.0297426,97.0741071 30.0740704,98.1176471 31.2291649,99.0384454 C35.7307405,102.627258 40.8542174,104.820851 46.4960767,105.849107 C49.3916124,106.376786 52.3172426,106.583193 55.2526418,106.444853 C59.1791124,106.259559 63.0348372,105.596061 66.8020116,104.458298 C73.1472321,102.542174 78.9310557,99.5226366 84.2158771,95.5386555 C86.5446586,93.7830882 88.7716544,91.9002101 90.7815284,89.7849265 C94.2545326,86.1297794 97.2439758,82.1155462 99.6595746,77.6766807 C101.731371,73.8691702 103.344186,69.8844013 104.424911,65.6889706 C105.108262,63.0357668 105.566928,60.3445903 105.780898,57.606145 C105.93011,55.696166 105.963671,53.7814601 105.849438,51.8839286 C105.399596,44.4140231 103.072547,37.6249475 98.2484401,31.7988971 C97.5961292,31.0112395 96.9055305,30.2544643 96.1612027,29.5488971 C95.6495956,29.0639181 95.6097321,29.0533613 95.1190809,29.542437 C93.7246481,30.9326155 92.334312,32.3268908 90.940667,33.7178571 C90.7739653,33.8842437 90.6198687,34.066229 90.4107826,34.1842437 C90.29198,34.2828782 90.1843645,34.0531513 89.9948162,34.2505777 C88.3320536,35.9821954 86.6154044,37.6613445 84.9211292,39.362395 C84.7276418,39.5565126 84.5092595,39.7334559 84.431896,40.0153361 C84.3483876,40.3142332 84.139459,40.5277311 83.9150893,40.7160189 C82.5149842,41.8917542 81.3069485,43.2644433 79.9944485,44.5296744 C79.1355725,45.088708 78.4254359,45.7971113 77.8660872,46.6566176 C75.6929779,48.8186975 73.5297952,50.9910189 71.363146,53.1598739 C70.4610977,53.7521534 69.7139338,54.4996324 69.1210242,55.4018382 C67.0273267,57.442437 65.0371481,59.5887605 62.8612027,61.5453782 C62.1297952,62.0793592 61.5475998,62.7627101 60.9628834,63.4436975 C58.7508561,65.6388655 56.5549002,67.8499475 54.3509086,70.0529937 C53.6949737,70.505042 53.1910872,71.1094538 52.6895641,71.7163866 C50.4360977,73.9547269 48.1969695,76.207563 45.9505935,78.4534664 C45.7939758,78.5727416 45.6575263,78.7533088 45.4199212,78.6345063 C45.4736502,78.4047794 45.6717069,78.2883403 45.8210767,78.1381828 C47.4184506,76.5334034 49.0322111,74.9445378 50.6188708,73.3292017 C62.7603624,60.9691702 75.1300053,48.8363445 87.3055305,36.5108193 C99.1909821,24.4791492 111.207526,12.5788866 123.138041,0.592436975 C123.296392,0.433298319 123.391245,0.0568802521 123.763251,0.253518908 C123.828955,0.590861345 123.555583,0.743067227 123.372495,0.927888655 C122.000436,2.31334034 120.616875,3.68728992 119.24072,5.06864496 C118.769133,5.54196429 118.74928,5.57473739 119.199123,6.08177521 C120.374386,7.40640756 121.598808,8.68644958 122.731843,10.05 C125.848125,13.8003151 128.638724,17.7726366 131.039669,22.0208508 C133.830741,26.9588761 136.113671,32.1144958 137.827642,37.5231618 C139.294869,42.1537815 140.354953,46.8716912 140.952904,51.69375 C141.257946,54.1548845 141.461203,56.619958 141.559207,59.1004727 C141.614512,60.4977416 141.671234,61.8950105 141.632631,63.288813 C141.530688,66.9671218 141.268188,70.6339286 140.702379,74.2759979 C139.971759,78.9781513 138.863619,83.5878151 137.327064,88.0893908 C135.308209,94.0036765 132.61073,99.5970063 129.284259,104.889233 C127.173072,108.248004 124.820341,111.430147 122.222442,114.422426 C117.736623,119.589076 112.704848,124.155567 107.056371,128.036029 C103.721707,130.326996 100.245867,132.369328 96.6083666,134.134821 C90.3197111,137.186975 83.7412973,139.371429 76.8732826,140.681723 C73.8351523,141.261239 70.774333,141.645536 67.6903519,141.897321 C64.7807931,142.134611 61.8676103,142.194485 58.9597847,142.088288 C53.8971271,141.903151 48.8831565,141.26187 43.9388288,140.124265 C39.0304254,138.995011 34.2598897,137.438918 29.6546376,135.406513 C24.5598372,133.157931 19.7294275,130.431933 15.2154044,127.157931 C11.9265914,124.772584 8.79628676,122.201155 5.94014181,119.30562 C5.75059349,119.113235 5.50715861,118.954097 5.46020483,118.653939" id="Fill-1" fill="#FCE9B1"></path>
            <g id="Group-5" transform="translate(0.000000, 0.004727)">
                <mask id="mask-2" fill="white">
                    <use xlink:href="#path-1"></use>
                </mask>
                <g id="Clip-4"></g>
                <path d="M5.46020483,118.649212 C9.50642332,122.699527 13.9353624,126.276681 18.7520641,129.370746 C23.6453414,132.514286 28.8225473,135.088235 34.2847847,137.090704 C39.3683981,138.954202 44.5886187,140.284664 49.939459,141.091544 C54.853062,141.832563 59.8002258,142.108929 64.7633036,141.911817 C71.8221271,141.631513 78.7329989,140.458613 85.4867805,138.35625 C94.5879359,135.522952 102.907579,131.188708 110.440194,125.364076 C116.623913,120.582353 121.996654,115.005567 126.556213,108.644433 C131.320131,101.998424 134.969921,94.7919643 137.508577,87.0266282 C139.066087,82.2625525 140.16052,77.3905462 140.79156,72.4117122 C141.284417,68.5227416 141.54219,64.6232143 141.464039,60.7068277 C141.351066,55.0361345 140.675909,49.433666 139.401381,43.8989496 C137.846707,37.1473739 135.473965,30.7043067 132.265037,24.5699055 C128.808577,17.9626576 124.521917,11.9435924 119.38032,6.53839286 C118.469606,5.58088235 118.466612,5.59143908 119.401749,4.65141807 C120.858734,3.18702731 122.309732,1.71664916 123.763251,0.248792017 C124.02969,0.0274159664 124.175121,0.235714286 124.34072,0.40414916 C127.199858,3.31433824 129.867085,6.38918067 132.308682,9.6592437 C139.441717,19.2122899 144.396444,29.7939076 147.228955,41.3658088 C148.342453,45.9149685 149.058734,50.5325105 149.422075,55.2069328 C149.756896,59.5139181 149.796917,63.8223214 149.495026,68.1261555 C148.761098,78.5878676 146.27239,88.6183298 141.952957,98.185084 C137.275383,108.544853 130.815614,117.649002 122.603902,125.497689 C113.555215,134.146324 103.135415,140.590021 91.3315809,144.787973 C86.4762763,146.514706 81.5070536,147.796796 76.4302153,148.648109 C72.7073162,149.272532 68.9547952,149.630987 65.1780095,149.779254 C60.1895641,149.974947 55.2308981,149.710714 50.2860977,149.058718 C41.2383561,147.865494 32.5990179,145.29958 24.3509086,141.397689 C17.2924002,138.058456 10.8186082,133.822216 4.88746324,128.751523 C3.27165441,127.370011 1.70847164,125.929254 0.206423319,124.423424 C0.0591018908,124.27563 -0.130603992,124.171324 0.127484244,123.91875 C1.91330357,122.170746 3.68446954,120.407616 5.46020483,118.649212" id="Fill-3" fill="#4DAE51" mask="url(#mask-2)"></path>
            </g>
            <path d="M71.2581775,53.0871901 C73.4078099,50.8972216 75.55177,48.7015809 77.7937342,46.6045746 C77.9388498,47.1146061 77.6889548,47.598167 77.7002994,48.1085137 C77.7338603,49.6209611 78.4203624,50.6753729 79.7492489,51.3587237 C81.7693645,52.3975368 83.969417,52.8491124 86.1562342,53.3425998 C86.6323897,53.4500578 86.7433141,53.3322006 86.6613813,52.8599842 C86.2967805,50.7601418 85.761854,48.7047321 84.930709,46.7391334 C84.1714128,44.9433876 82.4219905,44.0633981 80.5016124,44.4591964 C80.31427,44.4977994 80.1253519,44.6016334 79.9362763,44.4620326 C81.0841229,43.2287868 82.28948,42.0528939 83.5001943,40.8823582 C83.7942069,40.5981145 84.1293435,40.3496376 84.3338603,39.9817279 C84.4573897,39.9467489 84.5687868,39.9883456 84.6715179,40.0472742 C86.5047637,41.0974317 88.5377994,41.5628729 90.5602784,42.056833 C90.9609611,42.1546796 91.3632195,42.2482721 91.7687868,42.3273687 C92.1363813,42.3990599 92.3007195,42.2849842 92.221938,41.8983246 C91.7514548,39.5881355 91.3625893,37.2577784 90.491896,35.0477994 C90.3798687,34.7635557 90.2011922,34.4824632 90.29573,34.1482721 C91.9643225,32.4766859 93.6414233,30.8134506 95.2933141,29.1256355 C95.5929989,28.8194905 95.7467805,28.9108771 95.9971481,29.1539968 C98.2274527,31.3189128 100.118051,33.7433351 101.645783,36.4523162 C103.89468,40.4399212 105.226402,44.7295746 105.772988,49.25573 C106.481549,55.1227468 105.936696,60.9021586 104.349249,66.5862447 C102.602663,72.8408666 99.7673162,78.5671796 95.9577574,83.8195431 C94.0947321,86.3882931 92.0451523,88.7960137 89.7644275,91.0022111 C85.8689968,94.7704884 81.5347532,97.94302 76.7539758,100.499007 C72.0129044,103.033724 67.0162658,104.854207 61.7248267,105.844018 C58.3495116,106.475373 54.9442595,106.765446 51.5155305,106.58157 C44.7239338,106.217285 38.4220431,104.331413 32.7967279,100.409827 C31.1297111,99.2477994 29.6043435,97.9198582 28.166896,96.4874527 C28.0567595,96.3777889 27.9236187,96.2800998 27.9223582,96.1004779 C29.7660032,94.2735347 31.6096481,92.4465914 33.4532931,90.6194905 C35.6692595,92.0016334 38.1924737,92.485667 40.6758246,93.0809401 C41.4567069,93.268125 41.4915284,93.2186502 41.3290809,92.4122426 C40.951875,90.5391334 40.5288183,88.6809926 39.8281355,86.8920221 C39.5867489,86.2757931 39.1926838,85.7689128 38.87677,85.2072006 C40.5051838,83.583041 42.1329674,81.9582511 43.7632721,80.3358246 C43.8732511,80.2263183 44.0007195,80.1346166 44.1201523,80.0347216 C44.2715704,80.2795746 44.1110137,80.4908666 44.0375893,80.7048372 C43.3887447,82.5916544 44.1359086,84.3714863 45.9053414,85.2505305 C47.9533456,86.2680725 50.1644275,86.7292595 52.3685767,87.2247952 C52.7709926,87.3153939 52.9164233,87.2027363 52.8262973,86.7784191 C52.389375,84.7211187 51.9335452,82.6795746 51.1202048,80.7175998 C50.4187342,79.0253729 48.5230935,77.8178099 46.4585452,78.3721166 C46.2592279,78.4255305 46.0477784,78.5474842 45.8473582,78.3628204 C48.1058666,76.1115599 50.364375,73.8604569 52.6228834,71.6091964 C52.8102258,71.9419695 52.6354884,72.2635557 52.5748267,72.5796271 C52.2614338,74.2162342 52.9274527,75.6889758 54.3552889,76.5383981 C57.3915284,78.3442279 60.6592279,79.6540494 63.9042384,81.0127153 C64.1171061,81.101896 64.3233561,81.2132931 64.6060242,81.2851418 C64.1339653,80.0997952 63.6647426,78.9579359 63.1646376,77.8285242 C62.2737763,75.8161292 61.3184716,73.8347742 60.3663183,71.8508981 C59.6227784,70.3015809 58.4352258,69.8615074 56.9199422,69.788083 C56.2077574,69.7534191 55.5062868,69.8243225 54.8130095,69.9886607 C54.6274002,70.0326208 54.4378519,70.1378729 54.2519275,69.985667 C56.4214128,67.7389758 58.6581775,65.5601943 60.9007721,63.3872426 C61.0583351,63.8107721 60.8149002,64.1931775 60.7595956,64.5914968 C60.5843855,65.8521586 61.2696271,67.3542069 62.3356985,68.0627679 C64.5962553,69.5651313 67.1048162,70.5590389 69.5681565,71.6482721 C70.6099632,72.1089863 71.6555515,72.5591439 72.8286082,73.0121376 C72.6108561,72.2260557 72.2905305,71.5863498 72.0140074,70.9338813 C70.9777153,68.488188 69.9275578,66.0484821 68.6676838,63.7059926 C68.5370641,63.4633456 68.3924212,63.2276313 68.2717279,62.98073 C67.6766124,61.7635557 66.5615389,61.414396 65.3549212,61.2913393 C64.6157931,61.2160242 63.8571271,61.2171271 63.1402153,61.510667 C63.0310242,61.5554149 62.9097006,61.5683351 62.8033456,61.4849842 C63.7347006,60.5537868 64.6629044,59.6195956 65.5981985,58.6923372 C66.7444695,57.5561502 67.8967279,56.4261082 69.0463078,55.2933876 C69.2817069,55.610562 69.0946796,55.944438 69.060646,56.2603519 C68.8846481,57.8982195 69.5158456,59.1582511 70.8845956,60.0062553 C71.8506145,60.6048372 72.856812,61.1425998 73.8983036,61.6176523 C76.1333351,62.6370851 78.3850683,63.6161817 80.6472006,64.5727468 C80.8088603,64.6411292 80.9631145,64.7320431 81.1640074,64.7608771 C79.8415809,61.5349317 78.4838603,58.3416019 76.860646,55.266917 C76.3189443,54.2405515 75.6647426,53.378209 74.4433141,53.119333 C73.6217805,52.9453834 72.8073372,52.9683876 71.9875368,53.103104 C71.7445746,53.143125 71.4967279,53.2924947 71.2581775,53.0871901" id="Fill-6" fill="#FDB100"></path>
            <path d="M45.8473109,78.3627574 C46.606292,78.2237868 47.3336029,77.9510452 48.1456828,78.1199527 C49.5730462,78.4166439 50.5860189,79.1704254 51.1940546,80.5045116 C52.1446324,82.5903309 52.5766702,84.8179569 53.0493592,87.0372321 C53.128771,87.4103414 52.9916912,87.5211082 52.6593908,87.4549317 C51.2611765,87.176833 49.8832878,86.818062 48.511229,86.4298267 C47.5691597,86.1633876 46.6789286,85.7961082 45.7945273,85.3774632 C43.9266176,84.4933771 43.1458929,82.3112868 43.9274055,80.5254674 C43.9978361,80.3647532 44.0561345,80.1985242 44.120105,80.0348162 C44.466271,79.4869695 44.98875,79.1029884 45.42,78.634396 C45.6134874,78.6241544 45.6932143,78.4349212 45.8473109,78.3627574" id="Fill-8" fill="#F47F16"></path>
            <path d="M38.8767542,85.2072637 C39.7239706,85.7294275 39.9020168,86.6628309 40.2136765,87.4862553 C40.8804832,89.2471796 41.2291702,91.09823 41.6104727,92.9369905 C41.6930357,93.3349947 41.4929307,93.4317384 41.1447164,93.3565809 C39.00375,92.8952363 36.8794853,92.3689758 34.8388866,91.561938 C34.3198739,91.356791 33.7717122,91.1434506 33.4534349,90.6195536 C35.2304307,88.7845746 37.0285399,86.9708666 38.8767542,85.2072637" id="Fill-10" fill="#F47F16"></path>
            <path d="M71.2581775,53.0871901 C72.1189443,52.8620326 73.0009821,52.7509506 73.8786082,52.8621901 C74.9750893,53.0011607 75.9800263,53.3720641 76.5578099,54.4278939 C77.4590704,56.0749002 78.2933666,57.7523162 79.0602258,59.4691229 C79.8373267,61.2087763 80.5696796,62.9665494 81.3278729,64.7137658 C81.3574947,64.7823057 81.3601733,64.8625053 81.3959401,65.0380305 C80.5019275,64.6702784 79.6629044,64.3359296 78.8323897,63.9809401 C77.6311292,63.4675998 76.4259296,62.9616649 75.2412132,62.41177 C73.6800788,61.6872952 72.1135872,60.969438 70.6469905,60.0595116 C69.4165809,59.2961187 68.503188,57.5320431 68.9829674,55.6978519 C69.0173162,55.5666019 69.025667,55.4285767 69.0463078,55.2935452 C69.6127468,54.3866124 70.3462027,53.6473267 71.2581775,53.0871901" id="Fill-12" fill="#F47F16"></path>
            <path d="M62.8032668,61.4849685 C64.2443382,60.8805567 65.6726471,61.0100735 67.0894538,61.5692647 C67.9746429,61.9185819 68.3343592,62.742479 68.7391387,63.4946849 C69.7131933,65.3055567 70.5619853,67.1794538 71.4044748,69.0541387 C71.9696534,70.311334 72.4781092,71.5940546 73.0122479,72.864958 C73.0595168,72.977458 73.0982773,73.1035084 73.0103571,73.197416 C72.895021,73.3206303 72.8071008,73.1733088 72.7072059,73.1340756 C70.3109874,72.1913761 67.9680252,71.1282983 65.6264811,70.0589181 C64.3916597,69.495 63.2323109,68.8114916 62.0854097,68.0967857 C61.1477521,67.5123845 60.3903466,65.7242017 60.5997479,64.6400105 C60.6816807,64.2166387 60.7522689,63.7934244 60.9006933,63.3872269 C61.409937,62.6282458 62.020021,61.9699475 62.8032668,61.4849685" id="Fill-14" fill="#F47F16"></path>
            <path d="M54.2519433,69.985604 C55.3931723,69.64448 56.5358193,69.5871271 57.7328256,69.7174317 C59.0541492,69.8612868 59.8378676,70.5052468 60.4269958,71.6549842 C61.4987395,73.7463183 62.4803571,75.8738918 63.4090336,78.0312447 C63.9011029,79.1742069 64.3782038,80.3211082 64.898792,81.596896 C63.9442752,81.2012553 63.0910714,80.8557195 62.2443277,80.4947426 C61.0603992,79.9902258 59.8703256,79.4981565 58.7029412,78.9572426 C57.0318277,78.1829779 55.3085609,77.4685872 53.8247899,76.3796691 C52.6886029,75.5458456 52.1268908,74.3004674 52.3802521,72.816854 C52.4492647,72.4123897 52.5412815,72.0120221 52.6228992,71.6094485 C53.0981092,70.9999947 53.5644958,70.3820326 54.2519433,69.985604" id="Fill-16" fill="#F47F16"></path>
            <path d="M79.9363078,44.4620956 C81.7233876,43.8693435 83.25427,44.2462342 84.5013813,45.6767489 C85.0695536,46.3285872 85.3062132,47.1475998 85.5753309,47.9387237 C86.1231775,49.5494905 86.5350473,51.1977574 86.8408771,52.8728099 C86.9563708,53.5054254 86.8429254,53.6749632 86.2367805,53.538041 C84.2916649,53.0987553 82.3337868,52.6843645 80.4915599,51.8993855 C79.6377258,51.5355725 78.7859401,51.1533246 78.2196586,50.3084716 C77.4264863,49.1250158 77.374333,47.9034296 77.7936082,46.60448 C78.2935557,45.6761187 79.0148792,44.9689758 79.9363078,44.4620956" id="Fill-18" fill="#F47F16"></path>
            <path d="M90.2957773,34.1483351 C91.1392122,35.9341544 91.5381618,37.8527994 91.9656303,39.7619905 C92.1280777,40.4870956 92.2657878,41.2178729 92.412479,41.9466019 C92.5257668,42.5098897 92.4107458,42.6083666 91.8458824,42.5059506 C90.2664706,42.2199737 88.7138445,41.8114128 87.1916282,41.3232826 C86.196145,41.0040599 85.1628466,40.6892489 84.33375,39.981791 C84.2102206,39.7251208 84.4446744,39.6316859 84.5686765,39.5070536 C86.3070693,37.7598372 88.0506618,36.0176628 89.7959874,34.2772216 C89.9308613,34.1428204 90.0509244,33.8847321 90.2957773,34.1483351" id="Fill-20" fill="#F47F16"></path>
            <path d="M74.3589076,79.253146 C74.4709349,77.9987868 75.2945168,76.8578729 76.5833824,76.034291 C77.7669958,75.278146 79.0460924,75.1623372 80.3420483,75.7054569 C81.377395,76.1393855 81.9802311,77.035604 82.4776576,77.9816124 C83.5345903,79.9922742 84.5251891,82.0352363 85.3719328,84.1465809 C85.8145273,85.2503099 86.3067542,86.3340284 86.7825945,87.4242069 C86.8297059,87.5324527 86.9251891,87.6373897 86.8331723,87.744375 C86.7104307,87.8872847 86.5939916,87.7626523 86.4693592,87.7090809 C85.1099055,87.1249947 83.7394223,86.5683246 82.3859559,85.9680095 C80.9343277,85.3240494 79.4806513,84.6859191 78.0791282,83.9414338 C77.1501366,83.4479464 76.1689916,83.0384401 75.4245063,82.2309296 C74.7206723,81.4675368 74.3474055,80.6086607 74.3589076,79.253146" id="Fill-22" fill="#F47F16"></path>
            <path d="M78.6218067,95.768146 C76.6454937,94.9332195 74.7637185,94.1870011 72.9246429,93.3471901 C71.1785294,92.5497637 69.4061029,91.7922006 67.8093592,90.6991859 C66.4127206,89.7430935 65.7689181,88.0866334 66.2215966,86.4741334 C66.6465441,84.9604254 68.3619328,83.5696166 69.9782143,83.5650473 C70.9694433,83.5622111 71.9132458,83.6053834 72.8190756,84.1210872 C73.4179727,84.461896 73.7052101,84.99698 74.0215966,85.5216649 C74.9860399,87.1209296 75.7267437,88.8333246 76.4740651,90.54052 C77.1293697,92.0375263 77.777584,93.5376838 78.4205987,95.0402048 C78.5026891,95.2321166 78.5345168,95.4456145 78.6218067,95.768146" id="Fill-24" fill="#F47F16"></path>
            <path d="M101.486155,67.6847426 C100.678803,67.5738183 100.085735,67.2210347 99.4658824,66.9679884 C97.9149895,66.3349002 96.3710294,65.6791229 94.8555882,64.9663078 C93.4039601,64.2832721 91.9252311,63.6233981 90.6034349,62.7134716 C88.5885189,61.3262868 88.5398319,58.7260242 89.9194538,56.9564338 C91.5447164,54.8714023 94.6247584,55.4222426 95.9689286,56.3758141 C96.6986029,56.8934086 97.0762815,57.7930935 97.4279622,58.6144695 C97.8763866,59.6614758 98.4633088,60.6349002 98.9145693,61.6828519 C99.5303256,63.1133666 100.163414,64.5383666 100.776019,65.9714023 C101.00417,66.5049107 101.220819,67.0434611 101.486155,67.6847426" id="Fill-26" fill="#F47F16"></path>
            <path d="M95.4457878,78.7118067 C94.4882773,78.4575 93.6139601,78.028771 92.728771,77.6493592 C90.5528256,76.7169013 88.3638025,75.8065021 86.2746744,74.6867017 C85.5538235,74.3003571 84.8430567,73.896208 84.2295063,73.3182668 C83.0618067,72.2184769 82.8111239,70.8483088 83.2359139,69.4411134 C83.702458,67.8958929 84.867479,66.977458 86.5015651,66.6609139 C87.6585504,66.4368592 88.7186345,66.6456303 89.7294013,67.1739391 C90.3251471,67.4854412 90.6484664,68.0777206 90.9817122,68.6307668 C92.1876996,70.6315021 93.0208929,72.8142227 94.0084979,74.9209979 C94.4955252,75.9594958 94.8914811,77.0410084 95.3219433,78.1058193 C95.3920588,78.2794538 95.4933718,78.4532458 95.4457878,78.7118067" id="Fill-28" fill="#F47F16"></path>
            <path d="M58.7869538,89.4369013 C60.6931513,89.5078046 62.013687,89.7914181 62.7859034,91.1072269 C63.6189391,92.5263971 64.3282878,94.0145798 65.0199895,95.5101681 C65.8550735,97.3156828 66.6170483,99.1514496 67.3846954,100.985326 C67.4541807,101.151397 67.5882668,101.31416 67.4330672,101.464632 C67.2794433,101.613687 67.1179412,101.47708 66.9526576,101.407122 C65.4280777,100.761271 63.8778151,100.17167 62.3752941,99.4783929 C60.5623739,98.6420483 58.7195168,97.8419433 57.0339076,96.7690966 C55.1661555,95.5804412 54.7349055,94.0117437 55.2477731,92.2701996 C55.7574895,90.5395273 57.4167857,89.3231408 58.7869538,89.4369013" id="Fill-30" fill="#F47F16"></path>
            <path d="M98.3707878,44.2284139 C100.166534,44.0817227 101.727511,45.6756303 102.238015,47.0610819 C102.970683,49.0504727 103.434863,51.1066702 103.846418,53.1798845 C103.926933,53.5852941 103.878246,53.6530462 103.469212,53.5709559 C101.222836,53.1203256 99.0027731,52.5787815 96.8840231,51.6904412 C95.4635924,51.0946954 94.6170063,50.0153887 94.4644853,48.478834 C94.311334,46.9347164 94.9552941,45.7170693 96.2356513,44.8685924 C96.8895378,44.4352941 97.6061345,44.0977941 98.3707878,44.2284139" id="Fill-32" fill="#F47F16"></path>
            <path d="M43.6392542,98.9173267 C43.6756513,96.1814023 46.3258613,94.3163288 49.1635714,95.498209 C50.8468172,96.1992069 51.3581092,97.6402784 51.8542752,99.1166439 C52.3014391,100.447264 52.5945063,101.827358 52.8847374,103.204774 C53.1518067,104.472369 53.1733929,104.500888 51.9467647,104.243587 C49.819979,103.797369 47.7028046,103.295688 45.7334244,102.33928 C44.4002836,101.691696 43.6379937,100.402988 43.6392542,98.9173267" id="Fill-34" fill="#F47F16"></path>
        </g>
    </g>
</svg>