<?xml version="1.0" encoding="UTF-8"?>
<svg width="146px" height="100px" viewBox="0 0 146 100" version="1.1" xmlns="http://www.w3.org/2000/svg" xmlns:xlink="http://www.w3.org/1999/xlink">
    <!-- Generator: Sketch 51.2 (57519) - http://www.bohemiancoding.com/sketch -->
    <title>Group 28</title>
    <desc>Created with Sketch.</desc>
    <defs>
        <polygon id="path-1" points="0.0909981566 0.182351275 74.2828329 0.182351275 74.2828329 67.9886686 0.0909981566 67.9886686"></polygon>
    </defs>
    <g id="Educationa-Content" stroke="none" stroke-width="1" fill="none" fill-rule="evenodd">
        <g id="Group-28">
            <path d="M0,26.9449008 C0.931161473,23.255949 2.79320113,20.0706799 5.60708215,17.5596317 C8.98895184,14.542068 12.8475921,12.2001416 16.9566572,10.26983 C24.4427762,6.75283286 32.3521246,4.58626062 40.4184136,2.96473088 C45.3274788,1.97776204 50.296034,1.34745042 55.2852691,0.853399433 C62.6923513,0.119971671 70.1152975,-0.13611898 77.5450425,0.0675637394 C82.3657224,0.199575071 87.1756374,0.619405099 91.9835694,1.10269122 C99.184136,1.82677054 106.283853,3.09589235 113.250708,4.94575071 C119.650992,6.64518414 125.893484,8.86246459 131.72068,12.1553824 C134.736544,13.8593484 137.593201,15.7652975 140.006232,18.1876771 C142.319263,20.5100567 144.330312,23.1610482 144.802266,26.6092068 C144.81898,26.7298867 144.95949,26.8335694 145.042493,26.9449008 L145.042493,32.8939093 L144.932861,32.916289 L144.821246,32.9083569 C144.149858,33.0848442 144.316147,33.765864 144.11983,34.1913598 C142.696884,37.2749292 140.413314,39.6454674 137.817564,41.6970255 C132.813598,45.6522663 127.090935,48.2910765 121.128045,50.4446176 C119.977054,50.8604816 118.796884,51.1927762 117.654108,51.6403683 C110.16119,54.0290368 102.487252,55.5607649 94.6932011,56.5211048 C89.5424929,57.1556657 84.3716714,57.4565156 79.186119,57.7089235 C65.4864023,58.3752125 51.9331445,57.2783286 38.5226629,54.5477337 C28.9529745,52.5992918 19.6807365,49.6822946 11.2436261,44.5936261 C7.32889518,42.2324363 3.89093484,39.3177054 1.4223796,35.373796 C0.926912181,34.5822946 0.891784703,33.6015581 0.242776204,32.9038244 L0.121246459,32.9049575 L0,32.8939093 L0,26.9449008 Z" id="Fill-1" fill="#F2E6DA"></path>
            <path d="M0.242747875,32.903966 C0.269660057,32.7189802 0.296572238,32.5339943 0.347280453,32.1858357 C0.994589235,33.3053824 1.28750708,34.4484419 1.93084986,35.4229462 C2.63311615,36.4866856 3.33708215,37.5393768 4.24303116,38.4413598 C5.11243626,39.3070822 5.93339943,40.2322946 6.87305949,41.0147309 C10.4883569,44.0243626 14.5911898,46.2461756 18.8821246,48.1002833 C27.5107365,51.8291785 36.5767422,54.0572238 45.8283003,55.4951841 C52.5110198,56.5342776 59.2452975,57.1331445 66.0215014,57.3433428 C69.3209348,57.4456091 72.6237677,57.6232295 75.9149858,57.4915014 C83.3294334,57.1946176 90.7316997,56.7694051 98.0883569,55.6286119 C104.59034,54.6203966 110.995722,53.270255 117.285807,51.3524079 C117.461728,51.2988669 117.659745,51.3172805 117.84728,51.3022663 C117.944731,52.2203966 117.166261,52.590085 116.665127,53.092068 C102.025467,67.7549575 87.3716431,82.4036827 72.7226346,97.0572238 C72.2237677,97.5560907 71.6821246,98.0184136 71.3291501,98.6651558 C71.9926062,98.28017 72.5124363,97.7186969 73.04983,97.1815864 C87.7688102,82.4643059 102.486374,67.7461756 117.205354,53.0288952 C117.605637,52.6286119 117.984391,52.2042493 118.433683,51.8569405 C118.69289,51.6566572 118.973909,51.4294618 119.327167,51.6382436 C119.662861,51.8368272 119.699688,52.190085 119.628584,52.5167139 C119.177025,54.5847025 118.809603,56.6626062 117.190057,58.270255 C110.99289,64.4215297 104.832266,70.6093484 98.6580453,76.7835694 C92.1835411,83.2583569 85.6662606,89.6909348 79.2639943,96.2365439 C77.6416147,97.8954674 75.6744759,98.7798867 73.6665439,99.7025496 C58.3852408,99.8946176 43.8435977,97.1334278 30.7631445,88.7566572 C23.0931728,83.8450425 16.9719263,77.3739377 12.1682436,69.6546742 C5.99912181,59.7413598 2.38637394,48.9212465 0.815552408,37.3869688 C0.612436261,35.8943343 0.433116147,34.3983003 0.242747875,32.903966" id="Fill-3" fill="#EFBE5C"></path>
            <g id="Group-7" transform="translate(70.538244, 31.761756)">
                <mask id="mask-2" fill="white">
                    <use xlink:href="#path-1"></use>
                </mask>
                <g id="Clip-6"></g>
                <path d="M3.12815864,67.9407082 C3.3678187,67.50983 3.71739377,67.1707365 4.18368272,67.0469405 C6.24827195,66.4982153 7.64175637,65.0378754 9.081983,63.5948159 C21.3216431,51.3302266 33.5468555,39.0511898 45.8638527,26.8645042 C47.8318414,24.9169122 48.364136,22.591983 48.9193768,20.0191785 C48.1006799,20.0092635 47.8423229,20.5871671 47.4850992,20.9438244 C32.452238,35.9568555 17.4312748,50.982068 2.40464589,66.0013314 C1.90606232,66.4996317 1.35507082,66.9455241 0.844589235,67.4322096 C0.656487252,67.611813 0.460736544,67.7443909 0.23184136,67.591983 C-0.0412464589,67.4095467 0.15223796,67.1758357 0.235807365,66.9684703 C0.456487252,66.4203116 0.925042493,66.0764023 1.32249292,65.6792351 C16.2757507,50.7200283 31.2329745,35.7647875 46.1856657,20.8047309 C46.5836827,20.4067139 46.9355241,19.9630878 47.3091785,19.5404249 C50.6420397,18.1543059 54.1086119,17.1081303 57.366119,15.5245609 C61.1451558,13.6871671 64.8094618,11.6659207 67.9955807,8.89736544 C70.674051,6.56988669 72.885949,3.87356941 74.1145609,0.182351275 C74.2046459,0.697932011 74.2437394,0.922294618 74.2828329,1.14665722 C72.8686686,16.0792351 68.4233428,29.9452408 59.5043626,42.1463739 C51.358187,53.2905666 40.4695184,60.6123796 27.291898,64.5806516 C22.5185269,66.0183286 17.6491218,66.9633711 12.6794334,67.4503399 C9.49869688,67.762238 6.33014164,68.119745 3.12815864,67.9407082" id="Fill-5" fill="#E6B45B" mask="url(#mask-2)"></path>
            </g>
            <path d="M108.094901,28.9789235 C116.584136,28.9789235 125.073654,28.990255 133.56289,28.9664589 C134.817564,28.9630595 135.923229,29.1185836 136.549575,30.3684419 C137.17762,31.6216997 136.452975,32.5715581 135.750142,33.4460623 C132.996601,36.8712748 129.329178,39.0752408 125.462606,40.9939377 C122.375921,42.5256657 119.133711,43.6624929 115.872805,44.753711 C115.06204,45.0250992 114.327479,44.9576771 113.552125,44.62 C102.933711,39.9956374 92.3090652,35.3854391 81.686119,30.7712748 C81.5133144,30.696204 81.3382436,30.6250992 81.170255,30.5406799 C80.794051,30.3511615 80.3453258,30.2018697 80.4254958,29.6486119 C80.515864,29.0231161 81.0062323,28.9845892 81.4949008,28.9834561 C84.1362606,28.9769405 86.7773371,28.9724079 89.4184136,28.9718414 C95.6439093,28.9701416 101.869405,28.9712748 108.094901,28.9712748 L108.094901,28.9789235 Z" id="Fill-8" fill="#DA6F62"></path>
            <path d="M37.096204,28.9739377 C45.6809065,28.9739377 54.2653258,28.9733711 62.8500283,28.9753541 C63.2270822,28.9753541 63.608102,28.9657224 63.9797734,29.0161473 C64.3293484,29.0634561 64.5851558,29.2648725 64.6222663,29.6580737 C64.6749575,30.2167139 64.2446459,30.374221 63.8619263,30.5416431 C60.8423796,31.8628895 57.8191501,33.1767705 54.7953541,34.4889518 C47.1930878,37.7878187 39.5800567,41.0628895 31.9964873,44.4045326 C30.7848725,44.9385269 29.7157507,44.9643059 28.4783569,44.5379603 C23.7015864,42.8929178 19.0132011,41.0736544 14.7670255,38.2747875 C12.5488952,36.8127479 10.5296317,35.1376771 8.95767705,32.9634561 C8.37354108,32.1552408 7.96192635,31.3546742 8.48968839,30.3620397 C9.07127479,29.268272 10.0205666,28.9543909 11.2007365,28.9566572 C19.8327479,28.9745042 28.4644759,28.966289 37.096204,28.966289 L37.096204,28.9739377 Z" id="Fill-10" fill="#DA6F62"></path>
            <path d="M37.0175921,25.5770822 C28.4289235,25.5770822 19.840255,25.5716997 11.2515864,25.583881 C10.1765156,25.5855807 9.15923513,25.5496034 8.55951841,24.4538527 C7.89294618,23.236289 8.47793201,22.2702833 9.20201133,21.356119 C11.193796,18.8413881 13.7076771,16.9405382 16.4510198,15.3337394 C20.5385552,12.9388385 24.9450708,11.2861473 29.4314731,9.82155807 C30.1241076,9.59577904 30.7232578,9.73175637 31.3419547,10.0008782 C42.0974788,14.677932 52.854136,19.3524363 63.6079603,24.0331728 C64.0612181,24.2306232 64.7164589,24.3292068 64.595779,25.0283569 C64.4493201,25.877932 63.7048442,25.562068 63.2082436,25.5632011 C54.4782153,25.5824646 45.7479037,25.5770822 37.0175921,25.5770822" id="Fill-12" fill="#DA6F62"></path>
            <path d="M106.955184,25.5886119 C98.7016431,25.5886119 90.4478187,25.5886119 82.1942776,25.5886119 C82.0056091,25.5886119 81.8146742,25.6053258 81.6288385,25.5823796 C81.1931445,25.5288385 80.6019263,25.7526346 80.4529178,25.1019263 C80.291728,24.3976771 80.9075921,24.2662323 81.3614164,24.0517847 C83.6189235,22.9866289 85.8769972,21.9231728 88.1396034,20.8684986 C95.7795467,17.3073088 103.421756,13.7512181 111.0617,10.1903116 C111.748669,9.8701983 112.411841,9.5396034 113.218357,9.79739377 C119.026006,11.6551841 124.673031,13.8557507 129.620057,17.5291218 C131.290595,18.7693484 132.812975,20.1682153 133.972748,21.9291218 C134.505892,22.7387535 134.749802,23.5373371 134.242436,24.436204 C133.748385,25.3118414 132.990878,25.5939943 131.999093,25.5911615 C123.651218,25.5684986 115.303059,25.5781303 106.955184,25.5781303 L106.955184,25.5886119 Z" id="Fill-14" fill="#DA6F62"></path>
            <path d="M70.8300283,39.9351558 C70.8300283,42.5750992 70.8396601,45.2150425 70.8266289,47.8547025 C70.817847,49.6161756 69.9776204,50.4807649 68.2373938,50.4651841 C60.3155807,50.3943626 52.4586402,49.5994618 44.6473088,48.3099433 C43.9053824,48.1872805 43.168272,48.0209915 42.4220963,47.940255 C41.207932,47.8085269 40.5260623,47.0702833 40.3266289,45.968017 C40.111898,44.7833144 40.8175637,44.003711 41.8331445,43.5209915 C44.0014164,42.4903966 46.1835694,41.4889802 48.3592068,40.4742493 C55.270255,37.2518697 62.18017,34.0272238 69.0923513,30.8071105 C70.5815864,30.1133428 70.8203966,30.2617847 70.823796,31.8742493 C70.8291785,34.5612181 70.8252125,37.248187 70.8252125,39.9351558 C70.8269122,39.9351558 70.8283286,39.9351558 70.8300283,39.9351558" id="Fill-16" fill="#DA6F62"></path>
            <path d="M74.2217847,39.6966572 C74.2215014,37.0530312 74.2090368,34.4091218 74.2263173,31.765779 C74.235949,30.3133711 74.508187,30.1323513 75.8070538,30.7366006 C84.9096034,34.9728612 94.0067705,39.2207365 103.105354,43.4652125 C104.128017,43.9422663 104.868527,44.6932578 104.721218,45.8674788 C104.563428,47.1255524 103.746431,47.7433994 102.436799,47.9705949 C95.933966,49.0989235 89.4039377,49.9266856 82.8056374,50.2408499 C80.8268839,50.3349008 78.8515297,50.4725779 76.8696601,50.457847 C75.006204,50.443966 74.2336827,49.6666289 74.2251841,47.7691785 C74.2130028,45.0785269 74.222068,42.3875921 74.2217847,39.6966572" id="Fill-18" fill="#DA6F62"></path>
            <path d="M70.8210198,14.7815581 C70.8204533,17.4710765 70.8278187,20.1605949 70.8176204,22.84983 C70.812238,24.3203683 70.5470822,24.516119 69.2674788,23.9217847 C60.1674788,19.6948725 51.0762606,15.4489802 41.9756941,11.2234844 C40.8771105,10.7135694 40.1833428,9.93651558 40.336034,8.70592068 C40.5105382,7.2994051 41.5921246,6.79232295 42.8377337,6.61640227 C47.030085,6.02518414 51.2153541,5.3586119 55.424136,4.91470255 C59.6394334,4.47050992 63.8756941,4.19090652 68.1238527,4.23113314 C70.0045892,4.24898017 70.8028895,4.98580737 70.8164873,6.85492918 C70.8357507,9.49685552 70.8215864,12.1393484 70.8210198,14.7815581" id="Fill-20" fill="#DA6F62"></path>
            <path d="M74.2211615,14.7653824 C74.2211615,12.1228895 74.2109632,9.4803966 74.2248442,6.83790368 C74.2341926,5.02515581 75.011813,4.23847025 76.7888669,4.23790368 C85.3390085,4.23535411 93.7953824,5.24611898 102.218045,6.61184136 C103.459972,6.81325779 104.557705,7.31354108 104.718329,8.71240793 C104.876119,10.0891785 103.968187,10.8158074 102.805014,11.3549008 C93.8285269,15.5146742 84.8633711,19.6993768 75.8905666,23.8673654 C74.4837677,24.5209065 74.2265439,24.3588669 74.2180453,22.834221 C74.2035977,20.1447025 74.2140793,17.4549008 74.2140793,14.7653824 L74.2211615,14.7653824 Z" id="Fill-22" fill="#DA6F62"></path>
            <path d="M81.2739093,95.1733144 C81.7894901,94.6265722 82.0988385,94.2815297 82.426034,93.9543343 C93.2396317,83.1376204 104.055212,72.3226062 114.870227,61.5073088 C114.937082,61.4407365 114.993739,61.3571671 115.07221,61.3098584 C115.480708,61.0645326 115.738499,60.2104249 116.249263,60.6033428 C116.718102,60.963966 116.096572,61.5271388 115.900255,61.9727479 C114.26711,65.6806799 111.95238,68.8583003 109.005637,71.6863456 C103.489207,76.9809632 98.0991218,82.4112748 92.7781586,87.9027762 C90.3733428,90.3846459 87.5472805,92.1820963 84.5877904,93.8336544 C83.6356657,94.3650992 82.8155524,95.2667989 81.2739093,95.1733144" id="Fill-24" fill="#EFBE5C"></path>
            <path d="M99.5154674,83.020085 C101.603853,80.9268839 103.693938,78.8353824 105.783739,76.743881 C103.953428,79.0957224 101.896771,81.2206516 99.5154674,83.020085" id="Fill-26" fill="#EFBE5C"></path>
        </g>
    </g>
</svg>