<?xml version="1.0" encoding="UTF-8"?>
<svg width="89px" height="150px" viewBox="0 0 89 150" version="1.1" xmlns="http://www.w3.org/2000/svg" xmlns:xlink="http://www.w3.org/1999/xlink">
    <!-- Generator: Sketch 51.2 (57519) - http://www.bohemiancoding.com/sketch -->
    <title>mango</title>
    <desc>Created with Sketch.</desc>
    <defs></defs>
    <g id="Educationa-Content" stroke="none" stroke-width="1" fill="none" fill-rule="evenodd">
        <g id="mango" fill-rule="nonzero">
            <path d="M46.4974414,21.0793177 C46.4974414,9.43752665 37.0599147,0 25.4184435,0 C25.4181237,11.641791 34.8556503,21.0793177 46.4974414,21.0793177 Z" id="Shape" fill="#44C4A1"></path>
            <path d="M37.2022388,7.76002132 C37.215032,7.78880597 37.5630064,8.64371002 36.9754797,10.4222814 C33.9969083,7.3141791 30.4797441,4.03176972 27.0060768,1.72452026 L33.8123667,8.50554371 C32.0779318,8.86791045 31.3010661,8.4575693 31.2745203,8.44253731 C31.0586354,8.30724947 30.7730277,8.36929638 30.6342217,8.58358209 C30.4915778,8.79754797 30.5555437,9.09051173 30.7695096,9.23123667 C30.8920043,9.31183369 32.0302772,9.98507463 34.5735608,9.29168443 C34.5802772,9.28976546 34.5834755,9.28240938 34.5901919,9.28049041 L38.728145,13.4027719 C36.916951,13.8063966 36.106823,13.3803838 36.0796375,13.365032 C35.8637527,13.2297441 35.578145,13.291791 35.439339,13.5060768 C35.2947761,13.7184435 35.358742,14.0110874 35.5746269,14.1537313 C35.6971215,14.2343284 36.8353945,14.9075693 39.378678,14.2141791 C39.4192964,14.2033049 39.4416844,14.1684435 39.476226,14.1482942 L44.6555437,19.3081023 C44.6555437,19.3081023 41.7671642,15.5091684 37.6906183,11.1706823 C37.7002132,11.1530917 37.7200426,11.1454158 37.7273987,11.126226 C38.6641791,8.66257996 38.1044776,7.46449893 38.0360341,7.33464819 C37.9148188,7.10597015 37.6298507,7.01385928 37.4046908,7.1369936 C37.1779318,7.254371 37.0883795,7.53230277 37.2022388,7.76002132 Z" id="Shape" fill="#3EA69B"></path>
            <path d="M46.9183369,30.5385928 C48.4890192,21.3175906 58.9093817,15.6962687 59.4610874,15.4055437 C61.0563966,14.5720682 61.6759062,12.6047974 60.847548,11.0066098 C60.0166311,9.41130064 58.0442431,8.78667377 56.4460554,9.61759062 C50.7223881,12.5955224 41.5934968,20.1799574 40.3365672,30.5382729 L46.9183369,30.5382729 L46.9183369,30.5385928 Z" id="Shape" fill="#64798A"></path>
            <path d="M65.6075693,135.061087 C64.5118337,136.287633 63.311194,137.436141 62.00629,138.453838 C42.09371,153.95565 29.593177,150.928465 22.2598081,144.717377 C21.241791,143.856077 20.328678,142.916738 19.4932836,141.977079 C15.5785714,137.488273 13.5953092,131.668657 13.4123667,125.71823 C13.1776119,119.246162 11.8468017,107.815458 6.00063966,95.2624733 C-19.3135394,26.9651386 44.6254797,28.9746269 44.6254797,28.9746269 C50.8890192,28.7920043 56.2909382,29.7316631 60.8840085,31.4277186 C80.3008529,38.3958422 85.9375267,57.9428571 85.9375267,57.9428571 C85.9375267,57.9428571 100.447868,96.0450959 65.6075693,135.061087 Z" id="Shape" fill="#F6C358"></path>
            <path d="M56.9696162,130.624414 C55.8735608,131.850959 54.6470149,132.999467 53.3680171,133.990938 C39.7973348,144.586567 29.6712154,146.543923 22.2601279,144.717058 C21.2421109,143.855757 20.3289979,142.916418 19.4936034,141.976759 C15.5788913,137.487953 13.595629,131.668337 13.4126866,125.71791 C13.1779318,119.245842 11.8471215,107.815139 6.00095949,95.2621535 C-19.3135394,26.9651386 44.6254797,28.9746269 44.6254797,28.9746269 C50.8890192,28.7920043 56.2909382,29.7316631 60.8840085,31.4277186 C73.3583156,39.9876333 77.2730277,53.5061834 77.2730277,53.5061834 C77.2730277,53.5061834 91.8095949,91.6084222 56.9696162,130.624414 Z" id="Shape" fill="#FCD462"></path>
            <path d="M18.665565,67.1126866 C18.665565,78.7727079 22.9928571,88.2249467 20.5567164,88.2249467 C18.1205757,88.2249467 9.84275053,78.7727079 9.84275053,67.1126866 C9.84275053,55.4526652 18.1202559,46.0004264 20.5567164,46.0004264 C22.993177,46.0004264 18.665565,55.4526652 18.665565,67.1126866 Z" id="Shape" fill="#EBF0F3"></path>
        </g>
    </g>
</svg>