<?xml version="1.0" encoding="iso-8859-1"?>
<!-- Generator: Adobe Illustrator 19.0.0, SVG Export Plug-In . SVG Version: 6.00 Build 0)  -->
<svg version="1.1" id="Capa_1" xmlns="http://www.w3.org/2000/svg" xmlns:xlink="http://www.w3.org/1999/xlink" x="0px" y="0px"
	 viewBox="0 0 512 512" style="enable-background:new 0 0 512 512;" xml:space="preserve">
<g>
	<path style="fill:#FCBF29;" d="M421,226c0,57.9-47.1,105-105,105c-57.9,0-105-47.1-105-105s47.1-105,105-105
		C373.9,121,421,168.1,421,226z"/>
	<rect x="301" y="31" style="fill:#FCBF29;" width="30" height="60"/>
</g>
<g>
	<rect x="451" y="211" style="fill:#FE9923;" width="61" height="30"/>
	
		<rect x="417.673" y="79.325" transform="matrix(-0.7071 -0.7071 0.7071 -0.7071 661.3146 492.5697)" style="fill:#FE9923;" width="29.997" height="59.993"/>
</g>
<rect x="169.331" y="94.332" transform="matrix(-0.7071 -0.7071 0.7071 -0.7071 262.9659 327.5847)" style="fill:#FCBF29;" width="59.993" height="29.997"/>
<rect x="316" y="31" style="fill:#FE9923;" width="15" height="60"/>
<path style="fill:#FEA832;" d="M421,226c0,57.9-47.1,105-105,105V121C373.9,121,421,168.1,421,226z"/>
<path style="fill:#1DE8F1;" d="M331,241h-4.2c-13.5-52.2-60.899-90-115.8-90c-66.301,0-120,53.699-120,120v1.199
	c-50.7,7.2-91,51-91,103.801c0,57.9,48.1,105,106,105h225c66.301,0,120-53.701,120-120C451,294.699,397.301,241,331,241z"/>
<path style="fill:#1BD9DE;" d="M451,361c0,66.299-53.699,120-120,120H211V151c54.901,0,102.299,37.8,115.8,90h4.2
	C397.301,241,451,294.699,451,361z"/>
<g>
</g>
<g>
</g>
<g>
</g>
<g>
</g>
<g>
</g>
<g>
</g>
<g>
</g>
<g>
</g>
<g>
</g>
<g>
</g>
<g>
</g>
<g>
</g>
<g>
</g>
<g>
</g>
<g>
</g>
</svg>
