<?xml version="1.0" encoding="iso-8859-1"?>
<!-- Generator: Adobe Illustrator 19.0.0, SVG Export Plug-In . SVG Version: 6.00 Build 0)  -->
<svg version="1.1" id="Capa_1" xmlns="http://www.w3.org/2000/svg" xmlns:xlink="http://www.w3.org/1999/xlink" x="0px" y="0px"
	 viewBox="0 0 511.98 511.98" style="enable-background:new 0 0 511.98 511.98;" xml:space="preserve">
<path style="fill:#F2A88F;" d="M392.662,276.096c-0.619,15.812-13.942,28.143-29.761,27.521l-129.847-5.081
	c-6.565-0.257-12.841-2.76-17.78-7.093l-88.292-77.44c-11.901-10.438-13.087-28.548-2.648-40.45
	c10.439-11.901,28.549-13.087,40.45-2.648l80.657,70.745l119.7,4.684C380.96,246.954,393.281,260.278,392.662,276.096z"/>
<path style="fill:#6EAA50;" d="M164.783,170.905c-11.901-10.438-30.011-9.253-40.45,2.648c-10.438,11.901-9.253,30.011,2.648,40.45
	l53.589,47.003l30.295-49.682L164.783,170.905z"/>
<path style="fill:#FFB69E;" d="M500.172,431.26L356.586,290.067c-13.466-12.874-34.253-14.16-49.205-3.051l-86.144,64.012
	l-40.219-155.197c-6.443-24.86-31.507-40.07-56.533-34.308l-79.928,18.404c-22.263,5.127-36.154,27.329-31.028,49.592
	l49.193,213.875c11.224,48.796,68.883,69.974,109.022,40.042L327.08,367.606L447.351,486.51
	c15.26,14.586,39.451,14.041,54.036-1.216C515.973,470.038,515.428,445.846,500.172,431.26z"/>
<path style="fill:#3C5A73;" d="M262.222,320.574l-40.985,30.455l-40.219-155.197c-6.443-24.86-31.507-40.07-56.533-34.308
	l-79.928,18.404c-22.263,5.127-36.154,27.329-31.028,49.592l49.193,213.875c11.224,48.796,68.883,69.974,109.022,40.042
	l134.845-100.551L262.222,320.574z"/>
<path style="fill:#82BE50;" d="M13.528,229.519l49.83,216.413c3.576,13.328,10.669,24.481,19.902,32.945l137.978-127.848
	l-40.219-155.197c-6.443-24.86-31.507-40.07-56.533-34.308l-79.928,18.404C22.356,185.04,8.386,207.192,13.528,229.519z"/>
<g>
	<circle style="fill:#FFB69E;" cx="66.328" cy="81.066" r="66.328"/>
	<path style="fill:#FFB69E;" d="M108.343,362.61l-72.95-121.091c-8.169-13.56-3.799-31.174,9.761-39.344
		c13.56-8.169,31.173-3.8,39.344,9.761l63.776,105.863l103.709-8.491c15.741-1.297,29.615,10.451,30.906,26.229
		c1.293,15.778-10.451,29.615-26.229,30.907l-121.426,9.942C124.524,377.263,114.035,372.059,108.343,362.61z"/>
</g>
<path style="fill:#6EAA50;" d="M69.072,297.423l47.557-32.151l-32.131-53.335c-8.17-13.561-25.784-17.93-39.344-9.761
	c-13.56,8.169-17.93,25.784-9.761,39.344L69.072,297.423z"/>
<g>
</g>
<g>
</g>
<g>
</g>
<g>
</g>
<g>
</g>
<g>
</g>
<g>
</g>
<g>
</g>
<g>
</g>
<g>
</g>
<g>
</g>
<g>
</g>
<g>
</g>
<g>
</g>
<g>
</g>
</svg>
