<?xml version="1.0" encoding="iso-8859-1"?>
<!-- Generator: Adobe Illustrator 19.0.0, SVG Export Plug-In . SVG Version: 6.00 Build 0)  -->
<svg version="1.1" id="Capa_1" xmlns="http://www.w3.org/2000/svg" xmlns:xlink="http://www.w3.org/1999/xlink" x="0px" y="0px"
	 viewBox="0 0 512 512" style="enable-background:new 0 0 512 512;" xml:space="preserve">
<path style="fill:#FFB69E;" d="M346.777,260.392c1.808-8.216,1.099-16.786-2.034-24.593L286.707,91.182
	c-0.612-1.779-1.498-3.452-2.624-4.96L225.041,7.273c-5.997-8.018-17.357-9.658-25.377-3.661
	c-8.019,5.996-9.658,17.358-3.661,25.377l57.34,76.675l20.419,59.354l-143.146,67.708l43.341,55.372
	c15.853,20.254,43.815,26.471,66.757,14.844l66.869-33.89l-16.943,77.771c-0.364,1.67-0.49,3.383-0.374,5.089l5.831,85.764
	c0.677,9.968,9.302,17.536,19.318,16.858c9.99-0.679,17.537-9.328,16.858-19.318l-5.656-83.193L346.777,260.392z"/>
<path style="fill:#BA6746;" d="M344.743,235.799L286.707,91.182c-0.612-1.779-1.498-3.452-2.624-4.96L225.041,7.273
	c-5.997-8.018-17.357-9.658-25.377-3.661c-8.019,5.996-9.658,17.358-3.661,25.377l57.34,76.675l20.419,59.354l-143.146,67.708
	c0,0-8.872,4.303-10.179,17.049L91.315,484.848c-1.641,13.249,7.768,25.321,21.018,26.962c1.009,0.125,2.011,0.186,3.003,0.186
	c12.024,0,22.443-8.964,23.959-21.204l26.415-213.23l18.104,5.602l63.67,211.621C250.633,505.247,260.233,512,270.623,512
	c2.306,0,4.652-0.333,6.974-1.032c12.784-3.846,20.03-17.329,16.184-30.113l-53.468-177.711l67.269-34.093l-16.943,77.771
	c-0.364,1.67-0.49,3.383-0.374,5.089l5.831,85.764c0.677,9.968,9.302,17.536,19.318,16.858c9.99-0.679,17.537-9.328,16.858-19.318
	l-5.656-83.193l20.16-91.632C348.585,252.176,347.876,243.606,344.743,235.799z"/>
<path style="fill:#3C5A73;" d="M130.616,232.726c0,0-8.872,4.303-10.179,17.049l-14.711,118.751h48.716l11.269-90.964l18.104,5.602
	l25.683,85.363h50.487l-19.671-65.381l-72.583-87.974L130.616,232.726z"/>
<path style="fill:#FA503C;" d="M336.958,216.4c-2.352,0.984-4.874,1.539-7.424,1.539c-11.206,0-19.504-9.159-19.989-19.989
	c-0.366-8.174,5.292-15.422,12.599-18.463c-11.649-29.028-24.087-60.02-30.084-74.964l-34.327,13.903l16.029,46.592l-143.146,67.708
	l43.221,55.218c15.923,20.343,44.008,26.588,67.051,14.909l66.695-33.801l-10.681,49.028l35.481,7.74l14.395-65.428
	c1.808-8.216,1.099-16.786-2.034-24.593C342.784,230.918,340.099,224.227,336.958,216.4z"/>
<circle style="fill:#BA6746;" cx="378.916" cy="174.59" r="41.954"/>
<g>
</g>
<g>
</g>
<g>
</g>
<g>
</g>
<g>
</g>
<g>
</g>
<g>
</g>
<g>
</g>
<g>
</g>
<g>
</g>
<g>
</g>
<g>
</g>
<g>
</g>
<g>
</g>
<g>
</g>
</svg>
