<?xml version="1.0" encoding="iso-8859-1"?>
<!-- Generator: Adobe Illustrator 19.0.0, SVG Export Plug-In . SVG Version: 6.00 Build 0)  -->
<svg version="1.1" id="Capa_1" xmlns="http://www.w3.org/2000/svg" xmlns:xlink="http://www.w3.org/1999/xlink" x="0px" y="0px"
	 viewBox="0 0 464 464" style="enable-background:new 0 0 464 464;" xml:space="preserve">
<path style="fill:#E6E6E6;" d="M376,280H120c-4.418,0-8-3.582-8-8v-48c0-4.418,3.582-8,8-8h256c4.418,0,8,3.582,8,8v48
	C384,276.418,380.418,280,376,280z"/>
<path style="fill:#FBB03B;" d="M80,216h16v64H80V216z"/>
<path style="fill:#DA4836;" d="M232,0C103.87,0,0,103.87,0,232s103.87,232,232,232s232-103.87,232-232S360.13,0,232,0z M32,232
	C31.987,121.57,121.498,32.037,231.928,32.024c47.522-0.006,93.493,16.915,129.672,47.728L79.752,361.6
	C48.888,325.477,31.952,279.512,32,232L32,232z M232,432c-47.512,0.048-93.477-16.888-129.6-47.752L384.248,102.4
	c71.603,84.071,61.495,210.27-22.576,281.872C325.493,415.085,279.522,432.006,232,432L232,432z"/>
<path style="fill:#B3B3B3;" d="M96,200H80v-8c0-13.255,10.745-24,24-24h112c4.418,0,8-3.582,8-8s-3.582-8-8-8h-64
	c-13.255,0-24-10.745-24-24s10.745-24,24-24h40c4.418,0,8-3.582,8-8V80h16v16c0,13.255-10.745,24-24,24h-40c-4.418,0-8,3.582-8,8
	s3.582,8,8,8h64c13.255,0,24,10.745,24,24s-10.745,24-24,24H104c-4.418,0-8,3.582-8,8V200z"/>
<path style="fill:#F29200;" d="M376,280h-64c-4.418,0-8-3.582-8-8v-48c0-4.418,3.582-8,8-8h64c4.418,0,8,3.582,8,8v48
	C384,276.418,380.418,280,376,280z"/>
<g>
</g>
<g>
</g>
<g>
</g>
<g>
</g>
<g>
</g>
<g>
</g>
<g>
</g>
<g>
</g>
<g>
</g>
<g>
</g>
<g>
</g>
<g>
</g>
<g>
</g>
<g>
</g>
<g>
</g>
</svg>
