<svg height="512pt" viewBox="-79 0 512 512.00088" width="512pt" xmlns="http://www.w3.org/2000/svg"><path d="m50.820312 293.457031c20.6875 20.683594 54.226563 20.683594 74.910157 0 20.6875-20.6875 20.6875-54.226562 0-74.910156zm0 0" fill="#ff5023"/><path d="m50.820312 218.546875c-20.683593 20.679687-20.6875 54.21875-.003906 74.902344 0 .003906.003906.003906.003906.007812l74.910157-74.910156c-20.679688-20.6875-54.21875-20.691406-74.902344-.007813-.003906 0-.003906.003907-.007813.007813zm0 0" fill="#ff7754"/><path d="m50.820312 143.386719c20.6875 20.6875 54.226563 20.6875 74.910157 0 20.6875-20.6875 20.6875-54.226563 0-74.910157zm0 0" fill="#ff5023"/><path d="m50.820312 68.476562c-20.683593 20.679688-20.6875 54.21875-.003906 74.902344 0 .003906.003906.003906.003906.007813l74.910157-74.910157c-20.679688-20.6875-54.21875-20.6875-74.902344-.007812-.003906.003906-.003906.003906-.007813.007812zm0 0" fill="#ff7754"/><path d="m50.820312 443.523438c20.6875 20.6875 54.226563 20.6875 74.910157 0 20.6875-20.683594 20.6875-54.222657 0-74.910157zm0 0" fill="#ff5023"/><path d="m50.820312 368.613281c-20.683593 20.683594-20.6875 54.21875-.003906 74.90625 0 0 .003906.003907.003906.003907l74.910157-74.910157c-20.679688-20.6875-54.21875-20.6875-74.902344-.007812-.003906.003906-.003906.007812-.007813.007812zm0 0" fill="#ff7754"/><path d="m227.371094 293.457031c20.6875 20.683594 54.226562 20.683594 74.914062 0 20.683594-20.6875 20.683594-54.226562 0-74.910156zm0 0" fill="#ff5023"/><path d="m227.371094 218.546875c-20.683594 20.679687-20.6875 54.21875-.003906 74.902344 0 .003906.003906.003906.003906.007812l74.914062-74.910156c-20.683594-20.6875-54.21875-20.691406-74.90625-.007813 0 0-.003906.003907-.007812.007813zm0 0" fill="#ff7754"/><path d="m227.371094 143.386719c20.6875 20.6875 54.226562 20.6875 74.914062 0 20.683594-20.6875 20.683594-54.226563 0-74.910157zm0 0" fill="#ff5023"/><path d="m227.371094 68.476562c-20.683594 20.679688-20.6875 54.21875-.003906 74.902344 0 .003906.003906.003906.003906.007813l74.914062-74.910157c-20.683594-20.6875-54.21875-20.6875-74.90625-.007812 0 .003906-.003906.003906-.007812.007812zm0 0" fill="#ff7754"/><path d="m227.371094 368.613281c-20.683594 20.683594-20.6875 54.21875-.003906 74.90625 0 0 .003906.003907.003906.003907l74.914062-74.910157c-20.683594-20.6875-54.21875-20.6875-74.90625-.007812 0 .003906-.003906.007812-.007812.007812zm0 0" fill="#ff7754"/><path d="m227.371094 443.523438c20.6875 20.6875 54.226562 20.6875 74.914062 0 20.683594-20.683594 20.683594-54.222657 0-74.910157zm0 0" fill="#ff5023"/><path d="m176.550781 414.898438v-414.898438h-142.882812c-18.59375.00390625-33.66406275 15.074219-33.667969 33.667969v444.664062c.00390625 18.59375 15.074219 33.664063 33.667969 33.667969h142.882812zm-50.820312 28.625c-20.683594 20.683593-54.222657 20.679687-74.902344-.003907-20.683594-20.6875-20.679687-54.222656.003906-74.90625 20.683594-20.679687 54.214844-20.679687 74.898438 0 20.6875 20.683594 20.691406 54.21875.007812 74.90625-.003906 0-.003906.003907-.007812.003907zm0-150.066407c-20.683594 20.679688-54.222657 20.679688-74.902344-.007812-20.683594-20.683594-20.679687-54.222657.003906-74.902344 20.683594-20.679687 54.214844-20.679687 74.898438 0 20.6875 20.679687 20.691406 54.21875.007812 74.902344-.003906.003906-.003906.003906-.007812.007812zm0-150.070312c-20.683594 20.683593-54.222657 20.679687-74.902344-.007813-20.683594-20.683594-20.679687-54.222656.003906-74.902344 20.683594-20.679687 54.214844-20.679687 74.898438 0 20.6875 20.679688 20.691406 54.21875.007812 74.902344-.003906.003906-.003906.003906-.007812.007813zm0 0" fill="#c2b59b"/><path d="m319.4375 0h-142.886719v512h142.886719c18.589844-.003906 33.660156-15.074219 33.667969-33.667969v-444.664062c-.007813-18.59375-15.078125-33.66406275-33.667969-33.667969zm-17.152344 443.523438c-20.6875 20.683593-54.222656 20.679687-74.90625-.003907-20.683594-20.6875-20.679687-54.222656.007813-74.90625 20.683593-20.679687 54.214843-20.679687 74.898437 0 20.683594 20.683594 20.6875 54.21875.003906 74.90625 0 0-.003906.003907-.003906.003907zm0-150.066407c-20.6875 20.679688-54.222656 20.679688-74.90625-.007812-20.683594-20.683594-20.679687-54.222657.007813-74.902344 20.683593-20.679687 54.214843-20.679687 74.898437 0s20.6875 54.21875.003906 74.902344c0 .003906-.003906.003906-.003906.007812zm0-150.070312c-20.6875 20.683593-54.222656 20.679687-74.90625-.007813-20.683594-20.683594-20.679687-54.222656.007813-74.902344 20.683593-20.679687 54.214843-20.679687 74.898437 0 20.683594 20.679688 20.6875 54.21875.003906 74.902344 0 .003906-.003906.003906-.003906.007813zm0 0" fill="#d0c5b1"/><g fill="#aa9e88"><path d="m167.722656 450.207031h17.65625v61.792969h-17.65625zm0 0"/><path d="m167.722656 361.929688h17.65625v52.96875h-17.65625zm0 0"/><path d="m167.722656 273.65625h17.65625v52.964844h-17.65625zm0 0"/><path d="m167.722656 185.378906h17.65625v52.964844h-17.65625zm0 0"/><path d="m167.722656 97.105469h17.65625v52.964843h-17.65625zm0 0"/><path d="m167.722656 0h17.65625v61.792969h-17.65625zm0 0"/></g></svg>