<?xml version="1.0" encoding="UTF-8"?>
<svg width="1130px" height="1508px" viewBox="0 0 1130 1508" version="1.1" xmlns="http://www.w3.org/2000/svg" xmlns:xlink="http://www.w3.org/1999/xlink">
    <!-- Generator: Sketch 51.3 (57544) - http://www.bohemiancoding.com/sketch -->
    <title>smartphone</title>
    <desc>Created with Sketch.</desc>
    <defs>
        <polygon id="path-1" points="0 534.720243 773.986888 534.720243 773.986888 0 0 0"></polygon>
        <polygon id="path-3" points="0 534.720243 773.986888 534.720243 773.986888 0 0 0"></polygon>
        <polygon id="path-5" points="0 534.720243 773.986888 534.720243 773.986888 0 0 0"></polygon>
        <polygon id="path-7" points="0 534.720243 773.986888 534.720243 773.986888 0 0 0"></polygon>
        <polygon id="path-9" points="0 534.720243 773.986888 534.720243 773.986888 0 0 0"></polygon>
        <polygon id="path-11" points="0 534.720243 773.986888 534.720243 773.986888 0 0 0"></polygon>
    </defs>
    <g id="Page-1" stroke="none" stroke-width="1" fill="none" fill-rule="evenodd">
        <g id="Artboard-4" transform="translate(-11646.000000, -6834.000000)">
            <g id="smartphone" transform="translate(11646.000000, 6819.000000)">
                <rect id="Rectangle-path" fill="#C8D2D6" fill-rule="nonzero" x="483" y="1242" width="620" height="281"></rect>
                <path d="M904,1523 L483,1523 L483,1242 L731.021625,1242 C826.562312,1242 904,1317.18027 904,1409.93582 L904,1523 Z" id="Shape" fill="#E7ECED" fill-rule="nonzero"></path>
                <circle id="Oval" fill="#7383BF" fill-rule="nonzero" cx="723.5" cy="1377.5" r="64.5"></circle>
                <path d="M685.270069,295 C717.465682,280.847508 740,248.782453 740,211.39063 C740,160.91689 699.08311,120 648.60937,120 C611.191435,120 579.12638,142.534318 565,174.729931 L685.270069,295 Z" id="Shape" fill="#FBCE9D" fill-rule="nonzero"></path>
                <path d="M814.270069,424 C846.465682,409.847508 869,377.782453 869,340.39063 C869,289.91689 828.08311,249 777.60937,249 C740.191435,249 708.12638,271.534318 694,303.729931 L814.270069,424 Z" id="Shape" fill="#FBCE9D" fill-rule="nonzero"></path>
                <path d="M942.270069,552 C974.465682,537.847508 997,505.782453 997,468.39063 C997,417.91689 956.08311,377 905.60937,377 C868.191435,377 836.12638,399.534318 822,431.729931 L942.270069,552 Z" id="Shape" fill="#FBCE9D" fill-rule="nonzero"></path>
                <path d="M1071.27007,681 C1103.46568,666.847508 1126,634.782453 1126,597.39063 C1126,546.91689 1085.08311,506 1034.60937,506 C997.191435,506 965.12638,528.534318 951,560.729931 L1071.27007,681 Z" id="Shape" fill="#FBCE9D" fill-rule="nonzero"></path>
                <path d="M543.588235,880 L282.411765,880 C232.135294,880 191,837.925 191,786.5 C191,735.075 232.135294,693 282.411765,693 L543.588235,693 C593.864706,693 635,735.075 635,786.5 C635,837.925 593.864706,880 543.588235,880 Z" id="Shape" fill="#FBCE9D" fill-rule="nonzero"></path>
                <path d="M1078.50093,833 L789.326859,1118.97785 C766.026502,1142.02066 728.241437,1142.02066 704.967085,1118.97785 L453.188005,869.95595 L281.841965,869.95595 C266.811155,877.233983 225.801486,850.976485 241.534428,864.323832 L522.699003,1141.30058 C524.623362,1143.20367 526.859781,1144.56669 528.88816,1146.28976 L528.88816,1230 L1048.98541,1230 L1048.98541,1114.01438 C1096.28826,1078.80722 1127,1023.02611 1127,959.966962 C1126.974,911.283863 1108.58856,866.94701 1078.50093,833 Z" id="Shape" fill="#F7B563" fill-rule="nonzero"></path>
                <path d="M478.016975,85 L74,489.005896 L271.165062,686.165551 C274.411326,685.827949 277.553709,685.178714 280.851913,685.178714 L540.552996,685.178714 C590.545455,685.178714 631.448375,726.080513 631.448375,776.071601 C631.448375,826.062689 590.545455,866.964487 540.552996,866.964487 L451.968957,866.964487 L617.008995,1032 L1021,627.994104 L478.016975,85 Z" id="Shape" fill="#27BCBD" fill-rule="nonzero"></path>
                <g id="Group-5" transform="translate(461.343962, 464.757154) rotate(-46.000000) translate(-461.343962, -464.757154) translate(74.343962, 197.257154)">
                    <g id="Fill-17-Clipped">
                        <mask id="mask-2" fill="white">
                            <use xlink:href="#path-1"></use>
                        </mask>
                        <g id="path-1"></g>
                        <path d="M226.039768,296.493608 C226.145493,296.928369 226.37349,297.588595 226.82305,298.517403 C233.537022,308.894181 246.061252,315.373379 259.476326,315.373379 C279.877498,315.373379 296.448682,301.055905 297.204383,282.776176 L297.26414,281.361406 L298.18992,282.486036 C298.551222,282.925288 298.931831,283.464248 299.372197,284.089442 C300.094802,285.117957 300.99484,286.397988 302.237793,287.824435 C302.732401,288.39214 303.018317,288.605927 303.15438,288.684975 C303.187476,288.614012 303.221492,288.519694 303.244476,288.455019 C303.35112,288.161285 303.527634,287.669035 304.073724,287.669035 C304.470881,287.669035 304.760475,287.970853 304.990311,288.266383 C305.023407,288.305008 305.053745,288.342735 305.084084,288.380462 C304.76691,287.392369 304.161062,285.900348 303.569004,284.606844 C300.217994,277.811456 298.074083,274.906461 296.40823,274.906461 C295.294904,274.906461 294.058386,276.144272 292.490904,277.71085 C291.944813,278.256098 291.353675,278.847157 290.70094,279.452589 C287.816957,282.450105 284.48893,285.032622 284.453995,285.05957 C284.356544,285.142211 284.257255,285.230241 284.160724,285.320966 C284.638783,285.208682 285.07731,285.455706 285.127874,285.884179 C285.131552,286.041376 285.125116,286.135694 285.116842,286.221927 C285.0911,286.530033 285.090181,286.554286 285.306227,286.69711 C285.831173,286.948625 285.889091,287.294458 285.899204,287.618732 C285.900123,287.660951 285.901043,287.701373 285.906559,287.743591 C286.468278,287.453451 287.816957,286.315347 288.746414,285.532957 C289.437761,284.948185 290.15485,284.343652 290.816778,283.844215 C291.563285,283.234292 292.448614,282.645029 293.294411,282.194997 L294.37464,281.619208 L294.102515,282.750126 C290.421459,298.087133 275.472919,309.222048 258.55882,309.222048 L258.554223,309.222048 C258.303242,309.222048 258.049503,309.22115 257.795764,309.217557 C248.9103,309.048683 240.389816,305.832887 233.888212,300.287887 L232.088136,299.452499 C231.340708,299.103073 230.801973,298.898268 230.480202,298.841677 C230.505024,298.91803 230.548234,299.024025 230.617184,299.165053 L231.031809,300.00134 L229.88079,299.869294 C228.678287,299.739944 228.203905,299.561189 226.195138,296.693023 C226.139977,296.618467 226.087574,296.550199 226.039768,296.493608 M259.476326,316.396505 C245.676046,316.396505 232.794192,309.727772 225.851303,298.992586 C225.201326,297.660456 224.558705,295.99507 225.018377,295.331251 C225.159036,295.130937 225.387034,295.013264 225.641692,295.013264 C226.082058,295.013264 226.534376,295.356402 227.106208,296.123522 C228.364791,297.916462 228.886059,298.49315 229.34757,298.706937 C229.340215,298.521894 229.377908,298.342241 229.488229,298.181451 C229.629808,297.973952 230.084884,297.622729 231.12834,297.946105 C231.066744,297.7413 231.037325,297.54997 231.042841,297.367621 L231.075018,296.061542 L232.003556,297.040652 C238.535498,303.939341 247.944069,308.0031 257.818748,308.192634 C274.119644,308.5214 288.589206,298.215585 292.70695,283.757982 C292.296003,284.031055 291.894249,284.325686 291.523753,284.627504 C290.8701,285.121551 290.164962,285.717101 289.484647,286.291094 C287.248802,288.172963 286.069283,289.082907 285.264856,288.745159 L285.071794,288.664315 L284.988134,288.479272 C284.814378,288.101101 284.805184,287.828028 284.800588,287.650172 C284.834603,287.626817 284.8107,287.606156 284.733475,287.567531 C284.174514,287.203733 284.034774,286.822868 284.01179,286.501288 C283.959387,286.527338 283.908823,286.554286 283.864695,286.578539 C283.454667,286.791428 283.10072,286.976471 282.766998,286.976471 C282.549113,286.976471 282.401099,286.898322 282.311922,286.833647 L282.116102,286.685433 L282.067377,286.369243 C282.06186,286.197674 282.046232,285.739558 283.730471,284.288857 C283.785631,284.244842 287.053901,281.709933 289.904788,278.749246 C290.566716,278.133933 291.14958,277.55006 291.687397,277.0111 C293.504941,275.198398 294.817765,273.885132 296.40823,273.885132 C298.682689,273.885132 300.820164,276.582627 304.573848,284.192743 C306.817048,289.095483 306.42173,289.650612 306.273716,289.85901 C306.147765,290.037765 305.94459,290.139269 305.715673,290.139269 C305.371839,290.139269 305.009617,289.949734 304.205191,288.992182 C304.063612,289.32993 303.805276,289.752116 303.234363,289.752116 C302.71953,289.752116 302.167923,289.368556 301.384642,288.469391 C300.104914,287.001623 299.188328,285.699136 298.452852,284.650859 C298.368273,284.532288 298.286451,284.416411 298.207387,284.30323 C296.617841,302.415881 279.913352,316.396505 259.476326,316.396505" id="Fill-17" fill="#35B5AF" fill-rule="nonzero" mask="url(#mask-2)"></path>
                    </g>
                    <path d="M294.379922,230.216437 C294.570226,235.984208 292.576168,240.874373 288.262604,245.195934 C284.384809,249.165375 279.816587,251.097547 274.298681,251.097547 C273.930944,251.097547 273.559528,251.086767 273.155936,251.0697 C267.568161,250.887352 262.962245,248.809661 259.071579,244.717158 C255.181833,240.622858 253.258564,235.767726 253.353257,230.288299 C253.450707,224.670538 255.468669,220.046261 259.528494,216.155868 C263.557061,212.29332 268.36891,210.335099 273.8243,210.335099 L274.23065,210.338692 C279.810151,210.338692 284.405954,212.23134 288.276394,216.124428 C292.287494,220.158544 294.285229,224.759467 294.379922,230.216437 Z M306.483091,180.357242 L294.586774,180.357242 L294.586774,206.268645 C289.020144,201.656944 282.394428,199.192998 274.827304,198.933399 C265.71844,198.625293 257.778062,201.709941 251.223136,208.098415 C244.676484,214.37191 241.353973,222.029634 241.353973,230.854207 C241.353973,239.359895 244.41539,246.767003 250.456403,252.874318 C256.544302,259.029242 264.10499,262.258511 272.906794,262.473197 C273.33337,262.487569 273.755349,262.494755 274.176408,262.494755 C282.633458,262.494755 290.209775,259.446038 296.705863,253.421363 C303.415239,247.095768 306.705573,239.451518 306.483091,230.754499 L306.483091,180.357242 Z" id="Fill-1" fill="#FFFFFF" fill-rule="nonzero"></path>
                    <path d="M329.612422,201.577737 C327.953005,202.449955 326.499521,203.444336 325.2391,204.576152 L325.2391,200.338129 L313.760165,200.338129 L313.760165,261.180433 L326.174993,261.180433 L326.174993,225.165325 C326.174993,221.772571 326.730277,219.22329 327.851877,217.401605 C328.368548,216.59586 329.526003,215.211631 332.094651,213.19592 C334.061129,211.654494 336.658277,210.828089 339.818983,210.74455 L341.802009,210.688857 L341.802009,199.301529 L339.830016,199.238651 C336.342023,199.12008 333.024109,199.885403 329.612422,201.577737" id="Fill-3" fill="#FFFFFF" fill-rule="nonzero"></path>
                    <path d="M400.24165,230.061315 C400.3391,235.875796 398.309188,240.778536 394.019527,245.070454 C390.145409,249.039895 385.579026,250.97027 380.060201,250.97027 C379.691544,250.97027 379.319209,250.963084 378.91194,250.944221 C373.326922,250.763669 368.720087,248.684182 364.83126,244.592576 C360.955304,240.514445 359.118454,235.791359 359.215904,230.161022 C359.311516,224.543262 361.331316,219.922578 365.389302,216.030388 C369.475788,212.113945 374.151574,210.209619 379.680512,210.209619 L380.093297,210.212314 C385.602009,210.212314 390.161038,212.10586 394.033317,215.99805 C398.019594,220.007913 400.051346,224.619615 400.24165,230.061315 M380.584227,198.808817 C371.489153,198.50161 363.534065,201.580869 356.981897,207.972935 C350.432488,214.250921 347.110896,221.906849 347.110896,230.730524 C347.110896,239.235313 350.174152,246.641523 356.215164,252.748839 C362.303982,258.903763 369.864671,262.131235 378.663717,262.347717 C379.091212,262.361191 379.51503,262.369276 379.937009,262.369276 C388.467606,262.369276 395.981408,259.314271 402.268804,253.285104 C408.886246,246.940646 412.242772,239.317954 412.242772,230.630816 C412.242772,222.1916 409.143662,214.782695 403.047489,208.619687 C397.032219,202.433324 389.477046,199.13399 380.584227,198.808817" id="Fill-5" fill="#FFFFFF" fill-rule="nonzero"></path>
                    <path d="M473.088506,230.061315 C473.182279,235.875796 471.154205,240.778536 466.864544,245.070454 C462.988588,249.039895 458.422204,250.97027 452.906138,250.97027 C452.535642,250.97027 452.162388,250.963084 451.757876,250.944221 C446.170101,250.763669 441.566024,248.684182 437.674439,244.592576 C433.800322,240.514445 431.96531,235.791359 432.061841,230.161022 C432.157453,224.543262 434.176333,219.922578 438.235239,216.030388 C442.320806,212.113945 446.994753,210.209619 452.52369,210.209619 L452.937395,210.212314 C458.446107,210.212314 463.006975,212.10586 466.875576,215.99805 C470.865531,220.007913 472.895444,224.619615 473.088506,230.061315 M453.428325,198.808817 C444.326815,198.50161 436.379083,201.580869 429.825996,207.972935 C423.276586,214.250921 419.955914,221.906849 419.955914,230.730524 C419.955914,239.235313 423.019169,246.641523 429.058343,252.748839 C435.14808,258.903763 442.708769,262.131235 451.509653,262.347717 C451.938068,262.361191 452.360047,262.369276 452.780187,262.369276 C461.312623,262.369276 468.827345,259.314271 475.110144,253.285104 C481.729424,246.940646 485.085951,239.317954 485.085951,230.630816 C485.085951,222.1916 481.991438,214.782695 475.889749,208.619687 C469.877236,202.433324 462.319305,199.13399 453.428325,198.808817" id="Fill-7" fill="#FFFFFF" fill-rule="nonzero"></path>
                    <path d="M545.060846,229.847677 C545.156458,235.408846 543.28743,240.129238 539.342523,244.278332 C535.47668,248.343888 530.861571,250.456611 525.232425,250.732379 C524.877558,250.74765 524.525449,250.756632 524.177018,250.756632 L524.17334,250.756632 C518.790579,250.756632 514.192937,248.815478 510.138628,244.839749 C505.839773,240.538848 503.842038,235.610956 504.037858,229.749766 C504.130712,224.319743 506.127528,219.721515 510.138628,215.685603 C514.010907,211.790718 518.608548,209.898968 524.182534,209.898968 C529.952339,209.898968 534.722818,211.83114 538.785401,215.81675 C542.913257,219.777208 544.965234,224.367351 545.060846,229.847677 M523.590476,198.595179 C515.965433,198.855677 509.340637,201.309741 503.830087,205.895393 L503.830087,179.918417 L491.933769,179.918417 L491.933769,229.915945 L491.933769,230.266269 C491.712207,239.016286 495.001622,246.656045 501.710078,252.984334 C508.163876,259.068295 515.742032,262.155638 524.239533,262.155638 C524.660593,262.155638 525.084411,262.147553 525.510986,262.134079 C534.362435,261.811601 541.912091,258.549097 547.959539,252.436391 C554.068583,246.259909 557.166773,238.849208 557.166773,230.417178 C557.166773,221.660873 553.811166,214.003149 547.205676,207.670368 C540.702234,201.330402 532.724163,198.271803 523.590476,198.595179" id="Fill-9" fill="#FFFFFF" fill-rule="nonzero"></path>
                    <g id="Fill-11-Clipped">
                        <mask id="mask-4" fill="white">
                            <use xlink:href="#path-3"></use>
                        </mask>
                        <g id="path-1"></g>
                        <polygon id="Fill-11" fill="#FFFFFF" fill-rule="nonzero" mask="url(#mask-4)" points="563.373352 262.355878 575.269669 262.355878 575.269669 200.28744 563.373352 200.28744"></polygon>
                    </g>
                    <g id="Fill-13-Clipped">
                        <mask id="mask-6" fill="white">
                            <use xlink:href="#path-5"></use>
                        </mask>
                        <g id="path-1"></g>
                        <path d="M569.247503,194.230248 C573.135411,194.230248 576.288762,191.209377 576.288762,187.477976 C576.288762,183.750169 573.135411,180.726603 569.247503,180.726603 C565.359596,180.726603 562.206244,183.750169 562.206244,187.477976 C562.206244,191.209377 565.359596,194.230248 569.247503,194.230248" id="Fill-13" fill="#FFFFFF" fill-rule="nonzero" mask="url(#mask-6)"></path>
                    </g>
                    <g id="Fill-14-Clipped">
                        <mask id="mask-8" fill="white">
                            <use xlink:href="#path-7"></use>
                        </mask>
                        <g id="path-1"></g>
                        <path d="M258.176832,353.711584 C209.959975,353.711584 170.731547,315.148992 170.731547,267.750149 C170.731547,220.352205 209.959975,181.786917 258.176832,181.786917 C260.394291,181.786917 262.193448,183.548419 262.193448,185.721326 C262.193448,187.894233 260.394291,189.653938 258.176832,189.653938 C214.388457,189.653938 178.76386,224.690833 178.76386,267.750149 C178.76386,310.810363 214.388457,345.843666 258.176832,345.843666 C301.967047,345.843666 337.589805,310.810363 337.589805,267.750149 C337.589805,265.577242 339.388043,263.814842 341.60734,263.814842 C343.82296,263.814842 345.623036,265.577242 345.623036,267.750149 C345.623036,315.148992 306.394609,353.711584 258.176832,353.711584" id="Fill-14" fill="#FFFFFF" fill-rule="nonzero" mask="url(#mask-8)"></path>
                    </g>
                    <g id="Fill-15-Clipped">
                        <mask id="mask-10" fill="white">
                            <use xlink:href="#path-9"></use>
                        </mask>
                        <g id="path-1"></g>
                        <path d="M258.176832,183.269866 C210.792901,183.269866 172.24295,221.165945 172.24295,267.750059 C172.24295,314.333276 210.792901,352.232947 258.176832,352.232947 C305.561683,352.232947 344.113473,314.333276 344.113473,267.750059 C344.113473,266.39727 342.988195,265.295994 341.60734,265.295994 C340.226485,265.295994 339.101207,266.39727 339.101207,267.750059 C339.101207,311.627696 302.799053,347.324818 258.176832,347.324818 C213.554611,347.324818 177.253377,311.627696 177.253377,267.750059 C177.253377,223.872422 213.554611,188.174403 258.176832,188.174403 C259.557688,188.174403 260.683885,187.073128 260.683885,185.721236 C260.683885,184.370243 259.557688,183.269866 258.176832,183.269866 M258.176832,355.191838 C209.126129,355.191838 169.221065,315.965426 169.221065,267.750059 C169.221065,219.53559 209.126129,180.306484 258.176832,180.306484 C261.224459,180.306484 263.703931,182.734499 263.703931,185.721236 C263.703931,188.707973 261.224459,191.134192 258.176832,191.134192 C215.221383,191.134192 180.274343,225.502777 180.274343,267.750059 C180.274343,309.995546 215.221383,344.363232 258.176832,344.363232 C301.133201,344.363232 336.080241,309.995546 336.080241,267.750059 C336.080241,264.766017 338.558794,262.336205 341.60734,262.336205 C344.654967,262.336205 347.134439,264.766017 347.134439,267.750059 C347.134439,315.965426 307.228455,355.191838 258.176832,355.191838" id="Fill-15" fill="#FFFFFF" fill-rule="nonzero" mask="url(#mask-10)"></path>
                    </g>
                    <g id="Fill-16-Clipped">
                        <mask id="mask-12" fill="white">
                            <use xlink:href="#path-11"></use>
                        </mask>
                        <g id="path-1"></g>
                        <path d="M304.074552,284.407339 C296.959745,269.979378 295.852854,273.933548 290.313804,279.091396 C287.400402,282.11586 284.104552,284.663345 284.104552,284.663345 C284.104552,284.663345 282.332056,286.1895 282.656584,286.435625 C282.981113,286.678157 284.516418,285.38106 284.582611,285.942477 C284.578014,286.397898 284.411613,286.735646 284.989881,287.115613 C285.587454,287.409346 285.17283,287.580017 285.493681,288.280665 C286.270527,288.610329 289.025803,285.855345 291.163278,284.242058 C291.8629,283.669862 292.716971,283.09048 293.567364,282.637753 C289.922163,297.825648 275.185072,309.036017 257.808543,308.706353 C247.33721,308.505141 238.006783,304.155734 231.592517,297.380107 C231.583323,297.716059 231.743289,298.224478 232.333509,298.992496 C230.948056,298.349337 229.286801,297.702585 230.116969,299.378751 C229.010078,299.251197 228.733356,299.378751 226.655637,296.415369 C225.275701,294.568532 224.863835,295.721907 226.322835,298.726609 C232.954066,308.982121 245.312813,315.884403 259.476234,315.884403 C280.15229,315.884403 296.992842,301.183369 297.753139,282.795848 C298.689032,283.929461 299.798681,285.836481 301.810206,288.146823 C304.379774,291.096731 303.29127,286.958416 304.546175,288.566314 C307.756526,292.455809 304.074552,284.407339 304.074552,284.407339" id="Fill-16" fill="#FFFFFF" fill-rule="nonzero" mask="url(#mask-12)"></path>
                    </g>
                </g>
                <g id="Group" transform="translate(0.000000, 15.000000)" fill="#E7ECED" fill-rule="nonzero">
                    <path d="M480.847136,75.2250112 L423.104364,17.4978219 C399.767636,-5.83260731 361.923591,-5.83260731 338.612909,17.4978219 L17.9152273,338.082917 C-5.4215,361.413346 -5.4215,399.247178 17.9152273,422.577607 L75.658,480.304797 L480.847136,75.2250112 Z" id="Shape"></path>
                    <path d="M1112.08477,706.31833 L1025.4055,619.66245 L620.242409,1024.74224 L706.895636,1111.37208 C730.232364,1134.70251 768.076409,1134.70251 791.387091,1111.37208 L1112.05873,790.786982 C1135.4215,767.482591 1135.4215,729.648759 1112.08477,706.31833 Z" id="Shape"></path>
                </g>
                <circle id="Oval" fill="#FFFFFF" fill-rule="nonzero" cx="886.5" cy="885.5" r="52.5"></circle>
                <path d="M217.253281,307 C210.534121,307 203.814961,304.427661 198.69685,299.309231 C188.434383,289.046122 188.434383,272.457159 198.69685,262.19405 L251.190289,209.697331 C261.452756,199.434223 278.040682,199.434223 288.30315,209.697331 C298.565617,219.96044 298.565617,236.549403 288.30315,246.812512 L235.809711,299.309231 C230.691601,304.427661 223.972441,307 217.253281,307 Z" id="Shape" fill="#424A60" fill-rule="nonzero"></path>
            </g>
        </g>
    </g>
</svg>