<?xml version="1.0" encoding="UTF-8"?>
<svg width="2346px" height="2757px" viewBox="0 0 2346 2757" version="1.1" xmlns="http://www.w3.org/2000/svg" xmlns:xlink="http://www.w3.org/1999/xlink">
    <!-- Generator: Sketch 51.3 (57544) - http://www.bohemiancoding.com/sketch -->
    <title>heart (1)</title>
    <desc>Created with Sketch.</desc>
    <defs></defs>
    <g id="Page-1" stroke="none" stroke-width="1" fill="none" fill-rule="evenodd">
        <g id="Artboard-4" transform="translate(-8206.000000, -15167.000000)" fill-rule="nonzero">
            <g id="heart-(1)" transform="translate(8206.053640, 15167.000000)">
                <g id="Group">
                    <path d="M2062.65754,1362.91898 C1851.83051,1173.15329 1352.96346,863.970468 1662.11384,772.596677 C1971.29334,681.252006 2016.17834,626.745148 1950.21209,554.79493 C1856.43111,452.486278 1451.31592,498.941235 1399.07141,442.840013 C1346.82689,386.702389 1521.56976,35.1124052 1521.56976,35.1124052 L1317.78922,0 C1317.78922,0 1296.70797,393.509377 1212.39026,393.509377 C1128.07255,393.509377 1163.21767,0 1163.21767,0 C1099.94481,49.1777518 959.437132,0 959.437132,0 C959.437132,0 1106.99131,421.603669 1008.60972,421.603669 C910.25726,421.603669 818.922173,70.2612113 818.922173,70.2612113 C776.73056,140.522423 685.024221,147.540536 685.024221,147.540536 C768.970681,274.034013 734.604462,507.247943 734.604462,507.247943 C608.160653,642.069969 638.727006,885.592663 638.727006,885.592663 L639.258405,885.658185 C626.854246,1016.28682 698.614929,1288.12221 643.269375,1407.32092 C565.932643,1573.71718 390.316242,1861.85294 601.10688,2206.17728 C811.897517,2550.50163 1307.75816,3045.13298 2062.65026,2543.51992 C2484.10051,2263.4579 2273.45546,1552.65556 2062.65754,1362.91898 Z" id="Shape" fill="#ED5145"></path>
                    <path d="M618.913343,616.259747 C618.913343,616.259747 705.068815,458.151529 501.30417,451.103788 C297.481278,444.085169 355.313857,794.863205 313.208128,949.52764 C270.978623,1104.12655 -38.1996052,1350.11311 3.93524793,1687.41453 C46.1647534,2024.75234 467.819085,2088 467.819085,2088 C467.819085,2088 351.840845,1793.45828 485.366172,1554.52674 C618.920624,1315.55879 643.51567,1321.98039 594.296454,1139.27789 C545.106361,956.509855 618.913343,616.259747 618.913343,616.259747 Z" id="Shape" fill="#ED5145"></path>
                    <path d="M1821.29116,773.004376 C1890.94419,772.093651 1952.45927,913.671317 2102.39272,885.548129 C2252.26066,857.395797 2297.14315,810.526246 2297.14315,810.526246 C2297.14315,810.526246 2313.17886,927.76934 2346,946.48656 C2346,946.48656 2092.99549,993.385255 2121.12166,1044.95415 C2149.24783,1096.4939 2297.14315,1157.43233 2297.14315,1157.43233 C2297.14315,1157.43233 2191.34246,1284.83911 2210.1078,1336 C2210.1078,1336 1746.38267,1073.01176 1685.49359,979.243517 C1624.6045,885.548129 1652.44679,775.292117 1821.29116,773.004376 Z" id="Shape" fill="#ED5145"></path>
                    <path d="M1703.82299,2506.73348 C1793.50266,2641.32333 1459.01778,2221.60834 1398.79711,2086.55251 C1338.51822,1951.49668 1219.08844,2253.72497 1219.08844,2337.99561 C1219.08844,2337.99561 1183.98943,2204.4688 1282.37291,1986.64222 C1282.37291,1986.64222 1240.22208,1670.34698 1162.91402,1536.82017 C1085.69329,1403.29336 896,1810.91455 896,1951.46028 C896,1951.46028 917.075415,1522.7241 1085.69329,1403.27151 C1085.69329,1403.27151 966.292622,960.504786 1022.47432,819.929936 C1078.64875,679.391491 1162.91402,588 1162.91402,588 C1162.91402,588 1064.58877,770.739296 1085.69329,946.430555 C1106.76871,1122.12181 1141.9041,1269.40249 1141.9041,1269.40249 C1141.9041,1269.40249 1457.97711,1262.69666 1563.38329,1382.15653 C1563.38329,1382.15653 1247.21568,1310.44566 1184.02582,1335.79093 C1184.02582,1335.79093 1233.2212,1494.663 1299.91877,1684.38481 C1366.64546,1874.14302 1549.2942,1937.39333 1703.83026,1965.52723 C1703.83026,1965.52723 1466.0696,1965.52723 1398.80439,1902.24051 C1398.80439,1902.30604 1647.64856,2422.39731 1703.82299,2506.73348 Z" id="Shape" fill="#DD423A"></path>
                </g>
            </g>
        </g>
    </g>
</svg>