<?xml version="1.0" encoding="iso-8859-1"?>
<!-- Generator: Adobe Illustrator 19.0.0, SVG Export Plug-In . SVG Version: 6.00 Build 0)  -->
<svg version="1.1" id="Capa_1" xmlns="http://www.w3.org/2000/svg" xmlns:xlink="http://www.w3.org/1999/xlink" x="0px" y="0px"
	 viewBox="0 0 512 512" style="enable-background:new 0 0 512 512;" xml:space="preserve">
<rect x="394.608" y="125.06" transform="matrix(-0.7071 -0.7071 0.7071 -0.7071 584.4214 566.8355)" style="fill:#A1A1A7;" width="29.997" height="74.639"/>
<g>
	
		<rect x="65.073" y="147.39" transform="matrix(-0.7071 -0.7071 0.7071 -0.7071 59.9703 349.6163)" style="fill:#BABAC0;" width="74.639" height="29.997"/>
	<rect x="240.998" y="76" style="fill:#BABAC0;" width="30" height="105"/>
</g>
<rect x="255.998" y="76" style="fill:#A1A1A7;" width="15" height="105"/>
<path style="fill:#00C0F1;" d="M255.998,121c-107.401,0-195,87.599-195,195s87.599,196,195,196s195-88.599,195-196
	S363.399,121,255.998,121z"/>
<path style="fill:#00ABE9;" d="M450.998,316c0,107.401-87.599,196-195,196V121C363.399,121,450.998,208.599,450.998,316z"/>
<path style="fill:#EDE9E8;" d="M255.998,151c-85.84,0-156.7,66.09-164.32,150c-0.45,4.94-0.68,9.94-0.68,15s0.23,10.06,0.68,15
	c7.62,83.91,78.48,150,164.32,150c90.9,0,165-74.1,165-165S346.898,151,255.998,151z"/>
<path style="fill:#DFD7D5;" d="M420.998,316c0,90.901-74.099,165-165,165V151C346.899,151,420.998,225.099,420.998,316z"/>
<path style="fill:#5A5A5A;" d="M120.998,301v30h-29.32c-0.45-4.94-0.68-9.94-0.68-15s0.23-10.06,0.68-15H120.998z"/>
<path style="fill:#DFD7D5;" d="M255.998,0c-41.4,0-75,34.6-75,76v15h150V76C330.998,34.6,297.398,0,255.998,0z"/>
<rect x="393.571" y="120.988" transform="matrix(-0.7071 -0.7071 0.7071 -0.7071 648.1339 540.439)" style="fill:#D2C5C2;" width="84.849" height="29.997"/>
<rect x="61.006" y="93.569" transform="matrix(-0.7071 -0.7071 0.7071 -0.7071 33.5858 285.8989)" style="fill:#DFD7D5;" width="29.997" height="84.849"/>
<path style="fill:#D2C5C2;" d="M330.998,76v15h-75V0C297.398,0,330.998,34.6,330.998,76z"/>
<path style="fill:#77DD00;" d="M255.998,181h-15v128.699l-90.901,91.199l10.501,10.502c25.499,25.499,59.4,39.6,95.4,39.6
	c74.399,0,135-60.601,135-135C390.998,241.599,330.397,181,255.998,181z"/>
<path style="fill:#66BB00;" d="M390.998,316c0,74.399-60.601,135-135,135V181C330.397,181,390.998,241.599,390.998,316z"/>
<g>
</g>
<g>
</g>
<g>
</g>
<g>
</g>
<g>
</g>
<g>
</g>
<g>
</g>
<g>
</g>
<g>
</g>
<g>
</g>
<g>
</g>
<g>
</g>
<g>
</g>
<g>
</g>
<g>
</g>
</svg>
