<?xml version="1.0" encoding="iso-8859-1"?>
<!-- Generator: Adobe Illustrator 19.0.0, SVG Export Plug-In . SVG Version: 6.00 Build 0)  -->
<svg version="1.1" id="Capa_1" xmlns="http://www.w3.org/2000/svg" xmlns:xlink="http://www.w3.org/1999/xlink" x="0px" y="0px"
	 viewBox="0 0 512 512" style="enable-background:new 0 0 512 512;" xml:space="preserve">
<g>
	<path style="fill:#FFB69E;" d="M172.364,511.319c-13.665-3.213-22.138-16.897-18.925-30.563L202.7,271.282
		c3.215-13.665,16.897-22.141,30.563-18.925c13.666,3.213,22.139,16.897,18.926,30.563l-49.261,209.474
		C199.709,506.077,186.012,514.529,172.364,511.319z"/>
	<path style="fill:#FFB69E;" d="M308.988,492.395l-49.261-209.474c-3.213-13.666,5.26-27.349,18.926-30.563
		c13.66-3.216,27.348,5.259,30.563,18.925l49.261,209.474c3.213,13.666-5.26,27.349-18.925,30.563
		C325.947,514.52,312.216,506.12,308.988,492.395z"/>
</g>
<g>
	<path style="fill:#3C5A73;" d="M232.577,366.313l19.611-83.393c3.213-13.666-5.26-27.349-18.926-30.563
		c-13.665-3.216-27.348,5.26-30.563,18.925l-20.061,85.305L232.577,366.313z"/>
	<path style="fill:#3C5A73;" d="M279.338,366.313l49.568-11.298l-19.691-83.732c-3.215-13.666-16.902-22.141-30.563-18.925
		c-13.666,3.213-22.139,16.897-18.926,30.563L279.338,366.313z"/>
</g>
<path style="fill:#FFB69E;" d="M479.125,94.086c-3.829-10.094-15.119-15.172-25.212-11.341l-64.585,24.509l-77.232-6.075H199.897
	l-77.231,6.075L58.081,82.745c-10.097-3.832-21.382,1.248-25.212,11.341c-3.831,10.094,1.247,21.382,11.341,25.213l68.684,26.064
	c2.66,1.01,5.552,1.442,8.469,1.212l78.535-6.177v142.439h112.199v-142.44l78.535,6.177c2.819,0.222,5.717-0.167,8.469-1.212
	l68.684-26.064C477.878,115.468,482.956,104.18,479.125,94.086z"/>
<path style="fill:#FFA50A;" d="M312.096,101.179h-34.435c0.43,12.174-10.88,22.508-22.689,22.508
	c-12.656,0-22.04-10.295-22.674-22.508h-32.4l-51.572,4.057v39.218l51.572-4.057v142.439h112.199V140.397l52.189,4.105v-39.218
	L312.096,101.179z"/>
<circle style="fill:#FFB69E;" cx="255.997" cy="43.901" r="43.901"/>
<rect x="45.8" y="67.212" transform="matrix(-0.7912 -0.6116 0.6116 -0.7912 40.965 219.4839)" style="fill:#6C9BAA;" width="24.307" height="71.072"/>
<g>
	<circle style="fill:#A5C8CD;" cx="31.762" cy="136.63" r="20.14"/>
	<circle style="fill:#A5C8CD;" cx="85.627" cy="66.939" r="20.14"/>
</g>
<rect x="418.519" y="90.143" transform="matrix(-0.6116 -0.7912 0.7912 -0.6116 650.8126 524.0986)" style="fill:#6C9BAA;" width="71.072" height="24.307"/>
<g>
	<circle style="fill:#A5C8CD;" cx="480.237" cy="136.16" r="20.14"/>
	<circle style="fill:#A5C8CD;" cx="426.367" cy="66.47" r="20.14"/>
</g>
<g>
</g>
<g>
</g>
<g>
</g>
<g>
</g>
<g>
</g>
<g>
</g>
<g>
</g>
<g>
</g>
<g>
</g>
<g>
</g>
<g>
</g>
<g>
</g>
<g>
</g>
<g>
</g>
<g>
</g>
</svg>
