<?xml version="1.0" encoding="UTF-8"?>
<svg width="1519px" height="2030px" viewBox="0 0 1519 2030" version="1.1" xmlns="http://www.w3.org/2000/svg" xmlns:xlink="http://www.w3.org/1999/xlink">
    <!-- Generator: Sketch 52.2 (67145) - http://www.bohemiancoding.com/sketch -->
    <title>blood-pressure-gauge (1)</title>
    <desc>Created with Sketch.</desc>
    <g id="Page-1" stroke="none" stroke-width="1" fill="none" fill-rule="evenodd">
        <g id="Artboard" transform="translate(-2891.000000, -3006.000000)" fill-rule="nonzero">
            <g id="blood-pressure-gauge-(1)" transform="translate(2891.000000, 3006.000000)">
                <path d="M1481.6735,1409.66952 L1375.16409,1418 L1362,1251.39043 L1468.50942,1243.05995 C1491.24738,1241.86988 1510.39514,1258.53084 1512.78861,1281.14214 L1518.77229,1366.82706 C1521.16576,1388.24829 1504.41147,1407.28938 1481.6735,1409.66952 Z" id="Shape" fill="#BCBFC2"></path>
                <path d="M314.390644,843.807578 C269.181298,884.328441 214.454195,914.123194 170.434568,955.835848 C133.55326,991.589551 101.43083,1035.68578 77.6364369,1082.1656 C27.6682122,1177.50881 5.06353917,1284.76992 0.304660632,1390.83924 C-3.26449827,1507.63467 24.0990533,1614.89578 104.999989,1701.89645 C182.331765,1785.32176 290.596252,1827.03442 402.429897,1837.76053 C446.449524,1842.52769 445.259804,1774.59565 402.429897,1769.82849 C302.493448,1759.10238 204.936438,1716.19794 139.501858,1637.53979 C71.6878387,1554.11448 62.1700816,1452.81232 70.4981191,1349.12658 C78.8261565,1259.74232 102.620549,1169.16628 149.019615,1092.89171 C172.814008,1052.37085 202.556999,1016.61714 238.248588,986.822391 C277.509336,953.452268 323.908401,927.232885 361.97943,892.670972 C395.291579,862.876219 346.513074,815.204615 314.390644,843.807578 Z" id="Shape" fill="#0B2C48"></path>
                <path d="M256.070841,665.064413 C219.156128,716.325878 175.096631,766.395215 145.326701,822.425187 C121.510756,867.726016 114.365973,922.563862 107.22119,972.633199 C92.9316231,1071.57975 92.9316231,1176.48693 142.945106,1267.08859 C253.689247,1468.55806 512.092243,1470.94232 710.955377,1459.02105 C755.014874,1456.63679 755.014874,1388.68555 710.955377,1391.0698 C537.098984,1400.60682 298.939541,1411.33596 201.29417,1232.5169 C156.043875,1150.26013 161.997862,1050.12146 177.478225,960.711928 C184.623009,916.603226 191.767792,873.686651 216.774533,835.538585 C247.735261,789.045629 281.077583,744.936927 314.419905,699.636099 C340.617444,663.872286 282.26838,629.300601 256.070841,665.064413 Z" id="Shape" fill="#36505F"></path>
                <path d="M464.617774,674.804386 C428.854694,661.689813 399.052128,639.037369 369.249562,616.384925 C344.215406,597.309183 320.373353,578.23344 298.915505,555.580996 C276.265554,530.544084 259.576117,501.930471 241.694577,474.509091 C229.773551,454.241115 216.660421,432.780905 211.892011,408.936227 C199.970984,346.940064 246.462988,289.712837 292.954991,247.984651 C425.278387,129.953495 592.172759,48.8815898 767.411849,17.8835085 C842.514317,4.76893559 917.616784,0 993.911355,0 C1084.51116,0 1178.68727,5.96116949 1260.94235,46.497122 C1295.51333,63.1883966 1327.7001,87.0330745 1347.96584,119.22339 C1373,160.951576 1373,212.217634 1373,261.099224 C1373,379.130379 1373,498.353769 1373,616.384925 C1300.28174,591.348013 1225.17927,573.464505 1148.8847,565.118867 C1104.7769,560.349932 1059.477,557.965464 1015.3692,565.118867 C946.227248,575.848972 883.045807,609.231522 817.480161,634.268433 C753.106618,658.113111 686.348869,674.804386 617.206915,683.150023 C565.9465,691.49566 513.493983,692.687894 464.617774,674.804386 Z" id="Shape" fill="#2C424F"></path>
                <path d="M982.549296,246.980613 C978.974648,243.403841 974.208451,241.019327 970.633803,238.634813 C912.247887,204.059357 835.988732,231.48127 784.752113,275.594783 C733.515493,319.708296 696.577465,379.321151 645.340845,423.434664 C583.380282,475.893977 501.16338,503.31589 420.138028,497.354604 C339.112676,491.393319 267.619718,469.932691 214,409.127579 C254.512676,568.890031 277.152113,716.729912 293.833803,880.069135 C298.6,928.951676 305.749296,982.603246 342.687324,1013.60193 C371.284507,1036.25482 410.605634,1041.02384 446.352113,1039.83159 C613.169014,1037.44707 776.411268,961.142618 886.033803,834.763365 C900.332394,818.071765 913.439437,800.187909 932.504225,789.457595 C968.250704,767.996967 1014.72113,772.765995 1052.8507,790.649852 C1055.2338,779.919538 1057.6169,767.996967 1060,757.266653 L982.549296,246.980613 Z" id="Shape" fill="#9EA8AD"></path>
                <g id="Group" transform="translate(931.000000, 136.000000)" fill="#527F99">
                    <path d="M375.822743,681.263856 C397.272231,647.891368 413.955167,616.902629 423.488273,578.762642 C434.213017,537.047032 438.97957,486.988299 441.362847,444.080814 C444.937761,371.376465 443.746123,295.096491 441.362847,222.392142 C440.171208,146.112169 453.279229,73.4078191 423.488273,0.703469631 C443.746123,113.931555 381.780934,209.281522 292.408065,258.148379 C205.418473,307.015237 95.7877539,286.753369 0.456693847,254.572756 C14.7563529,401.173329 29.0560119,546.582028 43.3556709,693.182602 C45.7389474,713.44447 48.1222239,734.898212 61.2302446,750.392582 C73.1466271,763.503202 89.8295626,769.462575 106.512498,773.038199 C205.418473,795.683816 321.007383,767.078826 375.822743,681.263856 Z" id="Shape"></path>
                    <path d="M549.801927,1168.74056 L508.094589,1172.31618 C503.328036,1172.31618 499.753121,1168.74056 499.753121,1165.16494 C499.753121,1160.39744 503.328036,1156.82181 506.90295,1156.82181 L548.610289,1153.24619 C553.376842,1153.24619 556.951757,1156.82181 556.951757,1160.39744 C556.951757,1163.97306 554.56848,1168.74056 549.801927,1168.74056 Z" id="Shape"></path>
                    <path d="M553.376842,1225.95054 L511.669503,1229.52616 C506.90295,1229.52616 503.328036,1225.95054 503.328036,1222.37492 C503.328036,1217.60742 506.90295,1214.03179 510.477865,1214.03179 L552.185204,1210.45617 C556.951757,1210.45617 560.526672,1214.03179 560.526672,1217.60742 C561.71831,1222.37492 558.143395,1225.95054 553.376842,1225.95054 Z" id="Shape"></path>
                </g>
                <path d="M641.55088,1345.41012 L754.778798,1324 L781,1486.95477 L667.772082,1508.36488 C651.085863,1511.93324 635.591516,1500.03873 632.015898,1483.38642 L615.329678,1381.09364 C612.945933,1364.44133 623.672788,1348.97847 641.55088,1345.41012 Z" id="Shape" fill="#BCBFC2"></path>
                <g id="Group" transform="translate(644.000000, 1383.000000)" fill="#527F99">
                    <path d="M15.9235628,63.0285714 L57.5494737,55.9428571 C62.3067206,54.7619048 65.8746559,58.3047619 67.0639676,63.0285714 C68.2532794,67.752381 64.6853441,71.2952381 61.1174089,72.4761905 L19.491498,79.5619048 C14.734251,80.7428571 11.1663158,77.2 9.97700405,72.4761905 C8.78769231,67.752381 11.1663158,64.2095238 15.9235628,63.0285714 Z" id="Shape"></path>
                    <path d="M6.40906883,7.52380952 L48.0349798,0.438095238 C52.7922267,-0.742857143 56.3601619,2.8 57.5494737,7.52380952 C58.7387854,12.247619 55.1708502,15.7904762 51.602915,16.9714286 L9.97700405,24.0571429 C5.21975709,25.2380952 1.65182186,21.6952381 0.462510121,16.9714286 C-0.726801619,12.247619 2.8411336,8.7047619 6.40906883,7.52380952 Z" id="Shape"></path>
                </g>
                <ellipse id="Oval" fill="#0B2C48" transform="translate(1066.500000, 1367.500000) rotate(-95.227110) translate(-1066.500000, -1367.500000) " cx="1066.5" cy="1367.5" rx="214.5" ry="357.5"></ellipse>
                <path d="M523,1443.32733 C523,1461.1892 527.763992,1477.86027 530.145987,1494.53134 C532.527983,1512.39321 532.527983,1530.25507 533.718981,1548.11694 C534.909979,1576.69592 580.1679,1577.88671 578.976902,1548.11694 C577.785904,1530.25507 577.785904,1512.39321 575.403908,1494.53134 C573.021912,1477.86027 568.257921,1459.9984 568.257921,1443.32733 C568.257921,1413.55756 523,1413.55756 523,1443.32733 Z" id="Shape" fill="#2C424F"></path>
                <path d="M486.33209,1619.27708 C529.212006,1613.31465 566.136378,1594.2349 611.398511,1604.96726 C668.571732,1619.27708 692.393908,1531.03323 635.220687,1516.72342 C605.442967,1509.56851 576.856357,1508.37603 547.078637,1511.95348 C518.492027,1515.53093 491.096525,1526.26329 462.509914,1531.03323 C438.687739,1534.61068 424.394434,1565.61528 430.349977,1587.08 C437.49663,1613.31465 462.509914,1622.85453 486.33209,1619.27708 Z" id="Shape" fill="#4F6673"></path>
                <path d="M436.80412,1728 L553,1733.94406 L541.021043,1898 L424.825163,1892.05594 C408.054624,1890.86713 394.877772,1876.6014 396.075667,1859.95804 L403.263041,1756.53147 C405.658833,1739.88811 420.033581,1728 436.80412,1728 Z" id="Shape" fill="#BCBFC2"></path>
                <g id="Group" transform="translate(424.000000, 1774.000000)" fill="#527F99">
                    <path d="M8.89147287,57.0408163 L50.9457364,59.4081633 C55.751938,59.4081633 59.3565891,62.9591837 58.1550388,67.6938776 C58.1550388,72.4285714 54.5503876,74.7959184 49.744186,74.7959184 L7.68992248,72.4285714 C2.88372093,72.4285714 -0.720930233,68.877551 0.480620155,64.1428571 C0.480620155,59.4081633 4.08527132,55.8571429 8.89147287,57.0408163 Z" id="Shape"></path>
                    <path d="M12.496124,0.224489796 L54.5503876,2.59183673 C59.3565891,2.59183673 62.9612403,6.14285714 61.7596899,10.877551 C61.7596899,15.6122449 58.1550388,17.9795918 53.3488372,17.9795918 L11.2945736,15.6122449 C6.48837209,15.6122449 2.88372093,12.0612245 4.08527132,7.32653061 C4.08527132,3.7755102 7.68992248,0.224489796 12.496124,0.224489796 Z" id="Shape"></path>
                </g>
                <circle id="Oval" fill="#929EA5" cx="693" cy="1825" r="205"></circle>
                <circle id="Oval" fill="#BBC2C6" cx="692.5" cy="1824.5" r="176.5"></circle>
                <circle id="Oval" fill="#F7F8F9" cx="693" cy="1824" r="155"></circle>
                <polygon id="Rectangle-path" fill="#2C424F" transform="translate(689.500000, 1756.500000) rotate(-92.722496) translate(-689.500000, -1756.500000) " points="623 1752 756 1752 756 1761 623 1761"></polygon>
            </g>
        </g>
    </g>
</svg>