<?xml version="1.0" encoding="utf-8"?>
<!-- Generator: Adobe Illustrator 21.1.0, SVG Export Plug-In . SVG Version: 6.00 Build 0)  -->
<svg version="1.1" id="Layer_1" xmlns="http://www.w3.org/2000/svg" xmlns:xlink="http://www.w3.org/1999/xlink" x="0px" y="0px"
	 viewBox="0 0 408.7 271.3" style="enable-background:new 0 0 408.7 271.3;" xml:space="preserve">
<style type="text/css">
	.st0{fill:#28706D;}
	.st1{fill:#1E2F38;}
	.st2{fill:#D2F1FD;}
	.st3{fill:#E4F7FE;}
	.st4{fill:#69797F;}
	.st5{fill:#1B4B49;}
	.st6{opacity:0.37;fill:url(#SVGID_1_);enable-background:new    ;}
	.st7{fill:#FFFFFF;}
	.st8{opacity:0.3;fill:url(#SVGID_2_);enable-background:new    ;}
	.st9{opacity:0.3;fill:url(#SVGID_3_);enable-background:new    ;}
	.st10{fill:#5DC1A7;}
	.st11{fill:#DADADA;}
	.st12{fill:#1F544D;}
	.st13{fill:#173F54;}
	.st14{fill:#77406D;}
	.st15{fill:#B585A8;}
	.st16{fill:#380F01;}
	.st17{fill:#4A7000;}
	.st18{fill:#7DAA30;}
	.st19{fill:#0D3B7F;}
	.st20{fill:#A6DDFF;}
	.st21{fill:#FFCC94;}
	.st22{fill:#AFE6D3;}
	.st23{fill:none;}
	.st24{fill:#BEDAF4;}
	.st25{fill:#EAC6B5;}
	.st26{fill:#601E04;}
	.st27{fill:#D3A590;}
	.st28{fill:#1E1E1E;}
	.st29{fill:#81D6AF;}
	.st30{fill:url(#SVGID_4_);}
	.st31{fill:url(#SVGID_5_);}
	.st32{fill:#3FC085;}
	.st33{fill:#EAA74E;}
	.st34{fill:#CC7425;}
	.st35{fill:#F7AE66;}
	.st36{fill:url(#SVGID_6_);}
	.st37{fill:url(#SVGID_7_);}
	.st38{fill:url(#SVGID_8_);}
	.st39{fill:#B7694E;}
	.st40{fill:#D1956D;}
	.st41{fill:#232121;}
	.st42{fill:url(#SVGID_9_);}
	.st43{fill:url(#SVGID_10_);}
	.st44{fill:#173F3A;}
	.st45{fill:url(#SVGID_11_);}
	.st46{fill:url(#SVGID_12_);}
	.st47{fill:#58BDA3;}
	.st48{fill:#75FCD9;}
	.st49{fill:#5B250E;}
	.st50{fill:#873F26;}
	.st51{fill:url(#SVGID_13_);}
	.st52{fill:url(#SVGID_14_);}
	.st53{fill:#4C7671;}
	.st54{fill:url(#SVGID_15_);}
	.st55{fill:url(#SVGID_16_);}
	.st56{fill:#CECBC8;}
</style>
<title>Food and Beverages Icon</title>
<polygon class="st0" points="380.7,221.1 349.7,221.3 345.9,219.5 243.2,219.5 243.2,221.1 231.5,221.1 227.8,216.7 174.9,216.7 
	170.6,221.1 158.3,221.1 158.4,219.3 66,219.3 62.3,221.1 31.6,221.1 31.6,87 380.7,87 "/>
<rect x="242.7" y="91.8" class="st0" width="102.1" height="99.9"/>
<rect x="67.1" y="91.8" class="st0" width="91.2" height="99.3"/>
<polygon class="st1" points="170.4,221.2 175.1,216.6 175.1,91.7 169.1,91.5 "/>
<polygon class="st1" points="62,221.1 65.8,219.4 65.7,80.4 62,80.3 "/>
<polygon class="st1" points="231,221.1 227.4,216.6 227.6,93.2 237.5,92.8 "/>
<rect x="158.4" y="89.3" class="st2" width="12.2" height="131.8"/>
<polygon class="st2" points="243.2,221.1 231.3,221.2 231,88 243.2,88 "/>
<polygon class="st2" points="73.5,181.4 66.5,186.3 66.5,86.6 73.5,86.6 "/>
<polygon class="st2" points="338.3,181.3 345.9,186.3 345.9,83.7 338.3,83.7 "/>
<polygon class="st1" points="349.7,221.5 345.9,219.8 346.1,80.8 349.7,80.7 "/>
<rect x="174.7" y="95.3" class="st3" width="52.9" height="121.5"/>
<rect x="179.6" y="100.1" class="st0" width="43" height="78.8"/>
<rect x="179.2" y="170.6" class="st4" width="43.8" height="43.3"/>
<rect x="184" y="176" class="st5" width="34.1" height="33.4"/>
<linearGradient id="SVGID_1_" gradientUnits="userSpaceOnUse" x1="191.0709" y1="-53.2583" x2="212.5009" y2="13.7117" gradientTransform="matrix(1 0 0 1 0 162.6667)">
	<stop  offset="2.000000e-02" style="stop-color:#FFFFFF"/>
	<stop  offset="0.25" style="stop-color:#9E9E9E"/>
	<stop  offset="0.48" style="stop-color:#494949"/>
	<stop  offset="0.64" style="stop-color:#141414"/>
	<stop  offset="0.71" style="stop-color:#000000"/>
	<stop  offset="0.74" style="stop-color:#000000"/>
	<stop  offset="0.94" style="stop-color:#000000"/>
</linearGradient>
<polygon class="st6" points="180.1,138.1 222.1,110.7 222.1,170.6 180.1,170.8 "/>
<g id="Cafe_Logo">
	<g>
		<path class="st7" d="M122.3,115.3c-0.3-0.4-0.8-0.6-1.2-0.6h-2.4l-5.1-1.9v-0.7c0-0.7-0.5-1.3-1.1-1.3H112c-0.6,0-1.1,0.6-1.1,1.3
			v0.7l-5.1,1.9h-2.1c-0.1,0-0.3,0.1-0.3,0.2c-0.1,0.1,0,0.3,0,0.4l2.5,3.5l0.5,5.5c0.1,0.6,0.5,1.1,1.1,1.1v0.6h0
			c-0.5,0-1,0.4-1.1,1.1l-0.7,4.7c-0.1,0.4,0,0.8,0.2,1c0.2,0.3,0.5,0.5,0.9,0.5h2.8h5.2h2.8c0.3,0,0.6-0.2,0.9-0.5
			c0.2-0.3,0.3-0.7,0.2-1l-0.7-4.7c-0.1-0.6-0.6-1.1-1.1-1.1h0v-0.6c0.6,0,1-0.5,1.1-1.1l0.9-8.8h2.2c0.3,0,0.5,0.1,0.7,0.4
			c0.2,0.2,0.3,0.5,0.2,0.8l-0.5,4.4l0.7,0.1l0.5-4.4C122.8,116.2,122.6,115.7,122.3,115.3z M111.6,112.1c0-0.3,0.2-0.5,0.4-0.5h0.5
			c0.2,0,0.4,0.2,0.4,0.5v0.6h-1.3V112.1z M111.3,113.5h1.9l3.2,1.2h-8.3L111.3,113.5z M114,124.6h-3.5l-0.4-9.1h4.2L114,124.6z
			 M104.5,115.5h1.1l0.2,1.9L104.5,115.5z M107.1,124.2l-0.9-8.7h3.1l0.4,9.1h-2.2C107.4,124.6,107.2,124.4,107.1,124.2z
			 M106.5,132.2c-0.1-0.1-0.1-0.3-0.1-0.4l0.7-4.7c0-0.2,0.2-0.4,0.4-0.4h2.1l-0.4,5.6h-2.5C106.7,132.4,106.6,132.4,106.5,132.2z
			 M110,132.4l0.4-5.6h3.8l0.4,5.6H110z M117.4,127.2l0.7,4.7c0,0.1,0,0.3-0.1,0.4c-0.1,0.1-0.2,0.2-0.3,0.2h-2.5l-0.4-5.6h2.1
			C117.2,126.8,117.4,127,117.4,127.2z M117.3,124.2c0,0.2-0.2,0.4-0.4,0.4h-1.3v0.8h0.6v0.6h-1.8h-4.4h-1.8v-0.6h1.9c0,0,0,0,0,0
			h4.2c0.2,0,0.3-0.2,0.3-0.4l0.4-9.5h3.1L117.3,124.2z"/>
	</g>
	<g>
		<path class="st7" d="M113.1,137.7c-8.7,0-15.7-7-15.7-15.7s7-15.7,15.7-15.7s15.7,7,15.7,15.7S121.7,137.7,113.1,137.7z
			 M113.1,106.9c-8.3,0-15.1,6.8-15.1,15.1c0,8.3,6.8,15.1,15.1,15.1c8.3,0,15.1-6.8,15.1-15.1C128.2,113.7,121.4,106.9,113.1,106.9
			z"/>
	</g>
</g>
<g id="Cafe_Logo_1_">
	<g>
		<path class="st7" d="M300.8,115.3c-0.3-0.4-0.8-0.6-1.2-0.6h-2.4l-5.1-1.9v-0.7c0-0.7-0.5-1.3-1.1-1.3h-0.5
			c-0.6,0-1.1,0.6-1.1,1.3v0.7l-5.1,1.9h-2.1c-0.1,0-0.3,0.1-0.3,0.2c-0.1,0.1,0,0.3,0,0.4l2.5,3.5l0.5,5.5c0.1,0.6,0.5,1.1,1.1,1.1
			v0.6h0c-0.5,0-1,0.4-1.1,1.1l-0.7,4.7c-0.1,0.4,0,0.8,0.2,1c0.2,0.3,0.5,0.5,0.9,0.5h2.8h5.2h2.8c0.3,0,0.6-0.2,0.9-0.5
			c0.2-0.3,0.3-0.7,0.2-1l-0.7-4.7c-0.1-0.6-0.6-1.1-1.1-1.1h0v-0.6c0.6,0,1-0.5,1.1-1.1l0.9-8.8h2.2c0.3,0,0.5,0.1,0.7,0.4
			c0.2,0.2,0.3,0.5,0.2,0.8l-0.5,4.4l0.7,0.1l0.5-4.4C301.2,116.2,301.1,115.7,300.8,115.3z M290.1,112.1c0-0.3,0.2-0.5,0.4-0.5h0.5
			c0.2,0,0.4,0.2,0.4,0.5v0.6h-1.3V112.1z M289.7,113.5h1.9l3.2,1.2h-8.3L289.7,113.5z M292.5,124.6h-3.5l-0.4-9.1h4.2L292.5,124.6z
			 M282.9,115.5h1.1l0.2,1.9L282.9,115.5z M285.6,124.2l-0.9-8.7h3.1l0.4,9.1H286C285.8,124.6,285.6,124.4,285.6,124.2z
			 M284.9,132.2c-0.1-0.1-0.1-0.3-0.1-0.4l0.7-4.7c0-0.2,0.2-0.4,0.4-0.4h2.1l-0.4,5.6h-2.5C285.1,132.4,285,132.4,284.9,132.2z
			 M288.5,132.4l0.4-5.6h3.8l0.4,5.6H288.5z M295.9,127.2l0.7,4.7c0,0.1,0,0.3-0.1,0.4c-0.1,0.1-0.2,0.2-0.3,0.2h-2.5l-0.4-5.6h2.1
			C295.6,126.8,295.8,127,295.9,127.2z M295.8,124.2c0,0.2-0.2,0.4-0.4,0.4h-1.3v0.8h0.6v0.6h-1.8h-4.4h-1.8v-0.6h1.9c0,0,0,0,0,0
			h4.2c0.2,0,0.3-0.2,0.3-0.4l0.4-9.5h3.1L295.8,124.2z"/>
	</g>
	<g>
		<path class="st7" d="M291.5,137.7c-8.7,0-15.7-7-15.7-15.7s7-15.7,15.7-15.7s15.7,7,15.7,15.7S300.2,137.7,291.5,137.7z
			 M291.5,106.9c-8.3,0-15.1,6.8-15.1,15.1c0,8.3,6.8,15.1,15.1,15.1c8.3,0,15.1-6.8,15.1-15.1C306.6,113.7,299.8,106.9,291.5,106.9
			z"/>
	</g>
</g>
<linearGradient id="SVGID_2_" gradientUnits="userSpaceOnUse" x1="100.3004" y1="-50.8251" x2="139.0704" y2="32.8249" gradientTransform="matrix(1 0 0 1 0 162.6667)">
	<stop  offset="2.000000e-02" style="stop-color:#FFFFFF"/>
	<stop  offset="6.000000e-02" style="stop-color:#DADADA"/>
	<stop  offset="0.13" style="stop-color:#A7A7A7"/>
	<stop  offset="0.2" style="stop-color:#7B7B7B"/>
	<stop  offset="0.27" style="stop-color:#555555"/>
	<stop  offset="0.35" style="stop-color:#363636"/>
	<stop  offset="0.43" style="stop-color:#1E1E1E"/>
	<stop  offset="0.51" style="stop-color:#0D0D0D"/>
	<stop  offset="0.6" style="stop-color:#030303"/>
	<stop  offset="0.71" style="stop-color:#000000"/>
	<stop  offset="0.74" style="stop-color:#000000"/>
	<stop  offset="0.94" style="stop-color:#000000"/>
</linearGradient>
<polygon class="st8" points="71.9,150.2 154.2,95.5 154.2,183.2 71.9,183.2 "/>
<linearGradient id="SVGID_3_" gradientUnits="userSpaceOnUse" x1="277.7504" y1="-53.96" x2="318.2666" y2="33.4576" gradientTransform="matrix(1 0 0 1 0 162.6667)">
	<stop  offset="2.000000e-02" style="stop-color:#FFFFFF"/>
	<stop  offset="6.000000e-02" style="stop-color:#DADADA"/>
	<stop  offset="0.13" style="stop-color:#A7A7A7"/>
	<stop  offset="0.2" style="stop-color:#7B7B7B"/>
	<stop  offset="0.27" style="stop-color:#555555"/>
	<stop  offset="0.35" style="stop-color:#363636"/>
	<stop  offset="0.43" style="stop-color:#1E1E1E"/>
	<stop  offset="0.51" style="stop-color:#0D0D0D"/>
	<stop  offset="0.6" style="stop-color:#030303"/>
	<stop  offset="0.71" style="stop-color:#000000"/>
	<stop  offset="0.74" style="stop-color:#000000"/>
	<stop  offset="0.94" style="stop-color:#000000"/>
</linearGradient>
<polygon class="st9" points="243.2,147.2 337.5,90 337.5,181.7 243.2,181.7 "/>
<polygon class="st10" points="157.9,44.5 143.9,76.9 167.9,76.9 182.3,44 "/>
<polygon class="st10" points="126.6,44.5 98.5,76.9 120.3,76.9 143.3,44 "/>
<polygon class="st10" points="193.7,43.6 191.6,77.1 215.6,77.1 211.7,43.3 "/>
<polygon class="st10" points="223.6,43.8 239.4,76.9 263.4,76.9 242.5,43.3 "/>
<polygon class="st10" points="263.1,43.8 287,76.9 308.9,76.9 282.6,43.3 "/>
<polygon class="st11" points="280,43.6 308.5,76.6 330.4,76.6 301.6,43.1 "/>
<polygon class="st11" points="127,44.5 98.6,76.6 76.7,77.5 107.8,43.1 "/>
<polygon class="st11" points="180.9,44 167.7,76.8 191.5,77.8 194.9,43.6 "/>
<polygon class="st11" points="142,44 120.2,76.8 143.9,77.8 162.4,43.6 "/>
<polygon class="st11" points="225.2,44 239.9,77.4 215.8,78 210,43.6 "/>
<polygon class="st11" points="263.4,44 287.1,76.8 263.5,77.8 242,43.6 "/>
<polygon class="st10" points="301.7,43.8 330.4,76.8 354.4,76.8 320.2,43.3 "/>
<polygon class="st10" points="337,43.8 378,76.8 399.9,76.8 356.2,43.3 "/>
<polygon class="st11" points="337.5,44 378.1,76.8 354.9,77.8 319.9,43.6 "/>
<polygon class="st10" points="108,45 78.1,76.9 54.1,76.9 89.7,44.6 "/>
<polygon class="st10" points="75.1,45 30.5,76.9 8.1,76.7 54.5,44.6 "/>
<polygon class="st11" points="72.9,45.2 30.4,76.8 53.6,77.8 90.1,44.8 "/>
<path class="st10" d="M167.9,76.7l0.3,7.5c0.2,6.3-4.8,11.5-11.1,11.6c-0.2,0-0.4,0-0.5,0l0,0c-6.6,0.1-12-5.1-12.4-11.6l-0.2-7.5
	H167.9z"/>
<path class="st10" d="M120.3,76.7l0.2,7.5c0.1,6.4-3,11.6-9.6,11.6l0,0c-6.6,0.1-12-5.1-12.2-11.6l-0.1-7.5H120.3z"/>
<path class="st10" d="M215.7,77l0.3,7.5c0.2,6.2-4.6,11.4-10.8,11.6c-0.2,0-0.5,0-0.7,0l0,0c-6.6,0-12.1-5.1-12.5-11.6l-0.3-7.5
	H215.7z"/>
<path class="st11" d="M77.5,76.6l0.2,6.6c0.1,6.4,3.9,11.6,10.5,11.6l0,0c6.2,0.1,11.2-4.8,11.3-11c0-0.2,0-0.4,0-0.6l-0.2-6.6H77.5
	z"/>
<path class="st11" d="M191.7,77l0.3,7.5c0.2,6.2-4.7,11.4-11,11.6c-0.2,0-0.4,0-0.6,0l0,0c-6.6,0.1-12-5.1-12.4-11.6l-0.3-7.5H191.7
	z"/>
<path class="st11" d="M144.5,76.9l0.2,7.5c0.1,6.3-4.9,11.5-11.2,11.6c-0.2,0-0.3,0-0.5,0l0,0c-6.6,0.1-12.1-5.1-12.4-11.7l-0.2-7.5
	L144.5,76.9z"/>
<path class="st11" d="M215.6,77l0.3,7.5c0.4,6.6,5.9,11.7,12.5,11.6l0,0c6.2,0.2,11.3-4.7,11.5-10.9c0-0.3,0-0.5,0-0.8l-0.4-7.5
	L215.6,77z"/>
<path class="st10" d="M263.4,76.7l0.4,7.5c0.3,6.1-4.4,11.3-10.5,11.6c-0.3,0-0.6,0-0.9,0l0,0c-6.6,0-12.1-5.1-12.6-11.6l-0.4-7.5
	H263.4z"/>
<path class="st10" d="M308.9,76.7l0.5,7.5c0.4,6.4-3,11.6-9.6,11.6l0,0c-6.5,0-11.9-5.1-12.2-11.6l-0.4-7.5H308.9z"/>
<path class="st11" d="M330.4,76.5l0.5,7.5c0.4,6.4-2.9,11.6-9.6,11.6l0,0c-6.5,0-11.9-5.1-12.3-11.6l-0.5-7.5H330.4z"/>
<path class="st11" d="M263.2,76.7l0.4,7.5c0.5,6.6,6,11.7,12.7,11.6l0,0c6.1,0.2,11.2-4.6,11.4-10.6c0-0.3,0-0.7,0-1l-0.4-7.5H263.2
	z"/>
<path class="st10" d="M354.3,76.6l0.5,7.5c0.4,6-4.1,11.2-10,11.6c-0.4,0-0.8,0-1.1,0l0,0c-6.6,0-12.2-5-12.8-11.6l-0.5-7.5H354.3z"
	/>
<path class="st10" d="M399.7,76.7l0.6,7.5c0.5,6.4-2.8,11.6-9.4,11.6l0,0c-6.6,0-12-5.1-12.5-11.6l-0.6-7.5H399.7z"/>
<path class="st11" d="M354.1,76.6l0.5,7.5c0.7,6.6,6.2,11.6,12.9,11.6l0,0c6,0.2,11-4.4,11.2-10.4c0-0.4,0-0.8,0-1.2l-0.6-7.5H354.1
	z"/>
<path class="st10" d="M53.6,76.7l0.1,7.5c0.2,6.5,5.6,11.7,12.1,11.6l0,0c6.4,0.1,11.7-5,11.8-11.4c0-0.1,0-0.1,0-0.2l-0.1-7.5H53.6
	z"/>
<path class="st10" d="M8.1,76.7v7.5c0,6.4,3.7,11.6,10.4,11.6l0,0c6.3,0.1,11.4-5,11.5-11.2c0-0.1,0-0.3,0-0.4v-7.5H8.1z"/>
<path class="st11" d="M53.9,76.7l0.1,7.5c0,6.5-5.3,11.7-11.8,11.6c-0.1,0-0.1,0-0.2,0l0,0c-6.5,0.1-11.9-5.1-12.1-11.6v-7.5H53.9z"
	/>
<rect x="52.1" y="13.1" class="st10" width="308.1" height="31.9"/>
<path class="st11" d="M365.7,10.1c0,2.7-2.2,4.9-4.9,4.9H49.4c-2.7,0-4.9-2.2-4.9-4.9v-1c0-2.7,2.2-4.9,4.9-4.9h311.4
	c2.7,0,4.9,2.2,4.9,4.9L365.7,10.1L365.7,10.1z"/>
<g>
	<path class="st12" d="M49.4,15.1h311.4c2.5,0,4.6-1.9,4.9-4.4H44.5C44.8,13.2,46.9,15.1,49.4,15.1z"/>
</g>
<path class="st12" d="M362.2,44.2c0,1-0.8,1.9-1.9,1.9H51.6c-1,0-1.9-0.8-1.9-1.9l0,0l0,0c0-1,0.8-1.8,1.9-1.8h308.7
	C361.3,42.3,362.2,43.2,362.2,44.2L362.2,44.2z"/>
<g>
	<rect x="85.2" y="191.7" class="st2" width="81.5" height="3.1"/>
	<polygon class="st2" points="166.9,194.3 85.4,194.3 85.4,191.2 167.9,191.2 	"/>
	<path class="st2" d="M85.5,186.9l79.4,0.3V183H92.1L85.5,186.9z"/>
	<rect x="85.3" y="186.8" class="st13" width="79.5" height="4.6"/>
	<path class="st2" d="M318.3,183h-80.6v4.2l89.5-0.3L318.3,183z"/>
	<rect x="237.7" y="186.6" class="st13" width="89.7" height="5.6"/>
	<polygon class="st13" points="175.3,195.3 179.2,194.5 179.9,193.4 174.4,194 	"/>
	<polygon class="st2" points="175.3,191.1 179.2,190.7 179.9,193.4 175.9,194.2 	"/>
	<polygon class="st2" points="175.9,194.2 164,194.2 165,191.1 175.4,191.1 	"/>
	<polygon class="st13" points="175.9,194.2 164,194.2 165,195.3 175.4,195.3 	"/>
	<polygon class="st14" points="82.5,195.6 85.4,195.1 86.2,193.9 83,194.3 	"/>
	<polygon class="st14" points="82.4,191.3 85.1,191.2 86.3,193.9 83.5,194.5 	"/>
	<polygon class="st15" points="83.7,194.4 53.1,194.4 55.2,191.3 82.5,191.3 	"/>
	<polygon class="st14" points="83.7,194.4 53.1,194.4 55.2,195.6 82.5,195.6 	"/>
	<rect x="244.4" y="192.1" class="st1" width="81.5" height="3.1"/>
	<polygon class="st1" points="244.3,194.6 325.8,194.6 325.8,191.6 243.3,191.6 	"/>
	<polygon class="st1" points="328.7,195.9 325.8,195.4 324.9,194.3 328.1,194.6 	"/>
	<polygon class="st1" points="328.8,191.6 326.1,191.5 324.9,194.3 327.7,194.8 	"/>
	<polygon class="st1" points="327.5,194.7 358.1,194.7 356,191.6 328.6,191.6 	"/>
	<polygon class="st1" points="327.5,194.7 358.1,194.7 356,195.9 328.6,195.9 	"/>
	<path class="st16" d="M173.1,191.7c0,0.2-3.6,0.4-8.1,0.4s-8.1-0.2-8.1-0.4s3.6-0.4,8.1-0.4S173.1,191.4,173.1,191.7z"/>
	<path class="st17" d="M163.6,192l1.7-40.5c0,0,4.1,8.6,2.2,24.1c-1.4,11.1-2.1,16.4-2.1,16.4H163.6z"/>
	<path class="st17" d="M164.8,191.1c-2.3-14.1-8.2-32.6-7.5-31.4s2.5,32.5,4.3,33.9C163.6,195,164.8,191.1,164.8,191.1z"/>
	<path class="st17" d="M160.8,193.1c-1.3-2.5-7-18.7-6.9-24.1c2.6,5.9,7.9,16.6,8.3,19.8c0.4,3-0.1,4-0.1,4l-0.4,0.9L160.8,193.1z"
		/>
	<path class="st17" d="M164.5,193.5c1.2-4.3,5.3-26.7,7.2-30.4c1,10.6-4.6,30.9-4.6,30.9L164.5,193.5z"/>
	<path class="st18" d="M163,192.9c0.6-1.6,9.4-20.9,11.1-22.1c-2.9,6.5-9.7,23-9.7,23L163,192.9z"/>
	<path class="st18" d="M160.4,193.7c-1.1-0.9-0.1-16.1-0.1-18.1c0.5,4.6,1.2,18.2,1.2,18.2L160.4,193.7z"/>
	<path class="st18" d="M162.5,193.5c-0.2-1.1-0.9-16.2-0.7-22.6c0.2-7.2,0.7-14.5,0.7-14.5l1.3,37.4L162.5,193.5z"/>
	<path class="st17" d="M168.8,194c1.5-2.3,6-15.8,6-20.8c-3.7,4.8-6.5,13.3-7.1,16.5c-0.5,2.9-0.2,3.9-0.2,3.9l0.4,0.9L168.8,194z"
		/>
	<path class="st18" d="M170.1,193.9c1.2-0.9-1.1-14.1-1-16c-0.7,4.3-0.2,15.9-0.2,15.9L170.1,193.9z"/>
	<path class="st11" d="M165.3,216.9L165.3,216.9V192h-0.1c-4.3,0-7.8-0.2-8-0.4l0,0l2.3,28.3c0,1,2.6,1.4,5.8,1.4s5.4-2.1,5.4-3.8
		C170.9,215.8,168.5,216.9,165.3,216.9z"/>
	<path class="st13" d="M165.2,221.3c3.2,0,5.8-0.4,5.8-1.4l2.3-28.3l0,0c-0.2,0.2-3.7,0.4-8,0.4h-0.1v24.9V221.3z"/>
	<path class="st16" d="M240.3,191.7c0,0.2-3.6,0.4-8.1,0.4s-8.1-0.2-8.1-0.4s3.6-0.4,8.1-0.4S240.3,191.5,240.3,191.7z"/>
	<path class="st17" d="M230.7,192l1.7-40.5c0,0,4.1,8.6,2.2,24.1c-1.4,11.1-2.1,16.4-2.1,16.4H230.7z"/>
	<path class="st17" d="M232,191.1c-2.3-14.1-8.2-32.6-7.5-31.4c0.8,1.2,2.5,32.5,4.3,33.9C230.7,195,232,191.1,232,191.1z"/>
	<path class="st17" d="M227.9,193.1c-1.3-2.5-7-18.7-6.9-24.1c2.6,5.9,7.9,16.6,8.3,19.8c0.4,3-0.1,4-0.1,4l-0.4,0.9L227.9,193.1z"
		/>
	<path class="st17" d="M231.6,193.5c1.2-4.3,5.3-26.7,7.2-30.4c1,10.6-4.6,30.9-4.6,30.9L231.6,193.5z"/>
	<path class="st18" d="M230.1,192.9c0.6-1.6,9.4-20.9,11.1-22.1c-2.9,6.5-9.7,23-9.7,23L230.1,192.9z"/>
	<path class="st18" d="M227.5,193.7c-1.1-0.9-0.1-16.1-0.1-18.1c0.5,4.6,1.2,18.2,1.2,18.2L227.5,193.7z"/>
	<path class="st18" d="M229.7,193.6c-0.2-1.1-0.9-16.2-0.7-22.6c0.2-7.2,0.7-14.5,0.7-14.5l1.3,37.4L229.7,193.6z"/>
	<path class="st17" d="M236,194c1.5-2.3,6-15.8,6-20.8c-3.7,4.8-6.5,13.3-7.1,16.5c-0.5,2.9-0.2,3.9-0.2,3.9l0.4,0.9L236,194z"/>
	<path class="st18" d="M237.3,193.9c1.2-0.9-1.1-14.1-1-16c-0.7,4.3-0.2,15.9-0.2,15.9L237.3,193.9z"/>
	<path class="st11" d="M232.5,216.9L232.5,216.9V192h-0.1c-4.3,0-7.7-0.2-8-0.4l0,0l2.3,28.3c0,1,2.6,1.4,5.8,1.4s5.4-2.1,5.4-3.8
		C238,215.8,235.7,216.9,232.5,216.9z"/>
	<path class="st13" d="M232.3,221.4c3.2,0,5.8-0.4,5.8-1.4l2.3-28.3l0,0c-0.2,0.2-3.7,0.4-8,0.4h-0.1V217V221.4z"/>
	<path class="st13" d="M367.3,213.9L367.3,213.9l0.1-9.3h10.7l-3.1,11.1c0,1-3.4,1.8-7.6,1.8s-7.6-0.8-7.6-1.8
		S363.1,213.9,367.3,213.9z"/>
	<path class="st19" d="M367.5,204.6h-10.6c0,0,2.8,11,2.8,11.1c0,1,3.6,1.8,7.8,1.8L367.5,204.6z"/>
	<ellipse class="st16" cx="367.5" cy="204.6" rx="10.8" ry="1.8"/>
	<path class="st18" d="M354.9,198c0,4.6,2.7,7.1,6.9,8.2c1.9,0.4,3.8,0.5,5.8,0.5c6.4,0,12.1-2.3,12.1-8.7s-6-9.8-12.4-9.8
		S354.9,191.7,354.9,198z"/>
	<path class="st17" d="M379.7,198c0.1,3.3-1.6,6.3-4.5,7.9c-0.8,0.4-1.7,0.5-4.4,0.5c-1.9,0.1-5.8,0.4-5,0c6.5-4,9-12.8,4.4-18
		C375.4,189.4,379.7,192.7,379.7,198z"/>
	<path class="st19" d="M356.7,204.4v0.7c0,1,4.9,1.8,10.8,1.8s10.8-0.9,10.8-1.8v-0.5c-0.3,1-5,1.7-10.8,1.7
		C361.5,206.3,356.7,205.4,356.7,204.4L356.7,204.4L356.7,204.4z"/>
	<path class="st20" d="M373.1,195.3c1.2,0.1,1.2,0.2,0.2,0.9c1.1-0.5,1.1-0.4,0.7,0.7c0.7-0.9,0.8-0.9,0.9,0.2
		c0.1-1.1,0.2-1.2,0.9-0.2c-0.5-1.1-0.4-1.1,0.7-0.7c-0.9-0.7-0.9-0.8,0.3-0.9c-1.2-0.1-1.2-0.2-0.3-0.9c-1.1,0.5-1.1,0.4-0.7-0.7
		c-0.7,0.9-0.8,0.9-0.9-0.2c-0.1,1.2-0.2,1.2-0.9,0.2c0.5,1.1,0.4,1.1-0.7,0.7C374.3,195.1,374.3,195.2,373.1,195.3z"/>
	<path class="st20" d="M364.6,203.1c1.2,0.1,1.2,0.2,0.2,0.9c1.1-0.4,1.1-0.4,0.7,0.6c0.7-0.9,0.8-0.8,0.9,0.2
		c0.1-1,0.2-1.1,0.9-0.2c-0.5-0.9-0.4-1,0.7-0.6c-0.9-0.6-0.9-0.7,0.2-0.9c-1.2-0.1-1.2-0.2-0.2-0.9c-1.1,0.4-1.1,0.4-0.7-0.6
		c-0.7,0.9-0.8,0.8-0.9-0.2c-0.1,1-0.2,1.1-0.9,0.2c0.5,0.9,0.4,1-0.7,0.6C365.7,202.9,365.7,203,364.6,203.1z"/>
	<path class="st21" d="M368.1,190.7c0.5,0.1,0.5,0.1,0.1,0.4c0.5-0.2,0.5-0.2,0.3,0.3c0.3-0.4,0.4-0.4,0.4,0.1
		c0.1-0.5,0.1-0.5,0.4-0.1c-0.2-0.5-0.2-0.5,0.3-0.3c-0.4-0.3-0.4-0.4,0.1-0.4c-0.5-0.1-0.5-0.1-0.1-0.4c-0.5,0.2-0.5,0.2-0.3-0.3
		c-0.3,0.4-0.4,0.4-0.4-0.1c-0.1,0.5-0.1,0.5-0.4,0.1c0.2,0.5,0.2,0.5-0.3,0.3C368.6,190.7,368.6,190.7,368.1,190.7z"/>
	<path class="st21" d="M356.8,200.1c0.6,0.1,0.7,0.1,0.1,0.5c0.6-0.3,0.6-0.2,0.4,0.4c0.4-0.5,0.4-0.5,0.5,0.1
		c0.1-0.6,0.1-0.7,0.5-0.1c-0.3-0.6-0.2-0.6,0.4-0.4c-0.5-0.4-0.5-0.4,0.1-0.5c-0.6-0.1-0.7-0.1-0.1-0.5c-0.6,0.3-0.6,0.2-0.4-0.4
		c-0.4,0.5-0.4,0.5-0.5-0.1c-0.1,0.6-0.1,0.7-0.5,0.1c0.3,0.6,0.2,0.6-0.4,0.4C357.5,200,357.4,200,356.8,200.1z"/>
	<path class="st21" d="M361.8,196c0.9,0.1,0.9,0.2,0.2,0.7c0.8-0.4,0.9-0.3,0.5,0.5c0.5-0.7,0.6-0.7,0.7,0.2
		c0.1-0.9,0.2-0.9,0.7-0.2c-0.4-0.9-0.3-0.9,0.5-0.5c-0.7-0.5-0.7-0.6,0.2-0.7c-0.9-0.1-0.9-0.2-0.2-0.7c-0.9,0.4-0.9,0.3-0.5-0.5
		c-0.5,0.7-0.6,0.7-0.7-0.2c-0.1,0.9-0.2,0.9-0.7,0.2c0.4,0.9,0.3,0.9-0.5,0.5C362.7,195.8,362.7,195.9,361.8,196z"/>
	<path class="st21" d="M360.4,192.1c0.7,0.1,0.8,0.2,0.2,0.6c0.7-0.3,0.7-0.2,0.4,0.4c0.4-0.6,0.5-0.6,0.6,0.2
		c0.1-0.7,0.2-0.7,0.6-0.2c-0.3-0.7-0.3-0.7,0.4-0.4c-0.6-0.4-0.6-0.5,0.2-0.6c-0.7-0.1-0.7-0.2-0.2-0.6c-0.7,0.3-0.7,0.2-0.4-0.4
		c-0.4,0.6-0.5,0.6-0.6-0.2c-0.1,0.7-0.2,0.7-0.6,0.2c0.3,0.7,0.2,0.7-0.4,0.4C361.2,191.9,361.2,192,360.4,192.1z"/>
	<path class="st20" d="M371,202c0.7,0.1,0.7,0.2,0.2,0.6c0.7-0.3,0.7-0.2,0.4,0.4c0.4-0.6,0.5-0.6,0.6,0.2c0.1-0.7,0.2-0.7,0.6-0.2
		c-0.3-0.7-0.2-0.7,0.4-0.4c-0.6-0.4-0.6-0.5,0.2-0.6c-0.7-0.1-0.7-0.2-0.2-0.6c-0.7,0.3-0.7,0.2-0.4-0.4c-0.4,0.6-0.5,0.6-0.6-0.2
		c-0.1,0.7-0.2,0.8-0.6,0.2c0.3,0.7,0.2,0.7-0.4,0.4C371.7,201.8,371.7,201.9,371,202z"/>
	<path class="st21" d="M368.5,197.8c0.7,0.1,0.8,0.2,0.2,0.6c0.7-0.3,0.7-0.2,0.4,0.4c0.4-0.6,0.5-0.6,0.6,0.2
		c0.1-0.7,0.2-0.7,0.6-0.2c-0.3-0.7-0.2-0.7,0.4-0.4c-0.6-0.4-0.6-0.5,0.2-0.6c-0.7-0.1-0.7-0.2-0.2-0.6c-0.7,0.3-0.7,0.2-0.4-0.4
		c-0.4,0.6-0.5,0.6-0.6-0.2c-0.1,0.7-0.2,0.8-0.6,0.2c0.3,0.7,0.2,0.7-0.4,0.4C369.3,197.6,369.3,197.7,368.5,197.8z"/>
	<path class="st21" d="M366.6,193.6c0.5,0.1,0.5,0.1,0.1,0.4c0.4-0.2,0.5-0.2,0.3,0.3c0.3-0.4,0.3-0.4,0.4,0.1
		c0.1-0.5,0.1-0.5,0.4-0.1c-0.2-0.4-0.2-0.5,0.3-0.3c-0.4-0.3-0.4-0.3,0.1-0.4c-0.5-0.1-0.5-0.1-0.1-0.4c-0.4,0.2-0.5,0.2-0.3-0.3
		c-0.3,0.4-0.3,0.4-0.4-0.1c-0.1,0.5-0.1,0.5-0.4,0.1c0.2,0.4,0.2,0.5-0.3,0.3C367.1,193.5,367.1,193.6,366.6,193.6z"/>
	<path class="st21" d="M358.3,195.4c0.5,0.1,0.5,0.1,0.1,0.4c0.4-0.2,0.5-0.2,0.3,0.3c0.3-0.4,0.3-0.4,0.4,0.1
		c0.1-0.5,0.1-0.5,0.4-0.1c-0.2-0.4-0.2-0.5,0.3-0.3c-0.4-0.3-0.4-0.3,0.1-0.4c-0.5-0.1-0.5-0.1-0.1-0.4c-0.4,0.2-0.5,0.2-0.3-0.3
		c-0.3,0.4-0.3,0.4-0.4-0.1c-0.1,0.5-0.1,0.5-0.4,0.1c0.2,0.4,0.2,0.5-0.3,0.3C358.8,195.3,358.7,195.4,358.3,195.4z"/>
	<path class="st21" d="M362,200.5c0.7,0.1,0.7,0.2,0.2,0.6c0.7-0.3,0.7-0.2,0.4,0.4c0.4-0.6,0.5-0.6,0.6,0.2
		c0.1-0.7,0.1-0.7,0.6-0.2c-0.3-0.7-0.2-0.7,0.4-0.4c-0.6-0.4-0.6-0.5,0.2-0.6c-0.7-0.1-0.8-0.2-0.2-0.6c-0.7,0.3-0.7,0.2-0.4-0.4
		c-0.4,0.6-0.5,0.6-0.6-0.2c-0.1,0.7-0.2,0.8-0.6,0.2c0.3,0.7,0.2,0.7-0.4,0.4C362.8,200.3,362.7,200.4,362,200.5z"/>
	<path class="st13" d="M387.4,219.2L387.4,219.2l0.1-12.4h14.1l-4.1,14.8c0,1.3-4.5,2.4-10.1,2.4s-10.1-1.1-10.1-2.4
		C377.3,220.3,381.8,219.2,387.4,219.2z"/>
	<path class="st22" d="M387.7,206.9h-14.1c0,0,3.7,14.6,3.7,14.8c0,1.3,4.8,2.4,10.4,2.4V206.9z"/>
	<ellipse class="st16" cx="387.7" cy="206.9" rx="14.4" ry="2.4"/>
	<path class="st18" d="M370.9,198.1c0,6.1,3.6,9.5,9.2,10.8c2.5,0.5,5.1,0.7,7.7,0.7c8.5,0,16.1-3,16.1-11.5s-8-13-16.5-13
		S370.9,189.7,370.9,198.1z"/>
	<path class="st17" d="M403.8,198.1c0.1,4.4-2.1,8.4-5.9,10.6c-1,0.6-2.3,0.6-5.8,0.7c-2.6,0.1-7.6,0.6-6.7,0
		c8.6-5.3,11.9-16.9,5.9-23.9C398.1,186.7,403.8,191,403.8,198.1z"/>
	<path class="st19" d="M373.3,206.6v0.9c0,1.3,6.4,2.4,14.4,2.4s14.4-1.1,14.4-2.4v-0.6c-0.4,1.3-6.7,2.3-14.3,2.3
		c-7.9,0-14.4-1.1-14.4-2.4C373.3,206.7,373.3,206.6,373.3,206.6L373.3,206.6z"/>
	<path class="st20" d="M395.1,194.5c1.5,0.2,1.6,0.3,0.3,1.2c1.4-0.6,1.5-0.5,0.9,0.9c0.9-1.2,1.1-1.2,1.2,0.3
		c0.2-1.5,0.3-1.6,1.2-0.3c-0.6-1.4-0.5-1.5,0.9-0.9c-1.2-0.9-1.2-1.1,0.3-1.2c-1.5-0.2-1.6-0.3-0.3-1.2c-1.4,0.6-1.5,0.5-0.9-0.9
		c-0.9,1.2-1.1,1.2-1.2-0.3c-0.2,1.5-0.3,1.6-1.2,0.3c0.6,1.4,0.5,1.5-0.9,0.9C396.7,194.2,396.7,194.3,395.1,194.5z"/>
	<path class="st20" d="M383.8,204.9c1.5,0.1,1.6,0.3,0.3,1.1c1.4-0.6,1.5-0.5,0.9,0.8c0.9-1.1,1.1-1.1,1.2,0.3
		c0.2-1.4,0.3-1.4,1.2-0.3c-0.6-1.3-0.5-1.3,0.9-0.8c-1.2-0.8-1.2-0.9,0.3-1.1c-1.5-0.1-1.6-0.3-0.3-1.1c-1.4,0.6-1.5,0.5-0.9-0.8
		c-0.9,1.1-1.1,1.1-1.2-0.3c-0.2,1.4-0.3,1.4-1.2,0.3c0.6,1.3,0.5,1.3-0.9,0.8C385.3,204.6,385.3,204.8,383.8,204.9z"/>
	<path class="st21" d="M388.4,188.5c0.7,0.1,0.7,0.1,0.1,0.5c0.6-0.3,0.7-0.2,0.4,0.4c0.4-0.5,0.5-0.5,0.5,0.1
		c0.1-0.7,0.1-0.7,0.5-0.1c-0.3-0.6-0.2-0.7,0.4-0.4c-0.6-0.4-0.5-0.5,0.1-0.5c-0.7-0.1-0.7-0.1-0.1-0.5c-0.6,0.3-0.7,0.2-0.4-0.4
		c-0.4,0.6-0.5,0.5-0.5-0.1c-0.1,0.7-0.1,0.7-0.5,0.1c0.3,0.6,0.2,0.7-0.4,0.4C389.1,188.3,389.1,188.4,388.4,188.5z"/>
	<path class="st21" d="M373.5,200.9c0.9,0.1,0.9,0.2,0.2,0.7c0.8-0.4,0.9-0.3,0.5,0.5c0.5-0.7,0.6-0.7,0.7,0.2
		c0.1-0.9,0.2-0.9,0.7-0.2c-0.4-0.8-0.3-0.9,0.5-0.5c-0.7-0.5-0.7-0.6,0.2-0.7c-0.9-0.1-0.9-0.2-0.2-0.7c-0.8,0.4-0.9,0.3-0.5-0.5
		c-0.5,0.7-0.6,0.7-0.7-0.2c-0.1,0.9-0.2,0.9-0.7,0.2c0.4,0.8,0.3,0.9-0.5,0.5C374.3,200.7,374.3,200.8,373.5,200.9z"/>
	<path class="st21" d="M380.1,195.4c1.2,0.1,1.2,0.2,0.3,1c1.1-0.5,1.2-0.4,0.7,0.7c0.7-1,0.9-0.9,1,0.3c0.1-1.2,0.2-1.2,1-0.3
		c-0.5-1.1-0.4-1.2,0.7-0.7c-1-0.7-0.9-0.9,0.3-1c-1.2-0.1-1.2-0.2-0.3-1c-1.1,0.5-1.2,0.4-0.7-0.7c-0.7,1-0.9,0.9-1-0.3
		c-0.1,1.2-0.2,1.2-1,0.3c0.5,1.1,0.4,1.2-0.7,0.7C381.3,195.2,381.2,195.3,380.1,195.4z"/>
	<path class="st21" d="M378.3,190.2c1,0.1,1,0.2,0.2,0.8c0.9-0.4,1-0.3,0.5,0.5c0.6-0.8,0.7-0.8,0.8,0.2c0.1-1,0.2-1,0.8-0.2
		c-0.4-0.9-0.3-1,0.5-0.5c-0.8-0.6-0.8-0.7,0.2-0.8c-1-0.1-1-0.2-0.2-0.8c-0.9,0.4-1,0.3-0.5-0.5c-0.6,0.8-0.7,0.8-0.8-0.2
		c-0.1,1-0.2,1-0.8,0.2c0.4,0.9,0.3,1-0.5,0.5C379.3,190,379.2,190.1,378.3,190.2z"/>
	<path class="st20" d="M392.3,203.4c1,0.1,1,0.2,0.2,0.8c0.9-0.4,1-0.3,0.5,0.5c0.6-0.8,0.7-0.8,0.8,0.2c0.1-1,0.2-1,0.8-0.2
		c-0.4-0.9-0.3-1,0.5-0.5c-0.8-0.6-0.8-0.7,0.2-0.8c-1-0.1-1-0.2-0.2-0.8c-0.9,0.4-1,0.3-0.5-0.5c-0.6,0.8-0.7,0.8-0.8-0.2
		c-0.1,1-0.2,1-0.8,0.2c0.4,0.9,0.3,1-0.5,0.5C393.3,203.2,393.3,203.3,392.3,203.4z"/>
	<path class="st21" d="M389,197.8c1,0.1,1,0.2,0.2,0.8c0.9-0.4,1-0.3,0.5,0.5c0.6-0.8,0.7-0.8,0.8,0.2c0.1-1,0.2-1,0.8-0.2
		c-0.4-0.9-0.3-1,0.5-0.5c-0.8-0.6-0.8-0.7,0.2-0.8c-1-0.1-1-0.2-0.2-0.8c-0.9,0.4-1,0.3-0.5-0.5c-0.6,0.8-0.7,0.8-0.8-0.2
		c-0.1,1-0.2,1-0.8,0.2c0.4,0.9,0.3,1-0.5,0.5C390,197.6,390,197.7,389,197.8z"/>
	<path class="st21" d="M386.5,192.3c0.6,0.1,0.7,0.1,0.1,0.5c0.6-0.3,0.6-0.2,0.4,0.4c0.4-0.5,0.4-0.5,0.5,0.1
		c0.1-0.6,0.1-0.7,0.5-0.1c-0.3-0.6-0.2-0.6,0.4-0.4c-0.5-0.4-0.5-0.4,0.1-0.5c-0.6-0.1-0.7-0.1-0.1-0.5c-0.6,0.3-0.6,0.2-0.4-0.4
		c-0.4,0.5-0.4,0.5-0.5-0.1c-0.1,0.6-0.1,0.7-0.5,0.1c0.3,0.6,0.2,0.6-0.4,0.4C387.1,192.2,387.1,192.2,386.5,192.3z"/>
	<path class="st21" d="M375.4,194.7c0.6,0.1,0.7,0.1,0.1,0.5c0.6-0.3,0.6-0.2,0.4,0.4c0.4-0.5,0.4-0.5,0.5,0.1
		c0.1-0.6,0.1-0.7,0.5-0.1c-0.3-0.6-0.2-0.6,0.4-0.4c-0.5-0.4-0.5-0.4,0.1-0.5c-0.6-0.1-0.7-0.1-0.1-0.5c-0.6,0.3-0.6,0.2-0.4-0.4
		c-0.4,0.5-0.4,0.5-0.5-0.1c-0.1,0.6-0.1,0.7-0.5,0.1c0.3,0.6,0.2,0.6-0.4,0.4C376,194.6,376,194.6,375.4,194.7z"/>
	<path class="st21" d="M380.3,201.4c1,0.1,1,0.2,0.2,0.8c0.9-0.4,1-0.3,0.5,0.5c0.6-0.8,0.7-0.8,0.8,0.2c0.1-1,0.2-1,0.8-0.2
		c-0.4-0.9-0.3-1,0.6-0.5c-0.8-0.6-0.8-0.7,0.2-0.8c-1-0.1-1-0.2-0.2-0.8c-0.9,0.4-1,0.3-0.6-0.5c-0.6,0.8-0.7,0.8-0.8-0.2
		c-0.1,1-0.2,1-0.8,0.2c0.4,0.9,0.3,1-0.5,0.5C381.4,201.2,381.3,201.3,380.3,201.4z"/>
	<rect x="365.8" y="170.1" class="st23" width="29.8" height="57.4"/>
	<path class="st13" d="M44.2,216.8L44.2,216.8l-0.1-9.4H33.3l3.1,11.2c0,1,3.4,1.8,7.7,1.8s7.7-0.9,7.7-1.8S48.4,216.8,44.2,216.8z"
		/>
	<path class="st22" d="M44,207.4h10.7c0,0-2.8,11.1-2.8,11.2c0,1-3.6,1.8-7.9,1.8V207.4z"/>
	<ellipse class="st16" cx="44" cy="207.4" rx="10.9" ry="1.9"/>
	<path class="st18" d="M56.8,200.7c0,4.6-2.7,7.2-7,8.3c-1.9,0.4-3.9,0.5-5.9,0.5c-6.4,0-12.2-2.3-12.2-8.7s6.1-9.9,12.5-9.9
		S56.8,194.3,56.8,200.7z"/>
	<path class="st17" d="M31.7,200.7c-0.1,3.3,1.6,6.4,4.5,8c0.8,0.5,1.7,0.5,4.4,0.5c2,0.1,5.8,0.5,5.1,0c-6.5-4.1-9.1-12.9-4.5-18.2
		C36,192,31.7,195.3,31.7,200.7z"/>
	<path class="st19" d="M54.9,207.2C54.9,207.2,54.9,207.3,54.9,207.2c0,1.1-4.9,1.9-10.9,1.9c-5.8,0-10.6-0.8-10.9-1.7v0.4
		c0,1,4.9,1.9,10.9,1.9s10.9-0.9,10.9-1.9V207.2L54.9,207.2z"/>
	<path class="st20" d="M38.3,198c-1.2,0.1-1.2,0.2-0.2,0.9c-1.1-0.5-1.1-0.4-0.7,0.7c-0.7-0.9-0.8-0.9-0.9,0.3
		c-0.1-1.2-0.2-1.2-0.9-0.3c0.5-1.1,0.4-1.1-0.7-0.7c0.9-0.7,0.9-0.8-0.3-0.9c1.2-0.1,1.2-0.2,0.3-0.9c1.1,0.5,1.1,0.4,0.7-0.7
		c0.7,1,0.8,0.9,0.9-0.2c0.1,1.2,0.2,1.2,0.9,0.2c-0.5,1.1-0.4,1.1,0.7,0.7C37.1,197.7,37.1,197.8,38.3,198z"/>
	<path class="st20" d="M47,205.9c-1.2,0.1-1.2,0.2-0.3,0.9c-1.1-0.4-1.1-0.4-0.7,0.6c-0.7-0.9-0.8-0.9-0.9,0.2
		c-0.1-1-0.2-1.1-0.9-0.2c0.5-1,0.4-1-0.7-0.6c0.9-0.6,0.9-0.7-0.3-0.9c1.2-0.1,1.2-0.2,0.3-0.9c1.1,0.4,1.1,0.4,0.7-0.6
		c0.7,0.9,0.8,0.9,0.9-0.2c0.1,1,0.2,1.1,0.9,0.2c-0.5,1-0.4,1,0.7,0.6C45.8,205.7,45.8,205.8,47,205.9z"/>
	<path class="st21" d="M43.4,193.4c-0.5,0.1-0.5,0.1-0.1,0.4c-0.5-0.2-0.5-0.2-0.3,0.3c-0.3-0.4-0.4-0.4-0.4,0.1
		c-0.1-0.5-0.1-0.5-0.4-0.1c0.2-0.5,0.2-0.5-0.3-0.3c0.4-0.3,0.4-0.4-0.1-0.4c0.5-0.1,0.5-0.1,0.1-0.4c0.5,0.2,0.5,0.2,0.3-0.3
		c0.3,0.4,0.4,0.4,0.4-0.1c0.1,0.5,0.1,0.5,0.4,0.1c-0.2,0.5-0.2,0.5,0.3,0.3C42.9,193.2,42.9,193.3,43.4,193.4z"/>
	<path class="st21" d="M54.8,202.8c-0.6,0.1-0.7,0.1-0.1,0.5c-0.6-0.3-0.6-0.2-0.4,0.4c-0.4-0.5-0.4-0.5-0.5,0.1
		c-0.1-0.6-0.1-0.7-0.5-0.1c0.3-0.6,0.2-0.6-0.4-0.4c0.5-0.4,0.5-0.4-0.1-0.5c0.6-0.1,0.7-0.1,0.1-0.5c0.6,0.3,0.6,0.2,0.4-0.4
		c0.4,0.5,0.4,0.5,0.5-0.1c0.1,0.6,0.1,0.7,0.5,0.1c-0.3,0.6-0.2,0.6,0.4,0.4C54.2,202.7,54.2,202.8,54.8,202.8z"/>
	<path class="st21" d="M49.8,198.7c-0.9,0.1-0.9,0.2-0.2,0.7c-0.9-0.4-0.9-0.3-0.5,0.5c-0.5-0.7-0.6-0.7-0.7,0.2
		c-0.1-0.9-0.2-0.9-0.7-0.2c0.4-0.9,0.3-0.9-0.5-0.5c0.7-0.5,0.7-0.6-0.2-0.7c0.9-0.1,0.9-0.2,0.2-0.7c0.9,0.4,0.9,0.3,0.5-0.5
		c0.5,0.7,0.6,0.7,0.7-0.2c0.1,0.9,0.2,0.9,0.7,0.2c-0.4,0.9-0.3,0.9,0.5,0.5C48.9,198.5,48.9,198.6,49.8,198.7z"/>
	<path class="st21" d="M51.2,194.7c-0.7,0.1-0.8,0.2-0.2,0.6c-0.7-0.3-0.7-0.3-0.4,0.4c-0.4-0.6-0.5-0.6-0.6,0.2
		c-0.1-0.7-0.2-0.8-0.6-0.2c0.3-0.7,0.3-0.7-0.4-0.4c0.6-0.4,0.6-0.5-0.2-0.6c0.7-0.1,0.8-0.2,0.2-0.6c0.7,0.3,0.7,0.2,0.4-0.4
		c0.4,0.6,0.5,0.6,0.6-0.2c0.1,0.7,0.2,0.8,0.6,0.2c-0.3,0.7-0.2,0.7,0.4,0.4C50.4,194.5,50.4,194.6,51.2,194.7z"/>
	<path class="st20" d="M40.4,204.7c-0.7,0.1-0.8,0.2-0.2,0.6c-0.7-0.3-0.7-0.2-0.4,0.4c-0.4-0.6-0.5-0.6-0.6,0.2
		c-0.1-0.7-0.2-0.8-0.6-0.2c0.3-0.7,0.2-0.7-0.4-0.4c0.6-0.4,0.6-0.5-0.2-0.6c0.7-0.1,0.8-0.2,0.2-0.6c0.7,0.3,0.7,0.2,0.4-0.4
		c0.4,0.6,0.5,0.6,0.6-0.2c0.1,0.7,0.2,0.8,0.6,0.2c-0.3,0.7-0.2,0.7,0.4,0.4C39.7,204.6,39.7,204.7,40.4,204.7z"/>
	<path class="st21" d="M43,200.5c-0.7,0.1-0.8,0.2-0.2,0.6c-0.7-0.3-0.7-0.3-0.4,0.4c-0.4-0.6-0.5-0.6-0.6,0.2
		c-0.1-0.7-0.2-0.8-0.6-0.2c0.3-0.7,0.3-0.7-0.4-0.4c0.6-0.4,0.6-0.5-0.2-0.6c0.7-0.1,0.8-0.2,0.2-0.6c0.7,0.3,0.7,0.3,0.4-0.4
		c0.4,0.6,0.5,0.6,0.6-0.2c0.1,0.7,0.2,0.8,0.6,0.2c-0.3,0.7-0.3,0.7,0.4,0.4C42.2,200.3,42.2,200.4,43,200.5z"/>
	<path class="st21" d="M44.9,196.3c-0.5,0.1-0.5,0.1-0.1,0.4c-0.4-0.2-0.5-0.2-0.3,0.3c-0.3-0.4-0.3-0.4-0.4,0.1
		c-0.1-0.5-0.1-0.5-0.4-0.1c0.2-0.4,0.2-0.5-0.3-0.3c0.4-0.3,0.4-0.3-0.1-0.4c0.5-0.1,0.5-0.1,0.1-0.4c0.4,0.2,0.5,0.2,0.3-0.3
		c0.3,0.4,0.3,0.4,0.4-0.1c0.1,0.5,0.1,0.5,0.4,0.1c-0.2,0.4-0.2,0.5,0.3,0.3C44.4,196.2,44.4,196.3,44.9,196.3z"/>
	<path class="st21" d="M53.3,198.1c-0.5,0.1-0.5,0.1-0.1,0.4c-0.4-0.2-0.5-0.2-0.3,0.3c-0.3-0.4-0.3-0.4-0.4,0.1
		c-0.1-0.5-0.1-0.5-0.4-0.1c0.2-0.4,0.2-0.5-0.3-0.3c0.4-0.3,0.4-0.3-0.1-0.4c0.5-0.1,0.5-0.1,0.1-0.4c0.4,0.2,0.5,0.2,0.3-0.3
		c0.3,0.4,0.3,0.4,0.4-0.1c0.1,0.5,0.1,0.5,0.4,0.1c-0.2,0.4-0.2,0.5,0.3,0.3C52.8,198,52.9,198.1,53.3,198.1z"/>
	<path class="st21" d="M49.6,203.2c-0.7,0.1-0.8,0.2-0.2,0.6c-0.7-0.3-0.7-0.2-0.4,0.4c-0.4-0.6-0.5-0.6-0.6,0.2
		c-0.1-0.7-0.2-0.8-0.6-0.2c0.3-0.7,0.2-0.7-0.4-0.4c0.6-0.4,0.6-0.5-0.2-0.6c0.7-0.1,0.8-0.2,0.2-0.6c0.7,0.3,0.7,0.2,0.4-0.4
		c0.4,0.6,0.5,0.6,0.6-0.2c0.1,0.7,0.2,0.8,0.6,0.2c-0.3,0.7-0.3,0.7,0.4,0.4C48.8,203.1,48.8,203.1,49.6,203.2z"/>
	<polygon class="st24" points="129.7,170.1 125.6,172.5 127.1,176.5 129.5,173.3 	"/>
	<path class="st25" d="M117,184.1c-1.2-0.7-2.4-1.4-3.5-2.2c-1-0.8-2-1.6-2-1.6l-3.1-1.5c0,0-0.2,1.3-0.6,0.5
		c-0.3-0.6-1.1-0.7-0.9-0.1s-0.2-0.3-0.1,0.4c-0.2,0.4-0.2,1,0,1.4c-0.1,0.5,0.1,1,0.4,1.4c0.2,0.2,0.1-0.1,0.6,0.6
		c1,0.9,2.2,1.6,3.5,2l5,1.7L117,184.1z"/>
	<path class="st25" d="M114.7,183.1c-0.5-1-1.5-2.8-1.7-3.2c-0.5-0.8-1.3-1.4-2.2-1.6c-0.4,0.1-0.4,0.3,0.1,0.6
		c0.5,0.2,0.8,0.8,0.9,1.3c0,0.6-0.2,1.3-0.1,1.5s2.5,2,2.5,2L114.7,183.1z"/>
	<path class="st26" d="M119,213.9v2.8l0,0c0.2,0.9,8,1.7,17.6,1.7s17.5-0.8,17.6-1.7l0,0v-2.8H119z"/>
	<ellipse class="st21" cx="136.6" cy="213.9" rx="17.6" ry="1.7"/>
	<rect x="134.5" y="218.1" class="st26" width="3.8" height="44.3"/>
	<path class="st26" d="M125,260.5v1.3l0,0c0.1,1.1,5.3,2,11.6,2s11.5-0.9,11.6-2l0,0v-1.3H125z"/>
	<path class="st26" d="M134.5,255.8c-1.1,0.8-2.4,1.6-3.6,2.2c-2.8,1.3-5.9,1.6-5.9,2.2c0,1.1,5.2,2,11.6,2s11.6-0.9,11.6-2
		c0-0.6-3.6-1-6.2-2.2c-1.3-0.6-2.5-1.4-3.5-2.3c-0.6,0.3-1.3,0.4-2,0.4C135.7,256.3,135.1,256.1,134.5,255.8z"/>
	<path class="st27" d="M124.1,205c-9.6,5.4-8.4,11.7-7.7,13.3c5,11.3,7.4,27.3,7.5,28.9c0.1,2.7-1.5,8.2-4.4,10.8
		c5.5,1.3,6.7-3.4,9.4-4.5c2.1-0.9,1.9-0.9,2.3-2.2c0.9-3.1-1.9-1.8-2.1-6.4c-0.2-4.6,4.1-16.3-2.5-26c-2.7-4,10.2-11.2,9.7-12.7
		C135.6,204.6,124.1,205,124.1,205z"/>
	<path d="M130.3,248c1.2,1.1,1.7,2.8,1.4,4.4c-0.4,1.7-1.1,6-0.7,7.4c-0.9,0.3-0.9,0.1-0.9,0.1s-0.4-6.3-1.3-5.9
		c-0.8,0.4-2,4-3.5,5.8s-7.5,1.5-7.8,1c-0.4-0.5-1.3-2.6,0.1-3.2c1-0.4,2-0.7,3-1c0,0,3.2,1,4.6-1.3C126.6,253,130.3,248,130.3,248z
		"/>
	<path class="st25" d="M113.9,213.2c1.6,5.5,14.9,32.4,15.5,34.2c1.1,3.1,1.5,8.5-2.6,12.6c6.9-0.5,6.7-3.2,8-6.4
		c0.7-1.6,2.2-2.8,2.1-4.6c-0.1-3.9-1.4-1.6-3.3-5.6c-2.3-5.1-1.9-23.6-8.5-30.5C121.2,208.7,113.3,211.1,113.9,213.2z"/>
	<path class="st28" d="M135.5,245.7c1.3,0.1,2.3,2.4,2.5,4.4c0.2,2.2,0.9,6,2.1,7.9c-0.4,0.3-0.8,0.6-1.3,0.9c0,0-2.2-5.6-2.8-4.6
		s-1.2,3-1.4,5.8c-0.1,1-6.7,3.8-7.4,3.5c-0.7-0.3-2.2-1.7-1.2-3.1c0.5-0.8,1.3-1.5,2.3-1.8c0,0,4.3-2.1,4.8-5.4
		C133.4,250.6,134.2,248,135.5,245.7z"/>
	<path d="M144.4,195c3.1,3.7,6.3,15.5,2.4,17.6c-2.8,1.5-7.7,2.1-13.4,2.9c-0.8,0-1.4,0.7-1.4,1.5c0,0.1,0,0.2,0,0.3l0.5,12.3
		c-4.6,1.4-9.6,1.2-14.1-0.6c-3.4-1.4-4.8-2-4.8-2s-1.6-14.9-0.3-16.1c4.9-4.1,10.8-7,17-8.4c1.2-0.2,2.3-10.4,2.3-10.4L144.4,195z"
		/>
	<path class="st28" d="M144.5,195l-2.3-0.6l-0.9,1.7c1,2.3,4.7,9.7,2.6,13.3c-2.1,3.6-9.3,5.9-9.3,5.9h0.2c5.1-0.8,9.5-1.4,12-2.7
		C150.9,210.5,147.6,198.7,144.5,195z"/>
	<path class="st29" d="M128.5,173.2c-3.5,2.9-3.7,12.4-4.7,12.3c-1-0.2-7.7-3-8.6-2.7s-1.6,2.9-1.6,2.9s-0.6,0.9,0.2,2.3
		c0.8,1.4,4.7,5.4,6.3,5.4s9.2-2.1,9.3-5.1S128.5,173.2,128.5,173.2z"/>
	<path class="st27" d="M81.6,161.2c-0.6,2-1.9,4.2-1.2,6c0.7,1.8-1.5,4.1-2.6,4s-8.1-6.6-8.1-6.6s2-5.7,2.3-7.3
		C72.2,155.8,81.6,161.2,81.6,161.2z"/>
	
		<linearGradient id="SVGID_4_" gradientUnits="userSpaceOnUse" x1="68.0851" y1="3.8052" x2="91.3464" y2="-12.2454" gradientTransform="matrix(1 0 0 1 0 162.6667)">
		<stop  offset="0" style="stop-color:#FFFFFF"/>
		<stop  offset="0.52" style="stop-color:#C6C0B9"/>
	</linearGradient>
	<path class="st30" d="M75.7,158.4L75.7,158.4l3.5,0.5c0,0.3,2,2.8,2,4c-1,1.2-8.1,7.8-9.8,7.6c-1.4-0.1-1.2-2.5-2-3.5
		c0.3-1.4,2.5-9.7,2.5-10L75.7,158.4z"/>
	<path d="M69.3,150.9c-0.1,1.4,1,6.6,0.9,6.9c-0.1,0.2-0.2,1.3-0.5,1.1c-0.3-0.1,1.8,1.2,2.3,0.7c0.5-0.4,1.5-6.9,1.2-7.2
		S69.3,150.9,69.3,150.9z"/>
	<path class="st27" d="M72.4,152.4c0.1-3.9-0.7-7.7,5.4-7.7c7.5,0.1,6.9,4.4,6.9,9.1s-1.9,10.4-5.7,10c-4.3-0.5-6.5-3.1-6.9-6.4
		c-0.8-0.4-1.4-1.7-1.5-2.9C70.5,152.9,71.1,151.6,72.4,152.4z"/>
	<path class="st25" d="M76.4,151.2c-0.5,4.9,0.1,11.8,2.8,12.5c3.3,0.4,4.5-2.9,5.5-6.2c0.7-2.6,1.4-6.9,0.3-9.7
		c-0.7-1.8-1.5-2.7-2.9-3C79,145.3,76.6,148,76.4,151.2z"/>
	<path class="st28" d="M79.9,144.5l-0.1-0.4c0,0-1.6-1-1.3-1c0.3,0,0.8-0.5,1.1,0.3l-0.7-1.4l3.6,1.3c0.5,0,1,0.1,1.4,0.4l1,0.9
		c0,0-0.1,0.6-0.2-0.2c0.8,0.3,1.3,2.2,1.2,3.6c0.1,0.5,0.1,0.9,0.1,1.4c0,1.4-0.1,2.9-0.5,4.3l-0.4,0.2c0,0,1-4.8-0.9-6.3
		s-6.3-0.4-6.3-0.4L79.9,144.5z"/>
	<path d="M69.9,146.8c0.7-1.2,1.6-2.9,2.6-3.3c0.5-0.9,3.7-0.8,6.9-1.8c0,0-2.9,0.9-3,1.7l0,0c0.4-0.6,5.2-1.9,5-1.5
		c-1.4,2-1.1,0.6-0.8,1.6c0.1,0-0.2,0.1-0.1,0.1c-0.1-0.9,1-1.7,1.7-1.9c-0.3,1.2,1.1,1.2,1.9,2.6c1.1,1.2,1.9,3.3,0.6,4.1
		c-2.9,1.9-5,0.1-6.9,0.1c-1.2,0-2.3,0.5-3,1.5c-0.5,0.8-1,4.7-1,4.7l-1.1-0.8l-1.1-1.6l-2.2,0.9C69.5,152.9,68.5,149.2,69.9,146.8z
		"/>
	<path class="st7" d="M69.3,165.4l6.5,21.9l7.9-18.5l-0.4-2.9h-1.6c0,0-2.5,2.8-3.9,2.5C76.4,168,69.3,165.4,69.3,165.4z"/>
	
		<linearGradient id="SVGID_5_" gradientUnits="userSpaceOnUse" x1="66.8535" y1="20.4793" x2="86.9853" y2="11.2794" gradientTransform="matrix(1 0 0 1 0 162.6667)">
		<stop  offset="0" style="stop-color:#FFFFFF"/>
		<stop  offset="1" style="stop-color:#C6C0B9"/>
	</linearGradient>
	<path class="st31" d="M81.8,165c-0.6,0.6-2.1,3.8-3.7,3.6s-7.3-2.8-7.7-3.9c-0.5,0.2-1,0.3-1.5,0.2l8.8,30.6l6.1-27.6L81.8,165z"/>
	<polygon class="st32" points="78.4,168.2 76.3,168.2 75.7,169.6 77.3,171 75.5,188 78.9,190 78.9,190 	"/>
	<polygon class="st29" points="80.8,187.2 79.1,170.8 80.5,169.2 79.6,168 78.1,168.3 78.4,170.8 78.4,189.7 	"/>
	<path class="st7" d="M70.4,160.4c0.2,1.7,7.4,7.9,7.4,7.9l-2.8,3.1l-6.7-6.3L70.4,160.4z"/>
	<path class="st7" d="M78.6,168l2.7,2.8c0,0,0.9-4.6,0.5-5.5c-0.2-0.7-0.6-1.4-1-2c-0.1,0.9-0.2,1.8-0.5,2.7
		C80,166.8,79.4,167.5,78.6,168z"/>
	<path class="st26" d="M47.1,214.9v3.4l0,0c0.1,1.1,12.4,2.1,20.4,2.1s18.9-0.9,19-2.1l0,0v-3.4H47.1z"/>
	<path class="st33" d="M86.6,214.9c0,1.2-10.9,2.1-19,2.1s-20.4-0.9-20.4-2.1c0-1.2,12.3-2.1,20.4-2.1S86.6,213.7,86.6,214.9z"/>
	<rect x="66" y="217.5" class="st34" width="3.2" height="40.6"/>
	<path class="st26" d="M58,258.8v1.1l0,0c0.1,1,4.4,1.8,9.7,1.8s9.6-0.8,9.7-1.8l0,0v-1.1H58z"/>
	<path class="st26" d="M66,254.7c-1,0.7-2,1.4-3,2c-2.3,1.1-4.9,1.4-4.9,1.9c0,1,4.3,1.8,9.7,1.8s9.7-0.8,9.7-1.8
		c0-0.5-3-0.9-5.2-1.9c-1.1-0.6-2-1.2-3-2c-0.5,0.3-1.1,0.4-1.7,0.4S66.4,255,66,254.7z"/>
	<path d="M58.9,200.6c-3.3,3.7-5.2,10.2-5.1,12.8c0.2,3.7,7.9,4.8,7.9,4.8l4-0.8c2.1,0,6-2.8,8.9-2.8s17.9,4.3,16.9,0
		c-0.7-3-4.7-12.9-7.6-13.7S58.9,200.6,58.9,200.6z"/>
	<path d="M86.4,250.4c-0.3,2-0.2,6.9,1,8.5c0.7,0.4,1.5,0.6,2.3,0.4c1.3-0.3,1.5,0.2,2.2,1.1s5.3,1.6,7.4,1.2c2.5-0.5,3.2-1.7,0-3.8
		c-3.8-2.4-6.1-4.6-7-7C91.5,248.6,86.4,250.4,86.4,250.4z"/>
	<path class="st28" d="M94.4,208.1c1.9,0.8,4.8,2.2,5.6,7.1c0.7,4.3-2.3,39.4-2.3,39.4l-3.1,0.9c0,0-1.7-33.5-1.4-38.1
		C94,206.2,94.9,208.3,94.4,208.1z"/>
	<path d="M85.6,204.5c6.6,2.3,11.1,3.6,11.9,6.9c0.8,3.3-2.6,44.1-2.6,44.1s-9.2,0.5-9.2-0.1s-1.1-36.7-1.2-37.8
		C84.4,216.7,85.6,204.5,85.6,204.5z"/>
	<path d="M87,168.5c3.6-0.7,4.8,10.3,8,16.2c1.6,3,2.5,5.7,2.2,6.4c-2.1,4.9-1.9,4-9.4,3.7c-1.3-0.1-4.3-2.4-4.3-2.4l-4-1.2l4.5-3.9
		l-0.8-11.5L87,168.5z"/>
	<path d="M73.2,209.2c0,0-22.6,4.4-21.8,2.2c2.4-6.9,6.9-17.1,7.2-19.5c0.4-3.1,1.9-12,1.5-13.4c-0.3-1.4-4.4-4.8-4.4-4.8
		s-2.1-5.6,2.1-6.6s7.5-2.5,11.8-4.7c0,0,0.2,6.5,1.1,8.7s4.1,14.2,5.1,15.5C76.6,188.4,73.2,209.2,73.2,209.2z"/>
	<path class="st28" d="M82.6,202.5L80,190.1c0,0,1-6.7,2.8-16l0.5-8.3c2,0.9,1.5,1.1,4.9,3c0.9,0.5-0.2,3-0.2,3s-0.7,11.7-0.5,13.1
		c0.4,4.7,1.5,7.7,1.3,10.8c-0.1,1.8-1.2,5.9,0,10.9L82.6,202.5z"/>
	<path class="st28" d="M69.5,161.6c0-0.2-3.1,2.2-3.1,2.2l-1.7,3.3l3.9,2l-3,2.6l10.2,15.4L70,165.8
		C69.2,162.7,69.5,161.6,69.5,161.6z"/>
	<path d="M81.6,164.6c0-0.2,1.6,1.2,1.6,1.2l3.1,3.8l-2.9,0.6l2,3.3l-6.2,18.8c0,0,3-22.6,3-25.1C82.3,165.1,81.6,164.6,81.6,164.6z
		"/>
	<path d="M65.2,258.2c-0.1-1.5,0.8-2.5-0.3-10.4c-0.1-0.9,7.6-1.6,7.6-1.6c-0.2,3.9-0.7,7.4,3.6,11.9c2.2,2.3,4.6,5.6,1,6.3
		c-4.4,0.9-7.8-0.9-9.1-3.5c-0.1-0.2-0.4-0.1-0.4-0.1S65.3,260.9,65.2,258.2z"/>
	<path d="M71.5,207.2c-3.9-1.7-6.9-1.4-8.7,3.1s-1.5,13.1-1.1,20.9c0.3,5.3,1.7,24.4,1.7,24.4H68l7.7-0.7c0,0,0.5-30.9,0.5-33.7
		C76.3,218.4,76.1,209.2,71.5,207.2z"/>
	<path class="st25" d="M124.2,164.2c2.3,1.6,4.1,7.3,3.5,10.5c-0.3,1.4-1.1,5.8-2.3,6.9c-1.4,1.3,3.2-2.8,6-4.3
		c2.5-1.3,2.9-6.6,4.6-7.1c-1.2-1.3-3.6-8.7-2.8-12.6C133.9,153.5,124.2,164.2,124.2,164.2z"/>
	<path class="st25" d="M135.6,157.9c-0.1-5.9-4.3-9.7-9-8.8s-7.8,3.3-6.7,9.1c0.2,1,0.4,1.9,0.6,2.8c-0.2,0.8-0.4,1.6-0.7,2.3
		c0,0.5,0.8,0.7,1.6,0.9c1.1,3.1,2.6,5,5.5,4.4C130,167.9,135.8,163.8,135.6,157.9z"/>
	<path class="st7" d="M129.8,174.5c-2,3.4-3.6,4.2-3.6,4.2c-1.1,3-2.8,5.8-2.8,7.5c0,2.4,2.9,4,4,4.8s1.1,3.4,2.2,5.5
		c0.3,1.2,0.4,2.4,0.4,3.6c0,0,14.2-2.9,15.3-4.4c2.3-2.9-3.2-6.6-5-17.6c-1-6-4-6.9-4.5-9.1C133.7,168.4,131.1,172.3,129.8,174.5z"
		/>
	<path class="st26" d="M41.3,195.4v4.5l0,0c0.4,1.9,21,3.4,46.3,3.4s45.8-1.5,46.3-3.4l0,0v-4.5H41.3z"/>
	<ellipse class="st35" cx="87.6" cy="195.4" rx="46.3" ry="3.4"/>
	<rect x="84" y="200.1" class="st26" width="7.2" height="66.5"/>
	
		<linearGradient id="SVGID_6_" gradientUnits="userSpaceOnUse" x1="72.8317" y1="37.1924" x2="73.8863" y2="29.4415" gradientTransform="matrix(1 0 0 1 0 162.6667)">
		<stop  offset="0" style="stop-color:#FFFFFF"/>
		<stop  offset="0.95" style="stop-color:#919191"/>
	</linearGradient>
	<path class="st36" d="M93.2,194.2L76.3,199c0,0-21.6-0.7-22.8-1.1c10.7-3.1,16.2-4.4,16.2-4.4s8.1-1.1,9.8-1.4
		c1.7-0.3,6.1-0.5,6.1-0.5l7,1.1L93.2,194.2z"/>
	
		<linearGradient id="SVGID_7_" gradientUnits="userSpaceOnUse" x1="111.5317" y1="38.1223" x2="112.5006" y2="30.9801" gradientTransform="matrix(1 0 0 1 0 162.6667)">
		<stop  offset="0" style="stop-color:#FFFFFF"/>
		<stop  offset="0.16" style="stop-color:#F6F6F6"/>
		<stop  offset="0.42" style="stop-color:#DDDDDD"/>
		<stop  offset="0.74" style="stop-color:#B6B6B6"/>
		<stop  offset="1" style="stop-color:#919191"/>
	</linearGradient>
	<path class="st37" d="M132.5,194.4l-10.1,3.3c0,0-19.5,1.4-30.7,1.1c10.7-3.1,20.1-5.8,20.1-5.8s1.4,0,5.5,0.1c1,0,2,0.3,2.9,0.7
		l0.9,1.6L132.5,194.4z"/>
	<path class="st7" d="M82.9,193c0,0.4-2.6,1.1-5.9,1.1s-6-0.7-6-1.1s2.6-0.8,5.9-0.8C80.3,192.3,82.9,192.6,82.9,193z"/>
	<path class="st24" d="M73.4,188.1c-0.5-0.2-1.4-0.6-1.7,0.2c-0.3,0.8,0.3,2,1.2,3.2c0.5,0.6,1,1.1,1.5,1.6l-0.2-0.8
		c0,0-2.2-2.5-2.1-3.3c0.1-1.2,1.3,0,1.3,0L73.4,188.1z"/>
	<path class="st7" d="M81.1,187.4H73l1.3,6.2c0,0.4,1.2,0.5,2.8,0.5s2.7-0.1,2.8-0.5L81.1,187.4z"/>
	<path class="st24" d="M81.1,187.4c0,0.2-2.2,0.4-4.2,0.4s-3.9-0.2-3.9-0.4s2-0.4,3.9-0.4C78.9,187,81.1,187.2,81.1,187.4z"/>
	<path class="st24" d="M74.2,193.6c0.1,0.3,1.2,0.4,2.5,0.5l-0.7-6.4l-1.3-0.3h-1.8L74.2,193.6z"/>
	<path class="st24" d="M82.9,193c0,0.5-2.6,1.6-5.9,1.6s-5.9-1.1-5.9-1.6c0,0,1.7,0.8,5.9,0.8C81.2,193.8,82.9,193,82.9,193z"/>
	<path class="st7" d="M110.4,179.2c0.4-0.2,1.1-0.5,1.4,0.2s-0.2,1.7-1,2.7c-0.4,0.5-0.8,0.9-1.3,1.4l0.1-0.7c0,0,1.8-2.1,1.7-2.8
		c-0.1-1-1.1,0-1.1,0L110.4,179.2z"/>
	<path class="st7" d="M104.5,178.7h6.9l-1.1,5.2c0,0.3-1,0.4-2.3,0.4s-2.2-0.1-2.3-0.4L104.5,178.7z"/>
	<path class="st24" d="M104.5,178.7c0,0.2,1.9,0.3,3.5,0.3s3.3-0.1,3.3-0.3s-1.7-0.3-3.3-0.3C106.4,178.4,104.5,178.6,104.5,178.7z"
		/>
	<path class="st24" d="M105.6,184c0.1,0.3,1,0.4,2.1,0.4l-0.6-5.4l-1.1-0.3h-1.5L105.6,184z"/>
	<path class="st27" d="M68.2,189.7c-0.7,0-1.5,0-2.2-0.1c-0.3-0.1-1.7,3.7-0.9,4.2c0.9,0.5,4.5,0.9,5,0.2S68.2,189.7,68.2,189.7z"/>
	<path class="st27" d="M68.1,188.8c1.7-0.9,2.4-2.1,2.9-2.3s1.8,0.7,1.7,1.2c-0.1,1-1.1,0.2-1.8,0.5C69.9,188.6,69,188.8,68.1,188.8
		z"/>
	<path class="st25" d="M69,188c0.7-0.2,3.5-0.3,3.7,0.5s-1.5,1-1.5,1l-1.1,0.1c0,0,2.9-1,3.1,0.2c0.2,0.9-2,1.7-2,1.7s1.5-1.2,2-0.4
		s-1.8,1.8-1.8,1.8s1.8-1.3,1.9-0.5s-2.1,2.6-2.8,2.5c-0.7-0.1-1.3,0-2-0.6c-0.4-0.4-0.7-0.9-1-1.4c-0.3-0.7-0.4-1.5-0.4-2.3
		C67.2,189.9,66.7,188.7,69,188z"/>
	<path d="M56.4,168.5c-0.8-2.8-8.5,21.8-7.5,23.8s1.8,1.9,3.3,2.2s14.7,2.1,14.7,2.1s-0.9-6-0.3-7.2s-8.6-1.9-8.6-1.9
		s2.9-6.9,2.9-7.5S57.1,171,56.4,168.5z"/>
	<path class="st25" d="M92.5,191.9c0.1-0.7-1.3-1.6-2.2-2.6c-2.1-0.2-4.1,0-6.2,0.4c-0.7,0.3-1.3,0.7-1.9,1.3
		c-0.8,0.6-0.6,1.1,0.2,0.8c0.5-0.2,1-0.5,1.5-0.8l1.3-0.3c0,0-1,0.3-1.3,0.4c-0.3,0.1-1.5,1-1.8,1.2c-0.5,0.3-0.5,0.9,0.3,0.7
		c0.6-0.2,1.2-0.4,1.7-0.7c0.6-0.2,1.7-0.5,1.7-0.5c-1.2,0.5-2.9,1-3.3,1.5s0.1,1,0.9,0.5s1.8-0.8,2.7-0.9l-2.2,0.8
		c0,0-0.6,0.7,0.5,0.5c2.8-0.7,5.1-0.7,6-1.2C91.1,192.6,92.4,192.4,92.5,191.9z"/>
	<path class="st7" d="M92.9,193.2c0.1-0.9-0.9-4.2-2.2-4.8c-0.7,0.3-1.3,0.6-1.3,0.6s1.2,3.5,1,5L92.9,193.2z"/>
	<path d="M92.6,186.7l-2.3,0.9c0,0,2.6,5.9,2.4,6.7c3.7-0.7,4.5-3.2,4.5-3.2L92.6,186.7z"/>
	<polygon class="st7" points="135.9,168.3 126.8,172.7 128.7,176.8 137.1,169.8 	"/>
	
		<linearGradient id="SVGID_8_" gradientUnits="userSpaceOnUse" x1="124.4282" y1="21.2972" x2="135.7287" y2="22.4461" gradientTransform="matrix(1 0 0 1 0 162.6667)">
		<stop  offset="0" style="stop-color:#FFFFFF"/>
		<stop  offset="0.18" style="stop-color:#E8E5E2"/>
		<stop  offset="0.37" style="stop-color:#D5D1CC"/>
		<stop  offset="0.55" style="stop-color:#CAC4BE"/>
		<stop  offset="0.7" style="stop-color:#C6C0B9"/>
	</linearGradient>
	<path class="st38" d="M131.8,173.8c-1.8,1.3-4.7,3.6-4.7,4.3s-3.1,7.7-3.3,8.8c-0.2,1.1,2.1,8.4,2.9,8.2s6.2-0.9,6.6-2.3
		C133.6,191.4,131.8,173.8,131.8,173.8z"/>
	<path class="st25" d="M121.6,191.4c-2.4,0.6-5.3,1.4-5.7,1.4c-1.1-0.1-2.2-0.2-3.3-0.1c-1.1,0.3-2.3,0.8-3.3,1.4l-1.6,1.3
		c0,0-0.1,0.1,0.2,0.1c0.5,0,0.9-0.2,1.3-0.4c0.7-0.4,2-1.1,2-1.1s-3.2,1.7-3,2c0.1,0.3,1,0,1.4-0.2s2.1-1.1,2.1-1.1
		s-3.1,1.5-2.5,1.7s2-0.7,2.4-0.8s-1.3,0.7-1.3,0.7s-0.1,0.3,0.5,0.2c0.5-0.1,2.1-0.8,2.4-0.8c0.4,0,2.2,0.4,3.4-0.1
		c2.1-0.8,5.4-0.5,5.7-1.1C122.6,194,121.6,191.4,121.6,191.4z"/>
	<path class="st29" d="M135.1,172.9c2,0,2.7,1.9,2.9,3.6c0.2,1.7,0,14.2-3.2,16.9c-1.6,1.4-14.3,2.9-15.4,2.7
		c-0.7-0.2-1.2-0.7-1.5-1.3l-0.5-2.4c0,0,0.2-0.4,1.1-0.8c2.9-1.3,9.4-3.9,10.3-5.2c1.1-1.7,1.6-7.8,2.6-10.6
		C131.8,174.2,133.4,173,135.1,172.9z"/>
	<path class="st39" d="M141.8,173.4c-2.9-2.5-3.3-13.2-5.3-18.4c0-0.2-0.1-0.4-0.1-0.6c-0.2-0.5-0.4-1-0.7-1.5l0,0l0,0
		c-2.1-3.8-6.5-5.1-11-3.8c-3.5,1-5.4,4.2-5.2,5.5l0,0l-0.2-0.1c-0.3,1.6,0.3,3.4,4.9,4.3c-0.5-0.2-0.8-1.2-0.9-1.6
		c1.2,0.9,2.7,1.3,4.2,1.3c0.4,0,1.7-1.1,2.2,0.9c0.3,0.9,0.2,1.8-0.2,2.6l0.2,0.1c0.3,8.3,0.3,15.2-1.3,15.8l0.7,0.2
		c0.9-0.8,1.7-1.8,2.4-2.8c0,0.4-0.4,2.1-1.5,2.7c1.2,0.2,2.6-2.1,3.3-3.1c0.5-0.7,1-1.2,2-4.9c1.1,2.1,2.6,4,4.4,5.7
		C139.6,175.8,142.8,174.4,141.8,173.4z"/>
	<path class="st40" d="M141.8,173.5c-2.9-2.5-3.3-13.2-5.3-18.4c0-0.2-0.1-0.4-0.2-0.6c-0.2-0.5-0.4-1-0.7-1.5l0,0l0,0
		c-0.9-1.7-2.4-2.9-4.2-3.6c5.6,3.7,4.8,11,4.9,15.2c0.1,3.1,2.4,9.1,4.5,10.5C141.7,174.6,142.4,173.9,141.8,173.5z"/>
	<path class="st13" d="M19.9,222.9L19.9,222.9l-0.1-12H6.1l4,14.3c0,1.3,4.4,2.3,9.8,2.3s9.8-1,9.8-2.3
		C29.7,224,25.3,222.9,19.9,222.9z"/>
	<path class="st22" d="M19.6,210.9h13.7c0,0-3.6,14.2-3.6,14.3c0,1.3-4.6,2.3-10.1,2.3L19.6,210.9z"/>
	<ellipse class="st16" cx="19.6" cy="210.9" rx="14" ry="2.4"/>
	<path class="st18" d="M35.9,202.4c0,5.9-3.5,9.2-8.9,10.5c-2.5,0.5-5,0.7-7.5,0.6c-8.2,0-15.6-2.9-15.6-11.1
		c0-8.2,7.8-12.6,16-12.6S35.9,194.2,35.9,202.4z"/>
	<path class="st17" d="M3.9,202.4c-0.1,4.2,2.1,8.2,5.8,10.2c1,0.6,2.2,0.6,5.7,0.7c2.5,0.1,7.4,0.6,6.5,0
		c-8.3-5.1-11.6-16.4-5.7-23.2C9.5,191.3,3.9,195.5,3.9,202.4z"/>
	<path class="st19" d="M33.5,210.6v0.1c0,1.3-6.3,2.4-14,2.4c-7.5,0-13.5-1-13.9-2.2v0.6c0,1.3,6.3,2.3,14,2.3s14-1.1,14-2.4
		L33.5,210.6L33.5,210.6z"/>
	<path class="st20" d="M12.4,198.9c-1.5,0.2-1.5,0.3-0.3,1.2c-1.4-0.6-1.5-0.5-0.9,0.9c-0.9-1.2-1-1.2-1.2,0.3
		c-0.2-1.5-0.3-1.5-1.2-0.3c0.6-1.4,0.5-1.5-0.9-0.9c1.2-0.9,1.2-1-0.3-1.2c1.5-0.2,1.5-0.3,0.3-1.2c1.4,0.6,1.5,0.5,0.9-0.9
		c0.9,1.2,1,1.2,1.2-0.3c0.2,1.5,0.3,1.5,1.2,0.3c-0.6,1.4-0.5,1.5,0.9,0.9C10.9,198.6,10.9,198.7,12.4,198.9z"/>
	<path class="st20" d="M23.4,209c-1.5,0.1-1.5,0.3-0.3,1.1c-1.4-0.5-1.5-0.5-0.9,0.8c-0.9-1.1-1-1-1.2,0.3c-0.2-1.3-0.3-1.4-1.2-0.3
		c0.6-1.2,0.5-1.3-0.9-0.8c1.2-0.8,1.2-0.9-0.3-1.1c1.5-0.1,1.5-0.3,0.3-1.1c1.4,0.5,1.5,0.5,0.9-0.8c0.9,1.1,1,1,1.2-0.3
		c0.2,1.3,0.3,1.4,1.2,0.3c-0.6,1.2-0.5,1.3,0.9,0.8C21.9,208.7,21.9,208.8,23.4,209z"/>
	<path class="st21" d="M18.9,193c-0.7,0.1-0.7,0.1-0.1,0.5c-0.6-0.3-0.7-0.2-0.4,0.4c-0.4-0.5-0.5-0.5-0.5,0.1
		c-0.1-0.7-0.1-0.7-0.5-0.1c0.3-0.6,0.2-0.7-0.4-0.4c0.5-0.4,0.5-0.5-0.1-0.5c0.7-0.1,0.7-0.1,0.1-0.5c0.6,0.3,0.7,0.2,0.4-0.4
		c0.4,0.5,0.5,0.5,0.5-0.1c0.1,0.7,0.1,0.7,0.5,0.1c-0.3,0.6-0.2,0.7,0.4,0.4C18.2,192.9,18.2,192.9,18.9,193z"/>
	<path class="st21" d="M33.4,205.1c-0.9,0.1-0.9,0.2-0.2,0.7c-0.7-0.3-0.8-0.3-0.5,0.5c-0.5-0.7-0.6-0.6-0.7,0.2
		c-0.1-0.8-0.2-0.9-0.7-0.2c0.3-0.7,0.3-0.8-0.5-0.5c0.7-0.5,0.6-0.6-0.2-0.7c0.9-0.1,0.9-0.2,0.2-0.7c0.7,0.3,0.8,0.3,0.5-0.5
		c0.5,0.7,0.6,0.6,0.7-0.2c0.1,0.9,0.2,0.9,0.7,0.2c-0.3,0.7-0.3,0.8,0.5,0.5C32.6,204.9,32.6,205,33.4,205.1z"/>
	<path class="st21" d="M27,199.8c-1.1,0.1-1.2,0.2-0.2,0.9c-1-0.5-1.1-0.4-0.7,0.7c-0.7-0.9-0.8-0.9-0.9,0.3
		c-0.1-1.2-0.2-1.2-0.9-0.3c0.5-1.1,0.4-1.1-0.7-0.7c0.9-0.7,0.9-0.8-0.2-0.9c1.2-0.1,1.2-0.2,0.2-0.9c1.1,0.5,1.1,0.4,0.7-0.7
		c0.7,0.9,0.8,0.9,0.9-0.2c0.1,1.1,0.2,1.2,0.9,0.2c-0.5,1.1-0.4,1.1,0.7,0.7C25.8,199.6,25.9,199.7,27,199.8z"/>
	<path class="st21" d="M28.8,194.7c-0.9,0.1-1,0.2-0.2,0.7c-0.9-0.4-0.9-0.3-0.5,0.5c-0.6-0.8-0.7-0.7-0.8,0.2
		c-0.1-0.9-0.2-1-0.8-0.2c0.4-0.9,0.3-0.9-0.5-0.5c0.8-0.5,0.7-0.7-0.2-0.7c0.9-0.1,1-0.2,0.2-0.8c0.9,0.4,0.9,0.3,0.5-0.5
		c0.6,0.8,0.7,0.7,0.8-0.2c0.1,0.9,0.2,1,0.8,0.2c-0.4,0.9-0.3,0.9,0.5,0.5C27.8,194.5,27.8,194.6,28.8,194.7z"/>
	<path class="st20" d="M15.1,207.5c-0.9,0.1-1,0.2-0.2,0.7c-0.9-0.4-0.9-0.3-0.5,0.5c-0.5-0.8-0.7-0.7-0.7,0.2
		c-0.1-0.9-0.2-1-0.7-0.2c0.4-0.9,0.3-0.9-0.5-0.5c0.8-0.6,0.7-0.6-0.2-0.7c0.9-0.1,1-0.2,0.2-0.8c0.9,0.4,0.9,0.3,0.5-0.5
		c0.6,0.8,0.7,0.7,0.7-0.2c0.1,0.9,0.2,1,0.8,0.2c-0.4,0.9-0.3,0.9,0.5,0.5C14.1,207.3,14.2,207.4,15.1,207.5z"/>
	<path class="st21" d="M18.3,202.1c-0.9,0.1-1,0.2-0.2,0.8c-0.9-0.4-0.9-0.3-0.5,0.5c-0.5-0.8-0.6-0.7-0.7,0.2
		c-0.1-0.9-0.2-1-0.8-0.2c0.4-0.9,0.3-0.9-0.5-0.5c0.8-0.6,0.7-0.7-0.2-0.8c0.9-0.1,1-0.2,0.2-0.8c0.9,0.4,0.9,0.3,0.5-0.5
		c0.6,0.8,0.7,0.7,0.8-0.2c0.1,0.9,0.2,1,0.7,0.2c-0.4,0.9-0.3,0.9,0.5,0.5C17.3,201.9,17.4,202,18.3,202.1z"/>
	<path class="st21" d="M20.8,196.7c-0.6,0.1-0.6,0.1-0.1,0.5c-0.6-0.3-0.6-0.2-0.4,0.3c-0.4-0.5-0.4-0.5-0.5,0.1
		c-0.1-0.6-0.1-0.6-0.5-0.1c0.3-0.6,0.2-0.6-0.4-0.3c0.5-0.4,0.5-0.4-0.1-0.5c0.6-0.1,0.6-0.1,0.1-0.5c0.6,0.3,0.6,0.2,0.4-0.4
		c0.4,0.5,0.4,0.5,0.5-0.1c0.1,0.6,0.1,0.6,0.5,0.1c-0.3,0.6-0.2,0.6,0.4,0.4C20.2,196.6,20.2,196.7,20.8,196.7z"/>
	<path class="st21" d="M31.6,199.1c-0.6,0.1-0.6,0.1-0.1,0.5c-0.6-0.3-0.6-0.2-0.4,0.4c-0.4-0.5-0.4-0.5-0.5,0.1
		c-0.1-0.6-0.1-0.6-0.5-0.1c0.3-0.6,0.2-0.6-0.4-0.4c0.5-0.4,0.5-0.4-0.1-0.5c0.6-0.1,0.6-0.1,0.1-0.5c0.6,0.3,0.6,0.2,0.4-0.4
		c0.4,0.5,0.4,0.5,0.5-0.1c0.1,0.6,0.1,0.6,0.5,0.1c-0.3,0.6-0.2,0.6,0.4,0.4C30.9,198.9,30.9,199,31.6,199.1z"/>
	<path class="st21" d="M26.7,205.6c-0.9,0.1-1,0.2-0.2,0.8c-0.9-0.4-0.9-0.3-0.5,0.5c-0.6-0.8-0.7-0.7-0.8,0.2
		c-0.1-0.9-0.2-1-0.7-0.2c0.4-0.9,0.3-0.9-0.5-0.5c0.8-0.5,0.7-0.7-0.2-0.8c0.9-0.1,1-0.2,0.2-0.7c0.9,0.4,0.9,0.3,0.5-0.5
		c0.6,0.8,0.7,0.7,0.7-0.2c0.1,0.9,0.2,1,0.8,0.2c-0.4,0.9-0.3,0.9,0.5,0.5C25.8,205.4,25.8,205.5,26.7,205.6z"/>
	<rect x="9.5" y="175.2" class="st23" width="31.4" height="55.8"/>
	<path class="st24" d="M295,164c1,2.5,0.9,5.9-0.1,6.1c-1,0.1-4.3,1.3-3.4-1.9C291.9,166.3,293.2,164.8,295,164z"/>
	<path class="st25" d="M299.8,201c0.6,4.8,3.5,19.1,4.7,22.7c1.2,3.6,5.4,23.2,3.9,25.8s-6.1,5.3-6.1,5.3s1.1,1.7,6.7-1
		c3.6-1.8,5.4-0.8,5.9-4.3c-0.7-1.9-1.2-3.8-1.4-5.8c-0.2-2.4,0.7-12.7,0.2-17.3c-0.5-5.1-2.3-8.7-2.1-11.9
		c0.2-3.1,0.5-10.4,0.5-10.4L299.8,201z"/>
	<path d="M314.3,247.9c0.4,1.2,1.3,2.3,0.8,3.9c-0.3,1.2-0.5,2.4-0.7,3.6l-1.9,0.1l-0.2-2.5c-1.6,0.8-3.1,1.8-4.4,3.1
		c-0.1,0.1-6.6,0.3-6.6,0.3s-0.4-2.1,2.4-2.7c2.9-0.6,5.7-1.8,8.1-3.6C312.5,249.3,313.4,248.6,314.3,247.9z"/>
	<path class="st25" d="M310,201.7c1.7,7.9,4,17.1,4.9,21.7c1,5.1,2.3,10.2,3.8,15.2c1.7,5.7,2,8.1,2.6,10c0.6,2,0.9,6.6,1.6,7.9
		c1.1,2,4.3,1.9,4.3-0.3s-2.5-5.7-2.6-8.3c-0.2-2.6-0.1-16.9-2.3-23.1c-0.7-2-2.5-22.5-2.9-23.5C319.2,200.4,310,201.7,310,201.7z"
		/>
	<path class="st41" d="M322.1,252.7c0.4,1.8,0.3,4.8,2.9,6.1c1.4,0.7,2,0.1,2.3-0.9c0.6-2.1,0.1-4.4-1.3-6.1c0.5,2.5,1,3.6-0.7,4.2
		C323.6,256.7,322.1,252.7,322.1,252.7z"/>
	<path d="M299,169c-7.7,16.8-2.2,17.6,3,48c0.3,3.9,15.2,2.9,21.5-1.3c0,0-2.8-36.9-7.8-45.1C310.1,171.1,304.4,170.5,299,169z"/>
	<path class="st41" d="M316.5,169.3c-1.4,0.1-4.9,2.6-6.3,2.6c9.3,11.7,8.6,44,8.3,51.9c3.4-0.2,4.4-0.8,4.4-0.8
		S324.4,187.9,316.5,169.3z"/>
	<path class="st40" d="M311.4,133.9c1.2,1.7,4.4,7.6,2.4,11.6s-3.4,4.2-3.4,4.2c1-1.9,1.2-4.1,0.4-6.1c-0.9-2.4-1.9-4.8-3.2-7.1
		L311.4,133.9z"/>
	<path class="st25" d="M306.7,157.9l-5.8-15.1c0,0,2.8,0,2.6-6.8l3.4-0.2l0,0l3.1,0.1c-0.5,6.5,2.2,7.4,2.2,7.4l-2.2,11.4
		L306.7,157.9z"/>
	<path class="st27" d="M303.4,135.9l3.4,0.7l-0.5,9.1l-5.5-2.3c0,0,1.8-0.8,1.9-1.3C303,140.3,303.4,136.6,303.4,135.9z"/>
	<g>
		
			<linearGradient id="SVGID_9_" gradientUnits="userSpaceOnUse" x1="306.232" y1="-19.9243" x2="306.0605" y2="-24.34" gradientTransform="matrix(1 0 0 1 0 162.6667)">
			<stop  offset="0" style="stop-color:#FFFFFF"/>
			<stop  offset="0.64" style="stop-color:#BAADA6"/>
		</linearGradient>
		<path class="st42" d="M306.9,135.6L306.9,135.6l3.5,0.2c-0.2,0.9-0.3,1.8-0.3,2.7c-0.9,1.3-6.1,5.8-7.7,5.8c-1.4,0,0.4-1.1-0.5-2
			c1.2,0.2,1.6-6.1,1.6-6.5L306.9,135.6z"/>
	</g>
	<path class="st25" d="M299.6,129.9c0.6,5,4.3,9.3,6.7,9.3c2.7,0,6.7-2.7,7.7-9.1c0.9-5.3-0.5-10.5-7.1-10.5
		C300.6,119.5,298.9,124.7,299.6,129.9z"/>
	<path class="st39" d="M306.9,123.3c-2,1.9-5.4,1.6-6.2,6.3c-0.3,1.7-0.3,3.4,0.1,5.1c-1.9-2-2.5-6.4-2.5-6.4s-0.6-5.7,3.5-8.3
		c2.3-1.5,5.3-1.1,5.4-0.9C307.2,120.5,307.1,121.9,306.9,123.3z"/>
	<path class="st40" d="M306.9,123.2c1.5,1.7,4.8,2.6,5.7,6c0.9,3.4-0.2,5.5,0.2,4.9c1-1.5,1.7-3.1,2.1-4.8c0,0,0.8-6.1-2.9-9
		c-2.2-1.7-5-1.7-5.1-1.2C306.9,119.5,306.9,123.2,306.9,123.2z"/>
	<path class="st24" d="M303.2,141.5c-4.3,1.8-6.8,1.3-8.6,3.2c-5.2,5.6-5.9,22.1-5.9,22.1s10.2-0.9,9.4,1
		c-2.3,5.2,11.2,3.8,11.2,3.8l-1.4-28.9c0,0-1.9,0.3-2.4,0.3L303.2,141.5z"/>
	<path class="st7" d="M311.4,141.6c4,1.5,6.6,1.6,8.8,3.1s3.9,9.1,3.9,9.1s-5.1,0.7-5.4,1.8c-0.4,1.1-4.1,11.1-3.7,12.5
		c1.1,3.7-0.5,5.2-0.5,5.2l-9,3l0.3-24.5l0.9-8.6c1.3-0.2,2.6-0.6,3.7-1.2L311.4,141.6z"/>
	
		<linearGradient id="SVGID_10_" gradientUnits="userSpaceOnUse" x1="295.8786" y1="-5.8046" x2="306.8019" y2="-27.4969" gradientTransform="matrix(1 0 0 1 0 162.6667)">
		<stop  offset="0" style="stop-color:#FFFFFF"/>
		<stop  offset="0.15" style="stop-color:#FCFBFB"/>
		<stop  offset="0.3" style="stop-color:#F2EFEE"/>
		<stop  offset="0.46" style="stop-color:#E1DCDA"/>
		<stop  offset="0.62" style="stop-color:#CAC1BD"/>
		<stop  offset="0.72" style="stop-color:#B8ABA6"/>
	</linearGradient>
	<path class="st43" d="M310.9,143.7L296.1,163c0,0-4.1-15.3-3.9-15.5c0.7-1,1.5-2.4,2.6-3c2.3-1.1,4.8-1.9,7.3-2.4
		C304,141.8,310.9,143.7,310.9,143.7z"/>
	<path class="st7" d="M302.8,140.1l-2.7,2.2c0,0,2.7,4.1,3.1,3.9c1.1-1,2.2-2.1,3.1-3.2L302.8,140.1z"/>
	<path class="st24" d="M311.1,140l1.3,1.8c0,0-1.8,4-2.8,4c-0.5,0-2.8-2.7-2.8-2.7L311.1,140z"/>
	<path class="st44" d="M300.1,142.3c-2.6,5.1-2,7.8-1.8,9.4c0.4,2.8,6.9,8.5,7.5,9c0.1,1.7,0.2,15.2,0.2,15.2l-2.6,3.7l-7.5-2.8
		c0,0,1.6-8,2.1-8.7s-1.9-9.9-1.9-9.9s0.6-7.6-1.3-13.8C294.7,144,300.1,142.3,300.1,142.3z"/>
	<path class="st12" d="M314.1,142.3c0.3,1.4-0.6,8-0.8,9.7c-0.4,2.8-7.1,8.4-7.7,8.9c-0.1,2.1-0.1,2.1,0,15.4l2.1,3l12.1-2.9
		c0,0-3-7.9-3.5-8.6c-0.5-0.7,2.3-9.9,2.3-9.9s-2.4-10.6,0-14C318.8,143.5,314.1,142.3,314.1,142.3z"/>
	<path d="M308.1,163.6c0.3,0.2,0.3,0.6,0.1,0.8l0,0l0,0c-0.2,0.2-0.6,0.2-0.8-0.1l0,0L298,155c-0.3-0.2-0.3-0.6-0.1-0.8l0,0l0,0
		c0.3-0.2,0.6-0.2,0.8,0.1l0,0L308.1,163.6z"/>
	<path class="st25" d="M291.6,163.1c4-0.5,7.5-1.2,8.2-1.2s0.9,3.4,0.9,3.4s-7.5,4.5-11.6,4.2C288.1,169.4,288.9,163.4,291.6,163.1z
		"/>
	<path class="st25" d="M299.8,161.9c0.9-1.1,1.3-2.6,2.4-2.4c1.6,0.4,3.2,1,4.6,1.9c0.4,0.4,0.4,0.7-1,0.5c-1.3-0.1-2.6-0.4-2.6-0.4
		s3.7,0.9,3.4,1.5c-0.3,0.6-3.9,0.4-3.9,0.4s3.6,0.2,3.1,1c-0.5,0.7-3,0.2-3,0.2s2.7,0.2,2.6,0.5c-0.7,1.3-1.9,1.1-3,1.1
		s-1.3,0.4-2.2-1.6C300,163.6,299.8,162.8,299.8,161.9z"/>
	<path class="st25" d="M303,159.8c0.9-0.4,1.8-0.6,2.8-0.7c0.7,0.1,1.7-0.2,1.5,0.2c-0.2,0.5-0.7,0.8-1.2,0.7
		c-0.5,0-0.9,0.2-1.3,0.4L303,159.8z"/>
	<polygon points="298,164.5 309.5,163 309.9,166.4 303.3,167.4 	"/>
	<path class="st25" d="M323.4,161c-2.8,1-12.1,3.8-12.9,3.8c-0.7,0-2.8,0.8-3.8,0.8s-2.5,0-1,0.5c1,0.3,2,0.4,3,0.2l-5.3,0.5
		l-2.6-0.4c0.6,0.6,1.4,1.1,2.2,1.4c1.6,0.4,3.3,0.6,5,0.7c1.5,0,3.8-1.9,4.9-1.9s11.8-1.4,12.6-1.6S323.4,161,323.4,161z"/>
	<path class="st7" d="M318.6,143.9c1.5-1,3.3,5.1,5.2,9.6c1.9,4.5,2.3,9.4,1.9,11.6c-0.5,2.2-5.8,3.1-5.8,3.1s-1.3-5.2-2.8-5.2
		s2.1-2.2,2.1-2.2l-0.6-3C318.6,157.9,314.5,146.8,318.6,143.9z"/>
	<path class="st24" d="M316.2,162.8c-0.8,0.2,1.9-1.1,1.9-1.1s3.6,3.1,4,6.6c-1,0.6-2.2,0.9-3.3,0.6
		C318.5,168.9,316.6,162.7,316.2,162.8z"/>
	<path class="st7" d="M292.7,162.3c-1.1,0.1-1.9,7.1,0.6,7.8c-2.1,0.6-5.8-0.2-5.8-0.2s-1.9-4.4-0.5-6.4s4.8-1.4,4.8-1.4
		L292.7,162.3z"/>
	<path class="st35" d="M371.3,210.5c-0.4,3.9-3.9,5.7-8,5.3l-16,0.6c-4-0.3-6.9-3.8-6.6-7.7l-1.6-30.6c0.5-4,4-6.8,8-6.3l20,0.1
		c4,0.3,6.9,3.8,6.6,7.7L371.3,210.5z"/>
	<path class="st35" d="M245,213.1c0.4,4,4,6.8,8,6.4l0,0l16-1.5c4-0.3,6.9-3.8,6.6-7.7l-3-30.9c-0.5-4-4-6.8-8-6.4l-17,1.4
		c-4,0.3-6.9,3.8-6.6,7.7L245,213.1z"/>
	<path class="st27" d="M275.4,165.2c-0.5,2,0.5,4,1.2,5.7s-1.8,6.9-2.9,6.9s-8.1-5.6-8.1-5.6s1.2,0.9,1.8-9.6
		C267.6,161.1,275.4,165.2,275.4,165.2z"/>
	
		<linearGradient id="SVGID_11_" gradientUnits="userSpaceOnUse" x1="493.8582" y1="60.2457" x2="510.4403" y2="48.7994" gradientTransform="matrix(1 -4.000000e-02 4.000000e-02 1 -229.3067 132.2433)">
		<stop  offset="0" style="stop-color:#FFFFFF"/>
		<stop  offset="0.52" style="stop-color:#C6C0B9"/>
	</linearGradient>
	<path class="st45" d="M271.2,165.2L271.2,165.2l3.5,0.3c0.6,2.1,1.4,4.2,2.3,6.1c-0.9,1.3,0.5,2.8-1.2,2.7
		c-1.4-0.1-7.8-2.1-8.7-3.1c0.2-1.4,0.3-7.1,0.3-7.4L271.2,165.2z"/>
	<path class="st26" d="M247.1,226.1c0.2,5.1-3.3,33.9-3.3,33.9h1.9l6.3-33.9H247.1z"/>
	<path class="st26" d="M259,224.1c0.3,5.9-3,39.1-3,39.1h2.2l6.5-39.1H259z"/>
	<path class="st33" d="M288.1,225.8c-0.3,5.9,3.4,35.4,3.4,35.4h-2.2l-6.8-35.4L288.1,225.8L288.1,225.8z"/>
	<path class="st26" d="M246.5,217.8c0,3.7,0.1,7.9,0.5,9s11.4,3.8,13.9,4.2s31.4-1.2,31.8-3.1c0.4-1.8-17.2-12.3-19.7-12.6
		C270.5,214.9,246.5,217.8,246.5,217.8z"/>
	<path class="st26" d="M369.2,224c-0.2,5.1,3.3,33.9,3.3,33.9h-1.9l-6.3-33.9H369.2z"/>
	<path class="st26" d="M357.3,224.2c-0.3,5.9,3,39.1,3,39.1h-2.2l-6.5-39.1L357.3,224.2L357.3,224.2z"/>
	<path class="st33" d="M328.3,223.8c0.3,5.9-3.9,34.5-3.9,34.5h2.2l7.4-34.5L328.3,223.8L328.3,223.8z"/>
	<path class="st26" d="M369.5,216c0.9,0.3,0.7,7.2,0.3,8.3c-0.4,1.1-11.3,4.8-13.8,5.2s-31.1-1.2-31.4-3.1c-0.4-1.8,14.5-10.6,17-11
		C344.1,215.1,369.5,216,369.5,216z"/>
	<path class="st7" d="M265.5,171.6l-5.4,6.2L271,209l10-4.4l-1.3-31.2l-2.3-1.1c0,0-3.7,3.2-5.1,3.4
		C270.1,176.1,265.5,171.6,265.5,171.6z"/>
	
		<linearGradient id="SVGID_12_" gradientUnits="userSpaceOnUse" x1="482.8502" y1="84.6351" x2="510.6042" y2="71.9455" gradientTransform="matrix(1 -4.000000e-02 4.000000e-02 1 -229.3067 132.2433)">
		<stop  offset="0" style="stop-color:#FFFFFF"/>
		<stop  offset="1" style="stop-color:#C6C0B9"/>
	</linearGradient>
	<path class="st46" d="M277.4,171.4c-0.5,0.6-3,4.4-4.6,4.2s-6.2-3-6.7-4.1c-0.5,0.4-4.9,3.7-4.9,3.7l10.9,36.1l8.8-6.7l-1.5-30.5
		L277.4,171.4z"/>
	<path d="M270.8,215.4c0,0-20.2,7.9-19.5,5.7c2.1-6.9,6.4-17.5,6.7-19.8c0.6-3.9,0-9.7,0-11.1c0.1-3.5-2.3-13.1-1.7-13.3
		c4-1.7,5-1.7,8.5-4.6c0,0-1.2,4.9-0.2,7.1c1,2.2,5.2,15.1,6.3,16.3C271.9,197.2,270.8,215.4,270.8,215.4z"/>
	<path class="st28" d="M279.8,208.4l-1.7-11.1c-0.4-5.6-0.2-11.3,0.6-16.8l-0.2-7.6c2,0.8,2.9,2.8,7,3.8c0.9,0.2,0.9,3.9,0.9,3.9
		s-1.2,11.8-1.2,13.1c-0.2,7.9,1.2,9.8,1.1,12.9c0,1.8-1.7,0.9-0.3,5.7L279.8,208.4z"/>
	<path class="st28" d="M266,171.3c-1,0.7-2,1.4-2.9,2.1l-1.5,3.2l1.4,1.5l-1.6,2l9.4,15.4c0,0-3.8-15.4-4.6-17.8
		C265.8,175.6,265.7,173.4,266,171.3z"/>
	<path d="M277.3,171.1c0.8,0.8,1.6,1.6,2.4,2.5l2.4,2.2l-2.8,2l3.7,2.3l-4.6,18.7c0,0-0.3-22.7-0.4-25.2
		C278,171.6,277.3,171.1,277.3,171.1z"/>
	<path d="M259,207.1c-3.2,3.6-5.3,9.9-5.1,12.5c0.2,3.6,13.6,5.6,13.6,5.6v-0.5c2.1,0,2.3-1.8,5.1-1.8s17.3,2.1,16.4-2.2
		c-0.6-3-4.6-12.7-7.5-13.5C278.7,206.3,259,207.1,259,207.1z"/>
	<path d="M285,253.1c-0.2,1.9-0.2,6.3,0.9,7.7c0.6,0.4,1.4,0.5,2.1,0.4c1.1-0.3,1.3,0.2,2,1s4.8,1.5,6.7,1.1c2.3-0.4,2.9-1.6,0-3.4
		c-3.5-2.2-5.6-4.2-6.4-6.3C289.6,251.5,285,253.1,285,253.1z"/>
	<path d="M284.2,211.4c3.8,1.3,6.9,2.3,8.7,3.6c1.7,0.8,2.7,2.4,3.3,6.2c0.6,3.8-1,35.7-1,35.7l-2.5,0.7v0.1c0,0-8.3,0.5-8.3,0
		s-1-33.4-1.1-34.3S284.2,211.4,284.2,211.4z"/>
	<path d="M265.7,254.2c-0.2,1.8-0.9,7.7,1,9.1c0.6,0.5,1.6,0,2.2,0.6c2.1,2.3,5.4,3.1,8.3,2c1.2-0.6,0-2.3-1.6-3.9
		c-1.7-1.8-2.9-1.5-3.4-4.9c-0.2-1.3-0.6-3.2-0.6-3.2L265.7,254.2z"/>
	<path d="M264.9,221c0.4-3.2,2.2-3.5,3.8-3.3c0,0,0,0.3,0,0.9l9.1,3.1l-1.8,38.6h-7.7c0,0.1,0,0.2,0,0.2L265,260
		C265.1,259.9,264.6,224.2,264.9,221z"/>
	<polygon class="st44" points="273.8,177.1 272.9,177.2 272.6,174.8 274.5,174.6 274.6,175.6 	"/>
	<polygon class="st47" points="273.9,176.7 277.5,199.9 275.1,202.1 272.8,176.9 	"/>
	<polygon class="st12" points="272.2,177.3 273,177.2 272.7,174.8 270.8,175 271,176 	"/>
	<polygon class="st48" points="272,176.9 272.4,200.2 275.1,202.1 272.9,176.8 	"/>
	<polygon class="st12" points="274,177.1 272.1,177.3 272,177.1 273.9,176.9 	"/>
	<path class="st7" d="M266.5,170c0.6,3.8,6.3,4.4,6.3,4.4l-3.2,4.7l-5-7.1L266.5,170z"/>
	<path class="st7" d="M273.1,174.3l4.1,2.9c0,0,0.7-4.6,0.3-5.4c-0.3-0.7-0.6-1.4-1.1-2c-0.2,0.9-0.6,1.8-1.1,2.5
		C274.9,173.2,274.1,173.9,273.1,174.3z"/>
	<path class="st49" d="M262.6,162.1c0.4,1.4,2.3,4.8,3.2,5.4c0.2,0.2,0.5,2.4,0.2,2.4s1-0.7,1.4-1.2c0.3-0.6-0.2-6.1-0.5-6.4
		C266.4,162.1,262.6,162.1,262.6,162.1z"/>
	<path class="st27" d="M266,162.5c-1.2-3.7-3.1-7,2.6-8.9c7.1-2.3,7.8,1.9,9.4,6.3c1.6,4.5,1.5,10.4-2.2,11.1
		c-4.1,0.9-7-0.8-8.5-3.8c-0.9-0.1-1.9-1.2-2.3-2.3C264.3,163.6,264.5,162.2,266,162.5z"/>
	<path class="st25" d="M269.3,160.2c1.1,4.7,3.8,11,6.6,10.7c3.2-0.7,3.3-4.1,3.2-7.5c-0.1-2.7-0.9-6.9-2.8-9.2
		c-1.2-1.5-2.3-2.1-3.6-1.9C269.9,153.9,268.5,157.1,269.3,160.2z"/>
	<path class="st50" d="M270.5,152.8l-0.2-0.3c0,0-1.7-0.4-1.5-0.5s0.6-0.7,1.1,0l-1-1.1l3.8,0.1c0.4-0.2,1-0.2,1.4-0.1l1.2,0.5
		c0,0,0.1,0.6-0.3-0.2c0.9,0,1.9,1.6,2.2,3c0.2,0.4,0.4,0.8,0.5,1.3c0.5,1.3,0.8,2.8,0.9,4.2l-0.3,0.3c0,0-0.6-4.8-2.8-5.7
		c-2.2-0.8-6,1.6-6,1.6L270.5,152.8z"/>
	<path class="st49" d="M261.8,158.1c0.2-1.3,0.6-3.3,1.3-3.9c0.2-1,3.2-1.9,5.9-3.9c0,0-2.4,1.8-2.2,2.5l0,0c0.2-0.7,4.3-3.4,4.1-3
		c-0.7,2.3-0.8,0.9-0.2,1.7c0.1,0-0.1,0.1,0,0.1c-0.4-0.9,0.4-1.9,1-2.3c0.1,1.2,1.4,0.8,2.6,1.8c1.4,0.7,2.8,2.5,1.9,3.7
		c-2.1,2.7-4.7,1.7-6.3,2.3c-1.1,0.3-2,1.2-2.3,2.3c-0.2,0.9,0.6,4.7,0.6,4.7l-1.3-0.4l-1.2-1.4l-2.1,1.7
		C263.4,163.9,261.3,160.8,261.8,158.1z"/>
	<path class="st50" d="M279.3,159.5c-0.4-0.2-2.8,1-3.4,0.8s-1.4,0.3-1.9,0.5c-0.4,0.2-3.2,0.4-3.7,0.8c-0.7,0.1-4.8,0.9-4.8,0.9
		l0.6,0.4l4.1-0.5c0.2,0.9,0.9,2,1.6,2c1.1,0,2.6-0.4,2.6-1.4c0-0.9,0.1-1.8,0.1-1.8l0,0c0.3-0.3,0.8-0.4,1.2-0.3
		c0.2,0.5,0.4,1.1,0.7,1.5c0.5,0.7,1.8,0.5,2.7,0C280,161.9,279.7,159.7,279.3,159.5z M274.1,162.8c0,0.7-1.5,1.1-2.2,1
		s-1.1-1.7-1-1.9s2.8-0.5,3-0.6C274.1,161.8,274.1,162.3,274.1,162.8L274.1,162.8z M279.2,162c-0.5,0.4-1.9,0.9-2.4,0.1
		c-0.3-0.4-0.5-0.8-0.6-1.3c0.3,0,2.7-0.9,2.9-0.8C279.4,160.1,279.7,161.5,279.2,162L279.2,162z"/>
	<path d="M285.2,176.6c3.1-0.5,4.5,9.7,6.2,14.5c1.6,4.6,4.1,8.5,2.6,10c-1,1-7.2,4.8-8.8,4.9s-3.4-6.4-3.4-6.4s4.7-2,4.8-2.3
		c0.2-1-1.5-4.5-1.4-6.2S285.2,176.6,285.2,176.6z"/>
	<path class="st27" d="M332.2,170c0.7,1.9,2.2,4,1.7,5.9c-0.5,1.8,1.8,4,2.9,3.8s7.5-7.3,7.5-7.3s-2.5-5.5-2.9-7.1
		C341.1,163.8,332.2,170,332.2,170z"/>
	
		<linearGradient id="SVGID_13_" gradientUnits="userSpaceOnUse" x1="-2147.8267" y1="109.2173" x2="-2124.5652" y2="93.1581" gradientTransform="matrix(-1 8.000000e-02 8.000000e-02 1 -1811.3199 236.2633)">
		<stop  offset="0" style="stop-color:#FFFFFF"/>
		<stop  offset="0.52" style="stop-color:#C6C0B9"/>
	</linearGradient>
	<path class="st51" d="M337.8,166.7L337.8,166.7l-3.5,0.8c0.1,0.3-1.7,3-1.7,4.1c1.1,1.1,8.7,7.1,10.4,6.8c1.4-0.2,1-2.6,1.7-3.7
		c-0.4-1.4-3.3-9.4-3.3-9.8L337.8,166.7z"/>
	<path d="M343.6,158.7c0.2,1.4-0.4,6.7-0.4,6.9c0.1,0.3,0.3,1.2,0.6,1.1c0.3-0.1-1.7,1.3-2.2,0.9s-2-6.7-1.8-7.1
		S343.6,158.7,343.6,158.7z"/>
	<path class="st27" d="M340.6,160.5c-0.4-3.9,0-7.8-6-7.2c-7.5,0.7-6.5,4.9-6.1,9.7c0.3,4.8,2.8,10.3,6.6,9.5c4.2-0.9,6.2-3.6,6.4-7
		c0.8-0.5,1.3-1.9,1.2-3.1C342.6,160.8,341.9,159.5,340.6,160.5z"/>
	<path class="st25" d="M330.2,153.7c-1.4,0.4-2,1.3-2.6,3.2c-0.9,2.9,0.2,7.1,1.1,9.6c1.3,3.2,2.8,6.4,6,5.7
		c2.7-0.9,2.7-7.8,1.8-12.6C336.1,156.4,333.4,154,330.2,153.7z"/>
	<path class="st28" d="M332.5,153.2l0.1-0.4c0,0,1.5-1.1,1.2-1.1c-0.2,0-0.8-0.4-1.1,0.4l0.6-1.4l-3.5,1.6c-0.5,0-1,0.2-1.4,0.5
		c-0.5,0.5-0.9,0.9-0.9,0.9s0.2,0.6,0.2-0.3c-0.8,0.3-1.1,2.3-0.9,3.7c0,0.4,0,0.9,0,1.4c0.1,1.5,0.4,2.9,0.9,4.3l0.4,0.2
		c0,0-1.4-4.8,0.3-6.4s6.3-1,6.3-1L332.5,153.2z"/>
	<path d="M342.7,154.7c-0.8-1.1-1.8-2.8-2.8-3.1c-0.6-0.9-3.7-0.5-7.1-1.2c0,0,3,0.7,3.1,1.4l0,0c-0.5-0.5-5.4-1.5-5.1-1.1
		c1.6,1.9,1.1,0.5,0.9,1.5c-0.1,0,0.2,0.1,0.1,0.1c0-0.9-1.1-1.6-1.8-1.7c0.4,1.1-1,1.3-1.7,2.7c-1,1.3-1.6,3.4-0.3,4.2
		c3.1,1.7,5-0.3,6.8-0.5c1.2-0.1,2.3,0.3,3.1,1.2c0.6,0.8,1.4,4.6,1.4,4.6l1.1-0.9l1-1.7l2.3,0.7
		C343.6,160.7,344.2,156.9,342.7,154.7z"/>
	<path class="st7" d="M344.8,173.1l-3.4,27.8l-5.7,3.4l-5-26.7l0.2-3l1.6-0.1c0,0,2.7,2.6,4.1,2.2S344.8,173.1,344.8,173.1z"/>
	
		<linearGradient id="SVGID_14_" gradientUnits="userSpaceOnUse" x1="-2151.2856" y1="129.3802" x2="-2127.8271" y2="118.6541" gradientTransform="matrix(-1 8.000000e-02 8.000000e-02 1 -1811.3199 236.2633)">
		<stop  offset="0" style="stop-color:#FFFFFF"/>
		<stop  offset="1" style="stop-color:#C6C0B9"/>
	</linearGradient>
	<path class="st52" d="M332.3,173.7c0.6,0.5,2.4,3.7,4,3.2s7-3.4,7.3-4.5c0.5,0.2,1,0.2,1.5,0.1l-3.4,31.8l-7,2.7l-4.1-30.4
		L332.3,173.7z"/>
	<polygon class="st44" points="335.9,176.7 338,176.5 338.7,177.8 337.3,179.4 339.5,200.2 336.2,202.5 	"/>
	<polygon class="st53" points="334.3,202 335.5,179.3 334,177.9 334.8,176.6 336.2,176.7 336.2,179.2 336.6,202.7 	"/>
	<path class="st7" d="M342.6,168.3c-0.1,1.8-6,8.4-6,8.4l3.1,2.8l6.2-6.9L342.6,168.3z"/>
	<path class="st7" d="M335.7,176.5l-2.5,3c0,0-1.2-4.5-1-5.4c0.3-1.3,0.7-1.4,0.7-1.4s0.2,0.5,0.9,1.9
		C334.2,175.4,334.9,176.1,335.7,176.5z"/>
	<path d="M357.8,206.9c3.3,3.7,5,8.7,4.8,11.3c-0.2,3.7-16.5,7.5-16.5,7.5l-1.8-1.2c-2.1,0-1.9-1.1-4.8-1.1s-12.7,4.1-13.2,3.7
		c-2.4-1.9,4.9-20.4,7.8-21.2S357.8,206.9,357.8,206.9z"/>
	<path d="M329.7,252.6c0.3,2,0.2,6.7-1,8.2c-0.7,0.4-1.5,0.6-2.3,0.4c-1.2-0.3-1.4,0.2-2.1,1s-5.1,1.6-7.2,1.2
		c-2.4-0.5-3.1-1.7,0-3.6c3.7-2.3,5.9-4.5,6.8-6.7S329.7,252.6,329.7,252.6z"/>
	<path d="M329.7,212.8c-5.9,2.1-11.1,4-11.8,7c-0.7,3,3.3,36,3.3,36s10.5,0.5,10.5,0c0-0.5,0.5-30,0.6-30.9
		C332.4,224.1,329.7,212.8,329.7,212.8z"/>
	<path d="M328.4,177.3c-3.6-0.4-2.9,12.2-5.5,18.3c-1.4,3.1-3.1,4.3-2.7,5c2.5,4.7,2.3,3.8,9.7,2.9c1.3-0.2,4-2.8,4-2.8l-0.6-0.6
		l-0.4-4.5l-0.2-11.5L328.4,177.3z"/>
	<path d="M344.6,217.1c0,0,20.7,3.7,20.1,1.4c-1.6-6.3-7.5-16.4-7.9-18.7c-0.6-3-1.8-13-1.6-14.4c0.2-1.4,3.4-2.6,3.4-2.6
		s-1-8.1-5.3-8.7c-4.3-0.6-4.3-2.1-8.8-3.9c0,0,0.4,6.5-0.4,8.8s-1.8,16.7-2.7,18.1C340.6,198.9,344.6,217.1,344.6,217.1z"/>
	<path class="st28" d="M338.2,211l-3-10.6c-0.5-5.9-1.5-11.8-3.1-17.5l-0.5-8.4c-1,0.9-0.7,1.2-3.9,2.8c-0.9,0.4,0.1,3.2,0.1,3.2
		s1.2,12.2,1.2,13.6c0,4.7-2.7,15.6-3.5,20.6L338.2,211z"/>
	<path class="st28" d="M344.1,169.5c0-0.2,3.3,2,3.3,2l2,3.2l-3.8,2.3l3.3,2.4l-7.7,18.9c0,0,2.3-22,2.8-24.5
		C344.5,170.6,344.1,169.5,344.1,169.5z"/>
	<path d="M332.5,173.4c0-0.2-1.5,1.5-1.5,1.5l-2.8,3.9l3,0.3l-1.7,3.5l5.8,18.9c0,0-2.9-22.9-3.2-25.4
		C331.8,173.9,332.5,173.4,332.5,173.4z"/>
	<path d="M347.1,259.1c0.1-1.5-0.7-2.4,0.4-9.9c0.1-0.9-7.6-1.5-7.6-1.5c0.2,3.7,0.7,7.1-3.6,11.4c-2.2,2.2-4.6,5.4-1,6
		c4.4,0.8,7.8-0.9,9.1-3.4c0.1-0.2,0.4-0.1,0.4-0.1S346.9,261.7,347.1,259.1z"/>
	<path d="M340.8,208.7c3.9-1.7,6.9-1.4,8.8,3.1c1.8,4.5,1.5,13.1,1.1,20.9c-0.3,5.3-1.7,24.4-1.7,24.4h-4.7l-7.7-0.7
		c0,0-0.5-30.9-0.5-33.7S336.2,210.6,340.8,208.7z"/>
	<polygon class="st26" points="347,266.6 343.8,266.6 339.6,209.7 347,209.7 	"/>
	<polygon class="st26" points="264.7,266.6 268,266.6 272.1,211.8 264.7,211.8 	"/>
	<path class="st26" d="M247.8,204.5v4.7l0,0c0.5,2.5,25.9,4.5,57,4.5s56.5-2,57-4.5l0,0v-4.7H247.8z"/>
	<path class="st21" d="M361.9,204.5c0,1.8-25.6,3.2-57.1,3.2s-56.9-1.4-57.1-3.2c-0.2-2.5,25.6-3.2,57.1-3.2
		S361.8,201.3,361.9,204.5z"/>
	
		<linearGradient id="SVGID_15_" gradientUnits="userSpaceOnUse" x1="314.8523" y1="51.5285" x2="319.2765" y2="19.8904" gradientTransform="matrix(1 0 0 1 0 162.6667)">
		<stop  offset="0" style="stop-color:#FFFFFF"/>
		<stop  offset="0.19" style="stop-color:#DFDFDF"/>
		<stop  offset="0.48" style="stop-color:#B5B5B5"/>
		<stop  offset="0.71" style="stop-color:#9B9B9B"/>
		<stop  offset="0.84" style="stop-color:#919191"/>
	</linearGradient>
	<polygon class="st54" points="348.8,201 339.1,207 308.2,208 283.7,207.4 304.9,200.3 	"/>
	
		<linearGradient id="SVGID_16_" gradientUnits="userSpaceOnUse" x1="267.1557" y1="46.7922" x2="269.6165" y2="29.2412" gradientTransform="matrix(1 0 0 1 0 162.6667)">
		<stop  offset="0" style="stop-color:#FFFFFF"/>
		<stop  offset="5.000000e-02" style="stop-color:#F0F0F0"/>
		<stop  offset="0.16" style="stop-color:#CECECE"/>
		<stop  offset="0.28" style="stop-color:#B3B3B3"/>
		<stop  offset="0.4" style="stop-color:#A0A0A0"/>
		<stop  offset="0.52" style="stop-color:#959595"/>
		<stop  offset="0.65" style="stop-color:#919191"/>
	</linearGradient>
	<path class="st55" d="M286.7,203l-14.2,4.2c0,0-25.2,0-23.2-2.8c1.4-1.8,12.1-2.5,12.1-2.5l13.6-0.8l7.9,0.6L286.7,203z"/>
	<path class="st27" d="M286.6,201.4c0-0.7-1.5-1.4-2.4-2.2c-2,0-4.1,0.4-6,1.1c-0.6,0.4-1.2,0.9-1.7,1.4c-0.7,0.6-0.5,1.1,0.3,0.7
		c0.5-0.2,0.9-0.6,1.4-0.9l1.3-0.4c0,0-1,0.4-1.2,0.6s-1.4,1.1-1.7,1.4c-0.5,0.3-0.4,1,0.4,0.7c0.5-0.2,1.1-0.5,1.6-0.9
		c0.6-0.3,1.6-0.7,1.6-0.7c-1.1,0.6-2.8,1.3-3,1.8c-0.3,0.5,0.2,0.9,0.9,0.4c0.8-0.6,1.6-1,2.6-1.2l-2.1,1c0,0-0.5,0.8,0.5,0.4
		c2.7-1,5-1.3,5.8-1.9C285.3,202.3,286.6,201.9,286.6,201.4z"/>
	<path class="st7" d="M287.2,202.7c0-0.9-1.3-4-2.7-4.4c-0.4,0.2-0.9,0.4-1.4,0.5c0,0,1.7,3.5,1.7,5L287.2,202.7z"/>
	<path d="M288.1,195.1l-4.1,2.4c0,0,2.7,6,2.5,6.9c2.8-0.7,5.4-2,7.7-3.7L288.1,195.1z"/>
	<path class="st27" d="M264.8,202.7c-0.1-0.7,1.4-1.6,2.3-2.6c2.1-0.2,4.3,0,6.3,0.5c0.7,0.3,1.4,0.8,2,1.3c0.8,0.6,0.7,1.1-0.2,0.9
		c-0.5-0.2-1-0.5-1.5-0.8l-1.4-0.3l1.3,0.5c0.3,0.1,1.5,1,1.9,1.2c0.5,0.3,0.6,1-0.3,0.7c-0.6-0.2-1.2-0.4-1.7-0.7
		c-0.6-0.2-1.7-0.5-1.7-0.5c1.2,0.5,3,1.1,3.4,1.5s-0.1,1-0.9,0.5c-0.9-0.5-1.8-0.8-2.8-1l2.3,0.9c0,0,0.6,0.8-0.5,0.5
		c-2.9-0.7-5.3-0.8-6.2-1.3C266.3,203.4,264.9,203.1,264.8,202.7z"/>
	<path class="st7" d="M264.4,204.1c-0.1-0.9,0.9-4.3,2.3-4.9c0.5,0.2,1,0.3,1.5,0.4c0,0-1.4,3.9-1.2,5.4L264.4,204.1z"/>
	<path d="M256.4,176.8c-2.8,0.2-3.5,6.6-4.2,8.7c-0.6,2.1-4.4,17.1-0.8,18.2s13.1,1.6,13.1,1.6l2.9-6.6c0,0-9.3-0.3-9.3-2.2
		s1.5-8.4,1-9.3C258.6,186.4,256.4,176.8,256.4,176.8z"/>
	<path class="st28" d="M353.6,175.6c3.1-2.1,10,12,6.8,25.8c-0.5,2.2-3.9,1.1-5.4,1.6s-10,1.3-10,1.3s-2.1-6.7-2.8-7.9
		c-0.7-1.1,12.2-2.9,12.2-2.9s-0.6-3.7-0.9-4.3C349.1,179,352.2,176.6,353.6,175.6z"/>
	<path class="st7" d="M329.3,203.8c-0.8,0.3-1.6,0.5-2.4,0.5l-22.5-1.1c-0.6,0-0.4-0.3,0.6-0.7l6-2.4c1.4-0.4,2.8-0.7,4.2-0.9
		l21.8,1.1c0.6,0,0.7,0.3-0.2,0.7L329.3,203.8z"/>
	<path class="st7" d="M329.8,204.7c-0.9,0.5-1.9,0.8-2.9,1.1l-28-0.9c-0.6,0-1.2-2.5-0.3-2.9l1.9-0.5c0.9-0.4,14.4-1.4,15.1-1.4
		l21.8,0.2c0.2,0,0.1,1.4,0.1,1.5s-0.3,0.3-0.9,0.6L329.8,204.7z"/>
	<path class="st56" d="M327.6,203.1c0.1,0.5-0.2,1.1-0.8,1.2c-0.1,0-0.2,0-0.3,0l-27.8-0.9c-0.6,0-1-1-1.1-1.7l-3.5-20
		c-0.1-0.5,0.2-1.1,0.7-1.2c0.1,0,0.2,0,0.2,0h27.3c0.8,0,1.4,0.6,1.5,1.3L327.6,203.1z"/>
	<path class="st27" d="M344.7,200.5c0.1-0.8-1.6-1.8-2.6-2.9c0,0-4.3-0.4-7.1,0.5c-0.8,0.4-1.5,0.9-2.2,1.4
		c-0.9,0.6-0.7,1.3,0.3,0.9c0.6-0.2,1.2-0.5,1.7-0.9l1.5-0.3c0,0-1.2,0.4-1.5,0.5s-1.7,1.2-2.1,1.4c-0.6,0.3-0.6,1.1,0.4,0.9
		c0.7-0.2,1.3-0.5,1.9-0.8c0.7-0.2,1.9-0.6,1.9-0.6c-1.4,0.6-3.4,1.2-3.8,1.7s0.1,1.1,1,0.5c1-0.6,2-1,3.2-1.1l-2.6,0.9
		c0,0-0.7,0.9,0.6,0.5c3.3-0.8,6-0.9,6.9-1.4C343.1,201.3,344.6,201,344.7,200.5z"/>
	<path class="st7" d="M345.2,202.1c0.1-1-1-4.8-2.6-5.5c-0.5,0.2-1.1,0.4-1.7,0.4c0,0,1.5,4.4,1.3,6.1L345.2,202.1z"/>
	<path class="st35" d="M253.2,213.3l-1.4,3.8c0,0-5.2-1.5-4.5-2.3s4.8-2.6,4.8-2.6L253.2,213.3z"/>
	<path class="st35" d="M253.7,218l10.8,3.3c0,0-8.6-3.9-9.2-3.7C254.7,217.8,253.7,218,253.7,218z"/>
	<path class="st35" d="M351.4,220.3c2.9-0.9,5.7-2.2,8.2-4c0.9-0.4,1.8-0.7,2.7-1l-1.3-3.8c0,0,5.6,0.4,6.1,1.3
		c0.3,0.6-5.5,3.8-9.4,5.1C355.7,218.7,351.4,220.3,351.4,220.3z"/>
</g>
<path class="st7" d="M183.4,20.7c2.1-0.1,4.2,0.7,5.8,2.1l-1.1,1.7c-1.3-1.1-2.9-1.7-4.6-1.8c-3.2-0.1-5.9,2.5-5.9,5.7
	c0,0.1,0,0.3,0,0.4c0,3.4,2.4,6.3,5.9,6.3c1.9,0,3.6-0.8,4.9-2.1l1.2,1.6c-1.6,1.7-3.9,2.6-6.2,2.5c-4.6-0.2-8.1-4-8-8.6
	C175.6,24.3,179.1,20.8,183.4,20.7L183.4,20.7z"/>
<path class="st7" d="M201.6,32.3h-6l-1.6,4.6h-2.3l5.8-16h2.4l5.8,16h-2.3L201.6,32.3z M198.6,23.1c0,0-0.4,1.4-0.6,2.3l-1.8,5.1
	h4.9l-1.8-5.1C199,24.6,198.6,23.1,198.6,23.1L198.6,23.1z"/>
<path class="st7" d="M208.8,20.9h8.8v2H211v5.3h5.6v2H211V37h-2.3L208.8,20.9z"/>
<path class="st7" d="M221.5,20.9h9.3v2h-7.1v5h5.7v2h-5.7V35h7.4v2h-9.7L221.5,20.9z M227.1,16.9h2.4l-2.2,2.9h-1.8L227.1,16.9z"/>
</svg>
