<svg height="496pt" viewBox="-10 0 496 496.595" width="496pt" xmlns="http://www.w3.org/2000/svg"><path d="m466.054688 217.167969v272.527343c0 3.796876-3.105469 6.898438-6.898438 6.898438h-123.164062c-3.796876 0-6.902344-3.101562-6.902344-6.898438v-272.527343c0-3.816407 3.105468-6.898438 6.902344-6.898438h123.164062c3.792969 0 6.898438 3.082031 6.898438 6.898438zm0 0" fill="#008ed3"/><path d="m294.894531 496.585938h-123.148437c-3.8125 0-6.898438-3.089844-6.898438-6.902344v-129.359375c0-3.8125 3.089844-6.898438 6.898438-6.898438h123.148437c3.8125 0 6.898438 3.089844 6.898438 6.898438v129.359375c.003906 3.8125-3.085938 6.902344-6.898438 6.902344zm0 0" fill="#69d6e7"/><path d="m130.34375 496.585938h-123.144531c-3.816407 0-6.902344-3.089844-6.902344-6.902344v-57.777344c0-3.8125 3.089844-6.902344 6.902344-6.902344h123.144531c3.8125 0 6.902344 3.089844 6.902344 6.902344v57.777344c0 3.8125-3.089844 6.902344-6.902344 6.902344zm0 0" fill="#bdebff"/><path d="m293.476562 121.871094-19.019531-19.910156c-1.53125-1.605469-3.84375-2.101563-5.894531-1.277344-2.054688.820312-3.378906 2.78125-3.378906 4.992187v13.589844h-.625c-55.964844 0-101.492188 45.527344-101.492188 101.496094v36.0625h-35.421875c-53.183593 0-96.449219 43.269531-96.449219 96.453125v31.4375c0 3.492187 2.832032 6.324218 6.324219 6.324218 3.492188 0 6.324219-2.832031 6.324219-6.324218v-31.4375c0-46.210938 37.589844-83.804688 83.800781-83.804688h41.746094c3.492187 0 6.324219-2.832031 6.324219-6.324218v-42.390626c0-48.988281 39.855468-88.847656 88.84375-88.847656h.625v13.589844c0 2.214844 1.324218 4.171875 3.378906 4.996094.652344.261718 1.339844.390625 2.015625.390625 1.4375 0 2.839844-.578125 3.878906-1.667969l19.019531-19.910156c1.996094-2.085938 1.996094-5.355469 0-7.4375zm0 0" fill="#69d6e7"/><path d="m457.949219 69.511719h-12.660157l.894532-14.515625c.238281-3.898438-2.859375-7.195313-6.765625-7.195313h-85.742188c-3.90625 0-7.003906 3.296875-6.765625 7.195313l.894532 14.515625h-10.582032c-9.890625 0-17.917968 8.023437-17.917968 17.917969 0 5.265624 2.300781 10.257812 6.347656 13.660156l15.710937 13.292968 10.164063 8.601563.027344.023437c3.34375 16.710938 15.679687 30.019532 31.640624 34.863282 3.171876.964844 5.355469 3.875 5.585938 7.183594l2.351562 33.550781c.089844 1.328125-.960937 2.457031-2.296874 2.457031h-20.292969c-1.269531 0-2.300781 1.03125-2.300781 2.300781v4.601563c0 1.269531 1.027343 2.300781 2.300781 2.300781h56.011719c1.269531 0 2.296874-1.03125 2.296874-2.300781v-4.601563c0-1.269531-1.027343-2.300781-2.296874-2.300781h-20.296876c-1.332031 0-2.386718-1.128906-2.292968-2.457031l2.351562-33.550781c.230469-3.308594 2.414063-6.21875 5.585938-7.183594 15.261718-4.632813 27.195312-17.003906 31.140625-32.683594l.027343-.019531 10.554688-8.945313 17.894531-15.132812c4.027344-3.402344 6.324219-8.398438 6.324219-13.660156-.003906-9.894532-8.027344-17.917969-17.894531-17.917969zm-117.371094 32.175781-8.992187-7.613281c-1.953126-1.65625-3.082032-4.09375-3.082032-6.644531 0-4.8125 3.910156-8.71875 8.71875-8.71875h11.148438l1.921875 31.171874zm122.980469-7.617188-11.152344 9.433594-9.71875 8.199219 2.03125-32.992187h13.230469c4.808593 0 8.691406 3.90625 8.691406 8.71875 0 2.550781-1.125 4.988281-3.082031 6.640624zm0 0" fill="#ff9859"/><g fill="#008ed3"><path d="m396.285156 28.007812c-3.492187 0-6.324218-2.832031-6.324218-6.324218v-15.359375c0-3.492188 2.832031-6.324219 6.324218-6.324219 3.496094 0 6.328125 2.832031 6.328125 6.324219v15.359375c0 3.492187-2.832031 6.324218-6.328125 6.324218zm0 0"/><path d="m428.636719 34.941406c-.972657 0-1.957031-.226562-2.878907-.699218-3.105468-1.59375-4.339843-5.402344-2.746093-8.511719l7.109375-13.878907c1.59375-3.109374 5.40625-4.34375 8.515625-2.746093 3.105469 1.59375 4.335937 5.40625 2.746093 8.515625l-7.109374 13.875c-1.121094 2.1875-3.339844 3.445312-5.636719 3.445312zm0 0"/><path d="m366.261719 33.894531c-2.375 0-4.652344-1.347656-5.726563-3.640625l-6.605468-14.089844c-1.484376-3.164062-.125-6.929687 3.039062-8.410156 3.164062-1.480468 6.929688-.121094 8.410156 3.039063l6.609375 14.085937c1.480469 3.167969.121094 6.929688-3.042969 8.414063-.867187.40625-1.78125.601562-2.683593.601562zm0 0"/></g><path d="m350.722656 116.773438-.417968-6.875-9.726563-8.210938.78125 12.695312 10.167969 8.601563c-.414063-2.023437-.667969-4.09375-.804688-6.210937zm-2.921875-47.261719h-9.222656l.574219 9.199219h9.222656zm97.476563 0-.554688 9.199219h9.226563l.574219-9.199219zm-2.601563 42.203125-.300781 5.058594c-.183594 2.875-.621094 5.683593-1.308594 8.394531l10.554688-8.945313.785156-12.71875zm0 0" fill="#ff7d35"/><path d="m421.785156 101.6875c0 14.082031-11.417968 25.496094-25.5 25.496094-14.078125 0-25.492187-11.414063-25.492187-25.496094s11.414062-25.496094 25.492187-25.496094c14.082032 0 25.5 11.414063 25.5 25.496094zm0 0" fill="#fff"/><path d="m408.933594 101.6875c0 6.988281-5.660156 12.648438-12.648438 12.648438-6.984375 0-12.648437-5.660157-12.648437-12.648438 0-6.984375 5.664062-12.648438 12.648437-12.648438 6.988282 0 12.648438 5.664063 12.648438 12.648438zm0 0" fill="#008ed3"/></svg>