<?xml version="1.0" encoding="iso-8859-1"?>
<!-- Generator: Adobe Illustrator 19.0.0, SVG Export Plug-In . SVG Version: 6.00 Build 0)  -->
<svg version="1.1" id="Capa_1" xmlns="http://www.w3.org/2000/svg" xmlns:xlink="http://www.w3.org/1999/xlink" x="0px" y="0px"
	 viewBox="0 0 512 512" style="enable-background:new 0 0 512 512;" xml:space="preserve">
<path style="fill:#2D69AD;" d="M62.704,439.193c-8.394,0-15.2-6.806-15.2-15.2v-42.544c0-8.394,6.806-15.2,15.2-15.2
	s15.2,6.806,15.2,15.2v42.544C77.904,432.388,71.098,439.193,62.704,439.193z"/>
<path style="fill:#1B3359;" d="M449.296,439.193c-8.394,0-15.2-6.806-15.2-15.2v-42.544c0-8.394,6.806-15.2,15.2-15.2
	c8.394,0,15.2,6.806,15.2,15.2v42.544C464.496,432.388,457.69,439.193,449.296,439.193z"/>
<path style="fill:#FFA918;" d="M418.908,72.807H93.092c-25.137,0-45.588,20.451-45.588,45.588v126.866c0,8.394,6.806,15.2,15.2,15.2
	h386.592c8.394,0,15.2-6.806,15.2-15.2V118.394C464.496,93.257,444.045,72.807,418.908,72.807z"/>
<path style="fill:#E0F4FF;" d="M350.366,151.433h-61.451c-12.724,0-24.302,4.973-32.915,13.068
	c-8.613-8.094-20.191-13.068-32.915-13.068h-61.451c-26.531,0-48.115,21.585-48.115,48.115v45.711c0,8.394,6.806,15.2,15.2,15.2H256
	h127.282c8.394,0,15.2-6.806,15.2-15.2v-45.711C398.482,173.018,376.898,151.433,350.366,151.433z"/>
<path style="fill:#4FD9E0;" d="M447.243,230.06H64.757C29.049,230.06,0,259.11,0,294.817v86.633c0,8.394,6.806,15.2,15.2,15.2h481.6
	c8.394,0,15.2-6.806,15.2-15.2v-86.633C512,259.11,482.95,230.06,447.243,230.06z"/>
<path style="fill:#FC7718;" d="M418.908,72.807H255.997v187.654h193.299c8.394,0,15.2-6.806,15.2-15.2V118.394
	C464.496,93.257,444.045,72.807,418.908,72.807z"/>
<path style="fill:#B7E3FF;" d="M350.366,151.433h-61.451c-12.724,0-24.302,4.973-32.915,13.068
	c-0.001-0.001-0.002-0.002-0.003-0.003v95.961H256h127.282c8.394,0,15.2-6.806,15.2-15.2v-45.711
	C398.482,173.018,376.898,151.433,350.366,151.433z"/>
<path style="fill:#16A9C7;" d="M447.243,230.06H255.997v166.589H496.8c8.394,0,15.2-6.806,15.2-15.2v-86.633
	C512,259.11,482.95,230.06,447.243,230.06z"/>
<g>
</g>
<g>
</g>
<g>
</g>
<g>
</g>
<g>
</g>
<g>
</g>
<g>
</g>
<g>
</g>
<g>
</g>
<g>
</g>
<g>
</g>
<g>
</g>
<g>
</g>
<g>
</g>
<g>
</g>
</svg>
