<?xml version="1.0" encoding="iso-8859-1"?>
<!-- Generator: Adobe Illustrator 19.0.0, SVG Export Plug-In . SVG Version: 6.00 Build 0)  -->
<svg version="1.1" id="Capa_1" xmlns="http://www.w3.org/2000/svg" xmlns:xlink="http://www.w3.org/1999/xlink" x="0px" y="0px"
	 viewBox="0 0 512 512" style="enable-background:new 0 0 512 512;" xml:space="preserve">
<path style="fill:#51ABD8;" d="M512,476.69V52.966c0-19.5-15.81-35.31-35.31-35.31h-26.483v194.207l26.483,26.483V476.69
	c0,9.754,7.901,17.655,17.655,17.655l0,0C504.099,494.345,512,486.444,512,476.69z"/>
<rect x="370.759" y="17.655" style="fill:#E6E6E6;" width="79.448" height="194.207"/>
<polygon style="fill:#FDAD2A;" points="379.586,494.345 0,494.345 35.31,247.172 344.276,247.172 "/>
<polygon style="fill:#E6E6E6;" points="344.276,494.345 308.966,282.483 70.621,282.483 35.31,494.345 "/>
<path style="fill:#FDAD2A;" d="M185.379,17.655L185.379,17.655c-18.035-0.018-32.68,14.583-32.697,32.627
	c0,0.865,0.035,1.721,0.097,2.578l14.945,194.313h35.31L217.98,52.86c1.404-17.982-12.041-33.704-30.023-35.107
	C187.101,17.69,186.244,17.655,185.379,17.655z"/>
<g>
	<rect x="370.759" y="44.138" style="fill:#999999;" width="52.966" height="17.655"/>
	<rect x="370.759" y="79.448" style="fill:#999999;" width="35.31" height="17.655"/>
	<rect x="370.759" y="132.414" style="fill:#999999;" width="35.31" height="17.655"/>
	<rect x="370.759" y="167.724" style="fill:#999999;" width="52.966" height="17.655"/>
</g>
<polygon style="fill:#E97424;" points="162.295,176.552 165.005,211.862 205.753,211.862 208.463,176.552 "/>
<rect x="476.69" y="238.345" style="fill:#FDAD2A;" width="35.31" height="35.31"/>
<path style="fill:#1588C9;" d="M476.69,476.69c0,9.754,7.901,17.655,17.655,17.655S512,486.444,512,476.69V273.655h-35.31V476.69z"
	/>
<path style="fill:#CCCCCC;" d="M75.034,450.207c-10.717-0.018-21.425-0.609-32.079-1.766l-7.645,45.903h308.966l-28.248-169.41
	C261.402,404.03,171.158,450.94,75.034,450.207z"/>
<g>
</g>
<g>
</g>
<g>
</g>
<g>
</g>
<g>
</g>
<g>
</g>
<g>
</g>
<g>
</g>
<g>
</g>
<g>
</g>
<g>
</g>
<g>
</g>
<g>
</g>
<g>
</g>
<g>
</g>
</svg>
