<?xml version="1.0" encoding="iso-8859-1"?>
<!-- Generator: Adobe Illustrator 19.0.0, SVG Export Plug-In . SVG Version: 6.00 Build 0)  -->
<svg version="1.1" id="Capa_1" xmlns="http://www.w3.org/2000/svg" xmlns:xlink="http://www.w3.org/1999/xlink" x="0px" y="0px"
	 viewBox="0 0 512 512" style="enable-background:new 0 0 512 512;" xml:space="preserve">
<rect x="293.744" y="278.247" transform="matrix(-0.7071 0.7071 -0.7071 -0.7071 857.354 286.2957)" style="fill:#F2A077;" width="151.279" height="84.929"/>
<path style="fill:#D6774D;" d="M392.851,237.204L285.876,344.179l23.876,23.876c1.048-0.868,2.069-1.787,3.051-2.769
	l104.066-104.065L392.851,237.204z"/>
<path style="fill:#D7875F;" d="M414.953,190.022L414.953,190.022c-9.598-9.598-25.16-9.598-34.758-0.001l6.645-6.645
	c9.599-9.599,9.599-25.161,0-34.759l0,0c-9.598-9.598-25.16-9.598-34.759,0l9.03-9.03c9.599-9.599,9.599-25.161,0-34.759
	s-25.16-9.598-34.759,0l6.371-6.371c9.599-9.599,9.599-25.161,0-34.759l0,0c-9.598-9.598-25.16-9.598-34.759,0l-22.047,22.047l0,0
	l-11.129,11.129L220.53,86.089c-17.423-4.246-35.694,2.354-46.381,16.754l-54.724,73.732c-13.868,18.685-11.953,44.709,4.501,61.163
	l-62.799,62.799l106.975,106.975l67.62-67.62l1.401,1.401c16.933,16.933,44.386,16.933,61.319,0l116.512-116.512
	C424.552,215.182,424.552,199.62,414.953,190.022z"/>
<path style="fill:#B05A3D;" d="M414.953,190.022L414.953,190.022c-3.162-3.161-6.974-5.26-11.004-6.338
	c1.675,7.683-0.774,16.445-7.212,22.882L280.226,323.077c-16.933,16.933-43.01,18.309-58.246,3.073l0,0
	c-0.696-0.696-1.825-0.696-2.521,0L153.1,392.51l-91.974-91.974l0,0l106.975,106.975l67.62-67.62l1.401,1.401
	c16.933,16.933,44.386,16.933,61.319,0L414.953,224.78C424.552,215.182,424.552,199.62,414.953,190.022z"/>
<path style="fill:#FFCCAA;" d="M92.072,158.237L92.072,158.237c-9.186,9.186-9.186,24.079,0,33.264l12.173,12.173
	c9.186,9.186,24.079,9.186,33.265,0l0,0c9.186-9.186,9.186-24.079,0-33.265l-12.173-12.173
	C116.151,149.051,101.258,149.051,92.072,158.237z"/>
<path style="fill:#F2A077;" d="M183.674,50.252L183.674,50.252c-9.186,9.186-9.186,24.079,0,33.264l19.545,19.545
	c9.186,9.186,24.079,9.186,33.265,0l0,0c9.186-9.186,9.186-24.079,0-33.265L216.94,50.252
	C207.754,41.066,192.86,41.066,183.674,50.252z"/>
<path style="fill:#F7AA86;" d="M145.859,78.966L145.859,78.966c-9.186,9.186-9.186,24.079,0,33.264l38.839,38.839
	c9.186,9.186,24.079,9.186,33.265,0l0,0c9.186-9.186,9.186-24.079,0-33.265l-38.839-38.839
	C169.938,69.78,155.045,69.78,145.859,78.966z"/>
<path style="fill:#F2A077;" d="M119.876,119.511L119.876,119.511c-9.186,9.186-9.186,24.079,0,33.264l23.436,23.436
	c9.186,9.186,24.079,9.186,33.265,0l0,0c9.186-9.186,9.186-24.079,0-33.265l-23.435-23.435
	C143.955,110.325,129.062,110.325,119.876,119.511z"/>
<path style="fill:#FFCCAA;" d="M295.414,66.249l-6.673-12.678c-3.441-6.537-10.612-10.215-17.929-9.196l-59.697,8.32
	c-4.923,0.686-8.325,5.278-7.547,10.187l1.336,8.435c3.034,19.155,21.168,32.113,40.273,28.776l19.862-3.469L295.414,66.249z"/>
<path style="fill:#2BB4F3;" d="M39.875,290.548L0,330.424l138.214,138.214l39.875-39.875c7.885-7.885,7.885-20.67,0-28.555
	L68.43,290.548C60.545,282.663,47.761,282.663,39.875,290.548z"/>
<path style="fill:#1687C4;" d="M178.089,400.207l-16.523-16.523c6.834,6.834,5.982,18.766-1.903,26.651l-39.875,39.875
	l18.426,18.427l39.875-39.876C185.974,420.877,185.974,408.092,178.089,400.207z"/>
<path style="fill:#75DC5E;" d="M333.911,423.453l39.875,39.875L512,325.115l-39.875-39.875c-7.885-7.885-20.67-7.885-28.555,0
	L333.911,394.898C326.026,402.783,326.026,415.568,333.911,423.453z"/>
<path style="fill:#2AAD52;" d="M350.209,378.6l-16.298,16.298c-7.885,7.885-7.885,20.67,0,28.555l39.875,39.875l18.175-18.176
	l-39.875-39.875C344.201,397.392,343.36,385.449,350.209,378.6z"/>
<g>
</g>
<g>
</g>
<g>
</g>
<g>
</g>
<g>
</g>
<g>
</g>
<g>
</g>
<g>
</g>
<g>
</g>
<g>
</g>
<g>
</g>
<g>
</g>
<g>
</g>
<g>
</g>
<g>
</g>
</svg>
