<?xml version="1.0" encoding="UTF-8"?>
<svg width="2970px" height="3365px" viewBox="0 0 2970 3365" version="1.1" xmlns="http://www.w3.org/2000/svg" xmlns:xlink="http://www.w3.org/1999/xlink">
    <!-- Generator: Sketch 51.3 (57544) - http://www.bohemiancoding.com/sketch -->
    <title>post-it (1)</title>
    <desc>Created with Sketch.</desc>
    <defs></defs>
    <g id="Page-1" stroke="none" stroke-width="1" fill="none" fill-rule="evenodd">
        <g id="Artboard-4" transform="translate(-7324.000000, -19092.000000)" fill-rule="nonzero">
            <g id="post-it-(1)" transform="translate(6930.000000, 19092.900990)">
                <path d="M3364,696.551069 L3364,2378.48931 L2378.38053,3364 L492.561947,3364 C437.360686,3364 394,3320.63096 394,3265.44893 L394,696.551069 C394,641.3559 437.360686,598 492.561947,598 L3265.43805,598 C3320.63931,598 3364,641.3559 3364,696.551069 Z" id="Shape" fill="#FEDB41"></path>
                <path d="M3364,696.551069 L3364,2378.48931 L2378.38053,3364 L1879,3364 L1879,598 L3265.43805,598 C3320.63931,598 3364,641.3559 3364,696.551069 Z" id="Shape" fill="#FCBF29"></path>
                <path d="M1978,2673.5 C1978,2728.65343 1934.66657,2772 1879.5,2772 C1824.33343,2772 1781,2728.65343 1781,2673.5 C1781,2618.33343 1824.33343,2575 1879.5,2575 C1934.66657,2575 1978,2618.33343 1978,2673.5 Z" id="Shape" fill="#FEA832"></path>
                <path d="M1626.95174,1166.43484 C1581.5901,1136.17868 1569.35383,1075.00206 1599.59931,1029.61783 L1775.27952,766.007803 C1805.42637,720.630151 1866.58141,708.297479 1912.04826,738.645717 C1957.4099,768.90187 1969.64617,830.078496 1939.40069,875.462726 L1763.72048,1139.07275 C1733.97471,1183.77951 1673.03665,1196.99355 1626.95174,1166.43484 Z" id="Shape" fill="#08469C"></path>
                <path d="M2859.06283,3219.56415 L3219.57072,2859.05625 C3312.67541,2765.95156 3364,2642.12311 3364,2510.40008 L3364,2378 L2476.6,2378 C2422.10049,2378 2378,2422.10049 2378,2476.6 L2378,3364 L2510.40008,3364 C2642.12311,3364 2765.95156,3312.67541 2859.06283,3219.56415 Z" id="Shape" fill="#FE9923"></path>
                <g id="Group" transform="translate(788.000000, 1392.000000)" fill="#FEA832">
                    <path d="M2181,98.8761896 C2181,154.046872 2137.64934,197.406995 2082.46084,197.406995 L98.5391566,197.406995 C43.3506596,197.406995 0,154.046872 0,98.8761896 C0,43.6923697 43.3506596,0.345383886 98.5391566,0.345383886 L2082.46084,0.345383886 C2137.64934,0.345383886 2181,43.6923697 2181,98.8761896 Z" id="Shape"></path>
                    <path d="M2181,492.999412 C2181,548.170095 2137.64934,591.530218 2082.46084,591.530218 L98.5391566,591.530218 C43.3506596,591.530218 0,548.170095 0,492.999412 C0,437.815592 43.3506596,394.468607 98.5391566,394.468607 L2082.46084,394.468607 C2137.64934,394.468607 2181,437.815592 2181,492.999412 Z" id="Shape"></path>
                    <path d="M1392.68675,887.122635 C1392.68675,942.293318 1342.76681,985.653441 1287.57831,985.653441 L98.5391566,985.653441 C43.3506596,985.653441 0,942.293318 0,887.122635 C0,831.938815 43.3506596,788.591829 98.5391566,788.591829 L1287.57831,788.591829 C1342.76681,788.591829 1392.68675,831.938815 1392.68675,887.122635 Z" id="Shape"></path>
                    <path d="M696.343373,1379.77666 L98.5391566,1379.77666 C44.0732801,1379.77666 0,1335.70712 0,1281.24586 C0,1226.7846 44.0732801,1182.71505 98.5391566,1182.71505 L696.343373,1182.71505 C750.80925,1182.71505 794.88253,1226.7846 794.88253,1281.24586 C794.88253,1335.70712 750.80925,1379.77666 696.343373,1379.77666 Z" id="Shape"></path>
                </g>
                <g id="Group" transform="translate(1879.000000, 1392.000000)" fill="#FE9923">
                    <path d="M98.5843373,1281.24586 C98.5843373,1336.41654 55.2138012,1379.77666 0,1379.77666 L0,1182.71505 C55.2138012,1182.71505 98.5843373,1226.06204 98.5843373,1281.24586 Z" id="Shape"></path>
                    <path d="M302.325301,887.122635 C302.325301,942.293318 252.382476,985.653441 197.168675,985.653441 L0,985.653441 L0,788.591829 L197.168675,788.591829 C252.382476,788.591829 302.325301,831.938815 302.325301,887.122635 Z" id="Shape"></path>
                    <path d="M1091,492.999412 C1091,548.170095 1047.62946,591.530218 992.415663,591.530218 L0,591.530218 L0,394.468607 L992.415663,394.468607 C1047.62946,394.468607 1091,437.815592 1091,492.999412 Z" id="Shape"></path>
                    <path d="M992.415663,197.406995 L0,197.406995 L0,0.345383886 L992.415663,0.345383886 C1047.62946,0.345383886 1091,43.6923697 1091,98.8761896 C1091,154.046872 1047.62946,197.406995 992.415663,197.406995 Z" id="Shape"></path>
                </g>
                <path d="M2431.62738,143.486878 C2283.81547,-2.4184559 2058.47129,-37.9105412 1879.13275,40.9541869 C1823.94307,64.6155771 1772.71475,98.1424525 1727.37262,143.49345 C1536.20913,336.721565 1536.20913,648.269775 1727.37262,841.497889 C1772.70818,886.85546 1823.94307,920.375763 1879.13275,944.037153 C2058.47129,1022.91503 2283.81547,987.422941 2431.62738,841.497889 C2622.79087,648.263203 2622.79087,336.721565 2431.62738,143.486878 Z" id="Shape" fill="#19DEC1"></path>
                <path d="M2431.60003,841.500342 C2283.75992,987.425866 2058.37933,1022.91149 1879,944.039938 L1879,40.9540453 C2058.37276,-37.9109384 2283.75992,-2.4187381 2431.60003,143.493641 C2622.79999,336.722381 2622.79999,648.265029 2431.60003,841.500342 Z" id="Shape" fill="#17CEB4"></path>
            </g>
        </g>
    </g>
</svg>