<?xml version="1.0" encoding="UTF-8"?>
<svg width="1653px" height="797px" viewBox="0 0 1653 797" version="1.1" xmlns="http://www.w3.org/2000/svg" xmlns:xlink="http://www.w3.org/1999/xlink">
    <!-- Generator: Sketch 52.2 (67145) - http://www.bohemiancoding.com/sketch -->
    <title>shutterstock_432269680</title>
    <desc>Created with Sketch.</desc>
    <g id="shutterstock_432269680" stroke="none" stroke-width="1" fill="none" fill-rule="evenodd">
        <path d="M1090.59775,48.8773341 C1046.85873,18.529477 997.007417,58.7471456 987.030583,83.4843083 C976.869723,58.8724137 927.48505,19.9997294 883.167663,49.9190376 C785.85738,113.733269 943.462444,263.527602 987.97043,266 C1035.85003,258.101514 1179.42312,110.641124 1090.59775,48.8773341" id="Fill-3" fill="#EB5C38"></path>
        <path d="M964.467774,227 L951.371331,160.792955 L943.396438,183.404668 L862.72708,183.404668 C860.116995,183.404668 858,181.30955 858,178.734435 C858,176.15932 860.116995,174.064202 862.72708,174.064202 L936.66413,174.064202 L953.935394,125.072156 L966.098255,186.492212 L993.382513,90 L1025.13087,188.76895 L1031.58047,174.064202 L1107.27292,174.064202 C1109.883,174.064202 1112,176.15932 1112,178.734435 C1112,181.30955 1109.883,183.404668 1107.27292,183.404668 L1037.79339,183.404668 L1023.75679,215.395767 L993.961071,122.704607 L964.467774,227" id="Fill-4" fill="#FADE46"></path>
        <path d="M782,472.115104 C782,475.914114 778.866007,479 775.030471,479 L527.976085,479 C524.127437,479 521,475.914114 521,472.115104 L521,126.878413 C521,123.098851 524.127437,120 527.976085,120 L775.030471,120 C778.866007,120 782,123.098851 782,126.878413 L782,472.115104" id="Fill-5" fill="#C79B55"></path>
        <polygon id="Fill-6" fill="#F9FAF9" points="534 453 769 453 769 133 534 133"></polygon>
        <path d="M723,132.217391 C723,135.940801 719.820161,139 715.964607,139 L587.022144,139 C583.166589,139 580,135.940801 580,132.217391 L580,119.782609 C580,116.059199 583.166589,113 587.022144,113 L715.964607,113 C719.820161,113 723,116.059199 723,119.782609 L723,132.217391" id="Fill-7" fill="#C6C9C9"></path>
        <path d="M651.01643,110.455079 C646.356967,110.455079 642.571564,106.585731 642.571564,101.818262 C642.571564,97.0170288 646.356967,93.1476806 651.01643,93.1476806 C655.636461,93.1476806 659.435008,97.0170288 659.435008,101.818262 C659.435008,106.585731 655.636461,110.455079 651.01643,110.455079 Z M650.98357,80 C622.954502,80 600.150079,104.418086 599,126 L703,126 C701.849921,104.418086 679.05207,80 650.98357,80 Z" id="Fill-8" fill="#D0D3D3"></path>
        <polyline id="Fill-9" fill="#678699" points="582.712087 198 582.712087 170.577007 573 170.577007 573 165 599 165 599 170.577007 589.313725 170.577007 589.313725 198 582.712087 198"></polyline>
        <path d="M613.084367,181.474828 C613.084367,185.093249 613.969913,187.830664 615.747713,189.693364 C617.525513,191.562357 619.786339,192.493707 622.52348,192.493707 C625.260622,192.493707 627.50803,191.56865 629.265704,189.718535 C631.023379,187.868421 631.902216,185.093249 631.902216,181.393021 C631.902216,177.736842 631.050213,175.005721 629.3395,173.20595 C627.628786,171.406178 625.354544,170.506293 622.52348,170.506293 C619.692417,170.506293 617.418174,171.418764 615.680626,173.237414 C613.949787,175.062357 613.084367,177.806064 613.084367,181.474828 Z M606,181.69508 C606,178.447941 606.523277,175.716819 607.563123,173.508009 C608.334621,171.884439 609.387884,170.430778 610.722911,169.134439 C612.064647,167.844394 613.52714,166.887872 615.123806,166.258581 C617.243749,165.421625 619.685708,165 622.456394,165 C627.474487,165 631.479569,166.459954 634.485058,169.37357 C637.497256,172.293478 639,176.352403 639,181.54405 C639,186.697941 637.510673,190.7254 634.518601,193.639016 C631.539947,196.546339 627.541573,198 622.550315,198 C617.49197,198 613.47347,196.552632 610.481399,193.657895 C607.496036,190.763158 606,186.773455 606,181.69508 Z" id="Fill-10" fill="#678699"></path>
        <path d="M658.262997,170.577007 L658.262997,192.436009 L662.93578,192.436009 C664.685015,192.436009 665.95107,192.331887 666.727829,192.123644 C667.743119,191.850325 668.587156,191.394794 669.253823,190.750542 C669.926606,190.106291 670.470948,189.045553 670.892966,187.561822 C671.314985,186.084599 671.529052,184.067245 671.529052,181.516269 C671.529052,178.9718 671.314985,177.006508 670.892966,175.639913 C670.470948,174.279826 669.877676,173.212581 669.119266,172.444685 C668.35474,171.683297 667.394495,171.16269 666.220183,170.895879 C665.345566,170.687636 663.626911,170.577007 661.076453,170.577007 L658.262997,170.577007 Z M652,165 L663.449541,165 C666.030581,165 667.993884,165.208243 669.351682,165.624729 C671.168196,166.197397 672.727829,167.212581 674.030581,168.663774 C675.321101,170.121475 676.311927,171.904555 676.984709,174.013015 C677.663609,176.121475 678,178.724512 678,181.809111 C678,184.529284 677.681957,186.872017 677.051988,188.83731 C676.275229,191.232104 675.168196,193.177874 673.730887,194.668113 C672.642202,195.793926 671.180428,196.665944 669.327217,197.29718 C667.944954,197.765727 666.097859,198 663.785933,198 L652,198 L652,165 Z" id="Fill-11" fill="#678699"></path>
        <path d="M691.084367,181.474828 C691.084367,185.093249 691.969913,187.830664 693.747713,189.693364 C695.525513,191.562357 697.786339,192.493707 700.52348,192.493707 C703.260622,192.493707 705.50803,191.56865 707.265704,189.718535 C709.023379,187.868421 709.895507,185.093249 709.895507,181.393021 C709.895507,177.736842 709.043505,175.005721 707.3395,173.20595 C705.628786,171.406178 703.354544,170.506293 700.52348,170.506293 C697.692417,170.506293 695.411466,171.418764 693.673917,173.237414 C691.949787,175.062357 691.084367,177.806064 691.084367,181.474828 Z M684,181.69508 C684,178.447941 684.516568,175.716819 685.563123,173.508009 C686.334621,171.884439 687.387884,170.430778 688.722911,169.134439 C690.057939,167.844394 691.52714,166.887872 693.117097,166.258581 C695.243749,165.421625 697.685708,165 700.456394,165 C705.467778,165 709.479569,166.459954 712.485058,169.37357 C715.490547,172.293478 717,176.352403 717,181.54405 C717,186.697941 715.503964,190.7254 712.518601,193.639016 C709.539947,196.546339 705.541573,198 700.550315,198 C695.49197,198 691.466762,196.552632 688.481399,193.657895 C685.496036,190.763158 684,186.773455 684,181.69508 Z" id="Fill-12" fill="#678699"></path>
        <path d="M723,204 L729.797,204 L729.797,197.114317 L723,197.114317 L723,204 Z M723,184.878606 L729.797,184.878606 L729.797,178 L723,178 L723,184.878606 Z" id="Fill-13" fill="#678699"></path>
        <path d="M560.767105,243.227826 L580.232895,243.227826 L580.232895,223.765797 L560.767105,223.765797 L560.767105,243.227826 Z M583.619637,250 L557.380363,250 C555.511596,250 554,248.482319 554,246.613913 L554,220.386087 C554,218.517681 555.511596,217 557.380363,217 L583.619637,217 C585.488404,217 587,218.517681 587,220.386087 L587,246.613913 C587,248.482319 585.488404,250 583.619637,250 Z" id="Fill-14" fill="#D0D3D3"></path>
        <polygon id="Fill-15" fill="#D0D3D3" points="593 237 750 237 750 230 593 230"></polygon>
        <path d="M560.767105,282.232895 L580.232895,282.232895 L580.232895,262.773483 L560.767105,262.773483 L560.767105,282.232895 Z M583.619637,289 L557.380363,289 C555.511596,289 554,287.488404 554,285.619637 L554,259.386741 C554,257.517974 555.511596,256 557.380363,256 L583.619637,256 C585.488404,256 587,257.517974 587,259.386741 L587,285.619637 C587,287.488404 585.488404,289 583.619637,289 Z" id="Fill-16" fill="#D0D3D3"></path>
        <polygon id="Fill-17" fill="#D0D3D3" points="593 277 750 277 750 270 593 270"></polygon>
        <path d="M560.767105,328.234203 L580.232895,328.234203 L580.232895,308.765797 L560.767105,308.765797 L560.767105,328.234203 Z M583.619637,335 L557.380363,335 C555.511596,335 554,333.488696 554,331.62029 L554,305.37971 C554,303.511304 555.511596,302 557.380363,302 L583.619637,302 C585.488404,302 587,303.511304 587,305.37971 L587,331.62029 C587,333.488696 585.488404,335 583.619637,335 Z" id="Fill-18" fill="#D0D3D3"></path>
        <polygon id="Fill-19" fill="#D0D3D3" points="593 322 750 322 750 315 593 315"></polygon>
        <path d="M560.767105,367.231587 L580.232895,367.231587 L580.232895,347.768413 L560.767105,347.768413 L560.767105,367.231587 Z M583.619637,374 L557.380363,374 C555.511596,374 554,372.488111 554,370.618983 L554,344.387396 C554,342.518268 555.511596,341 557.380363,341 L583.619637,341 C585.488404,341 587,342.518268 587,344.387396 L587,370.618983 C587,372.488111 585.488404,374 583.619637,374 Z" id="Fill-20" fill="#D0D3D3"></path>
        <polygon id="Fill-21" fill="#D0D3D3" points="593 361 750 361 750 354 593 354"></polygon>
        <path d="M560.767105,413.238123 L580.232895,413.238123 L580.232895,393.76825 L560.767105,393.76825 L560.767105,413.238123 Z M583.619637,420 L557.380363,420 C555.511596,420 554,418.483198 554,416.615875 L554,390.390498 C554,388.523175 555.511596,387 557.380363,387 L583.619637,387 C585.488404,387 587,388.523175 587,390.390498 L587,416.615875 C587,418.483198 585.488404,420 583.619637,420 Z" id="Fill-22" fill="#D0D3D3"></path>
        <polygon id="Fill-23" fill="#D0D3D3" points="593 407 750 407 750 400 593 400"></polygon>
        <path d="M589.345686,256 C588.409741,256 587.473796,255.642091 586.764955,254.933157 L555.073584,223.237591 C553.642139,221.812839 553.642139,219.500199 555.073584,218.068564 C556.498147,216.643812 558.810482,216.643812 560.235045,218.068564 L591.926416,249.76413 C593.357861,251.188882 593.357861,253.501522 591.926416,254.933157 C591.210693,255.642091 590.274749,256 589.345686,256" id="Fill-24" fill="#EB5C38"></path>
        <path d="M557.654314,256 C556.71837,256 555.789307,255.642091 555.073584,254.933157 C553.642139,253.501522 553.642139,251.188882 555.073584,249.76413 L586.764955,218.068564 C588.189518,216.643812 590.501853,216.643812 591.926416,218.068564 C593.357861,219.500199 593.357861,221.812839 591.926416,223.237591 L560.235045,254.933157 C559.526204,255.642091 558.590259,256 557.654314,256" id="Fill-25" fill="#EB5C38"></path>
        <path d="M589.345686,295 C588.409741,295 587.473796,294.642154 586.764955,293.933345 L555.073584,262.229609 C553.642139,260.805108 553.642139,258.492876 555.073584,257.068375 C556.498147,255.643875 558.810482,255.643875 560.235045,257.068375 L591.926416,288.76523 C593.357861,290.18973 593.357861,292.501963 591.926416,293.933345 C591.210693,294.642154 590.274749,295 589.345686,295" id="Fill-26" fill="#EB5C38"></path>
        <path d="M557.654314,295 C556.71837,295 555.789307,294.642154 555.073584,293.933345 C553.642139,292.501963 553.642139,290.18973 555.073584,288.76523 L586.764955,257.068375 C588.189518,255.643875 590.501853,255.643875 591.926416,257.068375 C593.357861,258.492876 593.357861,260.805108 591.926416,262.229609 L560.235045,293.933345 C559.526204,294.642154 558.590259,295 557.654314,295" id="Fill-27" fill="#EB5C38"></path>
        <path d="M589.345686,335 C588.409741,335 587.473796,334.635426 586.764955,333.926913 L555.073584,302.22958 C553.642139,300.805676 553.642139,298.494412 555.073584,297.070509 C556.498147,295.646605 558.810482,295.639726 560.235045,297.070509 L591.926416,328.767842 C593.357861,330.191746 593.357861,332.50301 591.926416,333.926913 C591.210693,334.635426 590.274749,335 589.345686,335" id="Fill-28" fill="#EB5C38"></path>
        <path d="M557.654314,335 C556.71837,335 555.789307,334.635426 555.073584,333.926913 C553.642139,332.50301 553.642139,330.191746 555.073584,328.767842 L586.764955,297.070509 C588.189518,295.639726 590.501853,295.646605 591.926416,297.070509 C593.357861,298.494412 593.357861,300.805676 591.926416,302.22958 L560.235045,333.926913 C559.526204,334.635426 558.590259,335 557.654314,335" id="Fill-29" fill="#EB5C38"></path>
        <path d="M589.345686,380 C588.409741,380 587.473796,379.635273 586.764955,378.926463 L555.073584,347.229609 C553.642139,345.805108 553.642139,343.492876 555.073584,342.068375 C556.498147,340.643875 558.810482,340.643875 560.235045,342.068375 L591.926416,373.76523 C593.357861,375.18973 593.357861,377.501963 591.926416,378.926463 C591.210693,379.635273 590.274749,380 589.345686,380" id="Fill-30" fill="#EB5C38"></path>
        <path d="M557.654314,380 C556.71837,380 555.789307,379.635273 555.073584,378.926463 C553.642139,377.501963 553.642139,375.18973 555.073584,373.76523 L586.764955,342.068375 C588.189518,340.643875 590.501853,340.643875 591.926416,342.068375 C593.357861,343.492876 593.357861,345.805108 591.926416,347.229609 L560.235045,378.926463 C559.526204,379.635273 558.590259,380 557.654314,380" id="Fill-31" fill="#EB5C38"></path>
        <path d="M589.345686,419 C588.409741,419 587.473796,418.635273 586.764955,417.919582 L555.073584,386.229609 C553.642139,384.805108 553.642139,382.492876 555.073584,381.068375 C556.498147,379.643875 558.810482,379.643875 560.235045,381.068375 L591.926416,412.758348 C593.357861,414.182849 593.357861,416.495081 591.926416,417.919582 C591.210693,418.635273 590.274749,419 589.345686,419" id="Fill-32" fill="#EB5C38"></path>
        <path d="M557.654314,419 C556.71837,419 555.789307,418.635273 555.073584,417.919582 C553.642139,416.495081 553.642139,414.182849 555.073584,412.758348 L586.764955,381.068375 C588.189518,379.643875 590.501853,379.643875 591.926416,381.068375 C593.357861,382.492876 593.357861,384.805108 591.926416,386.229609 L560.235045,417.919582 C559.526204,418.635273 558.590259,419 557.654314,419" id="Fill-33" fill="#EB5C38"></path>
        <path d="M1070.52518,328.268826 C1081.3542,331.673726 1078.22582,342.193244 1081.64038,345.598143 C1084.11186,348.082098 1088.54754,348.607426 1090.79789,348.711194 C1092.82712,366.001598 1095.31812,383.285516 1097.92619,392.546842 L1098.42699,394.226593 C1092.04665,394.226593 1054.55806,392.436588 1050.00532,349.872102 C1048.17121,332.795721 1061.74489,325.499508 1070.52518,328.268826 Z M1045.43306,375.742853 C1057.19865,401.801683 1092.20924,414.364141 1106.27722,415.946608 C1113.22991,431.220014 1122.92725,443.912182 1137.47652,451.584556 L1137.49603,451.82452 C1137.86025,456.273589 1141.13172,459.905482 1145.59991,459.905482 C1172.3115,461.338782 1199.0231,461.390666 1225.72819,459.905482 C1230.0598,459.905482 1233.36379,456.513553 1233.77353,452.252565 C1256.14051,441.136379 1267.27522,418.365708 1274.56611,392.546842 C1279.6912,374.432777 1284.30898,325.707045 1286,306.179136 C1285.92195,305.329532 1285.77887,304.616125 1285.59025,304 L1086.75896,304 C1086.6679,304.609639 1086.58986,305.329532 1086.4923,306.179136 C1086.92156,311.114618 1087.53943,317.930903 1088.30039,325.642189 C1083.81268,318.767535 1073.25682,311.925309 1059.97582,315.47289 C1047.1501,319.448515 1026.97494,334.793262 1045.43306,375.742853 Z" id="Fill-76" fill="#E6D7C7"></path>
        <path d="M1251.42195,399.660798 C1256.54294,381.495132 1261.15638,332.61759 1262.87422,313.034053 C1262.77011,312.195037 1262.62696,311.473093 1262.45127,310.84871 L1195,310.84871 L1195,304 L1285.59006,304 C1285.77876,304.61788 1285.92192,305.33332 1286,306.185343 C1284.30819,325.76888 1279.68824,374.633415 1274.56074,392.79908 C1267.26643,418.691495 1256.12649,441.527031 1233.74902,452.674883 C1233.33908,456.948009 1230.03354,460.3496 1225.69989,460.3496 C1220.53986,460.64228 1215.36682,460.811384 1210.2133,461 L1210.60372,459.536601 C1232.97469,448.382245 1244.12113,425.546709 1251.42195,399.660798" id="Fill-77" fill="#F7E7D6"></path>
        <path d="M1090,301.503444 C1090,310.602379 1135.2033,318 1191,318 C1246.7835,318 1292,310.602379 1292,301.503444 C1292,292.383845 1246.7835,285 1191,285 C1135.2033,285 1090,292.383845 1090,301.503444" id="Fill-78" fill="#FFF1E3"></path>
        <path d="M1103,301 C1103,306.529686 1142.39675,311 1190.99006,311 C1239.58337,311 1279,306.529686 1279,301 C1279,295.481956 1239.58337,291 1190.99006,291 C1142.39675,291 1103,295.481956 1103,301" id="Fill-79" fill="#DEC2A7"></path>
        <path d="M1267,304.503288 C1253.16223,308.330298 1223.22825,311 1188.49674,311 C1153.77828,311 1123.83125,308.330298 1110,304.503288 C1123.83125,300.65655 1153.77828,298 1188.49674,298 C1223.22825,298 1253.16223,300.65655 1267,304.503288" id="Fill-80" fill="#5E4435"></path>
        <polyline id="Fill-85" fill="#E3BE51" points="1352.4231 388.597734 1352.12861 392.891173 1351.60813 401.987773 1339 614 1398 614 1385.39872 401.987773 1384.88508 392.891173 1384.5906 388.597734 1384.06326 379.494598 1383.26883 366 1353.74486 366 1352.93674 379.494598 1352.4231 388.597734"></polyline>
        <polyline id="Fill-86" fill="#A35A48" points="1384.45902 377.94332 1383.64403 366 1353.35597 366 1352.52693 377.94332 1352 386 1385 386 1384.45902 377.94332"></polyline>
        <polyline id="Fill-87" fill="#E3BE51" points="1443 620 1433.60728 459.861363 1433.10229 450.801582 1432.81277 446.522447 1432.30778 437.443126 1431.50654 424 1402.50693 424 1401.70568 437.443126 1401.1805 446.522447 1400.90444 450.801582 1400.39946 459.861363 1391 620 1443 620"></polyline>
        <polyline id="Fill-88" fill="#A35A48" points="1436.47318 435.937536 1435.63729 424 1405.38378 424 1404.54789 435.937536 1404 444 1437 444 1436.47318 435.937536"></polyline>
        <polygon id="Fill-89" fill="#E3BE51" points="1319 626 1586 626 1586 522 1319 522"></polygon>
        <polyline id="Fill-90" fill="#A35A48" points="1586 523 1319 523 1329.92149 503 1575.06555 503 1586 523"></polyline>
        <polygon id="Fill-91" fill="#736554" points="1352 562 1385 562 1385 542 1352 542"></polygon>
        <polygon id="Fill-92" fill="#736554" points="1398 562 1431 562 1431 542 1398 542"></polygon>
        <polygon id="Fill-93" fill="#736554" points="1437 562 1470 562 1470 542 1437 542"></polygon>
        <polygon id="Fill-94" fill="#736554" points="1476 562 1509 562 1509 542 1476 542"></polygon>
        <polygon id="Fill-95" fill="#736554" points="1521 562 1554 562 1554 542 1521 542"></polygon>
        <path d="M1385,339.496576 C1385,350.261809 1377.61311,359 1368.50301,359 C1359.38689,359 1352,350.261809 1352,339.496576 C1352,328.731343 1359.38689,320 1368.50301,320 C1377.61311,320 1385,328.731343 1385,339.496576" id="Fill-96" fill="#756D63"></path>
        <path d="M1430,319.480647 C1430,337.440155 1415.44446,352 1397.5,352 C1379.55554,352 1365,337.440155 1365,319.480647 C1365,301.546943 1379.55554,287 1397.5,287 C1415.44446,287 1430,301.546943 1430,319.480647" id="Fill-97" fill="#756D63"></path>
        <path d="M1437,280.990503 C1437,295.356508 1425.36686,307 1411,307 C1396.63973,307 1385,295.356508 1385,280.990503 C1385,266.649823 1396.63973,255 1411,255 C1425.36686,255 1437,266.649823 1437,280.990503" id="Fill-98" fill="#756D63"></path>
        <path d="M1482,309.983884 C1482,329.877518 1464.53582,346 1443.00665,346 C1421.47083,346 1404,329.877518 1404,309.983884 C1404,290.122482 1421.47083,274 1443.00665,274 C1464.53582,274 1482,290.122482 1482,309.983884" id="Fill-99" fill="#756D63"></path>
        <path d="M1495,271.489875 C1495,294.972366 1477.55068,314 1456.00322,314 C1434.46865,314 1417,294.972366 1417,271.489875 C1417,248.020885 1434.46865,229 1456.00322,229 C1477.55068,229 1495,248.020885 1495,271.489875" id="Fill-100" fill="#756D63"></path>
        <path d="M1509,304.003471 C1509,316.69911 1498.71484,327 1486,327 C1473.29881,327 1463,316.69911 1463,304.003471 C1463,291.30089 1473.29881,281 1486,281 C1498.71484,281 1509,291.30089 1509,304.003471" id="Fill-101" fill="#756D63"></path>
        <path d="M1534,267.503241 C1534,285.453276 1519.4529,300 1501.50319,300 C1483.55985,300 1469,285.453276 1469,267.503241 C1469,249.566171 1483.55985,235 1501.50319,235 C1519.4529,235 1534,249.566171 1534,267.503241" id="Fill-102" fill="#756D63"></path>
        <path d="M1437,401.47881 C1437,410.611729 1431.1804,418 1424,418 C1416.8196,418 1411,410.611729 1411,401.47881 C1411,392.402397 1416.8196,385 1424,385 C1431.1804,385 1437,392.402397 1437,401.47881" id="Fill-103" fill="#756D63"></path>
        <path d="M1469,385.006292 C1469,399.371733 1457.36153,411 1443.00655,411 C1428.63847,411 1417,399.371733 1417,385.006292 C1417,370.647144 1428.63847,359 1443.00655,359 C1457.36153,359 1469,370.647144 1469,385.006292" id="Fill-104" fill="#756D63"></path>
        <path d="M1515,375.493559 C1515,391.776528 1500.44665,405 1482.49324,405 C1464.55335,405 1450,391.776528 1450,375.493559 C1450,359.197707 1464.55335,346 1482.49324,346 C1500.44665,346 1515,359.197707 1515,375.493559" id="Fill-105" fill="#756D63"></path>
        <path d="M1541,375.487854 C1541,384.615385 1532.26908,392 1521.5,392 C1510.73092,392 1502,384.615385 1502,375.487854 C1502,366.384615 1510.73092,359 1521.5,359 C1532.26908,359 1541,366.384615 1541,375.487854" id="Fill-106" fill="#756D63"></path>
        <path d="M427,284.457812 C427,287.50405 424.518283,290 421.481444,290 L73.5185556,290 C70.4882481,290 68,287.50405 68,284.457812 L68,54.5421877 C68,51.4959498 70.4882481,49 73.5185556,49 L421.481444,49 C424.518283,49 427,51.4959498 427,54.5421877 L427,284.457812" id="Fill-114" fill="#424647"></path>
        <path d="M407,265.681833 C407,268.606162 404.66123,271 401.812065,271 L86.1814741,271 C83.3323094,271 81,268.606162 81,265.681833 L81,67.3181674 C81,64.3938384 83.3323094,62 86.1814741,62 L401.812065,62 C404.66123,62 407,64.3938384 407,67.3181674 L407,265.681833" id="Fill-115" fill="#3FC8D4"></path>
        <path d="M81,271 L81,67.3181674 C81,64.3938384 83.3323094,62 86.1814741,62 L407,62 L81,271" id="Fill-116" fill="#63DBE6"></path>
        <polyline id="Fill-117" fill="#FFFFFF" points="153 187 153 141 162.66204 141 182.777759 171.721542 182.777759 141 192 141 192 187 182.04025 187 162.229008 157.006607 162.229008 187 153 187"></polyline>
        <polyline id="Fill-118" fill="#FFFFFF" points="198 187 198 141 236.018824 141 236.018824 148.781693 208.355294 148.781693 208.355294 158.982106 234.098824 158.982106 234.098824 166.73214 208.355294 166.73214 208.355294 179.249966 237 179.249966 237 187 198 187"></polyline>
        <polyline id="Fill-119" fill="#FFFFFF" points="248.823141 187 237 141 247.234449 141 254.700619 172.601652 263.755481 141 275.646806 141 284.333473 173.127185 291.936012 141 302 141 289.979125 187 279.369663 187 269.503409 152.612388 259.664429 187 248.823141 187"></polyline>
        <path d="M303,168.75429 L312.42654,167.792736 C312.994245,171.106292 314.142857,173.548224 315.878978,175.097778 C317.608497,176.65425 319.95193,177.429028 322.896073,177.429028 C326.011848,177.429028 328.361882,176.737262 329.939573,175.353732 C331.523866,173.977119 332.316012,172.358388 332.316012,170.504457 C332.316012,169.31462 331.97935,168.304643 331.312627,167.474524 C330.652505,166.637488 329.490691,165.911135 327.833785,165.295464 C326.698375,164.880404 324.117299,164.154051 320.077353,163.102568 C314.888795,161.753625 311.244922,160.093388 309.152336,158.128775 C306.214794,155.368631 304.736121,151.992816 304.736121,148.015166 C304.736121,145.455634 305.43585,143.062126 306.815504,140.834641 C308.20176,138.607157 310.195328,136.912332 312.80281,135.743249 C315.40369,134.581083 318.552471,134 322.235951,134 C328.262864,134 332.7913,135.376613 335.827861,138.143674 C338.871022,140.910736 340.468517,144.597845 340.626947,149.218837 L330.942959,149.661567 C330.527082,147.081282 329.642519,145.220434 328.276066,144.092856 C326.909614,142.965279 324.869838,142.398031 322.143534,142.398031 C319.331415,142.398031 317.126608,142.999867 315.535714,144.210456 C314.512525,144.992151 313.991029,146.029799 313.991029,147.330318 C313.991029,148.520154 314.479519,149.537049 315.436696,150.381003 C316.657921,151.460157 319.621869,152.573899 324.335139,153.742983 C329.048409,154.905148 332.527251,156.115738 334.784868,157.360915 C337.042485,158.606093 338.80501,160.307836 340.085647,162.466143 C341.359682,164.624451 342,167.294665 342,170.469868 C342,173.347612 341.227657,176.045497 339.709377,178.563523 C338.177894,181.074631 336.019296,182.942397 333.22698,184.166822 C330.441266,185.384329 326.955823,186 322.790454,186 C316.730535,186 312.076676,184.52654 308.828876,181.593455 C305.581077,178.66037 303.640318,174.378342 303,168.75429" id="Fill-120" fill="#FFFFFF"></path>
        <polygon id="Fill-121" fill="#424647" points="231 329 257 329 257 277 231 277"></polygon>
        <path d="M322,329.5 C322,325.92623 319.461805,323 316.364008,323 L177.635992,323 C174.538195,323 172,325.92623 172,329.5 C172,333.07377 174.538195,336 177.635992,336 L316.364008,336 C319.461805,336 322,333.07377 322,329.5" id="Fill-122" fill="#424647"></path>
        <g id="Group-4" transform="translate(805.000000, 434.000000)">
            <path d="M265.762882,237.408928 C268.704072,242.683691 266.22083,247 260.222351,247 L239.356672,247 C233.371092,247 226.056817,242.683691 223.109177,237.408928 L190.240089,178.591072 C187.292449,173.316309 189.78214,169 195.77417,169 L216.659199,169 C222.657678,169 229.965504,173.316309 232.906694,178.591072 L265.762882,237.408928" id="Fill-175" fill="#C7C9C5"></path>
            <path d="M280.804745,132.292447 C286.481848,127.263396 290.125361,120.03938 290.125361,111.898644 C290.125361,96.7340219 277.715254,84.435765 262.39164,84.435765 C261.114129,84.435765 259.869207,84.6552615 258.61125,84.8231117 C259.777956,81.7759845 260.494927,78.4964493 260.494927,75.0426081 C260.494927,59.87153 248.097856,47.5732731 232.780759,47.5732731 C226.934191,47.5732731 221.524323,49.3938025 217.059552,52.4473854 C216.238295,38.0058102 204.277924,26.5145255 189.495296,26.5145255 C182.208269,26.5145255 175.664284,29.348612 170.717188,33.8870239 C166.109023,25.074887 156.905729,19 146.196798,19 C134.503661,19 124.544289,26.2046482 120.470593,36.3466753 C115.445282,31.2207876 108.425489,28.0251775 100.636583,28.0251775 C87.2553067,28.0251775 76.1161927,37.3860555 73.5025094,49.8650742 C71.3450801,49.3873467 69.1224716,49.0903809 66.8412019,49.0903809 C50.0575749,49.0903809 36.4546896,62.5571336 36.4546896,79.1678502 C36.4546896,80.5041963 36.6893345,81.7695287 36.8392465,83.0606843 L35.6920938,82.9444803 C18.9149847,82.9444803 5.33165316,96.4047773 5.33165316,113.02195 C5.33165316,121.085216 8.55802029,128.367334 13.772351,133.757908 C5.48808308,139.142027 0,148.380245 0,158.916075 C0,175.546159 13.5963673,189 30.3865123,189 C31.4163426,189 269.079019,189 270.376084,189 C286.736046,189 300,175.875403 300,159.671401 C300,147.102001 292.009038,136.482247 280.804745,132.292447" id="Fill-176" fill="#C7C9C5"></path>
            <path d="M128.949938,32 C127.486165,34.0397419 126.262148,36.2874839 125.34729,38.7096774 C122.993897,36.1197419 120.142064,34.0263226 117,32.5367742 C121.258821,54.6049032 134.054214,82.8392258 162.894322,83.9932903 L163.127768,84 C166.263523,84 168.8756,81.3630968 168.995478,77.9948387 C169.121665,74.5259355 166.59161,71.6206452 163.335977,71.5065806 C140.735832,70.5873548 132.161404,47.3383226 128.949938,32" id="Fill-177" fill="#BABDB7"></path>
            <path d="M80.1556509,174.972623 C85.0531597,168.825919 95.5812635,166.543039 110.563328,168.44017 C113.729768,168.825919 116.582028,166.536715 116.957811,163.292621 C117.339755,160.054852 115.085053,157.120623 111.949415,156.728549 C92.5380316,154.300222 78.8311674,157.949037 71.2230877,167.573813 C64.1571222,176.496651 64.502104,187.980616 65.6171343,195 C69.2825654,195 73.194412,195 77.3095515,195 C76.3546913,190.560714 75.1842175,181.207859 80.1556509,174.972623" id="Fill-178" fill="#BABDB7"></path>
            <path d="M97.2274249,140.873808 C105.441968,139.2435 116.626889,133.286086 121.121887,121.901107 C123.921403,114.788892 124.979436,102.901235 114.109953,86.7272283 C112.177893,83.8470188 108.372916,83.1337594 105.586543,85.1376787 C102.800171,87.1212192 102.123292,91.0747142 104.048781,93.9481308 C108.320343,100.306329 112.775911,109.476807 109.772674,117.11208 C107.314883,123.354798 100.342379,127.355843 94.9010664,128.442715 C75.8893289,132.226386 20.8124633,129.332591 6.97260185,128.52423 C8.32635848,131.214237 9.9298372,133.741213 11.9341856,135.894578 C9.74583145,137.382233 7.75462631,139.155192 6,141.165904 C14.4116917,141.661789 39.0290331,143 61.6420261,143 C75.8301842,143 89.1837447,142.476943 97.2274249,140.873808" id="Fill-179" fill="#BABDB7"></path>
            <path d="M26,89.2814966 C33.7737763,88.958784 58.4839528,90.4916691 74.0063679,120.745981 C75.0747123,122.81672 77.079429,124 79.153274,124 C80.1022151,124 81.0700094,123.751242 81.9561068,123.226834 C84.7966459,121.552762 85.8335684,117.747442 84.2750425,114.708565 C71.2915164,89.4226834 52.7903059,80.7901198 39.2851763,78 C39.0903606,79.4656533 38.8641229,80.9380298 38.8641229,82.4641918 C38.8641229,83.8558901 39.0903606,85.1736334 39.2349013,86.5182695 L38.1288506,86.3972523 C33.7863451,86.3972523 29.7077834,87.4595148 26,89.2814966" id="Fill-180" fill="#BABDB7"></path>
            <path d="M80.4039378,45 C78.6260789,47.7852 77.2960266,50.8806 76.5942402,54.2202 C74.7762792,53.8176 72.9048488,53.58 71,53.5074 C76.4672503,62.4042 88.6850174,78 107.225546,78 C108.642486,78 110.092844,77.9208 111.576621,77.7228 C114.985298,77.2806 117.40479,74.1918 116.943617,70.839 C116.502494,67.4664 113.321062,65.0706 109.972538,65.5194 C94.5599721,67.4796 83.9797066,51.3888 80.4039378,45" id="Fill-181" fill="#BABDB7"></path>
            <path d="M166.368229,196 C169.297931,188.384073 169.803273,181.081223 167.775509,174.220763 C162.798853,157.498393 144.689707,150.637934 143.909306,150.358887 C140.806891,149.195059 137.429418,150.957816 136.335577,154.258732 C135.248132,157.559648 136.892092,161.17364 139.98811,162.337468 C140.122441,162.391916 153.299707,167.462394 156.408518,178.106996 C157.918147,183.265953 156.785926,189.289273 153.088615,196 C157.534343,196 161.967278,196 166.368229,196" id="Fill-182" fill="#BABDB7"></path>
            <path d="M264.092626,85.2938292 C262.874311,85.2938292 261.687075,85.5068792 260.487408,85.6697998 C261.388712,83.2510557 261.917063,80.6693911 262.109756,78 C250.044708,81.164419 225.460852,90.7642011 221.078648,117.201199 C220.556513,120.371884 222.688564,123.385915 225.858669,123.91854 L226.803485,124 C229.594421,124 232.055914,121.969759 232.509675,119.118649 C236.811072,93.145348 269.991508,88.2076011 270.314734,88.1700041 C271.352788,88.025882 272.229229,87.562185 273,86.9480997 C270.202848,85.9517777 267.244083,85.2938292 264.092626,85.2938292" id="Fill-183" fill="#BABDB7"></path>
            <path d="M240.5,150 C236.908262,150 234,152.790921 234,156.231049 L234,196 C238.658798,196 242.996781,196 247,196 L247,156.231049 C247,152.790921 244.091738,150 240.5,150" id="Fill-184" fill="#BABDB7"></path>
            <path d="M200.20836,195 C200.736795,179.016543 201.484338,149.995859 200.569243,137.703428 C198.751941,113.6854 184.574412,106.356079 172.993949,104.457838 C150.219682,100.661355 138.974324,121.390415 136.183929,132.852366 C135.371943,136.12156 137.324575,139.450073 140.540297,140.267372 C143.723796,141.08467 146.997517,139.113926 147.848168,135.851324 C148.07372,134.928568 153.641622,113.6854 171.092871,116.585491 C182.183565,118.424413 187.571026,125.219854 188.582786,138.645957 C189.459215,150.325415 188.69234,179.319735 188.183238,195 C192.275388,195 196.290207,195 200.20836,195" id="Fill-185" fill="#BABDB7"></path>
            <path d="M197.842137,90.056241 C198.841343,90.6964132 199.950851,91 201.053871,91 C203.058772,91 205.031232,89.9836442 206.186158,88.1093257 L228,52.5764706 C225.605798,53.4212339 223.360828,54.5497848 221.310508,55.9819225 C221.102881,52.0484935 220.032303,48.3460545 218.403726,45 L195.928073,81.5822095 C194.143776,84.4662841 195.013215,88.2677188 197.842137,90.056241" id="Fill-186" fill="#BABDB7"></path>
            <polyline id="Fill-187" fill="#FFE600" points="160.778384 73.2509394 191.747109 0 150.281184 0 110 102.244875 151.657866 101.727594 127.989527 176 201 73.2509394 160.778384 73.2509394"></polyline>
        </g>
        <g id="Group" transform="translate(20.000000, 380.000000)">
            <path d="M109.890532,241.017054 C110.595048,244.856716 107.823951,248 103.737757,248 L78.9186593,248 C74.8324656,248 70.4711751,244.958937 69.2298847,241.24705 L32.3333669,130.75295 C31.0920766,127.041063 33.4270444,124 37.5132381,124 L80.9382723,124 C85.0244661,124 88.9496275,127.143284 89.6608534,130.982946 L109.890532,241.017054" id="Fill-188" fill="#B2BCC4"></path>
            <path d="M78,138 L18.2835165,138 C13.6153846,138 8.93406593,136.246595 5.36703297,132.726797 C1.78681319,129.213493 0,124.615676 0,120.004871 L0,84.0016235 C0,79.3973122 1.78681319,74.7930008 5.36703297,71.2732029 C8.93406593,67.759899 13.6153846,66 18.2835165,66 L78,66 L78,138" id="Fill-189" fill="#EB5C38"></path>
            <path d="M293,101.5 C293,117.79255 275.533922,131 254.003246,131 C232.466078,131 215,117.79255 215,101.5 C215,85.2007291 232.466078,72 254.003246,72 C275.533922,72 293,85.2007291 293,101.5" id="Fill-190" fill="#2B455F"></path>
            <polyline id="Fill-191" fill="#E2EFF9" points="267 202 104 143.016104 104 57.7087091 267 0 267 202"></polyline>
            <polyline id="Fill-192" fill="#FFFFFF" points="267 13 104 72.6545106 104 85 267 48.3188922 267 13"></polyline>
            <path d="M274,205.36784 C274,207.367495 272.624894,209 270.935004,209 L264.059473,209 C262.375106,209 261,207.367495 261,205.36784 L261,3.63871636 C261,1.63906142 262.375106,0 264.059473,0 L270.935004,0 C272.624894,0 274,1.63906142 274,3.63871636 L274,205.36784" id="Fill-193" fill="#EB5C38"></path>
            <path d="M104,59 L26.1143116,59 C22.1982356,59 19,62.2165292 19,66.1406948 L19,136.885037 C19,140.796337 22.1982356,144 26.1143116,144 L104,144 L104,59" id="Fill-194" fill="#2B455F"></path>
            <polyline id="Fill-195" fill="#F2976D" points="306 65 333.66145 35.5157869 354.489843 37.6965534 391 13 358.581614 47.3470716 335.885385 46.6953483 306 65"></polyline>
            <polyline id="Fill-196" fill="#F2976D" points="332 100.353998 369.679299 79 386.805071 91.6647564 430 86.646262 385.920488 105 366.446672 93.2563167 332 100.353998"></polyline>
            <polyline id="Fill-197" fill="#F2976D" points="319 131 357.680024 139.356436 365.408445 158.320132 404 183 358.817486 166.828383 348.89629 147.072607 319 131"></polyline>
        </g>
        <g id="Group-3" transform="translate(1113.000000, -6.000000)">
            <path d="M154.779297,244.620861 C149.390982,254.345299 137.054578,257.871459 127.367213,252.462524 L49.3333321,208.880479 C39.6524128,203.471544 36.1396958,191.087928 41.5280103,181.36349 L125.233802,30.3791389 C130.622116,20.6547011 142.958521,17.128541 152.645885,22.5374765 L230.66043,66.1324611 C240.347795,71.5349265 243.860512,83.9250119 238.472197,93.6494497 L154.779297,244.620861" id="Fill-198" fill="#545454"></path>
            <path d="M157.408199,217.110629 C154.743273,221.848531 148.358004,223.42565 143.232638,220.585527 L64.6634883,177.218019 C59.5381227,174.384439 57.5064462,168.167579 60.1779688,163.429677 L130.587431,37.8883656 C133.252358,33.1504637 139.644223,31.5798885 144.762992,34.4069238 L223.325546,77.7875199 C228.457508,80.6145553 230.489184,86.8248714 227.830854,91.5693173 L157.408199,217.110629" id="Fill-199" fill="#7CD3D6"></path>
            <path d="M109.543319,221.666197 C106.229547,227.828805 98.3752018,229.834214 92.0155798,226.167389 C85.6418566,222.478607 83.1600529,214.508203 86.4597237,208.338276 C89.7734957,202.16103 97.5996381,200.162939 103.973361,203.844402 C110.347085,207.525865 112.842989,215.48895 109.543319,221.666197" id="Fill-200" fill="#383838"></path>
            <path d="M195.423969,58.3769207 L172.79295,47.2306618 C170.255986,45.9749075 169.267221,43.2502664 170.581238,41.1592628 C171.91477,39.0509782 175.030682,38.3770183 177.574151,39.6270122 L200.20517,50.7732712 C202.748639,52.0290254 203.737404,54.7306252 202.410377,56.8446701 C201.09636,58.9356738 197.967438,59.6269146 195.423969,58.3769207" id="Fill-201" fill="#383838"></path>
            <path d="M174.532283,104.66519 C171.228591,110.821608 163.392211,112.842176 157.009941,109.160954 C150.645924,105.486046 148.157508,97.5111168 151.461199,91.3483845 C154.764891,85.1730237 162.61344,83.15877 168.983541,86.8399922 C175.353643,90.5212145 177.848143,98.5024579 174.532283,104.66519" id="Fill-202" fill="#FFFFFF"></path>
            <path d="M167.837509,144 C173.141645,133.451421 168.412342,120.352162 156.674001,114.182355 C144.955257,108.012548 130.682428,111.106715 124,120.932704 L167.837509,144" id="Fill-203" fill="#FFFFFF"></path>
            <path d="M115.442861,171.31878 C112.877607,176.636677 107.018543,178.569814 102.420677,175.617 L89.9127686,167.565803 C85.3149031,164.605908 83.6373863,157.829306 86.2026401,152.511408 L87.5617961,149.678973 C90.1270499,144.361075 95.9861142,142.427938 100.58398,145.387833 L113.091888,153.439031 C117.689754,156.398926 119.361148,163.175528 116.795894,168.493425 L115.442861,171.31878" id="Fill-204" fill="#EB5C38"></path>
            <path d="M154.435214,197.3225 C151.876497,202.646824 146.01226,204.572643 141.415139,201.606032 L128.909257,193.562905 C124.312136,190.603374 122.641012,183.827605 125.199729,178.510362 L126.564786,175.678274 C129.123503,170.361031 134.981619,168.428131 139.578739,171.387662 L152.090743,179.43787 C156.687864,182.397401 158.358988,189.17317 155.800271,194.490413 L154.435214,197.3225" id="Fill-205" fill="#0DC41D"></path>
            <path d="M129.494141,37.6153846 C131.292226,34.6558018 134.592007,33.0065189 138.063035,33 C134.592007,33.0065189 131.292226,34.6558018 129.494141,37.6153846" id="Fill-206" fill="#888888"></path>
            <path d="M65.0075897,170 C64.9560445,168.355947 65.1557822,166.725152 65.9547331,165.200426 C65.9611762,165.200426 65.9611762,165.193797 65.9611762,165.193797 C65.9676194,165.187167 65.9676194,165.180538 65.9740625,165.173909 C65.9805057,165.16065 65.9869488,165.140763 65.9998351,165.127504 L134.774037,37.9520468 C134.78048,37.9387883 134.786923,37.9255299 134.793367,37.9122714 C134.832025,37.8393497 134.877128,37.7664279 134.915786,37.6935062 C136.674767,34.6838285 139.902786,33.0066292 143.298327,33 C143.30477,33 143.311213,33 143.317656,33 C143.324099,33 143.330543,33 143.336986,33 C145.044421,33 146.790515,33.4242718 148.420633,34.3125907 C148.420633,34.3125907 148.420633,34.3125907 148.427076,34.31922 C148.472178,34.3391077 148.51728,34.3656247 148.555939,34.3921417 C148.581711,34.3987709 148.601041,34.4120294 148.62037,34.4252879 L225.358308,78.3705603 C225.377637,78.3771896 225.390524,78.3904481 225.409853,78.3970773 C226.427871,78.9937095 227.239708,79.789219 228,80.6178748 L163.510494,115.984903 C161.757957,114.128714 159.709034,112.49129 157.37017,111.152182 C153.330314,108.838575 148.981187,107.738121 144.748036,107.738121 C136.880948,107.738121 129.426221,111.543308 125.141525,118.397948 L141.758414,127.910916 L104.987346,148.077083 L101.88819,146.300445 C100.348277,145.418755 98.6795009,145.001113 97.0236109,145.001113 C93.4798774,145.001113 90.0263481,146.923594 88.1836067,150.317768 L86.753227,152.969467 C85.7674247,154.792509 85.3743925,156.8078 85.5161418,158.756799 L65.0075897,170 M163.864867,83.262944 C159.187139,83.262944 154.767137,85.6362141 152.454046,89.9253363 C148.955414,96.3954805 151.590663,104.768218 158.3302,108.62644 C160.617519,109.93903 163.078803,110.562179 165.475655,110.562179 C170.153383,110.562179 174.566942,108.18228 176.886477,103.906416 C180.397995,97.4362721 177.756303,89.0569051 171.010323,85.1920546 C168.723004,83.8860931 166.26172,83.262944 163.864867,83.262944" id="Fill-207" fill="#A4E0E2"></path>
            <path d="M163.757259,111 C161.493957,111 159.169813,110.406508 157.009941,109.156387 C150.645924,105.481787 148.157508,97.5075279 151.461199,91.3453133 C153.645408,87.2603205 157.819132,85 162.236223,85 C164.499525,85 166.823669,85.593492 168.983541,86.8372997 C175.353643,90.5182127 177.848143,98.4987858 174.532283,104.661 C172.34199,108.733366 168.17435,111 163.757259,111" id="Fill-208" fill="#FFFFFF"></path>
            <path d="M140.890176,131 L124,121.568518 C128.355164,114.772593 135.932494,111 143.928967,111 C148.231738,111 152.652393,112.091029 156.75869,114.384818 C159.13602,115.712455 161.21864,117.335853 163,119.176142 L140.890176,131" id="Fill-209" fill="#FFFFFF"></path>
            <path d="M85.0287658,157 C84.8833762,155.158072 85.2865017,153.253494 86.2976198,151.530602 L87.7647323,149.024578 C89.6547962,145.816867 93.1970138,144 96.831752,144 C98.530166,144 100.241797,144.394699 101.821256,145.227952 L105,146.906988 L85.0287658,157" id="Fill-210" fill="#F18D74"></path>
            <path d="M292.508568,124 L291.114888,123.559923 C289.932749,122.733111 289.602995,121.046148 290.374496,119.779259 C301.243953,101.936126 303.844658,78.9720944 297.50466,56.7681961 C290.828686,33.3574192 275.143568,14.1007049 255.557392,5.24581696 C254.263261,4.65904727 253.653526,3.06543415 254.201043,1.67185614 C254.742338,0.284945977 256.254232,-0.375169919 257.535919,0.218267604 C278.503332,9.68659663 295.264818,30.2302035 302.376317,55.174583 C309.158062,78.9254196 306.333372,103.569746 294.636418,122.759782 C294.151119,123.566591 293.329843,124 292.508568,124" id="Fill-211" fill="#DEDEDE"></path>
            <path d="M276.307351,111 L274.896335,110.635591 C273.573508,109.900379 273.13935,108.2957 273.919478,107.05543 C282.290599,93.7065449 283.755884,76.8861826 277.935446,60.9097152 C271.904711,44.3898306 258.757846,30.9834072 242.761814,25.0569625 C241.330447,24.5263316 240.631723,23.0047633 241.194773,21.662203 C241.757822,20.3196427 243.379133,19.6483625 244.790149,20.1853867 C262.285384,26.6680349 276.63297,41.2571899 283.186051,59.2027457 C289.535621,76.6368499 287.900742,95.0491052 278.702007,109.714978 C278.186443,110.546087 277.257073,111 276.307351,111" id="Fill-212" fill="#DEDEDE"></path>
            <path d="M262.959617,98 L262.241512,97.8993575 C260.88648,97.5030777 260.112175,96.0752123 260.511816,94.7039583 C265.276286,78.2552008 257.458309,59.3847332 242.309418,50.8175409 C241.073029,50.1193336 240.635921,48.5530848 241.329049,47.3139241 C242.022176,46.0621831 243.595762,45.6470328 244.807174,46.3200795 C261.973004,56.0320801 270.833794,77.456351 265.413663,96.1506942 C265.088954,97.2766321 264.071119,98 262.959617,98" id="Fill-213" fill="#DEDEDE"></path>
            <path d="M43.2246928,248 L42.2071633,247.820977 C24.7192241,241.337775 10.3720591,226.747374 3.81916954,208.800286 C-2.53699766,191.3583 -0.902167035,172.944472 8.29629905,158.277347 C9.07640495,157.030578 10.7926379,156.640563 12.1018591,157.356656 C13.4246474,158.09193 13.8655768,159.696746 13.0786874,160.937122 C4.70781191,174.287147 3.24256953,191.115339 9.06962142,207.093171 C15.1001792,223.62086 28.2466595,237.022034 44.2354387,242.948985 C45.6667634,243.479661 46.3722505,245.001359 45.802434,246.344034 C45.3750716,247.373418 44.3304081,248 43.2246928,248" id="Fill-214" fill="#DEDEDE"></path>
            <path d="M43.4443644,222 L42.1961447,221.679155 C25.033124,211.972024 16.1707642,190.550907 21.5817966,171.860118 C21.9812269,170.494954 23.4041973,169.702278 24.7460335,170.104907 C26.1065929,170.501245 26.8804891,171.929319 26.4810588,173.294483 C21.7253418,189.75194 29.5516793,208.61888 44.6925841,217.181035 C45.9220805,217.879345 46.3651985,219.445823 45.6724365,220.685165 C45.2043542,221.528169 44.3368415,222 43.4443644,222" id="Fill-215" fill="#DEDEDE"></path>
        </g>
        <g id="Group-5" transform="translate(476.000000, 523.000000)">
            <polyline id="Fill-216" fill="#86C460" points="208.955769 229 0 153.035379 39.0508151 46 248 121.964621 208.955769 229"></polyline>
            <polyline id="Fill-217" fill="#5D9849" points="202.518388 216 13 147.501481 45.4881225 59 235 127.492058 202.518388 216"></polyline>
            <path d="M222.898441,117.728337 C220.092471,125.174207 224.079261,133.431712 231.791113,136.148925 C234.907504,137.242868 238.115196,137.236987 241.06116,136.390063 L248,117.975357 L228.175612,111 C225.838318,112.611507 223.963614,114.91114 222.898441,117.728337" id="Fill-218" fill="#86C460"></path>
            <path d="M32,65.2568574 C33.6212571,67.846997 35.9688838,69.9449485 38.9324719,71.0892857 C46.3065766,73.9316717 54.4593495,69.8957297 57.1323899,62.1130062 C58.1493074,59.1598779 58.2422827,56.108312 57.5682116,53.2966878 L38.6303022,46 L32,65.2568574" id="Fill-219" fill="#86C460"></path>
            <path d="M215,202.738079 C213.383998,200.153413 211.047189,198.054909 208.070954,196.910271 C200.700123,194.067138 192.53873,198.110295 189.858956,205.888911 C188.847502,208.830508 188.760307,211.882876 189.434611,214.701394 L208.379041,222 L215,202.738079" id="Fill-220" fill="#86C460"></path>
            <path d="M31.0984667,150.271663 C33.9054519,142.831674 29.9415747,134.574169 22.2086653,131.851075 C19.1094126,130.757132 15.8822929,130.763013 12.9413518,131.609937 L6,150.018762 L25.8437416,157 C28.1818811,155.37673 30.0389972,153.077097 31.0984667,150.271663" id="Fill-221" fill="#86C460"></path>
            <path d="M159.838259,147.058009 C168.318652,124.641985 159.152975,100.843976 139.358801,93.9087018 C119.571216,86.9734272 96.6537274,99.5317261 88.1667448,121.947751 C79.6797621,144.363776 88.8388506,168.155444 108.626435,175.090719 C128.420609,182.025994 151.351276,169.474034 159.838259,147.058009" id="Fill-222" fill="#86C460"></path>
            <path d="M120.03116,150.931788 C121.734121,151.206633 123.287586,150.931788 124.717554,150.120342 C126.141022,149.302351 127.148499,148.091726 127.733486,146.488465 C128.246974,145.06189 128.272974,143.681122 127.811484,142.333075 C127.336995,140.991571 126.251519,139.68933 124.561558,138.432897 L120.03116,150.931788 Z M127.733486,115.169255 C126.342517,115.129991 125.081546,115.489907 123.970071,116.249002 C122.852096,117.001553 122.085113,117.989685 121.636624,119.246118 C121.227133,120.358585 121.175134,121.536491 121.506626,122.760204 C121.825119,123.983917 122.572602,125.135648 123.729576,126.241571 L127.733486,115.169255 Z M115.57226,148.778838 L120.427651,135.363798 C116.709735,132.641526 114.324289,129.716393 113.245313,126.588398 C112.198836,123.447316 112.276835,120.149179 113.524807,116.693988 C114.792278,113.199534 116.963229,110.660492 120.01816,109.083407 C123.066591,107.506322 126.492014,107.21839 130.261929,108.173802 L131.405903,105 L136.033799,106.70142 L134.889825,109.875222 C138.107252,111.517746 140.369201,113.657609 141.675672,116.294809 C142.969142,118.945098 143.313635,121.961846 142.715648,125.364685 L134.285338,123.460404 C134.707829,120.777396 134.064343,118.611358 132.322383,116.962289 L127.798485,129.480812 C132.380881,132.720053 135.195318,135.795697 136.241794,138.68811 C137.288271,141.560892 137.190773,144.741238 135.942801,148.209516 C134.545332,152.063886 132.198885,154.890861 128.922959,156.683895 C125.634033,158.483474 121.818619,158.928461 117.476717,158.005768 L115.312266,164 L110.684371,162.29858 L112.790323,156.467946 C109.280402,154.681455 106.810458,152.207853 105.354491,149.060226 C103.898524,145.925688 103.61903,142.123669 104.50301,137.68689 L113.128315,139.83984 C112.848822,141.665594 112.959319,143.373558 113.440308,144.950643 C113.927797,146.534272 114.642781,147.816881 115.57226,148.778838 Z" id="Fill-223" fill="#4F7A41"></path>
            <polyline id="Fill-224" fill="#8ECC6D" points="209.839915 222 13 121.644275 64.1666184 20 261 120.349151 209.839915 222"></polyline>
            <polyline id="Fill-225" fill="#65A056" points="205.26453 209 26 117.761016 68.7354703 33 248 124.245501 205.26453 209"></polyline>
            <path d="M236.573774,118.455838 C232.935825,127.151912 235.821095,137.758815 243.001414,142.157327 C245.910578,143.923942 249.04674,144.342161 251.991746,143.743675 L261,122.306339 L242.517549,111 C240.044461,112.658455 237.965633,115.174981 236.573774,118.455838" id="Fill-226" fill="#8ECC6D"></path>
            <path d="M52,37.878719 C53.6003511,40.6029234 56.1866328,42.9302239 59.6516788,44.4095932 C68.253566,48.0839616 78.770159,45.1733326 83.1139692,37.9268286 C84.7571869,35.1966105 85.2787299,32.2438856 84.8643532,29.4294757 L62.7595035,20 L52,37.878719" id="Fill-227" fill="#8ECC6D"></path>
            <path d="M222,204.107151 C220.385402,201.392831 217.806333,199.063691 214.355666,197.589171 C205.739716,193.917917 195.251976,196.824828 190.879703,204.07104 C189.236528,206.797398 188.722143,209.734401 189.136509,212.557054 L211.247923,222 L222,204.107151" id="Fill-228" fill="#8ECC6D"></path>
            <path d="M37.4168672,123.570295 C41.0611758,114.878262 38.2054717,104.260276 30.9885459,99.8745864 C28.0969962,98.0929 24.9664754,97.6601016 21.9912858,98.2443794 L13,119.689537 L31.4903851,131 C33.9577612,129.34094 36.0427837,126.837923 37.4168672,123.570295" id="Fill-229" fill="#8ECC6D"></path>
            <path d="M170.488041,138.287056 C181.526915,116.74152 175.462669,91.7548621 156.965096,82.4715353 C138.480494,73.1946285 114.547799,83.1520558 103.515411,104.697592 C92.4765361,126.268807 98.527811,151.261886 117.025384,160.525953 C135.509986,169.809279 159.449167,159.845432 170.488041,138.287056" id="Fill-230" fill="#8ECC6D"></path>
            <path d="M131.190342,138.058592 C132.741176,138.583613 134.249101,138.494973 135.665079,137.833584 C137.093317,137.144921 138.159898,136.033514 138.877082,134.458454 C139.514579,133.02658 139.698472,131.594707 139.416503,130.156015 C139.134533,128.717323 138.264105,127.224084 136.811348,125.717208 L131.190342,138.058592 Z M142.407834,102.050387 C141.083802,101.832197 139.876236,102.03675 138.742227,102.684502 C137.614348,103.332255 136.774569,104.252745 136.216759,105.473246 C135.701858,106.59829 135.542484,107.818791 135.707988,109.114296 C135.873492,110.416619 136.437431,111.705305 137.412066,112.993991 L142.407834,102.050387 Z M127.248896,135.297122 L133.298985,122.028429 C130.111502,118.741939 128.199011,115.414538 127.561514,112.046227 C126.911758,108.664278 127.371491,105.261874 128.928455,101.845834 C130.491548,98.382064 132.808603,96.0160638 135.842843,94.7819253 C138.889342,93.53415 142.125864,93.6637005 145.546279,95.129666 L146.980647,92 L151.105987,94.3250896 L149.671619,97.461574 C152.515836,99.5548365 154.397677,102.064024 155.329403,104.955044 C156.23048,107.852883 156.23661,111.030279 155.268105,114.466775 L147.599755,111.453022 C148.298549,108.718826 147.912373,106.386918 146.490265,104.457298 L140.85087,116.839593 C144.780057,120.787473 147.072594,124.319427 147.72235,127.442274 C148.384366,130.544667 147.930763,133.81752 146.367669,137.233561 C144.639072,141.058708 142.131994,143.676991 138.852563,145.149775 C135.591522,146.595285 131.962694,146.57483 127.984469,145.074772 L125.305757,151 L121.162028,148.668092 L123.797832,142.899688 C120.708424,140.615509 118.667208,137.744944 117.655795,134.294811 C116.644382,130.865133 116.803756,126.924073 118.127788,122.423899 L125.955513,125.737663 C125.49578,127.605917 125.391573,129.371894 125.667413,131.062868 C125.961643,132.753843 126.476544,134.165261 127.248896,135.297122 Z" id="Fill-231" fill="#57824E"></path>
            <polyline id="Fill-232" fill="#9BD975" points="205.866586 222 32 90.0219587 99.1269714 0 273 131.958542 205.866586 222"></polyline>
            <polyline id="Fill-233" fill="#72AD5E" points="209.950179 209 46 88.4334225 104.029952 13 268 133.573052 209.950179 209"></polyline>
            <path d="M250.889499,123.850916 C246.11572,131.348705 247.391471,142.008212 253.723196,147.643714 C256.274699,149.909033 259.249492,150.972205 262.206649,151 L274,132.481364 L257.697426,118 C255.075375,119.063171 252.682606,121.043588 250.889499,123.850916" id="Fill-234" fill="#9BD975"></path>
            <path d="M85,15.7178782 C85.9813613,18.5665593 87.9786387,21.1852227 90.9641885,23.1020371 C98.4349738,27.8911242 109.022618,26.6112819 114.627435,20.2474581 C116.74911,17.8588124 117.841047,15.0750081 118,12.2912038 L98.8496335,0 L85,15.7178782" id="Fill-235" fill="#9BD975"></path>
            <path d="M222,206.289799 C221.018228,203.434471 219.013199,200.815121 216.019485,198.891905 C208.56631,194.107461 197.967316,195.393539 192.373979,201.759031 C190.251414,204.142404 189.138278,206.915139 189,209.687875 L208.144563,222 L222,206.289799" id="Fill-236" fill="#9BD975"></path>
            <path d="M55.1076056,99.1339511 C59.8878813,91.6484836 58.6060854,81.0006318 52.2735431,75.3500421 C49.7099512,73.0911963 46.7524129,72.0278012 43.7772351,72 L32,90.5016849 L48.2987997,105 C50.9270693,103.936605 53.3142673,101.976622 55.1076056,99.1339511" id="Fill-237" fill="#9BD975"></path>
            <path d="M185.190218,131.37256 C199.468976,111.605116 197.991863,85.3274371 181.857245,72.6817972 C165.728939,60.0558852 141.085139,65.8493375 126.812693,85.6233569 C112.52131,105.410528 114.01736,131.675056 130.145666,144.307544 C146.273972,156.953184 170.911459,151.146579 185.190218,131.37256" id="Fill-238" fill="#9BD975"></path>
            <path d="M144.079347,125.816709 C145.671071,126.6 147.28966,126.797468 148.955262,126.435443 C150.600715,126.060253 151.957374,125.204557 153.011808,123.835443 C153.94535,122.597975 154.388615,121.281519 154.341602,119.859747 C154.281157,118.418228 153.596111,116.845063 152.286465,115.127089 L144.079347,125.816709 Z M162.400965,93.6820253 C161.024157,93.2410127 159.654066,93.2278481 158.344419,93.6162025 C157.021341,94.0111392 155.946759,94.7417722 155.134106,95.7949367 C154.402048,96.7625316 153.99908,97.8881013 153.965499,99.158481 C153.91177,100.422278 154.308022,101.765063 155.120674,103.167089 L162.400965,93.6820253 Z M140.311595,122.459747 L149.136597,110.973671 C146.262091,107.261266 144.764393,103.733165 144.663651,100.402532 C144.542761,97.078481 145.630775,93.9321519 147.887396,90.9701266 C150.204463,87.9751899 153.085685,86.1782278 156.584792,85.5463291 C160.070466,84.9473418 163.542708,85.6648101 166.988086,87.7250633 L169.063372,85 L173.106485,87.9949367 L171.037916,90.6936709 C173.737802,93.2344304 175.32281,95.9529114 175.819804,98.8886076 C176.323514,101.817722 175.772791,104.832405 174.147486,107.919494 L166.376918,103.608101 C167.619403,101.133165 167.60597,98.8556962 166.383634,96.7493671 L158.176516,107.458734 C161.736068,111.95443 163.603153,115.726076 163.771057,118.819747 C163.93896,121.913418 162.891243,124.921519 160.614473,127.890127 C158.08249,131.187848 154.91919,133.228354 151.151438,133.985316 C147.356821,134.742278 143.454747,134.037975 139.438497,131.872405 L135.509558,137 L131.453012,134.011646 L135.267777,129.028861 C132.352974,126.257722 130.633644,123.157468 130.143366,119.714937 C129.632939,116.252658 130.485889,112.507342 132.695497,108.492152 L140.573524,113.106329 C139.74744,114.791392 139.351188,116.463291 139.351188,118.141772 C139.36462,119.787342 139.680278,121.235443 140.311595,122.459747 Z" id="Fill-239" fill="#648F56"></path>
        </g>
    </g>
</svg>