<?xml version="1.0" encoding="iso-8859-1"?>
<!-- Generator: Adobe Illustrator 19.0.0, SVG Export Plug-In . SVG Version: 6.00 Build 0)  -->
<svg version="1.1" id="Layer_1" xmlns="http://www.w3.org/2000/svg" xmlns:xlink="http://www.w3.org/1999/xlink" x="0px" y="0px"
	 viewBox="0 0 512 512" style="enable-background:new 0 0 512 512;" xml:space="preserve">
<path style="fill:#96E6FF;" d="M440.889,512H71.111c-18.328,0-33.185-14.857-33.185-33.185l0,0
	c0-18.328,14.857-33.185,33.185-33.185h369.778c18.328,0,33.185,14.857,33.185,33.185l0,0C474.074,497.143,459.216,512,440.889,512z
	"/>
<path style="fill:#00D2FF;" d="M227.555,445.63H71.111c-18.328,0-33.185,14.857-33.185,33.185S52.783,512,71.111,512h156.444V445.63
	z"/>
<path style="fill:#FFF082;" d="M323.993,355.988l16.651-150.635c-8.446-3.995-17.849-6.244-27.729-6.244h-0.026
	c-5.236,0-9.482,4.245-9.482,9.481v18.963c0,26.182-21.225,47.407-47.407,47.407s-47.407-21.225-47.407-47.407v-18.963
	c0-5.236-4.245-9.481-9.481-9.481h-0.025c-9.881,0-19.284,2.248-27.729,6.244l16.651,150.635c1.073,9.116,0.481,18.353-1.746,27.259
	l-15.596,62.382h170.667l-15.596-62.382C323.512,374.342,322.92,365.106,323.993,355.988z"/>
<g>
	<path style="fill:#FFDC64;" d="M236.444,349.093c0-8.895-6.265-16.335-14.897-18.487c-33.879-8.443-40.91-43.4-42.199-52.937
		l8.658,78.319c1.073,9.116,0.481,18.353-1.746,27.259l-15.595,62.382h65.778V349.093z"/>
	<polygon style="fill:#FFDC64;" points="179.068,275.124 179.07,275.129 179.068,275.123 	"/>
</g>
<g>
	<path style="fill:#F5C882;" d="M474.915,388.74h-0.849c-10.47,0.005-18.956,8.494-18.956,18.964l-66.37-66.37l-11.448-85.858
		c-2.996-22.472-17.272-40.954-36.649-50.121l-7.629,69.016l0,0l14.423,69.036c2.202,11.013,7.616,21.128,15.557,29.069
		l59.269,59.269c8.891,8.892,20.949,13.887,33.522,13.887h18.308c15.71,0,28.427-12.735,28.427-28.584v-0.722
		C502.518,401.082,490.157,388.729,474.915,388.74z"/>
	<path style="fill:#F5C882;" d="M179.068,275.123l-7.712-69.769c-19.378,9.166-33.653,27.649-36.649,50.121l-11.448,85.858
		l-66.37,66.37v-1.609c0-9.585-7.769-17.353-17.353-17.353l0,0c-15.403,0-29.208,11.533-30.014,26.914
		c-0.859,16.404,12.187,29.975,28.404,29.975h18.289c12.574,0,24.632-4.994,33.522-13.886l59.269-59.269
		c7.942-7.942,13.355-18.056,15.557-29.069L179.068,275.123L179.068,275.123z"/>
</g>
<circle style="fill:#5B5D6E;" cx="256" cy="33.185" r="33.185"/>
<path style="fill:#F5C882;" d="M256,189.63L256,189.63c-31.419,0-56.889-25.47-56.889-56.889V66.37h113.778v66.37
	C312.889,164.16,287.419,189.63,256,189.63z"/>
<path style="fill:#F5AF73;" d="M199.111,66.37v66.37c0,31.419,25.47,56.889,56.889,56.889c6.66,0,13.024-1.204,18.963-3.307
	c-22.081-7.817-37.926-28.823-37.926-53.582v-8.425c13.582-3.345,28.326-8.117,42.984-15.153
	c7.596,7.462,18.825,16.045,32.868,20.503V66.37H199.111z"/>
<path style="fill:#F5C882;" d="M227.555,493.037l-70.484-15.663c-8.677-1.928-14.849-9.624-14.849-18.511l0,0
	c0-7.308,5.925-13.233,13.233-13.233h72.101V493.037z"/>
<path style="fill:#5B5D6E;" d="M284.444,85.333c-47.409,28.017-104.296,27.673-104.296,27.673v-8.71
	c0-41.892,33.96-75.852,75.852-75.852l0,0c41.892,0,75.852,33.96,75.852,75.852v9.481
	C303.407,113.778,284.444,85.333,284.444,85.333z"/>
<path style="fill:#464655;" d="M281.66,32.991c-8.026-2.889-16.64-4.546-25.66-4.546c-41.892,0-75.852,33.96-75.852,75.852v8.71
	c0,0,20.71,0.079,47.507-5.953C228.494,72.706,250.78,43.75,281.66,32.991z"/>
<polygon style="fill:#F5AF73;" points="202.657,487.505 227.555,493.037 227.555,445.63 "/>
<g>
</g>
<g>
</g>
<g>
</g>
<g>
</g>
<g>
</g>
<g>
</g>
<g>
</g>
<g>
</g>
<g>
</g>
<g>
</g>
<g>
</g>
<g>
</g>
<g>
</g>
<g>
</g>
<g>
</g>
</svg>
